<svg xmlns:osb="http://www.openswatchbook.org/uri/2009/osb" xmlns="http://www.w3.org/2000/svg" height="874.829" width="552.247"><defs><linearGradient osb:paint="solid" id="c"><stop offset="0" stop-color="#fff"/></linearGradient><linearGradient osb:paint="solid" id="b"><stop offset="0"/></linearGradient><linearGradient osb:paint="solid" id="a"><stop offset="0" stop-color="#162d50"/></linearGradient></defs><g color="#000"><path d="M404.57 18.082c-5.943-.066-13.41.007-22.07.223a1585.45 1585.45 0 0 1-37.08.53c-13.872.045-31.051-.038-56.92-.231a474.866 474.866 0 0 0-15.557.123c-4.939.124-9.657.334-14.226.634-4.569.3-8.989.69-13.334 1.176a277.38 277.38 0 0 0-12.883 1.746c-5.5.876-13.15 2.051-17 2.613-6.11.893-25.14 4.51-44.064 8.264C152.51 36.915 133.69 40.81 128 42.258a414.66 414.66 0 0 1-13.13 3.068c-1.715.366-3.193.715-4.692 1.15-1.5.436-3.02.958-4.815 1.667-3.59 1.416-8.283 3.58-16.127 7.296-5.094 2.415-9.86 4.39-10.591 4.39-.366 0-1.476.55-2.97 1.44-1.492.89-3.37 2.12-5.269 3.47a64.524 64.524 0 0 0-5.94 4.775 66 66 0 0 0-5.359 5.455 69.08 69.08 0 0 0-4.761 6.105 73.794 73.794 0 0 0-4.149 6.729 80.015 80.015 0 0 0-3.52 7.318 87.807 87.807 0 0 0-2.872 7.881 97.077 97.077 0 0 0-2.21 8.412 107.816 107.816 0 0 0-1.532 8.914c-.429 3.3-1.267 8.475-1.862 11.5-1.086 5.519-3.221 18.435-5.207 31.5-.803 5.285-1.51 11.104-2.152 17.817-.643 6.712-1.223 14.32-1.776 23.183-.548 8.8-1.574 20.5-2.28 26-.251 1.948-.468 5.635-.651 10.615s-.331 11.253-.447 18.371c-.233 14.238-.336 31.86-.311 49.291.025 17.432.175 34.673.447 48.15.136 6.74.304 12.54.5 16.95s.421 7.434.676 8.623c.315 1.468.565 3.384.764 6.402.198 3.019.345 7.139.45 13.016.214 11.755.267 30.537.253 61.582-.012 25.924-.11 45.06-.309 58.46-.2 13.399-.5 21.062-.92 24.04-.819 5.82-1.594 12.888-2.312 21.03-.718 8.141-1.377 17.357-1.963 27.47-.542 9.35-1.477 20.15-2.078 24-.3 1.925-.633 6.808-.928 13.125a823.295 823.295 0 0 0-.7 21.727c-.14 7.358-.25 12.827-.251 17.345-.001 4.519.105 8.087.398 11.641.294 3.554.774 7.094 1.518 11.559.744 4.464 1.751 9.853 3.1 17.103 1.563 8.404 2.513 13.862 3.158 18.678.644 4.816.984 8.99 1.326 14.822.149 2.54.613 6.262 1.26 10.48a355.786 355.786 0 0 0 2.353 13.463c.878 4.529 1.804 8.869 2.649 12.336.844 3.468 1.605 6.063 2.15 7.1.468.892 2.084 5.36 3.592 9.928.857 2.597 1.87 5.067 2.945 7.215 1.074 2.147 2.21 3.973 3.307 5.285a42.418 42.418 0 0 1 2.748 3.695c.802 1.213 1.424 2.31 1.676 2.998.217.594.778 1.38 1.584 2.274.805.893 1.856 1.895 3.052 2.92 2.392 2.048 5.366 4.187 8.13 5.738 1.466.823 4.015 1.784 8.491 3.138 4.477 1.354 10.882 3.1 20.057 5.497 7.562 1.974 14.03 3.453 20.436 4.628 6.406 1.176 12.75 2.047 20.064 2.803 5.775.597 14.55 1.742 19.5 2.543 2.475.4 6.807.879 11.791 1.328 4.984.45 10.622.87 15.71 1.153 10.174.563 22.1 1.45 26.5 1.97 4.4.521 14.75 1.47 23 2.108 8.25.637 17.924 1.48 21.5 1.873 5.328.585 8.103.866 9.92.683.91-.09 1.579-.298 2.21-.64.631-.343 1.225-.821 1.978-1.455.867-.73 1.872-1.34 3.036-1.832 1.163-.493 2.486-.87 3.994-1.135s3.2-.418 5.1-.463c1.899-.045 4.006.017 6.345.184 3.804.27 14.791.97 24.416 1.556 4.813.293 9.75.73 13.828 1.2 4.078.468 7.297.968 8.672 1.386 1.375.419 3.413.8 5.588 1.076 2.175.278 4.487.451 6.412.453l7 .008.002-.132 18.998.175v.145l5.649-.094 1.634.016.04-.043 33.177-.547c11.016-.182 19.616-.351 26.586-.59 6.97-.239 12.309-.547 16.8-1.002 4.493-.455 8.137-1.057 11.72-1.887 3.582-.829 7.103-1.885 11.345-3.248 2.28-.732 4.074-1.329 5.57-1.9 1.497-.571 2.696-1.116 3.786-1.742 1.09-.626 2.07-1.333 3.13-2.23 1.06-.898 2.201-1.985 3.608-3.37 2.184-2.15 4.042-4.252 5.773-6.752 1.732-2.5 3.335-5.398 5.012-9.14 1.678-3.743 3.43-8.33 5.453-14.207 2.024-5.877 4.322-13.043 7.092-21.946 1.356-4.356 2.476-8.252 3.426-12.088.95-3.835 1.728-7.61 2.402-11.716.674-4.108 1.243-8.548 1.772-13.721.528-5.173 1.016-11.076 1.529-18.108.467-6.398 1.319-14.273 1.893-17.5 1.03-5.8 1.884-11.152 2.61-16.707.728-5.554 1.33-11.312 1.858-17.93.528-6.616.982-14.092 1.414-23.08.433-8.986.844-19.485 1.286-32.15.31-8.923.481-26.74.539-48.558.057-21.82.002-47.64-.139-72.576-.14-24.936-.366-48.986-.65-67.26-.284-18.274-.627-30.773-.998-32.606-.288-1.417-.618-8.72-.952-19.832-.333-11.112-.669-26.032-.972-42.68-.607-33.295-1.08-73.504-1.112-103.988-.012-11.137.118-26.044.338-41.088.22-15.043.53-30.224.875-41.912.314-10.626.533-19.234.637-26.51.104-7.275.094-13.217-.049-18.507-.142-5.291-.418-9.93-.844-14.604-.426-4.673-1.003-9.379-1.75-14.8a68.709 68.709 0 0 0-1.185-6.348 67.178 67.178 0 0 0-1.72-6.05 53.132 53.132 0 0 0-2.143-5.407c-.772-1.659-1.595-3.154-2.45-4.428-.851-1.27-2.447-3.194-4.408-5.389a206.15 206.15 0 0 0-6.596-7.006c-2.31-2.348-4.608-4.582-6.511-6.314-1.904-1.732-3.415-2.963-4.153-3.309-1.277-.598-5.922-2.312-10.322-3.81-4.4-1.498-10.36-3.582-13.246-4.631-1.246-.453-2.967-.91-5.193-1.377-2.227-.466-4.958-.94-8.229-1.43-6.54-.978-15.233-2.01-26.332-3.136-5.5-.558-13.6-1.492-18-2.077-2.566-.34-6.986-.547-12.93-.613z" style="isolation:auto;mix-blend-mode:normal" overflow="visible" fill="#f95"/><path d="M565.377 62.59c-38.027.025-60.602.143-76.008.597-7.703.228-13.612.537-18.765.963-5.154.427-9.552.968-14.227 1.655-5.5.807-13.825 1.97-18.5 2.582-4.675.612-15.025 2.4-23 3.974a8127.834 8127.834 0 0 1-33.5 6.512c-13.891 2.668-22.212 4.338-31.106 6.51-8.893 2.172-18.358 4.846-34.537 9.521-1.276.37-2.917 1.052-4.533 1.856-1.616.804-3.206 1.729-4.38 2.58-1.175.85-2.811 1.792-4.499 2.625-1.687.832-3.427 1.555-4.812 1.967-2.445.726-4.894 1.714-7.324 2.935a57.711 57.711 0 0 0-7.211 4.338 71.548 71.548 0 0 0-6.948 5.574 83.99 83.99 0 0 0-6.54 6.647 92.709 92.709 0 0 0-5.987 7.553 96.283 96.283 0 0 0-5.287 8.292 94.438 94.438 0 0 0-4.442 8.868 88.085 88.085 0 0 0-3.447 9.275c-2.089 6.782-3.451 11.457-4.29 14.856-.84 3.398-1.157 5.519-1.157 7.19 0 2.04-.638 6.803-1.418 10.583-.887 4.3-1.793 9.318-2.672 14.717a614.693 614.693 0 0 0-2.508 16.996 633.4 633.4 0 0 0-2.072 17.23c-.587 5.557-1.056 10.813-1.361 15.428-.528 7.975-1.695 23.05-2.594 33.5-.51 5.93-.962 17.17-1.326 30.893-.365 13.721-.642 29.923-.803 45.779-.161 15.855-.205 31.364-.105 43.695.1 12.331.343 21.485.761 24.633.79 5.946 1.408 11.011 1.889 16.037.48 5.026.825 10.014 1.068 15.807.243 5.792.385 12.39.461 20.635.076 8.245.085 18.137.065 30.521-.044 26.1-.378 49.004-.952 67.014-.286 9.005-.632 16.787-1.03 23.133-.4 6.345-.851 11.254-1.348 14.515-.626 4.103-1.27 10.29-1.948 18.711-.677 8.422-1.386 19.08-2.138 32.127-.556 9.625-1.452 19.661-1.99 22.3-.27 1.32-.515 5.29-.692 10.622-.177 5.331-.287 12.024-.287 18.793 0 6.397.012 11.319.115 15.535.103 4.216.299 7.727.662 11.307.364 3.58.897 7.227 1.678 11.715.781 4.487 1.81 9.814 3.166 16.753.673 3.445 1.396 7.811 2.02 12.07.623 4.26 1.147 8.412 1.42 11.43.932 10.315 1.629 17.061 2.474 22.852.846 5.791 1.84 10.627 3.361 17.123.838 3.575 1.881 7.5 2.887 10.943 1.006 3.444 1.975 6.407 2.664 8.057 1.378 3.3 2.516 6.552 2.53 7.225.008.479.442 1.684 1.119 3.26.676 1.574 1.596 3.52 2.58 5.474 1.968 3.91 4.19 7.864 5.226 9 1.025 1.124 2.557 3.42 3.407 5.102.41.813 1.084 1.741 1.96 2.742.877 1 1.957 2.073 3.18 3.178 2.447 2.21 5.467 4.548 8.584 6.685 3.117 2.138 6.332 4.074 9.164 5.484 1.416.706 2.736 1.28 3.903 1.68 1.166.4 2.177.629 2.974.643.867.015 4.797 1.152 8.733 2.527 3.935 1.375 7.866 2.5 8.736 2.5.87 0 3.691.635 6.27 1.41 2.529.76 5.746 1.555 9.406 2.34 3.66.786 7.762 1.564 12.062 2.291 4.3.728 8.8 1.404 13.252 1.99 4.451.587 8.855 1.083 12.967 1.446 3.85.34 10.771 1.27 15.38 2.07 2.306.4 5.114.764 7.784 1.027 2.67.264 5.2.426 6.947.426 3.493 0 9.397.445 13.12.986 3.722.542 14.644 1.434 24.269 1.98 10.056.572 22.324 1.515 32.172 2.41 9.847.893 17.274 1.738 17.65 2.114.28.28 11.46.51 24.844.51 8.81 0 15.522-.108 20.86-.36 5.336-.25 9.297-.644 12.603-1.214 4.18-.721 6.601-1.082 8.736-1.076 2.135.006 3.984.377 7.014 1.117 1.422.347 2.872.618 4.744.822 1.872.204 4.166.342 7.275.424 6.22.163 15.703.1 31.602-.104 29.544-.378 52.578-.895 69.021-1.548 8.222-.327 14.795-.689 19.711-1.082 4.917-.394 8.176-.821 9.768-1.282 4.623-1.337 8.805-2.683 12.574-4.052 3.769-1.37 7.125-2.761 10.098-4.19 2.973-1.429 5.562-2.895 7.799-4.412 2.236-1.517 4.12-3.085 5.68-4.719 2.017-2.114 4.979-5.898 7.437-9.332 1.229-1.716 2.333-3.347 3.129-4.635.795-1.287 1.283-2.233 1.283-2.585 0-.495 1.06-3.232 2.357-6.084 1.124-2.47 2.587-6.248 4.19-10.711a490.463 490.463 0 0 0 5.027-14.83 516.757 516.757 0 0 0 4.668-15.23c1.363-4.732 2.465-8.91 3.108-11.917a211.422 211.422 0 0 0 2.83-16.47c.766-5.767 1.363-11.876 1.818-18.53.41-5.98 1.126-13.06 2.008-20.098.881-7.037 1.927-14.03 2.994-19.836.55-2.988 1-7.802 1-10.699 0-2.897.452-7.427 1.004-10.066.444-2.125.872-7.509 1.262-15.361.39-7.853.742-18.175 1.039-30.172.296-11.998.535-25.672.699-40.23.163-14.56.25-30.002.242-45.538-.02-37.307-.435-79.418-1.02-113.209-.292-16.895-.626-31.711-.974-42.807-.348-11.095-.71-18.47-1.057-20.484-.386-2.241-.726-13.272-.998-29.143-.272-15.87-.476-36.581-.592-58.181-.115-21.6-.14-44.088-.056-63.518.083-19.43.277-35.799.601-45.158.772-22.255 1.164-41.525 1.174-56.908.005-7.692-.086-14.41-.271-20.047-.186-5.636-.467-10.19-.844-13.545-.884-7.872-1.833-14.619-2.727-19.562-.446-2.472-.88-4.494-1.283-5.979-.403-1.485-.775-2.433-1.103-2.762-.302-.301-.575-.764-.774-1.265-.198-.502-.322-1.043-.322-1.502 0-.819-.65-2.325-1.758-4.256-1.108-1.93-2.673-4.285-4.504-6.799a139.915 139.915 0 0 0-6.095-7.756c-2.168-2.568-4.408-5.03-6.528-7.123-2.733-2.698-4.994-4.875-6.955-6.654-1.96-1.78-3.62-3.162-5.15-4.27-1.531-1.108-2.933-1.941-4.377-2.627-1.445-.685-2.932-1.221-4.633-1.732-3.025-.909-10.081-3.238-15.68-5.176-2.576-.892-4.753-1.61-6.908-2.228a81.375 81.375 0 0 0-6.771-1.63c-4.969-.985-11.347-1.87-22.141-3.25-5.856-.748-10.899-1.33-16.344-1.779-5.445-.449-11.29-.765-18.754-.988-7.463-.223-16.545-.35-28.457-.42-11.912-.069-26.655-.079-45.445-.066zm63.07 18.078c5.944.066 10.364.272 12.93.613 4.4.585 12.5 1.519 18 2.076 11.099 1.126 19.791 2.16 26.332 3.137 3.27.49 6.002.964 8.229 1.43 2.226.466 3.947.924 5.193 1.377 2.886 1.049 8.846 3.133 13.246 4.63 4.4 1.499 9.045 3.213 10.322 3.811.738.346 2.249 1.577 4.153 3.309 1.903 1.732 4.2 3.966 6.511 6.314a206.15 206.15 0 0 1 6.596 7.006c1.96 2.194 3.557 4.12 4.408 5.389.855 1.274 1.678 2.77 2.45 4.427a53.132 53.132 0 0 1 2.142 5.409 67.178 67.178 0 0 1 1.72 6.049c.491 2.085.893 4.22 1.186 6.347.746 5.422 1.324 10.128 1.75 14.801.426 4.673.701 9.313.844 14.603.143 5.291.153 11.233.049 18.508-.104 7.275-.323 15.884-.637 26.51-.345 11.688-.655 26.868-.875 41.912-.22 15.044-.35 29.95-.338 41.088.032 30.484.505 70.693 1.111 103.988.304 16.648.64 31.568.973 42.68.334 11.112.664 18.415.951 19.832.372 1.833.714 14.332.998 32.606.284 18.273.51 42.323.65 67.26.142 24.935.197 50.756.14 72.575-.058 21.82-.228 39.636-.54 48.56-.441 12.664-.852 23.162-1.285 32.15-.432 8.986-.886 16.462-1.414 23.08-.528 6.617-1.13 12.374-1.857 17.93-.728 5.554-1.58 10.906-2.612 16.706-.573 3.227-1.425 11.102-1.892 17.5-.513 7.032-1.001 12.935-1.53 18.108-.528 5.172-1.097 9.613-1.77 13.72a146.896 146.896 0 0 1-2.403 11.717c-.95 3.835-2.07 7.732-3.426 12.088-2.77 8.903-5.068 16.069-7.092 21.945-2.024 5.877-3.775 10.465-5.453 14.207-1.678 3.743-3.28 6.64-5.012 9.141-1.73 2.5-3.589 4.603-5.773 6.752-1.407 1.385-2.547 2.472-3.608 3.37-1.06.896-2.04 1.604-3.13 2.23-1.09.626-2.289 1.17-3.786 1.742-1.496.57-3.29 1.168-5.57 1.9-4.242 1.363-7.763 2.419-11.346 3.248-3.582.83-7.226 1.432-11.718 1.887-4.492.455-9.831.763-16.801 1.002-6.97.239-15.57.408-26.586.59l-33.178.547-.039.043-1.635-.016-5.648.094v-.145l-18.998-.176-.002.133-7-.008c-1.925-.002-4.237-.176-6.412-.453s-4.213-.658-5.588-1.076c-1.375-.418-4.594-.918-8.672-1.387a268.82 268.82 0 0 0-13.828-1.199c-9.625-.586-20.612-1.286-24.416-1.557-2.339-.166-4.446-.229-6.346-.183-1.9.045-3.592.198-5.1.463-1.507.265-2.83.641-3.994 1.134-1.163.493-2.168 1.103-3.035 1.832-.753.635-1.347 1.113-1.978 1.456-.632.342-1.3.55-2.21.64-1.817.182-4.592-.098-9.921-.683-3.575-.393-13.25-1.236-21.5-1.874-8.25-.637-18.6-1.586-23-2.107-4.4-.52-16.325-1.407-26.5-1.97a472.986 472.986 0 0 1-15.71-1.153c-4.984-.45-9.315-.928-11.79-1.328-4.95-.801-13.725-1.946-19.5-2.543-7.314-.756-13.659-1.627-20.065-2.803-6.406-1.175-12.873-2.654-20.435-4.629-9.175-2.395-15.58-4.142-20.057-5.496-4.477-1.354-7.025-2.315-8.492-3.138-2.763-1.551-5.737-3.69-8.129-5.739-1.196-1.024-2.247-2.026-3.053-2.92-.805-.894-1.367-1.68-1.584-2.273-.251-.688-.874-1.785-1.675-2.998a42.418 42.418 0 0 0-2.748-3.695c-1.098-1.312-2.233-3.138-3.307-5.286-1.074-2.147-2.088-4.617-2.945-7.214-1.508-4.569-3.124-9.036-3.592-9.928-.545-1.038-1.306-3.632-2.15-7.1-.845-3.467-1.77-7.808-2.649-12.336a355.786 355.786 0 0 1-2.354-13.463c-.646-4.218-1.11-7.94-1.26-10.48-.342-5.833-.68-10.007-1.325-14.822-.645-4.816-1.596-10.274-3.159-18.678-1.348-7.25-2.356-12.64-3.1-17.104-.743-4.464-1.223-8.004-1.517-11.558-.294-3.554-.4-7.122-.398-11.64 0-4.52.11-9.988.252-17.347.147-7.658.404-15.41.699-21.726.295-6.317.627-11.2.928-13.125.6-3.85 1.536-14.65 2.078-24 .586-10.113 1.245-19.33 1.963-27.47.717-8.143 1.493-15.21 2.312-21.03.42-2.978.72-10.642.92-24.041.2-13.4.297-32.535.309-58.46.013-31.044-.04-49.827-.252-61.581-.107-5.877-.253-9.997-.451-13.016-.2-3.018-.45-4.934-.764-6.402-.255-1.19-.48-4.212-.676-8.623-.196-4.41-.364-10.21-.5-16.95-.272-13.478-.423-30.718-.447-48.15-.025-17.431.077-35.053.31-49.29.117-7.12.265-13.392.448-18.372.182-4.98.4-8.667.65-10.615.707-5.5 1.733-17.2 2.281-26 .552-8.864 1.133-16.47 1.776-23.184.643-6.713 1.349-12.531 2.152-17.816 1.986-13.065 4.121-25.981 5.207-31.5.595-3.025 1.433-8.2 1.861-11.5.396-3.052.909-6.025 1.534-8.914a97.077 97.077 0 0 1 2.209-8.412 87.807 87.807 0 0 1 2.873-7.881 80.015 80.015 0 0 1 3.52-7.319 73.794 73.794 0 0 1 4.148-6.728 69.08 69.08 0 0 1 4.761-6.105 66 66 0 0 1 5.36-5.456 64.524 64.524 0 0 1 5.94-4.775c1.898-1.35 3.775-2.579 5.269-3.469 1.493-.89 2.603-1.441 2.968-1.441.732 0 5.497-1.975 10.592-4.389 7.844-3.717 12.537-5.88 16.127-7.297a53.756 53.756 0 0 1 4.815-1.666c1.498-.436 2.976-.785 4.691-1.15a414.66 414.66 0 0 0 13.13-3.068c5.69-1.45 24.511-5.343 43.436-9.098 18.926-3.755 37.955-7.372 44.065-8.264 3.85-.562 11.5-1.737 17-2.613a277.38 277.38 0 0 1 12.883-1.746 292.9 292.9 0 0 1 13.334-1.176c4.568-.3 9.287-.51 14.226-.635 4.94-.125 10.1-.164 15.557-.123 25.868.194 43.047.277 56.92.233 13.872-.045 24.438-.216 37.08-.532 8.66-.216 16.127-.288 22.07-.222z" style="isolation:auto;mix-blend-mode:normal" overflow="visible" fill="url(#b)" transform="translate(-223.877 -62.586)"/></g></svg>