<svg xmlns:osb="http://www.openswatchbook.org/uri/2009/osb" xmlns="http://www.w3.org/2000/svg" height="931.586" width="612.867"><defs><linearGradient osb:paint="solid" id="c"><stop offset="0" stop-color="#fff"/></linearGradient><linearGradient osb:paint="solid" id="b"><stop offset="0"/></linearGradient><linearGradient osb:paint="solid" id="a"><stop offset="0" stop-color="#162d50"/></linearGradient><linearGradient osb:paint="solid" id="d"><stop offset="0" stop-color="#d40000"/></linearGradient></defs><path d="M634.525 53.084c-11.275.03-25.9.474-32.5.988-6.6.515-17.85 1.351-25 1.86-7.15.508-19.3 1.84-27 2.959-7.7 1.119-22.55 3.177-33 4.574-10.45 1.396-23.95 3.212-30 4.035-6.05.823-19.445 2.639-29.77 4.035-10.323 1.397-19.867 2.957-21.208 3.467-1.34.51-7.518 1.647-13.729 2.527-6.21.88-13.543 2.218-16.293 2.973-2.75.755-7.925 1.855-11.5 2.445-3.575.59-8.975 1.734-12 2.541-8.644 2.306-21.912 5.582-28.806 7.114-3.469.77-8.419 2.28-11 3.355-2.582 1.076-6.657 2.46-9.057 3.074-1.904.488-4.625 1.634-7.781 3.207-3.157 1.574-6.749 3.576-10.399 5.778a190.16 190.16 0 0 0-10.74 6.976c-3.384 2.373-6.445 4.716-8.805 6.801-4.373 3.864-8.13 7.31-11.384 10.463-3.254 3.153-6.004 6.015-8.366 8.717-2.36 2.702-4.332 5.244-6.027 7.754a61.39 61.39 0 0 0-4.367 7.562c-1.934 3.972-4.696 8.788-6.14 10.705-1.996 2.65-3.832 5.612-5.51 8.92-1.68 3.308-3.202 6.962-4.573 10.99-1.37 4.029-2.589 8.434-3.66 13.244-1.07 4.811-1.994 10.028-2.773 15.682-.78 5.654-1.416 11.743-1.912 18.3-.497 6.56-.854 13.586-1.077 21.11-.222 7.524-.307 15.547-.263 24.098.044 8.55.218 17.63.52 27.27.464 14.856 1.137 27.686 1.945 37.593.404 4.954.842 9.177 1.304 12.557.463 3.38.95 5.918 1.451 7.5.446 1.403.83 3.1 1.17 5.258.34 2.158.635 4.778.897 8.03.523 6.506.916 15.54 1.29 28.464.26 8.96.583 16.41.936 21.894.354 5.485.738 9.005 1.125 10.106.548 1.554 1.344 7.569 1.995 14.09.65 6.52 1.154 13.548 1.119 17.13-.007.749-.177 1.686-.444 2.592-.266.907-.63 1.782-1.027 2.408-.659 1.04-1.184 2.169-1.64 4.09-.457 1.922-.846 4.637-1.23 8.848-.765 8.421-1.509 22.826-2.745 48.842a527.225 527.225 0 0 1-.99 15.888c-.363 4.586-.728 8.09-1.01 9.41-.282 1.32-.54 5.298-.73 10.645-.19 5.347-.312 12.063-.319 18.856-.007 6.792-.122 13.419-.3 18.62-.18 5.203-.423 8.98-.688 10.08-.53 2.2-1.646 10.076-2.48 17.5-.835 7.426-1.95 16.65-2.48 20.5-.529 3.85-.977 9.465-.995 12.477-.018 3.013-.679 8.863-1.467 13a539.345 539.345 0 0 0-2.53 14.524c-1.604 10.258-2.844 17.9-3.748 23.082-.903 5.181-1.47 7.901-1.726 8.316-.315.51-1.002 4.679-1.526 9.264-1.098 9.614-1.862 15.697-2.859 21.627-.997 5.93-2.228 11.708-4.26 20.71-.496 2.2-1.584 10.526-2.418 18.5-.833 7.976-1.934 16.75-2.447 19.5-.256 1.376-.498 3.862-.68 6.762-.181 2.9-.303 6.214-.322 9.239-.018 2.884.072 5.518.29 7.986a54.46 54.46 0 0 0 1.048 6.99c.49 2.221 1.125 4.36 1.924 6.502.799 2.143 1.76 4.289 2.906 6.522 1.129 2.2 2.95 5.8 4.05 8a70.659 70.659 0 0 0 5.065 8.578 67.904 67.904 0 0 0 6.153 7.658 68.9 68.9 0 0 0 7.226 6.725 73.668 73.668 0 0 0 8.287 5.775c4.675 2.81 10.334 6.349 12.575 7.863 1.12.758 2.842 1.63 4.714 2.422 1.873.793 3.895 1.508 5.616 1.953 3.44.892 8.596 2.656 11.455 3.92 2.859 1.265 6.986 2.615 9.17 3 2.184.386 6.67 1.555 9.97 2.596 2.267.715 7.835 1.824 15.075 3.084 7.24 1.26 16.15 2.672 25.1 3.994 8.948 1.323 17.936 2.555 25.33 3.457 7.393.903 13.192 1.475 15.765 1.475 3.181 0 18.328 1.575 33.66 3.5 7.666.962 15.321 1.837 21.479 2.472 6.157.636 10.817 1.03 12.494 1.032 3.353.002 10.147.669 15.097 1.482 2.475.407 5.568.779 8.559 1.05 2.99.273 5.879.444 7.941.45 2.063.006 4.951.177 7.942.45 2.99.271 6.083.643 8.558 1.05 4.95.813 11.925 1.52 15.5 1.57 3.575.05 8.525.46 11 .91 1.629.297 8.883.479 19.098.565 10.216.086 23.392.077 36.863-.012 13.471-.088 27.238-.254 38.633-.482 11.395-.228 20.419-.517 24.406-.85 7.425-.62 16.65-1.79 20.5-2.603 3.85-.813 11.275-2.195 16.5-3.072 9.023-1.516 16.543-2.952 22.963-4.47 3.21-.758 6.145-1.536 8.856-2.355a93.359 93.359 0 0 0 7.508-2.595 66.816 66.816 0 0 0 6.459-2.957 57.84 57.84 0 0 0 5.714-3.438 62.847 62.847 0 0 0 5.272-4.039 86.48 86.48 0 0 0 5.129-4.758c2.775-2.774 5.07-5.355 7.025-8.07a44.731 44.731 0 0 0 2.694-4.213 47.517 47.517 0 0 0 2.289-4.658c1.413-3.307 2.628-7.072 3.779-11.623 1.151-4.552 2.24-9.889 3.408-16.336.515-2.841.916-5.305 1.238-8.055.323-2.75.566-5.785.762-9.773.392-7.977.596-19.762.875-40.672.169-12.65.412-24.342.668-32.989.256-8.646.523-14.246.742-14.714.253-.54.524-3.891.809-9.832.284-5.942.58-14.474.885-25.375.607-21.804 1.242-53.088 1.853-92.09.263-16.775.616-32.756.975-44.99.358-12.235.722-20.723 1.004-22.51.562-3.575 1.278-12.35 1.591-19.5.314-7.15 1.204-17.725 1.979-23.5 1.424-10.61 2.33-17.818 2.986-24.297.657-6.48 1.067-12.23 1.498-19.922.243-4.322.545-8.384.836-11.445.292-3.062.572-5.125.772-5.448.2-.323.476-5.41.76-13.345.283-7.936.575-18.719.806-30.436.231-11.717.546-23.324.867-32.588.322-9.263.65-16.182.907-18.52.31-2.832.55-10.74.714-21.128.165-10.389.255-23.257.268-36.01.013-12.753-.051-25.39-.195-35.316-.144-9.926-.368-17.139-.674-19.045-.53-3.3-1.678-11.85-2.553-19-1.932-15.795-3.033-24.684-3.762-30.076-.729-5.393-1.086-7.29-1.533-9.098-.52-2.104-1.492-8.551-2.16-14.326-.432-3.733-1.278-8.59-2.363-13.887a375.858 375.858 0 0 0-3.803-16.527c-1.393-5.495-2.854-10.747-4.207-15.073-1.353-4.325-2.6-7.723-3.568-9.513-1.041-1.925-2.654-6.2-3.584-9.5-.931-3.3-2.38-7.083-3.217-8.406-.838-1.324-2.537-5.693-3.776-9.707a40.592 40.592 0 0 0-3.18-7.588c-1.365-2.52-3.105-5.157-5.423-8.287-2.327-3.142-4.429-5.71-6.684-7.928a38.412 38.412 0 0 0-3.545-3.092 40.519 40.519 0 0 0-4.06-2.738c-2.943-1.745-6.42-3.366-10.81-5.088-4.391-1.723-9.695-3.547-16.294-5.697-4.95-1.614-9.801-2.942-10.78-2.952-.98-.01-4.498-.933-7.815-2.05a92.203 92.203 0 0 0-9.825-2.704c-3.455-.754-7.12-1.364-11.082-1.841-3.96-.478-8.217-.822-12.855-1.043-4.638-.221-9.657-.32-15.143-.305z" style="isolation:auto;mix-blend-mode:normal" color="#000" overflow="visible" fill="url(#c)" transform="translate(-193.566 -34.207)"/><path d="M631.625 34.318c-11.449.199-28.207.925-42.736 1.75-7.265.413-13.974.851-19.182 1.26-5.208.41-8.915.79-10.182 1.088-3.257.767-71.983 10.18-92 12.602-10.11 1.222-17.426 2.181-23.056 3.046-5.63.866-9.576 1.637-12.944 2.485-3.025.761-10.225 2.078-16 2.926-5.775.847-14.325 2.397-19 3.447-4.675 1.05-13.9 3.098-20.5 4.55-6.6 1.454-14.475 3.354-17.5 4.223-3.025.87-8.65 2.402-12.5 3.407-6.183 1.613-12.89 3.758-18.853 5.962a153.043 153.043 0 0 0-8.23 3.293c-2.453 1.075-4.561 2.106-6.167 3.036a5013.8 5013.8 0 0 1-12.27 7.074 92.77 92.77 0 0 0-6.318 3.969 103.6 103.6 0 0 0-6.37 4.753c-4.377 3.52-9.12 7.831-14.89 13.463-3.29 3.212-6.172 6.135-8.7 8.834-2.529 2.7-4.703 5.175-6.577 7.494-1.874 2.32-3.447 4.483-4.775 6.557-1.328 2.074-2.409 4.06-3.299 6.022-1.59 3.505-4.006 7.853-5.369 9.662-1.639 2.174-4.133 6.499-6.557 11.181-2.423 4.683-4.776 9.723-6.13 13.332-1.12 2.983-2.151 6.398-3.092 10.227-.941 3.828-1.793 8.07-2.553 12.703-.76 4.633-1.428 9.66-2.004 15.057a407.3 407.3 0 0 0-1.451 17.287 571.23 571.23 0 0 0-.887 19.394 757.985 757.985 0 0 0-.318 21.381c-.01 7.444.077 15.2.262 23.244.184 8.045.466 16.379.847 24.983.515 11.625 1.067 20.186 1.918 28.123.426 3.968.925 7.78 1.533 11.742.608 3.961 1.324 8.07 2.18 12.635.561 2.994.94 6.944 1.18 13.045.24 6.1.344 14.353.357 25.955.016 13.47.093 21.571.387 27.476.147 2.953.347 5.357.623 7.608.276 2.25.626 4.347 1.07 6.687.562 2.963.986 5.794 1.215 7.969.23 2.175.265 3.694.05 4.031-.339.536-.654 1.648-.952 3.416-.298 1.768-.578 4.192-.848 7.354-.54 6.323-1.038 15.595-1.549 28.459a807.14 807.14 0 0 1-1.033 19.86c-.385 5.89-.779 10.577-1.09 12.64-.31 2.062-.678 7.594-1.02 14.844-.34 7.25-.654 16.218-.86 25.156-.207 8.937-.51 17.513-.83 24.129-.322 6.615-.662 11.27-.942 12.37-.56 2.2-1.768 10.976-2.684 19.5-.915 8.526-2.078 17.66-2.584 20.3-.505 2.64-.922 7.59-.925 11-.001 1.705-.126 3.697-.325 5.535-.199 1.837-.472 3.52-.773 4.603-.601 2.166-1.46 7.116-1.908 11-.416 3.61-1.151 8.655-2.096 14.471a803.012 803.012 0 0 1-3.355 19.092c-.775 4.125-2.136 12.675-3.026 19-1.117 7.944-1.968 13.586-2.752 18.064-.784 4.479-1.5 7.793-2.35 11.084-.801 3.107-1.896 9.745-2.433 14.75-.537 5.006-1.402 13.058-1.924 17.893-.521 4.835-1.411 10.797-1.976 13.25-.386 1.67-.66 4.352-.829 7.527-.169 3.175-.233 6.844-.197 10.488.037 3.645.175 7.264.406 10.344.232 3.08.559 5.62.975 7.1 2.191 7.788 3.568 12.472 4.676 15.582.554 1.555 1.04 2.715 1.527 3.674.488.958.976 1.715 1.533 2.46 1.35 1.806 3.082 4.859 3.848 6.784.59 1.484 1.803 3.584 3.38 5.97 1.579 2.387 3.521 5.062 5.573 7.694 2.052 2.631 4.212 5.22 6.225 7.437 2.012 2.218 3.878 4.065 5.338 5.211 3.049 2.393 9.239 6.532 13.756 9.2 4.516 2.667 9.635 5.916 11.375 7.22.838.629 2.574 1.497 4.933 2.506 2.359 1.01 5.34 2.161 8.666 3.354 6.654 2.384 14.692 4.936 21.902 6.865 4.765 1.274 9.164 2.627 9.776 3.006.66.408 5.362 1.333 12.18 2.49 6.817 1.157 15.749 2.547 24.867 3.887 9.117 1.34 18.42 2.628 25.982 3.584 7.562.955 13.382 1.577 15.531 1.582 1.65.004 6.3.41 12.463 1.062 6.163.651 13.837 1.547 21.537 2.531 15.4 1.97 34.075 3.986 41.5 4.48 7.425.496 15.525 1.335 18 1.866 2.475.531 8.1.989 12.5 1.016 4.4.027 10.7.529 14 1.115 3.3.586 10.725 1.416 16.5 1.844 3.884.287 13.166.502 25.14.646 11.972.144 26.636.217 41.286.217 14.65 0 29.285-.073 41.2-.217 11.914-.144 21.108-.359 24.874-.646 4.256-.325 8.68-.762 13.37-1.326 4.69-.565 9.646-1.258 14.97-2.094 10.649-1.673 22.767-3.92 37.16-6.867a110.77 110.77 0 0 0 8.059-1.961 98.76 98.76 0 0 0 7.615-2.496 90.948 90.948 0 0 0 7.2-3.047 86.815 86.815 0 0 0 6.806-3.616 86.15 86.15 0 0 0 6.441-4.195 88.936 88.936 0 0 0 6.102-4.793 95.315 95.315 0 0 0 5.79-5.404 105.672 105.672 0 0 0 5.5-6.033 77.08 77.08 0 0 0 3.858-4.93 56.188 56.188 0 0 0 3.252-5.092 55.822 55.822 0 0 0 2.764-5.63 72.524 72.524 0 0 0 2.397-6.55c.75-2.377 1.457-4.968 2.144-7.84.687-2.87 1.353-6.02 2.016-9.511 1.325-6.98 2.642-15.324 4.11-25.535.256-1.788.533-8.7.773-18.397s.442-22.178.548-35.103c.123-14.859.324-27.114.584-36.09.261-8.976.582-14.671.942-16.41.357-1.724.734-9.166 1.101-21.268s.723-28.865 1.036-49.232c.606-39.552 1.217-69.26 1.855-89.918.32-10.33.644-18.399.98-24.303.337-5.904.684-9.645 1.043-11.322.597-2.78 1.09-7.846 1.09-11.256.003-3.41.469-8.901 1.033-12.201.751-4.385 1.716-12.794 2.63-22.403.913-9.608 1.773-20.417 2.312-29.597.516-8.8 1.406-19.6 1.978-24 .287-2.2.598-8.306.87-16.371.271-8.066.503-18.092.628-28.13.126-10.037.349-19.781.608-27.394.259-7.612.554-13.093.82-14.605.325-1.841.573-9.249.744-19.444.172-10.195.265-23.177.278-36.171.012-12.995-.056-26-.207-36.24-.152-10.24-.386-17.714-.707-19.645-.549-3.3-1.434-9.6-1.967-14-.533-4.4-1.686-13.625-2.56-20.5-.876-6.875-1.963-15.425-2.417-19-.454-3.575-1.29-8.525-1.86-11-.567-2.475-1.552-9-2.185-14.5s-2.042-13.6-3.133-18c-1.71-6.899-4.207-15.885-6.408-23.303-2.2-7.418-4.106-13.269-4.63-13.9-.553-.666-2.484-5.393-4.292-10.504-2.11-5.967-3.836-10.737-5.38-14.719-1.545-3.982-2.908-7.175-4.288-9.988a69.294 69.294 0 0 0-4.39-7.707c-1.615-2.462-3.448-4.953-5.7-7.88a60.087 60.087 0 0 0-3.888-4.572 57.117 57.117 0 0 0-4.342-4.152A60.293 60.293 0 0 0 743.184 61a70.109 70.109 0 0 0-5.545-3.475 88.271 88.271 0 0 0-6.291-3.216 118.135 118.135 0 0 0-7.133-3.018c-5.06-1.956-10.746-3.815-17.19-5.65-9.538-2.717-17.102-4.816-23.562-6.428-6.46-1.612-11.818-2.739-16.942-3.508-5.123-.77-10.012-1.181-15.539-1.37-5.526-.187-11.688-.15-19.357-.017zm2.9 18.766c5.486-.014 10.505.084 15.143.305 4.638.22 8.894.565 12.855 1.043 3.962.477 7.627 1.087 11.082 1.841a92.203 92.203 0 0 1 9.825 2.704c3.317 1.117 6.834 2.04 7.814 2.05.98.01 5.831 1.338 10.781 2.952 6.599 2.15 11.903 3.974 16.293 5.697 4.39 1.722 7.868 3.343 10.81 5.088a40.519 40.519 0 0 1 4.061 2.738 38.412 38.412 0 0 1 3.545 3.092c2.255 2.218 4.357 4.786 6.684 7.927 2.318 3.13 4.058 5.767 5.424 8.288a40.592 40.592 0 0 1 3.18 7.587c1.238 4.015 2.937 8.384 3.775 9.708.838 1.323 2.286 5.106 3.217 8.406.93 3.3 2.543 7.575 3.584 9.5.968 1.79 2.215 5.188 3.568 9.513 1.353 4.326 2.814 9.578 4.207 15.073a375.858 375.858 0 0 1 3.803 16.527c1.085 5.297 1.931 10.154 2.363 13.887.668 5.775 1.64 12.221 2.16 14.326.447 1.808.804 3.705 1.533 9.098.73 5.392 1.83 14.281 3.762 30.076.875 7.15 2.023 15.7 2.553 19 .306 1.906.53 9.12.674 19.045.144 9.925.208 22.563.195 35.316-.013 12.753-.103 25.621-.268 36.01-.164 10.388-.403 18.296-.714 21.129-.257 2.337-.585 9.256-.907 18.52-.321 9.263-.636 20.87-.867 32.587-.23 11.717-.523 22.5-.806 30.436-.284 7.935-.56 13.022-.76 13.345-.2.323-.48 2.386-.772 5.448-.291 3.061-.593 7.123-.836 11.445-.431 7.692-.84 13.443-1.498 19.922-.657 6.48-1.562 13.688-2.986 24.297-.775 5.775-1.665 16.35-1.979 23.5-.313 7.15-1.029 15.925-1.591 19.5-.282 1.787-.646 10.275-1.004 22.51-.359 12.234-.712 28.215-.975 44.99-.61 39.002-1.246 70.286-1.853 92.09-.304 10.901-.6 19.433-.885 25.375-.285 5.94-.556 9.292-.809 9.832-.219.468-.486 6.068-.742 14.714-.256 8.647-.5 20.339-.668 32.989-.279 20.91-.483 32.695-.875 40.672-.196 3.988-.44 7.023-.762 9.773s-.723 5.214-1.238 8.055c-1.167 6.447-2.257 11.784-3.408 16.336-1.151 4.551-2.366 8.316-3.78 11.623a47.517 47.517 0 0 1-2.288 4.658 44.731 44.731 0 0 1-2.694 4.213c-1.955 2.715-4.25 5.296-7.025 8.07a86.48 86.48 0 0 1-5.13 4.758 62.847 62.847 0 0 1-5.27 4.039 57.84 57.84 0 0 1-5.715 3.438 66.816 66.816 0 0 1-6.46 2.957 93.359 93.359 0 0 1-7.507 2.595c-2.71.819-5.646 1.597-8.856 2.356-6.42 1.517-13.94 2.953-22.963 4.468-5.225.878-12.65 2.26-16.5 3.073-3.85.812-13.075 1.984-20.5 2.603-3.987.333-13.01.622-24.406.85-11.395.228-25.162.394-38.633.482-13.47.089-26.647.098-36.863.012-10.215-.086-17.47-.268-19.098-.564-2.475-.45-7.425-.86-11-.91-3.575-.051-10.55-.758-15.5-1.57-2.475-.408-5.568-.78-8.558-1.052s-5.88-.443-7.942-.449c-2.062-.006-4.95-.177-7.941-.45-2.99-.271-6.084-.643-8.559-1.05-4.95-.813-11.744-1.48-15.097-1.482-1.677-.001-6.337-.397-12.494-1.032-6.158-.635-13.813-1.51-21.479-2.472-15.332-1.925-30.479-3.5-33.66-3.5-2.573 0-8.372-.572-15.766-1.475-7.393-.902-16.38-2.134-25.33-3.457-8.949-1.322-17.86-2.734-25.1-3.994-7.24-1.26-12.808-2.369-15.074-3.084-3.3-1.041-7.786-2.21-9.97-2.596-2.184-.385-6.311-1.735-9.17-3-2.86-1.264-8.014-3.028-11.455-3.92-1.72-.445-3.743-1.16-5.616-1.953-1.872-.793-3.594-1.664-4.714-2.422-2.241-1.514-7.9-5.053-12.575-7.863a73.668 73.668 0 0 1-8.287-5.775 68.9 68.9 0 0 1-7.226-6.725 67.904 67.904 0 0 1-6.153-7.658 70.659 70.659 0 0 1-5.064-8.578c-1.1-2.2-2.922-5.8-4.05-8-1.146-2.233-2.108-4.38-2.907-6.522a48.095 48.095 0 0 1-1.924-6.502 54.46 54.46 0 0 1-1.049-6.99c-.217-2.468-.307-5.102-.289-7.986.02-3.025.14-6.339.322-9.239.182-2.9.424-5.386.68-6.761.513-2.75 1.614-11.525 2.447-19.5.834-7.975 1.922-16.3 2.418-18.5 2.032-9.003 3.263-14.781 4.26-20.711.997-5.93 1.761-12.013 2.86-21.627.523-4.585 1.21-8.754 1.525-9.264.256-.415.823-3.135 1.726-8.316.904-5.182 2.144-12.824 3.748-23.082.603-3.85 1.741-10.386 2.53-14.524.788-4.137 1.449-9.987 1.467-13 .018-3.012.466-8.626.996-12.476.53-3.85 1.644-13.075 2.478-20.5.835-7.425 1.95-15.3 2.48-17.5.266-1.1.509-4.878.688-10.08.18-5.202.294-11.829.3-18.621.008-6.793.13-13.509.32-18.856.19-5.347.448-9.325.73-10.644.282-1.32.647-4.825 1.01-9.41.362-4.586.722-10.252.99-15.89 1.236-26.015 1.98-40.42 2.746-48.841.383-4.21.772-6.926 1.228-8.848.457-1.921.982-3.05 1.641-4.09.397-.627.76-1.502 1.027-2.408.267-.906.436-1.844.444-2.592.035-3.582-.47-10.61-1.12-17.13-.65-6.521-1.446-12.536-1.994-14.09-.387-1.1-.771-4.621-1.125-10.106-.353-5.484-.675-12.934-.935-21.894-.375-12.924-.768-21.958-1.291-28.463-.262-3.253-.557-5.873-.897-8.031-.34-2.158-.724-3.855-1.17-5.258-.502-1.582-.988-4.12-1.45-7.5-.463-3.38-.901-7.603-1.305-12.557-.808-9.907-1.48-22.737-1.946-37.594-.301-9.639-.475-18.718-.52-27.27-.043-8.55.042-16.573.264-24.097.223-7.524.58-14.551 1.077-21.11.496-6.557 1.132-12.646 1.912-18.3s1.702-10.871 2.773-15.682c1.071-4.81 2.29-9.215 3.66-13.244 1.371-4.028 2.894-7.682 4.573-10.99 1.678-3.308 3.514-6.27 5.51-8.92 1.444-1.917 4.206-6.733 6.14-10.705a61.39 61.39 0 0 1 4.367-7.562c1.695-2.51 3.666-5.052 6.027-7.754 2.362-2.702 5.112-5.564 8.366-8.717 3.254-3.154 7.011-6.599 11.384-10.463 2.36-2.085 5.421-4.428 8.805-6.8a190.16 190.16 0 0 1 10.74-6.977c3.65-2.202 7.242-4.204 10.399-5.778 3.156-1.574 5.877-2.72 7.781-3.207 2.4-.614 6.475-1.999 9.057-3.074 2.581-1.075 7.531-2.585 11-3.355 6.894-1.532 20.162-4.808 28.806-7.114 3.025-.807 8.425-1.95 12-2.54 3.575-.591 8.75-1.691 11.5-2.446 2.75-.755 10.083-2.092 16.293-2.973 6.21-.88 12.388-2.017 13.729-2.527 1.34-.51 10.885-2.07 21.209-3.467 10.324-1.396 23.72-3.212 29.77-4.035 6.05-.823 19.55-2.639 30-4.035 10.45-1.397 25.3-3.455 33-4.574 7.7-1.12 19.85-2.451 27-2.96 7.15-.508 18.4-1.344 25-1.859 6.6-.514 21.224-.959 32.5-.988z" style="isolation:auto;mix-blend-mode:normal" color="#000" overflow="visible" fill="url(#b)" transform="translate(-193.566 -34.207)"/><path d="M509.236 134.979c-3.06-.04-6.23.73-9.25 2.5-5.787 3.391-10.073 10.397-11.341 18.53-.558 3.576-1.24 20-1.516 36.5-.393 23.44-.958 32.953-2.584 43.5-1.145 7.426-2.508 19.576-3.027 27-.52 7.426-1.391 16.65-1.936 20.5-.545 3.85-1.005 11.656-1.023 17.346l-.034 10.346-10.75-.715c-5.912-.393-13-1.132-15.75-1.644-2.75-.513-16.925-1.18-31.5-1.48-20.794-.43-28.83-.217-37.33.986-10.41 1.473-10.954 1.458-14-.399-2.089-1.273-4.997-1.933-8.533-1.935-7.015-.005-12.491 3.04-15.887 8.834l-2.554 4.359.683 22.65c.377 12.459 1.088 25.353 1.578 28.653.491 3.3 1.172 20.85 1.514 39 .342 18.15 1.028 36.15 1.524 40 .496 3.85 1.193 13.98 1.548 22.513l.647 15.516-3.526 1.275c-7.09 2.565-12.65 12.343-11.103 19.53 2.2 10.226 9.715 15.6 21.94 15.691 2.792.021 5.857.686 6.94 1.506 1.068.808 3.993 1.468 6.5 1.469 2.508 0 8.384.68 13.06 1.51 9.446 1.675 48.359 5.773 71.5 7.529 8.25.626 15.348 1.47 15.775 1.875 1.1 1.046.34 65.527-1.069 90.586-1.074 19.104-1.798 26.137-5.25 51-.61 4.4-1.497 17-1.97 28-1.13 26.255-2.71 48.191-4.54 63-.814 6.6-1.474 18.3-1.464 26 .01 8.367-.586 17.153-1.483 21.838-.938 4.904-1.5 13.742-1.5 23.613 0 8.676-.45 18.15-1 21.053-.683 3.605-.667 6.517.053 9.193 1.316 4.888 7.172 11.495 11.317 12.77 8.523 2.621 18.87-1.592 23.355-9.51 2.083-3.679 2.248-5.23 2.318-21.957.042-9.9.53-20.25 1.084-23s1.344-14.698 1.756-26.55c.412-11.85 1.074-22.072 1.47-22.714.397-.642 1.152-7.594 1.677-15.451.524-7.857 1.383-19.235 1.91-25.285.527-6.05.982-16.28 1.01-22.733.028-6.452.5-14.777 1.05-18.5 1.388-9.4 4.06-34.59 5.067-47.767 2.383-31.196 2.829-42.925 2.879-75.75.032-21.46.429-35.75.99-35.75.514 0 4.001.625 7.75 1.39 3.748.766 12.664 1.892 19.814 2.504 36.986 3.165 46.762 4.193 52.608 5.526 3.516.801 9.767 1.737 13.892 2.08 8.776.73 21.744 2.401 24.25 3.127 1.484.429 1.75 1.757 1.75 8.705 0 6.075.481 9.094 1.856 11.658 5.032 9.383 16.621 12.85 25.52 7.635 2.448-1.435 5.5-4.3 6.783-6.367 2.259-3.642 2.35-4.645 2.904-32.307.315-15.702.84-28.985 1.168-29.516.328-.53 1.328-7.26 2.22-14.95 6.048-52.105 9.741-78.387 12.012-85.485.792-2.475 2.419-10.338 3.615-17.473 2.733-16.293 2.276-24.387-1.771-31.45-5.227-9.12-14.24-20.76-18.203-23.507-4.163-2.885-16.212-7.106-24.604-8.621-9.885-1.784-36.289-4.884-51-5.988-8.25-.62-24.45-2.641-36-4.492-11.55-1.852-24.712-3.917-29.25-4.59l-8.25-1.225.018-13.078c.01-7.192.677-17.351 1.482-22.576.806-5.225 1.48-12.65 1.5-16.5.02-3.85.728-11.275 1.573-16.5 2.11-13.048 3.446-31.949 4.343-61.5.418-13.75 1.271-26.8 1.897-29 3.26-11.463-5.425-21.552-15.797-22.465-.432-.038-.867-.06-1.305-.066zM421.84 344.13c11.602-.01 19.174.49 32.685 1.867 11.825 1.205 21.512 2.264 21.526 2.352.423 2.627-1.563 144.499-2.065 147.433-.401 2.351-1.007 4.398-1.345 4.549-2.625 1.17-83.347-7.221-84.957-8.832-.246-.246-.616-2.82-.82-5.719-.206-2.9-.846-9.771-1.423-15.271-.576-5.5-1.463-22.15-1.97-37-2.02-59.128-2.89-81.14-3.328-84.155-.375-2.571-.06-3.284 1.71-3.86 1.195-.39 13.197-.93 26.672-1.198 5.132-.103 9.447-.163 13.315-.166zm92.996 9.55c.715-.031 1.803.169 3.535.493 11.317 2.118 49.34 7.734 56.154 8.293 26.778 2.196 56.836 5.794 63.143 7.558 2.663.746 4.77 2.511 7.83 6.565l4.188 5.545-1.15 7.187c-.633 3.953-1.992 10.338-3.02 14.188-1.029 3.85-2.337 9.475-2.907 12.5-1.535 8.151-8.24 60.815-9.611 75.5-.36 3.85-1.317 11.266-2.127 16.48-.81 5.215-1.558 9.51-1.66 9.547-.914.328-26.448-3.018-34.686-4.545-5.775-1.07-21.75-2.861-35.5-3.98-21.115-1.719-43.657-4.322-48.183-5.565-1.235-.339-1.116-3.576.742-20.437.515-4.675.937-34.431.94-66.125.001-31.694.27-58.966.597-60.604.296-1.477.454-2.22 1.115-2.486.166-.066.362-.103.6-.113z" fill="url(#d)" transform="translate(-193.566 -34.207)"/></svg>