<svg xmlns:osb="http://www.openswatchbook.org/uri/2009/osb" xmlns="http://www.w3.org/2000/svg" height="921.431" width="556.703"><defs><linearGradient osb:paint="solid" id="c"><stop offset="0" stop-color="#fff"/></linearGradient><linearGradient osb:paint="solid" id="b"><stop offset="0"/></linearGradient><linearGradient osb:paint="solid" id="a"><stop offset="0" stop-color="#162d50"/></linearGradient></defs><path d="M658.54 56.39c-5.37-.135-11.136.011-17.581.395-9.625.574-43.6 1.468-75.5 1.985-31.9.517-63.625 1.354-70.5 1.86-6.875.508-22.757.96-35.291 1.005-7.482.027-13.621.103-19.223.314-5.601.212-10.665.559-16 1.127-5.334.569-10.939 1.358-17.619 2.455-6.68 1.098-14.436 2.503-24.074 4.301-5.229.975-9.79 1.928-14.275 3.064-4.487 1.137-8.899 2.455-13.832 4.165-4.934 1.709-10.389 3.807-16.96 6.501-6.57 2.695-14.256 5.985-23.654 10.077-4.99 2.172-9.535 4.25-13.681 6.279-4.146 2.029-7.893 4.009-11.288 5.986-3.394 1.978-6.437 3.951-9.173 5.97-2.737 2.017-5.167 4.08-7.338 6.23a52.337 52.337 0 0 0-5.78 6.765 53.178 53.178 0 0 0-4.503 7.578c-1.32 2.692-2.473 5.565-3.506 8.666-1.033 3.102-1.947 6.431-2.787 10.033-.805 3.45-1.645 8.68-2.454 14.932-.808 6.252-1.585 13.527-2.261 21.065a686.113 686.113 0 0 0-1.662 22.642c-.409 7.306-.65 14.118-.655 19.676-.005 5.433-.175 13.071-.445 21.002-.27 7.93-.64 16.154-1.045 22.754-.286 4.66-.52 10.046-.713 16.857-.192 6.812-.341 15.048-.455 25.408-.227 20.72-.312 49.935-.316 93.235-.004 36.201-.103 65.04-.287 85.722-.185 20.682-.456 33.206-.807 36.778-.595 6.05-1.74 16.85-2.547 24-.29 2.578-.54 6.43-.762 12.44-.222 6.008-.417 14.171-.6 25.372-.364 22.402-.677 56.95-1.054 110.688-.414 59.022-.603 93.364-.525 114.53.039 10.582.144 17.871.322 23.304.178 5.432.427 9.008.754 12.166.536 5.183 1.107 9.563 1.803 13.404.695 3.841 1.515 7.144 2.55 10.176a49.722 49.722 0 0 0 3.846 8.547c1.558 2.754 3.423 5.503 5.686 8.513a52.224 52.224 0 0 0 4.502 5.266 52.489 52.489 0 0 0 5.416 4.787c2.035 1.575 4.341 3.157 7.029 4.84 2.688 1.683 5.759 3.464 9.33 5.434l11.166 6.158 40.334-.069c18.04-.03 28.373.004 35.26.262 3.443.129 6.024.312 8.275.572 2.252.26 4.175.598 6.299 1.03 5.225 1.062 14.225 2.446 20 3.076 5.775.63 14.911 2.011 20.305 3.07 6.326 1.243 11.677 2.105 19.482 2.967 7.805.862 18.065 1.723 34.213 2.963 14.575 1.119 27.175 2.238 28 2.486 1.31.395 11.735 1.336 49.5 4.469 4.082.339 9.822.578 16.383.723a793.3 793.3 0 0 0 21.308.154c7.366-.04 14.716-.17 21.213-.385 6.497-.216 12.142-.518 16.096-.9 11.818-1.143 20.036-2.002 26.28-2.782 6.242-.779 10.51-1.478 14.429-2.298 4.709-.986 13.413-3.456 21.762-6.055a405.61 405.61 0 0 0 11.71-3.826c3.453-1.195 6.272-2.251 7.915-3.002 1.31-.6 2.871-1.572 4.644-2.883 1.773-1.31 3.758-2.959 5.91-4.906 2.153-1.948 4.474-4.195 6.922-6.703a242.968 242.968 0 0 0 7.686-8.274c1.673-1.882 2.931-3.31 3.935-4.775 1.004-1.466 1.753-2.969 2.403-5.004.65-2.035 1.201-4.602 1.812-8.193.611-3.592 1.283-8.208 2.17-14.342.55-3.805 1.04-7.917 1.488-12.635.448-4.718.853-10.044 1.235-16.271.763-12.456 1.43-28.526 2.146-50.594.51-15.675 1.444-35.925 2.076-45 .389-5.575.641-15.901.76-31.295.12-15.394.106-35.857-.039-61.705-.192-34.368-.355-54.09-.715-67.858-.18-6.884-.41-12.28-.717-17.275-.307-4.995-.692-9.588-1.183-14.867-1.204-12.925-2.643-26.65-3.2-30.5-.277-1.925-.658-14.362-1.046-32.85-.388-18.487-.784-43.025-1.094-69.15-.437-36.77-.65-63.06-.635-84.514.015-21.453.257-38.069.73-55.486.649-23.84 1.06-37.068 1.73-47.098.333-5.015.73-9.23 1.255-13.572.525-4.343 1.176-8.814 2.014-14.338 1.167-7.696 3.493-22.992 5.17-33.992 2.136-14.018 3.45-23.66 4.152-31.164.35-3.752.548-6.971.62-9.934.07-2.963.014-5.67-.143-8.402a84.008 84.008 0 0 0-.64-6.746 52.86 52.86 0 0 0-1.142-5.897 37.184 37.184 0 0 0-1.724-5.172 30.617 30.617 0 0 0-2.387-4.574 30.626 30.626 0 0 0-3.13-4.101 37.236 37.236 0 0 0-3.956-3.756 52.979 52.979 0 0 0-4.86-3.537 84.233 84.233 0 0 0-5.843-3.446c-8.68-4.693-14.269-7.647-19.033-9.965-4.765-2.317-8.705-3.998-14.088-6.146-4.16-1.66-8.066-3.09-11.834-4.305a123.355 123.355 0 0 0-11.016-3.025 107.459 107.459 0 0 0-10.916-1.858c-3.702-.436-7.506-.697-11.533-.798z" style="isolation:auto;mix-blend-mode:normal" color="#000" overflow="visible" fill="url(#c)" transform="translate(-221.648 -39.284)"/><path d="M647.959 39.291c-7.563.02-15.95.172-23.373.398-7.423.227-13.88.529-17.578.852-3.766.329-11.754.627-21.744.846-9.99.218-21.982.357-33.756.367-11.564.01-23.538.131-33.516.318-9.977.187-17.958.44-21.533.713-7.15.547-28.075 1.385-46.5 1.861-8.616.223-15.365.42-21.12.68-5.753.26-10.512.584-15.144 1.06-4.632.478-9.137 1.109-14.386 1.981-5.25.873-11.243 1.987-18.85 3.434-5.364 1.02-10.4 2.117-15.352 3.369a224.417 224.417 0 0 0-14.84 4.303c-5.022 1.642-10.202 3.518-15.78 5.709-5.58 2.19-11.557 4.694-18.176 7.591-9.757 4.271-17.93 8.023-24.88 11.487a239.92 239.92 0 0 0-9.548 5.008 147.644 147.644 0 0 0-7.98 4.746 99.65 99.65 0 0 0-6.68 4.66 76.915 76.915 0 0 0-5.649 4.742 70.983 70.983 0 0 0-4.886 5 80.843 80.843 0 0 0-4.393 5.43c-1.7 2.289-3.095 4.273-4.29 6.187a46.662 46.662 0 0 0-3.085 5.768c-.898 2.008-1.7 4.181-2.51 6.754-.81 2.572-1.63 5.543-2.564 9.148-1.084 4.184-2.057 8.88-2.924 14.115-.867 5.236-1.629 11.01-2.285 17.35-.657 6.34-1.209 13.247-1.66 20.746-.452 7.5-.803 15.591-1.055 24.303-.478 16.5-1.33 37.875-1.897 47.5-.297 5.064-.556 21.497-.742 44.947-.185 23.45-.297 53.919-.3 87.053-.004 28.788-.012 50.627-.08 67.642-.07 17.016-.199 29.208-.442 38.705-.243 9.498-.6 16.299-1.127 22.532-.526 6.233-1.222 11.898-2.14 19.12-.325 2.549-.597 5.78-.835 10.495-.237 4.714-.44 10.911-.627 19.389-.372 16.954-.677 43.032-1.054 84.617-.445 49.059-.774 86.079-.93 114.32-.156 28.242-.137 47.704.113 61.649.126 6.972.308 12.564.557 17.185.249 4.62.564 8.27.951 11.354a79.143 79.143 0 0 0 1.389 7.966c.54 2.363 1.16 4.57 1.867 7.026a74.002 74.002 0 0 0 4.928 12.623 75.31 75.31 0 0 0 3.3 5.922 76.621 76.621 0 0 0 3.833 5.627 78.395 78.395 0 0 0 4.347 5.306 80.475 80.475 0 0 0 4.84 4.961 82.928 82.928 0 0 0 5.314 4.59 85.757 85.757 0 0 0 5.772 4.193c2.199 1.463 6.003 3.64 10.584 6.12a576.18 576.18 0 0 0 15.25 7.923c5.31 2.666 10.573 5.217 14.959 7.239 4.386 2.022 7.898 3.515 9.707 4.064 3.943 1.197 8.824 2.305 13.44 3.113 4.615.81 8.966 1.319 11.855 1.319 2.144 0 3.585-.117 4.738-.483 1.153-.365 2.018-.978 3.012-1.972a8.068 8.068 0 0 0 1.603-2.31 9.188 9.188 0 0 0 .778-2.745 9.764 9.764 0 0 0-.08-2.91 9.485 9.485 0 0 0-.97-2.807l-1.12-2.095 14.37.664c3.953.182 7.997.459 11.327.757 3.33.299 5.947.619 7.047.89 2.2.54 10.975 1.897 19.5 3.015s18.65 2.686 22.5 3.486c4.113.855 10.979 1.89 18.32 2.814 7.342.926 15.16 1.742 21.18 2.165 18.604 1.305 35.121 2.713 47.5 4.048 7.15.772 22.45 2.128 34 3.014 11.55.886 21.45 1.769 22 1.961.761.266 4.514.42 9.935.478 5.422.06 12.512.024 19.944-.085 7.432-.11 15.207-.293 22.002-.532 6.795-.239 12.61-.534 16.119-.863 9.483-.89 16.991-1.627 23.283-2.34 6.292-.713 11.367-1.403 15.983-2.2a163.638 163.638 0 0 0 13.224-2.849c4.453-1.144 9.204-2.528 15.01-4.28 6.344-1.916 11.205-3.413 15.197-4.849a77.816 77.816 0 0 0 5.412-2.152 47.39 47.39 0 0 0 4.567-2.324 44.31 44.31 0 0 0 4.176-2.768 65.083 65.083 0 0 0 4.246-3.472c2.955-2.611 6.262-5.873 10.533-10.139 4.112-4.108 8.003-8.226 11.015-11.613 3.013-3.388 5.147-6.044 5.745-7.233.655-1.302 1.295-2.97 1.918-4.966.622-1.998 1.226-4.325 1.806-6.944 1.16-5.238 2.225-11.646 3.16-18.933.935-7.288 1.74-15.453 2.375-24.206a614.584 614.584 0 0 0 1.362-27.722c.341-12.65 1.264-35.6 2.05-51 .417-8.16.754-24.025.998-43.498.245-19.474.4-42.555.454-65.149.053-22.593.007-44.7-.15-62.22-.158-17.52-.426-30.456-.813-34.71-.522-5.732-1.481-16.273-2.13-23.423-.647-7.15-1.574-16.375-2.058-20.5-.303-2.583-.655-11.268-1.013-23.744-.358-12.477-.722-28.744-1.05-46.492-.654-35.497-1.164-76.915-1.185-105.764-.012-17.09.088-32.484.31-46.381.223-13.898.567-26.298 1.042-37.4.474-11.102 1.08-20.906 1.824-29.608.743-8.702 1.625-16.303 2.654-23.002 4.95-32.211 7.404-48.148 8.635-58.14.616-4.996.926-8.506 1.09-11.82.164-3.315.18-6.435.21-10.65.032-4.37.002-7.996-.126-11.128-.128-3.132-.354-5.772-.717-8.166a44.256 44.256 0 0 0-1.533-6.697c-.673-2.155-1.521-4.315-2.58-6.73-.955-2.178-1.948-4.152-3.03-5.983a41.453 41.453 0 0 0-3.556-5.125 44.347 44.347 0 0 0-4.385-4.637c-1.632-1.505-3.452-2.99-5.51-4.516-2.356-1.747-6.063-4.031-10.515-6.55-4.453-2.52-9.651-5.273-14.994-7.957a392.371 392.371 0 0 0-15.858-7.545c-5.028-2.245-9.597-4.118-13.103-5.317-4.786-1.635-8.671-2.9-12.286-3.877-3.614-.976-6.957-1.664-10.658-2.144-3.7-.48-7.76-.754-12.804-.903-5.046-.148-11.077-.17-18.725-.15zm10.58 17.1c4.027.101 7.831.362 11.533.798 3.702.437 7.3 1.05 10.916 1.858 3.616.808 7.248 1.81 11.016 3.025 3.768 1.216 7.673 2.645 11.834 4.305 5.383 2.148 9.323 3.829 14.088 6.146 4.764 2.318 10.354 5.272 19.033 9.965a84.233 84.233 0 0 1 5.844 3.446 52.979 52.979 0 0 1 4.86 3.537 37.236 37.236 0 0 1 3.954 3.756 30.626 30.626 0 0 1 3.131 4.101 30.617 30.617 0 0 1 2.387 4.574 37.184 37.184 0 0 1 1.724 5.172 52.86 52.86 0 0 1 1.143 5.897c.292 2.1.5 4.341.639 6.746.157 2.732.213 5.44.142 8.402-.07 2.963-.268 6.182-.619 9.934-.702 7.504-2.016 17.146-4.152 31.164-1.677 11-4.003 26.296-5.17 33.992-.838 5.524-1.49 9.995-2.014 14.338a246.142 246.142 0 0 0-1.256 13.572c-.668 10.03-1.08 23.259-1.728 47.098-.474 17.417-.716 34.033-.73 55.486-.015 21.453.197 47.744.634 84.514.31 26.125.706 50.663 1.094 69.15.388 18.488.769 30.925 1.047 32.85.556 3.85 1.995 17.575 3.199 30.5.491 5.279.876 9.872 1.183 14.867.308 4.995.537 10.391.717 17.275.36 13.769.523 33.49.715 67.858.145 25.848.158 46.31.04 61.705-.12 15.394-.372 25.72-.76 31.295-.633 9.075-1.568 29.325-2.077 45-.717 22.068-1.383 38.138-2.146 50.594-.382 6.227-.787 11.553-1.235 16.271-.447 4.718-.937 8.83-1.488 12.635-.887 6.134-1.559 10.75-2.17 14.342-.61 3.591-1.162 6.158-1.812 8.193-.65 2.035-1.399 3.538-2.403 5.004-1.004 1.465-2.262 2.893-3.935 4.775a242.968 242.968 0 0 1-7.686 8.274c-2.448 2.508-4.77 4.755-6.922 6.703-2.152 1.947-4.137 3.595-5.91 4.906-1.773 1.311-3.334 2.284-4.644 2.883-1.643.75-4.462 1.807-7.914 3.002a405.61 405.61 0 0 1-11.711 3.826c-8.349 2.599-17.053 5.069-21.762 6.055-3.919.82-8.187 1.52-14.43 2.299-6.243.779-14.46 1.638-26.279 2.78-3.954.383-9.599.685-16.096.901-6.497.216-13.847.345-21.213.385-7.366.04-14.747-.01-21.308-.154-6.561-.145-12.3-.384-16.383-.723-37.765-3.133-48.19-4.074-49.5-4.469-.825-.248-13.425-1.367-28-2.486-16.148-1.24-26.408-2.101-34.213-2.963-7.805-.862-13.156-1.724-19.482-2.967-5.394-1.059-14.53-2.44-20.305-3.07-5.775-.63-14.775-2.014-20-3.076-2.124-.432-4.047-.77-6.299-1.03-2.251-.26-4.832-.443-8.275-.572-6.887-.257-17.22-.292-35.26-.262l-40.334.069-11.166-6.158c-3.571-1.97-6.642-3.751-9.33-5.434-2.688-1.683-4.994-3.265-7.03-4.84a52.489 52.489 0 0 1-5.415-4.787 52.224 52.224 0 0 1-4.502-5.266c-2.263-3.01-4.128-5.759-5.686-8.513a49.722 49.722 0 0 1-3.846-8.547c-1.035-3.032-1.855-6.335-2.55-10.176-.696-3.841-1.267-8.221-1.803-13.404-.327-3.158-.576-6.734-.754-12.166-.178-5.433-.283-12.722-.322-23.305-.078-21.165.111-55.507.525-114.53.377-53.737.69-88.285 1.055-110.687.182-11.2.377-19.364.6-25.373.222-6.008.47-9.861.761-12.44.806-7.15 1.952-17.95 2.547-24 .351-3.57.622-16.095.807-36.777.184-20.681.283-49.52.287-85.722.004-43.3.09-72.514.316-93.235.114-10.36.263-18.596.455-25.408.192-6.811.427-12.197.713-16.857.405-6.6.775-14.823 1.045-22.754.27-7.93.44-15.57.445-21.002.004-5.558.246-12.37.655-19.676.408-7.306.985-15.105 1.662-22.642.676-7.538 1.453-14.813 2.262-21.065.808-6.252 1.648-11.482 2.453-14.931.84-3.603 1.754-6.932 2.787-10.034 1.033-3.1 2.186-5.974 3.506-8.666a53.178 53.178 0 0 1 4.504-7.578 52.337 52.337 0 0 1 5.779-6.765c2.17-2.15 4.601-4.213 7.338-6.23 2.736-2.019 5.779-3.992 9.174-5.97 3.394-1.977 7.14-3.957 11.287-5.986 4.146-2.029 8.69-4.107 13.681-6.28 9.398-4.09 17.084-7.381 23.655-10.075 6.57-2.695 12.025-4.793 16.959-6.502 4.933-1.71 9.345-3.028 13.832-4.164 4.486-1.137 9.046-2.09 14.275-3.065 9.638-1.798 17.394-3.203 24.074-4.3 6.68-1.098 12.285-1.887 17.62-2.456 5.334-.568 10.398-.915 16-1.127 5.601-.211 11.74-.287 19.222-.314 12.534-.045 28.416-.497 35.291-1.004 6.875-.507 38.6-1.344 70.5-1.861 31.9-.517 65.875-1.411 75.5-1.985 6.445-.384 12.21-.53 17.58-.394z" style="isolation:auto;mix-blend-mode:normal" color="#000" overflow="visible" fill="url(#b)" transform="translate(-221.648 -39.284)"/><path d="M288.858 109.146c-6.25 0-10.551 2.23-14.014 7.265-4.053 5.894-4.414 8.11-4.994 30.705-.937 36.51-3.707 85.476-4.922 86.995-.079.098-10.937 1.547-24.13 3.218-39.229 4.97-54.087 7.065-71.487 10.084-17.706 3.072-35.119 5.674-46.68 6.975-11.76 1.323-16.987 7.006-16.115 17.523.803 9.685 6.72 14.522 17.762 14.522 6.347 0 34.367-3.739 48.533-6.475 15.18-2.932 88.4-12.96 89.15-12.209.637.637-3.091 48.457-3.836 49.201-.673.674-33.904 3.481-40.939 3.46-9.451-.03-49.08 2.77-58.875 4.16-8.725 1.237-12.338 3.067-15.213 7.71-4.253 6.87-1.832 18.65 4.533 22.057 2.226 1.191 2.436 2.035 3.059 12.285.368 6.054 1.15 14.45 1.742 18.658.591 4.209 1.143 13.2 1.227 19.98l.152 12.331-3.816 1.326c-7.324 2.544-10.971 7.909-10.971 16.143 0 8.882 5.538 14.712 16.017 16.861 2.661.546 3.41 1.31 4.239 4.336 2.51 9.167 8.285 14.166 16.379 14.172 8.754.007 15.103-4.843 16.343-12.486l.57-3.51h64.739l.12 6.75c.297 16.653-.104 28.369-1.237 36.062-1.113 7.56-1.481 8.445-4.059 9.778-4.154 2.148-7.508 8.042-8.201 14.41-1.549 14.237-14.061 46.437-23.926 61.572-2.483 3.81-10.867 15.253-18.633 25.428a19035.941 19035.941 0 0 0-19.814 26c-6.81 8.968-12.737 14.97-33.25 33.674-16.867 15.379-29.239 25.553-37.932 31.197-5.026 3.263-6.257 3.62-12.63 3.67-11.98.092-17.936 5.574-17.876 16.451.061 11.026 5.54 17.168 15.895 17.82 18.062 1.138 36.481-9.799 73.543-43.668 29.093-26.587 32.788-30.796 64.834-73.847 4.177-5.612 7.742-10.055 7.924-9.873.182.181-.55 5.673-1.625 12.203-1.076 6.53-2.257 17.273-2.623 23.873-.367 6.6-.832 13.35-1.033 15-.202 1.65-.655 7.725-1.006 13.5-.352 5.775-1.276 14.657-2.055 19.738-.779 5.082-1.416 11.48-1.416 14.219 0 2.738-1.549 15.007-3.441 27.262-1.893 12.254-4.156 29.706-5.028 38.78-.872 9.076-2.255 22.434-3.074 29.686-1.49 13.192-2.93 36.564-2.812 45.631.07 5.422 2.107 8.87 7.343 12.434v-.002c4.621 3.145 13.39 3.145 18.059-.002 6.254-4.215 7.228-7.237 7.603-23.61.185-8.05 1.211-22.736 2.284-32.636 1.072-9.9 2.463-23.625 3.087-30.5.625-6.875 2.462-20.52 4.084-30.323 1.623-9.802 3.38-23.446 3.905-30.318.524-6.872 1.206-12.903 1.515-13.404.31-.501.989-7.334 1.508-15.184.52-7.85 1.199-16.971 1.508-20.271.31-3.3.947-11.4 1.418-18 1.032-14.46 6.278-49.908 9.027-61 2.381-9.608 3.69-18.753 4.504-31.467.334-5.206.72-9.578.858-9.715.91-.91 12.303 15.829 17.982 26.418 3.757 7.006 8.988 15.668 11.625 19.25 2.637 3.582 8.339 12.591 12.67 20.02 4.331 7.428 10.575 18.126 13.875 23.775 3.3 5.649 10 16.671 14.889 24.494a9178.36 9178.36 0 0 1 16.935 27.225c4.427 7.15 10.148 15.754 12.715 19.119 5.253 6.887 13.093 19.656 18.04 29.38 2.278 4.481 3.507 8.557 3.954 13.122 1.127 11.503 7.074 16.6 18.196 15.592 11.49-1.042 17.546-8.347 16.58-20.002-.342-4.114-2.12-8.657-7.74-19.776-9.17-18.139-14.646-27.417-21.794-36.935-4.99-6.646-12.062-17.646-30.22-47-2.892-4.675-12.461-20.65-21.264-35.5-8.803-14.85-17.925-29.703-20.273-33.006-2.349-3.303-5.97-9.378-8.045-13.5-5.44-10.801-13.048-22.245-23.037-34.65-4.803-5.965-10.263-13.142-12.131-15.95-1.869-2.808-4.483-5.688-5.81-6.398l-2.415-1.291.408-16.604c.225-9.131.43-19.344.46-22.695l.052-6.092 18.25-.73c10.037-.401 21.714-1.045 25.95-1.43l7.7-.7.655 4.022c1.458 8.956 7.13 13.899 15.945 13.899 9.277 0 14.24-4.687 16.451-15.54.638-3.129 1.8-5.91 2.596-6.216.793-.304 2.342-2.03 3.443-3.836 2.352-3.857 2.684-12.936.612-16.676-1.665-3.003-.993-6.16 4.507-21.17 2.297-6.266 4.733-13.654 5.412-16.416.68-2.762 2.864-10.628 4.856-17.48 7.803-26.842 3.114-43.859-14.42-52.328-9.493-4.586-20.97-5.713-58.086-5.713h-33.148l.629-6.25c.345-3.438 1.086-13 1.65-21.25 1.437-21.035 1.482-21.228 4.998-22 1.615-.355 18.589-.66 37.719-.678 34.834-.032 46.074.855 52.177 4.121 3.125 1.672 11.927 1.273 15.268-.693 5.86-3.449 8.734-11.201 6.807-18.358-2.302-8.547-10.579-13.463-27.043-16.062-5.946-.939-19.773-1.33-46.936-1.33h-38.506l.707-7.5c1.163-12.356 2.87-47.11 3.409-69.416.293-12.158.96-21.768 1.593-22.951.6-1.12 1.09-4.356 1.09-7.19 0-9.632-6.102-15.73-15.738-15.73zm32.12 237.474c15.273-.055 31.48.196 35.833.803 12.025 1.676 11.826 1.568 11.103 6.084-.743 4.65-3.5 13.871-12.083 40.426-3.556 11-6.688 21.146-6.961 22.547-.496 2.54-.533 2.549-16.778 3.789-21.82 1.665-41.167 2.53-41.781 1.869-.636-.686-.463-27.578.182-28.223.92-.92 17.355-1.247 22.414-.445 5.788.917 10.373 2.856 15.3 6.47 4.026 2.953 12.385 3.431 17.124.981 7.298-3.774 10.168-14.3 6.076-22.28-2.515-4.903-5.346-7.367-12.676-11.029-9.798-4.894-17.36-6.462-32.9-6.82-7.69-.177-14.452-.503-15.028-.724-1.164-.447-1.215-11.246-.058-12.405.623-.624 14.962-.987 30.234-1.043zm-68.251 3.985c2.425-.099 4.018-.072 4.195.105 1.06 1.06 1.075 8.798.018 9.451-.539.333-4.163.76-8.055.95-3.891.19-10.899.785-15.574 1.322-4.675.537-13.675 1.269-20 1.627-6.325.358-15.635 1.644-20.688 2.857l-9.187 2.207-.684-6.39c-.376-3.516-.412-6.666-.078-7 .898-.898 28.733-3.214 39.137-3.256 4.95-.02 14.729-.57 21.732-1.223 3.502-.327 6.76-.552 9.184-.65zm2.725 42.681c1.06.147 1.444.555 1.72 1.303.35.947.608 7.488.57 14.533l-.068 12.81-35.062.263-35.063.263-.605-2.263c-.334-1.245-.611-6.2-.62-11.012l-.013-8.75h3.535c1.945 0 7.232-.867 11.75-1.924 4.518-1.058 15.64-2.45 24.715-3.098 9.075-.647 19.587-1.485 23.361-1.861 2.981-.297 4.719-.41 5.78-.264z"/></svg>