<svg xmlns:osb="http://www.openswatchbook.org/uri/2009/osb" xmlns="http://www.w3.org/2000/svg" height="939.547" width="569.644"><defs><linearGradient osb:paint="solid" id="c"><stop offset="0" stop-color="#fff"/></linearGradient><linearGradient osb:paint="solid" id="b"><stop offset="0"/></linearGradient><linearGradient osb:paint="solid" id="a"><stop offset="0" stop-color="#162d50"/></linearGradient></defs><g color="#000"><path d="M588.352 49.373c-5.227.11-9.981.343-13.33.678-11.255 1.125-23.468 2.14-35.885 2.996-12.418.855-25.04 1.55-37.116 2.031-6.08.243-11.243.508-15.755.832-4.513.324-8.376.707-11.854 1.186-3.478.479-6.572 1.054-9.549 1.761-2.976.707-5.834 1.547-8.842 2.555-1.6.537-5.074 1.352-9.554 2.29-4.48.937-9.963 1.997-15.582 3.019a720.99 720.99 0 0 1-16.39 2.797c-5.018.79-9.299 1.384-11.974 1.625-3.109.28-7.247.9-11.785 1.714a330.855 330.855 0 0 0-14.187 2.893c-4.711 1.066-9.195 2.186-12.822 3.219-3.628 1.032-6.4 1.976-7.688 2.691-1.29.716-3.76 1.733-7.238 2.986-3.478 1.254-7.963 2.745-13.28 4.41-1.65.518-3.825 1.353-6 2.286-2.175.932-4.35 1.96-6 2.857-3.3 1.796-7.81 4.196-10.021 5.334-1.366.703-3.166 1.816-5.193 3.184a153.513 153.513 0 0 0-6.56 4.71c-4.556 3.444-9.199 7.283-12.282 10.272-1.117 1.083-2.704 2.943-4.455 5.155a188.791 188.791 0 0 0-5.442 7.26c-1.776 2.486-3.413 4.9-4.605 6.81-1.193 1.91-1.942 3.32-1.942 3.8 0 .4-2.19 5.935-4.869 12.301-2.936 6.98-5.083 12.47-6.806 17.543-1.724 5.074-3.025 9.734-4.266 15.053-1.029 4.41-2.563 9.585-3.41 11.5-.68 1.536-1.528 4.393-2.441 8.049-.914 3.656-1.892 8.113-2.833 12.848a395.112 395.112 0 0 0-2.601 14.517c-.76 4.771-1.38 9.3-1.754 13.067-.382 3.85-2.534 16.45-4.781 28-1.462 7.512-2.583 13.424-3.442 18.63-.859 5.207-1.456 9.708-1.87 14.4-.415 4.694-.646 9.578-.774 15.552-.128 5.973-.153 13.036-.153 22.084 0 8.449.044 15.287.16 20.845.117 5.559.304 9.837.594 13.168.29 3.331.684 5.715 1.205 7.483.261.883.554 1.613.883 2.23.33.617.696 1.121 1.102 1.555.528.564 1.464 2.358 2.547 4.793 1.083 2.435 2.312 5.512 3.427 8.642 2.231 6.26 4.624 12.066 5.319 12.903.207.25.388 1.285.54 2.978.154 1.694.28 4.046.38 6.924.198 5.757.29 13.625.275 22.566-.014 8.942-.134 18.959-.357 29.012-.224 10.053-.553 20.143-.983 29.235-.479 10.13-.719 17.32-.724 23.195-.006 5.875.224 10.434.69 15.305.597 6.268 1.07 11.68 1.442 17.06.373 5.38.646 10.729.848 16.87.404 12.28.519 27.73.563 52.94.035 20.07-.022 33.466-.23 42.835-.105 4.684-.249 8.362-.436 11.363-.188 3-.42 5.324-.705 7.303-.914 6.332-1.622 11.437-2.172 15.97-.55 4.534-.94 8.495-1.217 12.545-.277 4.05-.44 8.188-.533 13.07-.094 4.883-.118 10.512-.118 17.544 0 7.95.04 14.516.141 20.105.102 5.59.267 10.203.522 14.244.255 4.042.599 7.512 1.058 10.819.46 3.306 1.035 6.448 1.75 9.832 1.046 4.95 2.556 12.6 3.356 17 .4 2.2 1.291 5.633 2.408 9.392 1.117 3.76 2.457 7.846 3.752 11.35 1.106 2.992 1.982 5.318 2.789 7.252.806 1.934 1.543 3.477 2.369 4.902.826 1.425 1.74 2.733 2.902 4.2 1.164 1.465 2.576 3.089 4.395 5.146a184.23 184.23 0 0 0 6.648 7.117 171.382 171.382 0 0 0 6.616 6.383c2.123 1.935 4.126 3.645 5.894 5.021 1.768 1.377 3.301 2.42 4.484 3.03 1.697.872 5.513 3.507 8.48 5.853 1.536 1.213 3.96 2.637 6.919 4.127 2.958 1.49 6.45 3.046 10.119 4.525a168.989 168.989 0 0 0 11.182 4.065c3.666 1.182 7.154 2.142 10.105 2.738 3.912.79 10.936 2.362 15.611 3.49 10.748 2.595 16.994 4.079 21.479 5.045 4.485.967 7.209 1.416 10.91 1.936 4.339.609 9.964 1.746 12.5 2.527 2.537.781 9.524 2.119 15.527 2.973 3.002.427 6.192.976 8.91 1.517 2.72.542 4.967 1.078 6.09 1.473 1.124.395 4.732 1.149 9.641 2.045a630.615 630.615 0 0 0 17.443 2.898c12.65 1.93 25.737 3.954 29.083 4.5 3.345.547 8.52.999 11.5 1.002 1.49.002 5.823.509 11.603 1.325 5.78.815 13.007 1.94 20.287 3.175a851.24 851.24 0 0 0 20.172 3.186c5.71.823 9.945 1.34 11.328 1.353 2.766.026 7.952.671 11.527 1.434 1.237.264 2.71.478 4.58.647 1.87.168 4.139.29 6.965.373 5.654.163 13.541.164 24.955.039 13.838-.152 21.55-.283 27.075-.662 2.762-.19 4.977-.443 7.136-.791 2.16-.349 4.263-.793 6.803-1.368 6.175-1.396 13.012-3.298 19.106-5.252a174.21 174.21 0 0 0 8.406-2.914c2.498-.947 4.634-1.85 6.232-2.654 2.334-1.174 10.073-5.793 17.198-10.266 2.642-1.658 4.91-3.135 6.982-4.57a97.131 97.131 0 0 0 5.795-4.324c3.7-2.988 7.31-6.376 12.223-11.293 3.312-3.315 6.487-6.66 8.937-9.379 2.45-2.719 4.174-4.811 4.578-5.621.809-1.62 2.997-5.396 4.863-8.393 1.867-2.996 3.98-7.108 4.696-9.136.716-2.029 2.057-5.15 2.98-6.936.49-.946 1.123-3.06 1.819-5.916.695-2.855 1.452-6.45 2.191-10.355a342.38 342.38 0 0 0 2.076-12.213c.62-4.095 1.14-8.07 1.477-11.496 1.88-19.077 2.968-31.127 3.582-41.446.307-5.159.495-9.884.603-14.84.109-4.955.137-10.14.125-16.214-.013-7.043-.258-16.76-.65-27.567a2109.435 2109.435 0 0 0-1.537-34.107c-.604-11.404-1.271-22.314-1.918-31.147-.647-8.832-1.274-15.587-1.797-18.68-.326-1.924-1.221-10.474-1.99-19-1.719-19.045-2.861-31.374-3.631-39.035-.77-7.66-1.168-10.654-1.4-11.03-.245-.396-.488-1.648-1.053-6.604-.566-4.957-1.454-13.618-2.99-28.83a516 516 0 0 1-1.64-19.782c-.433-6.873-.762-14.299-1.01-23.097-.25-8.799-.415-18.97-.524-31.334-.11-12.365-.162-26.925-.178-44.496-.02-20.56-.137-38.469-.328-51.784-.191-13.315-.455-22.035-.762-24.216-.282-2.005-.649-8.89-1.016-18.368-.366-9.477-.731-21.548-1.005-33.923-.55-24.75-1.466-55.35-2.038-68-.294-6.52-.495-17.271-.583-29.666a2154.24 2154.24 0 0 1 .091-39.532c.147-12.388.22-22.246.178-30.195-.042-7.95-.199-13.99-.512-18.746-.313-4.757-.783-8.23-1.449-11.041a30.47 30.47 0 0 0-1.152-3.8 30.007 30.007 0 0 0-1.479-3.276c-.572-1.097-1.366-2.286-2.304-3.489a39.717 39.717 0 0 0-3.168-3.568 39.658 39.658 0 0 0-3.56-3.174c-1.2-.94-2.385-1.735-3.478-2.306-3.056-1.598-6.538-3.154-10.242-4.61a152.093 152.093 0 0 0-11.566-4 144.987 144.987 0 0 0-11.662-3.015c-3.767-.8-7.346-1.377-10.53-1.664-3.3-.298-9.825-1.393-14.5-2.434-9.566-2.13-16.977-3.765-23-5.027-6.022-1.263-10.657-2.152-14.673-2.793a127.598 127.598 0 0 0-10.963-1.3c-3.548-.265-7.246-.403-11.864-.538a330.569 330.569 0 0 0-16.17-.055z" style="isolation:auto;mix-blend-mode:normal" overflow="visible" fill="url(#c)" transform="translate(-215.178 -30.226)"/><path d="M605.824 30.287c-4.117-.11-8.402-.065-13.303.086-8.188.252-21.442 1.08-32.822 1.951-5.69.436-10.91.884-14.797 1.276-3.885.391-6.436.727-6.783.941-.424.262-14.231.94-30.683 1.504-7.822.268-14.379.55-20.018.887-5.639.337-10.36.73-14.514 1.218-4.153.49-7.737 1.075-11.101 1.797-3.365.722-6.51 1.582-9.782 2.62-2.194.695-6.45 1.702-11.699 2.82-5.248 1.118-11.487 2.347-17.646 3.49-6.16 1.143-12.238 2.2-17.166 2.97-4.928.771-8.706 1.255-10.26 1.255-1.056 0-3.492.35-6.69.92-3.197.568-7.154 1.355-11.251 2.228-8.194 1.746-16.946 3.838-21.288 5.213-2.475.784-7.65 2.65-11.5 4.146-3.85 1.497-10.375 3.758-14.5 5.024-3.377 1.037-6.547 2.248-10.689 4.183-4.142 1.936-9.255 4.595-16.52 8.532-1.5.813-3.621 2.175-6.05 3.85a231.125 231.125 0 0 0-7.899 5.726 249.884 249.884 0 0 0-7.87 6.185c-2.412 1.982-4.507 3.804-5.972 5.23-2.475 2.412-5.67 6.157-7.101 8.323-4.044 6.123-6.979 10.754-9.135 14.469-2.156 3.715-3.536 6.513-4.473 8.97-1.152 3.026-3.883 10-6.07 15.5-2.811 7.07-4.378 11.077-5.513 14.438-1.136 3.361-1.84 6.077-2.932 10.563-1.071 4.4-2.585 9.481-3.365 11.293-.494 1.146-1.266 3.694-2.147 6.933a371.446 371.446 0 0 0-2.8 11.074 351.057 351.057 0 0 0-2.438 10.948c-.64 3.152-1.05 5.572-1.06 6.546-.02 1.764-.688 5.906-1.485 9.206-.797 3.3-1.456 7.946-1.465 10.326-.004 1.19-.533 4.823-1.38 9.717a587.03 587.03 0 0 1-3.3 17.283l-4.662 22.674-.424 40.91c-.115 11.174-.122 21.8-.027 31.603.096 9.804.292 18.784.578 26.662.287 7.879.664 14.655 1.121 20.055.458 5.4.996 9.422 1.604 11.79.505 1.966 1.26 4.234 2.148 6.562a99.383 99.383 0 0 0 2.955 6.921c1.044 2.207 2.107 4.23 3.077 5.833.97 1.601 1.846 2.78 2.513 3.294l2.117 1.631-1.275 32.37c-.513 13.033-.876 23.939-1.074 33.439-.199 9.5-.233 17.594-.088 25.002.145 7.408.468 14.13.984 20.887.516 6.756 1.226 13.547 2.14 21.093.27 2.215.513 9.123.69 18.471.177 9.348.288 21.133.288 33.102 0 10.989-.005 19.327-.079 26.08-.072 6.752-.213 11.92-.482 16.57-.27 4.65-.667 8.781-1.256 13.463-.589 4.682-1.37 9.913-2.402 16.762-.452 2.993-.766 8.37-.963 16.873-.197 8.502-.277 20.13-.254 35.627.031 21.152.068 32.23.365 38.98.149 3.375.362 5.67.672 7.6.31 1.93.718 3.497 1.252 5.42 1.223 4.4 2.666 11.456 3.207 15.681.364 2.838 1.145 6.424 2.2 10.346 1.054 3.922 2.382 8.178 3.84 12.357 1.456 4.18 3.041 8.28 4.612 11.889 1.571 3.609 3.127 6.726 4.524 8.938 2.008 3.179 4.512 6.564 7.314 9.957a145.769 145.769 0 0 0 9.102 9.998c3.199 3.206 6.496 6.22 9.693 8.841 3.198 2.623 6.295 4.853 9.094 6.493 2.348 1.375 6.754 4.426 9.793 6.779 2.15 1.664 5.047 3.378 8.578 5.103 3.53 1.725 7.693 3.46 12.371 5.16 4.678 1.701 9.873 3.37 15.465 4.961a318.573 318.573 0 0 0 17.854 4.506c6.6 1.471 14.307 3.304 17.128 4.075 2.822.77 10.491 2.302 17.043 3.402 6.553 1.1 14.145 2.653 16.872 3.453 2.726.8 9.007 1.968 13.957 2.596 2.475.314 5.456.813 8.265 1.363 2.81.55 5.447 1.15 7.235 1.67 1.973.574 6.965 1.545 13.45 2.678 6.487 1.132 14.467 2.427 22.423 3.65 7.955 1.223 15.884 2.374 22.265 3.219 6.381.845 11.215 1.385 12.979 1.385 1.388 0 5.63.506 11.347 1.322 5.718.815 12.912 1.94 20.2 3.178a849.493 849.493 0 0 0 20.234 3.197c5.74.827 10.012 1.348 11.434 1.365 2.842.034 8.093.69 11.668 1.461 1.253.27 2.728.488 4.61.658 1.883.17 4.174.291 7.054.371 5.76.16 13.88.153 25.836.016 15.182-.175 23.009-.281 28.876-.733a83.254 83.254 0 0 0 8.008-.988c2.63-.45 5.442-1.04 9.116-1.82a271.331 271.331 0 0 0 11.812-2.781c3.47-.907 6.194-1.72 7.334-2.221 2.28-1.001 5.655-2.147 7.5-2.547.908-.197 2.184-.653 3.738-1.312 1.554-.66 3.385-1.524 5.403-2.54 4.034-2.03 8.813-4.667 13.607-7.48 4.794-2.813 9.603-5.803 13.697-8.541 4.095-2.738 7.473-5.226 9.409-7.033 1.925-1.798 5.22-4.541 7.324-6.096 1.505-1.113 3.377-2.871 5.45-5.07 2.075-2.199 4.351-4.837 6.663-7.711a186.732 186.732 0 0 0 6.879-9.121c2.22-3.138 4.31-6.307 6.107-9.3 1.809-3.01 3.453-5.895 4.645-8.114 1.192-2.22 1.932-3.775 1.932-4.131 0-.712.855-2.695 1.9-4.41.498-.818 1.016-1.987 1.545-3.453.529-1.467 1.07-3.23 1.611-5.243 1.083-4.024 2.17-9.04 3.192-14.636a346.213 346.213 0 0 0 2.783-18.125c.809-6.351 1.475-12.875 1.924-19.162.569-7.975 1.541-19.225 2.162-25 .334-3.112.536-9.987.627-18.743.09-8.756.068-19.394-.045-30.029-.114-10.635-.317-21.268-.594-30.018-.277-8.749-.627-15.613-1.027-18.71-.569-4.4-1.496-16.55-2.06-27-.566-10.45-1.69-25.3-2.497-33-1.382-13.192-3.6-35.721-5.514-56-.467-4.95-1.29-11.25-1.828-14s-1.279-9.275-1.644-14.5c-.366-5.225-1.11-12.12-1.657-15.32-.505-2.967-.946-7.356-1.335-13.657-.39-6.3-.726-14.512-1.026-25.125-.6-21.226-1.05-52.055-1.459-96.398-.256-27.771-.568-51.008-.894-67.684-.327-16.676-.668-26.79-.985-28.316-.285-1.375-.61-7.344-.902-15.852-.293-8.508-.553-19.557-.711-31.092-.158-11.534-.422-22.712-.72-31.431-.3-8.72-.633-14.98-.928-16.674-.357-2.047-.568-6.22-.635-12.49-.067-6.27.01-14.638.234-25.067.617-28.794.888-46.438.762-57.918-.063-5.74-.225-9.938-.494-13.219-.27-3.28-.647-5.642-1.137-7.709a61.915 61.915 0 0 0-3.701-10.947 59.91 59.91 0 0 0-2.528-5.021 55.98 55.98 0 0 0-2.912-4.627 50.418 50.418 0 0 0-3.248-4.162 43.825 43.825 0 0 0-3.535-3.627 36.98 36.98 0 0 0-3.773-3.024 30.587 30.587 0 0 0-3.963-2.347 176.32 176.32 0 0 0-13.381-5.905 170.953 170.953 0 0 0-13.637-4.703 162.323 162.323 0 0 0-13.75-3.457 151.065 151.065 0 0 0-13.72-2.168c-3.85-.426-16.9-2.833-29-5.35-7.164-1.49-13.146-2.675-18.395-3.605-5.25-.93-9.766-1.606-14-2.076a144.26 144.26 0 0 0-12.303-.844zm-17.472 19.086c5.226-.11 10.927-.099 16.17.055 4.617.135 8.315.273 11.863.539 3.548.265 6.946.657 10.963 1.299 4.016.64 8.65 1.53 14.673 2.793 6.023 1.262 13.434 2.897 23 5.027 4.675 1.04 11.2 2.136 14.5 2.434 3.184.287 6.763.863 10.53 1.664 3.766.8 7.722 1.825 11.662 3.015 3.94 1.19 7.863 2.545 11.566 4 3.703 1.456 7.186 3.012 10.242 4.61 1.093.57 2.278 1.367 3.477 2.306a39.658 39.658 0 0 1 3.56 3.174 39.717 39.717 0 0 1 3.169 3.568c.938 1.203 1.732 2.392 2.304 3.489a30.007 30.007 0 0 1 1.479 3.275 30.47 30.47 0 0 1 1.152 3.8c.666 2.812 1.136 6.285 1.45 11.042.312 4.757.469 10.797.511 18.746.042 7.95-.03 17.807-.178 30.195-.155 13.098-.18 27.136-.091 39.532.088 12.395.289 23.145.583 29.666.572 12.65 1.489 43.25 2.038 68 .274 12.375.639 24.446 1.005 33.923.367 9.478.734 16.363 1.016 18.368.307 2.181.571 10.901.762 24.216.19 13.315.309 31.225.328 51.784.016 17.571.068 32.13.178 44.496.109 12.365.275 22.535.523 31.334.248 8.798.578 16.224 1.012 23.097a516 516 0 0 0 1.638 19.782c1.537 15.212 2.425 23.873 2.99 28.83.566 4.956.81 6.208 1.053 6.603.233.377.631 3.37 1.4 11.031.77 7.661 1.913 19.99 3.632 39.036.769 8.525 1.664 17.075 1.99 19 .523 3.092 1.15 9.847 1.797 18.68.647 8.832 1.314 19.742 1.918 31.146.603 11.404 1.145 23.3 1.537 34.107.392 10.807.637 20.524.65 27.567.012 6.074-.017 11.26-.125 16.214-.108 4.956-.296 9.681-.603 14.84-.614 10.319-1.703 22.369-3.582 41.446-.338 3.425-.858 7.4-1.477 11.496a342.38 342.38 0 0 1-2.076 12.213c-.739 3.904-1.496 7.5-2.191 10.355-.696 2.855-1.33 4.97-1.819 5.916-.923 1.785-2.264 4.907-2.98 6.936-.716 2.028-2.829 6.14-4.696 9.136-1.866 2.997-4.054 6.773-4.863 8.393-.404.81-2.128 2.902-4.578 5.621-2.45 2.719-5.625 6.064-8.937 9.379-4.914 4.917-8.522 8.305-12.223 11.293a97.131 97.131 0 0 1-5.795 4.324c-2.071 1.435-4.34 2.912-6.982 4.57-7.125 4.473-14.864 9.092-17.198 10.266-1.598.804-3.734 1.707-6.232 2.654a174.21 174.21 0 0 1-8.406 2.914c-6.094 1.954-12.931 3.856-19.106 5.252-2.54.575-4.643 1.02-6.803 1.367-2.159.349-4.374.602-7.136.792-5.524.38-13.237.51-27.075.662-11.414.125-19.301.124-24.955-.04-2.826-.081-5.094-.204-6.964-.373-1.87-.168-3.344-.382-4.58-.646-3.576-.763-8.762-1.408-11.528-1.434-1.383-.012-5.619-.53-11.328-1.353a851.24 851.24 0 0 1-20.172-3.186 765.655 765.655 0 0 0-20.287-3.175c-5.78-.816-10.114-1.323-11.603-1.325-2.98-.004-8.155-.455-11.5-1.002-3.346-.546-16.433-2.57-29.083-4.5a630.615 630.615 0 0 1-17.443-2.898c-4.909-.896-8.518-1.65-9.64-2.045-1.124-.395-3.372-.93-6.09-1.473a169.274 169.274 0 0 0-8.91-1.517c-6.004-.854-12.991-2.192-15.528-2.973-2.536-.781-8.161-1.918-12.5-2.527-3.701-.52-6.425-.97-10.91-1.936s-10.731-2.45-21.479-5.045c-4.675-1.128-11.7-2.7-15.61-3.49-2.952-.596-6.44-1.556-10.106-2.738a168.989 168.989 0 0 1-11.182-4.065c-3.669-1.48-7.16-3.035-10.12-4.525-2.957-1.49-5.382-2.914-6.917-4.127-2.968-2.346-6.784-4.98-8.48-5.854-1.184-.608-2.717-1.652-4.485-3.029-1.768-1.376-3.771-3.086-5.894-5.021a171.382 171.382 0 0 1-6.616-6.383 184.23 184.23 0 0 1-6.648-7.117c-1.82-2.057-3.231-3.68-4.395-5.147-1.163-1.466-2.076-2.774-2.902-4.199-.826-1.425-1.563-2.968-2.37-4.902-.806-1.934-1.682-4.26-2.788-7.252-1.295-3.504-2.635-7.59-3.752-11.35s-2.009-7.192-2.408-9.392c-.8-4.4-2.31-12.05-3.356-17-.715-3.384-1.29-6.526-1.75-9.833-.46-3.306-.803-6.776-1.058-10.818-.255-4.041-.42-8.655-.522-14.244-.102-5.59-.14-12.155-.14-20.105 0-7.032.023-12.66.117-17.543.093-4.883.256-9.02.533-13.07.277-4.05.667-8.012 1.217-12.546.55-4.533 1.258-9.638 2.172-15.97.285-1.979.517-4.302.705-7.303.187-3.001.33-6.679.435-11.363.209-9.37.266-22.766.23-42.834-.043-25.212-.158-40.66-.562-52.942a454.439 454.439 0 0 0-.848-16.869c-.372-5.38-.845-10.792-1.443-17.06-.465-4.871-.695-9.43-.69-15.305.007-5.875.246-13.065.725-23.195.43-9.092.76-19.182.983-29.235.223-10.053.343-20.07.357-29.012.014-8.941-.077-16.809-.275-22.566-.1-2.879-.226-5.23-.38-6.924-.152-1.693-.333-2.729-.54-2.978-.695-.837-3.088-6.642-5.319-12.903-1.115-3.13-2.344-6.207-3.427-8.642-1.083-2.435-2.02-4.229-2.547-4.793a7.217 7.217 0 0 1-1.102-1.555c-.33-.617-.622-1.347-.883-2.23-.521-1.768-.915-4.152-1.205-7.483-.29-3.331-.477-7.61-.593-13.168-.117-5.558-.16-12.396-.16-20.845 0-9.048.024-16.11.152-22.084s.359-10.858.773-15.551c.415-4.694 1.012-9.194 1.871-14.4.86-5.207 1.98-11.119 3.442-18.631 2.247-11.55 4.4-24.15 4.781-28 .374-3.766.994-8.296 1.754-13.067.76-4.771 1.661-9.783 2.601-14.517.94-4.735 1.92-9.192 2.833-12.848.913-3.656 1.761-6.513 2.44-8.049.848-1.915 2.382-7.09 3.411-11.5 1.241-5.319 2.542-9.979 4.266-15.053 1.723-5.074 3.87-10.563 6.806-17.543 2.679-6.366 4.87-11.9 4.87-12.3 0-.482.748-1.89 1.94-3.801 1.193-1.91 2.83-4.324 4.606-6.81a188.791 188.791 0 0 1 5.442-7.26c1.75-2.212 3.338-4.072 4.455-5.155 3.083-2.989 7.726-6.828 12.281-10.271a153.513 153.513 0 0 1 6.56-4.711c2.028-1.368 3.828-2.481 5.194-3.184 2.212-1.138 6.721-3.538 10.021-5.334 1.65-.898 3.825-1.925 6-2.857 2.175-.933 4.35-1.769 6-2.285 5.317-1.666 9.802-3.157 13.28-4.41 3.478-1.254 5.948-2.271 7.238-2.987 1.288-.715 4.06-1.659 7.688-2.691 3.627-1.033 8.11-2.153 12.822-3.219a330.855 330.855 0 0 1 14.187-2.893c4.538-.815 8.676-1.434 11.785-1.714 2.675-.241 6.956-.836 11.973-1.625a720.99 720.99 0 0 0 16.39-2.797c5.62-1.022 11.103-2.082 15.583-3.02 4.48-.938 7.955-1.752 9.554-2.289 3.008-1.009 5.866-1.848 8.842-2.555 2.977-.707 6.07-1.282 9.55-1.761 3.477-.48 7.34-.862 11.853-1.186 4.512-.324 9.675-.59 15.755-.832a1299.907 1299.907 0 0 0 37.116-2.031c12.417-.855 24.63-1.871 35.884-2.996 3.35-.335 8.104-.568 13.33-.678z" style="isolation:auto;mix-blend-mode:normal" overflow="visible" fill="url(#b)" transform="translate(-215.178 -30.226)"/></g></svg>