<svg xmlns:osb="http://www.openswatchbook.org/uri/2009/osb" xmlns="http://www.w3.org/2000/svg" height="917.429" width="565.768"><defs><linearGradient osb:paint="solid" id="c"><stop offset="0" stop-color="#fff"/></linearGradient><linearGradient osb:paint="solid" id="b"><stop offset="0"/></linearGradient><linearGradient osb:paint="solid" id="d"><stop offset="0" stop-color="#002b11"/></linearGradient><linearGradient osb:paint="solid" id="a"><stop offset="0" stop-color="#162d50"/></linearGradient></defs><path d="M646.898 59.68c-21.463.06-47.296.54-69.097 1.185-10.9.323-20.793.687-28.627 1.063-7.834.375-13.61.762-16.276 1.129-2.062.283-5.4.549-9.115.748-3.715.199-7.81.33-11.385.35-5.575.029-12.388.234-19.699.564-7.31.33-15.12.783-22.687 1.31-7.567.527-14.89 1.127-21.233 1.748-6.342.622-11.703 1.265-15.341 1.877-4.972.837-11.515 1.92-14.54 2.405-3.909.627-11.405 2.466-19.175 4.607-7.77 2.14-15.816 4.583-20.825 6.412-5.362 1.958-9.405 3.58-13.627 5.572-4.221 1.993-8.623 4.357-14.7 7.8-5.344 3.025-10.718 5.816-11.944 6.2-.957.3-2.207.893-3.668 1.721-1.46.828-3.133 1.892-4.932 3.133-3.597 2.483-7.703 5.678-11.658 9.127-4.18 3.645-8.731 7.215-10.115 7.933-.84.436-2.401 1.794-4.295 3.643-1.894 1.85-4.12 4.19-6.293 6.596-2.173 2.405-4.293 4.874-5.97 6.978-1.678 2.105-2.915 3.845-3.323 4.791-.712 1.65-2.167 4.125-3.236 5.5-.535.688-1.221 1.931-1.897 3.381a42.2 42.2 0 0 0-1.83 4.62c-.98 3.024-2.474 6.85-3.318 8.5-.845 1.65-2.755 6.374-4.242 10.5a692.18 692.18 0 0 1-5.446 14.5c-1.508 3.85-3.549 9.7-4.535 13-.986 3.3-2.697 8.474-3.8 11.5-1.12 3.066-2.485 8.213-3.78 14.02-1.294 5.808-2.517 12.276-3.353 17.98-.605 4.124-1.78 11.825-2.612 17.113l-1.513 9.615 2.908 7.385c1.05 2.668 1.89 4.97 2.564 7.203a53.054 53.054 0 0 1 1.584 6.783c.398 2.388.681 5.002.9 8.137.22 3.134.375 6.791.514 11.263.183 5.884.447 10.414.858 14.207.41 3.794.968 6.851 1.742 9.793.639 2.43 1.3 6.218 1.906 10.782.606 4.563 1.157 9.902 1.576 15.437.758 10.02 1.698 18.737 2.088 19.37.209.337.478 3.724.768 9.02.29 5.297.599 12.504.886 20.477.576 15.946 1.065 34.96 1.14 47.914.03 5.275-.06 10.295-.292 15.262-.231 4.966-.604 9.88-1.14 14.943a306.294 306.294 0 0 1-2.12 15.84c-.883 5.565-1.95 11.483-3.224 17.955-2.688 13.656-5.332 28.946-7.307 41.801-.987 6.428-1.807 12.246-2.383 16.95-.575 4.702-.905 8.288-.912 10.25-.009 2.75-.468 6.8-1.02 9-.536 2.139-1.08 5.952-1.706 12.136-.626 6.184-1.333 14.739-2.19 26.363-.588 7.975-1.515 18.124-2.06 22.553-.273 2.214-.522 8.565-.702 17.014-.18 8.448-.29 18.994-.29 29.597 0 12.095.04 21.5.27 29.446.232 7.945.653 14.432 1.413 20.693.38 3.13.845 6.204 1.414 9.375.569 3.17 1.24 6.44 2.035 9.959 1.59 7.039 3.669 15.082 6.387 25.363.935 3.535 1.851 6.63 2.842 9.469.99 2.84 2.054 5.426 3.283 7.943 1.229 2.518 2.623 4.967 4.271 7.536 1.65 2.568 3.554 5.256 5.805 8.248.816 1.084 2.63 2.994 4.996 5.322 2.366 2.328 5.282 5.074 8.301 7.828 3.02 2.754 6.14 5.515 8.918 7.879 2.778 2.363 5.211 4.328 6.852 5.484 2.503 1.765 6.388 4.94 8.632 7.059a92.938 92.938 0 0 0 5.508 4.812 86.542 86.542 0 0 0 5.78 4.272 88.283 88.283 0 0 0 6.154 3.805 98.56 98.56 0 0 0 6.638 3.41c9.478 4.434 16.51 7.79 21.618 10.324 5.107 2.534 8.289 4.247 10.064 5.398 1.012.657 2.756 1.517 4.75 2.375a72.526 72.526 0 0 0 6.25 2.362c4.025 1.292 9.343 3.096 11.818 4.007 2.475.912 13.398 3.63 24.272 6.04 10.874 2.41 20.603 4.825 21.62 5.369.831.445 4.58 1.305 9.933 2.36 5.353 1.053 12.31 2.3 19.56 3.52a978.005 978.005 0 0 0 21.313 3.36c6.521.945 12.022 1.643 15.191 1.871 6.814.49 12.642 1.145 12.951 1.455.314.314 6.717.458 16.446.473 9.728.014 22.784-.1 36.404-.303 13.62-.202 27.802-.493 39.789-.83 11.987-.337 21.776-.721 26.605-1.111 10.772-.87 21.122-1.855 23-2.188 1.88-.333 10.166-1.037 18.416-1.566 12.98-.832 23.175-1.726 30.674-2.692 3.75-.483 6.825-.983 9.239-1.504 2.413-.52 4.165-1.061 5.265-1.623 1.594-.813 3.011-1.647 4.274-2.601a16.625 16.625 0 0 0 3.337-3.324c.97-1.294 1.802-2.808 2.516-4.64.715-1.83 1.313-3.979 1.81-6.544.499-2.565.897-5.548 1.217-9.045.32-3.497.562-7.51.743-12.137.36-9.254.48-20.965.513-35.924.046-20.918.243-37.218.752-54.382.51-17.164 1.33-35.192 2.627-59.567.834-15.675 1.95-46.95 2.479-69.5.265-11.275.619-22.425.976-31.306.358-8.882.72-15.494.996-17.694.555-4.4 1.27-14.975 1.588-23.5.32-8.525 1.02-18.65 1.559-22.5.538-3.85 1.431-18.025 1.986-31.5.573-13.913 1.157-24.808 1.807-33.402.65-8.594 1.367-14.887 2.203-19.598.317-1.787.706-7.349 1.076-14.87.37-7.523.721-17.005.965-26.63a11603.09 11603.09 0 0 1 2.643-89.543c.964-28.891 1.94-54.685 2.712-70.957.797-16.775 1.903-45.575 2.457-64 .555-18.425 1.22-36.425 1.477-40 .258-3.575.93-13.097 1.494-21.162s1.547-17.656 2.184-21.314c.3-1.722.495-4.223.594-7.229.098-3.006.099-6.515.01-10.258-.09-3.742-.269-7.715-.534-11.646a224.74 224.74 0 0 0-1.04-11.39c-.32-2.672-.678-5.139-1.087-7.417a74.273 74.273 0 0 0-1.388-6.289c-.52-1.92-1.101-3.67-1.754-5.265a29.521 29.521 0 0 0-2.188-4.348 22.391 22.391 0 0 0-2.681-3.533 20.998 20.998 0 0 0-3.243-2.828 24.784 24.784 0 0 0-3.869-2.225 35.35 35.35 0 0 0-4.558-1.727c-6.687-2.053-12.737-3.7-18.864-5.011a168.338 168.338 0 0 0-9.337-1.727c-3.191-.498-6.49-.921-9.987-1.28-6.993-.715-14.776-1.168-24.062-1.435-9.286-.266-20.075-.345-33.08-.308z" style="isolation:auto;mix-blend-mode:normal" color="#000" overflow="visible" fill="url(#c)" transform="translate(-217.117 -41.285)"/><path d="M669.457 41.344c-18.633-.142-43.603-.019-65.205.293-10.801.155-20.76.357-28.664.597-7.903.24-13.751.52-16.33.827-4.873.579-22.585 1.495-39.36 2.039-13.589.44-25.184.879-35.326 1.359s-18.83 1.003-26.603 1.607c-7.773.605-14.631 1.293-21.114 2.106a378.245 378.245 0 0 0-18.859 2.857c-7.138 1.259-15.644 3.15-23.23 5.09-3.793.97-7.355 1.954-10.403 2.875-3.047.921-5.58 1.782-7.31 2.508-3.11 1.305-7.68 2.912-10.155 3.572-1.062.284-3.203 1.167-5.869 2.373a276.304 276.304 0 0 0-9.011 4.309 272.495 272.495 0 0 0-8.823 4.582c-2.538 1.388-4.488 2.546-5.297 3.195-.775.623-2.864 1.757-4.888 2.737-2.024.979-3.983 1.802-4.494 1.802-.326 0-1.282.485-2.664 1.317-1.383.831-3.193 2.01-5.225 3.396a254.809 254.809 0 0 0-13.238 9.695c-4.955 3.902-10.58 8.189-12.5 9.53-1.92 1.34-4.139 3.365-4.93 4.5-.791 1.134-4.104 4.762-7.363 8.062-3.884 3.933-5.9 5.991-7.276 7.725-1.375 1.734-2.11 3.143-3.433 5.775-1.245 2.475-3.11 5.584-4.145 6.908-.517.663-1.165 1.894-1.793 3.344a38.775 38.775 0 0 0-1.672 4.656c-.435 1.538-1.091 3.39-1.797 5.133-.705 1.743-1.459 3.378-2.093 4.485-.635 1.106-1.382 2.729-2.074 4.45-.693 1.723-1.332 3.544-1.749 5.05-.7 2.536-1.915 6.073-3.375 9.906a214.642 214.642 0 0 1-4.845 11.68c-.774 1.71-1.92 5.535-2.55 8.5-.628 2.964-1.957 7-2.954 8.972-.508 1.005-1.258 3.342-2.098 6.354-.84 3.012-1.769 6.7-2.635 10.41-.865 3.71-1.668 7.439-2.253 10.535-.586 3.096-.956 5.558-.956 6.73v3.034l-2.634-2.074a9.355 9.355 0 0 0-2.864-1.534 9.594 9.594 0 0 0-3.138-.476 9.373 9.373 0 0 0-3.098.57 8.803 8.803 0 0 0-2.74 1.617c-.958.834-1.64 1.72-2.135 2.862-.494 1.14-.8 2.536-1.004 4.388-.128 1.164-.201 2.105-.154 3.024.047.918.213 1.813.566 2.883.706 2.138 2.155 4.974 4.87 10.093l5.831 11 .502 23c.23 10.564.4 16.395.76 20.045.18 1.825.408 3.105.715 4.158.307 1.053.691 1.879 1.188 2.797.594 1.1 1.445 2.285 2.34 3.309.893 1.024 1.83 1.886 2.593 2.34.591.35 1.076.707 1.496 1.154.42.447.775.986 1.104 1.703.656 1.435 1.209 3.584 1.976 7.143.946 4.385 1.742 9.233 2.504 15.48s1.489 13.892 2.295 23.871c.533 6.6 1.416 15.375 1.961 19.5.381 2.884.716 8.828.984 16.278.268 7.45.47 16.406.584 25.312.115 8.906.142 17.762.063 25.016-.079 7.253-.264 12.903-.576 15.394a3751.036 3751.036 0 0 0-1.967 16c-.495 4.125-2.512 15.825-4.482 26-3.237 16.715-5.114 26.576-6.188 32.828-1.074 6.253-1.346 8.896-1.371 11.172-.028 2.475-.694 7.425-1.48 11-.394 1.788-.755 4.015-1.02 6.164-.266 2.15-.436 4.22-.445 5.694-.02 2.946-.684 9.246-1.477 14-.66 3.954-1.227 8.453-1.92 15.795-.692 7.34-1.51 17.524-2.668 32.847-.31 4.101-.538 12.644-.685 23.26-.148 10.617-.214 23.308-.204 35.711.011 12.403.1 24.515.266 33.975.165 9.46.406 16.266.72 18.054.583 3.3 1.432 8.475 1.888 11.5.73 4.852 1.519 9.167 2.5 13.55.98 4.381 2.153 8.83 3.654 13.95 1.612 5.5 2.921 10.695 2.91 11.543-.008.615.483 2.25 1.256 4.393.773 2.142 1.827 4.793 2.945 7.433 1.118 2.641 2.3 5.273 3.328 7.383 1.028 2.11 1.901 3.698 2.403 4.248 1.002 1.1 2.735 3.8 3.851 6 1.02 2.01 2.606 4.323 4.711 6.895 2.105 2.571 4.73 5.401 7.83 8.445 3.1 3.044 6.675 6.302 10.678 9.729 4.003 3.426 8.434 7.022 13.25 10.742 3.425 2.646 7.803 6.288 9.728 8.094a88.404 88.404 0 0 0 5.536 4.767 98.497 98.497 0 0 0 12.418 8.377 91.484 91.484 0 0 0 6.562 3.395c7.816 3.643 15.282 7.243 21.252 10.228 5.97 2.985 10.444 5.355 12.277 6.537 1.542.994 4.861 2.45 9.754 4.291 4.893 1.841 11.36 4.066 19.196 6.6 2.141.692 7.09 1.929 13.072 3.303a675.4 675.4 0 0 0 19.277 4.125c3.215.635 7.49 1.844 9.5 2.687 1.669.7 5.258 1.59 12.592 3.03 7.334 1.439 18.413 3.426 35.064 6.322 6.6 1.147 16.5 2.457 22 2.912 3.793.313 13.907.507 27.084.6 13.178.091 29.419.082 45.47-.01 16.05-.093 31.908-.268 44.318-.506 12.41-.24 21.372-.541 23.628-.89 4.012-.618 10.4-1.3 18.715-2.009 8.316-.709 18.561-1.444 30.285-2.168 9.084-.56 16.61-1.235 22.944-2.15 3.166-.458 6.034-.976 8.648-1.57 2.614-.595 4.974-1.265 7.125-2.028 2.151-.763 4.095-1.619 5.873-2.582a32.787 32.787 0 0 0 4.889-3.23 34.22 34.22 0 0 0 4.176-3.975c1.303-1.46 2.532-3.06 3.732-4.816.834-1.22 1.565-2.31 2.21-3.393a24.255 24.255 0 0 0 1.683-3.357c.483-1.196.892-2.51 1.242-4.063.35-1.554.64-3.348.885-5.508.488-4.319.792-10.095 1.027-18.32.235-8.225.4-18.897.604-33.004.432-29.81 1.042-56.502 1.742-77.396.35-10.447.722-19.444 1.105-26.657.383-7.212.778-12.64 1.172-15.947.311-2.612.691-9.431 1.053-18.312.362-8.882.705-19.825.943-30.688.508-23.184 1.126-43.364 1.805-59.408.34-8.022.694-15.012 1.058-20.824.365-5.813.739-10.449 1.116-13.768.534-4.702 1.052-11.277 1.668-21.639.615-10.361 1.329-24.509 2.254-44.361.525-11.275 1.455-23.65 2.066-27.5.543-3.42 1.001-6.98 1.398-11.154.398-4.174.734-8.96 1.034-14.83.598-11.741 1.05-27.82 1.545-52.016.275-13.475.637-26.626.996-36.957s.715-17.843.984-20.043c.269-2.2.575-7.857.852-15.197.276-7.34.523-16.365.673-25.303.15-8.937.4-18.018.682-25.45.282-7.43.596-13.212.873-15.55.278-2.337.636-8.287.99-15.99.355-7.703.705-17.16.965-26.51.738-26.526 1.44-46.51 2.182-61.555.371-7.522.754-13.81 1.156-19.064.402-5.254.823-9.473 1.275-12.86.622-4.654 1.021-10.527 1.217-16.92.196-6.392.19-13.303 0-20.03-.19-6.729-.563-13.274-1.1-18.936-.267-2.831-.576-5.44-.923-7.742-.347-2.302-.733-4.296-1.154-5.893-.799-3.026-1.612-5.694-2.49-8.102-.88-2.407-1.825-4.553-2.887-6.533a39.513 39.513 0 0 0-3.59-5.539c-1.349-1.745-2.866-3.42-4.604-5.12-1.605-1.573-3.042-2.86-4.582-3.987-1.54-1.127-3.182-2.095-5.201-3.03-2.02-.934-4.417-1.837-7.46-2.832-3.045-.994-6.737-2.081-11.35-3.388-2.669-.756-4.905-1.357-7.19-1.871-2.285-.515-4.618-.943-7.479-1.354-5.72-.822-13.552-1.577-27.332-2.814-3.913-.352-13.519-.564-25.941-.658zM646.898 59.68c13.006-.037 23.794.042 33.08.308 9.287.267 17.07.72 24.063 1.436 3.497.358 6.796.781 9.986 1.28 3.191.497 6.275 1.07 9.338 1.726 6.127 1.311 12.177 2.958 18.864 5.011a35.35 35.35 0 0 1 4.558 1.727 24.784 24.784 0 0 1 3.87 2.225 20.998 20.998 0 0 1 3.241 2.828 22.391 22.391 0 0 1 2.682 3.533 29.521 29.521 0 0 1 2.188 4.348c.653 1.596 1.233 3.345 1.753 5.265.52 1.92.98 4.011 1.39 6.29.408 2.277.766 4.744 1.085 7.415.427 3.572.776 7.46 1.041 11.39.265 3.932.444 7.905.533 11.647.09 3.743.09 7.252-.01 10.258-.098 3.006-.294 5.507-.593 7.229-.637 3.658-1.62 13.25-2.184 21.314-.564 8.065-1.236 17.587-1.494 21.162-.258 3.575-.922 21.575-1.477 40-.554 18.425-1.66 47.225-2.457 64-.773 16.272-1.749 42.066-2.713 70.957A11603.09 11603.09 0 0 0 751 450.572c-.244 9.625-.595 19.107-.965 26.63-.37 7.521-.76 13.083-1.076 14.87-.836 4.71-1.553 11.004-2.203 19.598-.65 8.594-1.234 19.49-1.807 33.402-.555 13.475-1.448 27.65-1.986 31.5-.538 3.85-1.24 13.975-1.559 22.5-.319 8.525-1.033 19.1-1.588 23.5-.277 2.2-.638 8.812-.996 17.694-.358 8.88-.712 20.031-.976 31.306-.53 22.55-1.645 53.825-2.479 69.5-1.297 24.375-2.118 42.403-2.627 59.567-.509 17.164-.706 33.464-.752 54.382-.033 14.959-.153 26.67-.514 35.924-.18 4.627-.422 8.64-.742 12.137s-.718 6.48-1.217 9.045c-.498 2.565-1.096 4.714-1.81 6.545-.715 1.83-1.547 3.345-2.516 4.639a16.625 16.625 0 0 1-3.338 3.324c-1.262.954-2.68 1.788-4.273 2.601-1.1.562-2.852 1.103-5.266 1.623-2.413.521-5.488 1.021-9.238 1.504-7.5.966-17.694 1.86-30.674 2.692-8.25.529-16.537 1.233-18.416 1.566-1.879.333-12.229 1.317-23 2.188-4.829.39-14.619.774-26.605 1.11-11.987.338-26.17.629-39.79.831-13.62.202-26.675.317-36.404.303-9.729-.015-16.131-.16-16.445-.473-.31-.31-6.137-.965-12.951-1.455-3.169-.228-8.67-.926-15.192-1.871a978.005 978.005 0 0 1-21.312-3.36c-7.25-1.22-14.207-2.467-19.56-3.52-5.354-1.055-9.102-1.915-9.934-2.36-1.016-.544-10.745-2.96-21.62-5.37-10.874-2.41-21.796-5.127-24.27-6.039-2.476-.911-7.794-2.715-11.82-4.007a72.526 72.526 0 0 1-6.25-2.362c-1.993-.858-3.737-1.718-4.75-2.375-1.775-1.15-4.956-2.864-10.064-5.398-5.107-2.535-12.14-5.89-21.617-10.324a98.56 98.56 0 0 1-6.638-3.41 88.283 88.283 0 0 1-6.155-3.805 86.542 86.542 0 0 1-5.78-4.272 92.938 92.938 0 0 1-5.507-4.812c-2.244-2.119-6.129-5.294-8.633-7.059-1.64-1.156-4.074-3.12-6.851-5.484a355.446 355.446 0 0 1-8.918-7.879c-3.02-2.754-5.936-5.5-8.301-7.828-2.365-2.328-4.18-4.238-4.996-5.322-2.251-2.992-4.156-5.68-5.805-8.248-1.649-2.569-3.043-5.018-4.271-7.536-1.229-2.517-2.293-5.103-3.283-7.943-.991-2.84-1.908-5.934-2.842-9.469-2.718-10.28-4.797-18.324-6.387-25.363a226.993 226.993 0 0 1-2.035-9.959 166.113 166.113 0 0 1-1.414-9.375c-.76-6.26-1.182-12.748-1.412-20.693-.23-7.946-.272-17.351-.272-29.446 0-10.603.111-21.149.291-29.597.18-8.449.429-14.8.701-17.014.546-4.429 1.473-14.578 2.06-22.553.858-11.624 1.565-20.18 2.19-26.363.626-6.184 1.171-9.997 1.707-12.137.552-2.2 1.011-6.25 1.02-9 .007-1.96.337-5.547.912-10.25s1.395-10.521 2.383-16.949c1.975-12.855 4.62-28.145 7.307-41.8 1.273-6.473 2.34-12.39 3.224-17.956a306.294 306.294 0 0 0 2.12-15.84c.535-5.063.908-9.977 1.14-14.943.231-4.967.321-9.987.29-15.262-.073-12.954-.562-31.968-1.138-47.914-.287-7.973-.597-15.18-.886-20.476-.29-5.297-.56-8.684-.768-9.022-.39-.632-1.33-9.349-2.088-19.369-.419-5.535-.97-10.874-1.576-15.437-.606-4.564-1.267-8.351-1.906-10.782-.774-2.942-1.332-6-1.743-9.793-.41-3.793-.674-8.323-.857-14.207-.14-4.472-.294-8.129-.514-11.263-.219-3.135-.502-5.749-.9-8.137a53.054 53.054 0 0 0-1.584-6.783c-.675-2.233-1.514-4.535-2.564-7.203l-2.909-7.385 1.514-9.615c.832-5.288 2.007-12.989 2.611-17.114.836-5.703 2.06-12.17 3.354-17.978 1.294-5.808 2.66-10.955 3.78-14.022 1.103-3.025 2.814-8.2 3.8-11.5.986-3.3 3.027-9.15 4.535-13a692.18 692.18 0 0 0 5.445-14.5c1.488-4.125 3.398-8.85 4.243-10.5.844-1.65 2.337-5.475 3.318-8.5a42.2 42.2 0 0 1 1.83-4.619c.675-1.45 1.362-2.693 1.896-3.38 1.07-1.376 2.525-3.85 3.237-5.5.408-.947 1.644-2.687 3.322-4.792 1.678-2.104 3.798-4.573 5.97-6.978 2.174-2.406 4.4-4.747 6.294-6.596 1.894-1.85 3.455-3.207 4.295-3.643 1.384-.718 5.936-4.288 10.115-7.933 3.954-3.449 8.06-6.644 11.658-9.127 1.799-1.241 3.471-2.305 4.932-3.133 1.46-.828 2.71-1.42 3.668-1.72 1.226-.385 6.6-3.176 11.943-6.202 6.078-3.442 10.48-5.806 14.701-7.799 4.222-1.992 8.265-3.614 13.627-5.572 5.01-1.83 13.054-4.271 20.824-6.412 7.771-2.14 15.267-3.98 19.176-4.607 3.025-.486 9.568-1.568 14.54-2.405 3.638-.612 8.999-1.255 15.341-1.877 6.342-.621 13.666-1.22 21.232-1.748a944.28 944.28 0 0 1 22.688-1.31c7.311-.33 14.123-.535 19.7-.565 3.574-.018 7.668-.15 11.384-.35 3.716-.198 7.053-.464 9.115-.747 2.666-.367 8.442-.754 16.276-1.13 7.833-.375 17.726-.739 28.627-1.062 21.8-.646 47.634-1.124 69.097-1.185z" style="isolation:auto;mix-blend-mode:normal" color="#000" overflow="visible" fill="url(#b)" transform="translate(-217.117 -41.285)"/><path d="M532.352 634.322c-3.171-.004-5.442.223-7.643.682-10.343 2.155-15.86 7.612-16.59 16.41l-.45 5.426-4.048.543c-7.826 1.05-12.901 6.852-13.49 15.426-.434 6.308-.72 5.61 11.236 27.263 9.424 17.067 16.13 28.243 19.45 32.408 1.711 2.15 4.504 6.65 6.204 10 1.7 3.351 5.54 9.817 8.534 14.368 2.994 4.55 6.91 11.076 8.7 14.5 1.792 3.424 4.514 8.115 6.05 10.425 1.536 2.31 2.636 4.573 2.443 5.03-.905 2.144-17.998 17.426-23.184 20.726-7.178 4.569-21.195 9.541-26.914 9.55-10.317.013-17.787 4.93-19.9 13.103-2.437 9.423 2.856 18.382 12.385 20.96 5.062 1.37 19.366.465 24.693-1.562 1.964-.747 7.17-2.694 11.57-4.326 12.189-4.52 22.805-11.35 33.866-21.783 5.479-5.169 10.3-9.399 10.715-9.399.413 0 2.252 1.91 4.085 4.242 1.834 2.333 6.058 7.223 9.387 10.866 7.782 8.514 29.677 37.686 44.426 59.193 6.337 9.24 12.792 18.582 14.346 20.762 3.857 5.412 10.939 11.195 15.443 12.611 4.807 1.511 4.997 1.516 9.732.229 7.609-2.07 12.5-8.639 12.5-16.788 0-6.913-1.12-9.262-7.505-15.751-3.058-3.107-10.784-13.344-17.17-22.75-14.44-21.267-36.872-51.31-43.766-58.614-2.855-3.025-8.443-9.433-12.418-14.24l-7.225-8.74 2.541-3.742c1.399-2.058 2.543-4.098 2.543-4.534 0-.435 1.599-3.115 3.553-5.957 5.904-8.582 19.287-37.166 20.865-44.562 3.064-14.358 3.564-17.089 5.172-28.242 2.17-15.048 1.674-29.903-1.185-35.489-3.561-6.957-13.05-11.805-31.405-16.046a343.133 343.133 0 0 1-11-2.778c-22.812-6.244-29.447-7.571-43.5-8.709-5.803-.47-9.875-.706-13.046-.71zm5.353 35.006c8.466.3 20.106 1.95 27.525 4.108 8.964 2.606 19.163 5.211 27.668 7.066l5.5 1.2-.175 4.435c-.097 2.44-.688 7.585-1.31 11.435-2.866 17.694-4.39 23.432-8.6 32.32-2.428 5.126-4.415 9.547-4.415 9.825 0 .278-1.852 3.623-4.115 7.431-2.262 3.81-4.231 6.924-4.375 6.924-.61 0-16.923-26.48-19.125-31.045-1.326-2.748-4.696-8.025-7.49-11.726-2.794-3.701-9.251-14.466-14.348-23.924l-9.265-17.195 5.392-.674c1.843-.23 4.311-.28 7.133-.18zM359.838 145.568a16.028 16.028 0 0 0-4.19.553c-4.59 1.216-9.09 4.847-11.34 9.152-2.027 3.881-1.78 11.683.489 15.403 4.018 6.588 13.415 13.135 34.146 23.789 5.8 2.98 14.35 7.925 19 10.988 17.94 11.817 28.954 19.78 28.948 20.926-.004.657-.928 2.543-2.053 4.193-1.126 1.65-3.657 6.15-5.625 10-1.968 3.85-4.798 8.8-6.29 11-1.49 2.2-6.17 11.072-10.396 19.713l-7.683 15.711-8.194-5.201c-4.506-2.861-14.056-9.822-21.222-15.467-15.007-11.821-20.35-14.175-27.723-12.223-7.734 2.049-12.807 8.571-12.807 16.467 0 8.181 2.067 10.512 24.313 27.412 5.947 4.519 14.618 10.669 19.268 13.668l8.453 5.453-1.473 2.852c-.81 1.568-3.144 5.038-5.186 7.713-2.041 2.675-9.78 14.097-17.197 25.383-18.676 28.422-18.792 28.59-26.99 39.465-4.021 5.334-9.623 13.154-12.447 17.377-2.825 4.222-7.184 10.2-9.688 13.283-5.645 6.95-16.08 21.399-17.935 24.834-.761 1.408-3.34 4.872-5.733 7.699-5.035 5.949-6.385 8.985-6.385 14.361 0 7.131 3.54 12.94 9.5 15.588 3.91 1.738 10.724 1.764 14.811.057 3.8-1.588 11.477-9.831 16.436-17.645 1.92-3.025 7.85-11.35 13.177-18.5 9.054-12.15 25.342-34.644 36.371-50.226 2.637-3.726 11.187-16.364 19-28.086a22202.893 22202.893 0 0 1 17.205-25.787c1.65-2.461 5.7-7.883 9-12.05 6.678-8.429 10.458-14.227 10.483-16.075.02-1.496 4.335-11.04 11.758-26.008l5.572-11.235 4.158 3.735c9.902 8.89 21.844 18.813 28.385 23.586 3.879 2.83 13.935 10.56 22.348 17.176 19.228 15.12 26.64 20.52 39.736 28.959 5.741 3.699 16.541 11.09 24 16.425 7.459 5.336 17.047 12.053 21.31 14.926 4.264 2.873 11.689 8.658 16.5 12.856 4.812 4.197 11.675 9.533 15.25 11.855 6.514 4.232 40 37.039 40 39.19 0 2.005 5.183 7.313 9.086 9.304 5.352 2.73 12.673 2.593 16.993-.318 7.08-4.772 10.142-12.665 8.025-20.688-1.51-5.727-6.928-14.01-11.209-17.138-1.807-1.32-10.51-9.568-19.34-18.329-9.157-9.085-18.987-17.826-22.879-20.345-3.753-2.43-10.053-7.327-14-10.883-3.947-3.556-11.226-9.23-16.176-12.61-4.95-3.38-15.178-10.559-22.728-15.953-7.55-5.394-19.026-13.236-25.5-17.427-12.719-8.233-34.64-24.32-34.006-24.953.214-.215 7.465-2.194 16.113-4.4 8.649-2.207 17.388-4.858 19.422-5.891 2.034-1.034 6.489-2.591 9.899-3.461 3.41-.87 9.71-3.348 14-5.508 4.29-2.16 8.925-4.263 10.3-4.672 5.254-1.564 14.586-6.644 17.635-9.6 8.128-7.877 5.644-21.982-4.836-27.457-3.486-1.821-11.127-1.807-15.148.028-35.618 16.255-58.99 24.096-79.15 26.556-11.781 1.438-16.045 2.776-19.686 6.178l-3 2.8-10.352-9.626c-5.693-5.295-11.681-11.279-13.304-13.299l-2.952-3.672 1.856-3.94c4.856-10.31 5.988-25.568 2.412-32.484-4.53-8.76-38.766-33.836-63.975-46.855-11.375-5.875-14.753-7.845-22.513-13.135-5.44-3.707-9.83-5.451-14.047-5.467zm336.111 160.678c-10.406-.588-18.86 2.646-40.05 15.324-5.776 3.455-13.785 8.164-17.797 10.463-13.155 7.538-17.204 12.37-17.204 20.53 0 7.92 4.52 14.217 11.914 16.605 1.423.46 4.586.623 7.032.363 4.397-.468 5.693-1.155 33.054-17.53 13.594-8.134 19.342-10.858 25.278-11.97 5.666-1.061 8.95-3.044 12.16-7.344 2.945-3.944 2.945-15.285 0-19.23-3.905-5.23-7.03-6.795-14.387-7.21zM528.961 458.381c-4.588.092-9.325 1.956-13.203 5.834-4.826 4.826-7.469 12.994-5.965 18.44.911 3.299.217 6.095-6.951 28.029-4.38 13.4-8.918 26.732-10.086 29.627-5.755 14.264-7.983 23.218-8.526 34.261-.51 10.4-.41 11.19 1.838 14.477 3.799 5.553 8.272 8.023 14.528 8.023 12.243 0 19.276-8.871 19.324-24.375.016-5.11.617-8.397 2.125-11.625 1.156-2.475 5.62-14.784 9.918-27.355 4.299-12.571 7.971-23.013 8.162-23.203.19-.19 2.579.289 5.309 1.066 6.636 1.89 24.914 4.491 31.593 4.496 13.835.01 44.495 7.322 60.877 14.518 3.572 1.568 6.637 2.95 6.813 3.068.175.119-.592 2.216-1.705 4.66-5.168 11.344-11.603 30.547-14.662 43.75-4.248 18.332-4.704 32.908-1.338 42.873 3.304 9.785 10.603 17.009 23.355 23.114 5.57 2.666 11.907 5.18 14.08 5.587 2.174.408 5.526 1.402 7.451 2.21 1.925.807 6.875 2.04 11 2.74 21.158 3.587 32.013-.777 38.983-15.672 4.418-9.442 5.98-18.277 5.99-33.852.007-12.056-.241-14.036-2.326-18.513-1.284-2.758-2.893-6.707-3.576-8.776-1.511-4.578-5.33-9.275-9.14-11.246-1.558-.805-5.262-1.465-8.233-1.465-6.258 0-10.737 2.475-14.522 8.024-2.057 3.016-2.308 4.337-1.908 9.976.28 3.96 1.539 9.04 3.219 13 2.442 5.756 2.688 7.314 2.16 13.604-.328 3.906-.88 7.844-1.229 8.75-.834 2.175-3.76 2.078-10.677-.354-3.13-1.1-6.489-2.01-7.465-2.021-2.59-.032-10.418-3.767-13.026-6.215-2.974-2.793-2.91-6.837.33-20.994 3.664-16.004 12.402-40.262 18.792-52.168 3.336-6.216 3.651-15.698.712-21.39-2.234-4.33-8.037-10.01-13.244-12.962-6.962-3.948-28.555-13.25-30.76-13.25-1.216 0-3.087-.467-4.156-1.039-2.817-1.507-24.08-6.938-33.424-8.535-4.4-.752-12.05-1.62-17-1.93-9.853-.615-22.295-2.23-27-3.504a147.573 147.573 0 0 0-5.628-1.39c-2.124-.468-2.85-1.451-3.776-5.131-2.153-8.552-9.386-13.316-17.033-13.162zm-184.982 8.197c-5.049-.232-9.16 1.374-12.68 4.895-7.853 7.853-6.281 20.685 3.31 27.023 6.74 4.454 16.163 5.773 46.79 6.55 15.4.392 28.828 1.071 29.84 1.51 1.357.59 1.692 1.484 1.279 3.409-.309 1.435-1.042 5.757-1.63 9.607-.587 3.85-1.533 9.25-2.103 12-.57 2.75-1.294 9.388-1.607 14.75-.656 11.212-.263 10.918-10.424 7.801-3.496-1.072-10.068-2.422-14.606-3-4.537-.578-11.962-1.515-16.5-2.084-4.537-.569-14.937-2.184-23.109-3.59-10.979-1.889-17.423-2.468-24.68-2.217-10.541.366-13.046 1.395-17.314 7.112-2.705 3.623-3.328 12.161-1.252 17.13 2.84 6.796 2.116 19.703-2.344 41.846-3.925 19.487-5.902 37.226-4.687 42.067.35 1.392 1.815 3.932 3.256 5.644 4.604 5.472 7.576 6.405 22.88 7.172 18.794.942 47.022 3.548 52.168 4.817 2.293.564 8.42 1.664 13.618 2.445 5.197.78 10.861 2.148 12.584 3.039 2.723 1.408 3.13 2.146 3.13 5.652 0 2.218-.431 7.044-.959 10.725-.527 3.68-1.63 11.416-2.449 17.191-.82 5.775-1.772 15.45-2.119 21.5-.346 6.05-1.252 14.15-2.01 18-.758 3.85-2.085 11.275-2.95 16.5-1.336 8.06-4.677 23.217-7.31 33.153l-.703 2.654-4.525-2.205c-2.488-1.212-6.538-3.002-9-3.977-2.461-.974-8.525-4.125-13.475-7.004-4.95-2.878-10.24-5.85-11.757-6.601-1.517-.752-8.008-6.017-14.424-11.701-12.431-11.014-16.471-13.067-23.229-11.815-8.642 1.602-14.09 8.285-14.09 17.285 0 5.921 3.912 12.432 10.832 18.028 2.507 2.026 6.831 5.747 9.612 8.27 5.435 4.93 13.84 10.913 15.332 10.913.503 0 3.782 1.854 7.287 4.12 6.4 4.137 18.211 10.218 22.264 11.462 1.195.367 8.473 3.835 16.173 7.705 7.7 3.87 15.575 7.382 17.5 7.803 8.434 1.846 18.673-2.408 22.194-9.219 1.225-2.37 2.372-8.268 3.304-17 .786-7.354 1.86-15.396 2.39-17.87l3.946-18.5c3.285-15.393 5.536-29.686 7.088-45 1.253-12.355 3.017-27.212 4.096-34.5.448-3.026.852-13.052.898-22.282.096-19.033-.527-21.604-6.398-26.443-6.7-5.523-22.014-12.063-31.395-13.409-3.642-.522-10.448-1.665-15.123-2.539-9.027-1.687-14.697-2.336-38.294-4.377-11.628-1.005-14.684-1.566-14.278-2.625 2.118-5.52 6.572-32.608 6.572-39.972v-8.617l4.25.607c2.338.334 11.45 1.546 20.25 2.693s18.925 2.71 22.5 3.473c3.575.763 9.82 2.103 13.877 2.979 7.233 1.56 10.089 2.655 17.123 6.564 5.18 2.878 15.575 2.709 20.079-.326 4.132-2.785 7.921-8.216 7.921-11.354 0-1.282.968-5.277 2.15-8.879 2.099-6.39 2.109-6.687.417-12.275-2.486-8.209-1.938-16.312 3.113-45.943 3.241-19.017.347-32.732-8.1-38.381-9.037-6.045-20.464-7.895-48.763-7.895-19.19 0-29.711-.951-40.363-3.652-1.904-.483-3.69-.765-5.373-.842z" fill="url(#d)" transform="translate(-217.117 -41.285)"/></svg>