<svg xmlns:osb="http://www.openswatchbook.org/uri/2009/osb" xmlns="http://www.w3.org/2000/svg" height="937.922" width="569.608"><defs><linearGradient osb:paint="solid" id="c"><stop offset="0" stop-color="#fff"/></linearGradient><linearGradient osb:paint="solid" id="b"><stop offset="0"/></linearGradient><linearGradient osb:paint="solid" id="a"><stop offset="0" stop-color="#162d50"/></linearGradient><linearGradient osb:paint="solid" id="d"><stop offset="0" stop-color="#d40000"/></linearGradient></defs><path d="M598.752 48.334c-2.437-.009-5.158.077-8.701.2-8.013.277-37.519.934-65.569 1.458-14.976.28-28.242.634-38.13.998-9.89.365-16.401.74-17.87 1.067-2.75.61-9.275 1.565-14.5 2.12-5.225.557-12.602 1.693-16.394 2.526-1.896.416-5.62.958-10.092 1.494a397.18 397.18 0 0 1-14.58 1.463c-6.57.533-11.526 1.058-15.562 1.68-4.037.621-7.153 1.34-10.045 2.264-4.305 1.374-8.568 2.504-9.475 2.511-.596.005-3.435.828-7.533 2.135-4.099 1.307-9.457 3.096-15.09 5.03-11.266 3.866-23.633 8.31-29.229 10.63-5.443 2.257-10.066 4.29-14.189 6.299-4.123 2.009-7.746 3.994-11.19 6.156-3.443 2.163-6.707 4.503-10.11 7.22-3.405 2.72-6.949 5.815-10.954 9.491-3.49 3.204-6.351 5.914-8.777 8.375-2.426 2.461-4.417 4.672-6.166 6.881a62.22 62.22 0 0 0-4.721 6.861c-1.462 2.447-2.877 5.134-4.44 8.309-1.858 3.776-3.386 7.148-4.64 10.353-1.254 3.205-2.234 6.244-3.002 9.354-.768 3.11-1.322 6.289-1.72 9.78-.4 3.49-.643 7.29-.79 11.638-.121 3.595-.178 6.61-.137 9.312.042 2.703.18 5.093.444 7.442s.656 4.655 1.205 7.19c.549 2.534 1.255 5.297 2.148 8.556.566 2.062 1.144 4.837 1.621 7.646.478 2.81.854 5.654 1.012 7.854.317 4.4.851 8.675 1.188 9.5.336.825.636 7.35.666 14.5.014 3.575.225 8.176.55 12.707.326 4.531.767 8.993 1.247 12.293a519.032 519.032 0 0 1 3.222 27.143 553.503 553.503 0 0 1 1.858 28.2c.396 9.69.572 19.727.535 30.28-.037 10.553-.287 21.621-.744 33.377a704.275 704.275 0 0 1-1.05 20.08 469.355 469.355 0 0 1-1.497 17.57c-.576 5.46-1.23 10.532-1.965 15.246-.735 4.715-1.552 9.072-2.453 13.104-.553 2.475-1.234 6.581-1.887 11.203a338.097 338.097 0 0 0-1.713 14.297c-1.494 15.529-2.242 22.443-4.658 43-.55 4.675-2.276 14.35-3.834 21.5-1.664 7.636-2.95 13.867-3.945 19.86-.996 5.991-1.702 11.745-2.203 18.421-.502 6.677-.802 14.277-.985 23.967-.183 9.69-.25 21.47-.289 36.504l-.137 52.248 2.75 16.34c1.513 8.986 2.74 17.986 2.729 20-.01 1.847.468 6.878 1.283 13.781.815 6.903 1.965 15.679 3.295 25.016.794 5.575 1.458 11.65 1.475 13.5.016 1.85 1.37 9.438 3.007 16.863a3222.873 3222.873 0 0 1 5.399 25c.874 4.152 1.876 8.025 3.088 11.799a101.464 101.464 0 0 0 4.347 11.205c1.716 3.758 3.724 7.6 6.108 11.705 2.384 4.105 5.144 8.475 8.363 13.29 3.523 5.272 6.076 8.919 8.612 12.155 2.535 3.237 5.054 6.063 8.507 9.696 2.211 2.325 4.368 4.443 6.551 6.384a72.893 72.893 0 0 0 6.701 5.32 65.049 65.049 0 0 0 7.326 4.432c2.598 1.35 5.378 2.58 8.418 3.721 3.041 1.142 6.344 2.194 9.985 3.187 3.641.994 7.62 1.927 12.02 2.83 4.398.904 9.215 1.778 14.529 2.65 5.313.874 11.122 1.746 17.507 2.647 11.732 1.657 21.374 3.107 30.45 4.602 9.075 1.495 17.584 3.035 27.05 4.871 4.916.953 8.898 1.676 12.834 2.188 3.937.511 7.828.813 12.561.925 4.733.113 10.308.036 17.613-.209 7.305-.244 16.34-.657 27.992-1.216 8.57-.412 15.789-.802 22.18-1.223 6.391-.421 11.955-.874 17.215-1.412a344.067 344.067 0 0 0 15.394-1.926c5.177-.763 10.572-1.665 16.711-2.76 5.454-.972 10.137-1.858 14.442-2.758a244.65 244.65 0 0 0 12.166-2.847 259.284 259.284 0 0 0 12.238-3.551c4.352-1.37 9.107-2.96 14.654-4.873 5.678-1.957 10.982-3.898 15.956-5.854 4.973-1.955 9.617-3.924 13.976-5.939 4.36-2.015 8.434-4.074 12.268-6.209a140.862 140.862 0 0 0 10.826-6.66c3.398-2.316 6.599-4.736 9.65-7.293a119.57 119.57 0 0 0 8.746-8.11c2.794-2.859 5.48-5.885 8.106-9.107a173.625 173.625 0 0 0 7.734-10.287c1.618-2.316 3.069-4.543 4.373-6.785a64.469 64.469 0 0 0 3.49-6.881 64.023 64.023 0 0 0 2.725-7.621c.793-2.735 1.477-5.7 2.072-9 .596-3.3 1.103-6.937 1.54-11.018.436-4.08.801-8.604 1.117-13.677.63-10.147 1.06-22.492 1.439-37.891.271-11 .634-21.927 1-30.672.366-8.745.737-15.306 1.021-17.574.285-2.268.597-8.295.872-16.18.274-7.884.51-17.625.642-27.32.263-19.39.93-41.104 1.48-48.254.828-10.731 2.29-25.819 3.878-40.555 1.587-14.736 3.301-29.12 4.634-38.445.865-6.05 1.987-17.75 2.494-26 .585-9.503 1.483-20.84 2.39-30.695.905-9.856 1.819-18.23 2.437-21.805.513-2.968 1.148-9.082 1.865-17.834.717-8.752 1.516-20.143 2.353-33.666.938-15.13 1.883-28.802 2.797-40.48.914-11.679 1.796-21.364 2.604-28.52.868-7.7 2.003-18.275 2.521-23.5.294-2.958.514-9.9.66-19.406.147-9.507.22-21.58.22-34.803-.001-26.445-.294-57.487-.88-81.791-.3-12.387-.684-22.922-1.213-32.053-.528-9.13-1.2-16.856-2.074-23.623a179.234 179.234 0 0 0-1.469-9.488 132.318 132.318 0 0 0-1.812-8.385c-.667-2.649-1.4-5.17-2.203-7.619a113.381 113.381 0 0 0-2.633-7.186c-.989-2.445-1.983-4.657-3.033-6.707a55.969 55.969 0 0 0-3.364-5.736 53.501 53.501 0 0 0-3.982-5.2c-1.464-1.692-3.08-3.367-4.896-5.099-1.644-1.566-3.027-2.837-4.414-3.98a43.714 43.714 0 0 0-4.438-3.219c-3.318-2.115-7.708-4.394-15.283-8.186-3.119-1.56-5.56-2.763-7.754-3.75-2.194-.986-4.14-1.757-6.268-2.449s-4.437-1.305-7.359-1.982c-2.922-.677-6.457-1.418-11.033-2.36-10.602-2.182-22.203-4.23-25.778-4.552-3.575-.322-16.819-2.597-29.431-5.055-8.366-1.63-13.738-2.665-17.932-3.295-4.194-.63-7.211-.855-10.867-.869z" style="isolation:auto;mix-blend-mode:normal" color="#000" overflow="visible" fill="url(#c)" transform="translate(-215.195 -31.04)"/><path d="M613.43 31.04l-68.975 1.02c-18.968.281-37.055.64-50.916.993-13.86.352-23.494.698-25.557.953-15.671 1.934-24.87 3.238-36 5.101a394.576 394.576 0 0 1-20.544 2.875c-6.387.717-11.897 1.145-15.292 1.145-1.362 0-3.328.226-5.398.588s-4.243.86-6.021 1.41c-3.557 1.099-10.692 3.08-15.856 4.404-4.177 1.071-12.41 3.725-22.021 7.04-9.612 3.314-20.603 7.29-30.3 11.003a134.243 134.243 0 0 0-9.341 4.02 168.814 168.814 0 0 0-9.543 4.902c-3.14 1.74-6.2 3.564-9.07 5.412-2.87 1.849-5.55 3.72-7.928 5.553-2.975 2.293-6.27 5.044-9.611 7.99a285.73 285.73 0 0 0-9.897 9.16c-3.167 3.073-6.11 6.078-8.56 8.752-2.45 2.674-4.406 5.017-5.596 6.766-2.285 3.357-4.465 7.097-6.488 11.084a131.369 131.369 0 0 0-5.547 12.572 137.099 137.099 0 0 0-4.303 13.258c-1.193 4.445-2.127 8.87-2.752 13.143-.42 2.87-.67 6.563-.76 10.83-.09 4.266-.02 9.107.198 14.27a338.08 338.08 0 0 0 1.091 16.204 338.258 338.258 0 0 0 1.92 16.639c1.743 12.315 2.635 18.642 3.217 23.352.582 4.71.855 7.801 1.358 13.648.496 5.775 1.414 12.75 2.039 15.5.625 2.75 1.789 11.975 2.587 20.5 2.2 23.474 3.356 36.14 3.881 44.793.263 4.326.369 7.65.368 10.818-.001 3.168-.11 6.181-.272 9.889-.36 8.25-1.056 24.9-1.545 37a578.378 578.378 0 0 1-.924 17.033 385.314 385.314 0 0 1-1.31 14.865 247.5 247.5 0 0 1-1.707 12.766c-.636 3.913-1.339 7.488-2.11 10.734-.534 2.25-1.173 5.836-1.832 10.075a500.309 500.309 0 0 0-1.949 13.992 475.757 475.757 0 0 0-1.549 13.808c-.392 4.117-.63 7.518-.63 9.522-.001 2.16-.16 4.49-.731 8.953-.57 4.463-1.55 11.06-3.191 21.752-.549 3.575-2.623 14.375-4.61 24-.824 3.992-1.467 7.227-1.984 10.21a130.155 130.155 0 0 0-1.227 8.71c-.635 5.981-.98 12.99-1.465 25.08-.864 21.536-1.387 42.86-1.537 60.389-.075 8.764-.056 16.58.059 22.998.115 6.418.327 11.437.64 14.613.624 6.325 1.999 18.7 3.055 27.5 1.057 8.8 2.634 22.3 3.506 30 1.637 14.462 3.099 26.3 4.44 35.916 1.34 9.616 2.56 17.01 3.718 22.584 1.314 6.325 3.485 16.738 4.824 23.14.844 4.035 1.72 7.683 2.702 11.124a107.01 107.01 0 0 0 3.326 9.879c1.26 3.206 2.693 6.385 4.373 9.718 1.68 3.333 3.604 6.82 5.846 10.639a235.771 235.771 0 0 0 9.765 15.26 217.163 217.163 0 0 0 10.445 13.836c3.535 4.3 7.094 8.252 10.582 11.746 3.49 3.493 6.909 6.528 10.168 8.992 2.085 1.575 4.403 3.117 6.854 4.578a95.243 95.243 0 0 0 7.652 4.092 90.11 90.11 0 0 0 7.846 3.316c2.581.945 5.096 1.712 7.441 2.254 3.85.89 11.5 2.69 17 3.998 5.5 1.31 12.7 2.66 16 3.004 3.3.344 10.918 1.48 16.926 2.526 6.009 1.044 12.759 1.923 15 1.953 1.12.014 4.951.575 10.22 1.466 5.27.891 11.98 2.112 18.854 3.45l25 4.863 22-.004c12.1-.003 28.975-.38 37.5-.838 27.272-1.463 40.922-2.196 50.844-3.129 4.961-.466 8.992-.983 13.326-1.666 4.334-.683 8.972-1.532 15.153-2.664 5.42-.992 10.8-2.091 16.12-3.289a402.562 402.562 0 0 0 15.755-3.88 384.488 384.488 0 0 0 15.25-4.423c4.983-1.558 9.86-3.2 14.607-4.914a316.11 316.11 0 0 0 13.826-5.355 270.94 270.94 0 0 0 12.908-5.746 222.934 222.934 0 0 0 11.852-6.09 175.787 175.787 0 0 0 10.66-6.383 105.16 105.16 0 0 0 7.613-5.475 136.67 136.67 0 0 0 7.61-6.463c2.516-2.293 5-4.714 7.422-7.226a171.671 171.671 0 0 0 7.045-7.774 165.741 165.741 0 0 0 6.476-8.095 144.707 144.707 0 0 0 5.725-8.2 113.733 113.733 0 0 0 4.783-8.081c1.416-2.65 2.644-5.244 3.652-7.745 1.554-3.853 2.797-7.46 3.819-11.64.51-2.09.966-4.323 1.377-6.803.41-2.48.777-5.205 1.111-8.28.667-6.147 1.203-13.69 1.693-23.445.491-9.755.938-21.723 1.43-36.726.614-18.7 1.554-41.2 2.09-50 .536-8.8 1.357-33.1 1.824-54 .37-16.504 1.096-32.973 1.932-45.64.418-6.335.863-11.717 1.304-15.68.442-3.964.879-6.507 1.282-7.159.272-.44 1.172-8.39 2-17.662.827-9.272 1.745-17.897 2.04-19.166.602-2.581 1.465-9.112 2.178-15.756.714-6.643 1.279-13.4 1.284-16.437.004-3.473.523-10.768 1.341-19.547a887.605 887.605 0 0 1 3.135-28.453c.805-6.325 1.715-15.775 2.022-21 .306-5.225.989-15.35 1.517-22.5.529-7.15 1.665-23.35 2.526-36 .86-12.65 2.213-28.85 3.007-36 1.128-10.158 1.978-17.865 2.61-24.57.632-6.705 1.048-12.408 1.306-18.559.259-6.151.36-12.749.366-21.244.006-8.496-.084-18.889-.21-32.627-.296-32.64-.812-62.526-1.435-85.496-.311-11.485-.65-21.24-1.002-28.748-.35-7.508-.714-12.766-1.076-15.256-.906-6.23-1.713-11.36-2.53-15.791-.816-4.43-1.642-8.16-2.59-11.588a89.298 89.298 0 0 0-3.31-9.773c-1.296-3.221-2.823-6.538-4.69-10.348a89.297 89.297 0 0 0-3.314-6.174 70.355 70.355 0 0 0-3.648-5.57 63.151 63.151 0 0 0-4.11-5.086 64.936 64.936 0 0 0-4.699-4.715 75.952 75.952 0 0 0-5.414-4.459 99.197 99.197 0 0 0-6.255-4.32c-4.481-2.86-9.61-5.702-15.555-8.684-6.728-3.374-10.997-5.404-14.76-6.826a56.269 56.269 0 0 0-5.51-1.77c-1.872-.5-3.862-.94-6.213-1.412-3.85-.774-11.38-2.314-16.736-3.424-5.356-1.109-13.906-2.496-19-3.084-5.094-.587-18.276-2.867-29.29-5.066l-20.026-3.998zm-14.678 17.294c3.656.014 6.673.24 10.867.87 4.194.63 9.566 1.664 17.932 3.294 12.612 2.458 25.856 4.733 29.431 5.055 3.575.321 15.176 2.37 25.778 4.552 4.576.942 8.11 1.683 11.033 2.36 2.922.677 5.231 1.29 7.36 1.982 2.127.692 4.073 1.463 6.267 2.45 2.193.986 4.635 2.189 7.754 3.75 7.575 3.79 11.965 6.07 15.283 8.185a43.714 43.714 0 0 1 4.438 3.219c1.387 1.143 2.77 2.414 4.414 3.98 1.816 1.732 3.432 3.407 4.896 5.1a53.501 53.501 0 0 1 3.982 5.2 55.969 55.969 0 0 1 3.364 5.735c1.05 2.05 2.044 4.262 3.033 6.707.955 2.361 1.83 4.737 2.633 7.186.803 2.449 1.536 4.97 2.203 7.62a132.318 132.318 0 0 1 1.812 8.384c.545 2.96 1.032 6.105 1.47 9.488.873 6.767 1.545 14.493 2.073 23.623.53 9.13.914 19.666 1.213 32.053.586 24.304.879 55.346.88 81.791 0 13.223-.073 25.296-.22 34.803-.146 9.507-.366 16.448-.66 19.406-.518 5.225-1.653 15.8-2.521 23.5-.807 7.156-1.69 16.841-2.604 28.52-.914 11.678-1.86 25.35-2.797 40.48-.837 13.523-1.636 24.914-2.353 33.666-.717 8.752-1.352 14.866-1.865 17.834-.618 3.576-1.532 11.95-2.438 21.805-.906 9.855-1.804 21.192-2.389 30.695-.507 8.25-1.629 19.95-2.494 26-1.333 9.325-3.047 23.71-4.634 38.445-1.588 14.736-3.05 29.824-3.877 40.555-.552 7.15-1.218 28.864-1.48 48.254-.132 9.695-.369 19.436-.643 27.32-.275 7.885-.587 13.912-.872 16.18-.284 2.268-.655 8.83-1.021 17.574-.366 8.745-.729 19.672-1 30.672-.38 15.399-.808 27.744-1.44 37.89-.315 5.074-.68 9.598-1.117 13.678-.436 4.08-.943 7.717-1.539 11.018-.595 3.3-1.279 6.265-2.072 9a64.023 64.023 0 0 1-2.725 7.621 64.469 64.469 0 0 1-3.49 6.88c-1.304 2.243-2.755 4.47-4.373 6.786a173.625 173.625 0 0 1-7.734 10.287 134.995 134.995 0 0 1-8.106 9.108 119.57 119.57 0 0 1-8.746 8.109 121.456 121.456 0 0 1-9.65 7.293 140.862 140.862 0 0 1-10.826 6.66c-3.834 2.135-7.909 4.194-12.268 6.209-4.36 2.015-9.003 3.984-13.976 5.94-4.974 1.955-10.278 3.896-15.956 5.853-5.547 1.912-10.302 3.503-14.654 4.873a259.284 259.284 0 0 1-12.238 3.55 244.65 244.65 0 0 1-12.166 2.848c-4.305.9-8.988 1.786-14.442 2.758-6.139 1.095-11.534 1.997-16.71 2.76a344.067 344.067 0 0 1-15.395 1.926c-5.26.538-10.824.99-17.215 1.412-6.391.421-13.61.811-22.18 1.223-11.652.559-20.687.972-27.992 1.216-7.305.245-12.88.322-17.613.21-4.733-.113-8.624-.415-12.56-.926-3.937-.512-7.919-1.235-12.835-2.188-9.466-1.836-17.975-3.376-27.05-4.871-9.076-1.495-18.718-2.945-30.45-4.602-6.385-.901-12.194-1.773-17.507-2.646-5.314-.873-10.131-1.747-14.53-2.65-4.398-.904-8.378-1.837-12.02-2.83-3.64-.994-6.943-2.046-9.984-3.188-3.04-1.142-5.82-2.372-8.418-3.72a65.049 65.049 0 0 1-7.326-4.432 72.893 72.893 0 0 1-6.7-5.32c-2.184-1.942-4.34-4.06-6.552-6.385-3.453-3.633-5.972-6.46-8.507-9.696-2.536-3.236-5.089-6.883-8.612-12.154-3.219-4.816-5.979-9.186-8.363-13.291-2.384-4.105-4.392-7.947-6.108-11.705a101.464 101.464 0 0 1-4.347-11.205c-1.212-3.774-2.214-7.647-3.088-11.799a3222.873 3222.873 0 0 0-5.399-25c-1.637-7.425-2.99-15.013-3.007-16.863-.017-1.85-.68-7.925-1.475-13.5-1.33-9.337-2.48-18.113-3.295-25.016-.815-6.903-1.294-11.934-1.283-13.781.011-2.014-1.216-11.014-2.729-20l-2.75-16.34.137-52.248c.04-15.034.106-26.814.29-36.504.182-9.69.482-17.29.984-23.967.501-6.676 1.207-12.43 2.203-18.422.995-5.992 2.28-12.223 3.945-19.859 1.558-7.15 3.285-16.825 3.834-21.5 2.416-20.557 3.164-27.471 4.658-43 .437-4.538 1.06-9.675 1.713-14.297s1.334-8.728 1.887-11.203c.901-4.032 1.718-8.389 2.453-13.104.735-4.714 1.389-9.787 1.965-15.246a469.355 469.355 0 0 0 1.498-17.57c.423-6.265.771-12.948 1.049-20.08.457-11.756.707-22.824.744-33.377.037-10.553-.139-20.59-.535-30.28a553.503 553.503 0 0 0-1.858-28.2 519.032 519.032 0 0 0-3.222-27.143c-.48-3.3-.92-7.762-1.247-12.293-.325-4.531-.536-9.132-.55-12.707-.03-7.15-.33-13.675-.666-14.5-.337-.825-.871-5.1-1.188-9.5-.158-2.2-.534-5.044-1.012-7.854-.477-2.809-1.055-5.584-1.62-7.646-.894-3.26-1.6-6.022-2.15-8.557-.548-2.534-.94-4.84-1.204-7.19-.265-2.348-.402-4.738-.444-7.44-.04-2.703.016-5.718.137-9.313.147-4.347.39-8.148.79-11.639.398-3.49.952-6.67 1.72-9.779.768-3.11 1.748-6.149 3.002-9.354 1.254-3.205 2.782-6.577 4.64-10.353 1.563-3.175 2.978-5.862 4.44-8.309a62.22 62.22 0 0 1 4.72-6.861c1.75-2.209 3.74-4.42 6.167-6.88 2.426-2.462 5.287-5.172 8.777-8.376 4.005-3.676 7.55-6.772 10.953-9.49 3.404-2.718 6.668-5.058 10.112-7.22 3.443-2.163 7.066-4.148 11.189-6.157 4.123-2.009 8.746-4.042 14.19-6.299 5.595-2.32 17.962-6.764 29.228-10.63 5.633-1.934 10.991-3.723 15.09-5.03 4.098-1.307 6.937-2.13 7.533-2.135.907-.007 5.17-1.137 9.475-2.511 2.892-.924 6.008-1.643 10.045-2.264 4.036-.622 8.993-1.147 15.562-1.68a397.18 397.18 0 0 0 14.58-1.463c4.472-.536 8.196-1.078 10.092-1.494 3.792-.833 11.17-1.97 16.394-2.525 5.225-.556 11.75-1.51 14.5-2.121 1.469-.327 7.98-.702 17.87-1.067 9.888-.364 23.154-.718 38.13-.998 28.05-.524 57.556-1.181 65.569-1.459 3.543-.122 6.264-.208 8.7-.199z" style="isolation:auto;mix-blend-mode:normal" color="#000" overflow="visible" fill="url(#b)" transform="translate(-215.195 -31.04)"/><path d="M365.006 578.896c-5.935 0-10.282 2.248-13.494 6.975-3.54 5.21-3.34 13.397.994 40.756 1.917 12.1 4.164 26.725 4.994 32.5 1.462 10.17 5.179 31.736 8.082 46.894 2.476 12.929 7.446 18.098 17.4 18.098 3.737 0 6.551-.64 8.776-1.996 3.046-1.857 5.05-1.996 28.724-1.996h25.452l-.489 2.75c-.268 1.512-1.16 8.086-1.982 14.607-.822 6.522-1.717 12.216-1.986 12.653-.637 1.03-18.59 2.135-40.014 2.46-9.34.143-26.88.613-38.98 1.046l-22 .787-.172-4.616c-.341-9.13-6.5-14.972-15.782-14.972-6.71 0-10.733 2.344-14.738 8.586-2.962 4.616-3.063 5.127-2.566 13.092.292 4.693.084 9.057-.479 10.064-1.39 2.485-1.241 10.767.246 13.645.682 1.32 2.016 3.298 2.965 4.398 1.082 1.254 2.173 5.358 2.922 11 .657 4.95 2.05 13.275 3.096 18.5 1.755 8.77 2.546 12.983 6.656 35.5.803 4.4 1.888 11.99 2.41 16.865 1.701 15.884 6.505 21.922 17.441 21.922 8.403 0 13.798-4.236 15.606-12.25.988-4.382-1.875-27.64-5.604-45.537-3.122-14.983-6.48-33.256-7.095-38.592l-.645-5.59 22.37-.658c12.302-.362 32.358-.845 44.566-1.074 12.208-.229 23.19-.732 24.404-1.117 2.165-.687 2.195-.575 1.53 5.666-.675 6.324-3.626 35.21-3.63 35.535 0 .093-3.04.865-6.752 1.715-3.712.849-9.9 2.637-13.75 3.972-3.85 1.336-10.375 2.968-14.5 3.627-12.502 1.998-18.23 7.344-18.23 17.016 0 5.912 2.253 10.264 6.975 13.473 5.785 3.931 15.143 3.368 32.255-1.94 14.655-4.546 27.032-7.533 31.237-7.537 2.382-.002 5.602-.818 7.297-1.852 4.873-2.971 27.146-8.96 37.466-10.074 5.225-.563 11.925-1.484 14.887-2.047 2.963-.562 7.41-1.023 9.883-1.023 5.026 0 10.028-2.578 13.049-6.725l1.906-2.615 3.135 8.42c7.274 19.533 11.953 24.92 21.642 24.92 5.74 0 10.23-2.36 13.891-7.3 3.117-4.208 2.792-12.653-.748-19.513-1.508-2.922-4.052-8.717-5.654-12.876-5.889-15.293-12.616-24.542-27.246-37.461l-7.756-6.85h3.967c8.754 0 35.464 4.135 44.746 6.926 14.748 4.435 23.504 6.925 26.433 7.52 2.36.478 2.713 1.135 3.395 6.294.528 3.998 2.284 63.631 1.97 66.936-.009.096-2.712-.46-6.007-1.235-12.215-2.873-18.568-1.315-23.883 5.86-2.897 3.91-2.915 13.475-.031 17.338 3.842 5.146 7.071 6.55 25.056 10.9 21.75 5.26 29.122 5.672 34.623 1.934 7.5-5.097 8.3-11.117 4.242-31.873-2.178-11.144-2.5-15.471-2.5-33.672 0-22.117-1.508-48.952-3.1-55.135-1.396-5.428-6.768-11.972-11.907-14.51-2.471-1.22-8.318-3.17-12.993-4.33-4.675-1.16-12.55-3.409-17.5-4.996-25.393-8.144-41.398-9.948-88.31-9.953l-36.313-.004.637-4.75c.35-2.613 1.051-7.195 1.56-10.184.51-2.988.926-6.99.926-8.892v-3.461l7.25.705c3.988.387 15.8 1.081 26.25 1.543 11.311.5 24.031 1.723 31.43 3.025 14.82 2.608 19.66 2.191 24.565-2.115 1.875-1.647 3.69-3.874 4.03-4.95.342-1.075 2.27-2.644 4.284-3.486 8.03-3.354 10.471-7.54 12.25-21.007.649-4.91 2.088-10.718 3.2-12.909 1.121-2.21 2.142-6.462 2.296-9.556.153-3.066 1.178-9.373 2.278-14.018 2.958-12.496 4.5-24.496 3.851-29.969-1.017-8.583-6.56-16.387-13.627-19.183-3.318-1.313-28.08-3.717-37.355-3.627-3.96.038-9.902-.408-13.202-.992-3.3-.584-10.275-1.357-15.5-1.717-5.225-.36-12.875-1.293-17-2.074-27.303-5.172-39.724-6.519-64-6.94-26.793-.465-37.057-1.102-48.5-3.011-8.376-1.398-9.242-1.77-12.5-5.375-4.494-4.973-7.205-6.288-12.976-6.288zm21.299 44.438c1.644.019 5.23.322 9.254.803 7.9.943 31.74 1.753 57.783 1.96 3.714.03 3.83.133 3.13 2.78-.4 1.512-1.012 6.26-1.359 10.547l-.63 7.795-24 .39c-13.2.215-27.376.854-31.5 1.422-4.126.569-7.957 1.05-8.516 1.067-1.007.03-5.953-25.834-5.104-26.684.061-.06.394-.086.942-.08zm101.15 7.791l3.014.488 9.013 1.461c3.3.535 10.275 1.257 15.5 1.604 5.225.347 11.505 1.062 13.956 1.59 2.45.527 9.875 1.16 16.5 1.406 6.624.245 13.957.7 16.294 1.012 4.638.616 4.927 1.259 3.342 7.44a258.21 258.21 0 0 0-1.513 6.251c-.455 2.03-1.221 2.75-2.93 2.75-1.273 0-2.521-.207-2.774-.459-.252-.252-5.839-.702-12.416-1-11.588-.525-56.673-4.463-57.238-5-.154-.146-.385-4.153-.514-8.904l-.234-8.639zm-47.771 48.822c1.657-.003 3.196.002 4.564.02 3.647.046 6.077.168 6.295.386.313.313.264 2.191-.107 4.172l-.676 3.602h-26.72c-14.698 0-27.023-.3-27.39-.666-1.446-1.446-.662-5.333 1.082-5.363.963-.017 4.9-.441 8.75-.942 5.194-.675 22.601-1.184 34.202-1.209zm46.982 1.9c3.278.05 10.566.555 18.816 1.337 11 1.042 25.175 2.126 31.5 2.408 19.44.866 20.028 1.098 18.37 7.285-.534 1.993-3.227 3.058-4.504 1.781-1.128-1.128-21.67-3.53-30.108-3.521-5.09.005-15.684-.54-23.539-1.213l-14.283-1.225.639-3.035c.35-1.67.926-3.337 1.28-3.705.09-.092.736-.127 1.829-.111zm3.955 98.28c16.855 0 18.363.14 16.926 1.578-6.577 6.577-4.625 20.723 3.396 24.608 2.906 1.407 2.821 1.445-5.755 2.714-4.788.709-13.43 1.893-19.206 2.631-5.775.739-12.307 1.99-14.515 2.78l-4.016 1.435 1.613-15.623c.888-8.593 1.939-16.636 2.334-17.873.713-2.226.914-2.25 19.223-2.25zM408.504 451.334c-9.438.783-15.139 7.434-14.256 16.635.246 2.562 2.515 12.743 5.043 22.623s4.4 18.161 4.158 18.402c-.24.241-22.156.486-48.7.545-43.971.097-48.553.261-51.487 1.857-8.088 4.4-10.858 15.472-5.75 22.989 5.03 7.403 3.621 7.21 53.97 7.404 24.75.095 48.831.21 53.512.256l8.51.082 3.38 10.976c1.86 6.038 4.417 12.499 5.68 14.358 6.517 9.59 22.911 8.578 27.795-1.715 2.263-4.768 2.028-10.501-.76-18.478l-2.384-6.823 29.635-.75c43.802-1.106 49.278-1.142 49.785-.322.253.41-1.41 5.13-3.7 10.486-3.516 8.23-4.096 10.53-3.738 14.846.495 5.966 3.264 10.399 8.004 12.816 4.583 2.338 13.404 1.725 17.537-1.218 3.682-2.622 7.835-10.885 13.662-27.176l4.116-11.5 36.982-.5c36.742-.497 37.006-.515 40.25-2.828 4.31-3.074 6.465-7.468 6.465-13.172 0-5.912-2.251-10.263-6.973-13.47l-3.722-2.53h-65.239l2.727-9.25c1.5-5.088 3.455-10.6 4.346-12.25 3.487-6.464 1.23-16.512-4.65-20.7-4.187-2.98-12.29-3.572-17.177-1.253-7.169 3.402-10.591 10.67-17.162 36.453-.91 3.575-1.989 6.873-2.396 7.328-.407.455-9.007.968-19.112 1.137-10.104.169-31.959.654-48.564 1.08l-30.19.773-.642-2.908c-.353-1.6-1.098-4.26-1.656-5.91-.559-1.65-2.975-10.818-5.367-20.373-2.757-11.008-5.253-18.737-6.813-21.094-3.341-5.05-8.493-7.375-15.12-6.826z" fill="url(#d)" transform="translate(-215.195 -31.04)"/><path d="M206.787 208.856c-10.345 0-15.418 5.94-16.421 19.231-1.53 20.26-6.673 41.978-13.243 55.92-4.496 9.543-2.015 19.446 5.883 23.474 4.523 2.307 13.404 1.724 17.432-1.144 3.156-2.247 5.001-5.467 10.75-18.75 5.352-12.368 10.142-36.265 11.27-56.22.618-10.964.572-11.315-2.014-15.223-3.292-4.975-7.626-7.288-13.657-7.288zM322.221 201.161c-5.624-.473-11.438 1.722-14.703 6.299-1.764 2.473-2.23 4.502-2.23 9.705 0 5.706.38 7.08 2.876 10.352 4.71 6.174 30.124 25.627 59.58 45.607 9.052 6.14 18.727 13.08 21.5 15.424 2.774 2.344 9.27 7.024 14.436 10.4 8.412 5.498 9.927 6.139 14.518 6.139 3.834 0 6.063-.635 8.847-2.527 4.864-3.305 6.742-7.145 6.742-13.776 0-7.31-2.496-10.76-13.166-18.197-4.734-3.3-11.246-8.071-14.47-10.604-3.225-2.532-11.714-8.518-18.864-13.302-20.072-13.431-40.943-29.055-55.74-41.725-2.647-2.266-5.952-3.511-9.326-3.795zM253.873 51.103c-3.285-.138-6.603.652-9.341 2.513-8.034 5.46-8.669 11.463-3.776 35.813 1.75 8.712 2.957 16.067 2.678 16.345-.279.28-5.826.932-12.326 1.452-6.5.519-23.746 2.98-38.32 5.468-32.685 5.58-47.472 7.374-60.848 7.385-11.766.01-15.83 1.344-19.422 6.381-1.758 2.464-2.23 4.505-2.23 9.627 0 7.495 2.226 11.631 7.718 14.338 2.527 1.245 6.387 1.62 16.781 1.63 15.941.017 30.356-1.565 58.118-6.376 21.975-3.809 39.382-6.137 52.882-7.073 4.675-.324 14.125-1.046 21-1.607 14.592-1.19 75.289-1.5 92-.47 15.017.925 21.382 2.2 25.727 5.148 3.538 2.4 6.082 2.935 11.758 2.467 10.973-.905 16.768-13.296 11.572-24.74-5.699-12.553-24.567-15.746-93.307-15.792l-38.75-.025v-3.303c0-1.816-.645-6.316-1.435-10-.79-3.683-2.412-11.646-3.604-17.695-1.191-6.05-2.8-12.223-3.574-13.72-2.444-4.728-7.826-7.537-13.3-7.766z"/></svg>