<svg xmlns:osb="http://www.openswatchbook.org/uri/2009/osb" xmlns="http://www.w3.org/2000/svg" height="900.302" width="598.315"><defs><linearGradient osb:paint="solid" id="c"><stop offset="0" stop-color="#fff"/></linearGradient><linearGradient osb:paint="solid" id="b"><stop offset="0"/></linearGradient><linearGradient osb:paint="solid" id="a"><stop offset="0" stop-color="#162d50"/></linearGradient><linearGradient osb:paint="solid" id="d"><stop offset="0" stop-color="#d40000"/></linearGradient></defs><path d="M608.398 67.373c-17.96-.005-35.844.26-51.75.797-7.953.269-15.412.607-22.138 1.012-6.727.404-12.721.877-17.746 1.418-4.95.532-14.175 1.246-20.5 1.586-6.202.332-12.8.979-19.567 1.908a287.038 287.038 0 0 0-20.572 3.601c-4.75 1.01-11.5 2.117-15 2.457-3.5.34-10.411 1.252-15.361 2.028-4.95.775-17.107 2.337-27.016 3.47-8.05.921-15.288 1.959-22.064 3.213-6.776 1.255-13.09 2.725-19.29 4.514-6.2 1.79-12.287 3.898-18.609 6.424-6.322 2.526-12.88 5.47-20.021 8.933a350.112 350.112 0 0 0-15.852 8.192 296.19 296.19 0 0 0-14.28 8.357c-4.405 2.757-8.412 5.454-11.884 8.01-3.472 2.556-6.41 4.968-8.676 7.152a37.684 37.684 0 0 0-4.707 5.543 45.428 45.428 0 0 0-3.838 6.657 54.022 54.022 0 0 0-2.894 7.609 62.492 62.492 0 0 0-1.875 8.404c-.8 5.225-2.136 11.975-2.967 15-.555 2.02-1.057 4.276-1.508 6.875-.45 2.6-.85 5.542-1.205 8.932-.709 6.78-1.23 15.35-1.594 26.558-.362 11.208-.567 25.053-.638 42.377-.072 17.325-.011 38.129.154 63.258a768.968 768.968 0 0 1-.162 22.037c-.148 6.344-.377 11.176-.652 12.963-2.037 13.203-3.129 19.672-4.497 26.649-.784 4.001-1.523 8.516-2.203 13.422-.68 4.905-1.299 10.202-1.85 15.77a542.589 542.589 0 0 0-1.427 17.386 599.832 599.832 0 0 0-.932 18.273c-.328 9.208-.706 16.494-1.181 22.434-.475 5.94-1.047 10.532-1.76 14.351-.61 3.265-1.168 7.032-1.662 11.15-.494 4.12-.924 8.591-1.28 13.266a399.424 399.424 0 0 0-.828 14.487 399.91 399.91 0 0 0-.312 14.812 282.661 282.661 0 0 1-.3 12.15c-.179 3.807-.42 7.063-.68 8.85-.523 3.575-1.202 13.7-1.51 22.5-.341 9.733-.908 18.765-1.623 26.285-.358 3.76-.754 7.142-1.176 10.045-.423 2.903-.872 5.327-1.34 7.17-.736 2.9-1.391 6.398-1.95 10.297-.557 3.899-1.017 8.198-1.366 12.707-.35 4.509-.588 9.227-.7 13.957a244.21 244.21 0 0 0 .06 14.04c.416 12.059.789 21.833 1.177 29.986.388 8.152.791 14.685 1.265 20.257.474 5.573 1.019 10.187 1.692 14.506.672 4.32 1.472 8.344 2.457 12.737.506 2.26 1.614 10.718 2.463 18.794.736 7.013 1.403 12.888 2.072 18.012.669 5.125 1.34 9.498 2.084 13.506a155.152 155.152 0 0 0 2.525 11.314c.963 3.663 2.072 7.344 3.397 11.432a125.933 125.933 0 0 0 3.066 8.45 92.973 92.973 0 0 0 3.299 7.28c1.12 2.196 2.25 4.14 3.363 5.78 1.113 1.64 2.208 2.973 3.258 3.945 1.484 1.375 7.712 8.096 13.838 14.934 2.64 2.946 5.196 5.63 7.768 8.094 2.571 2.463 5.159 4.706 7.859 6.771a79.603 79.603 0 0 0 8.537 5.701c3.025 1.75 6.261 3.367 9.807 4.887 3.545 1.52 7.4 2.946 11.662 4.32 4.262 1.374 8.932 2.696 14.107 4.008 5.175 1.312 10.855 2.614 17.139 3.947 6.284 1.334 13.17 2.7 20.76 4.139 11.825 2.244 25.325 4.522 30 5.062 4.675.54 15.25 2.195 23.5 3.676 8.25 1.481 18.825 3.04 23.5 3.465 2.337.213 14.025.385 30.972.492 16.947.107 39.153.149 62.528.098 42.176-.092 63.477-.144 77.584-.508 7.053-.182 12.308-.44 17.474-.822 5.166-.382 10.243-.887 16.942-1.557 14.866-1.487 27.694-2.898 38.761-4.28 11.068-1.38 20.376-2.732 28.203-4.105 7.828-1.372 14.176-2.766 19.323-4.228 2.573-.731 4.847-1.48 6.855-2.252 2.008-.772 3.751-1.568 5.264-2.393a40.21 40.21 0 0 0 4.715-3.039 44.117 44.117 0 0 0 4.273-3.623c1.307-1.262 2.474-2.557 3.434-3.82s1.712-2.495 2.191-3.63c1.38-3.27 2.966-8.344 4.485-14.169a245.18 245.18 0 0 0 4.078-18.668c.527-2.984.924-5.285 1.22-9.785.297-4.5.493-11.199.621-22.98.257-23.564.24-67.456.2-154.735-.025-54.752.054-100.648.22-134.533.167-33.885.42-55.76.748-62.467.578-11.825 1.356-40.175 1.729-63 .186-11.412.439-21.915.695-29.642.257-7.728.518-12.679.721-12.99.203-.312.555-3.294.959-7.844.404-4.551.858-10.671 1.268-17.264.819-13.185 1.741-24.633 2.05-25.438.23-.596.495-3.301.782-7.697.286-4.396.593-10.483.902-17.842.617-14.717 1.244-34.524 1.74-56.076.255-11.08.624-22.471 1.012-31.896.387-9.425.794-16.884 1.127-20.104.536-5.18.785-11.633.795-18.61.009-6.976-.222-14.476-.65-21.745-.43-7.27-1.055-14.31-1.833-20.37-.389-3.03-.815-5.814-1.275-8.26-.46-2.445-.951-4.55-1.47-6.224a76.107 76.107 0 0 0-2.272-6.242 99.807 99.807 0 0 0-2.885-6.373 81.244 81.244 0 0 0-3.121-5.74c-1.038-1.724-2.052-3.215-2.979-4.346-1.235-1.507-2.688-3.015-4.28-4.465a55.828 55.828 0 0 0-5.112-4.117 52.693 52.693 0 0 0-5.453-3.424c-1.82-.987-3.616-1.801-5.307-2.383-1.76-.605-4.464-1.31-7.756-2.05-3.292-.74-7.172-1.515-11.283-2.26-8.221-1.491-17.365-2.864-24.576-3.6-5.333-.544-11.597-1.02-18.555-1.43-6.958-.408-14.61-.75-22.717-1.023-16.214-.547-34.252-.825-52.213-.83z" style="isolation:auto;mix-blend-mode:normal" color="#000" overflow="visible" fill="url(#c)" transform="translate(-200.843 -49.85)"/><path d="M592.963 49.855c-15.252.042-28.183.296-41.174.823-12.99.527-26.04 1.328-41.525 2.467-16.09 1.183-25.979 1.977-33.682 2.82-7.703.843-13.22 1.735-20.568 3.117-8.07 1.518-15.457 2.745-25.79 4.188-10.332 1.442-23.61 3.099-43.46 5.478-5.732.687-11.583 1.67-17.996 3.045-6.414 1.375-13.389 3.141-21.366 5.393-3.871 1.092-6.915 1.97-9.685 2.86-2.77.893-5.267 1.8-8.041 2.948-5.55 2.297-12.213 5.565-24.412 11.635a342.523 342.523 0 0 0-13.278 6.965 293.857 293.857 0 0 0-12.261 7.17 242.365 242.365 0 0 0-11.14 7.304 191.267 191.267 0 0 0-9.903 7.373 46.69 46.69 0 0 0-3.938 3.54 54.911 54.911 0 0 0-3.674 4.087 61.913 61.913 0 0 0-3.363 4.547 66.496 66.496 0 0 0-3 4.914 68.046 68.046 0 0 0-2.588 5.194 66.173 66.173 0 0 0-2.125 5.377 61.48 61.48 0 0 0-1.613 5.474 54.633 54.633 0 0 0-1.049 5.479c-.598 4.342-1.73 10.417-2.512 13.5-.71 2.8-1.295 5.327-1.789 7.894a112.958 112.958 0 0 0-1.25 8.14c-.705 5.93-1.203 13.28-1.793 24.571-.296 5.678-.541 13.31-.728 22.217-.187 8.907-.318 19.09-.387 29.87-.139 21.558-.032 45.506.354 66.413l.396 21.5-4.633 28c-1.29 7.797-2.33 14.344-3.18 20.207-.849 5.864-1.509 11.044-2.035 16.104a342.523 342.523 0 0 0-1.238 15.388c-.32 5.388-.564 11.22-.795 18.065a435.057 435.057 0 0 1-.865 16.111c-.374 5.166-.803 9.711-1.197 12.389-1.777 12.08-2.902 20.75-3.705 29.666-.804 8.916-1.285 18.077-1.772 31.144-.572 15.36-1.428 31.976-1.902 36.926-.475 4.95-.903 13.58-.951 19.178-.026 2.952-.122 5.79-.3 8.607a142.786 142.786 0 0 1-.786 8.477c-.703 5.727-1.776 11.73-3.31 18.738-.52 2.371-.915 4.322-1.216 6.559-.3 2.237-.505 4.761-.642 8.277-.274 7.032-.278 18.035-.229 38.664.027 11.14.1 20.324.256 28.13.156 7.804.395 14.231.754 19.857.36 5.625.84 10.449 1.477 15.048.636 4.6 1.43 8.975 2.417 13.703.832 3.982 2.625 16.807 3.983 28.5.718 6.182 1.395 11.506 2.094 16.272.698 4.766 1.418 8.973 2.218 12.92.8 3.947 1.68 7.636 2.704 11.361 1.022 3.725 2.186 7.488 3.552 11.588 1.272 3.817 2.623 7.352 4.07 10.633 1.448 3.28 2.992 6.308 4.649 9.111a67.467 67.467 0 0 0 5.328 7.766 59.946 59.946 0 0 0 6.111 6.592c1.847 1.713 4.056 3.976 6.127 6.242 2.072 2.266 4.005 4.535 5.301 6.26 1.296 1.724 3.177 3.872 5.162 5.941 1.986 2.07 4.077 4.061 5.793 5.477 1.656 1.365 4.268 3.13 7.385 5.05s6.738 3.996 10.414 5.983c3.676 1.987 7.406 3.886 10.74 5.453 3.334 1.567 6.271 2.801 8.362 3.46 3.93 1.24 10.56 2.964 18.406 4.852 7.847 1.888 16.912 3.94 25.709 5.836 8.797 1.897 17.328 3.639 24.11 4.905 6.78 1.266 11.813 2.057 13.613 2.052 1.738-.004 13.062 1.57 25.162 3.498 12.1 1.929 25.6 3.895 30 4.37 2.655.286 14.561.468 31.197.56 16.635.092 38.001.094 59.572.022 21.571-.073 43.348-.218 60.81-.424 17.463-.207 30.611-.473 34.92-.783 18.073-1.3 34.301-2.724 48.714-4.274a810.97 810.97 0 0 0 20.26-2.42 532.768 532.768 0 0 0 17.554-2.615c5.403-.904 10.358-1.842 14.87-2.813 4.51-.97 8.577-1.973 12.202-3.011 3.626-1.038 6.81-2.109 9.557-3.215 2.747-1.106 5.057-2.248 6.932-3.424 1.54-.966 3.247-2.2 4.982-3.574a90.82 90.82 0 0 0 5.156-4.418 74.999 74.999 0 0 0 4.508-4.506c1.303-1.432 2.361-2.752 3.037-3.832.92-1.47 1.94-3.727 3.004-6.576 1.065-2.849 2.172-6.289 3.27-10.123a246.733 246.733 0 0 0 3.2-12.488 284.552 284.552 0 0 0 2.792-13.676c1.383-7.757 2.138-12.396 2.48-16.588.172-2.096.24-4.08.233-6.287-.007-2.208-.09-4.638-.221-7.625-.29-6.603-.538-30.337-.73-62.362-.193-32.024-.327-72.34-.393-112.107-.066-39.767-.063-78.984.027-108.814s.266-50.273.541-52.487c.29-2.337.613-9.637.899-19.515.285-9.879.533-22.335.675-34.985.155-13.693.428-26.76.768-37.558.34-10.799.749-19.328 1.172-23.942.781-8.525 1.876-21.35 2.434-28.5.557-7.15 1.723-20.875 2.59-30.5.432-4.812.942-14.024 1.413-24.99.472-10.966.904-23.685 1.186-35.51.564-23.65 1.393-49.525 1.844-57.5.352-6.243.604-13.575.758-21.262.153-7.686.208-15.727.17-23.392-.04-7.665-.172-14.952-.395-21.13-.223-6.18-.537-11.25-.938-14.478a127.732 127.732 0 0 0-2.535-14.062c-1.08-4.502-2.39-8.8-3.904-12.834-1.515-4.033-3.235-7.802-5.14-11.25a67.58 67.58 0 0 0-2.993-4.924 56.558 56.558 0 0 0-3.254-4.394c-1.426-1.74-3.206-3.57-5.195-5.389a83.569 83.569 0 0 0-6.457-5.31 80.795 80.795 0 0 0-6.87-4.6c-2.263-1.345-4.455-2.465-6.43-3.256-1.874-.75-4.54-1.566-7.72-2.393-3.18-.827-6.875-1.666-10.808-2.459a288.228 288.228 0 0 0-12.237-2.187 233.964 233.964 0 0 0-12.007-1.582c-6.678-.689-12.314-1.233-17.766-1.67a449.985 449.985 0 0 0-16.662-1.025c-11.882-.52-26.454-.763-50.572-1.026-12.934-.141-24.133-.207-34.301-.18zm15.435 17.518c17.961.005 35.999.283 52.213.83 8.108.274 15.76.615 22.717 1.024 6.958.409 13.222.885 18.555 1.43 7.211.735 16.355 2.108 24.576 3.599 4.11.745 7.991 1.52 11.283 2.26 3.292.74 5.997 1.445 7.756 2.05 1.69.582 3.486 1.396 5.307 2.383a52.693 52.693 0 0 1 5.453 3.424 55.828 55.828 0 0 1 5.111 4.117c1.593 1.45 3.046 2.958 4.281 4.465.927 1.131 1.941 2.622 2.979 4.346a81.244 81.244 0 0 1 3.121 5.74 99.807 99.807 0 0 1 2.885 6.373 76.107 76.107 0 0 1 2.271 6.242c.52 1.673 1.011 3.78 1.471 6.225.46 2.445.886 5.23 1.275 8.26.778 6.06 1.404 13.1 1.832 20.369.429 7.27.66 14.77.65 21.746-.008 6.976-.258 13.43-.794 18.61-.333 3.219-.74 10.678-1.127 20.103a1833.12 1833.12 0 0 0-1.012 31.896c-.496 21.552-1.123 41.359-1.74 56.076-.309 7.36-.616 13.446-.902 17.842-.287 4.396-.553 7.1-.782 7.697-.309.805-1.231 12.253-2.05 25.438-.41 6.593-.864 12.713-1.268 17.264-.404 4.55-.756 7.532-.959 7.843-.203.312-.464 5.263-.72 12.99-.257 7.728-.51 18.23-.696 29.643-.373 22.825-1.15 51.175-1.729 63-.327 6.708-.581 28.582-.748 62.467-.166 33.885-.245 79.781-.22 134.533.04 87.28.057 131.171-.2 154.735-.128 11.781-.324 18.48-.62 22.98-.297 4.5-.694 6.801-1.221 9.785a245.18 245.18 0 0 1-4.078 18.668c-1.52 5.825-3.105 10.9-4.485 14.168-.48 1.136-1.231 2.368-2.191 3.631-.96 1.263-2.127 2.558-3.434 3.82a44.117 44.117 0 0 1-4.273 3.623 40.21 40.21 0 0 1-4.715 3.04c-1.513.824-3.256 1.62-5.264 2.392-2.008.772-4.282 1.52-6.855 2.252-5.147 1.462-11.495 2.856-19.322 4.228-7.828 1.373-17.136 2.725-28.204 4.106-11.067 1.381-23.895 2.792-38.761 4.28-6.699.67-11.776 1.174-16.942 1.556-5.166.382-10.421.64-17.474.822-14.107.364-35.408.416-77.584.508-23.375.05-45.58.009-62.528-.098-16.947-.107-28.635-.28-30.972-.492-4.675-.425-15.25-1.984-23.5-3.465-8.25-1.48-18.825-3.135-23.5-3.675-4.675-.54-18.175-2.82-30-5.063-7.59-1.44-14.476-2.805-20.76-4.139-6.284-1.333-11.964-2.635-17.139-3.947-5.175-1.312-9.845-2.634-14.107-4.008-4.262-1.374-8.117-2.8-11.662-4.32-3.546-1.52-6.782-3.136-9.807-4.887a79.603 79.603 0 0 1-8.537-5.7c-2.7-2.066-5.288-4.309-7.86-6.772-2.571-2.464-5.128-5.148-7.767-8.094-6.126-6.838-12.354-13.559-13.838-14.934-1.05-.972-2.145-2.306-3.258-3.945-1.113-1.64-2.243-3.584-3.363-5.78a92.973 92.973 0 0 1-3.299-7.28 125.933 125.933 0 0 1-3.066-8.45c-1.325-4.088-2.434-7.77-3.397-11.431a155.152 155.152 0 0 1-2.525-11.315c-.745-4.008-1.415-8.381-2.084-13.506-.669-5.124-1.336-11-2.072-18.012-.848-8.076-1.957-16.534-2.463-18.794-.985-4.393-1.785-8.417-2.457-12.737-.673-4.32-1.218-8.933-1.692-14.506-.474-5.572-.877-12.105-1.265-20.257-.388-8.153-.761-17.927-1.176-29.987a244.146 244.146 0 0 1-.06-14.039c.11-4.73.349-9.448.699-13.957s.809-8.808 1.367-12.707c.558-3.899 1.213-7.396 1.949-10.297.468-1.843.917-4.267 1.34-7.17.422-2.903.818-6.284 1.176-10.045.715-7.52 1.282-16.552 1.623-26.285.308-8.8.987-18.925 1.51-22.5.26-1.787.501-5.043.68-8.85.177-3.806.292-8.162.3-12.15.01-4.892.118-9.88.312-14.812.194-4.933.473-9.811.829-14.487.355-4.675.785-9.146 1.279-13.265.494-4.12 1.052-7.886 1.662-11.15.713-3.82 1.285-8.413 1.76-14.352.475-5.94.853-13.226 1.181-22.434.22-6.157.535-12.29.932-18.273.397-5.984.877-11.82 1.428-17.387.55-5.567 1.17-10.863 1.85-15.77.679-4.905 1.418-9.42 2.202-13.421 1.369-6.977 2.46-13.446 4.497-26.649.275-1.787.504-6.619.652-12.963.147-6.343.214-14.2.162-22.037-.165-25.129-.226-45.933-.154-63.258.071-17.324.276-31.169.638-42.377.363-11.207.885-19.779 1.594-26.558.355-3.39.754-6.333 1.205-8.932.451-2.599.953-4.855 1.508-6.875.83-3.025 2.167-9.775 2.967-15a62.492 62.492 0 0 1 1.875-8.404 54.022 54.022 0 0 1 2.894-7.61 45.428 45.428 0 0 1 3.838-6.656 37.684 37.684 0 0 1 4.707-5.543c2.266-2.184 5.204-4.596 8.676-7.152 3.472-2.556 7.479-5.253 11.885-8.01a296.19 296.19 0 0 1 14.28-8.357 350.112 350.112 0 0 1 15.85-8.192c7.142-3.463 13.7-6.407 20.022-8.933 6.322-2.526 12.41-4.635 18.61-6.424 6.2-1.79 12.513-3.26 19.289-4.514 6.776-1.254 14.015-2.292 22.064-3.213 9.909-1.133 22.066-2.695 27.016-3.47 4.95-.776 11.862-1.687 15.361-2.028 3.5-.34 10.25-1.446 15-2.457a287.038 287.038 0 0 1 20.572-3.601c6.767-.929 13.365-1.575 19.567-1.908 6.325-.34 15.55-1.054 20.5-1.586 5.025-.541 11.02-1.014 17.746-1.418 6.726-.405 14.186-.743 22.138-1.012 15.906-.538 33.79-.802 51.75-.797z" style="isolation:auto;mix-blend-mode:normal" color="#000" overflow="visible" fill="url(#b)" transform="translate(-200.843 -49.85)"/><path d="M576.309 405.488c-2.878-.014-5.747.482-7.698 1.49-6.501 3.363-15.424 15.772-25.556 35.545-3.28 6.4-6.28 11.967-6.666 12.373-.388.407-6.536.978-13.664 1.268-23.129.942-28.606 1.51-52.961 5.479-13.2 2.15-25.253 4.046-26.784 4.212-2.521.275-2.993-.212-5.039-5.197-1.241-3.025-5.388-11.35-9.216-18.5-3.829-7.15-7.363-14.125-7.854-15.5-2.73-7.647-8.8-11.48-17.088-10.793-9.788.812-15.082 7.345-14.334 17.688.343 4.743 1.695 8.004 8.612 20.789 8.148 15.063 9.376 18.316 6.921 18.316-2.73 0-25.772 3.056-34.271 4.545-4.92.862-16.264 2.648-25.207 3.97-20.035 2.964-28.94 5.494-32.422 9.216-8.422 9-7.637 21.328 1.857 29.154 2.055 1.693 5.555 3.47 7.78 3.95 7.33 1.579 12.1.005 17.545-5.792 3.17-3.376 4.14-3.79 10.326-4.42 3.754-.382 10.504-1.35 15-2.152 7.95-1.419 26.083-4.086 45.95-6.756 9.32-1.253 9.856-1.222 11.5.633.947 1.07 3.479 3.23 5.624 4.799 3.193 2.336 4.916 2.852 9.5 2.85 8.607-.007 14.422-4.449 16.014-12.233l.652-3.186 21.967-3.736c12.082-2.054 26.804-4.047 32.717-4.43 9.889-.64 10.75-.554 10.75 1.078 0 2.832 3.583 7.847 7.076 9.903 4.575 2.693 12.68 2.537 17.324-.332 1.98-1.224 3.604-2.525 3.611-2.893.007-.367 1.695-2.468 3.75-4.668l3.739-4 25 .076c22.371.068 26.787.367 42 2.854 26.291 4.298 28.587 4.502 51.28 4.537 16.947.026 22.033-.281 24.964-1.506 7.103-2.968 10.486-7.954 10.486-15.46 0-5.892-2.25-10.262-6.916-13.432-3.657-2.486-3.691-2.489-21.277-1.88-19.047.661-27.255-.03-52.537-4.421-12.149-2.11-18.803-2.656-35-2.865-15.98-.207-19.936-.524-19.674-1.58.617-2.492 6.037-11.327 12.103-19.727 5.54-7.67 6.07-8.851 6.07-13.518 0-6.03-3.227-11.61-8.202-14.183-1.989-1.028-4.875-1.55-7.752-1.565zm-180.045 113.94c-9.843 0-16 6.478-16 16.836 0 3.378.675 8.056 1.5 10.394.825 2.339 1.51 5.432 1.521 6.875.012 1.444.943 4.65 2.069 7.125 1.125 2.475 2.48 6.75 3.01 9.5 1.359 7.052 4.624 30.667 5.392 39 .951 10.329 2.316 14.508 5.908 18.1 4.016 4.016 6.473 4.606 30.6 7.336 27.506 3.112 25 2.212 25 8.976v5.678l-21.75 1.744c-11.963.959-27.825 2.453-35.25 3.322-10.33 1.21-17.257 1.4-29.5.817-21.203-1.011-24.799-.888-28.4.974-7.875 4.073-10.634 15.362-5.573 22.81 3.144 4.626 6.713 6.52 13.885 7.362 5.388.634 5.617.783 6.537 4.268 2.1 7.958 4.564 26.754 5.521 42.113.585 9.378 2.6 60.883 2.858 73.035.207 9.785.57 12.062 2.388 15 3.027 4.888 7.517 7.25 13.784 7.25 6.275 0 10.748-2.357 13.818-7.285 1.974-3.168 2.173-4.78 2.098-17-.076-12.38-1.825-58.628-2.989-79-.487-8.53-2.76-27.672-4.01-33.75-.52-2.533-.333-3.25.85-3.25.835 0 7.754-.655 15.375-1.457s19.557-1.92 26.524-2.482c6.966-.563 15.109-1.311 18.095-1.662l5.43-.639.56 18.113c.308 9.963.322 20.746.03 23.963l-.531 5.85-5.125 1.267c-11.714 2.897-29.412 8.302-33.37 10.192-5.667 2.706-8.513 6.914-9.048 13.375-.798 9.613 4.613 16.371 13.816 17.256 3.553.341 7.151-.327 14.121-2.623 11.928-3.93 29.307-8.393 43.356-11.133 6.05-1.18 15.844-3.242 21.767-4.582 7.49-1.695 13.789-2.438 20.686-2.438 11.37 0 14.11-.786 18.277-5.246l2.996-3.207 2.186 2.74c3.865 4.847 14.7 25.952 17.773 34.62 3.328 9.383 9.462 19.776 13.852 23.47 6.093 5.128 16.466 4.23 21.84-1.89 1.683-1.918 3.235-3.487 3.449-3.487.214 0 .953 4.163 1.642 9.25.69 5.088 2.032 11.312 2.983 13.832l1.728 4.582-3.59-1.72c-11.72-5.617-19.484-6.007-25.12-1.264-4.21 3.541-5.97 7.387-5.97 13.039 0 7.515 3.297 11.501 13.442 16.254 9.768 4.576 20.676 8.04 28.482 9.047 12.22 1.574 19.369 1.139 24.63-1.502 6.882-3.455 9.923-8.204 9.874-15.42-.03-4.574-.967-7.61-5.123-16.598-2.797-6.05-5.8-13.025-6.673-15.5-3.084-8.732-5.835-30.079-6.7-52-.466-11.825-1.28-27.125-1.806-34a9422.955 9422.955 0 0 1-2.09-28c-1.212-16.595-2.499-21.646-6.807-26.701-3.637-4.267-16.052-11.127-22.273-12.307-2.75-.521-7.576-1.603-10.727-2.404-3.15-.8-9.553-1.734-14.228-2.072-4.675-.338-11.298-1.048-14.717-1.578-8.165-1.267-19.762-1.898-48.11-2.617l-23.324-.592.696-5.116c.778-5.716 1.426-6.454 5.277-6.017 6.743.765 48.63 2.812 56.803 2.775 11.487-.05 14.387-1.55 19.875-10.271 2.2-3.497 9.907-15.255 17.129-26.13 17.879-26.921 20.668-33.189 19.668-44.196-.638-7.015-2.667-11.048-7.858-15.618-4.939-4.347-17.206-9.494-26.6-11.16-3.487-.618-8.923-1.782-12.082-2.586-10.49-2.67-29.04-4.394-47.353-4.402-17.113-.008-18.199-.123-19.998-2.111-3.01-3.325-7.37-5.127-12.406-5.127-5.628 0-9.459 1.859-13.666 6.636-2.731 3.101-3.768 3.594-7.567 3.594-4.73 0-12.652 1.237-22.267 3.475-3.3.768-10.025 1.538-14.944 1.71l-8.945.315-.656-3.135c-1.575-7.523-8-12.595-15.955-12.595zm117.111 39.314c16.1.052 29.494 1.993 55.678 7.7l3.287.716-4.787 7.092c-2.634 3.901-5.747 8.377-6.918 9.945l-2.131 2.852-.713-4.229c-.798-4.723-4.302-9.475-8.64-11.718-1.658-.857-8.067-1.892-15.131-2.442-6.741-.525-15.631-1.4-19.756-1.945-4.125-.546-10.567-1.007-14.315-1.024l-6.812-.03.312-3.25.315-3.25 12.5-.329c2.455-.064 4.811-.095 7.111-.088zm-55.81 3.994c1.793.043 2.699.516 2.699 1.422 0 1.163-1.32 1.5-5.862 1.5-3.223 0-8.06.23-10.75.512-4.23.443-3.876.247 2.612-1.457 4.64-1.219 8.138-1.876 10.478-1.969.293-.011.566-.014.822-.008zm-27.18 4.034c1.087-.002 2.212.052 3.111.164 1.797.222.568.408-2.732.414-3.3.006-4.77-.176-3.268-.405.751-.114 1.801-.172 2.889-.173zm26.879 30.617v3.634c0 3.464-.154 3.63-3.25 3.499-6.357-.272-27.75-3.292-27.75-3.918 0-.35 4.837-.92 10.75-1.264 5.912-.345 12.887-.925 15.5-1.29l4.75-.661zm33 .271h4.812c2.648 0 9.735.64 15.75 1.42 6.015.781 16.441 1.738 23.168 2.127 10.3.596 12.613.458 14.647-.875 2.272-1.489 2.23-1.29-.73 3.352-3.614 5.665-.87 5.274-27.147 3.869-8.25-.441-18.375-.983-22.5-1.201-4.125-.22-7.613-.69-7.75-1.045-.138-.356-.25-2.222-.25-4.147v-3.5zm-3.327 83.696l20.913.687c28.722.944 36.856 1.414 44.414 2.57 3.575.547 9.875 1.264 14 1.592 6.829.544 22.326 3.493 26.228 4.99 1.731.665 2.071 2.956 3.701 24.965l2.114 28.5c.632 8.525.993 19.775.802 25l-.345 9.5-2.649-4.5c-1.456-2.475-3.408-7.2-4.34-10.5-.931-3.3-3.168-8.475-4.97-11.5-1.803-3.025-5.244-9.325-7.647-14-5.883-11.445-20.004-30.168-30.668-40.662-11.909-11.72-14.934-13.623-21.642-13.623-9.82 0-15.871 6.035-15.871 15.832 0 6.138 2.417 10.73 8.08 15.358l3.707 3.029-9 .056c-4.95.032-12.6.85-17 1.819l-8 1.761-.07-5.035c-.039-2.769-.449-11.966-.913-20.437l-.843-15.403z" fill="url(#d)" transform="translate(-200.843 -49.85)"/><path d="M271.42 100.418c-39.545.059-45.914.462-86 5.441-9.999 1.242-21.834 1.93-33.349 1.937-19.879.014-22.883.726-26.92 6.385-2.072 2.905-2.215 4.087-2.025 16.627.188 12.44.6 15.128 5.254 34.237 4.723 19.395 7.828 33.336 13.088 58.763 3.402 16.45 8.834 37.143 10.796 41.131 1.288 2.618 1.537 4.293.89 6-1.445 3.806-.335 12.215 2.054 15.57 1.182 1.66 3.624 3.745 5.43 4.635 4.11 2.026 10.122 2.068 25.32.172 6.579-.82 15.338-1.491 19.463-1.49 4.125 0 20.775-.92 37-2.047 103.37-7.176 154.105-7.291 182.634-.414 12.274 2.958 25.726 3.315 30.983.82 1.881-.893 4.384-2.976 5.56-4.629 2.549-3.579 3.485-11.197 1.952-15.88-.849-2.592-.78-4.43.294-7.98.769-2.536 1.908-8.16 2.534-12.5 2.675-18.562 8.655-38.093 19.56-63.888 6.288-14.874 7.483-18.894 7.483-25.191 0-5.96-1.954-11.547-5.3-15.16-5.455-5.893-28.397-20.253-36.2-22.66-9.497-2.93-51.974-9.518-77.225-11.977-3.423-.333-9.273-1.251-13-2.041-3.727-.79-16.9-2.445-29.275-3.678-19.178-1.91-28.185-2.232-61-2.183zm-11.193 31.921l18.28.252c10.054.139 18.363.357 18.464.485.32.403-1.58 13.794-3.593 25.326-1.065 6.101-2.852 19.826-3.971 30.5-1.12 10.674-2.7 21.726-3.512 24.56-.811 2.835-1.474 7.533-1.474 10.44 0 2.907-.507 7.788-1.127 10.846-1.286 6.339-.041 12.895 3.035 15.97 1.739 1.74 1.425 1.828-8.707 2.448-16.551 1.012-17.201.958-17.201-1.41 0-1.129-.89-6.642-1.979-12.25-6.317-32.558-8.113-92.063-2.965-98.266.559-.673 1.856-2.952 2.883-5.063l1.867-3.838zm-37.256 1.936l-1.31 7.518c-2.234 12.813-1.909 50.189.64 73.515 1.203 11 2.89 24.275 3.752 29.5.862 5.225 1.634 9.939 1.717 10.477.083.538-3.9 1.283-8.85 1.656-4.95.373-14.56.858-21.355 1.08-10.55.344-12.424.176-12.828-1.154-.26-.857-1.34-3.584-2.4-6.059-2.1-4.903-5.93-19.244-8.453-31.648-2.544-12.506-12.218-55.948-14.776-66.352-1.284-5.225-2.136-10.287-1.894-11.25.38-1.51 1.755-1.756 10.072-1.797 5.298-.025 19.996-1.27 32.66-2.765l23.025-2.721zm114.897 1.572c3.473.028 8.223.658 14.394 1.893 5.312 1.063 17.984 2.862 28.159 3.998 27.005 3.015 59.207 8.628 64.28 11.203 2.321 1.178 6.554 3.806 9.407 5.842l5.188 3.703-2.545 5.41c-4.49 9.549-16.432 43.133-18.46 51.912-1.708 7.4-2.604 12.437-5.548 31.25-.627 4.006-1.102 4.19-7.143 2.76-9.53-2.256-36.118-3.508-73.779-3.475l-40.098.036 1.885-4.262c1.113-2.516 2.257-8.487 2.791-14.569.498-5.668 1.357-11.492 1.908-12.943.552-1.45 1.939-11.785 3.082-22.967 1.144-11.181 2.962-24.605 4.041-29.83 1.08-5.225 1.982-11.3 2.002-13.5.053-5.63 1.817-12.654 3.702-14.736 1.065-1.178 3.26-1.752 6.734-1.725z"/></svg>