<svg xmlns:osb="http://www.openswatchbook.org/uri/2009/osb" xmlns="http://www.w3.org/2000/svg" height="900.339" width="661.681"><defs><linearGradient osb:paint="solid" id="c"><stop offset="0" stop-color="#fff"/></linearGradient><linearGradient osb:paint="solid" id="b"><stop offset="0"/></linearGradient><linearGradient osb:paint="solid" id="a"><stop offset="0" stop-color="#162d50"/></linearGradient><linearGradient osb:paint="solid" id="d"><stop offset="0" stop-color="#d40000"/></linearGradient></defs><path d="M573.617 66.611c-11.15-.027-23.97.092-37.23.33-13.26.239-26.96.597-39.87 1.043-12.909.447-25.028.984-35.126 1.58-10.098.597-18.175 1.254-23 1.944-16.59 2.37-28.7 4.183-37.485 5.625-8.784 1.442-14.24 2.513-17.523 3.404-3.854 1.046-13.079 2.855-20.5 4.02a183.078 183.078 0 0 0-9.567 1.771c-3.23.685-6.496 1.462-9.785 2.322-6.577 1.722-13.241 3.78-19.873 6.11a288.118 288.118 0 0 0-19.678 7.748 285.693 285.693 0 0 0-18.767 9.012c-6.025 3.172-11.778 6.493-17.14 9.898-5.364 3.405-10.338 6.894-14.802 10.406a128.074 128.074 0 0 0-6.296 5.278 95.92 95.92 0 0 0-5.444 5.261 68.418 68.418 0 0 0-4.502 5.201 46.503 46.503 0 0 0-3.466 5.094 51.668 51.668 0 0 0-3.159 6.457 65.304 65.304 0 0 0-2.504 7.428 87.206 87.206 0 0 0-1.853 8.478c-.51 3.012-.915 6.213-1.213 9.616a168.82 168.82 0 0 0-.578 10.832 237.82 237.82 0 0 0 .047 12.129c.12 4.268.343 8.767.668 13.51.325 4.742.753 9.727 1.281 14.97.83 8.25 1.79 20.625 2.13 27.5.342 6.875 1.075 17.842 1.628 24.37.486 5.736.763 8.723 1.287 10.587.262.932.585 1.583 1.027 2.156.443.574 1.005 1.07 1.742 1.69l3.053 2.568-.517 12.065c-.159 3.697-.483 7.44-.922 10.832-.44 3.392-.994 6.434-1.612 8.732-1.108 4.125-2.962 11.002-4.119 15.281-1.157 4.28-4.292 14.405-6.968 22.5-2.677 8.096-5.86 18.994-7.073 24.22a1424.915 1424.915 0 0 1-4.58 19c-1.305 5.224-3.755 16.25-5.445 24.5-1.69 8.25-4.177 18.374-5.527 22.5-.671 2.048-1.317 4.548-1.926 7.401-.61 2.854-1.181 6.06-1.7 9.524a242.575 242.575 0 0 0-1.38 11.06 290.439 290.439 0 0 0-.977 12.014c-.35 5.775-1.705 21.075-3.014 34-.517 5.107-.927 9.555-1.26 14.059a393.654 393.654 0 0 0-.786 14.4c-.404 10.67-.6 24.438-.805 47.041-.16 17.653-.38 31.21-.664 40.943-.285 9.734-.636 15.642-1.06 17.999a45.2 45.2 0 0 0-.757 8.296c-.012 3.109.215 6.868.676 12.204.323 3.728.679 11.281.994 20.445.316 9.164.59 19.938.746 30.113.17 11.069.404 20.512.762 28.998.359 8.486.843 16.014 1.514 23.246a369.341 369.341 0 0 0 2.633 21.48c1.105 7.31 2.46 14.989 4.125 23.704a75.552 75.552 0 0 0 1.998 7.994 87.137 87.137 0 0 0 2.88 7.951 94.418 94.418 0 0 0 3.65 7.737 95.623 95.623 0 0 0 4.313 7.351 90.155 90.155 0 0 0 4.864 6.797 79.023 79.023 0 0 0 5.302 6.072 64.479 64.479 0 0 0 5.631 5.176 49.34 49.34 0 0 0 5.85 4.107c1.905 1.132 5.593 2.754 10.283 4.598 4.69 1.844 10.382 3.912 16.293 5.934a484.748 484.748 0 0 0 17.613 5.662c5.57 1.664 10.575 3.017 14.237 3.789 7.534 1.588 18.067 3.381 28.138 4.869 10.071 1.488 19.68 2.67 25.362 3.033 7.425.475 14.175 1.107 15 1.404.858.31 3.202.753 6.34 1.243 3.137.489 7.068 1.025 11.1 1.523 8.062.996 16.528 1.836 19.857 1.84 3.96.004 10.128.508 13.703 1.12 3.575.61 11.675 1.436 18 1.835 4.274.27 17.15.473 34.252.61 17.1.136 38.424.206 59.595.208 21.171.003 42.187-.06 58.672-.193 16.485-.132 28.439-.333 31.48-.602 5.776-.51 14.55-1.178 19.5-1.486 4.95-.308 14.4-1.2 21-1.984s18.076-1.924 25.5-2.533c4.688-.385 9.181-.838 13.47-1.356a274.74 274.74 0 0 0 12.24-1.748c3.868-.646 7.52-1.354 10.947-2.121 3.427-.767 6.63-1.593 9.596-2.475 2.965-.881 5.694-1.818 8.177-2.808 2.483-.99 4.72-2.034 6.7-3.127 1.98-1.093 3.704-2.235 5.16-3.424 1.456-1.19 2.643-2.426 3.554-3.705 1.146-1.61 2.311-3.597 3.479-5.922 1.167-2.325 2.337-4.987 3.494-7.945a158.52 158.52 0 0 0 3.414-9.721 226.232 226.232 0 0 0 3.236-11.248c.765-2.927 1.59-7.51 2.41-13.152.822-5.643 1.64-12.344 2.393-19.506a748.943 748.943 0 0 0 1.998-22.274c.559-7.486.988-14.835 1.227-21.45.173-4.813.614-11.72 1.185-18.97.572-7.25 1.274-14.843 1.967-21.03.81-7.22 1.465-13.432 2.014-19.366.549-5.934.99-11.592 1.369-17.701.758-12.22 1.27-26.25 1.894-47.934.563-19.525 1.485-40.45 2.05-46.5.281-3.025.591-11.963.863-23.926.271-11.962.504-26.949.634-42.074.137-15.912.367-30.295.639-41.133.272-10.838.585-18.131.89-19.867.291-1.65.66-6.187 1.018-12.168.359-5.981.708-13.407.961-20.832.63-18.428 1.321-33.515 2.076-45.281.378-5.883.77-10.936 1.18-15.162.41-4.226.837-7.625 1.28-10.2.816-4.753 1.486-10.44 1.486-12.638 0-2.198.63-7.534 1.402-11.858.386-2.161.867-6.152 1.334-10.84.467-4.687.918-10.07 1.24-15.02.645-9.9 1.79-22.95 2.547-29 .757-6.05 1.888-15.5 2.514-21 .626-5.5 1.753-12.7 2.504-16 .681-2.996 1.774-10.685 2.945-20.343a1166.502 1166.502 0 0 0 3.422-32.158c.582-6.325 1.997-19.825 3.144-30 .915-8.108 1.405-13.212 1.555-17.986.15-4.775-.042-9.22-.488-16.014a156.43 156.43 0 0 0-1.14-11.367c-.501-3.581-1.124-6.96-1.88-10.156a81.98 81.98 0 0 0-2.676-9.053 65.393 65.393 0 0 0-3.527-8.057 57.552 57.552 0 0 0-4.433-7.166 57 57 0 0 0-5.399-6.383 63.655 63.655 0 0 0-6.418-5.71 78.827 78.827 0 0 0-7.494-5.141 3885.11 3885.11 0 0 0-13-7.865c-1.795-1.08-4.372-2.42-7.324-3.844a250.597 250.597 0 0 0-9.572-4.35c-3.294-1.417-6.554-2.744-9.372-3.804-2.818-1.06-5.193-1.853-6.72-2.203-1.317-.303-3.877-.603-7.778-.905-3.9-.302-9.141-.606-15.818-.916-13.353-.62-32.452-1.263-58.068-1.969-9.625-.265-19.612-.636-27.95-1.02-8.337-.383-15.025-.779-18.05-1.095-3.005-.314-7.483-.545-13.067-.703-5.584-.158-12.274-.241-19.707-.26z" style="isolation:auto;mix-blend-mode:normal" color="#000" overflow="visible" fill="url(#c)" transform="translate(-169.16 -49.83)"/><path d="M586.848 49.879c-22.761-.126-52.143-.001-77.514.303-12.685.152-24.366.349-33.717.582-9.35.233-16.37.501-19.726.798-5.621.498-12.82 1.311-20.579 2.29-7.758.978-16.075 2.12-23.933 3.279-7.858 1.158-15.257 2.332-21.178 3.371-5.92 1.039-10.364 1.942-12.31 2.56-2.475.786-11.697 2.588-20.493 4.006a266.3 266.3 0 0 0-12.5 2.315c-4.03.849-7.922 1.776-11.675 2.78a187.89 187.89 0 0 0-10.84 3.237 156.772 156.772 0 0 0-9.992 3.698 795.816 795.816 0 0 1-15 5.957c-2.084.795-4.782 1.983-7.852 3.437a303.387 303.387 0 0 0-10.084 5.037c-7.145 3.722-14.81 8.006-21.064 11.844a168.997 168.997 0 0 0-8.162 5.336 156.622 156.622 0 0 0-7.565 5.607 140.953 140.953 0 0 0-6.908 5.817 123.005 123.005 0 0 0-6.195 5.967 103.74 103.74 0 0 0-5.42 6.054 84.68 84.68 0 0 0-4.59 6.082 66.931 66.931 0 0 0-3.7 6.051 51.477 51.477 0 0 0-2.75 5.955 83.223 83.223 0 0 0-2.482 7.588 104.632 104.632 0 0 0-1.941 8.412 132.8 132.8 0 0 0-1.405 9.254 169.1 169.1 0 0 0-.865 10.113c-.2 3.518-.31 7.184-.33 10.998-.02 3.815.048 7.779.205 11.897.315 8.236.986 17.085 2.012 26.574.832 7.7 1.999 22.55 2.592 33s1.734 25.975 2.537 34.5c.646 6.86 1.075 12.506 1.23 17.485.156 4.978.037 9.288-.416 13.48a78.258 78.258 0 0 1-.937 6.268 97.331 97.331 0 0 1-1.483 6.496c-1.18 4.499-2.752 9.425-4.777 15.326-1.433 4.175-2.993 9.208-4.61 14.812a631.733 631.733 0 0 0-4.94 18.24 810.6 810.6 0 0 0-4.833 19.952 730.841 730.841 0 0 0-4.283 19.941c-1.371 6.875-3.836 17-5.479 22.5a114.356 114.356 0 0 0-1.988 7.483 109.633 109.633 0 0 0-1.502 8.052c-.895 5.929-1.634 13.345-2.55 24.465-.59 7.15-1.803 19.3-2.696 27-.58 4.995-1.034 12.004-1.402 22.135-.369 10.13-.651 23.383-.889 40.865a2980.268 2980.268 0 0 1-.844 40.692c-.35 12.636-.744 23.328-1.093 29.025-.514 8.36-.77 15.168-.772 23.295-.002 8.126.251 17.571.76 31.205.693 18.581 1.585 46.158 1.984 61.283.2 7.563.497 15.17.815 21.332.318 6.163.657 10.88.94 12.668.564 3.575 2.242 14.375 3.728 24 .732 4.747 1.443 8.877 2.185 12.576.743 3.7 1.517 6.97 2.375 9.994a88.187 88.187 0 0 0 2.881 8.53c1.08 2.723 2.298 5.389 3.705 8.183a125.488 125.488 0 0 0 7.063 12.295c2.504 3.825 5.151 7.367 7.92 10.604 2.768 3.236 5.658 6.166 8.65 8.765 2.992 2.6 6.085 4.868 9.258 6.782 1.696 1.022 4.253 2.249 7.543 3.634 3.29 1.386 7.312 2.93 11.94 4.586a509.142 509.142 0 0 0 15.566 5.262 779.24 779.24 0 0 0 18.418 5.658c3.103.914 7.788 2.003 13.21 3.123a543.54 543.54 0 0 0 17.637 3.313c6.055 1.039 12.005 1.963 17.006 2.63 5 .668 9.053 1.078 11.313 1.085 1.741.005 5.463.344 10.054.886a424.493 424.493 0 0 1 15.28 2.108 380.061 380.061 0 0 0 15.62 2.105c4.804.542 8.817.88 10.88.883 2.062.003 5.053.174 8.209.447 3.156.273 6.477.648 9.203 1.059 5.452.822 13.327 1.526 17.5 1.566 4.173.041 9.613.441 12.088.889 1.237.224 12.094.403 28.588.512 16.493.109 38.624.148 62.412.09 21.615-.054 39.014-.133 53.406-.278 14.392-.145 25.777-.355 35.369-.672 9.592-.316 17.39-.739 24.607-1.306 7.217-.568 13.852-1.28 21.118-2.18 4.4-.545 13.85-1.505 21-2.135 6.677-.588 15.863-1.68 24.297-2.83 8.433-1.15 16.112-2.36 19.78-3.182 2.575-.576 7.347-2.14 12.106-3.884 4.76-1.744 9.508-3.667 12.031-4.957a37.998 37.998 0 0 0 7.1-4.717c2.232-1.868 4.333-4.035 6.31-6.51 1.978-2.475 3.83-5.258 5.567-8.36 1.738-3.101 3.36-6.52 4.873-10.269a148.767 148.767 0 0 0 5.424-16.03c1.57-5.66 2.919-11.71 4.078-18.364 1.16-6.654 2.13-13.912 2.951-21.989.822-8.077 1.495-16.973 2.055-26.902.897-15.913 1.585-27.31 2.187-35.967.603-8.657 1.12-14.576 1.674-19.533.616-5.5 1.796-16.075 2.623-23.5.414-3.712.909-10.575 1.371-18.64a1144.1 1144.1 0 0 0 1.182-25.86c.577-17.05 1.42-39.775 1.873-50.5.453-10.725.863-38.625.912-62 .024-11.687.16-23.663.358-33.54.198-9.88.46-17.66.736-20.96 1.187-14.153 1.992-24.78 2.596-34.93.603-10.15 1.005-19.822 1.388-32.07.449-14.328 1.059-26.87 1.828-37.576.385-5.353.81-10.245 1.274-14.672.463-4.427.966-8.388 1.508-11.875.779-5.018 1.428-11.093 1.441-13.5.013-2.407.469-6.177 1.014-8.377.545-2.2 1.63-13.225 2.41-24.5a886.22 886.22 0 0 1 3.525-38.326c.683-5.959 1.388-11.472 2.075-16.2.686-4.726 1.354-8.666 1.964-11.474.509-2.337 1.154-6.318 1.782-10.85.628-4.53 1.239-9.612 1.683-14.15a3613.13 3613.13 0 0 1 3.647-35c1.117-10.175 2.438-22.325 2.935-27 .309-2.9.536-7.05.684-11.785.148-4.735.217-10.057.207-15.303-.01-5.245-.1-10.415-.266-14.846-.165-4.43-.408-8.122-.726-10.414-.312-2.244-.841-4.86-1.522-7.65a139.55 139.55 0 0 0-2.44-8.69 140.325 140.325 0 0 0-2.98-8.535c-1.043-2.687-2.114-5.151-3.15-7.191a66.945 66.945 0 0 0-3.367-5.83 81.85 81.85 0 0 0-4.04-5.72 72.348 72.348 0 0 0-4.341-5.132c-1.457-1.56-2.903-2.942-4.276-4.066-3.104-2.542-7.118-5.38-11.658-8.3-4.54-2.922-9.604-5.926-14.812-8.802a277.785 277.785 0 0 0-15.668-8.029c-5.11-2.407-9.979-4.475-14.223-5.99-2.355-.84-5.042-1.547-8.463-2.152-3.421-.606-7.577-1.112-12.87-1.55-5.295-.437-11.727-.807-19.7-1.142-7.973-.335-17.488-.635-28.947-.935-20.35-.533-46-1.447-57-2.032-6.137-.326-18.37-.521-33.543-.605zm-13.23 16.732c7.432.019 14.122.102 19.706.26 5.584.158 10.062.39 13.067.703 3.025.316 9.713.712 18.05 1.096 8.338.383 18.325.754 27.95 1.02 25.616.705 44.715 1.349 58.068 1.968 6.677.31 11.918.614 15.818.916 3.9.302 6.46.602 7.778.905 1.527.35 3.902 1.143 6.72 2.203 2.818 1.06 6.078 2.387 9.371 3.804a250.597 250.597 0 0 1 9.573 4.35c2.952 1.424 5.53 2.764 7.324 3.844 3.11 1.87 8.96 5.409 13 7.865a78.827 78.827 0 0 1 7.494 5.14 63.655 63.655 0 0 1 6.418 5.711 57 57 0 0 1 5.399 6.383 57.552 57.552 0 0 1 4.433 7.166 65.393 65.393 0 0 1 3.527 8.057 81.98 81.98 0 0 1 2.676 9.053c.756 3.195 1.379 6.575 1.88 10.156.5 3.581.877 7.364 1.14 11.367.446 6.794.638 11.24.488 16.014-.15 4.774-.64 9.878-1.555 17.986-1.147 10.175-2.562 23.675-3.144 30-1 10.872-2.25 22.5-3.422 32.158-1.171 9.658-2.264 17.347-2.945 20.342-.751 3.3-1.878 10.5-2.504 16-.626 5.5-1.757 14.95-2.514 21-.757 6.05-1.902 19.1-2.547 29a457.597 457.597 0 0 1-1.24 15.022c-.467 4.687-.948 8.678-1.334 10.84-.772 4.323-1.402 9.659-1.402 11.857 0 2.198-.67 7.885-1.487 12.639-.442 2.574-.87 5.973-1.279 10.199-.41 4.226-.802 9.279-1.18 15.162-.755 11.766-1.447 26.853-2.076 45.281a841.999 841.999 0 0 1-.96 20.832c-.36 5.981-.728 10.518-1.018 12.168-.306 1.736-.62 9.03-.891 19.867-.272 10.838-.502 25.221-.639 41.133a3114.26 3114.26 0 0 1-.634 42.074c-.272 11.963-.582 20.901-.864 23.926-.564 6.05-1.486 26.975-2.049 46.5-.625 21.684-1.136 35.715-1.894 47.934-.38 6.11-.82 11.767-1.37 17.7-.548 5.935-1.204 12.146-2.013 19.366-.693 6.188-1.395 13.781-1.967 21.031-.571 7.25-1.012 14.157-1.185 18.97-.239 6.615-.668 13.964-1.227 21.45a748.943 748.943 0 0 1-1.998 22.274c-.753 7.162-1.571 13.863-2.392 19.506-.822 5.642-1.646 10.225-2.41 13.152a226.232 226.232 0 0 1-3.237 11.248 158.52 158.52 0 0 1-3.414 9.72c-1.157 2.959-2.327 5.621-3.494 7.946-1.168 2.325-2.333 4.313-3.479 5.922-.91 1.28-2.098 2.516-3.554 3.705-1.456 1.19-3.18 2.33-5.16 3.424-1.98 1.093-4.217 2.136-6.7 3.127-2.483.99-5.212 1.927-8.177 2.808a144.385 144.385 0 0 1-9.596 2.475c-3.427.767-7.08 1.475-10.947 2.121a274.74 274.74 0 0 1-12.24 1.748c-4.289.518-8.782.97-13.47 1.356-7.424.61-18.9 1.749-25.5 2.533-6.6.784-16.05 1.676-21 1.984-4.95.308-13.724.977-19.5 1.486-3.042.269-14.995.47-31.48.602s-37.5.196-58.672.193c-21.17-.003-42.495-.072-59.595-.209-17.101-.136-29.978-.34-34.252-.609-6.325-.399-14.425-1.225-18-1.836-3.575-.611-9.742-1.115-13.704-1.12-3.328-.003-11.794-.843-19.857-1.839-4.031-.498-7.962-1.034-11.1-1.523-3.137-.49-5.48-.933-6.34-1.243-.824-.297-7.574-.929-15-1.404-5.68-.363-15.29-1.545-25.36-3.033-10.072-1.488-20.606-3.28-28.14-4.87-3.661-.771-8.667-2.124-14.236-3.788a484.748 484.748 0 0 1-17.613-5.662c-5.912-2.022-11.603-4.09-16.293-5.934-4.69-1.844-8.378-3.466-10.283-4.598a49.34 49.34 0 0 1-5.85-4.107 64.479 64.479 0 0 1-5.63-5.176 79.023 79.023 0 0 1-5.303-6.072 90.155 90.155 0 0 1-4.864-6.797 95.623 95.623 0 0 1-4.312-7.352 94.418 94.418 0 0 1-3.65-7.736 87.137 87.137 0 0 1-2.881-7.951 75.552 75.552 0 0 1-1.998-7.994c-1.665-8.715-3.02-16.394-4.125-23.703a369.341 369.341 0 0 1-2.633-21.48c-.67-7.233-1.155-14.761-1.514-23.247-.358-8.486-.592-17.93-.762-28.998-.156-10.175-.43-20.95-.746-30.113-.315-9.164-.671-16.717-.994-20.445-.461-5.336-.688-9.095-.676-12.204.013-3.108.264-5.565.756-8.296.425-2.357.776-8.265 1.06-17.999.286-9.733.504-23.29.665-40.943.205-22.603.401-36.37.804-47.04.202-5.336.455-9.897.788-14.401.332-4.504.742-8.952 1.26-14.059 1.308-12.925 2.663-28.225 3.013-34 .249-4.098.579-8.135.977-12.014.397-3.878.862-7.597 1.38-11.06.518-3.463 1.09-6.67 1.7-9.524.609-2.853 1.255-5.353 1.925-7.402 1.35-4.125 3.838-14.25 5.528-22.5 1.69-8.25 4.14-19.275 5.445-24.5a1424.915 1424.915 0 0 0 4.58-19c1.214-5.225 4.396-16.123 7.072-24.219 2.677-8.095 5.812-18.22 6.97-22.5 1.156-4.279 3.01-11.156 4.118-15.28.618-2.3 1.172-5.341 1.612-8.733.439-3.393.763-7.135.922-10.832l.517-12.065-3.053-2.568c-.737-.62-1.3-1.116-1.742-1.69-.442-.573-.765-1.224-1.027-2.156-.524-1.864-.801-4.851-1.287-10.588-.553-6.527-1.286-17.494-1.627-24.369-.342-6.875-1.3-19.25-2.131-27.5a471.462 471.462 0 0 1-1.281-14.97 335.368 335.368 0 0 1-.668-13.51c-.12-4.269-.135-8.307-.047-12.13.088-3.821.28-7.428.578-10.831.298-3.403.702-6.604 1.213-9.616a87.206 87.206 0 0 1 1.853-8.478 65.304 65.304 0 0 1 2.504-7.428 51.668 51.668 0 0 1 3.158-6.457 46.503 46.503 0 0 1 3.467-5.094 68.418 68.418 0 0 1 4.502-5.2 95.92 95.92 0 0 1 5.444-5.262 128.074 128.074 0 0 1 6.296-5.278c4.464-3.512 9.438-7.001 14.801-10.406 5.363-3.405 11.116-6.726 17.14-9.898a285.693 285.693 0 0 1 18.768-9.012 288.118 288.118 0 0 1 19.678-7.748c6.632-2.33 13.296-4.388 19.873-6.11 3.289-.86 6.555-1.637 9.785-2.322 3.23-.685 6.425-1.278 9.567-1.771 7.421-1.165 16.646-2.974 20.5-4.02 3.282-.89 8.74-1.962 17.523-3.404 8.784-1.442 20.895-3.254 37.485-5.625 4.825-.69 12.902-1.347 23-1.944 10.098-.596 22.217-1.133 35.127-1.58 12.909-.446 26.609-.804 39.869-1.043 13.26-.238 26.08-.357 37.23-.33z" style="isolation:auto;mix-blend-mode:normal" color="#000" overflow="visible" fill="url(#b)" transform="translate(-169.16 -49.83)"/><path d="M527.713 419.928c-4.248-.263-8.561 1.153-11.975 4.566-4.394 4.394-6.14 9.96-4.87 15.526 1.207 5.295-.15 11.845-4.532 21.86-6.032 13.789-4.2 12.683-21.219 12.806-8.1.058-19.451.423-25.226.812-11.816.796-10.665 1.369-15.918-7.889-4.156-7.323-15.4-19.13-20.883-21.927-14.622-7.46-29.593.873-29.395 16.361.07 5.46 2.349 12.944 4.75 15.598 1.39 1.535.687 1.714-9.275 2.35-16.141 1.029-60.021 5.474-66.129 6.698-14.056 2.818-19.778 18.498-10.234 28.041 3.461 3.462 11.03 6.618 12.98 5.413 1.973-1.22 57.931-6.727 81.604-8.032 6.05-.333 12.449-.833 14.22-1.11 2.88-.448 3.285-.207 3.834 2.288 1.623 7.373 6.709 21.063 9.116 24.535 2.814 4.061 8.764 8.037 13.777 9.205 4.157.97 1.413 2.52-4.447 2.514-5.918-.006-57.237 6.31-61.61 7.582-1.823.53-2.195.094-2.738-3.217-.944-5.754-4.152-10.199-8.924-12.365-5.562-2.525-9.338-2.453-14.767.285-5.513 2.78-8.961 8.882-8.961 15.854 0 4.07-.305 4.757-2.338 5.267-1.286.323-3.544 1.537-5.02 2.697-10.417 8.195-6.418 26.187 6.405 28.81 3.787.774 3.442-.062 7.93 19.122 6.378 27.268 8.286 34.63 10.519 40.574 1.645 4.382 2.007 6.562 1.3 7.825-3.583 6.403-2.737 13.323 2.336 19.101 4.684 5.334 7.474 5.692 41.506 5.326l30.362-.326v21.18l-8.75 1.26c-4.813.693-14.078 2.363-20.588 3.714-6.51 1.351-17.31 3.346-24 4.432-6.69 1.086-15.537 2.875-19.662 3.979-4.125 1.103-13.21 3.034-20.188 4.29l-12.687 2.286-.553-2.21c-.776-3.09-6.813-8.127-11.188-9.335-4.421-1.221-11.48.069-16.246 2.967-3.369 2.048-7.078 8.66-7.117 12.687-.022 2.27-.828 3.206-6.808 7.906-1.808 1.42-3.997 3.957-4.866 5.637-2.184 4.223-2.02 11.872.34 15.914 1.648 2.822 6.424 6.931 9.272 7.977.475.174 1.37 5.412 1.988 11.64.618 6.229 1.795 15.004 2.617 19.5.823 4.497 2.376 16.726 3.451 27.176 1.076 10.45 2.411 21.737 2.969 25.082.558 3.345 1.018 9.195 1.021 13 .003 3.805.476 8.618 1.053 10.695 1.351 4.865 6.276 10.453 10.293 11.682 4.307 1.318 11.623.415 14.649-1.807 3.9-2.864 6.832-7.862 7.613-12.974.453-2.965-.081-11.267-1.457-22.678-1.194-9.9-2.861-24.728-3.705-32.951-.844-8.223-1.954-16.823-2.467-19.113-1.12-5.002-3.964-28.652-3.977-33.082l-.008-3.147 14.75-2.703c8.113-1.487 20.259-4.02 26.993-5.629 6.733-1.609 16.814-3.608 22.4-4.443 5.586-.835 13.8-2.355 18.256-3.375 11.19-2.564 22.617-4.371 23.3-3.688.314.314.06 5.42-.566 11.35-.625 5.93-1.389 13.743-1.697 17.363l-.559 6.582-16.19 5.649c-13.076 4.562-18.19 5.844-26.606 6.673-11.037 1.088-14.95 2.606-18.293 7.092-5.348 7.176-3.52 18.776 3.705 23.51 11.353 7.44 44.556.118 84.007-18.527 3.3-1.56 9.375-3.85 13.5-5.088s11.55-3.518 16.5-5.067c10.665-3.337 28.697-6.887 35.301-6.949 5.31-.05 11.443-1.962 14.15-4.412 1.713-1.55 1.938-1.453 3.805 1.654 1.092 1.816 3.947 7.116 6.344 11.778 7.235 14.07 12.04 17.831 21.428 16.773 8.414-.948 13.856-7.338 13.84-16.25-.007-4.03-1.018-6.99-5.207-15.267-7.26-14.344-12.561-22.253-22.204-33.13l-8.332-9.398 25.438.7c28.776.79 40.555 1.881 49.937 4.632 3.575 1.048 8.525 2.482 11 3.186l4.5 1.28-.127 9.5c-.069 5.224-1.306 16.355-2.75 24.735-2.207 12.82-2.62 18.214-2.6 34 .023 17.296.41 21.842 2.39 28.012.5 1.558.316 2.255-.596 2.264-2.831.029-40.17-12.133-50.438-16.428-16.194-6.774-25.22-6.98-31.48-.719-6.708 6.708-7.063 15.462-.91 22.47 2.495 2.841 5.975 4.377 24.707 10.903 11.991 4.178 28.78 9.707 37.304 12.286 8.525 2.578 19.55 5.985 24.5 7.57 17.58 5.63 26.047 5.682 32.565.197 6.976-5.87 7.805-13.134 2.982-26.137-6.454-17.4-8.047-25.616-8.047-41.505 0-10.29.573-17.565 1.961-24.85 4.269-22.406 5.31-43.258 2.608-52.238-3.553-11.807-14.288-20.235-31.528-24.756-17.871-4.687-25.796-5.886-47.04-7.115-23.983-1.389-85.04-1.573-106.25-.32l-14.75.87.007-5.87c.005-3.23.283-8.147.618-10.93l.607-5.061 15.133-1.293c18.444-1.575 46.842-3.11 67.51-3.648 17.038-.445 19.881-1.307 23.625-7.166 1.946-3.046 2.153-3.117 7.707-2.565 4.87.484 6.517.171 11.238-2.139 7.586-3.71 11.55-8.968 18.639-24.718 3.304-7.343 7.307-16.052 8.896-19.352 14.828-30.791 17.97-39.692 17.996-51 .006-2.75-.47-6.733-1.058-8.853-1.289-4.64-7.907-12.09-13.092-14.735-8.863-4.521-13.572-4.882-63.826-4.883-44.634 0-73.937 1.18-94.72 3.811-3.936.498-7.171.397-8.816-.275l-2.597-1.065 2.832-2.713c2.804-2.685 2.879-2.698 7.285-1.18 5.32 1.833 10.087 1.19 15.02-2.025 1.927-1.256 9.267-8.804 16.31-16.773l12.805-14.49 26.69-1.239c14.679-.68 33.216-1.688 41.19-2.24 7.976-.552 31.376-1.305 52-1.672 35.028-.623 37.724-.8 40.895-2.668 11.337-6.677 11.337-22.323 0-29-3.192-1.88-5.193-2-33.394-2-25.081 0-68.34 1.776-97.866 4.016-6.28.476-6.8.37-6.123-1.248 5.233-12.499 7.774-29.921 5.553-38.075-2.262-8.303-9.162-13.405-16.242-13.843zm-63.54 88.842l4.5.308-3.804 4.408-3.805 4.409-1.248-4.165c-.685-2.29-.997-4.412-.693-4.716.304-.304 2.576-.415 5.05-.244zm146.92 66.59l-.71 2.359c-.392 1.298-2.863 6.86-5.492 12.36-2.63 5.5-8.46 18.1-12.957 28-6.449 14.196-9.196 19.099-13 23.2-4.8 5.175-4.842 5.194-8.684 4.125-4.835-1.345-44.413-.309-66.271 1.735-8.476.792-17.831 1.44-20.79 1.44h-5.377l.29-8.75.289-8.75 6-.641c3.3-.353 18.73-.69 34.289-.75 26.946-.104 28.486-.007 32.435 2.007 13.378 6.825 27.928-3.639 24.737-17.789-1.668-7.392-7.226-12.135-18.086-15.433-6.362-1.933-8.795-2.03-43.182-1.721l-36.44.326-.644-8.398c-.355-4.62-.376-8.67-.047-9 1.627-1.634 36.108-3.197 82.29-3.729l51.35-.592zm-167.825 7.218c.341 0 .623 3.825.623 8.5v8.5l-19.25-.195c-10.588-.108-23.957-.445-29.71-.75-10.1-.535-10.481-.64-11.15-3.055-.38-1.375-.736-3.014-.79-3.644-.124-1.42 13.496-4 28.4-5.377 6.05-.56 15.556-1.685 21.127-2.498 5.57-.814 10.408-1.48 10.75-1.48zm.623 50v9.442c0 5.566-.437 9.71-1.06 10.095-.583.36-10.933.906-23 1.211-21.087.534-21.942.482-21.954-1.346-.007-1.045-1.15-5.462-2.541-9.816-2.003-6.271-2.259-8.088-1.236-8.736.71-.45 12.203-.826 25.54-.834l24.25-.016zM505.67 736.32l.74 4.377c.528 3.122 1.8 5.438 4.442 8.078l3.7 3.702-5.581.625c-3.07.343-9.306 1.524-13.86 2.623-4.553 1.099-12.379 3.284-17.39 4.855l-9.112 2.856.641-7.579c.352-4.168.64-9.7.64-12.29v-4.713l8.25-.614c4.538-.338 12.59-.909 17.891-1.267l9.639-.653z" fill="url(#d)" transform="translate(-169.16 -49.83)"/><path d="M262.113 73.906c-4.158-.048-8.298 1.522-11.498 4.721-5.614 5.614-6.326 9.69-4.449 25.467 1.54 12.946 2.448 43.105 1.33 44.222-.314.315-7.479 2.322-15.92 4.461-8.44 2.14-21.42 5.435-28.845 7.32-7.425 1.887-18.463 4.145-24.528 5.018-15.737 2.267-25.024 4.533-28.742 7.016-10.026 6.695-8.48 23.56 2.69 29.336 3.75 1.94 11.398 1.942 15.156.006 1.608-.829 8.099-2.284 14.424-3.236 12.898-1.942 25.833-4.76 43.353-9.444 6.52-1.743 12.032-2.992 12.248-2.775.518.517-3.474 11.964-8.101 23.23-2.033 4.95-5.944 15.3-8.688 23-4.752 13.333-11.507 26.855-19.984 40-5.676 8.801-7.911 11.116-12.014 12.432-4.725 1.516-10.34 7.723-11.219 12.402-.816 4.353.668 10.463 3.38 13.91 6.693 8.51 22.858 7.332 33.556-2.445 10.188-9.311 27.963-38.47 34.53-56.639 4.664-12.908 8.648-23.384 14.894-39.16 2.286-5.775 5.71-16.098 7.607-22.943 1.898-6.845 3.98-12.773 4.629-13.174.648-.4 2.782-1.013 4.742-1.361 1.96-.348 11.217-2.362 20.567-4.475 12.251-2.769 21.33-4.152 32.5-4.95 20.56-1.466 59.706-1.442 63.957.04 3.128 1.09 3.23 1.296 2.629 5.25-.344 2.263-1.887 6.588-3.43 9.613-38.52 75.528-38.075 74.295-38.881 107.44-.346 14.24-.132 22.63.672 26.222 1.413 6.313 9.1 18.517 15.71 24.942 6.9 6.705 25.685 15.22 36.843 16.7 1.65.218 10.895.465 20.545.548 19.46.166 25.409-.9 47.01-8.418 13.535-4.711 19.988-8.052 29.712-15.379 16.1-12.13 25.25-25.795 27.469-41.018 1.727-11.848.256-18.906-6.775-32.537-6.292-12.195-7.626-14.015-11.883-16.216-5.896-3.05-15.536-1.403-19.703 3.365-5.728 6.553-5.597 12.964.51 25.123 3.225 6.423 4.615 10.415 4.615 13.26 0 12.705-16.567 26.559-41 34.287-8.97 2.836-10.618 3.026-29.502 3.398l-20.004.395-7.496-3.805c-5.298-2.688-8.452-5.075-10.748-8.133l-3.25-4.328.017-14.172c.01-8.193.602-16.928 1.403-20.705 1.93-9.109 8.048-25.058 13.03-33.969 2.308-4.125 4.82-9.075 5.583-11 .762-1.925 5.147-10.475 9.744-19 10.303-19.106 12.276-24.748 12.943-37 .599-10.985-.405-15.67-4.765-22.252-3.72-5.616-9.592-9.648-20.354-13.972l-8.101-3.256-25.5-.01c-36.46-.014-57.92 1.67-76.479 6.002-8.22 1.918-15.3 3.488-15.734 3.488-.434 0-.787-4.404-.787-9.787 0-5.383-.638-14.946-1.416-21.25-.779-6.304-1.185-12.657-.903-14.117.803-4.147-2.328-13.339-5.69-16.7-3.273-3.274-7.45-4.94-11.609-4.988z"/></svg>