<svg xmlns:osb="http://www.openswatchbook.org/uri/2009/osb" xmlns="http://www.w3.org/2000/svg" height="948.89" width="557.981"><defs><linearGradient osb:paint="solid" id="c"><stop offset="0" stop-color="#fff"/></linearGradient><linearGradient osb:paint="solid" id="b"><stop offset="0"/></linearGradient><linearGradient osb:paint="solid" id="a"><stop offset="0" stop-color="#162d50"/></linearGradient><linearGradient osb:paint="solid" id="d"><stop offset="0" stop-color="#d40000"/></linearGradient></defs><path d="M589.447 42.93a489.828 489.828 0 0 0-40.959 1.002 553.188 553.188 0 0 0-21.148 1.816 688.771 688.771 0 0 0-22.322 2.723c-4.125.568-18.3 1.416-31.5 1.883-6.529.23-12.055.474-16.83.76-4.776.284-8.801.61-12.329 1.005-3.527.396-6.557.86-9.341 1.424a79.682 79.682 0 0 0-7.872 2.012c-3.645 1.127-10.453 2.85-15.128 3.828-4.675.978-13.675 3.213-20 4.969-6.325 1.755-13.75 3.779-16.5 4.496-6.397 1.667-11.998 3.251-17.13 4.886-5.131 1.636-9.794 3.323-14.316 5.198-4.522 1.874-8.902 3.936-13.468 6.322-4.567 2.386-9.32 5.095-14.586 8.264-6.875 4.136-17.9 10.349-24.5 13.806-5.858 3.07-11.18 6.165-15.97 9.285a139.248 139.248 0 0 0-6.782 4.702 110.107 110.107 0 0 0-5.98 4.74 86.779 86.779 0 0 0-5.18 4.781 68.472 68.472 0 0 0-4.38 4.82 54.605 54.605 0 0 0-3.58 4.864 44.466 44.466 0 0 0-2.78 4.904c-1.592 3.29-2.83 5.972-3.8 8.46-.97 2.49-1.672 4.783-2.191 7.294-.52 2.51-.856 5.239-1.096 8.596-.239 3.356-.38 7.342-.51 12.369-.15 5.835-.237 10.392-.216 13.978.02 3.586.149 6.2.427 8.147.279 1.946.709 3.225 1.332 4.14.312.458.672.825 1.086 1.139.415.314.884.575 1.413.822.983.46 1.813 1.057 2.529 1.89.716.835 1.317 1.907 1.84 3.315.523 1.409.967 3.156 1.37 5.338.405 2.183.769 4.801 1.128 7.957.211 1.857.353 5.13.435 9.473.083 4.343.105 9.754.076 15.885-.057 12.26-.318 27.4-.71 42.623-.393 15.223-.918 30.532-1.502 43.133-.585 12.6-1.228 22.493-1.86 26.886-.435 3.025-.83 6.857-1.119 10.592-.288 3.735-.468 7.374-.47 10.016-.006 5.283-.513 15.63-1.13 22.992-.321 3.84-.471 8.594-.476 13.722-.005 5.129.135 10.632.394 15.971.26 5.339.637 10.515 1.108 14.987.47 4.471 1.035 8.24 1.666 10.767.355 1.424.666 3.562.93 6.457s.481 6.546.654 10.996c.345 8.9.507 20.994.486 36.623-.02 15.63-.224 34.791-.611 57.824-.388 23.034-.96 49.94-1.715 81.053a382.181 382.181 0 0 0-.037 17.074c.112 5.198.343 9.622.674 12.426.617 5.225 1.575 19.85 2.13 32.5 1.108 25.207 2.117 46.402 3.09 64.367.974 17.966 1.912 32.703 2.873 44.993.962 12.29 1.95 22.133 3.022 30.312.536 4.09 1.093 7.764 1.68 11.12a171.59 171.59 0 0 0 1.857 9.208c.595 2.567 1.544 5.422 2.764 8.41 1.22 2.989 2.708 6.11 4.383 9.207a106.96 106.96 0 0 0 5.496 9.065c1.96 2.893 4.021 5.605 6.1 7.982 2.635 3.016 4.914 5.482 7.126 7.596 2.213 2.114 4.36 3.876 6.73 5.484 2.372 1.609 4.968 3.062 8.08 4.559 3.113 1.497 6.74 3.039 11.177 4.82 2.091.84 6.341 1.936 11.857 3.131 5.516 1.195 12.298 2.49 19.451 3.73a674.151 674.151 0 0 0 21.682 3.403c7.003.976 13.483 1.743 18.549 2.144 5.775.458 18.825 1.594 29 2.524 15.324 1.4 25.38 2.201 35.39 2.623 10.01.422 19.972.464 35.11.348 9.078-.07 17.683-.274 25.154-.584 7.47-.31 13.806-.727 18.346-1.223 7.975-.871 28.45-2.304 45.5-3.186 12.54-.648 22.4-1.18 30.36-1.67 7.963-.49 14.028-.938 18.98-1.423 4.951-.486 8.789-1.007 12.298-1.64 3.51-.635 6.69-1.382 10.324-2.32a427.525 427.525 0 0 0 18.59-5.255 426.993 426.993 0 0 0 17.903-5.92c5.71-2.034 11.094-4.105 15.935-6.133 4.842-2.028 9.142-4.014 12.688-5.885 1.135-.598 2.654-1.66 4.453-3.078 1.798-1.418 3.877-3.19 6.129-5.213 4.503-4.043 9.702-9.08 14.758-14.25 5.055-5.17 9.966-10.475 13.892-15.052 1.963-2.29 3.68-4.395 5.045-6.213 1.365-1.818 2.38-3.348 2.938-4.48.61-1.24 1.086-2.284 1.462-3.335.377-1.051.654-2.11.864-3.38.42-2.54.574-5.926.732-11.786.09-3.326.098-6.496.008-9.738-.09-3.242-.279-6.555-.588-10.168-.617-7.226-1.712-15.65-3.437-27.094-1.078-7.15-3.04-21.1-4.362-31-1.32-9.9-3.079-22.05-3.908-27-.829-4.95-2.208-15.075-3.064-22.5-1.775-15.383-2.443-20.287-6.256-46l-2.744-18.5.011-76.5c.005-33.701.059-53.182.303-65.56.123-6.19.292-10.603.528-14.13.235-3.526.536-6.167.92-8.81 1.257-8.671 2.128-14.944 2.91-21.224.781-6.281 1.473-12.57 2.377-21.276.885-8.525 2.014-18.425 2.51-22 1.266-9.132 2.275-17.75 3.08-26.4.804-8.65 1.403-17.335 1.847-26.6.53-11.044 1.012-18.908 1.75-26.83.738-7.921 1.73-15.9 3.28-27.17 1.08-7.865 1.933-14.319 2.603-19.992.67-5.673 1.157-10.566 1.51-15.309.352-4.742.57-9.334.699-14.406.128-5.072.168-10.623.166-17.285a788.034 788.034 0 0 0-.293-21.217c-.18-6.345-.426-11.453-.695-13.79-.54-4.676-1.446-18.4-2.016-30.5-.353-7.48-.846-14.46-1.502-21.143a326.156 326.156 0 0 0-2.47-19.358c-1.615-10.175-3.221-20.975-3.571-24-.404-3.493-1.199-7.59-2.268-11.935-1.068-4.346-2.41-8.94-3.906-13.424-1.495-4.485-3.144-8.862-4.828-12.772-1.684-3.91-3.403-7.352-5.037-9.972-.926-1.485-2.082-2.937-3.463-4.356-1.381-1.419-2.988-2.805-4.82-4.156-1.832-1.351-3.889-2.666-6.166-3.947a89.445 89.445 0 0 0-7.494-3.737 129.961 129.961 0 0 0-8.809-3.515 182.515 182.515 0 0 0-10.105-3.29 248.548 248.548 0 0 0-11.391-3.054c-4.01-.979-8.23-1.917-12.66-2.814-12.335-2.5-19.936-3.95-27.153-4.956-3.608-.503-7.12-.894-11.08-1.251-3.96-.358-8.367-.68-13.767-1.043-9.64-.649-18.924-1.056-28.07-1.213z" style="isolation:auto;mix-blend-mode:normal" color="#000" overflow="visible" fill="url(#c)" transform="translate(-221.01 -25.554)"/><path d="M560.936 25.588c-8.485.074-15.45.278-19.418.635-9.942.893-18.053 1.677-25.061 2.433-7.008.756-12.911 1.483-18.44 2.258-2.887.405-7.12.772-11.617 1.037-4.496.265-9.254.427-13.19.424-4.824-.003-9.907.152-14.96.434-5.053.282-10.074.69-14.773 1.195-4.7.505-9.076 1.104-12.84 1.77-3.764.664-6.915 1.395-9.162 2.158-2.514.853-9.608 2.643-15.764 3.976-6.156 1.334-15.243 3.58-20.193 4.99-4.95 1.412-12.15 3.406-16 4.434-7.638 2.04-14.135 3.899-19.97 5.785-5.833 1.887-11.004 3.8-15.991 5.946-4.987 2.145-9.79 4.52-14.887 7.335-5.097 2.816-10.488 6.07-16.652 9.967-4.125 2.608-12.516 7.256-18.647 10.328-6.442 3.229-10.693 5.476-14.656 7.916-3.963 2.44-7.637 5.073-12.926 9.067a106.892 106.892 0 0 0-6.842 5.613 93.087 93.087 0 0 0-6.064 5.932 83.877 83.877 0 0 0-5.303 6.271 78.784 78.784 0 0 0-4.557 6.64 77.354 77.354 0 0 0-3.824 7.032 79.59 79.59 0 0 0-3.11 7.447 85.649 85.649 0 0 0-2.41 7.891 95.88 95.88 0 0 0-1.724 8.36c-.527 3.268-.83 7.934-.918 13.665-.089 5.731.036 12.528.358 20.055.32 7.528.84 15.787 1.543 24.445a792.269 792.269 0 0 0 2.646 26.838c.176 1.524.471 2.941.86 4.211.387 1.27.868 2.393 1.417 3.324.55.932 1.168 1.674 1.828 2.182.661.508 1.364.783 2.086.783.3 0 .531.305.702 1.19.17.885.279 2.35.334 4.67.109 4.64 0 12.703-.276 26.39-.36 17.95-.813 31.983-1.447 43.856a559.771 559.771 0 0 1-1.1 16.408 420 420 0 0 1-1.447 14.486c-.435 3.697-.866 10.55-1.234 19.176-.369 8.627-.674 19.029-.858 29.824-.261 15.358-.353 24.9-.21 31.705.07 3.403.2 6.123.396 8.543.196 2.421.46 4.543.797 6.752 1.003 6.574 1.797 12.066 2.416 16.97.618 4.906 1.062 9.224 1.367 13.446.305 4.223.471 8.35.533 12.875.062 4.525.02 9.447-.09 15.26-.238 12.622-.96 49.5-1.605 81.95-.602 30.301-.825 55.249-.668 74.71.078 9.73.25 18.09.517 25.06.268 6.971.63 12.553 1.086 16.73.571 5.224 1.496 20.974 2.055 35 .751 18.835 1.429 33.683 2.064 45.085.636 11.402 1.23 19.36 1.809 24.414.568 4.95 1.283 15.188 1.592 22.748.161 3.955.508 8.313.994 12.783.486 4.471 1.11 9.054 1.826 13.461s1.525 8.638 2.377 12.403c.853 3.764 1.75 7.062 2.645 9.605a107.91 107.91 0 0 0 7.988 17.543 105.861 105.861 0 0 0 5.039 8.02 102.386 102.386 0 0 0 5.662 7.424 97.654 97.654 0 0 0 6.225 6.761 91.924 91.924 0 0 0 6.73 6.03 85.637 85.637 0 0 0 7.178 5.23 79.215 79.215 0 0 0 7.568 4.36c2.44 1.23 4.97 2.385 7.553 3.456a120.377 120.377 0 0 0 7.873 2.946c2.654.889 5.325 1.68 7.978 2.363 2.654.683 5.29 1.256 7.874 1.709 13.494 2.365 26.951 4.532 37.72 6.11 10.77 1.577 18.85 2.567 21.598 2.581 3.4.018 9.332.452 13.182.963 3.85.512 17.79 1.65 30.978 2.53 13.188.88 24.177 1.796 24.418 2.037.28.28 3.9.438 9.355.494 5.457.056 12.752.01 20.385-.111a1113.9 1113.9 0 0 0 22.414-.569c6.81-.25 12.46-.554 15.45-.887 7.15-.795 19.75-1.9 28-2.455 8.25-.555 22.425-1.506 31.5-2.113s24.6-1.485 34.5-1.951c9.9-.466 20.7-1.281 24-1.813 4.448-.716 10.504-2.14 17.35-4.003 6.844-1.864 14.477-4.166 22.073-6.641 7.597-2.475 15.158-5.121 21.862-7.672 6.703-2.55 12.549-5.005 16.715-7.096 2.606-1.308 4.818-2.501 6.962-3.851 2.145-1.35 4.222-2.857 6.555-4.787 2.333-1.93 4.923-4.285 8.096-7.334 3.173-3.05 6.928-6.793 11.592-11.5 4.698-4.742 8.62-8.811 11.906-12.381 3.285-3.57 5.932-6.641 8.078-9.389 2.146-2.748 3.79-5.171 5.07-7.447 1.28-2.276 2.195-4.403 2.881-6.557.523-1.638.95-3.702 1.285-6.125.336-2.423.58-5.204.735-8.281.154-3.077.22-6.449.2-10.049-.019-3.6-.125-7.43-.314-11.424-.376-7.987-1.082-16.628-2.095-25.406-1.013-8.777-2.333-17.69-3.934-26.215-.774-4.125-2.135-13.575-3.023-21-.889-7.425-2.26-16.875-3.047-21-.788-4.125-2.326-15.375-3.418-25-1.972-17.38-4.69-37.871-7.694-58-.301-2.02-.557-4.434-.777-7.547-.22-3.112-.404-6.921-.562-11.728-.317-9.614-.53-23.22-.72-43.225-.126-13.464-.16-25.524-.093-36.324.067-10.8.234-20.342.504-28.771.27-8.43.645-15.746 1.129-22.098.484-6.352 1.077-11.74 1.783-16.307.808-5.225 1.938-14 2.51-19.5.572-5.5 2.586-22.89 4.477-38.644.945-7.878 1.921-17.16 2.732-25.77.81-8.61 1.456-16.545 1.742-21.73a914.803 914.803 0 0 1 2.469-33.742c.999-10.804 2.167-21.086 3.482-30.614 1.038-7.515 1.868-13.852 2.528-19.549.66-5.696 1.15-10.752 1.511-15.703.362-4.95.592-9.797.733-15.076.14-5.28.191-10.99.19-17.672a854.185 854.185 0 0 0-.278-21.36c-.169-6.434-.4-11.665-.654-14.14-.509-4.95-1.42-18.9-2.024-31-.495-9.91-1.013-17.552-1.764-25.021-.75-7.47-1.732-14.765-3.158-23.979-.51-3.3-1.652-10.95-2.539-17-1.182-8.072-2.217-13.918-3.515-19.217a111.644 111.644 0 0 0-2.196-7.746c-.832-2.584-1.78-5.24-2.898-8.177-2.47-6.496-4.776-11.89-6.973-16.293-1.098-2.202-2.17-4.154-3.22-5.873-1.051-1.72-2.082-3.206-3.098-4.471a34.488 34.488 0 0 0-2.93-3.186 47.88 47.88 0 0 0-3.629-3.152c-2.648-2.087-5.746-4.141-9.261-6.145-3.516-2.003-7.45-3.954-11.766-5.835-4.317-1.882-9.018-3.694-14.07-5.416-3.556-1.213-8.16-2.518-13.399-3.83-5.239-1.313-11.111-2.635-17.205-3.88a496.507 496.507 0 0 0-18.53-3.42c-6.12-1.007-12.047-1.852-17.366-2.453-3.25-.366-8.132-.7-14.026-.992-5.894-.29-12.799-.539-20.094-.734-14.59-.39-30.736-.569-43.462-.457zm28.511 17.342c9.147.157 18.431.564 28.07 1.213 5.4.363 9.808.685 13.768 1.043 3.96.357 7.472.748 11.08 1.251 7.216 1.007 14.817 2.456 27.153 4.956 4.43.897 8.65 1.835 12.66 2.814 4.009.979 7.807 1.997 11.39 3.055a182.515 182.515 0 0 1 10.106 3.289 129.961 129.961 0 0 1 8.808 3.515 89.445 89.445 0 0 1 7.495 3.737c2.277 1.28 4.334 2.596 6.166 3.947 1.831 1.351 3.439 2.737 4.82 4.156 1.381 1.42 2.537 2.871 3.463 4.356 1.634 2.62 3.353 6.063 5.037 9.972 1.684 3.91 3.333 8.287 4.828 12.772 1.495 4.484 2.838 9.078 3.906 13.424 1.069 4.345 1.864 8.442 2.268 11.935.35 3.025 1.956 13.825 3.57 24a326.156 326.156 0 0 1 2.47 19.358c.656 6.682 1.15 13.663 1.503 21.142.57 12.1 1.477 25.825 2.015 30.5.27 2.338.517 7.446.696 13.791.179 6.346.29 13.928.293 21.217.002 6.662-.038 12.213-.166 17.285a289.192 289.192 0 0 1-.7 14.406c-.352 4.743-.84 9.636-1.51 15.309s-1.522 12.127-2.603 19.992c-1.549 11.27-2.541 19.249-3.28 27.17-.737 7.922-1.22 15.786-1.75 26.83-.443 9.265-1.042 17.95-1.847 26.6-.804 8.65-1.814 17.268-3.08 26.4-.496 3.575-1.625 13.475-2.51 22-.903 8.705-1.595 14.995-2.377 21.276-.781 6.28-1.652 12.553-2.91 21.224a108.855 108.855 0 0 0-.92 8.81c-.235 3.527-.405 7.94-.527 14.13-.245 12.378-.298 31.859-.303 65.56l-.011 76.5 2.744 18.5c3.813 25.713 4.48 30.617 6.256 46 .856 7.425 2.235 17.55 3.064 22.5.829 4.95 2.587 17.1 3.908 27 1.321 9.9 3.283 23.85 4.362 31 1.725 11.445 2.82 19.868 3.437 27.094.309 3.613.498 6.926.588 10.168.09 3.242.082 6.412-.008 9.738-.158 5.86-.312 9.245-.732 11.785-.21 1.27-.487 2.33-.864 3.381-.376 1.051-.852 2.095-1.463 3.334-.557 1.133-1.572 2.663-2.937 4.48-1.366 1.819-3.082 3.925-5.045 6.214-3.926 4.577-8.837 9.882-13.893 15.052-5.055 5.17-10.254 10.207-14.757 14.25-2.252 2.022-4.33 3.795-6.13 5.213-1.798 1.418-3.317 2.48-4.452 3.078-3.547 1.87-7.846 3.857-12.688 5.885-4.842 2.028-10.225 4.099-15.936 6.133a426.993 426.993 0 0 1-17.902 5.92 427.525 427.525 0 0 1-18.59 5.256c-3.635.937-6.815 1.684-10.324 2.318-3.51.634-7.347 1.155-12.299 1.64-4.951.486-11.016.935-18.978 1.425-7.962.49-17.822 1.021-30.362 1.67-17.05.88-37.525 2.314-45.5 3.185-4.539.496-10.875.912-18.345 1.223-7.47.31-16.076.514-25.155.584-15.138.116-25.1.074-35.109-.348-10.01-.422-20.066-1.223-35.39-2.623-10.176-.93-23.226-2.066-29-2.524-5.066-.4-11.546-1.168-18.55-2.144a674.151 674.151 0 0 1-21.681-3.402c-7.153-1.241-13.935-2.536-19.451-3.73-5.516-1.196-9.766-2.292-11.858-3.132-4.436-1.781-8.063-3.323-11.175-4.82-3.113-1.497-5.71-2.95-8.08-4.559-2.372-1.608-4.519-3.37-6.731-5.484-2.212-2.114-4.49-4.58-7.127-7.596-2.078-2.377-4.139-5.089-6.1-7.982a106.96 106.96 0 0 1-5.496-9.065c-1.674-3.097-3.163-6.218-4.382-9.207-1.22-2.988-2.169-5.843-2.764-8.41a171.59 171.59 0 0 1-1.858-9.209 263.213 263.213 0 0 1-1.68-11.119c-1.072-8.18-2.059-18.022-3.02-30.312-.963-12.29-1.9-27.027-2.874-44.993-.973-17.965-1.982-39.16-3.09-64.367-.555-12.65-1.514-27.275-2.13-32.5-.332-2.804-.562-7.228-.674-12.426-.113-5.198-.107-11.17.037-17.074.755-31.114 1.327-58.02 1.715-81.053.387-23.033.59-42.195.611-57.824.02-15.629-.141-27.723-.486-36.623-.173-4.45-.39-8.101-.655-10.996-.264-2.895-.574-5.033-.93-6.457-.63-2.527-1.194-6.296-1.665-10.767-.471-4.472-.849-9.648-1.108-14.987a328.6 328.6 0 0 1-.394-15.97c.005-5.129.155-9.882.476-13.723.616-7.362 1.124-17.709 1.13-22.992.001-2.642.182-6.28.47-10.016.288-3.735.684-7.567 1.119-10.592.632-4.393 1.275-14.286 1.86-26.886.584-12.601 1.109-27.91 1.501-43.133.393-15.224.654-30.362.711-42.623.029-6.13.006-11.542-.076-15.885s-.224-7.616-.435-9.473c-.36-3.156-.723-5.774-1.127-7.957-.404-2.182-.849-3.93-1.372-5.338-.522-1.408-1.123-2.48-1.84-3.314-.715-.834-1.546-1.431-2.529-1.89-.528-.248-.997-.509-1.412-.823a4.794 4.794 0 0 1-1.086-1.139c-.624-.915-1.053-2.194-1.332-4.14-.278-1.946-.407-4.56-.427-8.147-.021-3.586.066-8.143.216-13.978.13-5.027.27-9.013.51-12.37.24-3.356.576-6.084 1.096-8.595.52-2.51 1.221-4.805 2.191-7.293.97-2.489 2.208-5.171 3.799-8.461a44.466 44.466 0 0 1 2.781-4.904 54.605 54.605 0 0 1 3.58-4.864 68.472 68.472 0 0 1 4.38-4.82 86.779 86.779 0 0 1 5.179-4.781 110.107 110.107 0 0 1 5.98-4.74 139.248 139.248 0 0 1 6.784-4.702c4.788-3.12 10.11-6.216 15.968-9.285 6.6-3.457 17.625-9.67 24.5-13.806 5.267-3.169 10.02-5.878 14.586-8.264 4.567-2.386 8.947-4.448 13.47-6.322 4.52-1.875 9.184-3.562 14.315-5.198 5.132-1.635 10.733-3.219 17.13-4.886 2.75-.717 10.174-2.741 16.5-4.496 6.324-1.756 15.324-3.991 20-4.97 4.674-.977 11.483-2.7 15.128-3.827a79.682 79.682 0 0 1 7.871-2.012c2.785-.563 5.815-1.028 9.342-1.424 3.528-.395 7.553-.72 12.328-1.006 4.776-.285 10.302-.529 16.83-.76 13.2-.466 27.375-1.314 31.5-1.882a688.771 688.771 0 0 1 22.323-2.723 553.188 553.188 0 0 1 21.148-1.816 489.828 489.828 0 0 1 40.959-1.002z" style="isolation:auto;mix-blend-mode:normal" color="#000" overflow="visible" fill="url(#b)" transform="translate(-221.01 -25.554)"/><path d="M540.402 571.365c-22.694 0-33.331.56-66.45 3.498-21.688 1.924-43.26 4.175-47.934 5-11.774 2.08-17.222 1.978-18.67-.342-2.653-4.247-12.66-6.5-18.69-4.208-2.688 1.022-12.54 10.443-15.258 14.591-1.033 1.578-1.668 4.585-1.668 7.905 0 6.453 2.67 11.372 7.622 14.039 3.321 1.789 3.44 2.086 6.605 16.55 3.604 16.47 4.979 25.782 5.027 34.07.024 4.126.625 6.475 2.282 8.909 4.061 5.968 6.915 7.362 15.503 7.582 4.261.11 11.122.681 15.247 1.271 4.125.59 14.137 1.089 22.25 1.106 14.59.03 14.751.054 14.851 2.28.12 2.677.107 20.985-.015 21.857-.047.333-4.138.91-9.09 1.285-4.953.374-13.615 1.513-19.25 2.531-5.635 1.018-13.396 2.168-17.246 2.555-7.467.75-20.263 3.27-32.496 6.4-6.805 1.741-7.767 1.778-10.424.404-5.614-2.903-13.073-1.791-19.785 2.948-1.343.948-2.514.908-5.5-.186-8.656-3.169-17.414-.805-21.506 5.805-2.706 4.369-2.805 12.621-.205 17.021 2.476 4.193 8.747 8.249 14.916 9.645l5 1.13.597 16.428c.329 9.035 1.764 27.001 3.19 39.926 1.425 12.925 2.89 30.976 3.254 40.112.574 14.425.946 17.118 2.826 20.47 3.151 5.618 7.822 8.414 14.031 8.414 8.277-.006 13.775-4.468 15.67-12.722 1.095-4.772-.45-30.02-3.84-62.774-1.423-13.75-2.766-30.934-2.984-38.19l-.397-13.19 3.826-.954a1989.22 1989.22 0 0 1 5.827-1.443c1.1-.27 5.375-1.402 9.5-2.516 8.344-2.252 24.859-5.207 29.103-5.207 1.513 0 7.171-.862 12.574-1.918 5.403-1.055 12.66-2.068 16.127-2.25l6.303-.332.197 25.887c.19 25.06.132 25.91-1.804 26.637-1.1.413-7.625 2.144-14.5 3.847-32.022 7.933-36.846 9.954-40.875 17.123-6.481 11.531.654 25.006 13.24 25.006 3.067 0 6.066-.713 8.017-1.908 3.264-1.999 23.123-7.934 35.118-10.496 37.48-8.005 63.728-11.596 84.775-11.596 13.33 0 15.746-.679 20.371-5.728l3.361-3.67 4.094 3.949c5.52 5.326 12.124 13.966 14.867 19.45 1.239 2.474 3.44 5.806 4.893 7.404 2.222 2.444 2.322 2.781.639 2.125-1.1-.43-5.375-.977-9.5-1.217-8.607-.5-12.504 1.188-16.004 6.93-3.958 6.491-2.216 16.817 3.586 21.26 2.868 2.195 13.054 4.998 30.824 8.482 15.175 2.974 35.614 9.447 45.094 14.279 2.2 1.121 5.125 2.405 6.5 2.853 1.375.449 5.082.691 8.236.538 4.657-.227 6.442-.851 9.5-3.323 6.679-5.398 7.674-8.163 7.475-20.754-.097-6.092-.906-14.903-1.797-19.578-1.144-5.999-1.867-18.357-2.455-42-.71-28.515-1.151-34.913-2.967-43-1.174-5.225-2.482-14.45-2.908-20.5-1.115-15.817-3.72-20.181-16.301-27.308-14.169-8.027-24.669-9.03-94.283-9.024-29.7.003-56.475-.035-59.5-.082l-5.5-.086.154-9.5c.084-5.225.197-10.449.25-11.61.095-2.084.311-2.103 18.346-1.61 14.33.391 19.86.95 25.75 2.593 11.322 3.161 15.877 2.869 21.433-1.373 2.918-2.227 5.69-3.5 7.625-3.5 6.779 0 11.057-4.163 17.47-17 2.062-4.125 7.682-13.35 12.49-20.5 11.08-16.481 14.157-24.414 14.347-37.015.118-7.865-.191-9.655-2.422-14-3.052-5.946-10.314-11.44-18.147-13.729-18.118-5.292-22.176-5.756-50.412-5.756zm16.004 32.147c4.883.135 7.409.492 9.676 1.127 2.99.837 7.106 1.81 9.147 2.162 3.502.605 3.656.786 2.732 3.217-.538 1.416-3.166 5.785-5.838 9.71-7.907 11.616-14.735 22.748-17.723 28.887-1.538 3.163-3.042 5.699-3.34 5.635-1.929-.415-11.613-3.273-11.93-3.521-.212-.168.987-1.586 2.665-3.153 5.183-4.841 6.282-13.205 2.668-20.283-3.451-6.759-18.408-12.224-34.445-12.584-5.775-.13-10.838-.26-11.25-.29-.413-.029-.75-2.028-.75-4.44 0-4.15.175-4.42 3.25-5.03 1.787-.354 15.88-.91 31.314-1.238 11.702-.248 18.942-.334 23.824-.2zm-90.388 4.642v3.106c0 2.136-.482 3.105-1.545 3.105-.851 0-9.738.886-19.75 1.969-10.012 1.083-20.343 2.224-22.955 2.535-3.747.446-4.75.26-4.75-.887 0-.799-.248-2.102-.553-2.896-.437-1.139.881-1.57 6.25-2.04 3.742-.326 10.853-1.239 15.803-2.028 4.95-.79 13.162-1.758 18.25-2.15l9.25-.714zm41.992 38.89c2.902.116 5.431.42 7.508.913 4.816 1.143 4.568 1.192-6.75 1.299-7.24.068-11.75-.275-11.75-.89 0-.55.562-1.043 1.25-1.095 3.563-.268 6.84-.342 9.742-.226zm-47.533.444c2.222.008 3.54.301 3.54.877 0 .6-3.494.948-8.75.867-8.031-.122-8.339-.197-3.75-.912 3.613-.562 6.738-.84 8.96-.832zm69.728 3.196c.798.319.562.555-.603.603-1.055.044-1.645-.193-1.313-.525.332-.333 1.194-.367 1.916-.078zm24.77 86.332c30.737.165 62.718.649 68.08 1.3 12.599 1.531 13.958 2.485 13.984 9.823.011 3.15 1.184 11.126 2.606 17.726 2.353 10.932 2.653 14.983 3.369 45.5.432 18.425 1.112 34.513 1.511 35.75.919 2.843-.023 2.811-8.668-.295-3.663-1.316-11.556-3.394-17.54-4.617l-10.883-2.223 4.043-2.132c5.928-3.127 8.546-7.544 8.52-14.38-.014-3.374-.797-7.31-1.972-9.898-11.073-24.4-59.465-65.205-77.328-65.205-9.377 0-15.91 6.57-15.91 16 0 7.401 3.337 12.415 10.262 15.418l3.469 1.504-5.62.04c-4.445.03-24.207 1.782-37.343 3.31-1.907.221-1.961-.456-1.815-23.014.083-12.784.362-23.584.62-24 .383-.62 29.877-.773 60.615-.607zM420.518 454.365c-10.582 0-16.503 4.999-17.3 14.602-.453 5.476 1.003 9.09 10.907 27.047l2.84 5.148-2.223.55c-1.223.303-9.874 1.03-19.224 1.618-15.02.945-24.174 1.672-62.03 4.926-10.18.875-13.148 2.301-17.617 8.47-7.132 9.847-.509 24.307 11.34 24.758 1.819.07 12.082-.81 22.807-1.955 10.725-1.144 30.3-2.773 43.5-3.619 13.2-.846 26.287-1.806 29.082-2.135l5.082-.597 2.168 5.945c4.37 11.985 10.854 18.303 19.521 19.022 10.08.835 16.634-4.573 17.45-14.399.334-4.033-.053-6.25-1.618-9.252l-2.058-3.947 6.187-.654c3.403-.36 15.41-1.728 26.686-3.04 11.275-1.311 24.662-2.698 29.75-3.08 8.76-.657 9.25-.59 9.25 1.268 0 3.043-2.969 12.321-5.612 17.541-3.427 6.769-3.251 13.291.496 18.465 2.689 3.71 5.79 5.641 10.616 6.607 10.851 2.172 20.33-8.176 24.49-26.738.532-2.375 2.17-7.562 3.638-11.525l2.67-7.205 42.602.654c23.43.36 45.565.696 49.187.744 7.697.103 11.903-1.862 15.125-7.066 2.718-4.39 2.806-12.618.182-17.075-4.725-8.025-11.736-9.036-62.894-9.06l-36-.018V479.46c0-10.702-.057-10.98-3.096-14.75-9.482-11.764-25.708-13.734-32.674-3.969-3.26 4.57-3.18 14.793.152 19.465 2.16 3.028 2.272 3.703 1.21 7.25-.645 2.151-1.716 3.906-2.381 3.9-12.475-.117-35.574 1.384-51.711 3.362-11.275 1.382-24.89 2.83-30.254 3.219l-9.754.705-1.162-3.387c-.64-1.863-3.519-8.114-6.397-13.889-2.878-5.775-5.475-12.19-5.771-14.258-1.163-8.107-7.405-12.742-17.162-12.742z" fill="url(#d)" transform="translate(-221.01 -25.554)"/><path d="M434.793 266.882c-11.634-.014-26.711.07-46.422.197-105.8.68-107.122.731-154.863 6.144-22.55 2.557-43.475 5.07-46.5 5.584-3.025.514-11.35 1.426-18.5 2.028-7.15.601-17.725 1.958-23.5 3.013-11.122 2.032-24.523 2.581-34.586 1.418-7.265-.839-12.189 1.02-15.684 5.92-3.232 4.532-3.18 14.794.1 19.39 2.477 3.474 6.76 6.136 11.67 7.253 3.469.79 30.95.393 36.949-.533 2.228-.344 7.2-1.235 11.05-1.979 3.85-.744 10.6-1.642 15-1.994 4.4-.353 14.75-1.5 23-2.549 8.25-1.05 27.6-3.272 43-4.94 15.4-1.667 31.826-3.525 36.5-4.128 4.676-.603 21.326-1.381 37-1.73 30.506-.68 148.13-.828 159.106-.2 5.534.317 7.201.011 10.275-1.889 4.731-2.923 6.997-7.321 6.997-13.576 0-6.102-2.254-10.647-6.602-13.314-5.164-3.168-9.088-4.074-43.99-4.115zM330.68 88.188c-25.543-.034-51.56.572-61.172 1.842-7.15.945-19.435 2.21-27.301 2.814-17.047 1.308-28.656 3.243-56.7 9.444-35.126 7.767-47.318 11.486-73.853 22.531-7.919 3.296-15.152 5.992-16.072 5.992-3.055 0-7.483 2.975-10.045 6.744-3.71 5.46-3.537 12.565.44 18.055 2.984 4.12 5.245 5.775 9.974 7.305 4.234 1.37 10.34.175 18.668-3.653 4.339-1.994 11.362-4.919 15.605-6.5 4.244-1.58 9.42-3.73 11.5-4.777 12.184-6.124 75.436-20.178 101.784-22.615 19.651-1.818 33.868-3.232 44.5-4.426 4.125-.463 24.6-.722 45.5-.574 32.043.227 40.194.59 52 2.312 22.468 3.28 31.519 3.69 35.873 1.623 5.099-2.42 7.902-6.751 8.421-13.013.552-6.656-1.781-11.78-6.906-15.172-3.07-2.031-5.681-2.674-13.594-3.342-5.386-.455-14.52-1.62-20.294-2.588-7.72-1.293-32.786-1.967-58.329-2.002zm2.923 69.024c-28.567.249-69.116 3.288-90.095 7.296-9.285 1.774-28.116 2.097-41.745.715-6.21-.63-7.058-.476-10.72 1.948-4.953 3.277-7.266 7.617-7.266 13.64 0 9.39 5.624 15.296 16.104 16.916 8.461 1.308 43.018.488 51.136-1.215 24.206-5.075 79.004-8.314 105.16-6.214 9.043.725 9.91.628 13.354-1.5 5.263-3.253 7.47-7.385 7.47-13.987 0-10.83-5.293-15.29-19.993-16.851-5.692-.605-13.882-.831-23.405-.748z"/></svg>