<svg xmlns:osb="http://www.openswatchbook.org/uri/2009/osb" xmlns="http://www.w3.org/2000/svg" height="957.829" width="600.937"><defs><linearGradient osb:paint="solid" id="c"><stop offset="0" stop-color="#fff"/></linearGradient><linearGradient osb:paint="solid" id="b"><stop offset="0"/></linearGradient><linearGradient osb:paint="solid" id="a"><stop offset="0" stop-color="#162d50"/></linearGradient><linearGradient osb:paint="solid" id="d"><stop offset="0" stop-color="#d40000"/></linearGradient></defs><path d="M567.275 39.1c-16.941 0-27.18.07-35.847.421-4.334.176-8.274.422-12.461.764-4.187.342-8.622.78-13.946 1.34-6.98.734-11.977 1.244-16.177 1.736-4.2.493-7.603.97-11.397 1.639-7.587 1.34-16.737 3.453-36.949 8.018-12.784 2.887-23.756 5.432-33.328 7.748-9.572 2.315-17.743 4.402-24.93 6.373-7.187 1.97-13.389 3.826-19.02 5.68a260.318 260.318 0 0 0-15.591 5.67c-3.854 1.543-6.898 2.803-9.793 4.22-2.895 1.417-5.642 2.992-8.9 5.164-3.259 2.172-7.028 4.94-11.971 8.748-4.944 3.808-11.061 8.654-19.012 14.979a336.366 336.366 0 0 0-15.584 13.19c-4.933 4.44-9.554 8.873-13.707 13.14-4.153 4.266-7.839 8.365-10.902 12.138a100.61 100.61 0 0 0-4.108 5.397c-1.2 1.704-2.228 3.306-3.06 4.787-1.42 2.527-2.857 5.606-4.258 9.068-1.401 3.462-2.766 7.306-4.043 11.366a197.124 197.124 0 0 0-3.512 12.654 184.85 184.85 0 0 0-2.66 12.926c-.777 4.646-1.398 9.862-1.851 15.144a248.497 248.497 0 0 0-.85 15.537c-.108 4.909-.039 9.378.22 12.905.13 1.763.308 3.292.534 4.521.226 1.229.501 2.158.826 2.727.393.687.754 1.864 1.02 3.205.265 1.34.435 2.845.445 4.193.02 2.695.747 8.416 1.617 12.711.622 3.07 1 6.24 1.188 10.883.187 4.643.184 10.758.046 19.717-.173 11.311-.265 17.024-.7 20.964-.219 1.97-.523 3.497-.966 5.059-.442 1.562-1.024 3.158-1.796 5.268-5.574 15.212-8.904 24.545-10.971 31.117-1.034 3.286-1.75 5.882-2.275 8.178a62.594 62.594 0 0 0-1.12 6.376c-.608 4.856-1.982 14.778-3.054 22.051-.555 3.766-.955 7.237-1.194 10.551a96.46 96.46 0 0 0-.232 9.604 93.3 93.3 0 0 0 .748 9.47c.415 3.225.998 6.564 1.752 10.153 3.32 15.806 6.168 29.862 7.008 34.593.448 2.528 2.84 11.078 5.316 19a3952.501 3952.501 0 0 1 7.088 22.907c.71 2.337 1.747 6.769 2.844 12.025a470.941 470.941 0 0 1 3.207 16.975c1.105 6.53 2.294 12.607 3.49 17.888 1.196 5.282 2.4 9.767 3.531 13.112 1.954 5.775 4.397 14.55 5.43 19.5 1.033 4.95 2.631 12.15 3.55 16 1.81 7.574 3.217 13.56 4.325 18.597 1.108 5.037 1.917 9.124 2.531 12.899a144.273 144.273 0 0 1 1.363 11.025c.33 3.788.568 7.901.819 12.979.374 7.57 1.145 15.994 2.074 23.377.465 3.69.97 7.121 1.484 10.054.515 2.933 1.038 5.369 1.541 7.069.408 1.375 1.168 5.325 2.065 10.582a758.676 758.676 0 0 1 2.885 18.418 621.19 621.19 0 0 0 3.017 18.859c.98 5.528 1.855 9.853 2.389 11.64 1.067 3.576 2.446 9.876 3.064 14 .619 4.126 1.723 9.526 2.455 12 .74 2.498 1.992 6.109 3.598 10.44a612.861 612.861 0 0 0 5.725 14.76c4.316 10.754 9.42 22.815 14.045 33.03a75.526 75.526 0 0 0 3.097 6.085 79.04 79.04 0 0 0 3.672 5.861 83.798 83.798 0 0 0 4.237 5.625 89.706 89.706 0 0 0 4.789 5.373 96.848 96.848 0 0 0 5.328 5.114 105.096 105.096 0 0 0 5.855 4.836 114.48 114.48 0 0 0 6.37 4.548c2.207 1.467 4.499 2.884 6.872 4.249a258.477 258.477 0 0 0 9.983 5.447c3.05 1.572 5.576 2.775 6.842 3.228 2.532.908 7.903 3.166 11.937 5.018 2.975 1.366 6.214 2.647 10.025 3.92 3.812 1.273 8.196 2.539 13.463 3.877 5.268 1.338 11.42 2.747 18.762 4.306 7.343 1.56 15.878 3.27 25.916 5.21 5.775 1.115 31.65 4.72 57.5 8.01 25.85 3.289 51.916 6.675 57.924 7.523 6.008.847 13.433 1.54 16.5 1.539 3.067-.001 10.751.659 17.076 1.466 6.325.808 17.575 1.958 25 2.555 3.713.299 8.044.784 12.031 1.326 3.988.543 7.632 1.143 9.97 1.668 4.674 1.05 13.674 2.591 20 3.424 6.324.833 12.624 1.69 14 1.902 1.435.223 4.234.37 7.698.45 3.464.08 7.593.091 11.69.045 4.096-.047 8.16-.152 11.494-.309 3.333-.157 5.936-.367 7.111-.62a21.386 21.386 0 0 0 3.133-.927 22.918 22.918 0 0 0 3.055-1.433c2.017-1.131 4.002-2.617 5.988-4.49 1.986-1.874 3.972-4.136 5.996-6.82 2.024-2.682 4.086-5.786 6.219-9.345 1.398-2.333 2.578-4.56 3.586-6.844a51.59 51.59 0 0 0 2.55-7.187c.708-2.563 1.29-5.348 1.788-8.52.498-3.171.914-6.73 1.295-10.84.763-8.25 2.115-21.974 3.005-30.5.778-7.45 1.349-13.805 1.979-22.945.63-9.14 1.321-21.066 2.34-39.66.515-9.408 1.466-20.883 2.111-25.5.323-2.308.71-8.401 1.072-16.357.363-7.956.702-17.775.93-27.537 1.204-51.474 1.953-81.99 2.518-100.403.282-9.207.52-15.387.744-19.65.225-4.263.437-6.608.672-8.14.564-3.682 1.044-11.107 1.068-16.5.024-5.395.475-14.532 1.002-20.307.527-5.775 1.646-18.825 2.484-29 .839-10.175 1.935-20.75 2.438-23.5.503-2.75.942-7.7.974-11 .017-1.65.255-4.52.625-7.813.371-3.293.874-7.01 1.42-10.357.896-5.491 1.614-10.675 2.176-16.084.563-5.41.97-11.046 1.244-17.444.275-6.398.418-13.558.452-22.013.033-8.456-.045-18.207-.208-29.79-.168-11.962-.442-23.512-.748-32.484-.305-8.972-.643-15.365-.939-17.015-.317-1.767-.687-10.72-1.05-24.567-.365-13.847-.722-32.589-1.013-53.933-.669-49.253-1.176-78.705-1.85-97.555-.336-9.425-.713-16.2-1.173-21.475-.46-5.274-1.003-9.048-1.67-12.47a212.334 212.334 0 0 0-4.523-18.655 198.074 198.074 0 0 0-5.944-17.44c-2.178-5.508-4.534-10.663-7.006-15.31-1.235-2.323-2.5-4.52-3.787-6.57a77.466 77.466 0 0 0-3.916-5.695c-1.555-2.047-3.393-4.074-5.482-6.065-2.09-1.99-4.43-3.944-6.988-5.847a102.336 102.336 0 0 0-8.305-5.54c-2.966-1.784-6.12-3.5-9.43-5.134a153.55 153.55 0 0 0-10.365-4.639 170.237 170.237 0 0 0-11.113-4.049 177.672 177.672 0 0 0-23.707-5.949c-12.181-2.17-21.957-3.856-30.5-5.164-8.544-1.308-15.856-2.236-23.112-2.895-7.255-.658-14.456-1.045-22.773-1.267-8.317-.223-17.751-.281-29.479-.281z" style="isolation:auto;mix-blend-mode:normal" color="#000" overflow="visible" fill="url(#c)" transform="translate(-199.532 -21.086)"/><path d="M568.498 21.086c-16.976-.006-27.354.066-36.299.42s-16.457.99-27.7 2.111c-7.477.746-13.13 1.312-18.071 1.895-4.942.582-9.173 1.18-13.81 1.99-4.639.809-9.682 1.83-16.247 3.254-6.565 1.424-14.651 3.254-25.373 5.683-19.342 4.383-37.328 8.78-51.799 12.618-7.235 1.918-13.59 3.696-18.797 5.263-5.207 1.568-9.265 2.924-11.904 3.996a888.477 888.477 0 0 1-14.559 5.743 63.289 63.289 0 0 0-7.418 3.38c-2.546 1.362-5.247 3.014-8.35 5.124-3.101 2.11-6.603 4.677-10.75 7.867-4.146 3.19-8.938 7.004-14.618 11.607-5.77 4.676-10.986 8.964-15.715 12.945-4.729 3.982-8.971 7.657-12.795 11.106-3.824 3.448-7.227 6.672-10.281 9.748-3.055 3.076-5.759 6.006-8.18 8.871a104.263 104.263 0 0 0-6.484 8.48 91.516 91.516 0 0 0-5.198 8.57 106.68 106.68 0 0 0-4.316 9.143c-1.338 3.197-2.597 6.57-3.846 10.2a167.219 167.219 0 0 0-4.228 14.34c-1.234 4.98-2.319 10.265-3.328 16.16l-2.91 17-.012 50.814c-.003 12.882.004 22.694.072 30.197.068 7.504.198 12.7.438 16.35.24 3.65.59 5.755 1.101 7.078.256.662.552 1.129.895 1.494.342.366.73.63 1.172.89.423.25.742.431.867.872.125.44.056 1.143-.3 2.434-.71 2.581-2.562 7.522-6.282 17.459-1.681 4.489-3.04 8.218-4.158 11.494-1.119 3.275-1.997 6.095-2.717 8.765a94.694 94.694 0 0 0-1.77 7.864c-.487 2.673-.897 5.502-1.314 8.789-.664 5.225-1.837 13.325-2.608 18-.474 2.877-.824 6.656-1.052 10.85a236.29 236.29 0 0 0-.32 13.327c.013 4.53.148 8.982.402 12.866.254 3.883.626 7.198 1.117 9.457.836 3.85 2.38 11.5 3.43 17 1.942 10.183 3.268 16.762 4.638 22.505 1.37 5.744 2.784 10.653 4.902 17.495 4.153 13.411 6.752 22.191 8.698 29.916.973 3.862 1.783 7.46 2.543 11.242.759 3.782 1.467 7.746 2.238 12.342a292.599 292.599 0 0 0 3.332 16.812c1.22 5.31 2.504 10.135 3.723 13.906 2.172 6.722 4.418 14.597 4.99 17.5 1.382 7.016 5.692 25.789 7.64 33.282 1.072 4.118 2.13 9.61 2.924 14.828.795 5.217 1.327 10.158 1.342 13.172.014 2.75.48 9.387 1.035 14.75l2.073 20c.292 2.818.777 6.25 1.324 9.507.546 3.258 1.154 6.343 1.691 8.467.537 2.125 1.36 6.45 2.25 11.705a615.061 615.061 0 0 1 2.666 17.295 557.234 557.234 0 0 0 2.82 17.963c.987 5.669 1.941 10.563 2.624 13.313 1.364 5.5 3.21 13.815 4.1 18.48.42 2.205 1.082 4.822 2.001 7.897.92 3.074 2.096 6.604 3.545 10.632 2.898 8.057 6.885 18.108 12.084 30.49 3.122 7.438 5.726 13.435 8.107 18.465 2.382 5.03 4.541 9.094 6.772 12.663a74.577 74.577 0 0 0 3.437 5.04 75.579 75.579 0 0 0 3.768 4.657c2.672 3.053 5.713 6.085 9.416 9.568 4.416 4.153 7.746 7.055 11.35 9.701 3.603 2.647 7.479 5.038 12.982 8.17a268.385 268.385 0 0 0 11.15 5.994c3.444 1.743 6.338 3.09 7.85 3.62 3.025 1.06 8.471 3.296 12.104 4.968 1.991.917 4.716 1.97 7.86 3.065a235.938 235.938 0 0 0 10.386 3.32 272.816 272.816 0 0 0 11.033 3.022c3.577.895 6.95 1.647 9.805 2.166 11.707 2.124 23.822 4.493 34.312 6.709 2.475.522 10.102 1.672 20.397 3.103a2861.079 2861.079 0 0 0 36.398 4.791c26.287 3.296 52.577 6.666 58.424 7.486 5.846.821 13.101 1.493 16.123 1.493 3.021 0 10.48.655 16.576 1.457 6.095.801 17.382 1.93 25.082 2.51 3.85.289 7.97.72 11.504 1.183 3.534.462 6.484.955 7.996 1.367 2.912.794 8.782 1.86 15.49 2.877 6.708 1.018 14.253 1.988 20.51 2.586 2.95.282 6.728.492 10.848.63 4.12.14 8.58.208 12.89.204 4.311-.004 8.475-.08 12-.225 3.526-.145 6.414-.36 8.176-.646 2.447-.397 4.669-.909 6.744-1.58a32.72 32.72 0 0 0 5.867-2.537c1.862-1.034 3.655-2.27 5.46-3.752 1.804-1.483 3.62-3.213 5.525-5.233 2.17-2.3 4.223-4.684 6.146-7.128a100.3 100.3 0 0 0 5.36-7.487 90.77 90.77 0 0 0 4.476-7.699 77.825 77.825 0 0 0 3.496-7.764c.801-2.085 1.519-4.364 2.166-6.931.648-2.567 1.225-5.422 1.748-8.655.524-3.232.994-6.843 1.424-10.925.43-4.083.82-8.636 1.186-13.752.354-4.95 1.3-14.175 2.103-20.5.402-3.163.93-9.245 1.457-16.495a1120.62 1120.62 0 0 0 1.452-23.505c.796-15.675 1.901-33.9 2.455-40.5.553-6.6 1.454-17.4 2.002-24 .273-3.3.583-11.7.86-22.575.28-10.875.527-24.225.675-37.425.148-13.2.39-26.326.662-36.838.272-10.513.573-18.412.838-21.162.529-5.5 1.421-22.15 1.984-37 .563-14.85 1.673-34.425 2.467-43.5l2.451-28c.554-6.325 1.472-14.2 2.04-17.5.566-3.3 1.024-8.25 1.017-11-.007-2.75.875-11.3 1.96-19 1.087-7.7 2.446-18.972 3.02-25.047.338-3.577.593-10.61.762-19.33.17-8.721.254-19.132.254-29.467 0-10.335-.085-20.594-.254-29.014-.169-8.42-.422-14.999-.76-17.972-.509-4.477-.95-9.787-1.34-16.489-.39-6.701-.728-14.792-1.031-24.826-.607-20.068-1.074-47.91-1.537-87.955-.467-40.368-.703-60.66-1.147-72.713-.221-6.027-.495-9.995-.875-13.383-.379-3.387-.864-6.195-1.51-9.904-1.35-7.761-2.896-15.02-4.65-21.822-.877-3.401-1.805-6.689-2.789-9.865a182.07 182.07 0 0 0-3.115-9.208 157.031 157.031 0 0 0-3.451-8.584 137.846 137.846 0 0 0-3.801-7.99 123.704 123.704 0 0 0-4.16-7.427 114.028 114.028 0 0 0-4.533-6.9 85.249 85.249 0 0 0-13.23-14.67 92.717 92.717 0 0 0-5.263-4.302c-3.657-2.775-7.619-5.372-11.912-7.806-4.292-2.435-8.916-4.708-13.894-6.84a188.047 188.047 0 0 0-12.291-4.773 191.39 191.39 0 0 0-12.977-3.995c-4.541-1.229-9.348-2.37-14.576-3.463-5.227-1.092-10.875-2.138-17.094-3.177-9.697-1.621-17.832-2.906-25.256-3.92-7.423-1.015-14.135-1.758-20.984-2.301-6.849-.543-13.835-.884-21.808-1.09-7.974-.206-16.934-.277-27.733-.281zM567.275 39.1c11.728 0 21.162.058 29.479.28 8.317.223 15.518.61 22.773 1.268 7.256.659 14.568 1.587 23.112 2.895 8.543 1.308 18.319 2.994 30.5 5.164a177.672 177.672 0 0 1 23.707 5.95 170.237 170.237 0 0 1 11.113 4.048 153.55 153.55 0 0 1 10.365 4.639c3.31 1.634 6.464 3.35 9.43 5.135a102.336 102.336 0 0 1 8.305 5.539c2.559 1.903 4.899 3.857 6.988 5.847 2.089 1.99 3.927 4.018 5.482 6.065a77.466 77.466 0 0 1 3.916 5.695 106.395 106.395 0 0 1 3.787 6.57c2.472 4.647 4.828 9.802 7.006 15.31a198.074 198.074 0 0 1 5.944 17.44 212.334 212.334 0 0 1 4.523 18.655c.667 3.422 1.21 7.196 1.67 12.47.46 5.274.837 12.05 1.174 21.475.673 18.85 1.18 48.302 1.85 97.555.29 21.344.647 40.086 1.011 53.933.364 13.847.734 22.8 1.05 24.567.297 1.65.635 8.043.94 17.015.306 8.972.58 20.522.748 32.485.163 11.582.24 21.333.207 29.789-.033 8.455-.176 15.615-.45 22.013-.275 6.398-.682 12.034-1.245 17.444-.562 5.41-1.28 10.593-2.176 16.084a218.725 218.725 0 0 0-1.42 10.357c-.37 3.293-.608 6.163-.625 7.813-.032 3.3-.471 8.25-.974 11s-1.6 13.325-2.438 23.5c-.838 10.175-1.957 23.225-2.484 29-.527 5.775-.978 14.912-1.002 20.306-.024 5.394-.504 12.82-1.068 16.5-.235 1.533-.447 3.878-.672 8.14-.225 4.264-.462 10.445-.744 19.651-.565 18.414-1.314 48.929-2.518 100.403a1292.29 1292.29 0 0 1-.93 27.537c-.362 7.956-.75 14.049-1.072 16.357-.645 4.617-1.596 16.092-2.111 25.5-1.019 18.594-1.71 30.52-2.34 39.66-.63 9.14-1.2 15.494-1.979 22.946-.89 8.525-2.242 22.25-3.005 30.5-.38 4.11-.797 7.668-1.295 10.84-.499 3.171-1.08 5.956-1.787 8.519a51.59 51.59 0 0 1-2.551 7.187c-1.008 2.284-2.188 4.51-3.586 6.844-2.133 3.559-4.195 6.663-6.219 9.346s-4.01 4.945-5.996 6.818c-1.986 1.874-3.97 3.36-5.988 4.49a22.918 22.918 0 0 1-3.055 1.434c-1.03.392-2.073.7-3.133.928-1.175.252-3.778.462-7.111.619-3.334.157-7.398.262-11.494.309-4.097.046-8.226.034-11.69-.045-3.464-.08-6.263-.227-7.699-.45-1.375-.212-7.675-1.069-14-1.902s-15.325-2.373-20-3.424c-2.337-.525-5.981-1.125-9.969-1.668-3.987-.542-8.318-1.027-12.03-1.326-7.426-.597-18.676-1.747-25-2.555-6.326-.807-14.01-1.467-17.077-1.466-3.067 0-10.492-.692-16.5-1.54-6.008-.847-32.074-4.233-57.924-7.523s-51.725-6.894-57.5-8.01c-10.038-1.939-18.573-3.649-25.916-5.209-7.343-1.56-13.494-2.968-18.762-4.306-5.267-1.338-9.651-2.604-13.463-3.877-3.811-1.273-7.05-2.554-10.025-3.92-4.034-1.852-9.405-4.11-11.937-5.018-1.266-.453-3.793-1.656-6.842-3.228a258.477 258.477 0 0 1-9.983-5.447 125.031 125.031 0 0 1-6.873-4.249 114.48 114.48 0 0 1-6.369-4.548 105.096 105.096 0 0 1-5.855-4.836 96.848 96.848 0 0 1-5.328-5.114 89.706 89.706 0 0 1-4.79-5.373 83.798 83.798 0 0 1-4.236-5.625 79.04 79.04 0 0 1-3.672-5.86 75.526 75.526 0 0 1-3.097-6.087c-4.626-10.214-9.73-22.274-14.045-33.03a612.861 612.861 0 0 1-5.725-14.759c-1.606-4.331-2.859-7.942-3.598-10.44-.732-2.474-1.836-7.874-2.455-12-.618-4.124-1.997-10.424-3.064-14-.534-1.787-1.409-6.112-2.389-11.64a621.19 621.19 0 0 1-3.017-18.86 758.676 758.676 0 0 0-2.885-18.417c-.897-5.257-1.657-9.207-2.065-10.582-.503-1.7-1.026-4.136-1.54-7.069-.515-2.932-1.02-6.363-1.485-10.054-.93-7.383-1.7-15.807-2.074-23.377-.251-5.078-.49-9.19-.819-12.979a144.273 144.273 0 0 0-1.363-11.025c-.614-3.775-1.423-7.862-2.531-12.899-1.108-5.036-2.515-11.023-4.324-18.597-.92-3.85-2.518-11.05-3.551-16-1.033-4.95-3.476-13.725-5.43-19.5-1.131-3.345-2.335-7.83-3.531-13.112-1.196-5.281-2.386-11.358-3.49-17.888a470.941 470.941 0 0 0-3.207-16.975c-1.097-5.256-2.133-9.688-2.844-12.025a3952.501 3952.501 0 0 0-7.088-22.907c-2.476-7.922-4.868-16.472-5.316-19-.84-4.731-3.688-18.787-7.008-34.593-.754-3.589-1.337-6.928-1.752-10.153a93.296 93.296 0 0 1-.748-9.47 96.599 96.599 0 0 1 .232-9.604c.24-3.314.639-6.785 1.194-10.55 1.072-7.274 2.446-17.196 3.054-22.051a62.594 62.594 0 0 1 1.12-6.377c.524-2.296 1.241-4.892 2.275-8.178 2.067-6.572 5.397-15.905 10.97-31.117.773-2.11 1.355-3.706 1.797-5.268.443-1.562.747-3.088.965-5.059.436-3.94.528-9.653.701-20.964.138-8.96.14-15.074-.046-19.717-.188-4.643-.566-7.813-1.188-10.883-.87-4.295-1.598-10.016-1.617-12.71a23.31 23.31 0 0 0-.445-4.194c-.266-1.341-.627-2.518-1.02-3.205-.325-.569-.6-1.498-.826-2.727-.226-1.229-.404-2.758-.533-4.521-.26-3.527-.33-7.996-.221-12.905.108-4.908.396-10.255.85-15.537.453-5.282 1.074-10.497 1.851-15.144a184.85 184.85 0 0 1 2.66-12.926 197.124 197.124 0 0 1 3.512-12.654c1.277-4.06 2.642-7.904 4.043-11.366 1.401-3.462 2.838-6.541 4.258-9.068.832-1.481 1.86-3.083 3.06-4.787a100.61 100.61 0 0 1 4.108-5.397c3.063-3.773 6.749-7.872 10.902-12.138 4.153-4.267 8.774-8.7 13.707-13.14a336.366 336.366 0 0 1 15.584-13.19c7.951-6.325 14.068-11.171 19.012-14.979 4.943-3.807 8.712-6.576 11.97-8.748 3.259-2.172 6.006-3.747 8.9-5.164 2.896-1.417 5.94-2.677 9.794-4.22a260.318 260.318 0 0 1 15.592-5.67c5.63-1.854 11.832-3.71 19.02-5.68 7.186-1.971 15.357-4.058 24.929-6.373 9.572-2.316 20.544-4.861 33.328-7.748 20.212-4.565 29.362-6.678 36.95-8.018 3.793-.67 7.196-1.146 11.396-1.639 4.2-.492 9.197-1.002 16.177-1.736 5.324-.56 9.759-.998 13.946-1.34 4.187-.342 8.127-.588 12.46-.763 8.667-.352 18.907-.422 35.848-.422z" style="isolation:auto;mix-blend-mode:normal" color="#000" overflow="visible" fill="url(#b)" transform="translate(-199.532 -21.086)"/><path d="M386.365 496.867c-8.714 0-15.079 5.866-16.344 15.063-1.2 8.726 3.404 37.245 12.54 77.67 2.673 11.828 7.299 21.789 11.855 25.527 5.171 4.243 5.97 5.09 8.4 8.918 3.702 5.83 7.131 7.125 21.422 8.088 7.018.473 18.61 1.555 25.76 2.404 7.15.85 17.856 1.548 23.791 1.553l10.793.01-.693 7.75c-.38 4.262-.961 10-1.291 12.75l-.6 5-7 .224c-9.591.309-26.41 2.03-42.178 4.315-7.247 1.05-19.919 2.586-28.16 3.412-12.885 1.292-36.795 5.585-39.125 7.025-.415.257-1.528-2.383-2.47-5.867-4.438-16.393-20.038-23.16-31.067-13.476-5.9 5.18-6.895 14.196-2.377 21.547 2.866 4.662 4.643 12.395 3.652 15.882-1.36 4.79.044 11.162 3.27 14.836 3.128 3.563 8.209 17.145 9.41 25.155.403 2.685 2.29 9.846 4.193 15.914 1.903 6.067 4.333 16.227 5.399 22.576 2.858 17.016 4.306 21.138 8.88 25.271 9.245 8.352 23.685 4.387 27.241-7.48 1.016-3.39.936-5.157-.475-10.697-.93-3.65-2.367-10.687-3.197-15.637-.83-4.95-2.84-13.275-4.469-18.5-1.628-5.225-3.906-13.921-5.064-19.324-1.158-5.404-2.734-11.61-3.504-13.793-1.082-3.066-1.123-4.063-.18-4.381 5.665-1.913 21.13-4.78 29.721-5.51 5.775-.49 18.594-2.045 28.486-3.455 16.507-2.353 46.458-5.145 46.86-4.367.093.18.02 13.436-.166 29.455l-.338 29.125-4.172.57c-2.294.314-9.57.864-16.17 1.223-15.442.839-18.612 1.681-22.353 5.943-3.967 4.518-5.423 9.772-4.084 14.744 1.384 5.14 6.298 10.497 10.77 11.739 4.782 1.328 19.384 1.304 30.43-.051 7.573-.929 9.368-.844 13.208.623 5.46 2.085 10.42 1.375 16.03-2.293 4.225-2.764 8.628-3.573 36.5-6.71 22.208-2.498 36.303-4.658 39.75-6.089 1.787-.742 4.372-2.558 5.743-4.037l2.492-2.69 1.44 3.444c3.036 7.265 3.005 8.578-.278 12.316-8.804 10.028-4.464 23.013 9.147 27.371 18.11 5.8 55.601 14.18 73.705 16.475 9.323 1.182 17.894-1.4 23.197-6.988 3.209-3.38 4.912-7.266 8.844-20.174 8.154-26.768 11.77-35.898 25.043-63.246 7.629-15.719 14.606-31.452 15.506-34.963 2.932-11.447.081-22.574-7.889-30.791-5.479-5.65-9.858-7.828-23.2-11.547l-11.001-3.066-62-.368c-55.5-.327-93.732.475-116.853 2.452l-6.854.585.723-10.86c.397-5.975.838-10.996.98-11.157.142-.161 4.026.169 8.631.732 14.05 1.72 30.954 1.589 34.543-.267 13.498-6.98 11.353-26.366-3.393-30.662-2.077-.606-10.917-1.507-19.644-2.004-8.727-.498-16.114-1.153-16.416-1.455-1.235-1.235.665-1.368 7.299-.514 3.841.495 9.909.912 13.484.93 3.575.017 10.117.75 14.54 1.629 9.673 1.92 14.755.957 19.384-3.672 6.995-6.996 5.896-20.069-2.127-25.319-4.182-2.736-14.11-4.677-28.797-5.63-20.183-1.31-19.884-1.22-18.978-5.772.404-2.036 1.505-5.47 2.445-7.63.94-2.162 1.535-5.425 1.322-7.25l-.387-3.321h12.762c7.02 0 17.394.472 23.05 1.05 14.45 1.477 50.207 6.076 50.67 6.518.213.202-4.176 9.547-9.753 20.764-10.267 20.652-15.882 28.887-20.488 30.043-3.726.935-9.329 7.807-10.104 12.394-2.028 12.005 8.337 21.835 20.217 19.172 6.69-1.5 12.055-4.62 17.707-10.3 5.539-5.568 15.414-20.001 17.543-25.641.727-1.925 3.97-8.772 7.209-15.215 7.474-14.87 11.75-27.34 12.48-36.402.5-6.209.254-7.818-1.94-12.608-4.285-9.36-12.698-13.957-28.905-15.793a1596.53 1596.53 0 0 1-20.272-2.472c-27.175-3.51-34.85-4.024-96.078-6.436-13.2-.52-27.825-1.22-32.5-1.559-4.675-.338-18.625-1.029-31-1.535-30.895-1.263-38.68-2.307-41.209-5.521-2.879-3.66-7.492-5.692-12.924-5.692zm19.567 42.465c.206-.206 6.155.31 13.22 1.145 7.066.835 23.421 1.793 36.346 2.13 22.589.59 39.54 1.698 40.492 2.65.25.25.003 2.084-.547 4.075s-1.325 6.204-1.722 9.361c-.764 6.062-.982 6.28-5.723 5.76-5.545-.609-36.868-3.284-51.5-4.398-13.146-1.002-25.37-2.993-26.73-4.354-.739-.738-4.294-15.911-3.836-16.369zm14.484 52.492l3.791.676c2.085.372 10.991 1.096 19.791 1.61 8.8.512 22.075 1.615 29.5 2.45 7.425.836 13.87 1.525 14.32 1.53.451.005.676 1.022.5 2.26-.307 2.163-.726 2.253-10.82 2.347-5.775.054-12.3-.072-14.5-.277-9.349-.873-39.88-4.378-39.982-4.59a295.88 295.88 0 0 1-1.356-3.12l-1.244-2.886zm185.32 97.338c45.125-.348 91.4.07 97.557 1.574 3.688.901 7.104 1.998 7.592 2.438 1.02.919-1.618 6.846-16.438 36.926-9.947 20.19-15.206 33.517-21.4 54.25-1.438 4.812-2.712 8.698-2.832 8.636-.12-.061-2.467-.52-5.217-1.02-2.75-.498-9.725-1.979-15.5-3.29-5.775-1.312-13.94-3.16-18.144-4.106l-7.643-1.72.514-5.668c1.292-14.249-13.358-40.82-30.524-55.364-2.036-1.725-6.212-5.476-9.28-8.334-8.93-8.32-16.696-9.036-24.423-2.252-8.057 7.075-6.15 21.996 3.709 29.016l3.201 2.28-7.955 1.234c-4.375.679-11.555 1.526-15.955 1.88-4.4.356-12.385 1.278-17.744 2.051-5.359.774-10.421 1.407-11.25 1.407-1.295 0-1.501-2.919-1.475-20.75.029-19.177 1.122-34.738 2.543-36.16 1.562-1.564 45.54-2.68 90.664-3.028zM433.46 364.715c-3.912-.13-7.875 1.368-11.45 4.508-6.021 5.286-6.742 11.638-3.106 27.377 1.271 5.5 2.162 10.173 1.98 10.386-.537.632-28.059 3.862-38.886 4.563-5.5.356-15.4 1.577-22 2.713-7.467 1.285-19.366 2.322-31.5 2.746-11.854.414-20.34 1.144-21.643 1.863-3.368 1.86-7.21 6.971-8.31 11.055-2.086 7.745 3.418 17.136 11.295 19.273 5.737 1.557 40.66.553 51.658-1.484 4.675-.866 15.925-2.255 25-3.086 14.966-1.37 26.05-2.6 36.178-4.016l3.678-.515.654 5.75c3.007 26.41 13.5 41.115 27.637 38.726 11.234-1.898 16.86-15.823 10.36-25.644-2.283-3.452-5.284-14.637-5.472-20.4-.036-1.128 30.332-2.861 71.426-4.077l21.963-.65-1.895 2.898c-3.404 5.208-12.365 17.087-16.447 21.803-4.298 4.965-5.687 9.48-4.73 15.377.808 4.982 3.418 8.286 8.668 10.969 10.78 5.508 18.609.795 33.664-20.258 6.46-9.035 10.116-15.7 14.668-26.742l1.546-3.75 32.801.107c18.04.06 42.701.534 54.801 1.053 12.1.518 24.515 1.031 27.588 1.14 4.706.167 6.238-.253 9.715-2.664 4.657-3.228 8.197-9.55 8.197-14.636 0-5.044-3.6-11.59-7.82-14.213-4.01-2.493-10.514-2.844-81.438-4.38l-26.758-.577 1.856-2.666c7.069-10.158 4.755-24.096-4.8-28.914-2.455-1.238-5.848-2.25-7.54-2.25-1.692 0-5.085 1.012-7.539 2.25-3.865 1.949-5.063 3.4-8.961 10.857-2.475 4.735-6.057 11.311-7.959 14.613l-3.459 6.004-9.54.633c-5.249.348-16.067.645-24.042.662-14.086.03-45.098 1.207-67.539 2.56l-11.037.665-1.647-7.373a1630.08 1630.08 0 0 1-3.334-15.362c-1.419-6.722-2.265-8.568-5.337-11.64-3.37-3.369-7.23-5.125-11.143-5.254z" fill="url(#d)" transform="translate(-199.532 -21.086)"/><path d="M287.216 78.336c-8.089-.637-14.789 4.38-18.244 13.92-3.504 9.672-8.047 18.142-17.037 31.758-11.94 18.083-15.018 21.892-39.424 48.83-35.362 39.029-41.703 46.607-65.436 78.17-13.858 18.431-17.34 24.839-17.34 31.918 0 7.439 4.543 14.158 10.85 16.046 9.103 2.726 17.719-1.734 21.742-11.253 2.385-5.643 34.11-46.889 48.762-63.399 3.508-3.952 15.544-17.227 26.748-29.5 11.204-12.272 22.94-25.687 26.08-29.812 10.772-14.15 23.886-34.51 29.951-46.5 7.29-14.41 9.539-22.152 8.047-27.69-1.454-5.4-6.302-10.561-11.152-11.867a19.53 19.53 0 0 0-3.547-.621zm95.527 22.26c-8.815-.33-17.031 6.4-16.986 16.207.04 8.707 12.086 38.838 32.664 81.71 14.44 30.083 16.383 34.462 23.533 53 2.121 5.5 5.04 12.655 6.487 15.899 1.447 3.244 4.114 11.571 5.925 18.504 4.49 17.18 7.28 21.912 14.22 24.113 4.007 1.272 11.404.325 14.318-1.834 3.637-2.694 6.093-6.386 7.04-10.586 2.168-9.611-15.615-60.105-35.956-102.095-19.699-40.665-22.133-46.175-31.52-71.307-5.827-15.6-7.283-18.35-10.994-20.781-2.788-1.827-5.792-2.72-8.73-2.83z"/></svg>