<svg xmlns:osb="http://www.openswatchbook.org/uri/2009/osb" xmlns="http://www.w3.org/2000/svg" height="852.635" width="514.895"><defs><linearGradient osb:paint="solid" id="c"><stop offset="0" stop-color="#fff"/></linearGradient><linearGradient osb:paint="solid" id="b"><stop offset="0"/></linearGradient><linearGradient osb:paint="solid" id="a"><stop offset="0" stop-color="#162d50"/></linearGradient><linearGradient osb:paint="solid" id="d"><stop offset="0" stop-color="#d40000"/></linearGradient></defs><path d="M581.053 91.377l-68.5.496c-17.742.129-31.243.236-41.809.395-10.566.158-18.199.367-24.205.7-6.006.334-10.385.792-14.447 1.446-4.062.654-7.806 1.505-12.54 2.625-27.37 6.477-66.959 15.43-71 16.057-1.927.299-5.072 1.023-8.761 1.974-3.69.951-7.923 2.13-12.03 3.338-4.105 1.208-8.082 2.445-11.261 3.514-3.179 1.07-5.558 1.97-6.465 2.506a78.262 78.262 0 0 0-8.197 5.564 83.019 83.019 0 0 0-7.627 6.711 97.742 97.742 0 0 0-7.174 7.979 125.106 125.106 0 0 0-6.838 9.357c-1.341 2.018-2.358 3.627-3.09 5.17-.731 1.543-1.177 3.019-1.377 4.771-.199 1.753-.15 3.783.104 6.43.255 2.648.717 5.913 1.348 10.14.539 3.615.97 8.889 1.306 16.184.337 7.296.581 16.614.75 28.317.12 8.23.203 14.529.215 19.777.013 5.249-.045 9.447-.213 13.484-.167 4.038-.444 7.912-.865 12.508-.421 4.597-.986 9.917-1.734 16.844-.85 7.869-1.622 15.913-2.182 22.533-.56 6.62-.908 11.819-.908 13.994 0 4.352-.474 11.69-1.053 16.307-.29 2.309-.653 8.86-1.008 17.555a1767.2 1767.2 0 0 0-.947 30.418c-.509 22.308-1.395 48.446-2.272 69.195-.438 10.375-.873 19.404-1.257 25.932-.384 6.528-.717 10.555-.95 10.931-.338.547-1.058 8.763-1.6 18.258-.789 13.839-1.438 31.415-1.927 50.225-.489 18.81-.818 38.853-.967 57.629-.148 18.775-.116 36.283.116 50.02.115 6.867.28 12.793.498 17.462.218 4.67.489 8.082.814 9.928.466 2.64.869 7.615 1.205 14.816.336 7.202.605 16.63.803 28.184.178 10.391.395 19.215.701 27.1.306 7.884.702 14.828 1.238 21.458a392.538 392.538 0 0 0 2.078 19.575c.867 6.629 1.924 13.571 3.223 21.453l1.578 9.586 6.113 4.896c5.284 4.23 10.532 8.254 14.868 11.43 4.335 3.175 7.759 5.502 9.392 6.338a24.923 24.923 0 0 0 3.744 1.533c1.4.452 2.986.85 4.854 1.215 3.735.73 8.598 1.322 15.365 1.931 4.378.394 8.145.873 11.488 1.506 3.344.633 6.264 1.42 8.948 2.434a39.96 39.96 0 0 1 7.53 3.79c2.4 1.537 4.751 3.37 7.241 5.571 1.212 1.07 2.252 1.943 3.418 2.768 1.166.825 2.457 1.603 4.164 2.486 3.414 1.767 8.498 3.956 17.602 7.781 5.775 2.427 15.08 6.474 20.677 8.994 2.8 1.26 5.887 2.51 8.606 3.508 2.719.998 5.068 1.744 6.394 1.998 1.695.325 3.716.57 5.971.737 2.255.166 4.743.252 7.375.26 5.265.014 11.104-.29 16.785-.915 5.33-.585 14.642-1.764 20.692-2.62 6.05-.857 15.725-1.922 21.5-2.368 4.64-.358 13.224-1.4 22.605-2.693 9.382-1.293 19.562-2.838 27.395-4.2 3.025-.525 11.35-2.489 18.5-4.363 19.92-5.22 31.916-8.33 39.933-10.289 8.018-1.96 12.057-2.77 16.067-3.398 3.03-.475 6.402-1.14 9.87-1.93 3.47-.79 7.035-1.702 10.448-2.666 3.413-.964 6.674-1.98 9.537-2.978 2.863-1 5.327-1.983 7.145-2.877 1.531-.755 3.264-1.757 5.144-2.96a115.101 115.101 0 0 0 6.026-4.162c4.237-3.112 8.841-6.837 13.377-10.79 4.535-3.955 9.001-8.14 12.96-12.172 3.96-4.033 7.413-7.914 9.92-11.262 1.297-1.731 3.622-5.578 6.325-10.381a420.066 420.066 0 0 0 8.588-16.12c2.806-5.56 5.079-10.25 6.974-14.56 1.896-4.31 3.415-8.243 4.717-12.29 1.302-4.049 2.388-8.213 3.414-12.987 1.027-4.774 1.994-10.157 3.063-16.645.503-3.054.887-5.563 1.175-8.04.288-2.479.48-4.926.592-7.862.226-5.87.14-13.69-.096-27.598-.263-15.473-.715-28.585-1.347-39.17-.316-5.292-.676-9.951-1.08-13.958-.405-4.008-.853-7.362-1.344-10.043-.305-1.665-.66-7.735-.986-16.174-.327-8.44-.626-19.25-.817-30.39-.191-11.142-.463-21.43-.748-29.03-.285-7.6-.583-12.513-.824-12.903-.241-.39-.547-12.057-.848-30.543-.3-18.485-.595-43.787-.81-71.443-.364-46.8-.666-74.89-1.324-100.617-.33-12.864-.75-25.136-1.31-38.863-.559-13.728-1.26-28.91-2.155-47.588-.42-8.767-.846-15.678-1.584-24.317-.738-8.639-1.789-19.006-3.457-34.683-.557-5.225-1.018-15.467-1.028-22.758-.006-4.93-.19-9.658-.543-14.133-.352-4.474-.873-8.695-1.554-12.617-.682-3.922-1.522-7.542-2.516-10.814-.993-3.273-2.139-6.197-3.428-8.723-.757-1.484-1.84-3.128-3.136-4.813a58.522 58.522 0 0 0-4.407-5.056 60.292 60.292 0 0 0-4.984-4.588c-1.68-1.373-3.34-2.55-4.865-3.41-1.399-.79-4.565-2.027-8.54-3.387a238.045 238.045 0 0 0-13.386-4.115c-4.176-1.15-7.862-2.104-11.78-2.987-3.917-.882-8.065-1.691-13.161-2.548-10.194-1.715-24.183-3.622-47.717-6.686l-19.5-2.539z" style="isolation:auto;mix-blend-mode:normal" color="#000" overflow="visible" fill="url(#c)" transform="translate(-242.553 -73.682)"/><path d="M560.504 73.686c-10.273-.023-23.104.095-40.586.232-18.932.148-33.912.3-46.006.51-12.094.21-21.303.479-28.7.861-7.395.383-12.977.877-17.814 1.543-4.836.666-8.928 1.501-13.345 2.56-28.878 6.925-64.377 15.058-70.5 16.153-2.552.456-6.001 1.237-9.828 2.193a386.446 386.446 0 0 0-12.094 3.248c-4.062 1.16-7.98 2.346-11.235 3.41-3.253 1.065-5.843 2.009-7.248 2.682a49.987 49.987 0 0 0-4.558 2.512 75.915 75.915 0 0 0-4.844 3.262c-3.295 2.397-6.693 5.213-10.012 8.28a130.934 130.934 0 0 0-9.543 9.796c-2.984 3.407-5.712 6.9-8.004 10.316-2.63 3.921-5.65 7.915-6.708 8.873-.53.48-1.01 1.165-1.36 1.883-.349.718-.566 1.47-.566 2.08 0 1.22-.675 4.132-1.5 6.47-.42 1.191-.795 3.108-1.065 5.272a56.52 56.52 0 0 0-.435 6.752c0 3.424.095 5.542.54 7.447.224.953.533 1.852.964 2.836.43.984.98 2.053 1.683 3.342l3.19 5.852.392 33c.183 15.338.235 24.003-.068 31.562-.152 3.78-.391 7.283-.748 11.207-.357 3.925-.831 8.27-1.45 13.73-.799 7.063-1.524 14.678-2.181 22.991-.657 8.313-1.247 17.323-1.777 27.172-.53 9.849-1.002 20.537-1.42 32.209a3072.64 3072.64 0 0 0-1.108 38.105c-.264 11.27-.62 22.552-.98 31.653-.36 9.1-.725 16.02-1.008 18.558-.566 5.079-1.03 13.396-1.03 18.483 0 2.543-.166 6.265-.435 10.215-.268 3.949-.638 8.125-1.045 11.574-.575 4.875-1.102 11.67-1.576 20.181-.474 8.511-.895 18.736-1.254 30.47-.36 11.732-.658 24.972-.89 39.513a4532.937 4532.937 0 0 0-.49 47.318c-.121 22.03-.124 37.916.007 48.79.066 5.436.166 9.62.3 12.69.133 3.072.3 5.032.505 6.02.309 1.491.602 3.82.893 7.242.29 3.423.577 7.941.875 13.81.595 11.74 1.231 28.89 2.013 53.507.31 9.764.7 18.3 1.135 25.064.435 6.765.914 11.759 1.404 14.436.856 4.675 1.556 9.962 1.557 11.75 0 1.408-.085 2.221-.445 2.681-.18.23-.43.373-.772.457-.342.085-.778.112-1.33.112-.918 0-1.844.28-2.715.765-.87.487-1.687 1.18-2.388 2.008a10.356 10.356 0 0 0-1.7 2.822c-.411 1.029-.648 2.121-.648 3.206 0 .621.013 1.176.105 1.724.093.549.264 1.09.584 1.688.32.596.788 1.248 1.471 2.013.683.766 1.58 1.648 2.762 2.703 2.362 2.112 5.854 4.922 11.02 8.918 5.165 3.997 12.003 9.178 21.054 16.026 4.416 3.34 7.914 5.915 11.09 7.94a54.832 54.832 0 0 0 4.596 2.65c1.5.764 2.994 1.419 4.556 1.99a46.285 46.285 0 0 0 4.965 1.49c1.772.432 3.687.81 5.818 1.156 4.262.695 9.39 1.274 15.979 1.955 3.073.318 5.69.679 7.994 1.137 2.304.458 4.296 1.014 6.12 1.725a26.867 26.867 0 0 1 5.109 2.65c1.63 1.075 3.236 2.36 4.96 3.91a39.514 39.514 0 0 0 4.4 3.407c1.673 1.125 3.58 2.258 5.817 3.445 4.473 2.375 10.26 4.972 18.1 8.183 4.95 2.028 13.447 5.735 18.883 8.237 5.435 2.502 12.41 5.39 15.5 6.416 1.263.42 2.403.743 3.754.986 1.35.243 2.911.405 5.017.502 4.212.194 10.602.126 21.846-.08 10.26-.188 17.204-.417 23.174-.86 5.97-.442 10.965-1.099 17.326-2.144 4.262-.7 8.71-1.339 12.443-1.803 3.733-.463 6.751-.752 8.153-.755 2.802-.006 12.702-1.147 22-2.536 16.42-2.452 23.114-3.364 29.468-4.683 6.355-1.319 12.371-3.045 27.436-7.127 9.033-2.448 17.22-4.543 24.182-6.194 6.96-1.65 12.694-2.856 16.818-3.527 4.11-.669 8.505-1.563 12.908-2.601a227.266 227.266 0 0 0 12.965-3.463c4.148-1.244 8.03-2.548 11.375-3.832 3.345-1.285 6.151-2.548 8.144-3.71 2.327-1.354 4.792-2.948 7.342-4.73 2.55-1.781 5.186-3.75 7.854-5.857 5.335-4.213 10.798-8.976 15.96-13.88 5.163-4.903 10.024-9.947 14.157-14.728 2.067-2.39 3.953-4.714 5.602-6.922 1.648-2.207 3.06-4.298 4.185-6.22 2.518-4.307 5.09-9.029 7.588-13.88a364.816 364.816 0 0 0 7.129-14.646c2.211-4.818 4.215-9.476 5.877-13.685 1.661-4.21 2.981-7.97 3.828-10.992 1.852-6.614 3.268-11.861 4.342-16.772a116.752 116.752 0 0 0 2.29-14.758c.486-5.273.723-11.243.81-18.943.086-7.7.02-17.131-.102-29.324-.154-15.314-.383-27.3-.717-36.776-.334-9.476-.773-16.444-1.346-21.724-.75-6.92-1.355-12.928-1.847-18.717a496.93 496.93 0 0 1-1.18-17.397c-.61-12.077-.916-26.037-1.195-47.404-.153-11.692-.398-23.05-.668-31.931-.27-8.882-.567-15.286-.825-17.069-.257-1.783-.502-12.066-.691-27.197-.189-15.131-.32-35.11-.35-56.285a6902.015 6902.015 0 0 0-.336-59.963c-.18-17.4-.416-30.812-.662-36.037-.49-10.45-1.543-34.525-2.338-53.5-.397-9.488-.932-19.8-1.474-28.772-.542-8.972-1.09-16.603-1.514-20.728-.849-8.25-1.996-19.5-2.55-25-.555-5.5-1.022-15.655-1.036-22.565-.012-5.879-.26-11.532-.734-16.9-.473-5.368-1.17-10.45-2.08-15.184-.91-4.733-2.035-9.12-3.36-13.095a72.474 72.474 0 0 0-2.134-5.649 55.142 55.142 0 0 0-2.428-4.988c-1.232-2.224-2.791-4.514-4.578-6.77a70.133 70.133 0 0 0-5.94-6.564 69.562 69.562 0 0 0-6.687-5.766c-2.286-1.721-4.594-3.21-6.822-4.365-2.876-1.49-6.554-2.997-10.881-4.478-4.328-1.482-9.305-2.94-14.78-4.336-5.474-1.396-11.445-2.73-17.763-3.961a411.432 411.432 0 0 0-19.838-3.352c-10.354-1.495-18.607-2.7-25.645-3.668s-12.862-1.7-18.353-2.246a270.472 270.472 0 0 0-16.365-1.137c-5.714-.229-11.98-.325-19.686-.341zm20.549 17.691l19.5 2.539c23.534 3.064 37.523 4.971 47.717 6.686 5.096.857 9.244 1.666 13.162 2.548 3.917.883 7.603 1.838 11.779 2.987a238.045 238.045 0 0 1 13.387 4.115c3.974 1.36 7.14 2.598 8.539 3.387 1.525.86 3.185 2.037 4.865 3.41a60.292 60.292 0 0 1 4.984 4.588 58.522 58.522 0 0 1 4.407 5.056c1.295 1.685 2.38 3.329 3.136 4.813 1.29 2.526 2.435 5.45 3.428 8.723.994 3.272 1.834 6.892 2.516 10.814.68 3.922 1.202 8.143 1.554 12.617.353 4.475.537 9.202.543 14.133.01 7.291.471 17.533 1.028 22.758 1.668 15.677 2.719 26.044 3.457 34.683.738 8.64 1.164 15.55 1.584 24.317.895 18.678 1.596 33.86 2.156 47.588.56 13.727.98 25.999 1.309 38.863.658 25.728.96 53.817 1.324 100.617.215 27.656.51 52.958.81 71.443.3 18.486.607 30.153.848 30.543.241.39.54 5.303.824 12.903.285 7.6.557 17.888.748 29.03.191 11.14.49 21.95.817 30.39.326 8.44.681 14.51.986 16.174.49 2.68.94 6.035 1.344 10.043.404 4.007.764 8.666 1.08 13.959.632 10.584 1.084 23.696 1.347 39.17.237 13.906.322 21.726.096 27.597a98.937 98.937 0 0 1-.592 7.861c-.288 2.478-.672 4.987-1.175 8.041-1.069 6.488-2.036 11.871-3.063 16.645-1.026 4.774-2.112 8.938-3.414 12.986s-2.821 7.98-4.717 12.291c-1.895 4.31-4.168 9-6.974 14.56a420.066 420.066 0 0 1-8.588 16.12c-2.703 4.803-5.028 8.65-6.325 10.38-2.508 3.35-5.96 7.23-9.92 11.263-3.959 4.032-8.425 8.217-12.96 12.171-4.536 3.954-9.14 7.679-13.377 10.791a115.101 115.101 0 0 1-6.026 4.163c-1.88 1.202-3.613 2.204-5.144 2.959-1.818.894-4.282 1.877-7.145 2.877-2.863.999-6.124 2.014-9.537 2.978a211.448 211.448 0 0 1-10.447 2.666c-3.469.79-6.842 1.455-9.871 1.93-4.01.628-8.05 1.438-16.067 3.398-8.017 1.96-20.012 5.068-39.933 10.29-7.15 1.873-15.475 3.837-18.5 4.363-7.833 1.361-18.013 2.906-27.395 4.199-9.381 1.293-17.965 2.335-22.605 2.693-5.775.446-15.45 1.511-21.5 2.367-6.05.857-15.361 2.036-20.692 2.621-5.681.625-11.52.929-16.785.914-2.632-.007-5.12-.093-7.375-.26-2.255-.165-4.276-.411-5.97-.736-1.327-.254-3.676-1-6.395-1.998a135.407 135.407 0 0 1-8.606-3.508 1081.444 1081.444 0 0 0-20.677-8.994c-9.104-3.825-14.188-6.014-17.602-7.78-1.707-.884-2.998-1.662-4.164-2.487-1.166-.825-2.206-1.697-3.418-2.768-2.49-2.2-4.84-4.034-7.24-5.57a39.96 39.96 0 0 0-7.531-3.791c-2.684-1.014-5.604-1.8-8.948-2.434-3.343-.633-7.11-1.112-11.488-1.506-6.767-.609-11.63-1.202-15.365-1.931-1.868-.365-3.453-.763-4.854-1.215a24.923 24.923 0 0 1-3.744-1.533c-1.633-.836-5.057-3.163-9.392-6.338-4.336-3.176-9.584-7.2-14.868-11.43l-6.113-4.896-1.578-9.586c-1.299-7.882-2.356-14.824-3.223-21.453a392.538 392.538 0 0 1-2.078-19.575c-.536-6.63-.932-13.574-1.238-21.459-.306-7.884-.523-16.708-.701-27.1-.198-11.553-.467-20.981-.803-28.183-.336-7.201-.74-12.175-1.205-14.816-.325-1.846-.596-5.258-.814-9.928-.218-4.67-.383-10.595-.499-17.463-.23-13.736-.263-31.244-.115-50.02.149-18.775.478-38.818.967-57.628.489-18.81 1.138-36.386 1.928-50.225.541-9.495 1.261-17.71 1.6-18.258.232-.376.565-4.403.949-10.931s.82-15.557 1.257-25.932c.877-20.75 1.763-46.887 2.272-69.195a1767.2 1767.2 0 0 1 .947-30.418c.355-8.695.719-15.246 1.008-17.555.579-4.617 1.053-11.955 1.053-16.307 0-2.175.348-7.373.908-13.994.56-6.62 1.332-14.664 2.182-22.533.748-6.927 1.313-12.247 1.734-16.844.42-4.596.698-8.47.865-12.507.168-4.038.226-8.236.213-13.485-.012-5.248-.096-11.546-.215-19.777-.169-11.703-.413-21.02-.75-28.317-.337-7.295-.767-12.57-1.306-16.183-.631-4.228-1.093-7.493-1.348-10.14-.255-2.648-.303-4.678-.104-6.43.2-1.753.646-3.23 1.377-4.772.732-1.543 1.749-3.152 3.09-5.17a125.106 125.106 0 0 1 6.838-9.357 97.742 97.742 0 0 1 7.174-7.979 83.019 83.019 0 0 1 7.627-6.71 78.262 78.262 0 0 1 8.197-5.565c.907-.535 3.286-1.437 6.465-2.506 3.179-1.07 7.156-2.306 11.262-3.514a381.731 381.731 0 0 1 12.029-3.338c3.69-.95 6.834-1.675 8.762-1.974 4.04-.627 43.63-9.58 71-16.057 4.733-1.12 8.477-1.97 12.539-2.625 4.062-.654 8.44-1.112 14.447-1.445 6.006-.334 13.639-.543 24.205-.701 10.566-.159 24.067-.266 41.809-.395l68.5-.496z" style="isolation:auto;mix-blend-mode:normal" color="#000" overflow="visible" fill="url(#b)" transform="translate(-242.553 -73.682)"/><path d="M557.053 430.594c-4.496 0-10.913 3.312-13.752 7.097-1.386 1.848-3.29 6.06-4.23 9.36-.942 3.3-3.964 12.075-6.716 19.5-2.75 7.425-5.48 16.045-6.062 19.156-.919 4.904-1.404 5.729-3.65 6.2-5.699 1.193-32.841 6.938-36.59 7.743-10.72 2.304-34.044 5.75-34.623 5.118-.361-.395-2.97-6.342-5.8-13.217-7.157-17.398-8.036-18.945-12.401-21.834-5.206-3.445-13.753-4.074-18.65-1.373-5.526 3.046-9.24 8.37-9.782 14.02-.415 4.316.189 6.359 5.142 17.392 3.088 6.876 5.614 12.741 5.614 13.037 0 .296-1.463.751-3.25 1.012-1.788.26-6.51 1.202-10.494 2.093-6.86 1.535-20.972 3.607-38.735 5.684-10.527 1.231-16.154 4.132-19.205 9.9-4.664 8.821-1.697 19.323 6.736 23.848 3.961 2.125 5.377 2.336 12.948 1.916 4.675-.26 15.25-1.42 23.5-2.576 13.79-1.934 18.192-2.743 33.25-6.111 2.888-.646 5.783-.998 6.433-.782 1.324.442 2.992 7.425 5.323 22.274 1.67 10.648 2.8 16.024 3.896 18.574.567 1.32-1.236 1.94-11.113 3.82-6.485 1.235-13.198 2.681-14.918 3.213-2.61.807-3.934.533-8-1.65-4.15-2.228-5.854-2.563-11.483-2.262-5.415.29-7.29.872-10.369 3.22-4.37 3.334-7.628 9.95-7.545 15.321.032 2.07-.209 6.239-.537 9.264-.499 4.602-.208 6.225 1.785 9.947 2.307 4.306 7.184 7.879 12.733 9.33 2.047.535 2.157.97 1.525 6.03-.835 6.682 1.688 13.28 6.416 16.775 2.281 1.686 3.11 3.104 3.125 5.355.012 1.684.838 4.863 1.834 7.063.997 2.2 2.146 5.35 2.555 7 1.13 4.558 5.388 9.504 9.973 11.586 3.501 1.59 6.58 1.864 20.617 1.83 9.075-.022 19.762-.368 23.75-.768 3.987-.4 7.25-.408 7.25-.02 0 .39.257 1.38.572 2.202.46 1.2-.769 1.626-6.25 2.162-3.753.367-16.272 1.77-27.822 3.117-44.11 5.146-38.816 4.91-44.694 1.98-2.86-1.425-6.623-2.59-8.363-2.59-1.802 0-7.17 2.046-12.476 4.757-8.102 4.137-9.617 5.327-11.641 9.156-4.773 9.025-1.693 19.479 7.066 23.986 4.025 2.071 5.258 3.462 8.014 9.026 1.792 3.617 4.193 9.05 5.336 12.076 2.784 7.368 10.843 35.113 12.217 42.058 3.058 15.47 21.113 20.169 31.072 8.086 3.866-4.69 4.527-8.75 3.025-18.576-.985-6.445-11.435-41.594-14.478-48.695-.897-2.093-.072-2.287 20.422-4.781 26.56-3.234 34.328-4.087 37.25-4.09l2.75-.002v10.75c0 14.339-3.939 33.188-6.96 33.312-16.646.683-23.056 1.68-26.83 4.178-11.394 7.54-10.252 24.688 2.04 30.639 5.002 2.421 9.757 2.624 24.96 1.066 21.589-2.213 22.7-2.614 54.145-19.486 12.156-6.522 15.521-10.193 16.387-17.873 1.421-12.608-12.467-23.071-24.145-18.192-2.113.883-3.9 1.607-3.97 1.608-.07 0 .009-6.3.175-14l.303-14.002h45.164l-2.761 2.17c-3.286 2.584-6.456 9.126-6.487 13.383-.04 5.53 4.968 13.428 15.543 24.513 12.795 13.413 16.966 18.69 22.873 28.932 4.262 7.388 4.604 8.442 3.633 11.226-2.848 8.17.36 17.185 7.629 21.446 2.48 1.453 10.199 4.606 17.154 7.01 6.956 2.403 14.764 5.263 17.354 6.355 2.59 1.091 7.09 2.625 10 3.408 11.928 3.21 20.807.8 25.302-6.871 3.888-6.634 4.154-11.8 1.061-20.586-4.077-11.58-8.633-27.713-10.164-35.986-1.283-6.93-1.186-9.299 1.277-31.17 2.388-21.206 2.534-24.41 1.395-30.781-2.248-12.58-10.076-20.79-21.965-23.034-2.963-.559-11.513-1.064-19-1.123-7.487-.058-17.663-.395-22.613-.75-8.643-.618-8.867-.693-5.612-1.89 6.162-2.267 15.941-13.728 23.754-27.846 8.22-14.854 10.364-21.144 10.34-30.338-.04-15.323-4.566-27.616-13.062-35.482-10.955-10.142-24.104-14.464-55.42-18.219-18.952-2.272-23.34-2.462-45-1.938-13.2.32-26.158.85-28.795 1.18-4.696.586-4.784.549-4.184-1.844.8-3.19-1.224-21.461-3.05-27.529-.785-2.606-1.71-7.239-2.057-10.297l-.631-5.56 8.36-1.268c9.14-1.385 22.391-3.976 36.306-7.101 4.922-1.106 9.289-2.01 9.703-2.01.415 0 .49 2.211.17 4.916-1.26 10.645 6.808 19.584 17.678 19.584 10.736 0 17.046-7 19.097-21.182 1.325-9.158 2.325-11.318 5.239-11.318 1.308 0 12.005-1.832 23.771-4.07 17.67-3.362 24.873-4.236 41.393-5.024 11-.525 21.868-1.44 24.152-2.033 7.222-1.876 12.348-8.88 12.348-16.873 0-5.176-1.5-8.856-5.158-12.649-4.42-4.583-9.894-5.79-22.14-4.88-5.611.416-14.713.912-20.226 1.1-5.512.186-13.837 1.027-18.5 1.868-14.749 2.663-24.37 4.447-27.84 5.162l-3.36.694.735-3.354c.405-1.843 2.582-7.871 4.836-13.396 3.614-8.856 4.102-11.001 4.125-18.12.025-7.378-.222-8.4-2.857-11.859-3.178-4.17-9.468-7.523-14.115-7.523zM518.6 619.842c8.537.269 16.854.82 24.59 1.668 18.58 2.035 30.489 4.88 33.775 8.066 1.268 1.23 2.046 3.643 2.308 7.164.35 4.696-.082 6.206-3.724 13.06-4.14 7.79-4.819 8.331-8.496 6.75-1.1-.472-8.379-.89-16.174-.929l-14.174-.07 1.541-3.088c2.35-4.71 1.343-12.865-2.154-17.45-4.8-6.293-8.775-7.416-26.356-7.44-15.153-.022-15.357-.052-18.923-2.772-3.1-2.364-4.54-2.75-10.26-2.75-5.735 0-7.16.382-10.295 2.773l-3.637 2.776-16.285-.276-16.283-.273 11.5-2.301c19.842-3.97 47.436-5.715 73.047-4.908zm-93.86 8.025c.798.32.56.556-.605.604-1.054.043-1.645-.193-1.313-.526.333-.332 1.196-.367 1.918-.078zm74.813 63.684H558.945l3.803 2.635c2.092 1.45 3.805 2.8 3.805 3 0 .2-2.138.26-4.75.13-2.613-.128-17.688-.36-33.5-.515l-28.75-.281V691.55zm68.238 42.447c.144-.133 4.987.166 10.762.666s16.483 1.188 23.799 1.53l13.3.62-.52 2.618c-.285 1.44-1.05 7.119-1.696 12.619-.647 5.5-1.448 16.075-1.78 23.5l-.603 13.5-6.496-10.5c-6.85-11.075-12.61-18.215-27.76-34.406-5.097-5.448-9.15-10.014-9.006-10.147z" fill="url(#d)" transform="translate(-242.553 -73.682)"/><path d="M292.5 248.369c-56.372 0-68.416.75-104.576 6.521-13.984 2.232-36.224 5.624-49.424 7.541-13.2 1.917-26.32 4.15-29.155 4.961-2.834.812-6.702 1.477-8.593 1.477-5.447 0-11.793 3.934-14.45 8.959-4.63 8.754-1.662 19.34 6.657 23.738 4.864 2.572 15.658 3.18 22.047 1.242 1.921-.582 14.969-2.815 28.994-4.96 14.025-2.146 36.975-5.693 51-7.884 32.861-5.133 55.547-6.605 101-6.554 34.111.038 38.757.265 71 3.49 25.201 2.52 39.357 3.453 52.525 3.459 17.322.008 18.22-.09 22.934-2.516 11.734-6.038 12.719-23.347 1.718-30.187-3.42-2.127-5.122-2.33-24.177-2.889-11.275-.33-33.55-1.905-49.5-3.5-27.657-2.765-31.27-2.898-78-2.898zM325.885 153.134c-6.308-.096-16.848 1.055-28.885 3.235-4.675.846-17.05 1.954-27.5 2.463-37.205 1.809-51.428 3.886-82.375 12.027-12.126 3.19-16.376 3.913-20.108 3.418-6.184-.82-12.68 1.97-16.627 7.145-2.519 3.303-2.89 4.648-2.89 10.447 0 5.75.38 7.155 2.8 10.328 3.203 4.198 7.036 6.442 13.026 7.627 7.259 1.435 12.383 1.114 21.91-1.375 5.094-1.331 15.43-4.035 22.967-6.008 15.818-4.14 32.988-6.282 60.797-7.586 11.413-.535 25.72-1.924 34.5-3.348 8.25-1.338 17.427-2.728 20.394-3.09 9.84-1.198 15.886-5.75 18.29-13.77 2.468-8.242-3.147-18.49-11.505-20.993-1.06-.318-2.692-.487-4.794-.52z"/></svg>