<svg xmlns:osb="http://www.openswatchbook.org/uri/2009/osb" xmlns="http://www.w3.org/2000/svg" height="916.87" width="582.804"><defs><linearGradient osb:paint="solid" id="c"><stop offset="0" stop-color="#fff"/></linearGradient><linearGradient osb:paint="solid" id="b"><stop offset="0"/></linearGradient><linearGradient osb:paint="solid" id="a"><stop offset="0" stop-color="#162d50"/></linearGradient><linearGradient osb:paint="solid" id="d"><stop offset="0" stop-color="#d40000"/></linearGradient></defs><path d="M546.572 58.549c-7.267 0-12.923.012-17.845.09-4.923.077-9.112.22-13.448.482-8.67.523-17.926 1.521-34.795 3.416-8.35.938-14.876 1.686-20.488 2.397-5.612.71-10.312 1.385-15.012 2.175-4.699.791-9.399 1.698-15.011 2.875-5.613 1.178-12.137 2.626-20.489 4.498-21.199 4.753-38.877 8.912-53.04 12.48-7.083 1.785-13.286 3.422-18.612 4.911-5.326 1.49-9.775 2.83-13.348 4.025-2.887.966-6.3 1.976-9.472 2.823-3.172.847-6.103 1.532-8.028 1.851-3.85.64-10.572 2.264-14.937 3.612-2.183.673-5.801 1.567-9.873 2.464a287.525 287.525 0 0 1-12.592 2.487c-5.032.866-8.872 1.557-11.91 2.322-1.52.383-2.837.784-4.004 1.234-1.168.451-2.184.95-3.098 1.532a13.806 13.806 0 0 0-2.482 2.015c-.758.774-1.463 1.66-2.162 2.688-1.4 2.056-2.781 4.683-4.535 8.13-2.394 4.705-4.168 8.12-5.489 11.124a45.206 45.206 0 0 0-1.662 4.304 35.54 35.54 0 0 0-1.11 4.348c-.582 3.058-.878 6.583-1.058 11.451-.18 4.869-.242 11.08-.353 19.516l-.393 29.75h2.627c.856 0 1.755.275 2.621.748.867.472 1.7 1.142 2.428 1.926a10.415 10.415 0 0 1 1.787 2.615c.439.933.695 1.9.695 2.822 0 1.55-.668 7.672-1.484 13.604-.816 5.931-1.927 17.541-2.47 25.799a312.13 312.13 0 0 1-1.147 12.949c-.457 4.168-.951 7.854-1.371 10.05-.42 2.197-.808 5.037-1.094 7.844-.286 2.807-.472 5.58-.486 7.643-.029 4.125-.459 10.65-.955 14.5-.497 3.85-1.596 14.875-2.444 24.5-.848 9.625-2.268 24.025-3.156 32-.513 4.61-.858 9.54-1.04 14.572-.18 5.033-.198 10.171-.06 15.203.14 5.032.434 9.959.881 14.567.447 4.608 1.046 8.897 1.79 12.658 1.029 5.204 1.864 9.96 2.556 14.922.691 4.962 1.239 10.133 1.691 16.172.453 6.038.81 12.943 1.123 21.375.313 8.431.582 18.388.854 30.53.518 23.123.857 43.272 1.004 61.083.147 17.811.1 33.285-.147 47.06-.247 13.776-.696 25.852-1.361 36.866-.665 11.013-1.544 20.964-2.648 30.492-.388 3.345-.661 9.758-.827 17.668-.165 7.91-.222 17.315-.18 26.638.043 9.324.186 18.567.423 26.155.236 7.588.565 13.522.98 16.224 1.853 12.052 4.167 29.407 6.51 48.815.516 4.273 1.03 7.875 1.654 11.152.624 3.277 1.355 6.229 2.307 9.2.952 2.97 2.124 5.961 3.625 9.314 1.501 3.353 3.332 7.068 5.603 11.492 2.725 5.308 5.451 10 8.272 14.178a92.122 92.122 0 0 0 4.312 5.89 76.197 76.197 0 0 0 4.528 5.192 67.984 67.984 0 0 0 4.808 4.564 66.228 66.228 0 0 0 5.164 4.012 70.621 70.621 0 0 0 5.588 3.533 82.16 82.16 0 0 0 6.084 3.13c5.126 2.38 7.676 3.565 11.996 5.024 4.32 1.46 10.41 3.194 22.617 6.67 13.268 3.779 21.715 6.149 27.424 7.664 5.71 1.516 8.68 2.176 10.99 2.534 2.429.375 7.379 1.69 11 2.92 3.622 1.23 8.836 2.549 11.586 2.933 2.75.384 8.825 1.777 13.5 3.094 4.675 1.317 12.1 2.896 16.5 3.51 4.4.613 11.6 1.759 16 2.545 6.53 1.166 13.903 2.277 20.323 3.103 6.419.826 11.885 1.366 14.601 1.389 2.792.023 8.901.653 13.576 1.4 1.586.254 5.011.477 9.819.67 4.807.193 10.998.356 18.115.488 14.233.265 32.17.407 50.156.422 17.987.016 36.024-.096 50.455-.336 7.216-.12 13.53-.272 18.487-.457 4.956-.184 8.556-.402 10.34-.652 5.57-.782 14.178-1.702 19.128-2.043 4.285-.295 9.72-.914 15.303-1.713 5.584-.799 11.317-1.779 16.197-2.795 2.475-.515 8.55-1.699 13.5-2.629 4.17-.783 8.784-1.99 13.483-3.467a169.459 169.459 0 0 0 13.99-5.097c4.508-1.872 8.741-3.868 12.338-5.836a67.659 67.659 0 0 0 4.873-2.914c1.436-.952 2.667-1.878 3.65-2.76 1.27-1.14 2.309-2.267 3.178-3.578.87-1.31 1.57-2.805 2.164-4.678.593-1.873 1.079-4.124 1.52-6.951.44-2.827.837-6.23 1.25-10.402.61-6.169 1.882-17.515 2.828-25.215.62-5.052 1.041-10.221 1.295-16.293.253-6.072.34-13.046.29-21.707-1.08-192.81-1.703-318.933-1.93-399.791-.115-40.43-.13-69.542-.054-90.018.077-20.475.245-32.313.497-38.191.582-13.604 1.209-25.912 1.898-37.125.69-11.213 1.441-21.33 2.273-30.55.833-9.222 1.745-17.548 2.756-25.177 1.012-7.629 2.121-14.56 3.348-20.996.618-3.242 1.094-6.732 1.428-10.305.333-3.572.525-7.228.57-10.802.045-3.575-.054-7.066-.3-10.313-.248-3.246-.643-6.248-1.186-8.838-.54-2.567-1.538-5.632-2.83-8.88-1.293-3.249-2.88-6.68-4.596-9.977-1.717-3.297-3.563-6.458-5.375-9.172-1.812-2.713-3.59-4.978-5.168-6.476-.603-.573-2.556-1.762-5.219-3.22a197.587 197.587 0 0 0-9.47-4.818c-6.876-3.276-19.25-9.3-27.5-13.386a278.343 278.343 0 0 0-12.963-5.983c-4.181-1.8-7.886-3.26-10.104-3.949-2.331-.723-7.225-1.744-13.406-2.867-6.181-1.123-13.649-2.349-21.131-3.485-7.482-1.135-14.979-2.18-21.213-2.94-6.234-.762-11.206-1.24-13.643-1.241-1.799 0-5.448-.281-9.88-.735a414.523 414.523 0 0 1-14.573-1.765c-3.979-.555-7.301-.99-10.47-1.328a170.13 170.13 0 0 0-9.555-.754c-6.738-.348-14.883-.418-28.475-.418z" style="isolation:auto;mix-blend-mode:normal" color="#000" overflow="visible" fill="url(#c)" transform="translate(-208.598 -41.565)"/><path d="M546.885 41.566c-10.11-.004-17.766-.004-24.059.053-6.293.058-11.223.174-15.88.399-4.659.224-9.046.557-14.253 1.054-5.206.498-11.232 1.158-19.17 2.033-7.337.81-13.213 1.479-18.377 2.133-5.163.655-9.614 1.294-14.105 2.045-8.982 1.502-18.121 3.447-33.42 6.84-19.812 4.394-38.089 8.676-53.271 12.459-7.592 1.892-14.41 3.659-20.258 5.252-5.85 1.593-10.73 3.013-14.446 4.21-2.932.946-6.732 2.032-10.492 3.02-3.76.99-7.478 1.881-10.25 2.436-5.543 1.11-12.068 2.739-14.5 3.621-1.215.441-4.067 1.155-7.683 1.951a332.811 332.811 0 0 1-12.266 2.442c-4.27.767-8.744 1.72-12.514 2.636-3.769.917-6.833 1.797-8.283 2.42a25.156 25.156 0 0 0-5.627 3.346c-1.777 1.393-3.472 3.082-5.125 5.121-1.653 2.039-3.264 4.427-4.88 7.219-1.617 2.792-3.238 5.988-4.905 9.64-2.239 4.907-3.9 8.412-5.129 11.829a44.543 44.543 0 0 0-1.539 5.224c-.418 1.83-.75 3.8-1.01 6.078-.52 4.556-.759 10.337-.869 18.659-.11 8.321-.09 19.182-.09 33.898v51.617l2.604 2.424c.607.565 1.071 1.027 1.418 1.496.346.47.576.946.713 1.541.274 1.19.181 2.856-.074 5.887-.302 3.575-1.232 10.1-2.069 14.5-.418 2.2-.803 5.197-1.086 8.254-.282 3.056-.463 6.172-.472 8.61-.01 2.437-.183 5.794-.453 9.237-.27 3.444-.638 6.975-1.04 9.762-.739 5.135-1.42 10.817-2.033 16.861a614.542 614.542 0 0 0-1.613 19.04 721.14 721.14 0 0 0-1.12 20.125 679.41 679.41 0 0 0-.544 20.11c-.15 12.677-.192 19.625.096 24.93a79.47 79.47 0 0 0 .707 7.237c.336 2.341.781 4.782 1.365 7.834 1.198 6.262 2.22 12.94 3.066 20.025.847 7.086 1.518 14.58 2.012 22.475.258 4.125.982 36.3 1.607 71.5.285 16.025.494 28.326.598 38.515.104 10.19.102 18.269-.033 25.846-.135 7.578-.403 14.654-.834 22.844-.43 8.19-1.023 17.493-1.807 29.52-.492 7.548-1.37 17.143-1.95 21.322-.41 2.94-.7 9.328-.878 17.431-.178 8.104-.244 17.92-.205 27.72.039 9.797.184 19.576.426 27.6.242 8.025.582 14.296 1.014 17.079a1089.22 1089.22 0 0 1 3.345 23.252 1026.635 1026.635 0 0 1 2.79 22.87c.527 4.798 1.014 8.781 1.529 12.243.514 3.462 1.057 6.402 1.697 9.12a73.481 73.481 0 0 0 2.283 7.769c.905 2.56 1.977 5.192 3.285 8.187a254.67 254.67 0 0 0 4.543 9.856 185.89 185.89 0 0 0 4.592 8.822 142.315 142.315 0 0 0 4.725 7.896 115.668 115.668 0 0 0 4.937 7.082 101.037 101.037 0 0 0 5.236 6.38 95.793 95.793 0 0 0 5.618 5.783 99.297 99.297 0 0 0 6.082 5.3 112.345 112.345 0 0 0 6.629 4.926c1.19.82 3.21 1.913 5.695 3.123 2.485 1.21 5.435 2.54 8.486 3.832a211.729 211.729 0 0 0 9.096 3.615c2.89 1.067 5.517 1.942 7.517 2.473 3.85 1.022 11.05 3.085 16 4.584a631.27 631.27 0 0 0 18.983 5.432 525.754 525.754 0 0 0 18.017 4.52c5.5 1.271 13.375 3.247 17.5 4.388 5.639 1.56 12.453 3.194 19.823 4.793a672.245 672.245 0 0 0 23.162 4.578c7.866 1.415 15.67 2.683 22.795 3.691 7.125 1.01 13.572 1.759 18.72 2.14 7.15.527 15.025 1.362 17.5 1.855 1.238.246 11.363.479 26.678.658 15.316.178 35.822.303 57.822.328 33.1.038 53.49-.002 66.534-.205 6.522-.102 11.207-.244 14.728-.438 3.521-.193 5.877-.438 7.738-.744 4.95-.813 11.56-1.48 14.688-1.482 1.461-.001 3.895-.211 7.012-.586 3.117-.375 6.917-.914 11.117-1.572a617.21 617.21 0 0 0 27.683-5.028c2.892-.595 6.426-1.53 10.235-2.674a244.947 244.947 0 0 0 11.883-3.92c3.99-1.427 7.887-2.93 11.324-4.378 3.436-1.449 6.411-2.843 8.558-4.05 2.812-1.58 5.364-3.185 7.66-4.82 2.297-1.634 4.336-3.296 6.12-4.986 1.783-1.69 3.311-3.408 4.584-5.156 1.272-1.748 2.289-3.526 3.052-5.334.472-1.116.918-2.53 1.358-4.381.44-1.85.875-4.135 1.328-6.994.905-5.718 1.878-13.728 3.094-25.125.542-5.085.95-8.99 1.254-14.594.303-5.604.5-12.905.623-24.78.246-23.747.192-65.788.076-149.126-.075-53.401-.227-96.174-.442-126.274-.214-30.099-.49-47.524-.816-50.226-.33-2.737-.55-13.585-.656-31.637-.107-18.052-.1-43.308.027-74.863.185-46.034.475-76.947 1.035-99.332.28-11.193.629-20.253 1.065-28.006.436-7.753.96-14.2 1.593-20.162.555-5.225 1.018-12.593 1.028-16.373.005-2.181.286-6.074.746-10.903.46-4.828 1.098-10.591 1.822-16.513a768.582 768.582 0 0 1 2.33-17.463c.799-5.46 1.587-10.303 2.27-13.748.895-4.518 1.398-7.752 1.623-11.74.224-3.989.17-8.73-.047-16.26-.149-5.163-.329-9.335-.625-12.912-.297-3.577-.71-6.56-1.33-9.34-.62-2.78-1.445-5.361-2.565-8.135-1.119-2.774-2.533-5.74-4.328-9.297-2.466-4.886-4.737-8.977-7.02-12.482a65.361 65.361 0 0 0-3.458-4.844 49.296 49.296 0 0 0-3.63-4.123 44.761 44.761 0 0 0-3.954-3.555 49.942 49.942 0 0 0-4.438-3.146c-3.152-1.996-6.727-3.824-10.931-5.692-4.922-2.185-16.148-7.633-24.948-12.107-5.423-2.757-10.201-5.032-14.808-6.965-4.607-1.933-9.042-3.523-13.783-4.91s-9.787-2.57-15.614-3.69c-5.826-1.119-12.432-2.174-20.295-3.304a865.665 865.665 0 0 0-21.416-2.777c-6.978-.819-13.234-1.464-17.084-1.737-7.7-.546-18.275-1.657-23.5-2.47-3.61-.562-8.45-.933-16.293-1.165-7.842-.231-18.687-.325-34.306-.332zm-.313 16.983c13.592 0 21.737.07 28.475.418 3.369.173 6.385.415 9.555.754 3.169.338 6.491.773 10.47 1.328 4.926.687 10.14 1.312 14.573 1.765 4.432.454 8.081.735 9.88.735 2.437 0 7.409.479 13.643 1.24 6.234.762 13.73 1.806 21.213 2.941 7.482 1.136 14.95 2.362 21.13 3.485 6.182 1.123 11.076 2.144 13.407 2.867 2.218.688 5.923 2.15 10.103 3.95 4.181 1.8 8.838 3.939 12.963 5.982 8.25 4.086 20.625 10.11 27.5 13.386a197.588 197.588 0 0 1 9.471 4.819c2.662 1.457 4.616 2.646 5.219 3.219 1.578 1.498 3.356 3.763 5.168 6.476 1.812 2.714 3.658 5.875 5.375 9.172 1.717 3.297 3.303 6.728 4.595 9.977 1.293 3.248 2.292 6.313 2.83 8.88.544 2.59.94 5.592 1.186 8.838.247 3.247.346 6.738.3 10.313-.044 3.574-.236 7.23-.57 10.802-.333 3.573-.81 7.063-1.427 10.305-1.227 6.436-2.336 13.367-3.348 20.996-1.011 7.63-1.923 15.955-2.756 25.176-.832 9.221-1.584 19.338-2.273 30.55-.69 11.214-1.316 23.522-1.899 37.126-.251 5.878-.42 17.716-.496 38.191-.076 20.476-.06 49.589.053 90.018.228 80.858.852 206.98 1.932 399.79.048 8.662-.038 15.636-.291 21.708-.254 6.072-.675 11.24-1.295 16.293-.946 7.7-2.218 19.046-2.828 25.215-.413 4.172-.81 7.575-1.25 10.402-.441 2.827-.927 5.078-1.52 6.951-.593 1.873-1.294 3.367-2.164 4.678-.87 1.31-1.908 2.438-3.178 3.578-.983.882-2.214 1.808-3.65 2.76a67.659 67.659 0 0 1-4.873 2.914c-3.597 1.968-7.83 3.964-12.338 5.836a169.459 169.459 0 0 1-13.99 5.097c-4.699 1.478-9.313 2.684-13.483 3.467-4.95.93-11.025 2.114-13.5 2.63-4.88 1.015-10.613 1.995-16.197 2.794-5.584.8-11.018 1.418-15.303 1.713-4.95.341-13.558 1.26-19.129 2.043-1.783.25-5.383.468-10.34.652-4.956.185-11.27.337-18.486.457-14.431.24-32.468.352-50.455.336-17.987-.015-35.923-.157-50.156-.422-7.117-.132-13.308-.295-18.115-.488-4.808-.193-8.233-.416-9.819-.67-4.675-.747-10.784-1.377-13.576-1.4-2.717-.023-8.182-.563-14.601-1.389-6.42-.826-13.793-1.937-20.323-3.103-4.4-.786-11.6-1.932-16-2.545-4.4-.614-11.825-2.193-16.5-3.51-4.675-1.317-10.75-2.71-13.5-3.094-2.75-.384-7.964-1.704-11.586-2.933-3.621-1.23-8.571-2.545-11-2.92-2.31-.358-5.281-1.018-10.99-2.534-5.709-1.515-14.156-3.885-27.424-7.664-12.206-3.476-18.297-5.21-22.617-6.67s-6.87-2.645-11.996-5.025a82.16 82.16 0 0 1-6.084-3.129 70.621 70.621 0 0 1-5.588-3.533 66.228 66.228 0 0 1-5.164-4.012 67.984 67.984 0 0 1-4.808-4.564 76.197 76.197 0 0 1-4.528-5.192 92.122 92.122 0 0 1-4.312-5.89c-2.82-4.177-5.547-8.87-8.272-14.178-2.271-4.424-4.102-8.14-5.603-11.492-1.502-3.353-2.673-6.344-3.625-9.315-.952-2.97-1.684-5.922-2.307-9.199s-1.139-6.88-1.654-11.152c-2.343-19.408-4.657-36.763-6.51-48.815-.416-2.702-.744-8.636-.98-16.224-.237-7.588-.38-16.83-.422-26.155-.043-9.323.014-18.729.18-26.638.165-7.91.438-14.323.825-17.668 1.105-9.528 1.984-19.479 2.649-30.492.664-11.014 1.114-23.09 1.361-36.866.248-13.775.294-29.249.147-47.06-.147-17.811-.486-37.96-1.004-61.082-.272-12.143-.54-22.1-.854-30.531-.313-8.432-.67-15.337-1.123-21.375-.452-6.039-1-11.21-1.691-16.172-.692-4.963-1.528-9.718-2.557-14.922-.743-3.76-1.342-8.05-1.789-12.658a212.886 212.886 0 0 1-.88-14.567c-.14-5.032-.122-10.17.06-15.203.181-5.033.526-9.961 1.039-14.572.888-7.975 2.308-22.375 3.156-32 .848-9.625 1.947-20.65 2.443-24.5.497-3.85.927-10.375.956-14.5.014-2.063.2-4.836.486-7.643.286-2.807.673-5.647 1.094-7.844.42-2.196.914-5.882 1.37-10.05.457-4.169.876-8.821 1.147-12.95.543-8.257 1.655-19.867 2.47-25.798.817-5.932 1.485-12.053 1.485-13.604 0-.921-.256-1.889-.695-2.822a10.415 10.415 0 0 0-1.787-2.615c-.728-.784-1.561-1.454-2.428-1.926-.866-.473-1.765-.748-2.621-.748h-2.627l.393-29.75c.11-8.435.173-14.647.353-19.516.18-4.868.476-8.393 1.059-11.451a35.54 35.54 0 0 1 1.11-4.348 45.206 45.206 0 0 1 1.661-4.304c1.321-3.004 3.095-6.419 5.489-11.123 1.754-3.448 3.135-6.075 4.535-8.131.7-1.028 1.404-1.914 2.162-2.688a13.806 13.806 0 0 1 2.482-2.015c.914-.581 1.93-1.081 3.098-1.532 1.167-.45 2.485-.851 4.004-1.234 3.038-.765 6.878-1.456 11.91-2.322 3.995-.688 8.52-1.59 12.592-2.487 4.072-.897 7.69-1.79 9.873-2.464 4.365-1.348 11.087-2.973 14.937-3.612 1.925-.32 4.856-1.004 8.028-1.851 3.172-.847 6.585-1.857 9.472-2.823 3.573-1.194 8.022-2.536 13.348-4.025 5.326-1.49 11.53-3.126 18.611-4.91 14.164-3.569 31.842-7.728 53.041-12.48 8.352-1.873 14.876-3.32 20.489-4.499 5.612-1.177 10.312-2.084 15.011-2.875 4.7-.79 9.4-1.465 15.012-2.175 5.612-.711 12.137-1.459 20.488-2.397 16.869-1.895 26.124-2.893 34.795-3.416 4.336-.262 8.525-.405 13.447-.482 4.923-.078 10.578-.09 17.846-.09z" style="isolation:auto;mix-blend-mode:normal" color="#000" overflow="visible" fill="url(#b)" transform="translate(-208.598 -41.565)"/><path d="M543.984 424.264c-8.6 0-11.155 2.254-18.732 16.533-8.867 16.708-16.8 31.107-17.604 31.947-.551.577-50.034 6.321-60.962 7.076l-3.297.229-4.47-13.307c-8.56-25.495-13.54-32.193-23.935-32.193-5.948 0-11.547 3.256-14.105 8.203-3.13 6.054-1.801 13.357 5.424 29.797 1.087 2.475 2.269 5.894 2.625 7.597l.646 3.096-10.56 1.303c-7.824.965-17.624 1.115-37.797.576-14.979-.4-28.722-.691-30.541-.646-11.51.283-18.334 14.517-11.664 24.332 3.442 5.065 7.124 6.723 17.308 7.795 13.202 1.389 62.158 1.07 72.164-.471 8.924-1.374 10-1.284 10 .842 0 .718 1.601 4.508 3.559 8.422 2.633 5.262 4.746 7.966 8.115 10.384l4.555 3.27-3.865.658c-3.322.566-21.515 1.207-26.547.934-.926-.05-1.975-1.016-2.334-2.147-.359-1.13-2.483-3.38-4.719-5-7.746-5.611-19.055-3.036-23.426 5.334-2.457 4.706-2.052 13.66 1.477 32.72 3.252 17.566 5.647 32.262 6.62 40.62l.599 5.117-4.426.498c-8.895 1.003-14.185 7.81-13.403 17.246.522 6.285 3.326 10.595 8.485 13.043 3.37 1.6 6.001 1.709 27.27 1.131 28.236-.767 41.703-1.375 48.915-2.209l5.375-.621-.757 11.838c-.417 6.51-.869 15.438-1.006 19.838l-.25 8-4.37.275c-2.402.151-9.317.927-15.367 1.725-6.05.798-17.525 1.91-25.5 2.47-7.975.562-23.005 2.373-33.4 4.026-20.5 3.259-23.6 3.522-23.6 2.01 0-.547-1.868-2.347-4.15-4-5.791-4.195-12.845-4.242-18.531-.123-2.19 1.586-4.55 4.26-5.246 5.943-.875 2.113-2.185 3.26-4.23 3.709-4.148.91-9.606 6.68-10.419 11.014-1.63 8.686 1.676 16.027 8.59 19.078 3.146 1.388 4.057 2.381 4.404 4.81.83 5.796 2.623 33.088 3.092 47.047.692 20.589 2.237 33.522 5.621 47 3.413 13.592 6.04 18.422 11.416 20.973 4.88 2.316 12.987 1.723 17.17-1.256 6.92-4.928 7.96-13.751 3.342-28.385-3.312-10.497-4.703-22.152-5.59-46.816-.326-9.075-1.007-20.55-1.514-25.5-1.124-10.987-1.213-19.5-.205-19.502.413-.001 10.875-1.587 23.25-3.526 12.375-1.938 28.8-3.974 36.5-4.523 12.968-.925 21.789-1.851 33.75-3.547 4.51-.639 4.754-.554 4.854 1.711.382 8.66.308 33.219-.104 33.879-1.203 1.931-36.5 10.008-43.738 10.008-2.807 0-9.07 4.728-10.867 8.203-2.085 4.032-2.085 11.564 0 15.596 2.63 5.086 8.134 8.2 14.49 8.2 9.45 0 33.629-5.013 50.62-10.495 3.851-1.243 9.701-2.803 13-3.467 3.297-.664 9.595-2.263 13.995-3.553 12.03-3.527 35.726-8.294 47-9.455 18.637-1.92 18.173-1.936 22.143.762 2.015 1.369 5.608 2.708 7.986 2.976 4.008.452 4.544.877 7.328 5.811 4.028 7.137 8.954 10.422 15.627 10.422 3.664 0 6.06-.64 8.426-2.25 5.623-3.827 7.455-7.16 7.455-13.553 0-5.336-.572-6.707-8.982-21.516-9.242-16.272-19.074-29.626-25.826-35.078-3.437-2.774-4.547-3.103-10.5-3.103-5.285 0-7.301.46-9.784 2.23-4.53 3.231-6.692 8.42-6.164 14.793l.436 5.246-8.572.698c-12.865 1.047-47.213 7.265-50.145 9.078-1.281.792-1.504-1.803-1.38-16.041l.122-13.998 3.914-.7c2.154-.385 11.341-1.186 20.416-1.779 16.645-1.088 33.127-2.852 51.5-5.512 5.5-.796 14.95-1.715 21-2.04 6.05-.327 15.5-1.334 21-2.239 10.226-1.682 44.139-2.196 46.551-.705 1.87 1.156.38 5.687-5.137 15.621-8.795 15.84-10.846 24.326-11.328 46.848-.592 27.693 1.582 39.262 11.528 61.365 2.194 4.876 3.75 9.104 3.459 9.395-1.51 1.508-28.09-12.109-46.073-23.602-3.85-2.46-10.825-6.467-15.5-8.904-7.663-3.995-9.048-4.392-14.066-4.041-10.013.699-15.563 7.206-14.729 17.267.615 7.408 3.192 10.385 13.997 16.18 5.113 2.743 14.654 8.272 21.2 12.287 25.892 15.88 41.444 22.664 54.932 23.963 12.307 1.185 21.48.279 27.666-2.732 7.904-3.848 10-7.444 10-17.15 0-9.569-2.934-18.434-15.13-45.731-3.428-7.673-4.994-18.047-5.024-33.297-.016-7.975.49-16.75 1.121-19.5.632-2.75 4.23-11.3 7.998-19 7.646-15.627 9.035-20.277 9.035-30.264 0-9.136-2.33-15.62-7.46-20.75-6.393-6.392-13.635-9.463-24.684-10.467-14.308-1.3-42.91-.669-54.856 1.211-5.775.91-17.29 2.138-25.591 2.733-8.3.594-17.75 1.496-21 2.002-18.378 2.862-31.392 4.184-54.409 5.527l-10.5.613 1-18.715 1-18.712 27.668-.09 27.668-.088 4.385-3.09c2.412-1.7 6.322-3.4 8.688-3.78 9.694-1.55 15.086-7.348 17.087-18.372.884-4.867 3.607-11.538 9.727-23.834 8.44-16.959 8.498-17.128 8.498-24.739 0-14.707-5.77-21.207-23.992-27.021-13.303-4.244-26.043-5.93-45.826-6.063l-15.305-.101 2.86-3c3.1-3.254 13.351-18.816 17.171-26.07 1.327-2.52 3.252-4.687 4.371-4.922 1.1-.232 13.7-.967 28-1.635 33.995-1.588 83.256-1.608 86.196-.035 1.194.639 4.469 1.162 7.277 1.162 19.332 0 24.95-23.208 7.79-32.174-4.186-2.187-4.96-2.229-42.263-2.277-20.9-.028-45.352.34-54.338.818l-16.337.87 3.13-5.37c7.108-12.182 10.33-20.112 10.33-25.426 0-9.648-6.1-15.726-15.785-15.726zm-58.808 84.433c.831.076 1.308.268 1.308.565 0 .545-2.711 4.062-6.025 7.816-6.656 7.54-7.43 9.396-6.77 16.276l.452 4.695-11.64.025-11.636.026 2.79-2.348c5.379-4.527 6.048-15.413 1.292-21.064l-2.35-2.792 12.194-1.253c6.706-.69 14.33-1.505 16.943-1.813 1.424-.168 2.61-.208 3.442-.133zm32.558 61.162c.963-.251 2.538-.251 3.5 0 .963.252.175.457-1.75.457s-2.712-.205-1.75-.457zm10.774 1.032c.982.003 2.677.096 4.97.234 10.373.625 22.248 3.193 21.745 4.703-.399 1.195-2.103 2.014-2.801 1.344-.24-.23-4.938-1.414-10.438-2.627-12.956-2.858-16.423-3.663-13.476-3.654zm-40.024 30.367l14.75.582c11.049.436 17.26 1.223 24.75 3.135 5.5 1.403 10.839 2.556 11.866 2.562 1.446.01 1.73.519 1.263 2.262-.331 1.237-.608 2.475-.615 2.75-.015.55-48.588.704-51.406.162-1.089-.21-1.537-.906-1.182-1.832.316-.822.574-3.322.574-5.557v-4.064zm-36.867.836c2.293-.041 3.809.033 3.994.232.372.398.44 3.062.153 5.92-.592 5.872-.386 5.759-12.28 6.774-3.575.304-11.787.777-18.25 1.048l-11.75.493v-11.832l8.75-.614c4.813-.337 14.138-1.04 20.725-1.562 3.293-.262 6.365-.418 8.658-.46z" fill="url(#d)" transform="translate(-208.598 -41.565)"/><path d="M206.886 89.003c-6.616-.015-10.728 2.186-14.013 7.502-1.953 3.16-2.283 4.966-2.164 11.854.077 4.469.877 11.95 1.78 16.625 1.066 5.51 1.815 16.078 2.128 30.045l.482 21.545-16.857 5.18c-9.271 2.848-20.653 6.12-25.293 7.273-11.1 2.756-47.667 16.055-56.559 20.57-13.39 6.8-24.2 15.068-27.205 20.81-2 3.822-1.953 11.414.096 15.376 2.581 4.992 8.15 8.2 14.226 8.2 4.528 0 5.893-.54 11.168-4.423 17.245-12.695 36.497-20.729 74.211-30.967 9.075-2.463 18.456-5.178 20.846-6.033l4.346-1.555-.604 5.239c-1.32 11.481-1.824 79.86-.635 86.097 3.742 19.615 7.863 32.084 13.637 41.266 6.084 9.673 12.687 14.642 25.91 19.504 4.308 1.583 7.425 1.792 22.5 1.494 15.324-.303 18.5-.66 25.55-2.871 4.427-1.389 13.142-3.499 19.366-4.69 6.224-1.19 14.301-3.292 17.95-4.67 7.712-2.912 34.914-9.421 53.634-12.835 19.18-3.498 42.569-9.266 51.664-12.739 6.545-2.499 8.523-3.783 10.914-7.084 3.923-5.415 4.083-12.558.403-17.974-4.912-7.23-10.409-8.474-22.842-5.168-19.759 5.253-38.091 9.521-48.86 11.377-14.841 2.557-47.695 10.337-55.279 13.09-3.3 1.197-11.625 3.447-18.5 4.998-6.875 1.55-16.325 3.735-21 4.857-4.675 1.122-11.875 2.042-16 2.043-14.588.004-19.135-4.557-24.379-24.451-2.724-10.335-2.93-12.495-3.382-35.504-.356-18.123-.01-30.666 1.324-48.19l1.803-23.691 7.566-1.596c4.162-.877 16.118-4.015 26.568-6.972 10.45-2.958 24.4-6.521 31-7.92 6.6-1.4 17.175-3.914 23.5-5.588 6.325-1.675 18.475-3.965 27-5.088 8.525-1.124 19.55-2.723 24.5-3.555 4.95-.831 12.95-2.174 17.778-2.986 4.828-.812 15.853-1.6 24.5-1.752 12.494-.219 16.383-.627 18.943-1.98 8.065-4.266 10.86-15.419 5.75-22.94-4.623-6.804-6.459-7.26-28.47-7.098-13.196.098-22.41.675-28.5 1.787-15.362 2.806-31.574 5.323-42 6.52-11.424 1.312-64.856 13.709-84.5 19.605-4.676 1.404-11.988 3.371-16.25 4.372l-7.75 1.818v-17c0-10.962-.567-20.312-1.592-26.328-1.182-6.931-1.34-10.508-.614-13.91 2.546-11.935-5.34-21.46-17.795-21.489zm256.268 248.504z"/></svg>