<svg xmlns:osb="http://www.openswatchbook.org/uri/2009/osb" xmlns="http://www.w3.org/2000/svg" height="883.668" width="605.647"><defs><linearGradient osb:paint="solid" id="c"><stop offset="0" stop-color="#fff"/></linearGradient><linearGradient osb:paint="solid" id="b"><stop offset="0"/></linearGradient><linearGradient osb:paint="solid" id="a"><stop offset="0" stop-color="#162d50"/></linearGradient><linearGradient osb:paint="solid" id="d"><stop offset="0" stop-color="#d40000"/></linearGradient></defs><path d="M508.436 75.45c-14.932.052-29.455.36-42.473.954-5.533.253-12.7.834-20.52 1.614-7.818.78-16.29 1.759-24.431 2.812-8.142 1.053-15.953 2.18-22.455 3.252-6.502 1.073-11.694 2.092-14.594 2.93-3.575 1.033-12.081 2.815-18.902 3.959-3.388.568-6.561 1.177-9.62 1.855a145.913 145.913 0 0 0-8.93 2.27c-2.927.844-5.84 1.786-8.835 2.855a200.79 200.79 0 0 0-9.334 3.613c-5.793 2.398-12.632 5.595-19.15 8.897-6.52 3.302-12.717 6.71-17.23 9.533a877.908 877.908 0 0 1-15.845 9.62c-3.372 1.99-6.793 4.385-10.156 7.073a114.626 114.626 0 0 0-9.803 8.836 116.625 116.625 0 0 0-8.795 9.942c-2.691 3.424-5.105 6.923-7.134 10.387-1.626 2.773-3.3 6.501-4.913 10.796-1.613 4.296-3.167 9.16-4.554 14.2a194.58 194.58 0 0 0-3.557 15.265c-.948 5.008-1.622 9.807-1.916 14.006-.165 2.359-.187 6.352-.088 10.883.1 4.531.32 9.601.635 14.117l2.193 31.422c.288 4.125.713 8.628 1.164 12.56.452 3.933.93 7.295 1.327 9.137.474 2.201.826 4.158 1.048 6.201.223 2.044.316 4.175.278 6.72-.039 2.544-.21 5.504-.52 9.208-.31 3.704-.758 8.152-1.35 13.674-.454 4.245-.806 7.976-1.078 12.447-.271 4.471-.462 9.683-.597 16.889-.27 14.412-.315 36.8-.322 77.203-.007 35.913-.079 58.473-.301 73.275-.112 7.401-.26 12.861-.457 17.082-.197 4.222-.443 7.203-.746 9.643-.41 3.29-.84 8.643-1.205 14.617a532.999 532.999 0 0 0-.81 18.344c-.29 11.55-.988 26.625-1.552 33.5-.564 6.875-1.41 26.45-1.877 43.5-.295 10.788-.72 20.551-1.312 29.924a656.38 656.38 0 0 1-2.326 27.576c-1.325 12.581-2.006 19.407-2.213 24.977a98.004 98.004 0 0 0 .023 7.974c.113 2.72.323 5.687.61 9.465.664 8.754 1.86 19.779 2.66 24.5.799 4.721 1.904 13.984 2.455 20.584.355 4.26.993 8.653 1.869 13.04.876 4.385 1.99 8.764 3.303 13.001 1.311 4.237 2.819 8.33 4.482 12.145 1.663 3.813 3.48 7.347 5.41 10.464 2.162 3.493 6.003 10.213 8.54 14.934a132.824 132.824 0 0 0 4.591 7.918c1.524 2.42 3.037 4.615 4.523 6.564 1.487 1.95 2.948 3.654 4.368 5.092 1.419 1.439 2.797 2.611 4.119 3.5 1.54 1.036 3.418 2.15 5.459 3.26a118.174 118.174 0 0 0 6.435 3.24 104.203 104.203 0 0 0 6.35 2.725c1.986.768 3.782 1.369 5.21 1.719 2.682.656 6.554 2.032 8.604 3.056 2.051 1.024 6.551 2.519 10 3.322 3.45.804 10.322 2.838 15.272 4.52 2.475.841 5.81 1.77 9.19 2.588 3.379.818 6.803 1.527 9.456 1.928 5.306.8 10.931 1.958 12.5 2.574 1.102.432 3.243.951 6.059 1.504 2.816.552 6.308 1.138 10.113 1.703 7.61 1.13 16.471 2.177 23.682 2.71 7.15.53 16.375 1.6 20.5 2.382 3.445.652 6.79 1.175 12.226 1.83 5.437.655 12.964 1.443 24.774 2.629 3.112.312 12.727.553 25.623.718 12.896.166 29.073.257 45.312.27 16.24.013 32.539-.051 45.68-.195 13.142-.145 23.125-.37 26.729-.676 12.355-1.053 22.33-1.953 30.605-2.805 8.274-.851 14.848-1.655 20.397-2.515 5.548-.861 10.07-1.78 14.248-2.86 4.177-1.08 8.007-2.323 12.168-3.834 2.956-1.073 6.449-2.542 10.158-4.242 3.709-1.7 7.635-3.63 11.459-5.625a232.918 232.918 0 0 0 10.844-6.008c3.3-1.955 6.178-3.807 8.316-5.39 2.155-1.597 4.577-3.632 7.039-5.872a153.305 153.305 0 0 0 7.283-7.097c2.318-2.413 4.45-4.794 6.17-6.908 1.72-2.115 3.029-3.963 3.7-5.309 1.082-2.172 2.085-4.552 3.01-7.148a94.318 94.318 0 0 0 2.538-8.442c.77-3.033 1.46-6.288 2.076-9.771.617-3.483 1.16-7.194 1.627-11.139.62-5.225 1.388-10.85 1.71-12.5.32-1.65.928-18.975 1.349-38.5.61-28.331 1.294-53.689 1.976-73.785.683-20.096 1.363-34.932 1.963-42.215.612-7.425 1.556-21.6 2.098-31.5 1.112-20.31 1.847-33.146 2.426-41.777.578-8.631 1-13.057 1.482-16.545.558-4.028 1.017-11.003 1.02-15.5 0-2.25.109-4.686.285-6.803s.419-3.912.683-4.875c.53-1.925 1.663-11.825 2.518-22 .855-10.175 1.975-20.525 2.488-23 .513-2.475.953-6.83.977-9.68.012-1.424.82-7.424 2.113-15.943 1.293-8.519 3.071-19.556 5.022-31.057 1.95-11.5 3.819-23.08 5.257-32.472 1.44-9.393 2.448-16.598 2.68-19.348.465-5.5 1.85-15.4 3.078-22 .514-2.762.912-5.086 1.219-7.58.307-2.494.526-5.157.682-8.598.312-6.88.375-16.87.412-34.822.025-12.136-.074-23.114-.276-32.068-.201-8.955-.507-15.887-.896-19.932-.689-7.15-1.955-21.325-2.815-31.5-.774-9.17-1.63-17.34-2.603-24.684-.973-7.343-2.063-13.858-3.307-19.714-1.243-5.857-2.638-11.056-4.224-15.766a100.275 100.275 0 0 0-2.526-6.719 87.102 87.102 0 0 0-2.838-6.117c-2.637-5.146-5.703-10.49-8.972-15.723a247.461 247.461 0 0 0-10.192-15.06c-3.45-4.705-6.875-8.993-10.054-12.555a86.278 86.278 0 0 0-4.555-4.76c-1.437-1.38-2.785-2.54-4.014-3.441-1.412-1.037-3.098-2.12-4.998-3.225a109.61 109.61 0 0 0-6.29-3.365c-4.55-2.26-9.732-4.526-15.098-6.621-5.367-2.095-10.916-4.019-16.194-5.594-5.278-1.575-10.285-2.802-14.568-3.504-3.575-.585-9.844-1.983-13.932-3.107-2.044-.562-4.541-1.073-6.918-1.443-2.376-.371-4.632-.602-6.193-.602-1.562 0-4.431-.229-7.797-.598a237.427 237.427 0 0 1-10.771-1.437c-5.66-.894-12.933-1.698-21.362-2.399-8.428-.7-18.012-1.298-28.287-1.779-10.275-.48-21.243-.846-32.441-1.08a1394.132 1394.132 0 0 0-33.826-.299z" style="isolation:auto;mix-blend-mode:normal" color="#000" overflow="visible" fill="url(#c)" transform="translate(-197.177 -58.166)"/><path d="M553.488 58.225c-12.177-.108-27.947-.067-48.025.119-25.92.239-40.831.43-50.994.799-5.082.184-8.977.414-12.467.716-3.49.303-6.576.678-10.04 1.155-18.267 2.516-30.827 4.317-39.302 5.658-8.474 1.341-12.863 2.223-14.787 2.902-2.253.795-9.568 2.353-16.254 3.463a198.82 198.82 0 0 0-10.166 1.955 179.914 179.914 0 0 0-19.809 5.553 194.838 194.838 0 0 0-10.011 3.75 228.176 228.176 0 0 0-10.332 4.5 285.769 285.769 0 0 0-10.838 5.322c-7.435 3.841-15.332 8.283-23.938 13.424-8.992 5.372-14.13 8.496-17.834 11.014a69.856 69.856 0 0 0-4.783 3.529c-1.437 1.162-2.818 2.377-4.445 3.854a137.01 137.01 0 0 0-9.77 9.84 141.46 141.46 0 0 0-8.666 10.622c-2.644 3.59-5.012 7.187-7.015 10.668-2.003 3.482-3.64 6.848-4.82 9.973-2.479 6.565-4.025 10.884-5.274 15.094-1.249 4.21-2.2 8.31-3.488 14.437l-2.727 12.969.795 28.5c.437 15.675.87 34.575.963 42 .046 3.713.218 7.537.455 10.709.237 3.172.541 5.691.855 6.791.315 1.1.603 2.698.815 4.387.212 1.688.347 3.468.353 4.93.007 1.461.117 2.983.288 4.257.17 1.274.402 2.3.654 2.772.282.526.411 1.579.392 2.996-.018 1.417-.186 3.199-.502 5.187-.305 1.927-.635 13.506-.943 31.936-.308 18.43-.594 43.71-.81 73.035-.232 31.361-.52 57.031-.842 75.775-.323 18.745-.682 30.564-1.055 34.225-.672 6.598-1.223 12.47-1.713 18.84-.49 6.369-.92 13.233-1.35 21.814-.859 17.162-1.719 41.19-3.07 81.846-.402 12.1-1.228 25.825-1.836 30.5-1.573 12.111-2.672 22.342-3.31 30.855-.32 4.257-.522 8.085-.612 11.504-.09 3.42-.066 6.43.07 9.053.435 8.347 1.033 16.718 1.667 23.703.634 6.985 1.304 12.584 1.883 15.385.568 2.75 1.526 10.79 2.129 17.865.425 4.994 1.198 10.146 2.273 15.319a150.178 150.178 0 0 0 4.088 15.44 144.419 144.419 0 0 0 5.63 14.724c2.106 4.695 4.424 9.131 6.909 13.17 1.602 2.603 4.59 7.826 6.64 11.607a174.966 174.966 0 0 0 4.899 8.504c1.582 2.56 3.12 4.86 4.643 6.932a66.323 66.323 0 0 0 4.543 5.564 47.913 47.913 0 0 0 4.593 4.412c1.704 1.423 3.96 3.008 6.518 4.623a128.085 128.085 0 0 0 8.322 4.799 126.651 126.651 0 0 0 8.615 4.17c2.752 1.196 5.3 2.154 7.393 2.74 2.98.835 9.693 2.924 14.918 4.645 12.332 4.06 20.108 6.543 25.787 8.14 2.84.799 5.156 1.377 7.256 1.819 2.1.441 3.982.748 5.957 1.006 4.675.61 10.545 1.77 13.045 2.578 1.594.515 4.588 1.176 8.29 1.877 3.704.7 8.118 1.44 12.556 2.117 4.437.676 8.899 1.29 12.697 1.732 3.798.443 6.931.717 8.715.717 1.632 0 4.93.29 8.93.758 3.999.468 8.7 1.113 13.136 1.822 8.872 1.418 20.856 2.929 26.63 3.356 3.778.279 15.387.491 30.87.634 15.483.144 34.842.218 54.117.223 19.276.005 38.469-.058 53.623-.193 15.155-.135 26.27-.342 29.39-.62 5.776-.513 15.923-1.376 22.548-1.917a217.795 217.795 0 0 0 19.615-2.479 189.659 189.659 0 0 0 18.467-4.152 174.706 174.706 0 0 0 17.455-5.868 171.48 171.48 0 0 0 16.586-7.619c3.793-1.992 6.964-3.703 9.742-5.285 2.778-1.582 5.164-3.035 7.389-4.513a96.246 96.246 0 0 0 6.422-4.665c2.134-1.682 4.34-3.542 6.845-5.736 3.621-3.17 6.857-6.202 9.75-9.262 2.893-3.06 5.443-6.147 7.694-9.43a64.72 64.72 0 0 0 3.156-5.091 66.166 66.166 0 0 0 2.74-5.508 74.937 74.937 0 0 0 2.356-6.049 92.588 92.588 0 0 0 2.002-6.715c1.225-4.727 2.238-9.98 3.08-15.93.842-5.948 1.513-12.59 2.058-20.093.545-7.502.963-15.865 1.297-25.254.334-9.39.585-19.805.795-31.414.256-14.162.602-28.443.953-40.043.35-11.6.706-20.52.983-23.957.552-6.875 1.505-22.625 2.117-35 1.422-28.776 2.822-53.644 4.093-73.01.636-9.682 1.24-17.991 1.8-24.722.558-6.732 1.072-11.887 1.529-15.268.779-5.775 1.91-16.125 2.511-23 .602-6.875 1.75-17.06 2.555-22.635.804-5.575 1.463-12.389 1.463-15.14 0-2.752.66-8.54 1.469-12.864 2.27-12.154 5.653-32.21 8.468-49.718 2.815-17.51 5.063-32.471 5.063-34.44 0-2.533.873-9.803 1.941-16.154.821-4.882 1.503-9.727 2.055-14.711.552-4.984.974-10.106 1.275-15.543.302-5.437.484-11.19.555-17.43.071-6.24.032-12.97-.107-20.365-.253-13.42-.723-26.527-1.385-39.059-.662-12.53-1.518-24.486-2.541-35.603-1.023-11.118-2.214-21.398-3.549-30.576-.668-4.59-1.37-8.903-2.107-12.908a218.841 218.841 0 0 0-2.307-11.061c-1.134-4.76-2.18-8.783-3.295-12.432-1.116-3.648-2.3-6.924-3.713-10.19-1.412-3.264-3.05-6.52-5.074-10.13-2.023-3.61-4.432-7.574-7.38-12.256-3.544-5.625-6.796-10.557-9.845-14.902-3.049-4.345-5.894-8.104-8.625-11.38-2.73-3.274-5.346-6.067-7.933-8.483-2.588-2.417-5.149-4.456-7.77-6.225-3.51-2.369-7.852-4.833-12.654-7.244-4.802-2.41-10.065-4.768-15.412-6.92-5.348-2.152-10.78-4.1-15.926-5.693-5.146-1.594-10.005-2.833-14.203-3.567-4.675-.817-11.379-2.366-14.897-3.441-1.758-.538-4.775-1.133-8.218-1.658a147.431 147.431 0 0 0-10.782-1.243c-6.932-.52-15.303-1.44-18.603-2.045-3.3-.604-11.4-1.485-18-1.96-6.6-.476-19.425-1.404-28.5-2.061-5.712-.414-14.297-.671-26.475-.78zm-45.052 17.224c11.199-.04 22.627.065 33.826.299 11.198.234 22.166.6 32.441 1.08 10.275.481 19.859 1.079 28.287 1.78 8.429.7 15.702 1.504 21.362 2.398 3.544.56 7.405 1.069 10.771 1.437 3.366.37 6.235.598 7.797.598 1.562 0 3.817.23 6.193.602 2.377.37 4.874.88 6.918 1.443 4.088 1.124 10.357 2.522 13.932 3.107 4.283.702 9.29 1.93 14.568 3.504 5.278 1.575 10.827 3.5 16.194 5.594 5.366 2.095 10.548 4.36 15.097 6.621a109.61 109.61 0 0 1 6.291 3.365c1.9 1.106 3.586 2.188 4.998 3.225 1.23.902 2.577 2.062 4.014 3.441a86.278 86.278 0 0 1 4.555 4.76c3.179 3.562 6.605 7.85 10.054 12.555a247.461 247.461 0 0 1 10.192 15.06c3.269 5.234 6.335 10.577 8.972 15.723 1.001 1.952 1.946 3.985 2.838 6.117a100.275 100.275 0 0 1 2.526 6.719c1.586 4.71 2.981 9.91 4.224 15.766 1.244 5.856 2.334 12.371 3.307 19.714.973 7.343 1.829 15.514 2.603 24.684.86 10.175 2.126 24.35 2.815 31.5.39 4.045.695 10.977.896 19.932.202 8.954.3 19.932.276 32.068-.037 17.953-.1 27.941-.412 34.822-.156 3.44-.375 6.104-.682 8.598-.307 2.494-.705 4.818-1.219 7.58-1.228 6.6-2.613 16.5-3.078 22-.232 2.75-1.24 9.955-2.68 19.348a2138.246 2138.246 0 0 1-5.257 32.472c-1.95 11.5-3.729 22.538-5.022 31.057-1.293 8.519-2.101 14.519-2.113 15.943-.024 2.85-.464 7.205-.977 9.68-.513 2.475-1.633 12.825-2.488 23s-1.988 20.075-2.517 22c-.265.963-.508 2.758-.684 4.875a85.216 85.216 0 0 0-.285 6.803c-.003 4.497-.462 11.472-1.02 15.5-.483 3.488-.904 7.914-1.482 16.545-.579 8.63-1.314 21.467-2.426 41.777-.542 9.9-1.486 24.075-2.098 31.5-.6 7.283-1.28 22.119-1.963 42.215-.682 20.096-1.366 45.454-1.976 73.785-.42 19.525-1.029 36.85-1.35 38.5-.32 1.65-1.09 7.275-1.709 12.5a197.048 197.048 0 0 1-1.627 11.139 137.257 137.257 0 0 1-2.076 9.771 94.318 94.318 0 0 1-2.539 8.442c-.924 2.596-1.927 4.976-3.01 7.148-.67 1.346-1.979 3.194-3.699 5.309-1.72 2.114-3.852 4.495-6.17 6.908a153.305 153.305 0 0 1-7.283 7.097c-2.462 2.24-4.884 4.275-7.039 5.872-2.138 1.583-5.017 3.435-8.316 5.39-3.3 1.955-7.02 4.014-10.844 6.008a254.468 254.468 0 0 1-11.46 5.625c-3.708 1.7-7.201 3.169-10.157 4.242-4.161 1.51-7.991 2.754-12.168 3.834s-8.7 1.999-14.248 2.86c-5.549.86-12.123 1.664-20.397 2.515-8.274.852-18.25 1.752-30.605 2.805-3.604.307-13.587.531-26.729.676-13.141.144-29.44.208-45.68.195-16.238-.013-32.416-.104-45.312-.27-12.896-.165-22.51-.406-25.623-.718-11.81-1.186-19.337-1.974-24.774-2.63-5.436-.654-8.781-1.177-12.226-1.83-4.125-.78-13.35-1.851-20.5-2.38-7.21-.534-16.072-1.581-23.682-2.711-3.805-.565-7.297-1.15-10.113-1.703-2.816-.553-4.957-1.072-6.059-1.504-1.569-.616-7.194-1.773-12.5-2.574-2.652-.4-6.077-1.11-9.457-1.928-3.38-.819-6.714-1.747-9.19-2.588-4.95-1.682-11.821-3.716-15.27-4.52-3.45-.803-7.95-2.298-10-3.322-2.051-1.024-5.923-2.4-8.604-3.056-1.429-.35-3.225-.951-5.211-1.72a104.203 104.203 0 0 1-6.35-2.724 118.174 118.174 0 0 1-6.435-3.24c-2.041-1.11-3.92-2.224-5.46-3.26-1.321-.889-2.7-2.061-4.118-3.5-1.42-1.438-2.88-3.143-4.368-5.092-1.486-1.949-2.999-4.144-4.523-6.564a132.824 132.824 0 0 1-4.592-7.918c-2.535-4.721-6.377-11.441-8.539-14.934-1.929-3.117-3.747-6.65-5.41-10.464-1.663-3.814-3.17-7.908-4.482-12.145a130.737 130.737 0 0 1-3.303-13.002c-.876-4.386-1.514-8.778-1.87-13.039-.55-6.6-1.655-15.863-2.454-20.584-.8-4.721-1.996-15.746-2.66-24.5-.287-3.778-.497-6.746-.61-9.465a97.959 97.959 0 0 1-.023-7.974c.207-5.57.888-12.396 2.213-24.977a656.38 656.38 0 0 0 2.326-27.576c.593-9.373 1.017-19.136 1.312-29.924.468-17.05 1.313-36.625 1.877-43.5.564-6.875 1.263-21.95 1.553-33.5.145-5.775.444-12.37.809-18.344.364-5.974.796-11.327 1.205-14.617.303-2.44.549-5.421.746-9.642.197-4.222.345-9.682.457-17.083.222-14.802.294-37.362.3-73.275.008-40.403.052-62.791.323-77.203.135-7.206.326-12.418.597-16.889.272-4.47.624-8.202 1.079-12.447.591-5.522 1.04-9.97 1.35-13.674.31-3.704.48-6.664.519-9.209.038-2.544-.055-4.675-.278-6.719-.222-2.043-.574-4-1.048-6.2-.397-1.843-.875-5.205-1.327-9.137a293.684 293.684 0 0 1-1.164-12.561l-2.193-31.422a307.166 307.166 0 0 1-.635-14.117c-.099-4.531-.077-8.524.088-10.883.294-4.199.968-8.998 1.916-14.006a194.58 194.58 0 0 1 3.557-15.265c1.387-5.04 2.941-9.904 4.554-14.2 1.614-4.295 3.287-8.023 4.913-10.796 2.03-3.464 4.443-6.963 7.134-10.387a116.625 116.625 0 0 1 8.795-9.942 114.626 114.626 0 0 1 9.803-8.835c3.363-2.689 6.784-5.083 10.156-7.075 4.59-2.71 11.72-7.038 15.846-9.619 4.512-2.822 10.71-6.23 17.228-9.533 6.519-3.302 13.358-6.499 19.15-8.897a200.79 200.79 0 0 1 9.335-3.613 149.397 149.397 0 0 1 8.836-2.855 145.913 145.913 0 0 1 8.93-2.27 188.022 188.022 0 0 1 9.619-1.855c6.82-1.144 15.327-2.926 18.902-3.96 2.9-.837 8.092-1.856 14.594-2.929 6.502-1.073 14.313-2.199 22.455-3.252a859.356 859.356 0 0 1 24.431-2.812c7.82-.78 14.987-1.361 20.52-1.614 13.018-.594 27.54-.902 42.473-.955z" style="isolation:auto;mix-blend-mode:normal" color="#000" overflow="visible" fill="url(#b)" transform="translate(-197.177 -58.166)"/><path d="M369.416 545.756c-13.214 0-19.153 11.627-13.947 27.3 1.629 4.906 1.626 5.367-.053 9.09-3.675 8.151-1.458 16.879 5.45 21.45l3.845 2.545 3.102 14.7c1.705 8.086 3.625 17.542 4.267 21.014 1.455 7.866 4.105 11.863 9.883 14.91 2.475 1.306 5.415 2.972 6.531 3.704 5.501 3.604 30.897 8.558 43.969 8.576 4.4.006 11.057.3 14.793.652l6.79.64-.29 6.536-.293 6.533-15.5.21c-36.706.497-74.89 3.31-100.168 7.376-3.117.502-7.402 2.061-9.523 3.465-8.581 5.678-9.88 13.832-4.092 25.707 4.36 8.948 4.987 14.901 5.297 50.377.347 39.807 1.382 56.403 3.76 60.354 2.96 4.92 7.226 7.138 13.726 7.138 6.614 0 10.734-2.206 14.01-7.506 2.268-3.67 2.289-3.992 1.593-23.853-.387-11.073-.846-31.833-1.02-46.133-.172-14.3-.65-29.016-1.06-32.703-.723-6.502-.675-6.717 1.616-7.219 11.76-2.575 86.018-6.336 88.978-4.506.52.321 1.064 12.763 1.24 28.338.362 31.922 1.783 28.036-11.357 31.084-36.292 8.42-44.071 11.48-50.008 19.676-2.395 3.306-2.992 5.151-2.992 9.248 0 12.92 13.55 20.086 25.215 13.334 4.53-2.623 18.504-6.74 38.156-11.242 9.442-2.163 12.367-2.495 14.297-1.615 1.334.607 4.767 1.103 7.629 1.1 5.29-.008 8.201-1.332 12.4-5.64 1.15-1.179 4.052-2.462 6.447-2.853 2.396-.39 8.072-1.58 12.614-2.645 4.542-1.064 12.873-2.34 18.513-2.835 5.64-.496 10.998-1.187 11.907-1.536 1.29-.495 2.494 1.05 5.488 7.041 6.815 13.64 12.345 18.473 21.137 18.473 8.98 0 15.427-6.703 15.427-16.04 0-4.05-.765-6.224-4.181-11.878-2.3-3.806-6.594-13.82-9.543-22.252-10.591-30.277-11.207-31.51-17.123-34.318-4.81-2.283-12.948-1.67-17.102 1.289-5.926 4.22-7.916 13.315-4.828 22.066 1.71 4.845 2.088 4.654-10.953 5.567-4.4.308-12.5 1.622-18 2.923s-10.16 2.232-10.354 2.069c-.92-.776-.298-48.714.64-49.293 1.706-1.055 39.965-.452 51.714.816 6.05.653 14.6 2.02 19 3.037s10.025 2.105 12.5 2.42c20.151 2.567 28.655 4.119 36 6.57 4.675 1.561 11.058 3.559 14.185 4.44 6.438 1.814 6.31 1.593 7.776 13.559 1.057 8.627 1.496 89.025.486 89.025-2.333 0-32.088-5.286-36.447-6.475-7.79-2.125-15.556-1.962-19.38.407-9.565 5.922-9.443 21.762.21 27.4 4.482 2.618 19.305 6.25 35.295 8.648 7.356 1.104 16.975 2.882 21.375 3.952 15.556 3.782 25.253 1.34 29.498-7.428 2.13-4.399 2.14-4.736 1.734-64.713-.428-63.429-.748-68.121-5.246-76.818-2.629-5.084-9.508-11.953-14.445-14.424-13.057-6.534-41.654-13.83-63.041-16.086-3.575-.377-9.875-1.502-14-2.498-11.942-2.883-27.747-4.211-53-4.457l-23.5-.23V670.54l12.5.271c11.182.242 26.202 1.66 43.422 4.102 9.731 1.38 15.506-.784 19.547-7.322 1.47-2.38 2.943-3.551 4.463-3.551 1.247 0 4.023-1.28 6.168-2.846 8.704-6.354 27.088-27.78 32.294-37.638 2.331-4.414 2.892-15.154 1.122-21.516-1.309-4.703-6.193-10.432-11.584-13.592-4.903-2.873-22.377-6.334-42.432-8.402-6.325-.652-14.2-1.804-17.5-2.559-3.3-.755-10.275-1.843-15.5-2.418-5.225-.575-14.606-2.04-20.848-3.256l-11.347-2.212-2.02-4.295c-2.68-5.7-6.822-8.521-13.305-9.059-6.33-.525-11.622 1.688-14.79 6.186l-2.19 3.107h-17c-20.073 0-40.735 1.134-45.482 2.496-1.862.534-3.446.866-3.52.738-.075-.128-.966-3.159-1.98-6.734-3.48-12.266-7.692-16.285-17.065-16.285zm65.814 51.531c2.908-.007 5.908.051 8.59.158 5.365.215 9.453.624 8.967 1.096-.178.173-6.097.617-13.154.986-10.173.533-15.352 1.383-25 4.106-6.693 1.889-12.92 3.673-13.836 3.963-1.937.613-2.357.072-3.274-4.207-.65-3.036-.536-3.175 3.131-3.768 2.095-.339 6.509-.79 9.809-1.002 3.3-.212 10.832-.706 16.738-1.1 2.308-.153 5.122-.225 8.03-.232zm102.233 13.69l3.5.486c1.925.267 9.442 1.25 16.703 2.185l13.201 1.7-2.023 2.597c-1.113 1.429-5.755 6.457-10.317 11.176-4.561 4.719-9.082 9.781-10.045 11.25-.962 1.469-2.035 2.61-2.384 2.535-.35-.075-1.76-.323-3.135-.55-5.047-.834-5.36-1.244-2.598-3.417 3.86-3.036 5.602-7.108 5.592-13.097-.007-5.613-1.93-9.657-6.207-13.051l-2.287-1.814zm-86.115 20.718c4.66.056 4.211.982 3.726 5.346-.06.55-.899.924-1.861.83-.963-.094-7.825-.492-15.25-.883-7.425-.39-14.175-.797-15-.904-.825-.107 1.367-1.04 4.871-2.074 3.986-1.176 10.337-1.99 16.963-2.174 2.876-.08 4.997-.16 6.55-.14zm38.937.04c.818-.005 1.884.042 3.276.115 7.011.366 15.993 2.47 21.748 5.093l4.154 1.893-14.922-.147c-15.789-.155-17.405-.61-17.07-4.808.132-1.654.36-2.133 2.814-2.147zM551.959 433.215c-7.72.545-12.55 5.444-13.99 14.293-.937 5.755-7.566 21.785-10.91 26.38-1.911 2.626-2.133 2.667-20.764 3.842-10.358.654-26.032 1.878-34.832 2.721-8.8.843-16.508 1.545-17.129 1.56-1.75.046-4.371-12.066-4.371-20.193 0-6.174-.394-7.89-2.53-11.033-3.208-4.721-7.558-6.974-13.47-6.974-7.314 0-11.86 2.988-15.518 10.199-2.115 4.17-2.157 11.476-.125 22.031.795 4.125 1.295 7.658 1.112 7.85-.554.579-31.046 4.063-45.47 5.195-13.95 1.095-39.869 5.265-55.358 8.906-12.58 2.958-22.574 7.358-26.834 11.815-4.814 5.035-5.807 7.249-5.807 12.937 0 12.611 13.635 19.687 25.215 13.086 2.356-1.343 6.31-3.153 8.785-4.021 11.39-3.997 41.746-9.368 60.777-10.752 7.853-.572 21.525-1.964 30.381-3.096 8.856-1.132 16.42-1.69 16.807-1.238.387.45 1.508 3.068 2.49 5.818 7.485 20.965 23.977 32.008 35.803 23.973 4.721-3.209 6.972-7.56 6.972-13.473 0-5.654-1.86-9.457-6.722-13.74-2.024-1.783-3.493-3.808-3.264-4.5.277-.837 3.907-1.51 10.836-2.004 5.73-.41 13.862-1.105 18.068-1.545l7.647-.799-4.147 5.828c-2.281 3.206-5.61 7.888-7.398 10.407-4.45 6.27-4.585 13.213-.367 19.035 2.688 3.71 5.79 5.641 10.617 6.607 2.695.54 7.45-.295 10.5-1.842 3.436-1.743 6.88-5.528 14.228-15.642 3.45-4.749 9.532-12.658 13.516-17.575l7.244-8.939 6.756-.639c3.716-.35 28.363-.64 54.772-.644 46.984-.007 48.098.037 51.96 2.107 11.281 6.046 24.524-1.08 24.524-13.197 0-9.66-4.815-15.853-14.7-18.906-6.147-1.899-9.245-2.012-55.36-2.012h-48.85l3.111-7.25c3.976-9.262 4.963-20.493 2.295-26.115-2.422-5.104-6.752-7.908-13.016-8.428a22.778 22.778 0 0 0-3.484-.033z" fill="url(#d)" transform="translate(-197.177 -58.166)"/><path d="M212.184 65.768c-3.177.038-6.443 1.018-9.547 2.986-6.163 3.908-8.851 8.492-8.851 15.088 0 4.542-.726 6.465-5.51 14.594-3.03 5.148-9.044 13.766-13.365 19.15-8.188 10.202-26.08 28.191-32.125 32.3-1.925 1.31-7.083 5.722-11.461 9.805-4.378 4.084-11.353 9.984-15.5 13.11-27.738 20.912-29.324 22.616-29.324 31.517 0 9.828 6.042 15.844 15.916 15.844 5.746 0 6.796-.557 18.967-10.037 3.354-2.612 10.329-7.95 15.5-11.863 5.17-3.913 10.527-8.336 11.902-9.83l2.5-2.72.5 78.333.5 78.33 2.219 3.11c1.22 1.71 3.695 3.864 5.5 4.785 4.547 2.319 13.403 1.724 17.472-1.174 6.678-4.755 6.344.602 6.293-100.725l-.045-91.637 9.114-9.63c10.69-11.296 22.854-29.03 30.213-44.047 5.014-10.233 5.234-11.024 5.234-18.854 0-6.725-.37-8.674-2.092-11-3.662-4.949-8.714-7.5-14.01-7.435zm36.438 32.95l-3.89 2.575c-4.87 3.222-7.177 7.589-7.177 13.582 0 5.95 2.302 10.358 7.053 13.502 3.504 2.319 4.986 2.548 21.223 3.285 9.6.436 31.742.776 49.205.754 17.462-.022 31.75.207 31.75.51 0 .302-.475 1.025-1.055 1.605-1.182 1.182-2.34 5.926-6.922 28.344-1.742 8.525-4.935 20.704-7.095 27.064-2.16 6.361-3.928 12.293-3.928 13.18 0 1.799 1.309 1.594-30.5 4.75-20.889 2.073-49.492 8.125-55.719 11.79-9.594 5.646-9.555 21.47.069 27.429 4.833 2.993 11.264 2.615 28.017-1.645 8.227-2.091 20.194-4.27 28-5.1 20.306-2.154 18.47-3.254 14.672 8.782-1.78 5.638-5.317 15.493-7.861 21.9-2.545 6.408-5.585 14.57-6.756 18.14-2.029 6.18-2.303 6.516-5.776 7.054-7.686 1.19-19.43 1.78-40.646 2.043-18.303.226-22.54.553-25.22 1.953-8.325 4.347-10.946 15.682-5.397 23.342 2.69 3.714 5.81 5.653 10.617 6.601 5.478 1.08 56.634-.26 65.5-1.717 13.017-2.138 25.446-3.297 60.5-5.634 16.5-1.1 34.95-2.574 41-3.276 7.619-.883 24.063-1.204 53.5-1.045 35.564.193 43.642.5 49.5 1.891 16.12 3.826 27.486-2.292 27.496-14.8.005-5.794-1.891-9.756-6.264-13.09-6.652-5.075-18.44-6.244-62.256-6.169l-33.226.057 3.945-11.441c2.17-6.293 5.081-14.168 6.47-17.5 4.106-9.843 5.31-15.524 5.323-25.112.015-11.59-2.66-17.639-10.355-23.406-9.912-7.43-9.907-7.428-41.463-7.824-22.862-.288-28.233-.61-27.826-1.668 2.252-5.87 5.16-17.327 8.18-32.227 1.964-9.695 3.935-18.346 4.382-19.224 1.502-2.953 1.975-7.693 1.137-11.407l-.832-3.687 14.644.525c14.018.504 34.744 2.462 47.76 4.51 10.203 1.606 14.507 1.244 18.643-1.566 4.846-3.294 6.748-7.143 6.738-13.672-.007-9.751-5.503-14.986-17.545-16.71-31.101-4.45-51.188-5.45-113.451-5.636-25.575-.077-54.975-.472-65.332-.877l-18.832-.734zM384.61 232.92c12.374.052 24.232.338 24.988.818 1.408.893.978 2.384-5.685 19.637-1.7 4.4-5.246 13.846-7.88 20.99l-4.786 12.989-5.48.816c-3.015.448-16.541 1.577-30.06 2.51l-24.577 1.695 2.19-5.5c1.203-3.025 2.9-7.075 3.769-9 .869-1.925 3.178-8.607 5.129-14.85 1.95-6.242 5.125-14.848 7.056-19.125 1.931-4.276 3.512-8.223 3.512-8.77 0-.545 1.687-1.271 3.75-1.612 2.813-.465 15.7-.65 28.074-.598z"/></svg>