<svg xmlns:osb="http://www.openswatchbook.org/uri/2009/osb" xmlns="http://www.w3.org/2000/svg" height="901.64" width="558.247"><defs><linearGradient osb:paint="solid" id="c"><stop offset="0" stop-color="#fff"/></linearGradient><linearGradient osb:paint="solid" id="b"><stop offset="0"/></linearGradient><linearGradient osb:paint="solid" id="a"><stop offset="0" stop-color="#162d50"/></linearGradient><linearGradient osb:paint="solid" id="d"><stop offset="0" stop-color="#d40000"/></linearGradient></defs><path d="M645.623 66.559c-16.483.038-40.611.574-61.867 1.265-10.628.346-20.54.731-28.416 1.112-7.877.38-13.72.756-16.217 1.085-2.337.31-7.725.694-14.521 1.065a1053.9 1053.9 0 0 1-22.979.984c-17.017.544-27.611.99-36.717 1.748-4.552.38-8.733.837-13.158 1.424-4.425.587-9.095 1.303-14.625 2.201a425.56 425.56 0 0 0-15.762 2.864 382.546 382.546 0 0 0-14.894 3.302 289.75 289.75 0 0 0-13.436 3.594c-4.17 1.231-7.998 2.487-11.386 3.744-5.938 2.203-13.997 4.942-17.909 6.086-1.956.572-4.915 1.63-8.107 2.873-3.193 1.243-6.618 2.671-9.506 3.985-5.775 2.626-11.175 5.057-12 5.4-.825.344-8.559 5.021-17.187 10.395-4.143 2.579-8.392 5.4-12.65 8.384a330.686 330.686 0 0 0-24.872 19.276 264.338 264.338 0 0 0-11.04 9.974c-1.952 1.871-3.45 3.328-4.64 4.578-1.189 1.251-2.07 2.296-2.779 3.342-.71 1.047-1.25 2.096-1.762 3.354-.511 1.258-.994 2.726-1.59 4.611-1.385 4.386-3.63 13.435-4.988 20.111-1.358 6.677-3.383 16.19-4.498 21.14-1.017 4.513-2.092 11.244-3.097 18.815a637.574 637.574 0 0 0-2.678 23.852c-.736 7.871-1.272 15.203-1.48 20.617-.105 2.707-.127 4.934-.051 6.51.075 1.576.249 2.5.537 2.6.625.216 2.145 1.481 3.377 2.81.385.417.734.919 1.046 1.531.313.613.59 1.335.834 2.188.487 1.706.839 3.936 1.069 6.869.23 2.933.339 6.567.34 11.08 0 4.514-.105 9.907-.305 16.356-.355 11.424-1.002 45.296-1.44 75.271-.218 14.988-.489 28.782-.75 38.932-.26 10.15-.511 16.656-.689 17.068-.351.815-.774 2.941-1.223 5.943-.448 3.003-.92 6.882-1.375 11.207-.908 8.652-1.738 19.087-2.127 27.85-.45 10.175-1.386 25.233-2.078 33.461-.49 5.841-.741 10.161-.754 14.055-.012 3.893.215 7.36.674 11.492.337 3.029.637 9.574.858 17.969.22 8.395.36 18.64.377 29.07.016 10.025.136 20.713.318 29.857.182 9.145.424 16.746.684 20.596.518 7.7 1.345 20.975 1.837 29.5a828.837 828.837 0 0 0 1.834 25.098c.76 8.621 1.677 17.626 2.788 27.402.343 3.022.872 6.278 1.625 9.914s1.73 7.651 2.972 12.19c1.242 4.538 2.747 9.6 4.557 15.332 1.81 5.73 3.924 12.13 6.38 19.343 1.104 3.24 2.777 8.786 4.585 15.114a818.692 818.692 0 0 1 5.388 19.795c2.077 8.057 3.805 14.262 5.29 18.941 1.484 4.679 2.725 7.83 3.824 9.78a100.566 100.566 0 0 0 4.142 6.663 131.05 131.05 0 0 0 4.848 6.723 112.85 112.85 0 0 0 5.016 6.084c1.64 1.845 3.223 3.467 4.654 4.754 1.619 1.455 4.103 3.199 7.045 5.02 2.941 1.82 6.34 3.718 9.783 5.484 3.444 1.766 6.934 3.4 10.06 4.691 3.127 1.291 5.89 2.24 7.88 2.635 3.263.649 9.531 2.204 13.931 3.457 4.4 1.253 11.825 3.293 16.5 4.535 4.675 1.243 12.1 3.284 16.5 4.535 4.4 1.252 12.05 3.02 17 3.928 4.95.908 10.937 2.356 13.303 3.219 1.183.431 4.588 1.252 9.119 2.228a564.672 564.672 0 0 0 15.88 3.157l20.698 3.816 37.5.074c10.72.022 20.738-.069 28.504-.238 7.766-.17 13.28-.418 14.996-.711 3.3-.564 10.758-1.43 16.572-1.926 2.908-.248 8.074-.94 14.055-1.857a641.984 641.984 0 0 0 18.945-3.2 8792.308 8792.308 0 0 1 32.428-5.953 69.007 69.007 0 0 0 6.15-1.412 84.93 84.93 0 0 0 6.338-2.029c4.262-1.547 8.574-3.467 12.79-5.684a110.71 110.71 0 0 0 12.21-7.462 100.529 100.529 0 0 0 5.61-4.252 87.937 87.937 0 0 0 5.134-4.522c2.58-2.462 4.263-4.277 5.606-6.264a25.097 25.097 0 0 0 1.828-3.209c.57-1.181 1.123-2.509 1.73-4.084a125.579 125.579 0 0 0 3.674-11.044 152.795 152.795 0 0 0 2.91-12.291c.856-4.373 1.606-9.056 2.266-14.15.66-5.096 1.233-10.603 1.738-16.624.347-4.125 1.106-11.1 1.688-15.5.29-2.2.646-11.962.984-25.918.338-13.956.66-32.107.881-51.082.483-41.347 1.117-77.816 1.8-105.4.343-13.793.697-25.365 1.052-34.215.355-8.85.711-14.978 1.054-17.885.553-4.675 1.287-13.225 1.63-19 .167-2.831.484-6.183.984-10.283s1.184-8.949 2.086-14.772c1.804-11.645 4.482-27.188 8.316-48.445 2.679-14.85 5.16-29.025 5.516-31.5.355-2.475 1.734-8.55 3.066-13.5 1.332-4.95 3.122-13.275 3.979-18.5.856-5.225 2.643-13.325 3.972-18 1.33-4.675 2.907-11.312 3.506-14.748.6-3.436 1.777-8.161 2.617-10.5.84-2.339 1.968-6.952 2.506-10.252.539-3.3 1.852-8.842 2.918-12.316.562-1.832 1.527-6.348 2.66-12.182a1051.91 1051.91 0 0 0 3.664-20.082c1.23-7.098 2.389-14.144 3.24-19.768.853-5.624 1.397-9.826 1.397-11.238 0-1.132.337-3.728.877-7.086.54-3.357 1.283-7.476 2.092-11.658 1.618-8.364 3.504-16.975 4.572-20.232a93.44 93.44 0 0 0 2.523-9.256 107.267 107.267 0 0 0 1.688-10.143c.433-3.608.741-7.484.94-11.748.198-4.264.285-8.916.277-14.076-.011-6.897-.137-12.829-.467-18.346-.33-5.517-.862-10.619-1.684-15.86-.821-5.24-1.931-10.62-3.418-16.687-1.486-6.067-3.349-12.824-5.673-20.822-2.478-8.525-4.826-17.075-5.217-19-.261-1.286-.69-2.679-1.262-4.144a45.037 45.037 0 0 0-2.113-4.58c-1.66-3.153-3.785-6.456-6.166-9.635-2.382-3.18-5.02-6.235-7.711-8.889a56.743 56.743 0 0 0-4.049-3.645c-1.345-1.091-2.676-2.05-3.969-2.837-1.7-1.037-4.1-2.218-6.963-3.457-2.862-1.24-6.185-2.538-9.732-3.809a229.91 229.91 0 0 0-11.07-3.648c-3.754-1.133-7.493-2.153-10.977-2.975-2.85-.673-5.097-1.186-7.205-1.576a59.62 59.62 0 0 0-6.373-.84c-4.592-.364-10.49-.387-21.42-.361z" style="isolation:auto;mix-blend-mode:normal" color="#000" overflow="visible" fill="url(#c)" transform="translate(-220.877 -49.18)"/><path d="M656.123 49.277c-8.508-.165-20.392-.111-33.728.1-13.337.211-28.127.581-42.444 1.045-14.316.464-28.16 1.022-39.607 1.613s-20.495 1.215-25.221 1.809c-2.337.294-7.218.612-13.2.888-5.98.277-13.062.511-19.8.637-10.866.203-17.627.418-24.166.973-6.539.555-12.855 1.45-22.834 3.015a709.548 709.548 0 0 0-18.094 3.082c-5.437 1.004-9.843 1.902-11.906 2.454a675.915 675.915 0 0 1-14 3.566c-3.575.858-10.55 3.113-15.5 5.012-4.95 1.898-13.5 4.827-19 6.508-3.259.995-6.856 2.277-10.613 3.76a220.703 220.703 0 0 0-11.578 4.972 232.42 232.42 0 0 0-11.483 5.7c-3.694 1.965-7.194 3.97-10.326 5.93-5.5 3.446-12.63 7.806-15.846 9.69-1.607.942-4.002 2.586-6.566 4.475-2.564 1.89-5.296 4.024-7.578 5.95-4.565 3.85-11.147 9.25-14.625 12-5.037 3.98-9.99 8.36-14.014 12.31-2.012 1.974-3.792 3.842-5.234 5.498-1.443 1.656-2.549 3.1-3.211 4.23-.942 1.607-1.848 3.443-2.73 5.55-.884 2.109-1.744 4.489-2.594 7.18-.851 2.692-1.693 5.697-2.537 9.055-.845 3.358-1.691 7.07-2.555 11.176l-5.049 24c-1.04 4.95-2.358 13.05-2.928 18-.57 4.95-1.495 11.475-2.058 14.5-.282 1.513-.608 7.584-.905 16.149-.297 8.564-.565 19.62-.734 31.101l-.615 41.752 3.39 3.248 3.39 3.25-.65 53c-.251 20.585-.501 34.385-.843 43.994-.171 4.805-.365 8.562-.594 11.596-.228 3.034-.492 5.344-.8 7.256-.781 4.828-1.36 9.336-2.06 17.152-.7 7.816-1.522 18.94-2.79 37.002-.374 5.325-.642 16.16-.807 29.686-.165 13.525-.228 29.741-.195 45.832.032 16.09.16 32.054.379 45.074.218 13.02.526 23.095.92 27.408.551 6.05 1.428 19.775 1.947 30.5.455 9.393 1.184 20.45 2.045 31.38.86 10.932 1.854 21.736 2.84 30.62.259 2.338.831 5.53 1.543 8.793.711 3.263 1.562 6.595 2.382 9.207 1.64 5.225 4.167 13.55 5.616 18.5 1.448 4.95 3.941 12.6 5.543 17 1.793 4.927 3.26 9.401 5.004 15.531 1.743 6.13 3.762 13.917 6.656 25.47 1.215 4.852 2.32 8.948 3.431 12.562 1.112 3.613 2.231 6.746 3.471 9.668a76.18 76.18 0 0 0 4.201 8.41c1.6 2.777 3.439 5.62 5.631 8.799 1.9 2.756 3.713 5.217 5.496 7.445a79.905 79.905 0 0 0 5.324 6.043 63.388 63.388 0 0 0 5.518 5.012 68.42 68.42 0 0 0 6.07 4.351c3.866 2.476 7.147 4.486 10.301 6.217a87.134 87.134 0 0 0 9.545 4.539c3.363 1.356 7.06 2.617 11.553 3.97 4.492 1.354 9.78 2.799 16.322 4.52 12.253 3.225 18.129 4.828 34 9.278 4.95 1.387 11.025 2.817 13.5 3.175 2.475.359 7.875 1.58 12 2.717 4.125 1.136 16.05 3.752 26.5 5.813l19 3.748 48.5.091c14.39.028 26.951-.049 36.232-.207 9.282-.157 15.285-.396 16.557-.689 2.359-.544 9.334-1.408 15.5-1.92 4.76-.395 14.552-1.872 26.567-3.945a1397.39 1397.39 0 0 0 39.894-7.524c1.936-.394 4.687-1.274 7.854-2.463 3.166-1.188 6.749-2.684 10.353-4.308a199.88 199.88 0 0 0 10.477-5.082c3.248-1.703 6.12-3.356 8.218-4.78 2.085-1.414 4.286-3.072 6.47-4.85 2.183-1.776 4.35-3.67 6.362-5.556 2.013-1.886 3.874-3.763 5.446-5.506 1.572-1.742 2.855-3.35 3.717-4.695 1.273-1.989 2.484-4.229 3.632-6.717 1.149-2.487 2.235-5.222 3.258-8.205a130.374 130.374 0 0 0 2.881-9.687 188.87 188.87 0 0 0 2.5-11.155c.77-3.961 1.477-8.164 2.12-12.609.641-4.445 1.22-9.132 1.734-14.057 1.027-9.85 1.797-20.656 2.306-32.404.501-11.55 1.323-55.65 1.826-98 .252-21.175.6-41.494.961-57.172.36-15.678.732-26.715 1.028-29.328.59-5.225 1.28-18.05 1.533-28.5.166-6.87.428-13.1.873-19.39.445-6.29 1.075-12.641 1.976-19.75.902-7.11 2.076-14.978 3.612-24.305s3.433-20.112 5.781-33.055c2.444-13.475 5.304-29.393 6.354-35.373 1.05-5.98 2.6-13.25 3.445-16.158.845-2.907 2.413-10.412 3.484-16.678 1.071-6.265 2.464-12.72 3.096-14.342.632-1.622 2.183-7.674 3.447-13.449 2.68-12.243 5.65-24.676 9.078-38 1.37-5.327 3.839-18.264 6.086-31.213 2.248-12.949 4.275-25.91 4.762-31.287.408-4.499 1.701-12.52 3.129-20.09s2.99-14.686 3.937-17.37c.805-2.28 2.6-9.974 3.989-17.099.552-2.834.985-5.224 1.326-7.503.34-2.28.588-4.449.765-6.838.356-4.779.434-10.441.434-19.645 0-7.771-.13-14.55-.453-20.78-.322-6.228-.835-11.907-1.602-17.476-.766-5.569-1.785-11.027-3.117-16.82-1.331-5.793-2.976-11.919-4.994-18.818-2.182-7.459-5.06-17.767-6.396-22.909a82.407 82.407 0 0 0-2.637-8.369c-1-2.653-2.13-5.184-3.412-7.636a69.005 69.005 0 0 0-4.324-7.164 82.591 82.591 0 0 0-5.37-6.948 83.203 83.203 0 0 0-4.98-5.332 74.33 74.33 0 0 0-5.36-4.767 74.008 74.008 0 0 0-5.869-4.268 81.902 81.902 0 0 0-6.505-3.84 99.47 99.47 0 0 0-7.272-3.478 130.41 130.41 0 0 0-8.168-3.186c-5.773-2.042-12.23-3.934-19.54-5.77-2.347-.588-4.325-1.05-6.288-1.417a65.824 65.824 0 0 0-6.191-.856c-4.564-.425-10.468-.603-20.522-.799zm-10.5 17.282c10.93-.026 16.828-.003 21.42.36a59.62 59.62 0 0 1 6.373.84c2.108.391 4.354.904 7.205 1.577 3.484.822 7.223 1.842 10.977 2.975a229.91 229.91 0 0 1 11.07 3.648c3.547 1.271 6.87 2.57 9.732 3.809 2.863 1.24 5.263 2.42 6.963 3.457 1.293.788 2.624 1.746 3.969 2.838a56.743 56.743 0 0 1 4.049 3.644c2.69 2.654 5.33 5.71 7.71 8.889 2.382 3.179 4.508 6.482 6.167 9.634a45.037 45.037 0 0 1 2.113 4.58c.571 1.466 1 2.859 1.262 4.145.39 1.925 2.74 10.475 5.217 19 2.324 7.998 4.187 14.755 5.673 20.822 1.487 6.068 2.597 11.447 3.418 16.688.822 5.24 1.354 10.342 1.684 15.86.33 5.516.456 11.448.467 18.345.008 5.16-.08 9.812-.278 14.076-.198 4.264-.506 8.14-.939 11.748-.433 3.609-.99 6.95-1.687 10.143a93.44 93.44 0 0 1-2.524 9.256c-1.068 3.257-2.954 11.868-4.572 20.232-.81 4.182-1.552 8.3-2.092 11.658-.54 3.358-.877 5.954-.877 7.086 0 1.412-.544 5.614-1.396 11.238-.852 5.624-2.011 12.67-3.24 19.768a1051.91 1051.91 0 0 1-3.665 20.082c-1.133 5.834-2.098 10.35-2.66 12.182-1.066 3.474-2.38 9.016-2.918 12.316-.538 3.3-1.666 7.913-2.506 10.252-.84 2.339-2.018 7.064-2.617 10.5-.599 3.436-2.177 10.073-3.506 14.748-1.329 4.675-3.116 12.775-3.972 18-.856 5.225-2.647 13.55-3.979 18.5-1.332 4.95-2.711 11.025-3.066 13.5-.356 2.475-2.837 16.65-5.516 31.5-3.834 21.257-6.512 36.8-8.316 48.445-.902 5.823-1.586 10.672-2.086 14.772-.5 4.1-.817 7.452-.985 10.283-.342 5.775-1.076 14.325-1.629 19-.343 2.907-.7 9.035-1.054 17.885-.355 8.85-.709 20.422-1.051 34.215-.684 27.584-1.318 64.053-1.8 105.4-.223 18.975-.544 37.126-.882 51.082-.338 13.956-.693 23.718-.984 25.918-.582 4.4-1.341 11.375-1.688 15.5-.505 6.021-1.077 11.528-1.738 16.623-.66 5.095-1.41 9.778-2.265 14.15a152.795 152.795 0 0 1-2.91 12.292 125.579 125.579 0 0 1-3.674 11.044c-.608 1.575-1.161 2.903-1.73 4.084a25.097 25.097 0 0 1-1.83 3.21c-1.342 1.986-3.025 3.801-5.605 6.263a87.937 87.937 0 0 1-5.134 4.522 100.529 100.529 0 0 1-5.61 4.252 110.71 110.71 0 0 1-12.21 7.462c-4.216 2.217-8.528 4.137-12.79 5.684a84.93 84.93 0 0 1-6.338 2.03 69.007 69.007 0 0 1-6.15 1.411c-5.5.99-20.092 3.669-32.428 5.954a641.984 641.984 0 0 1-18.945 3.199c-5.981.916-11.147 1.61-14.055 1.857-5.814.496-13.272 1.362-16.572 1.926-1.715.293-7.23.541-14.996.71-7.766.17-17.784.26-28.504.24l-37.5-.075-20.697-3.816a564.672 564.672 0 0 1-15.881-3.157c-4.531-.976-7.936-1.797-9.12-2.228-2.365-.863-8.352-2.311-13.302-3.219-4.95-.908-12.6-2.676-17-3.928-4.4-1.251-11.825-3.292-16.5-4.535-4.675-1.242-12.1-3.282-16.5-4.535-4.4-1.253-10.668-2.808-13.932-3.457-1.99-.396-4.752-1.344-7.878-2.635-3.127-1.29-6.617-2.925-10.061-4.691s-6.842-3.664-9.783-5.485c-2.941-1.82-5.426-3.564-7.045-5.02-1.431-1.286-3.013-2.908-4.654-4.753a112.85 112.85 0 0 1-5.016-6.084 131.05 131.05 0 0 1-4.848-6.723 100.566 100.566 0 0 1-4.142-6.664c-1.1-1.948-2.34-5.1-3.825-9.779-1.484-4.679-3.212-10.884-5.289-18.941a818.692 818.692 0 0 0-5.388-19.795c-1.808-6.328-3.48-11.874-4.584-15.114-2.457-7.213-4.571-13.612-6.381-19.343-1.81-5.731-3.315-10.794-4.557-15.332-1.242-4.539-2.22-8.554-2.972-12.19-.753-3.635-1.282-6.892-1.625-9.914-1.111-9.776-2.029-18.78-2.788-27.402a828.837 828.837 0 0 1-1.834-25.098c-.492-8.525-1.319-21.8-1.837-29.5-.26-3.85-.502-11.451-.684-20.596-.182-9.144-.302-19.832-.318-29.857-.017-10.43-.157-20.675-.377-29.07s-.521-14.94-.858-17.97c-.46-4.132-.686-7.598-.674-11.491.013-3.893.263-8.214.754-14.055.692-8.228 1.628-23.286 2.078-33.46.389-8.764 1.22-19.199 2.127-27.85.455-4.326.927-8.205 1.375-11.208.449-3.002.872-5.128 1.223-5.943.178-.412.429-6.918.69-17.068.26-10.15.531-23.944.75-38.932.437-29.975 1.084-63.847 1.439-75.271.2-6.449.306-11.842.305-16.356-.001-4.513-.11-8.147-.34-11.08-.23-2.933-.581-5.163-1.069-6.87-.243-.852-.52-1.574-.834-2.187a6.728 6.728 0 0 0-1.046-1.53c-1.232-1.33-2.752-2.595-3.377-2.811-.288-.1-.462-1.024-.537-2.6-.076-1.576-.054-3.803.05-6.51.21-5.414.745-12.746 1.48-20.617.737-7.87 1.673-16.28 2.679-23.852 1.005-7.57 2.08-14.302 3.097-18.816 1.115-4.95 3.14-14.462 4.498-21.139 1.359-6.676 3.603-15.725 4.989-20.11.595-1.886 1.078-3.354 1.59-4.612.511-1.258 1.051-2.307 1.761-3.354.71-1.046 1.59-2.09 2.78-3.342 1.189-1.25 2.687-2.707 4.638-4.578a264.338 264.338 0 0 1 11.041-9.974 330.686 330.686 0 0 1 24.871-19.275 280.504 280.504 0 0 1 12.65-8.385c8.63-5.374 16.363-10.051 17.188-10.395.825-.343 6.225-2.774 12-5.4 2.888-1.314 6.313-2.742 9.506-3.985 3.192-1.243 6.151-2.3 8.107-2.873 3.912-1.144 11.971-3.883 17.909-6.086 3.388-1.257 7.216-2.513 11.386-3.744a289.75 289.75 0 0 1 13.436-3.594 382.546 382.546 0 0 1 14.894-3.302 425.56 425.56 0 0 1 15.762-2.864c5.53-.898 10.2-1.614 14.625-2.2a264.813 264.813 0 0 1 13.158-1.425c9.106-.758 19.7-1.204 36.717-1.748a1053.9 1053.9 0 0 0 22.979-.984c6.796-.371 12.184-.756 14.521-1.064 2.496-.33 8.34-.706 16.217-1.086 7.877-.38 17.788-.766 28.416-1.112 21.256-.69 45.384-1.227 61.867-1.265z" style="isolation:auto;mix-blend-mode:normal" color="#000" overflow="visible" fill="url(#b)" transform="translate(-220.877 -49.18)"/><path d="M368.121 535.057a20.27 20.27 0 0 0-1.873.1c-2.163.232-3.165.882-5.127 2.18-4.77 3.157-6.351 6.083-7.94 14.677-1.312 7.105-1.42 6.61 5.29 24.101 3.951 10.3 6.852 28.386 10.578 65.955 1.935 19.507 2.928 22.165 9.455 25.262 6.465 3.068 16.991 1.203 19.95-3.533 1.318-2.112 4.951-2.338 14.169-.881 3.3.521 12.061 1.217 19.469 1.545 7.407.328 13.64.767 13.85.976.209.21.455 6.538.546 14.063.157 12.908.052 13.725-1.863 14.453-1.117.425-8.098 1.046-15.516 1.38-16.5.745-58.04 5.174-85.986 9.169l-4.5.642-1.799-5.115c-3.589-10.21-11.708-15.81-21.554-14.863-9.346.898-14.743 7.595-13.938 17.3.321 3.873 1.266 6.367 3.621 9.57 2.861 3.89 3.121 4.813 2.557 9.07-.883 6.653.21 11.203 3.552 14.78 2.262 2.421 3.314 5.157 4.938 12.823 2.47 11.658 6.647 45.58 8.334 67.664.997 13.055 1.582 16.457 3.252 18.908 3.65 5.358 7.03 7.139 13.537 7.139 6.607 0 9.885-1.779 13.75-7.457 1.819-2.672 2.247-4.666 2.23-10.406-.04-13.918-6.286-71.184-8.955-82.104-.537-2.2-.988-4.295-1.002-4.658-.063-1.756 62.83-9.211 87.477-10.37l12-.564-.09 9.774-.092 9.773-3.408.735c-7.423 1.596-24.033 3.795-35.71 4.728-9.66.772-13.047 1.443-15.774 3.129-4.69 2.898-6.816 7.255-6.858 14.053-.064 10.408 7.467 17.637 17.274 16.58 24.42-2.632 38.142-4.591 57.158-8.158 9.461-1.775 44.274-5.346 62-6.362 6.325-.362 12.06-1.022 12.744-1.465.768-.496 2.615.24 4.822 1.924 7.184 5.48 18.698 4.025 23.704-2.992 1.757-2.464 2.23-4.504 2.23-9.627 0-6.331-.187-6.798-7.191-18l-7.192-11.5 12.192-.299c14.095-.345 28.426.994 40.04 3.74 4.484 1.06 14.451 3.325 22.151 5.034 21.425 4.753 20.134 4.081 20.904 10.886.676 5.973-.267 16.63-2.933 33.14-.844 5.224-1.99 16.923-2.547 25.995-.557 9.072-1.355 16.836-1.774 17.254-1.172 1.173-30.167-3.043-44.15-6.42-6.875-1.66-14.817-3.04-17.65-3.066-9.522-.089-15.635 6.063-15.635 15.736 0 6.087 2.35 10.757 6.785 13.482 5.16 3.17 27.968 8.177 54.5 11.963 3.575.51 12.872.818 20.66.684 13.47-.232 14.358-.374 18.196-2.914 6.928-4.585 8.892-9.28 10.097-24.12.576-7.087 1.047-16.044 1.047-19.905 0-3.862 1.203-14.035 2.672-22.606 2.146-12.52 2.684-18.926 2.734-32.584.057-15.354-.165-17.667-2.298-23.889-2.472-7.207-6.907-13.086-12.456-16.515-3.911-2.418-12.993-4.995-36.152-10.256-31.994-7.269-29.128-6.958-70.5-7.674-21.175-.366-39.13-1.071-39.898-1.566-.77-.496-9.532-1.17-19.475-1.5l-18.078-.6.06-12.25c.034-6.738.253-12.444.489-12.68.236-.236 14.148.09 30.916.727 43.436 1.648 79.565 1.547 83.853-.236 5.201-2.163 9.133-8.309 9.133-14.276 0-2.703-.464-5.783-1.031-6.844-2.009-3.752 4.862-33.078 9.474-40.44.69-1.1 2.871-6.276 4.848-11.5 1.977-5.226 5.418-13.092 7.65-17.481 3.629-7.136 4.06-8.743 4.06-15.172 0-6.559-.287-7.573-3.25-11.52-2.424-3.226-5.415-5.405-11.75-8.56-7.367-3.668-9.901-4.383-19-5.366-11.783-1.271-88.3-2.075-167.5-1.757-19.25.077-40.976-.2-48.28-.616-4.957-.282-8.066-.456-10.223-.427zm41.506 33.505c3.616-.005 7.587 0 11.746.018l30.25.125.309 4.125c.169 2.27-.056 4.127-.5 4.129-6.01.025-46.19 3.2-50.196 3.967-7.186 1.375-6.994 1.417-7.638-1.72-.31-1.513-.995-4.377-1.52-6.366-.525-1.989-.955-3.789-.955-4 0-.159 7.656-.264 18.504-.277zm118.996.17c41.171-.1 62.947.634 62.3 2.1-.165.376-1.597 4.158-3.183 8.404-3.3 8.832-3.017 8.716-14.117 5.703-6.308-1.712-63.355-7.385-82.5-8.205l-6.5-.279-.31-3.75c-.171-2.062.054-3.776.5-3.809.445-.032 20.16-.106 43.81-.164zm-45.21 39.963l8.605.543c47.157 2.976 80.975 7.318 80.45 10.33-.084.488-.725 4.487-1.423 8.887-.698 4.4-1.592 8.38-1.988 8.844-.636.744-21.584 1.672-22.27.986-.148-.148-14.218-.712-31.266-1.254-17.047-.541-31.811-1.296-32.81-1.68-1.915-.734-1.912-1.557.088-20.777l.613-5.879zm-33.022 1.12l-.725 10.226c-.399 5.625-.941 10.79-1.205 11.477-.585 1.525-9.183 1.439-24.838-.247-6.05-.65-13.25-1.22-16-1.265-2.75-.045-5.525-.416-6.168-.824-.65-.414-1.315-3.846-1.5-7.735l-.332-6.992 9.635-1.6c5.299-.88 16.72-1.926 25.383-2.322l15.75-.719zm41.91 116.333c4.295.022 8.799.228 11.24.543 5.418.7 6 1.017 6.893 3.764.536 1.65 1.782 4.155 2.77 5.566l1.794 2.567-15.687 1.69c-8.628.928-16.7 1.686-17.938 1.683-2.403-.005-2.355.188-2.568-10.256l-.106-5.25 9.461-.264c1.301-.036 2.71-.05 4.14-.043zM413.123 404.725c-13.106 0-19.95 12.624-13.555 25 2.345 4.536 4.914 19.986 5.768 34.675.338 5.813 2.457 4.927-22.713 9.5-8.8 1.6-23.65 4.727-33 6.95-9.35 2.223-22.545 5.165-29.324 6.539-6.779 1.373-13.754 3.381-15.5 4.463-4.738 2.934-7.114 7.637-7.13 14.11-.019 8.649 4.855 15.22 12.577 16.952 4.218.946 8.304.29 13.088-2.103 2.04-1.021 4.4-1.856 5.242-1.856.843 0 11.325-2.285 23.291-5.078 11.967-2.793 27.831-6.143 35.256-7.443 7.425-1.3 14.924-2.664 16.664-3.03l3.166-.664.688 5.514c1.295 10.37 6.832 15.69 16.328 15.697 6.388.004 10.414-2.085 13.474-6.996 1.796-2.881 2.18-5 2.18-11.996v-8.498l17.5-2.686c9.625-1.477 18.236-2.715 19.135-2.752 1.305-.053 1.713 1.197 2.033 6.225.687 10.782 6.92 16.362 17.313 15.5 9.437-.783 13.484-5.554 15.521-18.303.609-3.812 1.312-7.136 1.56-7.384.25-.25 4.837-1.002 10.196-1.672 5.358-.67 13.567-1.707 18.242-2.305 18.492-2.365 103.158-3.68 119-1.848 16.72 1.933 26.23-3.964 26.23-16.265 0-6.657-3.153-11.624-9.14-14.393-4.466-2.065-5.82-2.123-50.09-2.123-52.715 0-82.422.93-96.426 3.02-5.46.814-10.417 1.48-11.017 1.48-.762 0-.98-5.247-.715-17.365.425-19.478-.319-22.698-6.215-26.904-4.458-3.18-14.796-3.18-19.254 0-5.132 3.66-6.373 7.596-6.373 20.21 0 8.98-.369 11.864-1.904 14.874-1.048 2.053-2.22 5.833-2.606 8.402-.599 3.995-1.083 4.75-3.345 5.228-4.656.983-29.445 4.673-35.3 5.254l-5.654.563-.488-5.881c-.807-9.739-3.53-27.507-5.16-33.656-3.28-12.38-10.059-18.955-19.543-18.955z" fill="url(#d)" transform="translate(-220.877 -49.18)"/><path d="M400.74 152.94c-5.37-.158-13.17-.089-25.89.132-16.557.288-37.754 1.013-47.104 1.613-9.35.6-25.1 1.556-35 2.125-19.4 1.115-62.993 5.943-76 8.418-7.74 1.473-48.781 7.512-78.5 11.551-36.332 4.938-38.566 5.575-42.393 12.074-2.63 4.469-2.537 12.688.194 17.072 2.338 3.754 5.258 5.841 9.7 6.93 1.65.405 4.124.56 5.5.346 1.374-.215 9.924-1.302 19-2.414 9.074-1.113 22.124-2.91 29-3.996 6.874-1.086 19.474-2.898 28-4.028 15.369-2.037 26.083-3.694 41.5-6.418 15.063-2.661 63.989-7.458 87.5-8.58 12.924-.616 28.9-1.532 35.5-2.033 19.437-1.476 47.16-1.197 53.839.543 3.167.825 7.976 1.5 10.685 1.5 3.164 0 6.1.714 8.202 1.996 3.918 2.39 12.545 2.699 16.574.594 3.074-1.606 7.419-6.044 9.078-9.274 1.951-3.798 1.372-11.646-1.133-15.363-3.984-5.911-13.874-9.917-24.549-9.941-2.916-.007-8.494-.738-12.396-1.625-2.998-.682-5.937-1.065-11.307-1.223z"/></svg>