<svg xmlns:osb="http://www.openswatchbook.org/uri/2009/osb" xmlns="http://www.w3.org/2000/svg" height="897.825" width="576.468"><defs><linearGradient osb:paint="solid" id="c"><stop offset="0" stop-color="#fff"/></linearGradient><linearGradient osb:paint="solid" id="b"><stop offset="0"/></linearGradient><linearGradient osb:paint="solid" id="a"><stop offset="0" stop-color="#162d50"/></linearGradient></defs><path d="M588.875 69.38c-19.543-.106-37.488-.088-51.824.036-14.337.124-25.065.355-30.176.676-9.35.586-28.227 1.485-41.95 1.996-6.814.254-12.436.501-17.25.785-4.813.284-8.816.603-12.394 1.002-3.577.399-6.729.876-9.836 1.475-3.106.599-6.169 1.32-9.57 2.205-4.95 1.287-10.8 2.647-13 3.021-2.167.369-6.848 1.742-12.87 3.697-6.02 1.956-13.38 4.494-20.905 7.194s-15.214 5.56-21.893 8.16c-6.68 2.6-12.348 4.941-15.832 6.6a105.023 105.023 0 0 0-7.05 3.695 111.931 111.931 0 0 0-13.17 8.848 106.2 106.2 0 0 0-5.907 4.959 94.839 94.839 0 0 0-5.312 5.189 79.532 79.532 0 0 0-4.616 5.326 62.439 62.439 0 0 0-3.81 5.363 46.106 46.106 0 0 0-2.903 5.309c-.672 1.464-1.666 4.334-2.726 7.777a220.997 220.997 0 0 0-3.123 11.223c-.75 3.011-1.345 5.53-1.83 7.9a92.58 92.58 0 0 0-1.17 7.02c-.619 4.852-.974 10.51-1.422 19.758-.5 10.315-.867 17.056-1.48 25.222-.614 8.167-1.472 17.76-2.95 33.778-.812 8.8-1.747 20.275-2.078 25.5l-.601 9.5 3.084 1.709c.847.47 1.74 1.211 2.498 2.027.756.816 1.376 1.705 1.677 2.473.435 1.11.677 2.949.748 5.238.072 2.29-.026 5.029-.271 7.943a105.688 105.688 0 0 1-1.154 8.989c-.516 2.985-1.156 5.867-1.895 8.369-.71 2.405-1.464 5.69-2.105 9.043-.642 3.353-1.172 6.775-1.434 9.457-.524 5.364-1.595 12.902-2.379 16.752-.784 3.85-1.727 11.458-2.096 16.906a86.31 86.31 0 0 1-1.367 10.44c-.691 3.619-1.627 7.424-2.836 11.56-1.247 4.27-2.197 8.139-2.914 11.955-.717 3.816-1.2 7.58-1.517 11.639-.63 8.079-2.547 24.66-4.58 40.595-2.034 15.936-4.187 31.226-5.29 36.725-1.012 5.05-3.521 15.93-5.576 24.18l-3.736 15-.791 55c-.218 15.125-.524 29.607-.842 40.754-.318 11.147-.647 18.958-.912 20.746-.529 3.575-1.69 13.7-2.582 22.5-.88 8.674-1.662 15.715-2.402 21.568-.74 5.853-1.438 10.517-2.15 14.432-.453 2.485-.753 5.428-.907 8.642-.154 3.215-.164 6.7-.033 10.272.13 3.571.401 7.228.803 10.783.401 3.555.934 7.01 1.593 10.178 1.338 6.428 2.32 12.356 3.162 19.625.843 7.268 1.545 15.878 2.319 27.67.228 3.47.654 7.746 1.22 12.449a488.401 488.401 0 0 0 2.065 15.01 524.16 524.16 0 0 0 2.562 15.295c.898 4.893 1.82 9.455 2.71 13.306.433 1.876 1.068 3.989 1.828 6.156a89.964 89.964 0 0 0 2.564 6.48c.922 2.092 1.886 4.053 2.809 5.698.923 1.646 1.805 2.976 2.566 3.807.547.597 1.346 1.24 2.363 1.916 1.017.675 2.252 1.382 3.664 2.107 2.825 1.451 6.365 2.975 10.323 4.46a173.953 173.953 0 0 0 12.824 4.22c4.493 1.292 9.104 2.434 13.535 3.31 7.825 1.55 17.665 3.239 27.941 4.827 10.277 1.587 20.989 3.073 30.559 4.213 9.35 1.113 19.925 2.459 23.5 2.99 3.575.53 13.925 1.7 23 2.6 6.834.676 14.61 1.586 22.582 2.617 7.972 1.03 16.14 2.18 23.76 3.338 7.619 1.157 14.688 2.32 20.463 3.378 5.775 1.058 10.255 2.009 12.695 2.74 4.95 1.485 11.7 3.259 15 3.94 1.913.395 4.357.65 7.225.772 2.867.12 6.156.107 9.76-.038 3.603-.144 7.522-.42 11.644-.822 4.122-.4 8.448-.927 12.871-1.576 6.155-.903 13.1-1.645 24.783-2.527 11.684-.882 28.105-1.905 53.217-3.364 4.813-.28 10.031-.706 14.563-1.17 4.53-.463 8.375-.962 10.437-1.384 4.125-.846 13.344-2.65 20.488-4.01 4.517-.86 8.167-1.594 11.446-2.37 3.278-.775 6.186-1.592 9.222-2.62 3.036-1.029 6.201-2.269 9.99-3.887 3.79-1.618 8.203-3.615 13.74-6.16a30.263 30.263 0 0 0 3.55-1.944 39.353 39.353 0 0 0 3.523-2.529c2.327-1.864 4.597-4.07 6.725-6.521a62.08 62.08 0 0 0 5.875-7.994 58.498 58.498 0 0 0 4.521-8.89c1.867-4.639 3.505-9.477 4.969-14.814 1.464-5.336 2.753-11.17 3.92-17.808 1.167-6.638 2.213-14.079 3.19-22.623.976-8.544 1.883-18.193 2.775-29.248 1.131-14.025 2.62-30.45 3.31-36.5.232-2.032.427-5.481.59-10.748.163-5.267.292-12.352.395-21.653.204-18.6.296-46.068.312-85.6.016-39.3.108-66.713.31-85.22.102-9.253.23-16.28.39-21.453.16-5.172.35-8.49.577-10.326.68-5.5 1.667-17.875 2.196-27.5 1.258-22.927 2.038-36.393 2.804-46.512s1.518-16.89 2.717-26.43c1.414-11.243 3.205-24.66 3.979-29.816.271-1.807.504-4.53.707-8.635.203-4.105.375-9.594.529-16.933.308-14.68.539-36.762.77-69.99.149-21.48.266-37.724.418-50.608.151-12.884.337-22.411.626-30.459.29-8.048.683-14.617 1.247-21.588.563-6.971 1.298-14.344 2.271-23.998.463-4.596.66-9.844.629-15.256a210.618 210.618 0 0 0-.729-16.238c-.442-5.252-1.07-10.18-1.841-14.295-.386-2.058-.807-3.913-1.26-5.504-.453-1.59-.936-2.918-1.445-3.92-1.096-2.154-2.697-4.725-4.553-7.406a130.8 130.8 0 0 0-6.09-8.07c-2.121-2.6-4.25-5.006-6.139-6.915-1.889-1.908-3.538-3.32-4.699-3.93-1.559-.818-4.251-1.696-7.613-2.552-3.362-.856-7.394-1.691-11.63-2.424a205.22 205.22 0 0 0-12.855-1.81c-4.18-.448-8.1-.714-11.294-.717-3.335-.003-10.563-.71-16.063-1.57-7.933-1.241-13.653-2.159-18.832-2.844a190.053 190.053 0 0 0-15.586-1.447c-5.77-.31-12.67-.473-22.377-.584-9.706-.112-22.217-.17-39.205-.262z" style="isolation:auto;mix-blend-mode:normal" color="#000" overflow="visible" fill="url(#c)" transform="translate(-211.766 -51.087)"/><path d="M581.875 51.09c-18.714.004-36.355.113-49.713.285-13.357.172-22.43.408-24.004.666-1.572.258-5.676.558-11.023.834-5.347.276-11.936.528-18.477.69-8.206.202-15.891.5-22.982.886-7.091.387-13.589.863-19.418 1.42-5.83.557-10.993 1.195-15.414 1.908-4.422.713-8.102 1.5-10.969 2.356-3.3.984-8.025 2.091-10.5 2.46-1.547.232-4.611 1.044-8.68 2.266-4.068 1.222-9.14 2.854-14.699 4.721-11.118 3.734-24.185 8.41-35.078 12.647-6.98 2.714-13.135 5.333-18.65 7.974a162.398 162.398 0 0 0-7.817 3.994 125.832 125.832 0 0 0-6.998 4.117 105.702 105.702 0 0 0-6.32 4.329 97.596 97.596 0 0 0-11.164 9.648 114.231 114.231 0 0 0-5.123 5.496 92.792 92.792 0 0 0-5.34 6.684 78.55 78.55 0 0 0-8.348 14.54 88.06 88.06 0 0 0-3.14 8.259 110.468 110.468 0 0 0-2.54 9.187 151.5 151.5 0 0 0-2.001 10.316 221.908 221.908 0 0 0-1.534 11.645c-.439 4.126-.81 8.506-1.125 13.176-1.448 21.477-3.541 48.426-7.535 97-1.762 21.429-2.637 31.79-2.707 37.328-.035 2.769.132 4.332.49 5.469.36 1.137.91 1.848 1.643 2.914.615.893 1.079 1.591 1.416 2.26.337.668.549 1.308.654 2.085.211 1.555.003 3.66-.441 7.655-.508 4.56-1.387 10.216-1.955 12.572-.568 2.356-1.479 9.74-2.024 16.408-.359 4.393-.85 8.24-1.574 12.063-.723 3.822-1.678 7.621-2.963 11.918-1.394 4.664-2.33 8.334-3.006 12.14-.676 3.806-1.094 7.747-1.455 12.953-.504 7.28-1.379 16.61-1.941 20.735s-2.156 16.359-3.543 27.187c-1.365 10.655-2.544 18.584-3.994 26.174-1.45 7.59-3.17 14.84-5.617 24.139l-3.159 12-.734 53c-.346 25.006-.573 38.643-1.08 49.273a329.326 329.326 0 0 1-1.02 14.735c-.443 4.856-1.006 10.004-1.738 16.492-1.706 15.125-3.902 32.675-4.88 39-.677 4.373-1.17 9.271-1.481 14.369a224.218 224.218 0 0 0-.399 15.558c.047 5.166.273 10.2.672 14.776.4 4.576.973 8.694 1.719 12.023a191.767 191.767 0 0 1 1.805 8.971c.517 2.954.96 5.954 1.355 9.238.792 6.569 1.4 14.28 2.057 25.065.217 3.567.61 7.854 1.133 12.535a493.93 493.93 0 0 0 1.912 14.896c1.471 10.285 3.275 20.842 5.039 29.069a107.976 107.976 0 0 0 3.021 11.129c1.18 3.574 2.51 6.969 3.932 10.054 1.422 3.086 2.937 5.862 4.482 8.198 1.546 2.336 3.122 4.231 4.67 5.556.984.842 2.213 1.721 3.645 2.621 1.432.9 3.067 1.82 4.865 2.746 3.595 1.852 7.838 3.723 12.393 5.485a178.494 178.494 0 0 0 14.265 4.826c4.845 1.412 9.668 2.586 14.135 3.39a1548.34 1548.34 0 0 0 29.94 5.077c9.197 1.463 16.748 2.56 20.06 2.879 3.85.37 14.891 1.75 24.537 3.066 9.646 1.317 22.696 2.867 29 3.443 7.105.65 10.614.969 16.15 1.66 5.537.693 13.1 1.758 28.313 3.897a643.93 643.93 0 0 1 19.86 3.11c5.89 1.024 10.577 1.954 12.64 2.54l14 3.981c1.21.344 2.777.634 4.637.87 1.86.234 4.01.416 6.394.546 4.768.26 10.463.31 16.584.164a338.676 338.676 0 0 0 19.149-1.016c6.48-.527 12.891-1.238 18.736-2.123a269.122 269.122 0 0 1 15.527-1.892c4.918-.45 9.41-.703 12.973-.713 3.162-.01 7.5-.183 11.941-.455 4.441-.273 8.984-.645 12.559-1.049 7.15-.809 17.275-1.492 22.5-1.52 2.33-.012 4.228-.042 6.129-.152 1.9-.11 3.804-.298 6.142-.627 4.678-.658 11.098-1.876 22.729-4.142 9.467-1.845 16.17-3.325 21.896-4.946 2.863-.81 5.481-1.655 8.079-2.6a140.692 140.692 0 0 0 7.953-3.19c4.276-1.854 7.76-3.401 10.681-4.772 2.922-1.371 5.281-2.567 7.305-3.715 2.024-1.148 3.713-2.248 5.295-3.432 1.582-1.183 3.056-2.45 4.652-3.927 2.704-2.504 5.188-5.09 7.475-7.84a72.901 72.901 0 0 0 6.299-8.825c1.92-3.16 3.666-6.57 5.267-10.306 1.601-3.737 3.054-7.803 4.385-12.28 1.331-4.476 2.54-9.364 3.65-14.746 1.11-5.38 2.121-11.257 3.06-17.707.937-6.45 1.8-13.475 2.614-21.158.815-7.683 1.58-16.024 2.32-25.105 1.352-16.584 2.356-28.736 3.092-38.772.736-10.036 1.204-17.956 1.485-26.076.28-8.12.374-16.44.36-27.277-.015-10.837-.137-24.19-.286-42.375-.309-37.675-.837-74.35-1.174-81.5-.145-3.074-.23-5.85-.224-8.96.005-3.109.1-6.55.316-10.958.434-8.816 1.353-21.494 3.008-43.082.758-9.9 1.638-24.3 1.955-32 .43-10.457 1.02-19.798 1.937-29.854.918-10.056 2.164-20.828 3.903-34.146.916-7.021 1.635-13.184 2.215-20.059.579-6.874 1.02-14.462 1.375-24.328s.625-22.012.869-38.008c.243-15.996.46-35.841.705-61.105.24-24.705.492-41.847.83-53.992.169-6.073.36-10.897.58-14.791.22-3.895.47-6.86.758-9.217.42-3.438.862-9.656 1.236-16.906.374-7.25.68-15.532.826-23.094.147-7.571.203-13.808.131-19.084-.072-5.276-.272-9.592-.635-13.32-.362-3.73-.887-6.872-1.613-9.801-.726-2.93-1.652-5.645-2.814-8.522-.611-1.512-1.648-3.493-2.975-5.742-1.327-2.249-2.943-4.766-4.71-7.35a175.76 175.76 0 0 0-5.622-7.75c-1.934-2.516-3.882-4.898-5.707-6.945a26.787 26.787 0 0 0-3.28-3.076 37.703 37.703 0 0 0-4.09-2.828 51.055 51.055 0 0 0-4.818-2.545 65.802 65.802 0 0 0-5.462-2.235c-3.837-1.38-8.047-2.531-12.518-3.416a107.927 107.927 0 0 0-14.084-1.81 513.176 513.176 0 0 1-20.576-1.727c-6.698-.699-13.036-1.5-18.424-2.343-7.322-1.145-12.741-2-17.86-2.64-5.117-.638-9.934-1.06-16.05-1.339-6.116-.278-13.531-.412-23.846-.476-10.315-.065-23.529-.06-41.244-.055zm7 18.29c16.988.093 29.499.151 39.205.263 9.706.11 16.607.275 22.377.584 5.77.308 10.407.762 15.586 1.447s10.9 1.603 18.832 2.844c5.5.86 12.727 1.567 16.063 1.57 3.195.003 7.114.269 11.294.717 4.18.448 8.62 1.078 12.856 1.81 4.235.733 8.267 1.568 11.629 2.424 3.362.856 6.054 1.734 7.613 2.553 1.16.61 2.81 2.02 4.7 3.93 1.888 1.908 4.017 4.315 6.138 6.914a130.799 130.799 0 0 1 6.09 8.07c1.856 2.68 3.457 5.252 4.553 7.406.509 1.002.992 2.33 1.445 3.92.453 1.59.874 3.446 1.26 5.504.771 4.116 1.4 9.043 1.841 14.295.442 5.252.699 10.826.729 16.238.03 5.412-.166 10.66-.629 15.256-.973 9.654-1.708 17.027-2.271 23.998-.564 6.971-.957 13.54-1.247 21.588-.29 8.048-.475 17.574-.626 30.459-.152 12.884-.27 29.127-.418 50.607-.231 33.229-.462 55.312-.77 69.99-.154 7.34-.326 12.829-.53 16.934-.202 4.106-.435 6.828-.706 8.635-.774 5.156-2.565 18.573-3.979 29.816-1.2 9.54-1.95 16.311-2.717 26.43-.766 10.119-1.546 23.585-2.804 46.512-.529 9.625-1.517 22-2.196 27.5-.226 1.836-.418 5.154-.578 10.326-.16 5.172-.287 12.2-.388 21.453-.203 18.507-.295 45.92-.311 85.22-.016 39.532-.108 67-.312 85.6-.103 9.301-.232 16.386-.395 21.653-.163 5.266-.358 8.716-.59 10.748-.69 6.05-2.179 22.475-3.31 36.5-.892 11.055-1.8 20.704-2.776 29.248-.976 8.544-2.022 15.985-3.19 22.623-1.166 6.638-2.455 12.472-3.92 17.808-1.463 5.337-3.101 10.175-4.968 14.815a58.498 58.498 0 0 1-4.521 8.889 62.08 62.08 0 0 1-5.875 7.994c-2.128 2.451-4.398 4.657-6.725 6.521a39.353 39.353 0 0 1-3.523 2.53 30.263 30.263 0 0 1-3.55 1.943c-5.537 2.545-9.95 4.542-13.74 6.16-3.789 1.618-6.954 2.858-9.99 3.887-3.036 1.028-5.944 1.845-9.222 2.62-3.28.776-6.929 1.51-11.446 2.37-7.144 1.36-16.363 3.164-20.488 4.01-2.062.422-5.906.921-10.437 1.384-4.532.464-9.75.89-14.563 1.17-25.112 1.46-41.533 2.481-53.217 3.364-11.683.882-18.628 1.624-24.783 2.527a267.665 267.665 0 0 1-12.871 1.576c-4.122.401-8.041.678-11.645.822-3.603.145-6.892.158-9.76.038-2.867-.121-5.311-.377-7.224-.772-3.3-.681-10.05-2.455-15-3.94-2.44-.731-6.92-1.682-12.695-2.74-5.775-1.057-12.844-2.221-20.463-3.379a1097.827 1097.827 0 0 0-23.76-3.337c-7.972-1.03-15.748-1.94-22.582-2.618-9.075-.898-19.425-2.068-23-2.6-3.575-.53-14.15-1.876-23.5-2.99-9.57-1.139-20.282-2.625-30.559-4.212-10.276-1.588-20.116-3.278-27.941-4.826-4.43-.877-9.042-2.019-13.535-3.311a173.953 173.953 0 0 1-12.824-4.22c-3.958-1.485-7.498-3.009-10.323-4.46-1.412-.725-2.647-1.432-3.664-2.107-1.017-.676-1.816-1.319-2.363-1.916-.76-.831-1.643-2.161-2.566-3.807-.923-1.645-1.887-3.606-2.809-5.697a89.964 89.964 0 0 1-2.564-6.48c-.76-2.168-1.395-4.281-1.829-6.157-.89-3.851-1.81-8.413-2.709-13.306a524.16 524.16 0 0 1-2.562-15.295 488.401 488.401 0 0 1-2.064-15.01c-.567-4.703-.993-8.979-1.221-12.45-.774-11.791-1.476-20.4-2.319-27.67-.842-7.268-1.824-13.196-3.162-19.624-.659-3.167-1.192-6.623-1.593-10.178a143.62 143.62 0 0 1-.803-10.783 123.03 123.03 0 0 1 .033-10.272c.154-3.214.454-6.157.906-8.642.713-3.915 1.41-8.58 2.15-14.432.74-5.853 1.524-12.894 2.403-21.568.892-8.8 2.053-18.925 2.582-22.5.265-1.788.594-9.6.912-20.746.318-11.147.624-25.63.842-40.754l.791-55 3.736-15c2.055-8.25 4.564-19.13 5.576-24.18 1.103-5.499 3.256-20.789 5.29-36.725 2.033-15.935 3.95-32.516 4.58-40.595.316-4.06.8-7.823 1.517-11.639.717-3.816 1.667-7.686 2.914-11.955 1.209-4.136 2.145-7.941 2.836-11.56a86.31 86.31 0 0 0 1.367-10.44c.369-5.448 1.312-13.056 2.096-16.906.784-3.85 1.855-11.388 2.379-16.752.262-2.682.792-6.104 1.434-9.457.641-3.353 1.394-6.638 2.105-9.043.74-2.502 1.379-5.384 1.895-8.37.515-2.984.908-6.073 1.154-8.988.245-2.914.343-5.654.271-7.943-.071-2.29-.313-4.128-.748-5.238-.3-.768-.92-1.657-1.677-2.473-.757-.816-1.65-1.557-2.498-2.027l-3.084-1.71.601-9.5c.33-5.224 1.266-16.7 2.078-25.5 1.478-16.017 2.336-25.61 2.95-33.777.613-8.166.98-14.907 1.48-25.222.448-9.247.803-14.906 1.422-19.758a92.58 92.58 0 0 1 1.17-7.02c.485-2.37 1.08-4.889 1.83-7.9a220.997 220.997 0 0 1 3.123-11.223c1.06-3.443 2.054-6.313 2.726-7.777a46.106 46.106 0 0 1 2.903-5.309 62.439 62.439 0 0 1 3.81-5.363 79.532 79.532 0 0 1 4.616-5.326 94.839 94.839 0 0 1 5.312-5.19 106.2 106.2 0 0 1 5.906-4.958 111.931 111.931 0 0 1 13.17-8.848c2.31-1.324 4.666-2.56 7.051-3.695 3.484-1.659 9.153-4 15.832-6.6 6.68-2.6 14.368-5.46 21.893-8.16 7.524-2.7 14.885-5.238 20.906-7.194 6.02-1.955 10.702-3.328 12.869-3.697 2.2-.374 8.05-1.734 13-3.021 3.401-.885 6.464-1.606 9.57-2.205 3.107-.6 6.259-1.076 9.836-1.475 3.578-.399 7.581-.718 12.395-1.002 4.813-.284 10.435-.531 17.25-.785 13.722-.511 32.599-1.41 41.949-1.996 5.111-.32 15.84-.552 30.176-.676 14.336-.124 32.28-.142 51.824-.035z" style="isolation:auto;mix-blend-mode:normal" color="#000" overflow="visible" fill="url(#b)" transform="translate(-211.766 -51.087)"/><path d="M200.609 261.776c-5.948 0-10.374 2.31-13.428 7.008l-2.42 3.723-.455 46.5c-.25 25.575-.774 47.466-1.166 48.648-.629 1.898-1.897 2.284-10.87 3.309-10.529 1.202-43.615 7.578-56.725 10.931-16.814 4.3-31.922 11.604-36.547 17.668-5.763 7.556-3.966 19.05 3.78 24.176 6.713 4.442 18.428 2.899 24.874-3.275 1.399-1.34 5.736-3.523 9.639-4.85 9.636-3.277 45.036-10.727 57.568-12.115l5.75-.637-.02 2.822c-.01 1.553-.703 7.548-1.54 13.323-3.073 21.185-5.665 71.865-6.153 120.318-.441 43.795-.337 47.7 1.613 60.5 4.19 27.492 4.19 27.49 1.788 29.182-5.935 4.176-25.815 22.135-38.745 35-43.891 43.673-55.468 62.693-46.06 75.68 2.688 3.71 5.79 5.643 10.617 6.609 4.57.914 11.58-1.454 14.621-4.938.89-1.018 3.014-4.814 4.72-8.435 2.396-5.084 6.835-10.668 19.477-24.5 9.006-9.854 21.73-23.099 28.278-29.434 13.056-12.635 29.106-25.982 31.242-25.982 2.985 0 8.47-3.506 10.506-6.715 1.327-2.092 8.303-7.67 18.156-14.524 8.8-6.12 19.48-13.702 23.736-16.847 4.256-3.145 13.669-9.25 20.916-13.567 15.742-9.375 18.848-12.81 18.848-20.85 0-3.748-.629-6.125-2.25-8.507-3.827-5.623-7.162-7.457-13.553-7.455-5.388 0-6.515.488-20.697 8.945-8.25 4.92-18.6 11.674-23 15.01-4.4 3.336-11.544 8.463-15.875 11.395-8.353 5.654-9.578 5.652-9.611-.028-.008-1.453-.732-6.108-1.608-10.344-1.355-6.552-1.524-13.84-1.134-48.857.483-43.457 2.408-81.028 5.72-111.656 4.25-39.302 6.02-73.442 6.014-116.018l-.006-40.517-2.53-3.723c-3.208-4.721-7.558-6.973-13.47-6.973zM327.384 187.983c-5.47.309-10.83 3.302-13.425 8.303-2.209 4.252-2.213 14.183-.008 18.43 3.502 6.747 3.867 16.952 4.093 114.79.146 63.225.652 103 1.483 116.5.886 14.404 1.31 59.011 1.424 150l.162 129.5 2.191 4.098c2.259 4.226 5.713 7.082 10.219 8.448 6.59 1.997 10.212.81 37.586-12.313 23.673-11.349 33.2-15.504 48-20.937 6.05-2.221 11.471-4.415 12.049-4.873 2.318-1.842 19.93-7.95 32.681-11.332 11.317-3.003 15.2-3.59 23.748-3.59 11.628 0 15.706-1.347 19.291-6.373 3.18-4.458 3.18-14.797 0-19.254-3.823-5.36-7.412-6.373-22.566-6.373-12.504 0-14.657.298-29.348 4.058-8.72 2.232-19.68 5.635-24.355 7.563-4.675 1.927-13.9 5.546-20.5 8.04-6.6 2.496-14.7 5.79-18 7.32-3.3 1.529-10.05 4.51-15 6.624-4.95 2.114-11.475 5.127-14.5 6.697-3.025 1.57-6.4 3.216-7.5 3.657-1.994.798-2 .419-1.918-114.13l.082-114.93 5.525-5.7c6.06-6.25 13.688-15.628 27.02-33.211a13215.14 13215.14 0 0 1 16.713-21.988c4.401-5.775 10.158-13.548 12.79-17.274 2.633-3.725 10.088-14.3 16.567-23.5 6.48-9.2 12.83-17.626 14.113-18.726 8.58-7.355 7.944-21.023-1.242-26.711-4.526-2.803-12.294-2.776-17.857.062-5.412 2.761-9.699 8.23-31.465 40.149-3.938 5.775-9.73 13.65-12.871 17.5-3.141 3.85-8.546 11.05-12.012 16-3.466 4.95-8.358 11.522-10.873 14.603-2.515 3.082-5.56 6.907-6.768 8.5l-2.193 2.897-.129-2.5c-.07-1.375-.244-45.25-.385-97.5-.184-68.686-.59-96.899-1.462-101.854-3.235-18.373-5.545-23.814-11.97-28.18-2.786-1.893-6.108-2.675-9.39-2.49z"/></svg>