<svg xmlns:osb="http://www.openswatchbook.org/uri/2009/osb" xmlns="http://www.w3.org/2000/svg" height="942.193" width="619.859"><defs><linearGradient osb:paint="solid" id="c"><stop offset="0" stop-color="#fff"/></linearGradient><linearGradient osb:paint="solid" id="b"><stop offset="0"/></linearGradient><linearGradient osb:paint="solid" id="a"><stop offset="0" stop-color="#162d50"/></linearGradient><linearGradient osb:paint="solid" id="d"><stop offset="0" stop-color="#d40000"/></linearGradient></defs><path d="M342.663 16.745c-16.634.095-30.118.37-40.91.829-5.396.229-10.118.503-14.226.824-4.109.32-7.603.688-10.54 1.101-3.574.504-14.6 1.626-24.5 2.494-8.456.742-15.91 1.455-22.601 2.17-6.69.716-12.615 1.434-18.01 2.188-5.394.754-10.258 1.543-14.828 2.402-4.57.86-8.845 1.789-13.06 2.819-10.649 2.601-18.606 4.543-24.87 6.177-6.263 1.635-10.832 2.963-14.709 4.34-3.876 1.378-7.06 2.804-10.546 4.635-3.488 1.83-7.28 4.066-12.375 7.06a473.865 473.865 0 0 0-13.834 8.436 316.799 316.799 0 0 0-11.616 7.709c-3.443 2.407-6.429 4.63-8.867 6.607-2.438 1.979-4.329 3.712-5.584 5.137-1.503 1.707-3.207 3.898-4.955 6.322a159.332 159.332 0 0 0-5.21 7.723c-1.675 2.64-3.232 5.262-4.514 7.615-1.283 2.354-2.29 4.44-2.862 6.006-.977 2.674-3.211 10.892-4.965 18.262-1.753 7.37-4.754 19.25-6.668 26.4-2.272 8.491-4.564 18.203-6.453 27.123-1.888 8.92-3.372 17.05-4.025 22.377-.573 4.675-1.906 14.125-2.965 21-.85 5.516-1.534 10.208-2.098 14.582a296.181 296.181 0 0 0-1.373 12.672c-.732 8.486-1.155 17.72-1.617 31.746-.498 15.125-1.33 30.65-1.85 34.5-.321 2.388-.563 7.727-.722 14.614-.16 6.886-.239 15.32-.236 23.9.002 8.58.085 17.304.248 24.77.163 7.465.407 13.671.73 17.216.288 3.163.561 9.019.768 15.907.206 6.887.346 14.806.37 22.093.038 10.895-.041 18.342-.36 24.967-.32 6.625-.88 12.428-1.81 20.033a299.865 299.865 0 0 0-1.183 11.258c-.322 3.797-.578 7.816-.797 12.598-.436 9.563-.715 22.176-1.03 42.144-.222 13.96-.517 26.194-.835 35.198-.318 9.003-.658 14.774-.967 15.802-.577 1.925-1.343 6.2-1.703 9.5-.36 3.3-1.496 10.275-2.525 15.5-.546 2.771-1.075 6.865-1.51 11.469a255.239 255.239 0 0 0-.947 14.531c-.323 9.075-1.098 22.218-1.721 29.207-.31 3.486-.446 10.219-.443 18.637.003 8.418.144 18.522.386 28.752.243 10.23.586 20.585.995 29.506.408 8.92.88 16.407 1.38 20.898.479 4.298 1.306 9.01 2.426 13.957 1.12 4.947 2.535 10.127 4.186 15.366a223.426 223.426 0 0 0 5.605 15.705c2.068 5.172 4.315 10.223 6.688 14.972 1.452 2.908 3.246 6.114 5.207 9.366 1.96 3.251 4.09 6.549 6.217 9.644 2.126 3.095 4.247 5.986 6.195 8.424 1.947 2.438 3.72 4.423 5.144 5.703a41.12 41.12 0 0 0 4.02 3.156 58.23 58.23 0 0 0 4.82 2.994c3.463 1.935 7.408 3.741 11.73 5.38 4.323 1.638 9.022 3.107 13.995 4.37a159.31 159.31 0 0 0 15.635 3.127c2.847.426 7.343.726 12.88.909 5.538.182 12.117.245 19.133.193a720.259 720.259 0 0 0 21.752-.496c7.283-.277 14.397-.665 20.735-1.158 16.845-1.312 28.354-2.074 36.06-2.338 3.853-.132 6.756-.14 8.9-.03 2.145.11 3.53.34 4.348.678.827.343 1.554.81 2.18 1.371a8.18 8.18 0 0 1 1.576 1.928 9.34 9.34 0 0 1 .967 2.297c.22.806.339 1.641.355 2.474a9.838 9.838 0 0 1-.26 2.461 8.587 8.587 0 0 1-.878 2.258 7.27 7.27 0 0 1-1.5 1.865 6.861 6.861 0 0 1-2.13 1.28c-.72.272-4.06.658-8.859 1.06s-11.058.82-17.619 1.157c-6.561.337-12.373.722-16.451 1.072-4.078.35-6.423.662-6.049.855.748.386 6.985 1.494 13.86 2.463 6.875.97 15.2 2.423 18.5 3.229 1.17.286 2.954.533 5.7.754 2.748.22 6.458.414 11.487.595 10.058.362 25.388.67 48.813 1.024 14.903.225 27.032.447 37.214.71 10.183.265 18.42.57 25.538.965 7.117.395 13.115.879 18.824 1.497 5.708.617 11.127 1.37 17.082 2.302 9.34 1.463 21.807 3.085 29.342 3.82 2.34.23 10.536.333 21.63.342 11.095.01 25.09-.073 39.03-.22 13.939-.147 27.822-.359 38.697-.6 10.875-.241 18.741-.514 20.643-.787 4.095-.589 8.795-1.629 13.07-2.832a89.256 89.256 0 0 0 5.963-1.89c1.795-.647 3.356-1.298 4.553-1.917 1.095-.566 2.314-1.492 3.593-2.699 1.28-1.207 2.619-2.696 3.957-4.387a64.829 64.829 0 0 0 3.948-5.597 71.004 71.004 0 0 0 3.562-6.338c.987-1.992 1.739-3.533 2.346-5.049.607-1.516 1.069-3.007 1.482-4.9.827-3.787 1.453-9.184 2.623-19.606 1.32-11.759 3.094-29.852 3.94-40.209.846-10.357 1.956-22.057 2.468-26 .257-1.971.496-9.164.674-19.164.178-10 .295-22.806.309-36.006.014-13.2.128-25.93.3-35.808.174-9.878.406-16.904.655-18.692.249-1.787.542-10.387.814-22.802.272-12.416.523-28.648.686-45.698.163-17.05.418-33.73.697-46.87.28-13.141.585-22.742.846-25.63.522-5.775 1.445-21.3 2.05-34.5.736-16.024 1.388-28.306 1.952-36.734.563-8.428 1.038-13.003 1.416-13.613.342-.554 1.305-9.43 2.14-19.727.836-10.296 1.782-19.146 2.104-19.666.213-.344.414-1.23.604-2.666.19-1.437.37-3.425.537-5.975.335-5.099.624-12.443.873-22.119.497-19.35.826-48.021 1.004-86.676l.396-86.175-2.588-22.325c-.993-8.567-1.694-16.246-2.234-25.248-.54-9.001-.92-19.325-1.272-33.183-.35-13.815-.765-25.111-1.347-34.524-.291-4.706-.625-8.94-1.012-12.783-.388-3.842-.83-7.293-1.34-10.43-.51-3.136-1.087-5.96-1.744-8.548a66.326 66.326 0 0 0-2.225-7.145 55.92 55.92 0 0 0-2.783-6.21 64.699 64.699 0 0 0-3.418-5.753c-2.276-3.437-5.02-6.937-8.033-10.324a118.029 118.029 0 0 0-9.652-9.644c-3.356-2.985-6.784-5.68-10.086-7.91a62.879 62.879 0 0 0-4.834-2.977c-1.564-.86-3.07-1.583-4.496-2.145a43.749 43.749 0 0 0-7.297-2.2c-2.777-.587-6.09-1.04-10.5-1.41-4.411-.368-9.922-.653-17.1-.9-7.178-.246-16.023-.456-27.101-.675-31.089-.616-58.102-1.056-81.502-1.319-23.4-.262-43.188-.347-59.823-.252z" fill="#fff"/><path d="M285.488.001l-23.5 2.703c-12.925 1.488-29.35 3.2-36.5 3.805-4.821.408-9.25.845-13.44 1.338-4.19.493-8.143 1.041-12.017 1.67a249.688 249.688 0 0 0-11.54 2.152 314.476 314.476 0 0 0-12.003 2.79c-8.25 2.076-19.275 4.779-24.5 6.005a114.35 114.35 0 0 0-9.381 2.606 105.914 105.914 0 0 0-9.164 3.468c-3.112 1.342-6.327 2.888-9.787 4.7-3.461 1.811-7.168 3.888-11.258 6.29-9.497 5.58-17.098 10.185-23.373 14.32-3.138 2.069-5.945 4.02-8.49 5.915a107.384 107.384 0 0 0-6.93 5.588 80.497 80.497 0 0 0-5.795 5.635 81.16 81.16 0 0 0-5.088 6.064 112.872 112.872 0 0 0-4.81 6.865c-1.605 2.465-3.234 5.126-4.96 8.047a74.346 74.346 0 0 0-3.63 6.957 88.94 88.94 0 0 0-3.15 7.93c-.994 2.872-1.943 6.006-2.88 9.498-.936 3.492-1.862 7.344-2.81 11.654-.968 4.4-3.71 15.425-6.094 24.5-2.559 9.74-5.052 20.612-7.023 30.364-.986 4.875-1.842 9.47-2.51 13.503-.668 4.034-1.149 7.506-1.385 10.133-.371 4.125-1.315 10.875-2.098 15-.641 3.383-1.297 7.961-1.922 13.182a525.155 525.155 0 0 0-1.728 17.039 572.664 572.664 0 0 0-1.246 17.58c-.304 5.583-.481 10.704-.483 14.81 0 4.431-.176 9.964-.457 15.311-.28 5.347-.666 10.508-1.09 14.19-.457 3.97-.787 10.187-.992 17.925-.205 7.739-.285 16.999-.244 27.055.041 10.056.203 20.908.485 31.832.28 10.924.681 21.919 1.197 32.26.333 6.671.573 11.912.678 16.676.105 4.763.075 9.048-.13 13.806-.204 4.758-.585 9.988-1.18 16.643-.597 6.655-1.408 14.736-2.478 25.191-.28 2.75-.618 10.143-.935 19.84-.317 9.697-.614 21.698-.815 33.66-.177 10.59-.335 18.88-.529 25.64-.193 6.762-.422 11.993-.742 16.466-.32 4.472-.73 8.186-1.287 11.912-.557 3.726-1.259 7.463-2.162 11.982-.58 2.897-1.118 6.532-1.613 10.78-.496 4.247-.948 9.107-1.352 14.453C1.539 648.425.922 661.059.523 674.62c-.4 13.561-.578 28.05-.508 42.452.07 14.401.39 28.716.988 41.93.367 8.094.828 15.013 1.5 21.288.673 6.276 1.558 11.906 2.77 17.428.606 2.76 1.293 5.495 2.078 8.268a170.216 170.216 0 0 0 2.658 8.5c1.985 5.833 4.416 12.088 7.408 19.298 1.787 4.307 4.083 9.07 6.645 13.903a241.306 241.306 0 0 0 8.242 14.318c2.853 4.583 5.73 8.848 8.393 12.406a86.57 86.57 0 0 0 3.8 4.76c1.193 1.378 2.301 2.53 3.295 3.408a76.044 76.044 0 0 0 8.233 6.332 82.134 82.134 0 0 0 9.306 5.342c3.305 1.626 6.824 3.104 10.588 4.45 3.765 1.345 7.776 2.558 12.069 3.656 3.703.947 7.296 1.742 10.941 2.402 3.645.66 7.342 1.184 11.254 1.59 3.912.406 8.04.693 12.543.879 4.503.186 9.382.271 14.8.271 8.281 0 12.647.025 14.942.278 1.148.126 1.778.31 2.121.576.343.266.399.614.399 1.07 0 .785.225 1.578.66 2.371.434.794 1.079 1.588 1.912 2.373.833.785 1.856 1.561 3.05 2.32a37.219 37.219 0 0 0 4.083 2.22c3.041 1.432 6.699 2.762 10.826 3.921 4.127 1.16 8.724 2.148 13.646 2.897 7.328 1.114 16.923 2.77 21.323 3.68 1.565.323 3.426.598 5.855.84 2.43.24 5.427.449 9.27.634 7.684.37 18.744.655 35.375.959 19.302.353 35.143.69 48.39 1.059 13.248.368 23.903.767 32.83 1.242 8.928.475 16.128 1.025 22.469 1.699a249.775 249.775 0 0 1 17.31 2.437c4.676.823 14.126 2.123 21 2.89 4.527.504 14.287.844 26.616 1.036 12.328.192 27.225.236 42.027.147 14.802-.09 29.51-.31 41.457-.649 5.974-.169 11.259-.368 15.52-.593 4.26-.226 7.498-.477 9.38-.754 4.987-.735 9.481-1.617 13.536-2.668 4.054-1.052 7.67-2.274 10.898-3.69a50.178 50.178 0 0 0 4.559-2.271 41.716 41.716 0 0 0 4.02-2.578 36.996 36.996 0 0 0 3.519-2.903 35.469 35.469 0 0 0 3.058-3.246c2.59-3.118 4.888-6.262 6.9-9.441a74.543 74.543 0 0 0 5.188-9.655 66.142 66.142 0 0 0 3.502-9.931 64.742 64.742 0 0 0 1.844-10.27c.511-5.225 1.805-17.15 2.875-26.5 1.07-9.35 2.227-21.725 2.572-27.5.345-5.775 1.26-15.9 2.03-22.5.514-4.403.902-12.601 1.216-26.865.314-14.264.554-34.594.768-63.268.16-21.486.414-41.679.693-56.904.28-15.225.586-25.482.85-27.096.264-1.613.513-6.737.701-13.69.188-6.955.316-15.74.338-24.677.043-17.875.463-40.375.934-50 .916-18.755 1.894-35.936 2.765-49.025.872-13.09 1.637-22.086 2.127-24.475.565-2.75 1.53-11.075 2.147-18.5.615-7.425 1.827-17.775 2.693-23 .335-2.02.604-4.59.826-8.681.222-4.092.397-9.704.541-17.81.288-16.214.454-42.401.637-86.333.152-36.538.178-63.114.064-81.455-.113-18.341-.366-28.446-.767-32.045-2.255-20.225-3.512-32.23-4.207-42.26a315.802 315.802 0 0 1-.674-14.343c-.12-4.809-.154-9.904-.154-16.067-.001-10.212-.186-19.157-.588-27.072-.402-7.915-1.02-14.8-1.889-20.887a131.682 131.682 0 0 0-1.498-8.562 96.27 96.27 0 0 0-1.896-7.543 75.947 75.947 0 0 0-2.325-6.7 66.384 66.384 0 0 0-2.773-6.029 96.635 96.635 0 0 0-4.793-8.142 109.41 109.41 0 0 0-5.645-7.832 116.86 116.86 0 0 0-6.343-7.381 117.068 117.068 0 0 0-6.885-6.787 109.758 109.758 0 0 0-7.274-6.053 96.117 96.117 0 0 0-7.505-5.178 78.68 78.68 0 0 0-7.58-4.164 60.538 60.538 0 0 0-7.504-3.008c-1.764-.566-3.395-1.066-5.143-1.506a58.526 58.526 0 0 0-5.848-1.148c-2.234-.33-4.837-.61-8.06-.846-3.223-.236-7.065-.43-11.778-.592C509.234.756 496.327.57 477.933.45 459.538.328 435.655.273 404.279.216L285.488.001zm57.175 16.744c16.635-.095 36.422-.01 59.823.252 23.4.263 50.413.703 81.502 1.319 11.078.219 19.923.429 27.101.676 7.178.246 12.689.53 17.1.9 4.41.369 7.723.822 10.5 1.408a43.749 43.749 0 0 1 7.297 2.201c1.426.562 2.932 1.284 4.496 2.145a62.879 62.879 0 0 1 4.834 2.976c3.302 2.23 6.73 4.926 10.086 7.91a118.029 118.029 0 0 1 9.652 9.645c3.014 3.387 5.757 6.887 8.033 10.324a64.699 64.699 0 0 1 3.418 5.752 55.92 55.92 0 0 1 2.783 6.211c.83 2.2 1.568 4.556 2.225 7.145.657 2.589 1.235 5.412 1.744 8.549.51 3.136.952 6.587 1.34 10.43.387 3.842.72 8.076 1.012 12.782.582 9.413.996 20.71 1.347 34.524.352 13.858.732 24.182 1.272 33.183.54 9.002 1.24 16.68 2.234 25.248l2.588 22.325-.396 86.175c-.178 38.655-.507 67.325-1.004 86.676-.249 9.676-.538 17.02-.873 22.12-.168 2.549-.348 4.537-.537 5.974-.19 1.437-.391 2.322-.604 2.666-.322.52-1.268 9.37-2.103 19.666-.836 10.297-1.8 19.173-2.141 19.727-.378.61-.853 5.185-1.416 13.613-.564 8.428-1.216 20.71-1.951 36.734-.606 13.2-1.529 28.725-2.051 34.5-.261 2.888-.566 12.489-.846 25.63-.28 13.14-.534 29.82-.697 46.87-.163 17.05-.414 33.282-.686 45.698-.272 12.415-.565 21.015-.814 22.802-.249 1.788-.481 8.814-.654 18.692-.173 9.878-.287 22.608-.301 35.808-.014 13.2-.13 26.007-.309 36.006-.178 10-.417 17.193-.674 19.164-.512 3.943-1.622 15.643-2.468 26-.846 10.357-2.62 28.45-3.94 40.21-1.17 10.421-1.796 15.818-2.623 19.605-.413 1.893-.875 3.384-1.482 4.9-.607 1.516-1.359 3.057-2.346 5.049a71.004 71.004 0 0 1-3.562 6.338 64.829 64.829 0 0 1-3.948 5.597c-1.338 1.69-2.677 3.18-3.957 4.387-1.279 1.207-2.498 2.133-3.593 2.7-1.197.618-2.758 1.269-4.553 1.915a89.256 89.256 0 0 1-5.963 1.891c-4.275 1.203-8.975 2.243-13.07 2.832-1.902.273-9.768.546-20.643.787s-24.758.453-38.697.6c-13.94.147-27.935.23-39.03.22-11.094-.01-19.29-.113-21.63-.341-7.535-.736-20.001-2.358-29.342-3.82-5.955-.933-11.374-1.686-17.082-2.303-5.709-.618-11.707-1.102-18.824-1.496-7.118-.395-15.355-.701-25.538-.965-10.182-.264-22.31-.486-37.214-.711-23.425-.354-38.755-.662-48.813-1.024-5.029-.18-8.74-.375-11.486-.595-2.747-.221-4.53-.468-5.701-.754-3.3-.806-11.625-2.26-18.5-3.229-6.875-.969-13.112-2.077-13.86-2.463-.374-.193 1.97-.506 6.049-.855 4.078-.35 9.89-.735 16.451-1.072 6.561-.337 12.82-.755 17.62-1.157 4.799-.402 8.138-.788 8.859-1.06a6.861 6.861 0 0 0 2.129-1.28 7.27 7.27 0 0 0 1.5-1.865c.396-.697.689-1.46.879-2.258.189-.797.276-1.627.26-2.46a10.134 10.134 0 0 0-.356-2.475 9.34 9.34 0 0 0-.967-2.297 8.18 8.18 0 0 0-1.576-1.928 7.638 7.638 0 0 0-2.18-1.37c-.818-.34-2.203-.568-4.347-.679-2.145-.11-5.048-.102-8.9.03-7.707.264-19.216 1.026-36.061 2.338-6.338.493-13.452.88-20.735 1.158-7.283.277-14.736.444-21.752.496-7.016.052-13.595-.011-19.133-.193-5.537-.183-10.033-.483-12.88-.909a159.31 159.31 0 0 1-15.635-3.127c-4.973-1.263-9.672-2.732-13.994-4.37-4.323-1.639-8.268-3.445-11.73-5.38a58.23 58.23 0 0 1-4.821-2.994 41.12 41.12 0 0 1-4.02-3.156c-1.425-1.28-3.197-3.265-5.144-5.703-1.948-2.438-4.07-5.329-6.195-8.424a196.357 196.357 0 0 1-6.217-9.644c-1.961-3.252-3.755-6.458-5.207-9.366-2.373-4.75-4.62-9.8-6.688-14.972a223.426 223.426 0 0 1-5.605-15.705c-1.65-5.239-3.065-10.419-4.186-15.366-1.12-4.946-1.947-9.659-2.426-13.957-.5-4.491-.972-11.977-1.38-20.898-.409-8.921-.752-19.276-.995-29.506-.242-10.23-.383-20.334-.386-28.752-.003-8.418.132-15.15.443-18.637.623-6.989 1.398-20.132 1.72-29.207.172-4.813.513-9.927.948-14.531.435-4.604.964-8.698 1.51-11.469 1.029-5.225 2.165-12.2 2.525-15.5.36-3.3 1.126-7.575 1.703-9.5.309-1.028.65-6.8.967-15.802.318-9.004.613-21.239.834-35.198.316-19.968.595-32.58 1.031-42.144.219-4.782.475-8.801.797-12.598.322-3.796.709-7.37 1.184-11.258.929-7.605 1.489-13.408 1.808-20.033.32-6.625.398-14.072.362-24.967a863.257 863.257 0 0 0-.371-22.093c-.207-6.888-.48-12.744-.768-15.907-.323-3.545-.567-9.751-.73-17.217-.163-7.465-.246-16.19-.248-24.769-.002-8.58.076-17.014.236-23.9.16-6.887.4-12.226.723-14.614.518-3.85 1.351-19.375 1.85-34.5.461-14.025.884-23.26 1.616-31.746.366-4.243.81-8.298 1.373-12.672.564-4.374 1.249-9.066 2.098-14.582 1.059-6.875 2.392-16.325 2.965-21 .653-5.327 2.137-13.456 4.025-22.377 1.889-8.92 4.181-18.632 6.453-27.123 1.914-7.15 4.915-19.03 6.668-26.4 1.754-7.37 3.988-15.587 4.965-18.262.573-1.566 1.58-3.652 2.862-6.006 1.282-2.353 2.84-4.975 4.513-7.615a159.332 159.332 0 0 1 5.211-7.723c1.748-2.424 3.452-4.614 4.955-6.322 1.255-1.425 3.146-3.158 5.584-5.137 2.438-1.978 5.424-4.2 8.867-6.607a316.799 316.799 0 0 1 11.616-7.709 473.865 473.865 0 0 1 13.834-8.436c5.096-2.994 8.887-5.23 12.375-7.06 3.487-1.83 6.67-3.257 10.546-4.635 3.877-1.377 8.446-2.705 14.71-4.34 6.263-1.634 14.22-3.576 24.869-6.177 4.215-1.03 8.49-1.96 13.06-2.819s9.434-1.648 14.828-2.402c5.395-.754 11.32-1.472 18.01-2.188 6.69-.715 14.145-1.428 22.602-2.17 9.9-.868 20.925-1.99 24.5-2.494 2.936-.413 6.43-.78 10.539-1.101 4.108-.321 8.83-.595 14.226-.824 10.792-.459 24.276-.734 40.91-.829z"/><path d="M372.066 169.535c-2.133.01-4.374.028-6.732.057l-25.775.312-10.5 4.303c-19.646 8.05-27.918 15.36-42.538 37.592-7.69 11.696-20.234 37.118-24.505 49.666-1.937 5.69-2.121 7.737-1.577 17.59 1.263 22.837 9.007 35.835 31.12 52.232 11.59 8.595 12.469 9.147 28.5 17.875 28.086 15.293 38.403 18.2 54.06 15.23 7.067-1.34 9.94-4.081 9.94-9.488 0-3.047-.617-4.73-2.317-6.326-2.118-1.99-3.25-2.159-13.25-1.978-12.781.23-14.318-.295-37.781-12.887-18.356-9.852-28.154-16.738-38.787-27.262-10.685-10.575-13.137-15.939-13.276-29.047-.084-7.954.192-9.142 4.301-18.5 9.733-22.16 18.458-37.386 28.877-50.396 6.358-7.94 11.463-11.553 23.733-16.8l11-4.702 17.168-.412c17.717-.426 30.865.977 40.826 4.36 11.623 3.945 36.848 21.407 43.062 29.808 2.092 2.828 5.726 7.167 8.074 9.642 8.517 8.975 12.121 21.184 13.06 44.235.58 14.26.508 15.001-2.183 23-1.529 4.545-4.588 11.415-6.8 15.265-5.12 8.91-19.717 23.649-29.707 29.994-4.125 2.62-11.1 7.137-15.5 10.04-4.4 2.902-10.475 6.424-13.5 7.826-17.02 7.887-35.07 15.582-39 16.625-6.37 1.69-9 4.43-9 9.375 0 2.776.692 4.757 2.25 6.431 2.022 2.175 2.862 2.372 8.31 1.946 6.255-.49 11.187-2.316 36.44-13.483 13.655-6.038 16.756-7.74 30.505-16.754 4.196-2.75 10.186-6.654 13.311-8.676 6.443-4.167 24.008-21.46 28.43-27.99 4.386-6.477 8.443-14.858 11.402-23.56 2.55-7.498 2.635-8.486 2.424-27.768-.34-30.979-4.196-45.145-15.926-58.492-3.149-3.583-7.432-8.631-9.52-11.219-4.849-6.012-14.993-14.202-26.82-21.652-21.815-13.742-29.795-16.142-61.799-16.012zm.493 24.51c-18.15.16-26.728 1.868-37.987 7.564-27.158 13.741-37.497 35.484-31.95 67.19 1.944 11.121 4.06 16.73 9.767 25.887 4.931 7.912 11.735 15.3 18.08 19.638 6.63 4.533 30.001 15.012 36.804 16.502 16.778 3.675 41.864.764 55.754-6.47 25.113-13.08 36.267-31.15 34.766-56.317-1.63-27.315-19.12-52.678-45.234-65.592-14.173-7.008-21.582-8.564-40-8.402zm-22 10.873c9.495.017 12.604 1.393 19.57 8.658l4.75 4.953 4.84-2.437c8.557-4.31 19.697-5.806 26.44-3.549 11.834 3.963 17.528 17.709 10.849 26.2-1.072 1.362-1.95 2.9-1.95 3.417 0 .518 4.37 1.23 9.713 1.58 18.897 1.241 27.43 9.304 21.032 19.873-3.82 6.309-15.858 13.76-22.264 13.782l-3.02.01.02 10.75c.016 9.194-.3 11.347-2.187 14.875-7.05 13.176-19.778 14.302-32.155 2.843-3.248-3.007-6.297-5.46-6.773-5.45-.477.01-2.353 2.292-4.172 5.073-2.27 3.472-4.62 5.654-7.5 6.961-2.306 1.047-4.643 1.86-5.193 1.809-8.727-.82-14.44-8.337-15.286-20.111l-.484-6.75h-3.217c-11.526 0-23.513-10.78-23.513-21.143 0-6.12 4.23-14.35 9.107-17.72 2.099-1.45 3.833-3.12 3.854-3.71.02-.59-1.376-3.684-3.104-6.875-2.342-4.324-3.26-7.489-3.6-12.427-.42-6.108-.228-6.938 2.47-10.625 1.608-2.2 5.366-5.35 8.349-7 4.766-2.637 6.392-3 13.424-2.987zm-.713 15.492c-2.72.045-5.4.67-6.866 1.856-2.287 1.852-2.29 1.885-.552 6.437.966 2.53 3.509 6.165 5.691 8.137 4.407 3.981 7.272 4.42 11.852 1.814 2.157-1.228 3.07-2.496 3.058-4.25-.022-3.639-3.388-10.477-6.086-12.367-1.62-1.135-4.378-1.672-7.097-1.627zm25.8 29.19c-7.245.006-11.596 3.915-11.582 11.005.01 4.842 4.887 11.205 9.995 13.04.825.296 4.392.403 7.927.238 5.335-.249 6.746-.697 8.295-2.639 6.799-8.52 4.03-17.203-6.48-20.324-3.004-.892-5.74-1.322-8.155-1.32zm-31.537 9.804c-4.872 0-8.05 2.369-8.05 6 0 1.85.798 3.446 2.222 4.444 2.392 1.675 11.778 2.18 11.778.632 0-.508-.528-3.208-1.172-6-1.142-4.946-1.264-5.076-4.778-5.076zm58.22 22.157c-.716.051-1.585.523-2.712 1.375-1.067.807-3.43 1.468-5.25 1.468-2.678 0-3.308.394-3.308 2.067 0 2.628 4.524 8.604 7.906 10.443 3.241 1.762 3.608 1.78 4.88.24 1.826-2.208 2.46-8.472 1.235-12.185-.638-1.933-1.253-3.01-2.084-3.319a1.566 1.566 0 0 0-.668-.09zm-38.27 4.843c-1.62 0-2 .667-2 3.5 0 2.267.44 3.412 1.25 3.25 3.27-.654 3.948-6.75.75-6.75zm281.253 41.721L284.375 473.438l360.938-145.313zM622.469 837.404c-2.741 0-15.5 7.205-17.11 9.662-2.035 3.107-.968 6.913 2.461 8.774 3.38 1.834 3.58 1.842 8.51.365 4.523-1.355 14.734-10.133 14.715-12.65-.014-1.829-6.04-6.15-8.576-6.15zM669.078 835.049l-3.76 4.04c-2.068 2.223-5.222 4.79-7.01 5.704-1.936.99-3.25 2.427-3.25 3.555 0 2.325 5.735 6.019 11.95 7.695 6.01 1.62 6.243 1.615 8.828-.195 4.172-2.923 2.257-12.208-3.686-17.871l-3.072-2.928zM675.938 805.404c-8.336 0-10.944.305-10.688 1.25.187.688 1.202 3.838 2.256 7 2.156 6.467 1.97 6.398 12.484 4.692 8.74-1.418 12.069-3.486 12.069-7.496 0-4.454-2.935-5.446-16.121-5.446zM606.514 801.404c-6.356 0-14.507 1.97-15.157 3.662-1.511 3.94 3.214 8.44 12.073 11.498 2.82.974 5.535 1.651 6.033 1.504.497-.147 1.018-3.955 1.156-8.464l.252-8.2h-4.357zm31.312 2.979c-4.98-.325-10.64 1.661-11.406 4.71-1.038 4.134 1.54 10.477 6.12 15.055 3.668 3.67 4.858 4.266 8.636 4.327 2.41.038 5.283.466 6.383.949 4.047 1.777 5.976.762 6.312-3.32.646-7.829-4.464-16.974-11.498-20.58-1.303-.668-2.887-1.033-4.547-1.141zM627.932 772.438c-1.648-.045-3.138.491-3.577 1.634-.786 2.05 1.217 12.041 2.795 13.944 1.65 1.986 10.909 1.9 10.909-.102 0-2.441-3.762-11.59-5.602-13.623-1.071-1.184-2.878-1.809-4.525-1.853zm39.996 5.32c-1.138-.237-2.716.006-4.705.857-3.62 1.55-13.164 10.35-13.164 12.139 0 .699 1.912 2.67 4.25 4.379 5.004 3.66 6.75 3.998 6.75 1.305 0-1.082 2.025-4.247 4.5-7.034 5.243-5.904 5.783-10.936 2.369-11.646z" fill="url(#a)" transform="translate(-190.071 -28.903)"/><path d="M649.059 748.79c-32.572 1.83-56.028 13.378-71.649 35.269-11.732 16.441-15.737 34.719-11.945 54.507 1.863 9.724 3.974 14.918 9.488 23.338 10.023 15.305 24.735 26.131 41.467 30.518 11.322 2.968 21.727 2.178 35.139-2.67 4.254-1.538 10.59-2.829 16.154-3.29 7.201-.595 10.119-1.32 13.676-3.405 5.57-3.265 10.15-8.688 12.363-14.641 1.016-2.732 4.355-7.362 8.465-11.736 7.248-7.715 11.611-15.238 14.4-24.828 2.337-8.035 1.508-32.102-1.394-40.497-10.047-29.057-33.867-44.382-66.164-42.566zm-20.62 7.614c5.406 0 12.043 3.402 15.827 8.11 1.72 2.14 3.613 3.884 4.209 3.877.595-.007 3.734-1.357 6.974-3 11.743-5.955 23.583-2.868 28.576 7.447 1.936 3.997 2.158 5.576 1.565 11.113l-.692 6.453h3.112c6.797 0 15.092 5.69 18.168 12.46 4.933 10.86-.31 22.164-12.87 27.745-2.337 1.04-4.25 2.28-4.25 2.758 0 .479.884 2.935 1.965 5.457 5.806 13.544 2.178 25.896-9.332 31.768-8.537 4.355-25.66.204-35.379-8.576-2.198-1.987-4.537-3.612-5.197-3.612-.66 0-3.303 1.743-5.877 3.871-2.573 2.13-6.864 5.124-9.535 6.657-6.808 3.906-17.29 4.545-23.408 1.425-9.616-4.904-15.649-16.03-13.33-24.584 1.156-4.264 5.611-11.369 7.129-11.369.53 0 .963-.787.96-1.75-.001-1.132-1.596-2.406-4.517-3.607-5.455-2.244-12.565-8.933-15.4-14.49-2.419-4.74-2.726-12.008-.674-15.952 3.461-6.653 11.312-10.717 23.976-12.412l8.397-1.123-.11-7.12c-.092-6.052.3-7.814 2.598-11.737 3.208-5.473 10.773-9.809 17.115-9.809z" fill="url(#a)" transform="translate(-190.071 -28.903)"/><path d="M674.584 721.604c-28.596-.297-29.281-.256-46.285 2.755-18.9 3.348-38.029 9.667-48.73 16.1-13.433 8.075-30.389 25-38.5 38.43-9.135 15.122-9.292 15.818-9.1 40.412.19 24.444.535 26.055 9.275 43.472 6.107 12.171 11.43 19.33 22.78 30.631 6.945 6.917 10.212 9.317 17.535 12.889 14.469 7.057 41.038 15.485 53.816 17.068 3.95.49 13.259.801 20.684.692 11.538-.17 14.153-.514 18-2.367 2.475-1.193 9.45-3.814 15.5-5.823 12.437-4.13 32.977-13.993 42.236-20.281 8.328-5.656 15.215-14.447 20.219-25.812 6.226-14.141 8.106-22.605 8.744-39.366 1.127-29.604-3.48-52.098-13.797-67.35-15.075-22.285-24.224-31.7-36.877-37.95l-6.477-3.2-29.023-.3zm.53 16.992l20.556.308 6.676 3.39c4.088 2.077 8.736 5.566 11.994 9 7.874 8.305 19.512 25.157 22.838 33.073 5.288 12.588 7.48 41.175 4.457 58.125-.745 4.173-3.301 12.048-5.682 17.5-6.398 14.652-11.96 19.905-30.894 29.188-16.04 7.863-25.762 11.305-40 14.166-19.576 3.932-26.297 3.411-49.71-3.85-24.557-7.616-33.283-12.742-44.704-26.275-8.432-9.99-14.303-19.802-18.74-31.317-2.088-5.415-2.315-7.655-2.33-23l-.016-17 4.408-8c6.251-11.344 10.868-17.259 19.576-25.084 12.35-11.097 17.493-14.228 32.174-19.582 10.498-3.828 17.584-5.633 31.21-7.95 16.344-2.78 19.13-2.978 38.186-2.692z" fill="url(#a)" transform="translate(-190.071 -28.903)"/><path d="M482.857 565.014l-4.62 2.445c-8.011 4.238-16.178 10.773-16.178 12.943 0 1.699.664 2.002 4.384 2.002 2.412 0 6.575-.71 9.25-1.576 5.329-1.726 12.866-6.43 12.866-8.031 0-.556-1.283-2.534-2.85-4.397l-2.852-3.386zm41.567 2.382c-2.13.482-4.348 2.441-6.123 6.008-1.193 2.396-2.768 3.802-4.992 4.457-1.788.527-3.25 1.582-3.25 2.346 0 2.202 3.99 7.22 7.388 9.293 8.375 5.107 15.355-1.106 14.385-12.8-.564-6.803-3.86-10.106-7.408-9.304zM470.453 531.68c-1.556-.305-3.32-.234-6.299.02-8.04.682-10.095 1.414-10.095 3.595 0 2.11 4.484 4.786 12.931 7.715 7.633 2.646 12.069 3.02 12.069 1.02 0-.757.266-2.714.593-4.35.544-2.72.191-3.213-4.152-5.758-2.144-1.256-3.491-1.937-5.047-2.242zM508.742 530.615c-10.134.52-13.68 4.776-13.683 15.295-.002 7.66 1.403 12.528 4.25 14.719 3.32 2.556 6.014 2.175 7.884-1.113 1.143-2.01 3.167-3.384 6.721-4.565 3.076-1.021 6.126-2.927 7.72-4.822 2.268-2.695 2.579-3.838 2.214-8.178-.234-2.775-1.074-6.397-1.868-8.047-1.376-2.862-1.764-3.012-8.482-3.289a51.852 51.852 0 0 0-4.756 0zm30.748 5.79l.219 6.75c.12 3.712.247 6.862.283 7 .18.675 10.15-.08 14.461-1.096 5.82-1.373 7.501-3.393 5.846-7.026-1.36-2.982-8.979-5.629-16.205-5.629h-4.604zM491.934 492.516c-4.936-.772-11.93 1.252-13.846 4.834-2.583 4.827-.506 17.668 3.508 21.681 3.134 3.134 5.452 2.995 13.134-.787 5.798-2.854 6.372-3.41 5.942-5.75-.262-1.425-1.021-5.691-1.686-9.48-.71-4.05-1.974-7.657-3.068-8.75-.924-.924-2.34-1.491-3.984-1.748zm50.03 9.804c-5.406-.402-15.367 2.707-18.984 6.826-1.606 1.83-2.921 3.744-2.921 4.254 0 .51 1.912 1.807 4.25 2.881 5.467 2.513 5.603 2.514 11.373-.013 9.57-4.193 11.798-6.994 9.77-12.282-.387-1.007-1.685-1.531-3.487-1.666z" fill="url(#d)" transform="translate(-190.071 -28.903)"/><path d="M513.406 461.057c-8.39.093-16.686.836-21.847 2.193-13.164 3.46-28.419 11.77-40.387 21.998-12.589 10.757-19.032 18.757-24.688 30.656-5.103 10.738-7.425 21.191-7.425 33.408 0 12.26 1.332 17.89 7.005 29.592 11.964 24.676 35.363 44.79 58.12 49.957 3.936.894 10.198 1.338 16.375 1.159 12.751-.371 19.931-2.953 26.507-9.53 3.303-3.303 6.757-5.453 12.06-7.51 19.608-7.602 33.156-16.247 41.573-26.525 20.788-25.382 26.01-57.147 13.647-83.012-4.19-8.764-15.738-20.954-26.287-27.748-7.572-4.876-21.9-10.625-32.246-12.94-5.535-1.237-14.017-1.792-22.407-1.698zm-23.691 15.642c9.565-.256 17.7 4.43 21.404 12.627 1.262 2.793 2.733 5.078 3.268 5.078.534 0 3.267-1.11 6.072-2.468 6.449-3.123 15.747-5.532 21.36-5.532 8.224 0 16.339 6.229 18.767 14.405 2.05 6.902 1.861 9.42-1.154 15.472-1.445 2.899-2.232 5.613-1.75 6.032.482.418 2.993 1.54 5.58 2.492 8.43 3.101 12.779 10.308 12.79 21.2.012 10.615-8.367 17.342-23.773 19.087-2.903.329-5.495.945-5.758 1.37-.262.426.02 3.097.63 5.934 1.489 6.944-.305 16.288-4.452 23.192-2.393 3.985-4.419 5.895-8.506 8.023-6.58 3.427-15.345 3.789-21.709.899-4.292-1.95-10.27-7.312-14.507-13.014l-2.532-3.406-6.443 3.582c-12.104 6.729-25.545 8.556-33.742 4.588-5.458-2.642-10.201-9.55-10.201-14.856 0-4.697 4.258-11.389 10.873-17.086 2.819-2.427 5.124-4.944 5.125-5.591 0-.648-2.586-2.357-5.748-3.8-13.07-5.96-18.928-12.816-17.998-21.066.94-8.347 8.029-14.701 18.593-16.666l5.942-1.105-.13-10.092c-.11-8.573.194-10.696 2.018-14.094 4.613-8.59 11.03-12.943 21.803-14.789a29.412 29.412 0 0 1 4.178-.416z" fill="url(#d)" transform="translate(-190.071 -28.903)"/><path d="M532.053 433.576c-30.97-.58-50.996 3.851-78.082 17.272-6.924 3.43-14.798 7.756-17.496 9.613-9.701 6.674-21.24 20.107-35.051 40.805-5.122 7.676-11.694 22.358-13.96 31.187-3.634 14.17.62 54.264 7.321 68.985 9.071 19.928 26.092 39.878 39.965 46.843 2.305 1.158 5.905 3.279 8 4.713 6.93 4.746 31.363 16.478 41.668 20.008 9.62 3.295 10.706 3.455 21.14 3.1 16.317-.555 24.403-4.748 24.495-12.698.04-3.467.11-3.522 7.478-5.853 7.033-2.226 26.98-12.945 32.63-17.533 1.43-1.163 5.836-4.736 9.79-7.94 18.319-14.845 34.102-39.583 42.217-66.174 3.306-10.833 3.355-11.288 3.353-30l-.002-19-3.748-9.85c-4.657-12.235-5.107-13.108-9.605-18.65-2.009-2.475-5.443-7.151-7.63-10.392-11.07-16.399-28.394-31.477-45.507-39.608l-9.47-4.5-17.506-.328zm-3.57 17.035c2.522-.061 4.78-.024 6.646.12 6.652.512 9.226 1.302 17.129 5.263 5.115 2.564 12 6.825 15.3 9.469 12.773 10.233 31.573 34.532 36.669 47.394 2.884 7.28 3.227 9.301 3.605 21.206.404 12.72.3 13.56-3.111 25.199-9.182 31.328-29.128 56.837-56.75 72.58-11.323 6.453-15.308 8.084-31.912 13.07-6.875 2.065-13.49 4.65-14.698 5.746-1.207 1.096-2.332 3.273-2.5 4.836l-.302 2.842-8-2.82c-9.903-3.49-29.302-13.174-43.663-21.797-15.408-9.253-26.269-21.484-34.539-38.899-5.004-10.537-8.592-31.547-8.013-46.916.344-9.141.878-12.098 3.152-17.5 4.833-11.48 8.594-18.213 14.899-26.668 3.389-4.545 7.514-10.125 9.164-12.398 6.956-9.583 15.394-16.116 30.517-23.623 13.939-6.92 28.4-12.058 39.983-14.205 8.904-1.651 18.855-2.714 26.423-2.899zM410.33 259.404l-.637 4.639c-.35 2.552-.634 5.507-.634 6.566 0 1.494.59 1.857 2.625 1.612 2-.242 2.892-1.149 3.75-3.817.712-2.218 2.223-4.07 4.125-5.056 5.117-2.654 4.179-3.944-2.866-3.944h-6.363zM403.559 227.904l-7.264.065c-5.686.05-7.857.507-10 2.107-3.869 2.888-3.413 4.42 1.764 5.936 2.475.724 6.525 2.65 9 4.277 5.675 3.733 8.567 4.07 7.443.865-.434-1.237-.825-4.725-.867-7.75l-.076-5.5z" fill="url(#a)" transform="translate(-190.071 -28.903)"/></svg>