<svg xmlns:osb="http://www.openswatchbook.org/uri/2009/osb" xmlns="http://www.w3.org/2000/svg" height="875.43" width="630.27"><defs><linearGradient osb:paint="solid" id="c"><stop offset="0" stop-color="#fff"/></linearGradient><linearGradient osb:paint="solid" id="b"><stop offset="0"/></linearGradient><linearGradient osb:paint="solid" id="a"><stop offset="0" stop-color="#162d50"/></linearGradient><linearGradient osb:paint="solid" id="d"><stop offset="0" stop-color="#d40000"/></linearGradient></defs><path d="M442.836 17.871c-13.046-.017-30.148.081-52.972.21-36.955.206-57.988.372-70.39.667-6.202.148-10.246.327-13.044.563-2.798.235-4.35.524-5.566.89-3.025.91-8.875 2.1-13 2.645-2.063.272-5.57.966-9.557 1.865a293.462 293.462 0 0 0-12.443 3.094c-3.988 1.091-8.71 2.259-13.108 3.26-4.397 1-8.468 1.834-11.152 2.261-5.368.854-10.923 1.996-12.342 2.535-1.42.54-13.228 2.332-26.24 3.983-11.02 1.398-19.647 2.543-26.668 3.648-7.02 1.105-12.434 2.17-17.025 3.403a74.367 74.367 0 0 0-6.37 2.001 65.63 65.63 0 0 0-5.724 2.415c-3.733 1.782-7.428 3.944-11.871 6.697-7.15 4.43-14.192 8.789-15.649 9.685-.814.502-3.441 2.96-6.976 6.438-3.536 3.478-7.98 7.977-12.426 12.566-4.447 4.589-8.897 9.266-12.445 13.098-3.55 3.832-6.198 6.82-7.04 8.027-1.34 1.925-6.72 8.483-11.953 14.573-3.662 4.26-6.452 7.802-9.013 11.57-2.562 3.767-4.895 7.76-7.645 12.93a298.544 298.544 0 0 0-5.533 10.91 234.667 234.667 0 0 0-4.72 10.449 194.368 194.368 0 0 0-3.952 10.133 170.835 170.835 0 0 0-3.223 9.96 160.298 160.298 0 0 0-4.43 19.975c-.527 3.384-.954 6.81-1.288 10.303a201.376 201.376 0 0 0-.729 10.705 357.372 357.372 0 0 1-.887 13.938c-.375 4.53-.8 8.58-1.185 11.054-.385 2.475-.736 5.568-.99 8.559-.255 2.99-.413 5.879-.414 7.941-.001 2.063-.285 5.842-.739 10.27a334.042 334.042 0 0 1-1.765 14.158 367.595 367.595 0 0 0-1.764 13.8c-.453 4.207-.734 7.681-.734 9.409 0 1.728-.18 4.433-.47 7.4-.289 2.968-.689 6.198-1.128 8.973a93.808 93.808 0 0 0-1.137 11.607c-.16 4.216-.113 9.111.102 15.682.596 18.196 1.21 33.323 1.812 44.863.603 11.54 1.196 19.493 1.752 23.338 1.622 11.209 3.937 25.42 6.07 37.633 2.134 12.213 4.087 22.426 4.985 25.639.56 2 1.347 6.093 2.164 11.078a423.111 423.111 0 0 1 2.346 16.422c1.362 11.125 2.733 21.578 3.047 23.228.314 1.65.977 19.875 1.472 40.5.293 12.185.567 21.845.905 29.768.338 7.923.74 14.11 1.289 19.346.548 5.235 1.24 9.52 2.164 13.64.923 4.121 2.076 8.079 3.539 12.658 1.597 5 3.233 11.3 3.635 14.002.4 2.703 2.01 8.684 3.578 13.291.783 2.304 1.608 5.097 2.304 7.74.697 2.644 1.265 5.139 1.537 6.846.546 3.415 1.708 8.618 2.583 11.563.874 2.945 2.204 8.57 2.955 12.5.375 1.965 1.127 4.876 2.035 7.984.908 3.108 1.972 6.412 2.974 9.162 2.005 5.5 4.088 11.575 4.63 13.5.53 1.888 2.043 5.603 4.044 10.051a311.279 311.279 0 0 0 6.98 14.45c1.704 3.3 8.614 14.342 15.356 24.538 5.24 7.926 8.618 12.841 11.61 16.598a66.25 66.25 0 0 0 4.38 4.998c1.487 1.532 3.063 3.006 4.91 4.654 2.377 2.12 4.664 4.048 6.432 5.446 1.769 1.397 3.02 2.265 3.326 2.265.614 0 3.861 1.393 7.217 3.094 1.164.59 2.506 1.156 4.166 1.736 1.66.58 3.641 1.176 6.084 1.823 4.886 1.292 11.621 2.792 21.352 4.802l25.5 5.27 23.947.137c6.586.038 13.535-.044 19.426-.207 5.89-.164 10.722-.408 13.074-.694a510.053 510.053 0 0 0 18.857-2.646c6.014-.961 11.675-1.984 16.746-3.022 5.072-1.037 9.555-2.09 13.21-3.107 3.654-1.017 6.48-1.998 8.24-2.897.687-.35 1.861-.671 3.199-.904a25.518 25.518 0 0 1 4.182-.379c1.08 0 1.95.025 2.695.113.744.089 1.364.24 1.943.493.58.252 1.118.606 1.701 1.097.584.492 1.212 1.121 1.971 1.926l3.428 3.635 11.691-2.317c3.215-.637 7.318-1.304 11.34-1.865 4.022-.56 7.962-1.015 10.85-1.228 10.095-.746 17.482-1.36 22.49-1.88 5.008-.518 7.636-.94 8.219-1.3.645-.399 6.037-1.387 11.982-2.195a489.143 489.143 0 0 0 18.01-2.784c5.454-.954 10.124-1.895 13.299-2.697 9.086-2.295 13.601-3.298 18-3.998 2.475-.394 5.766-1.231 7.314-1.861 1.548-.63 4.146-1.145 5.772-1.145.813 0 2.534-.38 4.652-.992a87.698 87.698 0 0 0 7.033-2.389c4.8-1.86 9.854-3.724 11.229-4.144 1.363-.416 3.49-1.37 6.021-2.65 2.531-1.282 5.467-2.892 8.451-4.624a209.592 209.592 0 0 0 8.739-5.351c2.722-1.767 5.135-3.448 6.88-4.836 1.977-1.571 5.155-3.508 7.061-4.305.91-.38 2.578-1.681 4.656-3.545 2.079-1.863 4.568-4.288 7.121-6.92a207.876 207.876 0 0 0 7.506-8.154c2.335-2.684 4.386-5.216 5.807-7.238 1.792-2.55 5.958-7.876 9.258-11.836 1.65-1.98 3.496-4.416 5.142-6.746 1.647-2.33 3.094-4.556 3.942-6.112 1.696-3.111 5.023-9.033 7.396-13.158a258.007 258.007 0 0 0 5.363-9.785 227.754 227.754 0 0 0 4.811-9.832c3.088-6.714 6.005-13.888 9.145-22.383 3.332-9.015 5.485-15.21 6.94-20.256a88.309 88.309 0 0 0 1.722-6.918c.44-2.158.764-4.237 1.037-6.449.6-4.882 1.86-13.152 2.797-18.377.371-2.072.665-4.203.894-7.094.23-2.89.396-6.54.516-11.648.24-10.216.292-26.269.29-53.758 0-21.562-.097-38.102-.296-50.105-.2-12.004-.502-19.472-.916-22.895-.666-5.5-1.718-19-2.336-30-.854-15.19-1.528-26.04-2.125-33.918s-1.118-12.784-1.666-16.082c-.548-3.3-1.277-12.975-1.621-21.5-.135-3.344-.55-8.494-1.121-14.404a894.957 894.957 0 0 0-2.059-18.973c-.76-6.39-1.553-12.498-2.254-17.283-.7-4.785-1.308-8.246-1.7-9.34-.297-.825-.934-6.9-1.417-13.5-.241-3.3-1.086-10.574-2.254-19.636a1838.782 1838.782 0 0 0-4.19-30.364c-3.061-20.9-6.235-42.725-7.052-48.5-.817-5.775-2.128-14.1-2.912-18.5-.392-2.2-.822-5.662-1.197-9.469a247.435 247.435 0 0 1-.873-11.53c-.178-3.576-.668-8.86-1.315-14.495-.647-5.634-1.45-11.618-2.254-16.592-1.248-7.716-2.164-12.702-3.3-17.103a83.867 83.867 0 0 0-1.94-6.432c-.749-2.177-1.623-4.477-2.691-7.168a229.615 229.615 0 0 1-3.536-9.47c-.907-2.634-1.47-4.532-1.47-5.06 0-1.052-.885-4.112-1.965-6.798s-4.196-13.883-6.924-24.883c-2.744-11.062-4.318-17.225-5.549-21.056-.615-1.916-1.145-3.25-1.691-4.32-.546-1.072-1.11-1.882-1.793-2.75-.664-.845-1.673-1.818-2.889-2.827a49.147 49.147 0 0 0-4.123-3.04 53.053 53.053 0 0 0-4.51-2.696c-1.474-.779-2.874-1.406-4.056-1.79-2.2-.712-6.475-2.528-9.5-4.034-3.025-1.507-7.075-3.07-9-3.475-1.925-.405-7.325-2.211-12-4.012-2.81-1.082-5.082-1.96-7.522-2.67-2.44-.71-5.05-1.252-8.53-1.66-3.479-.408-7.83-.682-13.759-.857-5.928-.176-13.432-.251-23.217-.264z" style="isolation:auto;mix-blend-mode:normal" color="#000" overflow="visible" fill="#f9f9f9"/><path d="M448.06.006c-12.606-.033-29.058.06-50.981.185-43.314.247-66.86.425-80.58.825-6.861.2-11.266.454-14.458.8-3.191.347-5.169.785-7.177 1.35-3.025.851-8.2 1.838-11.5 2.191-1.65.177-4.95.835-8.938 1.752a323.082 323.082 0 0 0-13.062 3.307 325.044 325.044 0 0 1-13.504 3.4c-4.26.974-7.934 1.71-9.996 1.973-4.125.526-9.75 1.629-12.5 2.451-2.75.823-9.275 1.993-14.5 2.602-14.09 1.642-26.008 3.232-35.614 4.746-4.803.757-9.028 1.496-12.658 2.213-3.63.717-6.664 1.41-9.086 2.082-3.022.837-5.535 1.576-7.76 2.316-2.224.74-4.16 1.48-6.029 2.322-1.87.842-3.672 1.785-5.63 2.928-1.959 1.143-4.072 2.487-6.563 4.131-3.762 2.484-9.067 5.733-11.787 7.22-1.717.94-3.662 2.2-5.678 3.645a99.852 99.852 0 0 0-6.096 4.758 91.488 91.488 0 0 0-5.549 5.063c-1.652 1.648-3.053 3.212-4.043 4.556-.91 1.238-2.97 3.553-5.554 6.287a285.685 285.685 0 0 1-8.705 8.797 205.232 205.232 0 0 0-8.918 9.213c-2.717 2.99-4.958 5.66-6.069 7.287-2.221 3.254-5.26 7.041-6.75 8.416-1.484 1.37-3.218 3.274-5.086 5.551-1.867 2.277-3.87 4.927-5.89 7.785a190.414 190.414 0 0 0-6 9.035 167.548 167.548 0 0 0-5.42 9.309c-1.63 3.036-3.487 6.811-5.39 10.902a403.101 403.101 0 0 0-5.676 12.797c-1.82 4.3-3.507 8.491-4.883 12.152-1.376 3.662-2.441 6.793-3.016 8.97-.962 3.643-1.753 6.91-2.434 10.241a150.481 150.481 0 0 0-1.763 10.637c-.515 3.908-.977 8.325-1.444 13.697-.466 5.373-.938 11.7-1.474 19.424-.496 7.15-1.38 15.7-1.963 19-.584 3.3-1.07 9.6-1.08 14-.005 2.2-.233 5.607-.594 9.323-.36 3.715-.855 7.74-1.398 11.177a216.072 216.072 0 0 0-1.4 10.739c-.362 3.443-.588 6.474-.593 8.261-.005 1.788-.188 4.481-.48 7.381-.292 2.9-.694 6.007-1.133 8.62a74.096 74.096 0 0 0-.8 6.357c-.197 2.359-.326 5.1-.395 8.654-.14 7.106-.04 17.458.226 34.488.273 17.364.514 27.991.96 36.338.222 4.174.495 7.776.851 11.367.356 3.592.794 7.171 1.342 11.295 1.573 11.837 3.787 26.02 5.926 38.403 1.069 6.191 2.118 11.932 3.06 16.705.942 4.772 1.775 8.576 2.41 10.892.528 1.925 1.298 6.15 2.114 11.406a496.31 496.31 0 0 1 2.384 17.594c1.419 12.1 2.818 23.125 3.11 24.5.291 1.375.922 20.5 1.4 42.5.234 10.774.45 19.248.729 26.172.277 6.924.616 12.298 1.093 16.873.478 4.575 1.095 8.35 1.93 12.076.835 3.727 1.888 7.407 3.236 11.787 1.603 5.208 3.2 11.183 3.55 13.28.348 2.096 2.146 9.212 3.995 15.812 2.242 8.002 4.109 15.077 5.633 21.362 1.525 6.285 2.707 11.78 3.58 16.623.792 4.39 2.11 9.566 2.928 11.5.819 1.934 3.296 8.915 5.506 15.515a235.369 235.369 0 0 0 5.056 13.666c1.81 4.464 3.727 8.8 5.7 12.903 1.972 4.101 4 7.967 6.033 11.492 2.032 3.524 4.069 6.707 6.056 9.44 2.602 3.574 7.816 11.45 11.586 17.5 1.886 3.024 4.225 6.393 6.473 9.384 2.249 2.99 4.407 5.603 5.934 7.115 3.643 3.61 8.36 7.86 12.324 11.207 1.982 1.674 3.774 3.123 5.15 4.153 1.377 1.03 2.338 1.64 2.653 1.64.548 0 4.314 1.619 8.369 3.596a46.887 46.887 0 0 0 4.797 2.03c1.762.634 3.772 1.249 6.283 1.91 5.022 1.32 12.05 2.828 23.107 5.054 14.749 2.97 27.717 5.837 28.817 6.371.55.267 2.174.464 4.35.567 2.174.102 4.9.11 7.65 0 5.5-.222 28.675-.84 51.5-1.375 11.083-.26 19.986-.517 27.703-.872 7.717-.354 14.248-.808 20.588-1.464 6.34-.657 12.488-1.514 19.441-2.678 6.953-1.164 14.711-2.633 24.268-4.51 3.885-.763 8.476-1.443 13.3-1.988 4.825-.545 9.882-.955 14.7-1.176 4.262-.195 8.419-.484 11.681-.79 3.263-.308 5.631-.633 6.319-.903 1.22-.48 2.348-.809 5.357-1.317 3.009-.507 7.899-1.195 16.643-2.396 3.772-.519 8.47-1.368 14.375-2.606 5.905-1.238 13.02-2.865 21.625-4.941 3.025-.73 9.1-2.058 13.5-2.951 4.189-.85 8.75-2.033 13.388-3.434a202.63 202.63 0 0 0 13.844-4.744c4.492-1.724 8.763-3.552 12.516-5.371 3.753-1.819 6.988-3.627 9.408-5.313 5.437-3.787 15.47-10.094 20.201-12.699 2.02-1.111 4.214-2.644 6.56-4.572 2.347-1.928 4.845-4.251 7.467-6.943 2.623-2.693 5.372-5.754 8.221-9.159a250.756 250.756 0 0 0 8.822-11.216c1.886-2.535 6.386-8.035 10-12.221 1.808-2.093 3.83-4.715 5.633-7.252 1.803-2.538 3.387-4.991 4.315-6.748 5.431-10.282 9.56-17.892 13.902-25.633 2.235-3.984 4.608-8.934 5.273-11 .666-2.066 1.57-4.215 2.012-4.777.442-.562 2.432-5.512 4.422-11 2.422-6.679 4.412-12.311 6.035-17.131 1.623-4.82 2.88-8.828 3.836-12.262.956-3.433 1.611-6.291 2.031-8.81.42-2.52.605-4.7.621-6.776.022-2.75.482-6.8 1.024-9 .68-2.765 1.233-5.763 1.678-9.478.444-3.716.783-8.15 1.035-13.791.252-5.642.418-12.491.521-21.033.104-8.543.143-18.779.14-31.198-.001-12.336-.032-22.43-.138-31.65a1129.36 1129.36 0 0 0-.59-26.41c-.607-17.684-1.703-37.347-3.664-69.94-.545-9.075-1.672-22.35-2.502-29.5-.83-7.15-1.723-16.6-1.986-21-.792-13.245-1.607-23.642-2.697-33.433-1.09-9.792-2.455-18.979-4.342-29.801-.409-2.345-.78-5.166-1.05-7.82-.27-2.655-.44-5.144-.44-6.827-.002-3.365-.702-10.394-1.555-15.619-1.672-10.25-5.603-37.001-9.217-62.252-3.613-25.25-6.91-49-7.312-53.248-.47-4.95-1.297-14.175-1.842-20.5a271.047 271.047 0 0 0-1.684-14.83 230.14 230.14 0 0 0-2.373-13.79c-.897-4.381-1.897-8.522-2.984-12.358-1.087-3.836-2.262-7.367-3.512-10.528-2.485-6.284-4.517-11.927-4.517-12.54 0-.615-1.106-4.343-2.457-8.286-1.352-3.942-4.487-15.268-6.965-25.168-2.479-9.9-5.423-20.658-6.543-23.908-.614-1.782-1.488-3.673-2.53-5.549a49.191 49.191 0 0 0-3.537-5.46c-1.285-1.725-2.647-3.314-3.994-4.641-1.346-1.328-2.676-2.394-3.9-3.078a708.13 708.13 0 0 1-8.574-4.907c-2.75-1.6-5.675-2.926-6.5-2.945-.825-.019-5.325-1.824-10-4.012a109.87 109.87 0 0 0-6.524-2.812c-1.861-.723-3.26-1.173-3.748-1.176-.974-.006-5.899-1.625-10.943-3.596-3.138-1.226-5.692-2.223-8.35-3.029-2.657-.807-5.418-1.422-8.969-1.889-3.55-.466-7.888-.782-13.705-.988C464.81.126 457.516.03 448.061.006zm-5.224 17.865c9.785.013 17.289.088 23.217.264 5.928.175 10.28.45 13.76.857 3.48.408 6.089.95 8.53 1.66 2.44.71 4.711 1.588 7.52 2.67 4.676 1.8 10.076 3.607 12 4.012 1.926.405 5.976 1.968 9 3.475 3.026 1.506 7.3 3.322 9.5 4.035 1.183.383 2.583 1.01 4.057 1.789a53.053 53.053 0 0 1 4.51 2.695 49.147 49.147 0 0 1 4.123 3.041c1.216 1.01 2.225 1.982 2.889 2.826.683.869 1.247 1.68 1.793 2.75.546 1.072 1.076 2.405 1.691 4.32 1.23 3.832 2.805 9.995 5.549 21.057 2.728 11 5.843 22.197 6.924 24.883 1.08 2.686 1.965 5.746 1.965 6.799 0 .527.563 2.425 1.47 5.058a229.615 229.615 0 0 0 3.536 9.471c1.068 2.691 1.942 4.99 2.69 7.168a83.867 83.867 0 0 1 1.94 6.432c1.137 4.4 2.053 9.387 3.301 17.103.805 4.974 1.607 10.958 2.254 16.592.647 5.634 1.137 10.92 1.315 14.494.177 3.575.497 7.725.873 11.531.375 3.807.805 7.27 1.197 9.47.784 4.4 2.095 12.724 2.912 18.5.817 5.774 3.99 27.6 7.053 48.5 1.53 10.45 3.021 21.3 4.19 30.363 1.167 9.062 2.012 16.336 2.253 19.636.483 6.6 1.12 12.675 1.416 13.5.393 1.094 1 4.555 1.701 9.34.7 4.785 1.494 10.893 2.254 17.283.76 6.39 1.487 13.063 2.059 18.973.571 5.91.986 11.06 1.12 14.404.345 8.525 1.074 18.2 1.622 21.5.548 3.298 1.069 8.204 1.666 16.082s1.271 18.728 2.125 33.918c.618 11 1.67 24.5 2.336 30 .414 3.423.717 10.891.916 22.895.2 12.003.296 28.543.297 50.105 0 27.49-.051 43.542-.291 53.758-.12 5.108-.286 8.758-.516 11.648-.23 2.89-.523 5.022-.894 7.094-.938 5.225-2.196 13.495-2.797 18.377a81.913 81.913 0 0 1-1.037 6.45 88.309 88.309 0 0 1-1.721 6.917c-1.456 5.046-3.609 11.24-6.941 20.256-3.14 8.495-6.057 15.67-9.145 22.383a227.754 227.754 0 0 1-4.81 9.832c-1.68 3.234-3.451 6.46-5.364 9.785-2.373 4.125-5.7 10.047-7.396 13.158-.848 1.556-2.295 3.781-3.942 6.112-1.646 2.33-3.492 4.766-5.142 6.746-3.3 3.96-7.466 9.287-9.258 11.836-1.421 2.022-3.472 4.554-5.807 7.238a207.876 207.876 0 0 1-7.506 8.154c-2.553 2.632-5.042 5.057-7.12 6.92-2.08 1.864-3.748 3.165-4.657 3.545-1.906.797-5.084 2.734-7.06 4.305-1.746 1.388-4.16 3.069-6.881 4.836a209.592 209.592 0 0 1-8.739 5.351c-2.984 1.732-5.92 3.342-8.45 4.623-2.532 1.282-4.659 2.235-6.022 2.65-1.375.42-6.428 2.286-11.229 4.145-2.4.93-4.915 1.776-7.033 2.39-2.118.612-3.84.991-4.652.991-1.626 0-4.224.515-5.772 1.145s-4.84 1.467-7.314 1.861c-4.399.7-8.914 1.703-18 3.998-3.175.802-7.845 1.743-13.3 2.697a489.143 489.143 0 0 1-18.009 2.784c-5.945.808-11.337 1.796-11.982 2.195-.583.36-3.211.782-8.22 1.3-5.007.52-12.394 1.134-22.49 1.88-2.887.213-6.827.667-10.849 1.228-4.022.56-8.125 1.228-11.34 1.865l-11.691 2.317-3.428-3.635c-.759-.805-1.387-1.434-1.97-1.926-.584-.491-1.123-.845-1.702-1.097-.579-.253-1.199-.404-1.943-.493-.745-.088-1.615-.114-2.695-.113a25.463 25.463 0 0 0-4.182.379c-1.338.233-2.512.553-3.2.904-1.76.899-4.585 1.88-8.24 2.897-3.654 1.017-8.137 2.07-13.209 3.107-5.071 1.038-10.732 2.06-16.746 3.022a510.053 510.053 0 0 1-18.857 2.646c-2.352.286-7.184.53-13.074.694-5.89.163-12.84.245-19.426.207l-23.947-.137-25.5-5.27c-9.73-2.01-16.466-3.51-21.352-4.802-2.443-.647-4.423-1.242-6.084-1.823-1.66-.58-3.002-1.146-4.166-1.736-3.356-1.701-6.603-3.094-7.217-3.094-.306 0-1.557-.868-3.326-2.265-1.768-1.398-4.055-3.325-6.431-5.446-1.848-1.648-3.424-3.122-4.91-4.654a66.25 66.25 0 0 1-4.382-4.998c-2.99-3.757-6.368-8.672-11.609-16.598-6.742-10.196-13.652-21.239-15.355-24.539a311.279 311.279 0 0 1-6.98-14.449c-2.002-4.448-3.514-8.163-4.046-10.05-.541-1.926-2.624-8-4.629-13.5-1.002-2.75-2.066-6.055-2.974-9.163-.908-3.108-1.66-6.02-2.035-7.984-.751-3.93-2.08-9.555-2.955-12.5-.875-2.945-2.037-8.148-2.583-11.563-.272-1.707-.84-4.202-1.537-6.845-.696-2.644-1.52-5.437-2.304-7.74-1.567-4.608-3.177-10.59-3.578-13.292-.402-2.702-2.038-9.003-3.635-14.002-1.463-4.58-2.616-8.537-3.54-12.658-.922-4.12-1.615-8.405-2.163-13.64-.548-5.236-.951-11.423-1.29-19.346-.337-7.923-.611-17.583-.904-29.768-.495-20.625-1.158-38.85-1.472-40.5-.314-1.65-1.685-12.103-3.047-23.228a423.111 423.111 0 0 0-2.346-16.422c-.817-4.985-1.605-9.079-2.164-11.078-.898-3.213-2.85-13.426-4.984-25.639s-4.45-26.424-6.07-37.633c-.557-3.845-1.15-11.798-1.753-23.338-.603-11.54-1.216-26.667-1.812-44.863-.215-6.57-.262-11.466-.102-15.682.16-4.216.527-7.753 1.137-11.607.44-2.775.84-6.005 1.129-8.973.29-2.967.469-5.672.469-7.4 0-1.728.281-5.202.734-9.408a367.595 367.595 0 0 1 1.764-13.801c.687-4.655 1.311-9.73 1.765-14.158.454-4.428.737-8.207.739-10.27 0-2.062.16-4.95.414-7.941.254-2.99.605-6.084.99-8.559.385-2.475.81-6.525 1.185-11.054.376-4.53.702-9.54.887-13.938.154-3.651.395-7.212.729-10.705.334-3.493.76-6.92 1.289-10.303a160.298 160.298 0 0 1 4.43-19.975c.957-3.306 2.029-6.62 3.222-9.96 1.194-3.341 2.508-6.71 3.951-10.133a234.667 234.667 0 0 1 4.721-10.45c1.707-3.551 3.55-7.18 5.533-10.91 2.75-5.168 5.083-9.162 7.645-12.93 2.561-3.767 5.351-7.308 9.013-11.57 5.234-6.089 10.612-12.647 11.954-14.572.841-1.208 3.49-4.195 7.039-8.027 3.548-3.832 7.998-8.509 12.445-13.098s8.89-9.088 12.426-12.566c3.535-3.479 6.162-5.936 6.976-6.438 1.457-.896 8.499-5.255 15.649-9.685 4.443-2.753 8.138-4.915 11.87-6.697a65.63 65.63 0 0 1 5.725-2.415 74.367 74.367 0 0 1 6.37-2.001c4.591-1.233 10.004-2.298 17.025-3.403 7.02-1.105 15.648-2.25 26.668-3.648 13.012-1.651 24.82-3.443 26.24-3.983 1.42-.54 6.974-1.68 12.342-2.535 2.684-.427 6.755-1.26 11.152-2.262 4.397-1 9.12-2.168 13.108-3.26a293.462 293.462 0 0 1 12.443-3.093c3.988-.899 7.494-1.593 9.557-1.865 4.125-.545 9.975-1.735 13-2.645 1.217-.366 2.768-.655 5.566-.89 2.798-.236 6.842-.415 13.043-.563 12.403-.295 33.436-.46 70.39-.668 22.825-.128 39.927-.226 52.973-.209z" style="isolation:auto;mix-blend-mode:normal" color="#000" overflow="visible"/><path d="M586.973 809.89c-8.94-.057-16.485.124-16.764.403-.795.794 4.36 6.791 12.062 14.039 3.874 3.645 8.53 8.798 10.346 11.451 4.247 6.202 7.073 8.255 15.086 10.961 8.043 2.717 6.757 2.617 12.594.98 2.712-.76 9.657-1.886 15.432-2.505 21.569-2.312 31.603-4.768 43.5-10.647 6.05-2.99 13.397-6.798 16.328-8.465 11.435-6.504 17.404-13.36 9.922-11.396-4.25 1.115-24.194 1.139-29 .035-3.382-.777-3.75-.663-3.75 1.16 0 4.254-4.41 13.376-8.403 17.383-6.039 6.06-8.635 6.818-23.344 6.818-12.511 0-12.974-.078-19.783-3.379-10.728-5.2-15.769-11.722-17.34-22.427l-.63-4.305-16.256-.105z" fill="url(#a)" transform="translate(-184.865 -62.285)"/><path d="M610.035 786.252c-1.316-.107-3.572.009-7.332.303-4.964.388-10.474 1.121-12.244 1.629-1.77.507-4.571.926-6.225.93-5.436.01-10.505 1.918-10.505 3.956 0 1.029.562 2.098 1.25 2.375 2.497 1.008 24.539.632 27.85-.474 3.949-1.32 8.9-5.591 8.9-7.68 0-.6-.378-.932-1.694-1.039zm36.582.225c-.814-.234-1.53.168-2.914.986-1.546.913-4.895 1.945-7.445 2.295-4.102.562-4.702.966-5.211 3.51-.594 2.967-5.204 7.228-11.068 10.228-3.654 1.869-4.177 4.79-2.098 11.729 1.267 4.229 3.014 6.157 8.027 8.853 2.59 1.393 5.864 1.81 14.897 1.906 10.811.115 11.71-.025 13.625-2.127 3.435-3.771 4.299-6.352 4.299-12.84 0-5.095-.453-6.813-2.5-9.497-1.375-1.803-2.5-4.501-2.5-5.995 0-1.805-1.21-3.89-3.608-6.218-1.777-1.727-2.69-2.597-3.504-2.83zM291.465 781.22c-1.228-.062-1.736.551-1.736 1.83 0 4.078 8.502 26.719 12.304 32.764 1.251 1.99 3.09.52 4.965-3.97.973-2.33 4.268-7.314 7.322-11.076 3.055-3.763 5.348-7.363 5.098-8-.25-.638-4.22-2.468-8.822-4.067-4.603-1.598-10.49-3.961-13.084-5.25-2.874-1.427-4.82-2.167-6.047-2.23zM464.24 776.166c-.886.057-2.06 1.06-3.2 2.992-2.312 3.913-12.311 9.517-23.27 13.041-4.665 1.5-8.64 3.204-8.834 3.785-.194.581.636 3.98 1.843 7.553 1.632 4.832 2.081 8.057 1.754 12.578-.628 8.686-2.993 10.832-13.406 12.15-20.21 2.56-29.271-.679-40.65-14.533l-2.362-2.877-6.803 4.657c-10.467 7.166-34.858 18.58-39.769 18.61-3.726.021-6.814 1.124-6.814 2.433 0 1.67 8.49 7.663 13.98 9.867 2.486.998 8.002 2.885 12.258 4.193 4.256 1.309 8.53 2.842 9.5 3.406 3.851 2.243 4.664 1.438 4.283-4.242-.105-1.57.626-3.73 1.643-4.853 3.654-4.039 6.731-4.818 19.035-4.824 11.764-.006 13.995-.34 26.3-3.948 6.988-2.049 13.322-3.686 19.149-4.949 5.441-1.18 14.53-6.663 21.852-13.182 5.203-4.632 6.963-6.993 8.824-11.832 2.462-6.404 6.14-22.72 6.162-27.334.009-1.858-.589-2.748-1.475-2.691zM668.518 770.121c-1.183-.01-2.046 1.3-2.79 4.236-.591 2.338-1.784 5.9-2.65 7.914-1.623 3.775-1.232 5.836 1.106 5.836 1.485 0 7.545 6.49 7.545 8.08 0 .557 2.362 2.134 5.25 3.504 4.658 2.211 6.338 2.458 14.917 2.204 5.318-.159 9.994-.612 10.39-1.008 1.686-1.692-1.971-9.843-6.893-15.366-4.159-4.665-7.002-6.648-15.143-10.564-5.512-2.651-10.791-4.828-11.732-4.836z" fill="url(#a)" transform="translate(-184.865 -62.285)"/><path d="M327.215 765.285c-14.954-.339-25.486 1.434-25.486 4.287 0 .778 5.25 3.286 12.75 6.092 11.276 4.22 13.963 4.84 23.25 5.367 11.345.644 14.643 1.812 15.572 5.512 1.2 4.781-4.087 9.564-10.572 9.564-4.273 0-7.709 2.013-13.102 7.672-6.259 6.569-9.605 11.272-10.463 14.711l-.719 2.883 5.854-.73c12.536-1.567 35.293-12.939 45.889-22.932 2.81-2.65 3.609-4.125 3.363-6.203-.277-2.34-1.351-3.162-7.59-5.813-7.58-3.22-11.214-6.888-11.227-11.338-.005-1.826-.564-2.25-2.97-2.25-1.92 0-4.27-1.145-6.664-3.25l-3.7-3.25-14.185-.322zM384.193 762.31c-6.39-.47-8.926.908-9.021 4.907-.045 1.864-.426 4.15-.846 5.078-.593 1.31.153 2.154 3.326 3.773 2.25 1.148 4.644 2.976 5.323 4.063 3.244 5.195 5.973.052 5.543-10.445l-.29-7.079-4.035-.296zM559.8 762.107c-.696 0-1.071 3.689-1.071 10.5 0 12.105.142 12.24 7.845 7.5 2.682-1.65 5.612-3 6.514-3 .902 0 1.636-.562 1.63-1.25-.01-1.464-13.34-13.75-14.917-13.75zM581.979 751.12c-11.572-.013-12.36.621-7 5.638 5.306 4.968 9.97 8.091 14.75 9.877 2.475.925 6.75 2.53 9.5 3.568 6.848 2.584 10.924 2.187 11.244-1.096.183-1.879-.562-2.996-3-4.5-1.945-1.198-4.246-4.063-5.744-7.152-2.94-6.057-3.754-6.319-19.75-6.336zm68.25 12.741c-1.1.14-4.25.522-7 .85-5.265.627-15.1 3.818-17.239 5.594-2.4 1.992-1.41 4.598 2.197 5.789 2.822.931 4.482.818 9.012-.61 5.473-1.725 5.593-1.719 8.291.381 1.506 1.172 3.283 2.157 3.95 2.188 1.535.07 3.503-7.085 3.097-11.268-.244-2.514-.726-3.125-2.308-2.924zM593.254 713.156c-1.118-.33-2.997.569-6.043 2.578-5.14 3.392-21.482 19.444-21.482 21.102 0 .972 3.563 1.271 15.146 1.271h15.146l-.646-7.65c-.356-4.208-.646-9.833-.646-12.5 0-2.91-.357-4.47-1.475-4.8zM610.193 712.107c-2.27 0-2.464.372-2.464 4.69 0 2.58.447 7.192.994 10.25.547 3.058 1.246 7.264 1.552 9.346.504 3.417 1.062 4.012 5.754 6.115 2.86 1.281 6.29 3.515 7.623 4.965 3.651 3.968 5.077 3.417 5.077-1.961 0-13.774-10.893-33.405-18.536-33.405zm67.385 21.149c-1.88-.117-4.467-.116-7.642.012l-9.954.4-5.554 4.287c-5.798 4.473-8.7 8.013-8.7 10.617 0 1.202 1.25 1.537 5.75 1.541 3.958.004 6.686.604 8.75 1.926 4.18 2.678 6.588 2.512 11.118-.77 4.666-3.38 11.42-15.523 9.629-17.314-.347-.347-1.518-.582-3.397-.7z" fill="url(#a)" transform="translate(-184.865 -62.285)"/><path d="M647.01 705.107c-20.481 0-21.854.363-17.233 4.545 1.927 1.744 7.861 13.249 9.391 18.205.936 3.034 2.559 2.834 7.172-.88 7.71-6.209 10.241-6.824 28.183-6.848 15.86-.021 16.36.043 18.684 2.367 5.477 5.477 3.48 17.054-5.228 30.322-2.338 3.561-4.235 6.997-4.215 7.633.02.637 3.2 2.698 7.066 4.582 5.25 2.559 8.752 5.272 13.83 10.71 8.485 9.084 10.288 12.817 10.807 22.364.224 4.125.585 8.063.803 8.75.217.688.638 1.25.935 1.25 1.21 0 13.302-25.973 14.975-32.168 2.26-8.37 1.77-27.08-.957-36.517-1.546-5.35-2.544-6.83-7.391-10.963-3.082-2.628-5.955-5.344-6.385-6.033-.43-.69-3.13-2.802-6-4.694-5.207-3.432-19.742-7.843-29.718-9.02-2.475-.29-6.962-1.222-9.97-2.067-4.058-1.142-10.436-1.538-24.75-1.538zM372.121 694.143c-32.099.038-35.18.39-47.867 5.482-8.961 3.596-16.222 7.872-20.1 11.838-3.548 3.628-8.791 12.769-9.834 17.144-.393 1.65-1.734 4.575-2.982 6.5-3.452 5.326-4.61 9.63-4.61 17.149 0 7.205.523 7.865 4.288 5.398 4.265-2.794 20.848-6.542 28.963-6.545 5.717-.002 7.75-.345 7.75-1.31 0-.72-1.35-5.008-3-9.53-3.763-10.309-3.994-17.77-.75-24.197 2.742-5.435 5.526-6.93 12.933-6.949 7.495-.02 9.161.72 16.643 7.402l6.326 5.65 2.185-3.24c1.202-1.782 4.869-4.836 8.15-6.785 5.467-3.245 6.736-3.57 15.112-3.884 10.927-.41 13.87.756 18.35 7.267 4.344 6.315 5.157 8.946 5.894 19.074l.657 9 6 .579c12.648 1.22 29.545 7.726 40.652 15.65 2.558 1.825 4.878 3.908 5.154 4.629.277.72 1.25 1.308 2.164 1.308 1.234 0 1.514-.59 1.086-2.294-.317-1.263-1.243-5.783-2.058-10.045-1.965-10.27-3.257-14.033-6.463-18.827-1.472-2.2-3.227-5.382-3.903-7.072-.675-1.69-3.345-4.674-5.931-6.633-2.587-1.958-7.982-6.54-11.99-10.183-8.094-7.354-15.18-11.331-25.819-14.496-6.559-1.952-9.416-2.113-37-2.08zm12.582 27.127c-2.91.332-6.02 1.397-8.213 3.07-5.092 3.884-7.852 14.066-6.136 22.642.68 3.4 1.15 3.562 6.375 2.204 1.925-.5 6.542-1.209 10.26-1.575 3.85-.379 7.4-1.306 8.25-2.156 3.102-3.102.64-19.09-3.518-22.853-1.396-1.263-4.107-1.665-7.018-1.332zm-48.264 1.921c-.604.21-1.064.674-1.343 1.403-1.198 3.122 3.56 15.365 7.91 20.347a744.314 744.314 0 0 1 6.523 7.567v.002c2.518 2.989 4.902 2.983 4.354-.01-.19-1.041-.655-4.818-1.031-8.393-.819-7.77-1.917-10.014-7.952-16.25-3.52-3.638-6.646-5.295-8.46-4.666zm74.145 33.932c-8.121.023-8.414.42-8.008 10.895.48 12.36-1.283 17.345-8.937 25.265-3.25 3.363-5.91 6.88-5.91 7.819 0 1.811 4.567 8.6 7.3 10.851.9.74 3.563 1.948 5.918 2.684 5.4 1.686 7.79 1.748 13.338.351 5.374-1.353 5.484-2.135 1.764-12.613-2.182-6.145-3.3-7.914-6.026-9.521-7.144-4.216-7.198-9.06-.164-14.66 2.822-2.247 5.776-4.087 6.565-4.087 2.528 0 5.373 2.05 6.328 4.561 1.19 3.127 3.596 3.13 12.77.01 8.061-2.742 12.13-5.31 12.175-7.686.073-3.72-27.164-13.897-37.113-13.869z" fill="url(#a)" transform="translate(-184.865 -62.285)"/><path d="M371.568 667.34c-31.308-.786-47.084 2.255-67.31 12.98-7.682 4.073-12.124 7.347-19.356 14.258-17.403 16.632-22.806 26.728-26.254 49.074-3.848 24.948-1.892 43.714 7.135 68.455 4.266 11.692 7.767 17.881 16.541 29.245 17.929 23.218 48.857 39.505 82.905 43.656 13.964 1.702 27.71.667 37.748-2.842 4.811-1.682 9.62-3.059 10.689-3.059 4.505 0 17.253-5.672 26.563-11.82 16.942-11.188 35.526-32.25 44.19-50.086 2.766-5.691 4.168-10.669 6.056-21.5 2.284-13.106 2.377-14.935 1.332-26.094-1.528-16.298-3.305-23.192-9.116-35.36-6.875-14.4-12.557-21.918-23.287-30.808-19.238-15.94-34.667-24.38-59.175-32.37-9.489-3.094-10.954-3.285-28.66-3.73zm-2.072 13.957c31.139-.269 38.129-.07 42.5 1.205 8.785 2.561 23.225 10.172 28.979 15.273 2.998 2.659 8.908 7.73 13.134 11.27 7.704 6.454 10.164 9.944 17.668 25.062 1.502 3.025 3.733 10.45 4.955 16.5 1.946 9.626 2.154 13 1.666 27-.571 16.414-1.45 21.174-6.181 33.5-3.33 8.676-5.104 11.175-12.082 17.01-11.12 9.299-20.447 14.881-26.906 16.104-6.41 1.213-12.439 2.84-21 5.672-6.723 2.223-10.396 2.73-22.99 3.18-12.757.454-15.034.776-15.298 2.156-.18.948.53 1.84 1.715 2.15 5.18 1.354 4.837 9.726-.48 11.748-6.693 2.545-16.488.307-43.35-9.904-2.97-1.13-7.158-3.305-9.303-4.834-2.145-1.53-4.987-3.457-6.318-4.282-1.33-.825-4.721-4.2-7.533-7.5-2.812-3.3-8.132-8.925-11.822-12.5-7.21-6.983-9.198-10.51-16.34-29-5.387-13.944-6.232-19.206-6.557-40.843l-.305-20.346 3.41-7.154c12.091-25.365 12.703-26.442 17.878-31.483 5.735-5.587 14.266-10.431 28.22-16.025l9.073-3.637 37.267-.322zM640.717 663.45c-7.312-.224-14.392.083-20.998.96-13.487 1.79-31.224 8.25-41.99 15.291-10.17 6.65-24.647 21.468-32.147 32.906-7.387 11.266-15.128 29.425-16.84 39.5-.607 3.575-1.583 9.4-2.168 12.944-1.493 9.048-.584 31.963 1.61 40.556 4.825 18.906 6.96 23.39 18.697 39.252 7.85 10.61 15.25 16.634 27.348 22.264 17.042 7.932 21.638 9.125 38.5 10 10.548.547 17.736 1.453 22.5 2.836 8.606 2.499 22.295 2.755 31.484.59 3.567-.84 9.867-3.155 14-5.143 6.601-3.174 9.746-5.815 25.853-21.707 26.874-26.513 38.76-44.059 46.805-69.092 3.834-11.928 3.857-12.092 3.727-27.5-.231-27.241-4.81-40.003-20.121-56.093-10.52-11.055-17.66-16.249-30.659-22.303-19.637-9.147-43.665-14.592-65.601-15.262zm-3.344 27.657c27.4.001 36.464.81 44.854 4 1.447.55 3.935 1 5.527 1s7.524 1.168 13.184 2.596c10.58 2.67 20.032 7.757 25.76 13.865 1.357 1.448 4.802 4.434 7.657 6.637 8.572 6.613 12.18 17.45 13.065 39.24.408 10.064.15 13.062-1.72 20-2.343 8.691-15.332 36.363-19.173 40.844-3.375 3.938-17.247 14.604-24.232 18.633-16.933 9.765-27.641 14.308-40.39 17.135-6.972 1.545-16.647 3.094-21.499 3.441-4.852.348-10.045 1.265-11.543 2.04-1.497.773-5.854 1.642-9.68 1.929-5.892.44-8.206.089-15.134-2.305-10.295-3.557-15.87-7.28-20.32-13.564-1.925-2.719-7.39-8.777-12.145-13.465-13.824-13.633-18.535-21.191-24.768-39.744-1.858-5.533-2.088-8.566-2.087-27.5l.002-21.282 2.998-6.34c2.302-4.865 5.838-9.236 15.205-18.788 6.712-6.847 13.886-13.444 15.943-14.66 23.357-13.817 22.913-13.713 58.496-13.712z" fill="url(#a)" transform="translate(-184.865 -62.285)"/><path d="M465.426 544.318c-1.5.007-3.1.285-5.397.836-5.479 1.315-9.3 4.045-9.3 6.643 0 1.986 13.408 1.619 18.99-.52 6.164-2.362 6.34-4.538.498-6.173-1.893-.53-3.292-.793-4.791-.786zM486.479 536.297c-1.311-.253-1.75.328-1.75 2.31 0 1.983.439 2.563 1.75 2.311.962-.185 1.75-1.226 1.75-2.31 0-1.086-.788-2.126-1.75-2.311zM513.682 536.107c-2.208 0-7.925 4.949-9.823 8.5-2.383 4.462-2.8 11.203-.859 13.858.7.956 5.312 3.243 10.25 5.082s9.766 3.394 10.729 3.453c2.572.16 2.219-3.149-1.323-12.393-1.686-4.4-3.437-9.18-3.89-10.623-1.032-3.279-4-7.877-5.084-7.877zM468.254 520.107c-14.109 0-14.696 1.764-2.525 7.58 3.12 1.492 6.263 2.12 10.25 2.051l5.75-.1v-4.158c0-2.87-.491-4.346-1.583-4.765-.87-.334-6.22-.608-11.892-.608zM514.729 515.338v11.769h4.587c4.204 0 5.063.46 10.25 5.48 5.42 5.245 5.892 5.482 11.026 5.5 3.69.015 6.576-.66 9.25-2.163 7.166-4.028 5.18-6.876-9.778-14.014-9.814-4.683-12.988-5.728-18.585-6.111l-6.75-.461zM472.572 486.107c-2.41 0-2.843.404-2.843 2.647 0 4.013 4.016 14.62 6.302 16.646 3.44 3.048 5.245 1.82 4.877-3.314-.771-10.771-3.49-15.979-8.336-15.979zm49.094 3c-9.053 0-19.018 3.388-23.389 7.95-2.231 2.329-2.44 3.183-1.894 7.787l.613 5.172 5.615.357c3.09.196 6.405.441 7.368.545 1.367.148 1.75-.57 1.75-3.287 0-3.881 1.749-5.437 8.5-7.557 4.997-1.57 12.5-6.616 12.5-8.408 0-2.015-2.351-2.559-11.063-2.559z" fill="url(#d)" transform="translate(-184.865 -62.285)"/><path d="M528.229 459.984l-21.5.46c-11.825.252-24.596.945-28.38 1.538-11.265 1.768-30.834 12.77-35.28 19.838-.965 1.533-3.073 4.337-4.686 6.23-4.025 4.726-10.486 18.503-11.776 25.108-.585 2.998-1.29 11.918-1.568 19.824-.409 11.662-.181 15.532 1.21 20.5 4.366 15.605 17.525 35.008 27.48 40.522 3.025 1.675 5.944 2.912 6.488 2.746.544-.166.85-1.923.68-3.902-.224-2.597.268-4.177 1.761-5.67 2.599-2.599 6.169-2.617 13.57-.07 5.08 1.747 8.418 2 26.47 2 20.08 0 20.89-.081 29.093-2.856 13.969-4.726 19.15-7.866 24.988-15.145 2.868-3.575 6.67-9.515 8.451-13.2 1.781-3.686 4.925-9.242 6.987-12.348 6.28-9.462 8.055-18.009 7.762-37.37-.243-15.974-.333-16.609-3.385-23.5-3.6-8.126-9.539-14.413-15.463-16.37-2.147-.71-10.427-2.876-18.402-4.813l-14.5-3.522zm-60.02 12.286c9.35-.473 13.154.817 18.789 6.373 4.49 4.427 6.448 5.275 8.28 3.59.522-.481 4.648-2.281 9.167-4 7.158-2.723 9.472-3.126 17.936-3.126 11.1 0 15.319 1.482 21.598 7.584 5.126 4.982 5.196 9.796.25 17.141-1.925 2.858-3.5 5.646-3.5 6.197 0 .551 4.291 3.105 9.537 5.674 12.66 6.2 18.463 13.168 18.463 22.17 0 5.202-2.295 7.974-10.905 13.176-5.666 3.423-8.245 4.34-13.783 4.896-6.094.612-6.773.893-6.426 2.672.785 4.026 1.25 18.814.664 21.147-.332 1.323-2.055 3.29-3.828 4.37-3.992 2.435-8.72 2.46-15.222.077-2.75-1.008-7.498-2.74-10.55-3.846-12.13-4.399-16.49-7.675-19.304-14.508-.85-2.062-2.025-3.75-2.611-3.75-.587 0-3.422 1.314-6.301 2.918-8.548 4.764-14.723 6.082-28.483 6.082-16.273 0-19.16-1.504-19.22-10.017-.035-4.955 1.882-8.455 9.734-17.774l4.46-5.29-5.612-5.885c-5.1-5.347-5.613-6.292-5.613-10.348 0-7.44 1.867-8.793 13.824-10.004 11.332-1.148 11.43-1.24 8.787-8.412-2.446-6.639-3.896-14.94-3.229-18.496 1.106-5.893 4.589-8.182 13.098-8.611z" fill="url(#d)" transform="translate(-184.865 -62.285)"/><path d="M500.262 429.26c-3.802.223-6.658.775-11.166 1.808-27.739 6.36-42.882 12.888-62.043 26.746-11.576 8.373-13.307 10.169-22.44 23.3-8.248 11.858-8.727 12.82-13.72 27.568-4.62 13.64-5.976 24.334-4.305 33.925 3.592 20.618 6.292 28.568 13.215 38.918 9.559 14.292 34.268 32.574 52.23 38.643 4.508 1.523 12.296 5.041 17.309 7.816 11.031 6.108 17.88 8.884 24.728 10.028 7.738 1.292 14.037 1.207 25.758-.354 12.298-1.637 20.673-4.721 29.9-11.01 6.288-4.284 18.548-16.827 24.479-25.04 1.589-2.2 5.916-8.05 9.615-13 9.655-12.92 16.28-25.04 21.553-39.428 4.55-12.42 4.613-12.758 5.11-27.67.812-24.4-1.858-34.083-14.33-51.973-9.594-13.76-10.83-15.014-23.497-23.889-18.895-13.237-25.627-15.202-55.562-16.222-8.286-.283-13.033-.39-16.834-.166zm6.967 18.347h31l11.5 3.184c12.786 3.54 21.301 6.561 23.828 8.453 5.895 4.415 10.793 10.324 14.394 17.363 4.647 9.083 5.958 17.064 6.162 37.5.15 14.918-2.821 26.03-10.27 38.405-2.812 4.674-5.114 8.849-5.114 9.277 0 1.559-7.452 12.985-12.729 19.516-6.364 7.876-13.523 12.244-28.771 17.558-8.693 3.03-11.602 3.552-22.25 3.987l-12.25.5v2.879c0 1.583-.9 3.778-2 4.878-1.863 1.863-3.293 1.996-20.75 1.944-20.249-.06-20.573-.125-32.249-6.461-6.614-3.59-18.89-16.064-22.615-22.983-6.465-12.007-11.4-22.665-12.482-26.962-.798-3.169-1.003-11.348-.647-25.836.435-17.668.851-22.118 2.494-26.705 3.082-8.603 7.718-17.186 13.036-24.127 2.683-3.504 5.402-7.35 6.043-8.55 1.6-2.994 14.989-12.24 24.67-17.036 13.393-6.635 14.471-6.784 49-6.784zM395.555 299.479c-1.677-.093-3.41.495-5.088 1.869-2.754 2.253-2.758 2.278-1.604 8.732.854 4.776 1.885 7.201 3.934 9.25 2.37 2.37 3.593 2.777 8.34 2.777h5.56l-.625-6.25c-.97-9.702-5.487-16.102-10.517-16.378zM334.916 297.424c.798.32.56.557-.605.605-1.055.044-1.645-.193-1.313-.525.332-.332 1.196-.369 1.918-.08zM346.455 297.377c2.075.216.624.398-3.226.402-3.85.004-5.55-.173-3.774-.394 1.775-.221 4.925-.225 7-.008zM612.139 287.11c-.6-.001-1.607 1.13-2.239 2.517-1.452 3.187-5.244 4.652-10.052 3.883-3.459-.553-4.175-.204-9.381 4.554-6.103 5.578-7.582 8.324-5.7 10.592 1.58 1.904 12.854 1.926 18.962.04 6.182-1.911 13.799-6.352 15.595-9.094 1.396-2.131 1.248-2.604-2.303-7.385-2.086-2.81-4.283-5.107-4.882-5.108zm30.09 13.992l-5 .253-5 .252-.293 8.942c-.314 9.622.74 13.707 4.152 16.097 2.447 1.714 8.908 1.923 11.789.381 1.766-.945 1.937-1.722 1.38-6.25-.349-2.843-2.073-8.433-3.831-12.422l-3.197-7.253zM633.635 277.332c-.822.04-1.83.217-3.033.53-3.92 1.015-4.837 3.525-2.307 6.32 3.21 3.546 6.59 2.136 7.959-3.32.632-2.518-.155-3.648-2.62-3.53zm16.752.955c-.633.252-.658.905-.658 2.192 0 1.983.502 2.628 2.048 2.628 2.99 0 8.082 2.842 10.952 6.114 1.375 1.567 3.85 3.531 5.5 4.363 4.561 2.3 19.792 2.028 25.25-.45 2.337-1.06 4.25-2.575 4.25-3.364 0-1.69-20.375-7.665-26.125-7.663-1.994.001-5.501-.66-7.795-1.47-2.294-.81-6.4-1.768-9.125-2.13-2.425-.32-3.665-.472-4.297-.22zM604.479 239.123c-2.38-.049.858 14.56 4.042 18.234 3.114 3.593 6.148 1.377 6.194-4.523.024-3.1-7.863-13.662-10.236-13.711zm45.775 9.984c-7.475 0-10.43.422-13.316 1.903-5.513 2.827-8.423 6.357-8.036 9.744.306 2.668.685 2.893 5.827 3.441 3.025.323 6.006.66 6.626.75.62.09 1.693-.518 2.383-1.35.69-.83 4.231-2.427 7.871-3.546 6.326-1.945 12.12-5.7 12.12-7.858 0-2.122-4.202-3.084-13.475-3.084z" fill="url(#a)" transform="translate(-184.865 -62.285)"/><path d="M401.582 208.244c-1.054 0-2.259.08-3.783.207-11.408.955-22.412 2.382-27.07 3.51-2.475.6-7.846 1.827-11.934 2.728-8.285 1.828-20.399 6.671-26.719 10.684-2.284 1.45-5.659 4.519-7.5 6.82-1.841 2.302-5.278 6.328-7.639 8.948-5.687 6.311-9.556 13.95-14.382 28.404-4.336 12.983-4.25 11.489-1.926 34.062 1.104 10.727 1.31 11.355 8.277 25.272 8.926 17.828 13.364 22.435 24.323 25.252 4.257 1.094 9.5 1.137 9.5.078 0-.494-1.12-2.856-2.489-5.25-2.171-3.798-2.49-5.57-2.5-13.932-.01-8.248.336-10.264 2.485-14.5 3.69-7.274 3.593-7.42-5.018-7.42-6.122 0-8.685-.527-13.771-2.834-3.437-1.558-7.478-4.292-8.979-6.076-2.307-2.742-2.728-4.169-2.728-9.232 0-11.407 2.456-12.858 21.783-12.858 11.673 0 13.883-.238 13.883-1.5 0-.825-.335-1.5-.743-1.5s-3.203-2.005-6.213-4.457a37.225 37.225 0 0 1-13.699-28.72c-.01-3.87.443-5.036 2.623-6.75 2.283-1.796 4.027-2.073 13.05-2.073 11.173 0 13.962.826 18.24 5.405 3.14 3.362 5.544 3.292 6.993-.207 1.672-4.036 9.425-11.2 13.819-12.768 5.697-2.033 14.166-1.787 17.951.522 3.807 2.32 11.04 13.076 11.908 17.709.639 3.404.158 9.232-1.072 12.986-.623 1.902-.234 2.226 3.412 2.842 5.638.952 13.078 6.175 15.77 11.068 1.227 2.232 2.53 6.606 2.896 9.72.859 7.307-.676 9.734-8.11 12.815-4.758 1.973-5.524 2.638-5.011 4.367 3.29 11.098 3.962 27.296 1.254 30.286-2.491 2.75-8.316 4.255-16.46 4.255-5.781 0-8.013-.516-12.884-2.986-3.24-1.643-6.165-2.993-6.5-3-.334-.007-2.245 2.349-4.246 5.236-2 2.888-5.86 7.95-8.578 11.25-7.022 8.529-6.89 8.779 4.184 7.995 5.087-.36 10.6-1.032 12.25-1.493 1.65-.46 6.375-1.126 10.5-1.48 13.528-1.161 19.54-3.961 27.84-12.965 5.278-5.726 12.77-20.973 14.279-29.057 1.31-7.027.615-39.598-.994-46.5-.578-2.475-2.011-8.664-3.186-13.754-2.731-11.83-7.112-22.339-12.088-29.001-3.008-4.028-5.596-6.098-11.068-8.854-4.97-2.503-6.769-3.25-9.93-3.254zm-76.11 27.863c.276 0-.059.675-.743 1.5-.685.825-1.472 1.5-1.747 1.5-.275 0 .062-.675.747-1.5.684-.825 1.469-1.5 1.744-1.5zm62.973 5.284c-.43-.026-.896.047-1.453.187-4.38 1.1-7.992 4.763-10.687 10.846-2.42 5.46-3.441 13.487-1.91 15.017.366.367 2.616.666 5 .666 3.985 0 4.334-.206 4.334-2.566 0-3.808 1.534-6.005 5.21-7.46 7.595-3.008 8.533-6.265 3.717-12.913-1.978-2.73-2.923-3.7-4.21-3.777zm-45.006 8.716c-3.069 0-3.71.353-3.71 2.04 0 4.942 5.007 11.244 12.457 15.675 3.957 2.354 5.543 1.63 5.543-2.533 0-3.226-.82-4.698-5.29-9.5-4.596-4.94-5.773-5.682-9-5.682zm52.979 24.198c-.86.144-.692.936-.506 2.545.212 1.84 1.234 3.18 3.104 4.072 1.532.731 3.328 2.197 3.99 3.258.903 1.445 2.332 1.923 5.713 1.912 5.811-.02 7.456-1.07 6.658-4.25-.685-2.73-2.877-3.836-12.293-6.196-3.921-.982-5.807-1.485-6.666-1.341zm-13.69 7.715l-7.25.294-7.25.293.352 5c.194 2.75.558 5.338.809 5.75.885 1.455 6.879.72 10.09-1.238 2.807-1.712 3.25-2.535 3.25-6.04v-4.06zm-44.152 12.97c-6.023-.05-11.793.39-11.597 1.367.137.688 1.15 1.797 2.25 2.465 2.512 1.526 22.106 1.732 23.027.242.355-.574.1-1.699-.565-2.5-.815-.982-7.091-1.524-13.115-1.574zm34.254 15.117c-3.174 0-17.324 10.968-19.816 15.36-1.274 2.244-1.77 15.824-.62 16.974 1.179 1.179 2.442.72 4.36-1.584 6.9-8.285 11.167-14.206 13.273-18.408 2.761-5.508 4.313-12.342 2.803-12.342zM613.83 204.04c-8.231.047-16.179.614-18.73 1.67-10.515 4.356-15.294 7.204-19.873 11.837-6.138 6.21-13.697 19.007-15.985 27.06-.937 3.3-2.51 7.8-3.498 10-2.638 5.88-5.326 20.778-4.642 25.743.322 2.342 1.023 8.124 1.558 12.85 1.855 16.385 7.618 33.749 14.012 42.218 3.342 4.426 5.43 6.008 11.808 8.953 4.262 1.967 9.686 3.881 12.055 4.254 2.37.373 5.52 1.762 7 3.088 2.655 2.377 2.923 2.407 19.194 2.043 24.4-.546 43.049-3.642 53.517-8.885 6.032-3.02 17.244-8.326 27.764-13.137 16.15-7.385 26.47-18.276 33.168-35 1.106-2.762 1.55-7.386 1.55-16.136v-12.266l-3.345-4.865c-1.84-2.676-4.145-6.438-5.12-8.362-2.746-5.422-9.506-13.853-11.654-14.535-1.064-.337-4.037-2.433-6.605-4.656-3.95-3.418-16.545-10.036-33.775-17.746l-8.823-3.947c-2.652-1.187-9.177-3.329-14.5-4.76a2688.132 2688.132 0 0 1-14.646-3.977c-3.684-1.02-12.199-1.493-20.43-1.445zm-12.756 15.071c3.532-.003 9.655 2.57 9.655 4.057 0 .346 2.137 3.14 4.75 6.213 2.612 3.072 5.558 6.743 6.546 8.156 2.22 3.174 2.86 3.179 10.51.07 8.032-3.263 22.847-3.475 34.08-.488 9.108 2.422 12.926 4.59 15.932 9.043 4.04 5.986 1.032 12.095-8.428 17.113-5.379 2.854-5.588 4.572-.64 5.276 8.068 1.147 28.956 6.818 32.71 8.88 7.46 4.1 10.15 10.886 7.155 18.055-1.627 3.893-5.324 6.363-15.797 10.557-6.765 2.709-8.818 3.064-17.715 3.064-6.957 0-11.317-.501-14.125-1.625-2.234-.893-4.287-1.4-4.562-1.125-.276.276.055 3.37.734 6.875.679 3.507 1.261 9.155 1.293 12.553.072 7.796-2.054 10.92-9.531 14-6.596 2.718-16.903 3.037-21.412.664-6.895-3.628-12.551-11.097-13.483-17.8-.644-4.635-.82-4.661-9.517-1.403-4.78 1.79-8.155 2.26-16.586 2.305-9.944.053-10.825-.108-14.522-2.67-5.525-3.829-7.392-7.454-7.392-14.34 0-7.028 3.347-12.827 10.931-18.934 2.732-2.2 4.99-4.731 5.018-5.625.027-.893-1.56-3.368-3.526-5.5-9.635-10.445-8.068-21.375 3.063-21.375 5.21 0 6.161-1.19 4.463-5.578-1.737-4.485-2.457-21.608-1.022-24.289 1.765-3.297 7.033-6.125 11.418-6.129z" fill="url(#a)" transform="translate(-184.865 -62.285)"/><path d="M367.191 172.361c-4.328.204-8.067.701-13.462 1.596-23.774 3.943-41.864 12.356-60.067 27.938-5.282 4.52-17.905 20.345-21.709 27.212-6.208 11.209-13.442 35.356-14.828 49.5-1.007 10.276 2.997 34.534 8.328 50.473 3.133 9.367 6.93 15.327 16.723 26.246 11.636 12.974 17.785 16.784 45.66 28.31 11.328 4.685 21.002 6.75 29.893 6.38 3.025-.126 6.85.339 8.5 1.033 6.526 2.745 11.2 4.26 15.5 5.023 11.715 2.081 25.47.594 36.199-3.914 11.014-4.627 19.035-11.087 28.459-22.92 9.484-11.908 14.814-22.03 21.447-40.726 9.89-27.876 12.442-58.994 6.943-84.672-2.822-13.179-5.262-19.337-12.252-30.908-10.654-17.638-18.973-24.815-37.79-32.606-14.575-6.034-19.963-7.07-40.544-7.803-7.753-.276-12.67-.365-17-.162zm41.137 22.452l7.598 3.558c12.639 5.919 19.842 13.85 26.097 28.736 4.345 10.34 8.317 25.405 9.89 37.5 1.6 12.32 1.623 43.56.036 50.5-2.179 9.531-11.76 27.46-18.111 33.891-6.745 6.83-15.966 12.659-22.11 13.979-11.21 2.408-16.196 3.232-26 4.298-13.042 1.42-55.787 2.04-58.5.85-1.1-.483-3.115-.909-4.478-.947-1.363-.039-5.525-1.235-9.246-2.657-8.206-3.135-11.15-6.343-10.463-11.402.39-2.872-.784-6.062-6.445-17.512-7.234-14.628-8.402-18.487-9.848-32.5-1.694-16.42-1.269-25.841 1.537-34.035 1.406-4.105 2.986-9.166 3.512-11.246 1.527-6.046 9.942-20.725 15.406-26.877 2.764-3.112 6.649-7.614 8.633-10.006 5.974-7.2 27.567-17.53 43.393-20.757 3.3-.674 8.925-1.867 12.5-2.653 3.575-.785 13.273-1.718 21.55-2.074l15.05-.646zM615.229 160.857c-7.7.109-16.25.612-19 1.12-18.334 3.385-34.013 9.698-42.766 17.218-2.621 2.253-8.058 8.217-12.08 13.254-16.032 20.077-26.67 42.52-29.215 61.637-1.955 14.685-1.77 23.003.943 42.113 2.053 14.462 2.972 18.122 7.149 28.5 2.636 6.55 6.23 14.18 7.99 16.96 4.882 7.71 17.961 21.796 24.49 26.376 5.772 4.05 18.27 10.226 26.989 13.34 11.195 3.999 30.866 10.033 34.976 10.73 6.333 1.074 14.638 1.051 20.524-.058 2.75-.518 9.5-1.362 15-1.873 14.816-1.378 29.825-6.345 49.902-16.514 18.56-9.4 22.028-11.854 34.64-24.492 7.22-7.234 9.413-10.266 14.147-19.56 7.85-15.411 9.86-22.485 10.531-37.09.617-13.4-.784-25.958-3.726-33.422-7.105-18.026-19.04-36.188-31.344-47.698-12.874-12.043-33.6-27.41-42.729-31.68-16.202-7.578-30.13-13.016-40.632-15.863-10.91-2.957-12.833-3.18-25.79-2.998zm-3.627 29.426c15.6-.287 18.488-.08 25.127 1.809 4.125 1.174 9.403 2.542 11.728 3.04 12.516 2.683 16.801 4.298 36.037 13.577 7.297 3.52 13.519 6.398 13.826 6.398 1.171 0 15.082 8.451 18.776 11.407 6.74 5.392 14.717 13.937 17.36 18.593 1.404 2.475 3.72 6.3 5.144 8.5 5.79 8.945 6.129 10.505 6.129 28.225v16.506l-4.94 10.135c-7.73 15.862-20.117 27.93-36.56 35.62-3.85 1.801-10.6 5.017-15 7.145-4.4 2.128-8.57 3.87-9.266 3.87-.696 0-3.62 1.32-6.5 2.933-3.37 1.888-9.69 3.893-17.734 5.625-11.593 2.496-14.534 2.715-40.5 3.006-15.4.173-28.9.099-30-.164-1.1-.263-3.041-.702-4.313-.975-1.272-.273-5.156-3.14-8.63-6.373-3.476-3.233-7.61-6.547-9.188-7.363-1.578-.817-5.43-5.242-8.559-9.836-11.1-16.297-17.838-44.804-16.393-69.354.63-10.677 1.956-16.426 6-26 1.395-3.3 2.546-6.773 2.56-7.72.068-5.015 10.002-21.547 18.235-30.348 5.09-5.44 7.973-7.448 17.561-12.22l11.473-5.712 17.627-.324z" fill="url(#a)" transform="translate(-184.865 -62.285)"/></svg>