<svg xmlns:osb="http://www.openswatchbook.org/uri/2009/osb" xmlns="http://www.w3.org/2000/svg" height="975.35" width="555.817"><defs><linearGradient osb:paint="solid" id="c"><stop offset="0" stop-color="#fff"/></linearGradient><linearGradient osb:paint="solid" id="b"><stop offset="0"/></linearGradient><linearGradient osb:paint="solid" id="a"><stop offset="0" stop-color="#162d50"/></linearGradient></defs><path d="M363.817 18.456c-8.942.107-18.322.329-27.719.658-9.396.33-18.809.764-27.816 1.3-9.008.534-17.61 1.168-25.385 1.892-13.503 1.256-23.589 2.37-33.38 3.797-9.793 1.425-19.29 3.163-31.62 5.668-7.053 1.432-12.663 2.589-17.924 3.744a498.69 498.69 0 0 0-15.836 3.74c-11.325 2.863-25.646 6.834-51.74 14.13a187.3 187.3 0 0 0-15.691 5.177c-5.14 1.944-10.105 4.065-14.63 6.24-4.524 2.174-8.609 4.4-11.995 6.554-1.694 1.077-3.213 2.136-4.524 3.16-1.31 1.025-2.414 2.017-3.277 2.958-.997 1.086-2.126 2.548-3.354 4.334-1.228 1.785-2.555 3.894-3.955 6.277-2.799 4.765-5.882 10.623-9.01 17.17a268.649 268.649 0 0 0-4.632 10.203 196.618 196.618 0 0 0-3.795 9.53 171.378 171.378 0 0 0-3.117 9.288c-.944 3.104-1.8 6.24-2.596 9.479-1.284 5.225-4.785 16.7-7.777 25.5-1.804 5.304-3.346 10.4-4.614 15.246-1.268 4.847-2.263 9.444-2.974 13.754-1.181 7.15-3.24 17.95-4.576 24-.822 3.72-1.489 6.902-2.057 10.004a171.439 171.439 0 0 0-1.47 9.52c-.864 6.79-1.568 15.08-2.577 28.51-.745 9.92-1.134 16.213-1.205 21.692-.07 5.48.177 10.145.707 16.807.562 7.066 1.043 15.218 1.44 24.238.396 9.02.708 18.908.93 29.446.22 10.537.352 21.726.39 33.345.037 11.62-.02 23.672-.176 35.938-.17 13.337-.432 26.25-.719 36.308-.287 10.06-.6 17.267-.865 19.192-.458 3.314-.895 10.035-1.492 24.566-.598 14.532-1.356 36.875-2.455 71.434-.525 16.5-1.366 33.375-1.87 37.5-.503 4.125-1.402 17.4-1.998 29.5-.595 12.1-1.262 22.789-1.482 23.752-.22.963-.01 10.413.467 21 .373 8.286.907 15.96 1.941 26.445 1.035 10.484 2.569 23.778 4.94 43.303.5 4.125 1.2 16.05 1.552 26.5.435 12.892.948 23.626 1.657 32.857a314.5 314.5 0 0 0 1.224 12.801c.466 3.946.995 7.598 1.602 11.037.606 3.44 1.29 6.666 2.066 9.762a121.23 121.23 0 0 0 2.617 8.978 131.377 131.377 0 0 0 3.256 8.684c1.202 2.9 2.524 5.833 3.98 8.88a80.462 80.462 0 0 0 3.29 6.225 52.96 52.96 0 0 0 3.59 5.352 43.103 43.103 0 0 0 4.115 4.639 44.303 44.303 0 0 0 4.857 4.086 56.707 56.707 0 0 0 5.82 3.695c2.126 1.184 4.448 2.33 7.005 3.463 2.556 1.133 5.345 2.256 8.406 3.392a275.76 275.76 0 0 0 10.031 3.48 941.588 941.588 0 0 0 21.79 6.876c6.746 2.031 12.98 3.803 18.714 5.32 5.733 1.517 10.966 2.78 15.71 3.79 4.746 1.009 9.003 1.765 12.784 2.273 9.753 1.31 18.717 2.674 27.2 4.144a526.598 526.598 0 0 1 24.302 4.781c7.15 1.587 18.85 3.828 26 4.979 7.15 1.152 18.85 3.19 26 4.527 7.242 1.355 12.068 2.189 15.354 2.612 1.642.211 2.899.319 3.88.34.982.02 1.688-.046 2.227-.188.804-.211 17.679-.603 37.5-.871 9.91-.134 19.932-.364 28.096-.627 8.163-.263 14.468-.56 16.943-.824 4.95-.53 15.3-1.426 23-1.994 4.217-.311 8.012-.655 11.547-1.059 3.535-.403 6.81-.866 9.986-1.418a147.623 147.623 0 0 0 9.39-1.95 192.48 192.48 0 0 0 9.759-2.644c4.277-1.27 7.833-2.415 11.306-3.785 3.474-1.37 6.866-2.966 10.819-5.142 3.953-2.177 8.466-4.933 14.181-8.622 5.716-3.688 12.633-8.31 21.395-14.218 3.263-2.2 5.964-4.18 8.21-6.078 2.247-1.898 4.04-3.714 5.483-5.586a24.515 24.515 0 0 0 3.39-5.926c.854-2.124 1.467-4.443 1.944-7.096.738-4.1 1.52-10.446 2.254-17.67a770.984 770.984 0 0 0 1.955-22.93c.537-7.606.925-14.719 1.07-19.966.074-2.624.087-4.781.026-6.301-.061-1.52-.195-2.401-.414-2.475-.654-.218-2.284-1.494-3.623-2.834-.56-.559-.988-1.024-1.309-1.504a4.304 4.304 0 0 1-.658-1.59c-.252-1.23-.16-2.945.102-6.007.313-3.667 1.304-10.943 2.203-16.168.54-3.14 1.019-8.141 1.433-14.92.415-6.779.764-15.335 1.043-25.58.464-17.05 1.29-35.5 1.836-41 .743-7.49 1.524-18.875 2.25-32.383.726-13.508 1.396-29.139 1.914-45.117.337-10.389.704-18.26 1.168-24.535.464-6.276 1.026-10.955 1.754-14.965 1.1-6.05 2.482-16.175 3.072-22.5.635-6.8 1.472-14.413 2.424-22.143s2.02-15.574 3.117-22.838c.871-5.764 2.445-19.714 3.498-31 1.054-11.286 2.8-25.92 3.881-32.52.923-5.632 1.659-10.798 2.225-15.839.566-5.04.962-9.957 1.205-15.086.243-5.13.333-10.472.285-16.371-.048-5.899-.234-12.354-.54-19.703-.621-14.85-1.586-44.775-2.147-66.5-.857-33.141-1.525-54.504-2.26-69.213-.368-7.354-.75-13.045-1.184-17.713-.433-4.668-.916-8.312-1.478-11.574-.57-3.3-1.194-8.1-1.742-13.176-.548-5.075-1.02-10.424-1.282-14.824-.524-8.8-1.642-22.975-2.484-31.5-.842-8.525-2.012-21.8-2.602-29.5-.344-4.504-.71-8.396-1.128-11.838-.42-3.442-.893-6.436-1.454-9.14-.56-2.705-1.207-5.12-1.976-7.41a59.436 59.436 0 0 0-2.703-6.653c-1.092-2.3-3.209-6.185-5.88-10.871a817.954 817.954 0 0 0-9.2-15.676 863.684 863.684 0 0 0-9.688-15.768c-2.996-4.747-5.602-8.724-7.346-11.144-2.97-4.125-6.56-9.154-7.978-11.178-.509-.726-1.09-1.4-1.836-2.08-.745-.68-1.654-1.366-2.813-2.113-2.316-1.495-5.635-3.237-10.664-5.684a139.649 139.649 0 0 0-11.095-4.838 123.345 123.345 0 0 0-11.18-3.695 131.461 131.461 0 0 0-11.727-2.678c-4.05-.737-8.27-1.328-12.734-1.79-3.067-.319-6.766-.577-10.973-.778a467.88 467.88 0 0 0-14.017-.432c-7.644-.132-16.148-.14-25.09-.033z" style="isolation:auto;mix-blend-mode:normal" color="#000" overflow="visible" fill="#fff"/><path d="M377.616.026c-9.441-.098-19.89.076-32.156.54-12.267.463-26.35 1.218-43.063 2.283a774.864 774.864 0 0 0-37.166 3.254 699.183 699.183 0 0 0-35.658 4.92 621.35 621.35 0 0 0-33.983 6.556 563.056 563.056 0 0 0-16.308 3.883 524.855 524.855 0 0 0-15.828 4.283c-7.457 2.145-19.833 5.538-27.504 7.541-7.156 1.868-13.782 3.82-19.932 5.877-6.15 2.057-11.823 4.221-17.076 6.516-5.253 2.294-10.085 4.717-14.553 7.297-4.467 2.579-8.57 5.314-12.361 8.226-1.402 1.077-2.926 2.624-4.533 4.563-1.607 1.938-3.297 4.27-5.033 6.916-1.737 2.646-3.52 5.608-5.311 8.808-1.79 3.2-3.587 6.638-5.355 10.239a273.614 273.614 0 0 0-9.951 22.922 242.172 242.172 0 0 0-4.14 11.761 184.806 184.806 0 0 0-3.28 11.344c-1.182 4.675-4.616 15.799-7.63 24.719-1.966 5.821-3.54 11.059-4.884 16.347-1.344 5.289-2.457 10.628-3.5 16.653-1.598 9.23-3.789 20.606-4.867 25.28a143.921 143.921 0 0 0-1.631 8.097 193.01 193.01 0 0 0-1.367 9.478c-.864 7.103-1.67 16.097-2.655 28.926-.867 11.289-1.33 19.746-1.406 26.652-.038 3.453.021 6.52.176 9.358.154 2.838.404 5.447.748 7.99.324 2.395.701 7.765 1.084 14.836.382 7.07.77 15.842 1.115 25.04.691 18.398 1.213 38.502 1.182 50.124-.034 12.69-.567 34.403-1.235 54.287-.668 19.884-1.472 37.94-2.045 43.314-.252 2.366-.557 9.116-.845 18.088-.289 8.972-.56 20.165-.746 31.412-.27 16.31-.566 27.825-1.05 37.805-.482 9.98-1.15 18.425-2.163 28.594C1.619 625.67.979 633.394.596 642.4c-.382 9.008-.506 19.3-.564 35.354-.064 17.734-.06 27.408.287 35.248.174 3.92.434 7.381.814 11.164.38 3.783.88 7.886 1.536 13.088 1.524 12.1 3.415 27.175 4.205 33.5.394 3.162.76 7.557 1.029 12.088.27 4.531.442 9.2.455 12.912.02 5.644.128 11.06.328 16.267.2 5.208.49 10.207.877 15.014.386 4.807.867 9.424 1.447 13.867.58 4.444 1.259 8.714 2.04 12.83a186.75 186.75 0 0 0 2.65 11.907 160.597 160.597 0 0 0 3.283 11.088 144.804 144.804 0 0 0 3.938 10.382 137.72 137.72 0 0 0 4.61 9.787 65.067 65.067 0 0 0 5.78 9.159 66.956 66.956 0 0 0 7.266 8.144 72.91 72.91 0 0 0 8.709 7.09 83.129 83.129 0 0 0 10.111 5.994c2.552 1.284 8.402 3.453 15.922 6.01 7.52 2.556 16.709 5.5 25.936 8.33 9.226 2.83 18.49 5.544 26.162 7.646 7.672 2.102 13.752 3.59 16.609 3.965 12.458 1.634 22.857 3.138 31.926 4.627 9.069 1.49 16.808 2.967 23.945 4.551 6.05 1.343 21.35 4.264 34 6.49 12.65 2.227 26.15 4.646 30 5.377 1.33.253 3.618.459 6.664.62 3.046.16 6.851.275 11.22.349 8.74.148 19.733.13 31.41-.035 11.676-.165 24.036-.473 35.51-.906 11.475-.433 22.063-.99 30.196-1.647 14.034-1.134 24.169-2.125 32.164-3.215 3.998-.545 7.46-1.114 10.61-1.738 3.149-.624 5.984-1.302 8.726-2.064 5.121-1.425 9.447-2.721 13.389-4.086 3.942-1.366 7.501-2.8 11.09-4.497 3.588-1.696 7.205-3.656 11.265-6.074 4.06-2.417 8.563-5.293 13.92-8.822 5.132-3.38 9.645-6.37 13.621-9.088 3.976-2.717 7.415-5.162 10.399-7.451 2.984-2.29 5.511-4.423 7.668-6.52 2.156-2.096 3.94-4.155 5.433-6.295a34.831 34.831 0 0 0 3.69-6.775c.993-2.417 1.778-5.034 2.437-7.965.66-2.93 1.191-6.177 1.68-9.857.488-3.68.933-7.794 1.416-12.46.654-6.324 1.214-13.87 1.66-21.763.446-7.893.777-16.132.97-23.842.194-7.709.25-14.89.147-20.664-.102-5.774-.363-10.142-.806-12.23-.7-3.3-1.24-7.125-1.2-8.5.04-1.375.472-17.371.961-35.547.49-18.176 1.182-33.52 1.54-34.098.35-.566 1.166-12.793 2.076-29.748.91-16.954 1.913-38.635 2.638-58.107.301-8.084.685-14.94 1.158-20.66.474-5.72 1.038-10.304 1.7-13.84 1.08-5.775 2.484-16.35 3.119-23.5.66-7.43 1.195-12.823 1.918-18.725.723-5.901 1.634-12.31 3.045-21.775 1.107-7.425 2.484-18.9 3.06-25.5.862-9.864 1.622-17.45 2.453-24.153a329.214 329.214 0 0 1 2.88-18.847c.509-2.811.9-5.147 1.197-7.738.297-2.592.5-5.439.638-9.274.275-7.67.283-19.29.237-40.713-.028-12.574-.18-26.399-.403-38.543-.223-12.143-.517-22.606-.828-28.457-.622-11.7-1.576-38.825-2.12-60.275-.4-15.823-.743-26.091-1.189-33.52-.223-3.714-.47-6.72-.765-9.353a101.317 101.317 0 0 0-1.047-7.127c-.554-3.025-1.169-7.463-1.715-12.176-.546-4.712-1.023-9.7-1.297-13.824a1504.227 1504.227 0 0 0-2.447-31.963c-1.006-11.58-2.293-25.137-4.137-43.828-.41-4.153-.87-7.761-1.45-11.043-.582-3.282-1.283-6.238-2.173-9.088-.89-2.85-1.966-5.595-3.3-8.451-1.335-2.857-2.927-5.825-4.844-9.127-2.395-4.125-7.614-13.125-11.598-20-1.992-3.438-4.614-7.688-7.234-11.766s-5.238-7.984-7.221-10.734c-3.966-5.5-8.216-11.643-9.443-13.653a27.008 27.008 0 0 0-3.27-4.32c-1.271-1.372-2.747-2.693-4.498-4.017-1.751-1.325-3.778-2.652-6.15-4.036-2.373-1.383-5.09-2.822-8.225-4.37-5.834-2.884-10.971-5.211-16.014-7.114a109.185 109.185 0 0 0-7.566-2.55 108.765 108.765 0 0 0-7.875-2.012 136.755 136.755 0 0 0-8.633-1.57 209.1 209.1 0 0 0-9.844-1.225c-7.065-.724-15.237-1.285-25.117-1.81-5.638-.301-11.483-.486-17.777-.552zm-13.799 18.43c8.942-.107 17.446-.099 25.09.033 5.096.088 9.81.231 14.017.432 4.207.2 7.906.46 10.973.777 4.464.463 8.683 1.054 12.734 1.791 4.052.738 7.935 1.623 11.727 2.678a123.345 123.345 0 0 1 11.18 3.695c3.687 1.415 7.36 3.02 11.095 4.838 5.029 2.447 8.348 4.19 10.664 5.684 1.159.747 2.068 1.433 2.813 2.113.745.68 1.327 1.354 1.836 2.08 1.417 2.024 5.008 7.053 7.978 11.178 1.744 2.42 4.35 6.397 7.346 11.144a863.684 863.684 0 0 1 9.688 15.768 817.954 817.954 0 0 1 9.2 15.676c2.671 4.686 4.788 8.572 5.88 10.87a59.436 59.436 0 0 1 2.703 6.653c.769 2.29 1.416 4.706 1.976 7.41.56 2.705 1.034 5.699 1.454 9.141.419 3.442.784 7.334 1.128 11.838.59 7.7 1.76 20.975 2.602 29.5.842 8.525 1.96 22.7 2.484 31.5.263 4.4.734 9.75 1.282 14.824.548 5.075 1.173 9.876 1.742 13.176.562 3.262 1.045 6.906 1.478 11.574.433 4.668.816 10.359 1.184 17.713.735 14.709 1.403 36.072 2.26 69.213.561 21.725 1.526 51.65 2.146 66.5.307 7.35.493 13.804.541 19.703.048 5.899-.042 11.242-.285 16.371a231.773 231.773 0 0 1-1.205 15.086c-.566 5.04-1.302 10.207-2.225 15.84-1.08 6.6-2.827 21.233-3.88 32.52-1.054 11.285-2.628 25.235-3.499 31a854.923 854.923 0 0 0-3.117 22.837c-.952 7.73-1.789 15.344-2.424 22.143-.59 6.325-1.973 16.45-3.072 22.5-.728 4.01-1.29 8.69-1.754 14.965-.464 6.275-.831 14.146-1.168 24.535-.518 15.978-1.188 31.609-1.914 45.117-.726 13.508-1.507 24.893-2.25 32.383-.545 5.5-1.372 23.95-1.836 41-.279 10.245-.628 18.801-1.043 25.58-.414 6.779-.893 11.78-1.433 14.92-.899 5.225-1.89 12.501-2.203 16.168-.262 3.062-.354 4.777-.102 6.008.126.615.338 1.11.658 1.59s.75.944 1.309 1.503c1.34 1.34 2.97 2.616 3.623 2.834.219.074.353.955.414 2.475.06 1.52.048 3.677-.025 6.3-.146 5.248-.534 12.361-1.07 19.968a770.984 770.984 0 0 1-1.956 22.93c-.733 7.223-1.516 13.57-2.254 17.67-.477 2.652-1.09 4.97-1.943 7.095a24.515 24.515 0 0 1-3.39 5.926c-1.444 1.872-3.237 3.688-5.483 5.586-2.247 1.898-4.948 3.877-8.211 6.078-8.762 5.908-15.68 10.53-21.395 14.218-5.715 3.69-10.228 6.445-14.181 8.622-3.953 2.176-7.345 3.772-10.819 5.142-3.473 1.37-7.029 2.514-11.306 3.785a192.48 192.48 0 0 1-9.758 2.645 147.623 147.623 0 0 1-9.39 1.95 171.639 171.639 0 0 1-9.987 1.417c-3.535.404-7.33.748-11.547 1.059-7.7.568-18.05 1.464-23 1.994-2.475.264-8.78.56-16.943.824-8.164.263-18.185.493-28.096.627-19.821.268-36.696.66-37.5.871-.54.142-1.245.208-2.227.188-.981-.021-2.238-.129-3.88-.34-3.286-.423-8.112-1.257-15.354-2.612-7.15-1.337-18.85-3.375-26-4.527-7.15-1.151-18.85-3.392-26-4.979a526.598 526.598 0 0 0-24.303-4.78c-8.482-1.47-17.446-2.835-27.199-4.145-3.781-.508-8.038-1.264-12.783-2.274-4.745-1.009-9.978-2.272-15.711-3.789-5.734-1.517-11.968-3.289-18.715-5.32a941.588 941.588 0 0 1-21.789-6.875 275.76 275.76 0 0 1-10.031-3.48c-3.06-1.137-5.85-2.26-8.406-3.393-2.557-1.134-4.88-2.279-7.004-3.463a56.707 56.707 0 0 1-5.82-3.695 44.303 44.303 0 0 1-4.858-4.086 43.103 43.103 0 0 1-4.115-4.639 52.96 52.96 0 0 1-3.59-5.352 80.462 80.462 0 0 1-3.29-6.224 182.189 182.189 0 0 1-3.98-8.881 131.377 131.377 0 0 1-3.256-8.684 121.23 121.23 0 0 1-2.617-8.978 140.141 140.141 0 0 1-2.066-9.762 195.554 195.554 0 0 1-1.602-11.037 314.5 314.5 0 0 1-1.224-12.8c-.709-9.232-1.222-19.966-1.657-32.858-.352-10.45-1.051-22.375-1.552-26.5-2.371-19.525-3.905-32.819-4.94-43.303-1.034-10.484-1.568-18.159-1.941-26.445-.477-10.587-.686-20.037-.467-21 .22-.963.887-11.652 1.482-23.752.596-12.1 1.495-25.375 1.999-29.5.503-4.125 1.344-21 1.869-37.5 1.1-34.56 1.857-56.902 2.455-71.434.597-14.531 1.034-21.252 1.492-24.566.266-1.925.578-9.132.865-19.192.287-10.059.55-22.97.719-36.308.156-12.266.213-24.318.176-35.938a1883.58 1883.58 0 0 0-.39-33.345 1297.026 1297.026 0 0 0-.93-29.446c-.397-9.02-.878-17.172-1.44-24.238-.53-6.662-.778-11.327-.707-16.807.07-5.479.46-11.772 1.205-21.693 1.009-13.43 1.713-21.719 2.576-28.51.432-3.395.902-6.417 1.47-9.52.57-3.101 1.236-6.284 2.057-10.003 1.337-6.05 3.396-16.85 4.577-24 .711-4.31 1.706-8.907 2.974-13.754 1.268-4.847 2.81-9.942 4.614-15.246 2.992-8.8 6.493-20.275 7.777-25.5a181.243 181.243 0 0 1 2.596-9.479 171.378 171.378 0 0 1 3.117-9.289 196.618 196.618 0 0 1 3.795-9.529 268.649 268.649 0 0 1 4.633-10.203c3.127-6.547 6.21-12.405 9.01-17.17 1.399-2.383 2.726-4.492 3.954-6.277 1.228-1.786 2.357-3.248 3.354-4.334.863-.941 1.966-1.933 3.277-2.957 1.311-1.025 2.83-2.084 4.524-3.16 3.386-2.154 7.471-4.38 11.996-6.555 4.524-2.175 9.488-4.296 14.629-6.24a187.3 187.3 0 0 1 15.691-5.176c26.094-7.297 40.415-11.268 51.74-14.131a498.69 498.69 0 0 1 15.836-3.74c5.261-1.155 10.87-2.312 17.924-3.745 12.33-2.504 21.827-4.242 31.62-5.667 9.791-1.426 19.877-2.54 33.38-3.797 7.775-.724 16.377-1.358 25.385-1.893 9.007-.535 18.42-.97 27.816-1.299 9.397-.329 18.777-.551 27.719-.658z" style="isolation:auto;mix-blend-mode:normal" color="#000" overflow="visible"/><path d="M425.285 80.238c-1.984-.005-3.906.016-5.767.065-26.067.678-40.62 6.803-56.998 22.777-19.93 19.438-29.08 33.704-35.6 55.5-6.889 23.028-2.794 58.889 9.305 81.5 7.45 13.924 23.95 33.688 34.88 41.777 6.013 4.45 7.574 6.223 5.475 6.223-1.09 0-11.45 8.342-15.04 12.111-7.757 8.14-10.426 11.405-14.565 17.803-8.417 13.011-16.258 32.3-19.075 46.924-1.687 8.762-1.822 26.739-.326 43.49.875 9.795 1.976 14.907 5.633 26.172 7.206 22.195 12.655 32.34 24.564 45.74 3.315 3.73 5.845 6.94 5.622 7.131-.223.192-4.532 2.465-9.577 5.05-11.838 6.069-19.992 13.607-28.744 26.575-7.477 11.08-10.052 16.66-14.02 30.367-2.299 7.946-2.564 10.6-2.564 25.662 0 23.55 3.1 37.522 12.914 58.178 3.866 8.136 14.627 23.32 20.41 28.797 2.817 2.667 3.478 4.992 1.426 5.016-2.536.029-21.469 9.888-28.263 14.718-7.886 5.607-19.776 17.366-25.03 24.756-4.795 6.745-9.964 17.928-11.584 25.063-.88 3.88-1.353 12.725-1.361 25.447-.013 20.783.787 26.12 7.201 48 9.107 31.063 29.793 56.148 54.018 65.508 4.822 1.863 7.44 3.458 7.863 4.789 1.1 3.464 8.628 10.782 13.865 13.477 6.465 3.326 18.368 4.024 38.041 2.232 22.936-2.09 36.694-7.111 50.75-18.523 3.713-3.015 6.75-5.097 6.75-4.627 0 1.877 21.026 22.29 28.971 28.125 13.084 9.609 28.977 16.83 41.785 18.986 8.043 1.354 31.199 1.088 40.69-.467 10.63-1.742 20.228-4.79 24.765-7.865 1.809-1.225 8.014-4.626 13.79-7.557 12.777-6.485 22-12.489 28.038-18.248a487.64 487.64 0 0 1 9.713-8.95c6.797-6.068 26.153-31.877 29.16-38.88 4.08-9.5 5.54-21.504 4.381-36.057-.927-11.654-1.303-13.227-4.773-20.044-7.023-13.797-19.365-26.29-32.508-32.903-5.378-2.706-12.478-5.612-20.926-8.564-.827-.29 3.01-3.21 9.256-7.043 5.869-3.602 13.155-8.82 16.191-11.594 16.576-15.15 31.564-43.838 37.051-70.92 1.375-6.782 1.578-11.772 1.11-27.336-.978-32.5-4.035-44.463-17.639-69.039-9.789-17.683-20.929-28.879-36.582-36.762-8.42-4.24-16.412-6.718-21.904-6.793-3.766-.05-3.547-.192 2.931-1.902 22.58-5.96 43.391-17.767 60.211-34.162 16.408-15.993 23.684-28.216 26.397-44.34 2.35-13.965-.719-35.891-6.674-47.695-3.349-6.638-13.936-22.207-20.975-30.846-11.846-14.539-38.667-38.296-50.273-44.531l-5.315-2.856 5.659-3.056c13.61-7.352 38.991-29.402 50.572-43.936 8.379-10.516 18.512-28.915 21.271-38.62 2.514-8.842 3.818-25.601 2.639-33.911-1.996-14.075-5.04-25.504-8.945-33.57-3.73-7.707-17.65-26.338-23.207-31.065-9.413-8.005-25.708-14.873-46.307-19.517-11.973-2.7-14.586-2.938-32.41-2.938-38.08 0-58.46 5.726-74.184 20.838l-7.13 6.852-2.561-4.094c-7.391-11.82-19.42-23.09-30.797-28.856-11.671-5.914-16.77-6.99-35.525-7.488a257.938 257.938 0 0 0-6.149-.094zm10.961 20.05c1.67.012 3.064.057 4.094.142 14.963 1.232 33.36 7.198 41.777 13.547 8.036 6.061 14.099 18.548 15.95 32.853.432 3.344 1.16 5.25 2.001 5.25.728 0 2.907-2.836 4.846-6.303 4.22-7.545 16.561-19.814 25.084-24.937 13.277-7.98 30.082-11.34 52.49-10.494 10.992.415 13.888.923 24 4.22 14.458 4.714 22.064 8.137 30.137 13.563 17.657 11.867 24.875 20.09 30.83 35.127 4.071 10.279 7.415 32.366 6.484 42.824-1.337 15.024-5.728 29.06-12.095 38.652-8.165 12.302-24.64 27.468-36.127 33.258-6.367 3.21-27.655 10.887-36.397 13.127-11.024 2.825-12.957 2.556-15.379-2.127-1.4-2.707-1.911-2.91-7.32-2.91-7.508 0-19.77-3.149-28.658-7.36-8.182-3.875-17.645-12.216-24.06-21.206-5.907-8.277-13.99-25.395-16.31-34.541-1.264-4.987-2.4-7.497-3.49-7.715-.888-.178-1.615.222-1.615.888 0 .667-2.462 6.292-5.47 12.502-5.899 12.177-17.008 26.73-24.198 31.694-5.37 3.708-12.01 6.453-17.582 7.27-3.817.559-4.75 1.082-4.75 2.66 0 1.08-1.345 3.307-2.988 4.95l-2.988 2.987-17.262-.334c-15.267-.296-17.935-.604-23.08-2.662-11.784-4.714-33.79-23.925-40.547-35.397-5.187-8.806-10.724-23.202-13.164-34.236-2.745-12.408-3.85-39.314-2.006-48.807 5.45-28.055 25.743-48.554 53.035-53.574 6.748-1.24 26.22-2.56 39.01-2.855 2.132-.05 4.078-.07 5.748-.057zm55.102 168.698l1.771 3.797c5.715 12.26 17.844 29.495 25.229 35.852l2.386 2.054-2.808 1.84c-2.767 1.813-7.593 5.892-12.186 10.301-1.289 1.238-2.661 2.24-3.049 2.229-.387-.013-4.116-3.505-8.287-7.762-4.17-4.257-11.948-11.037-17.283-15.065l-9.7-7.322 4.058-2.937c5.89-4.267 11.79-10.568 16.097-17.19l3.772-5.797zm-78.592 35.194c1.894.006 3.875.04 5.959.101l14.273.426 14 5.305c7.7 2.917 16.538 6.582 19.639 8.144 7.817 3.938 20.324 14.231 25.691 21.143 2.47 3.18 4.981 5.765 5.58 5.746.6-.02 3.115-3.042 5.59-6.717 2.475-3.675 7.633-9.307 11.463-12.516 12.834-10.75 23.667-14.285 47.037-15.353 18.377-.84 33.604 2.263 52 10.598 7.15 3.24 16.82 7.525 21.49 9.523 9.606 4.109 12.103 5.823 23.926 16.441 7.444 6.685 8.913 8.6 12.694 16.56 5.35 11.264 6.525 16.42 6.609 29 .18 26.872-14.853 54.813-39.51 73.429-8.83 6.666-22.579 11.936-31.4 12.035-3.777.042-4.816 1.375-4.443 5.701.301 3.5-2.597 7.334-5.542 7.334-.92 0-4.995 1.146-9.054 2.547-5.049 1.743-11.234 2.862-19.576 3.541-25.65 2.089-32.807 2.103-37.825.072-7.95-3.218-15.756-8.16-21.949-13.894-6.653-6.16-15.735-19.142-18.724-26.766-1.13-2.88-2.593-5-3.45-5-.818 0-3.172 2.025-5.23 4.5-7.722 9.284-22.602 20.392-32.057 23.93-7.648 2.862-18.673 3.811-21.672 1.867-3.409-2.21-10.153-2.959-15.002-1.664-3.776 1.008-5.357.824-13.285-1.553-14.313-4.291-26.592-10.816-33.894-18.012-8.196-8.075-19.836-24.981-22.998-33.4-6.93-18.452-8.337-32.27-5.54-54.416 2.685-21.247 4.199-27.571 8.954-37.406 6.208-12.841 15.77-20.36 33.527-26.362 8.947-3.024 16.853-4.482 27.28-4.812 1.737-.055 3.545-.078 5.439-.072zm75.285 172.072l6.334 8.49c9.42 12.627 24.992 24.01 36.95 27.012 2.075.521 1.422 1.06-4.78 3.933-3.953 1.831-10.952 6.27-15.553 9.862-4.6 3.593-8.51 6.517-8.685 6.5-.176-.018-3.019-4.588-6.319-10.154-6.686-11.279-14.12-19.494-22.77-25.165-3.172-2.08-5.506-4.204-5.187-4.72.32-.517 3.321-2.8 6.672-5.076 3.351-2.276 7.723-5.61 9.715-7.41l3.623-3.272zm-79.797 15.912c11.673.065 22.145 1.958 30.9 5.637 9.537 4.007 24.085 14.155 31.006 21.627 9.687 10.458 18.8 26.412 22.362 39.152 1.802 6.447 3.938 8.063 5.668 4.29.577-1.26 3.973-5.89 7.547-10.29 20.204-24.88 39.304-34.355 69.476-34.469 10.22-.038 28.34 2.432 36.572 4.985 14.222 4.41 33.413 20.472 41.29 34.556 4.819 8.618 12.922 30.161 14.9 39.616.841 4.022 1.816 13.612 2.168 21.312.816 17.875-.842 27.041-7.317 40.443-3.756 7.775-5.922 10.778-12.263 17-8.564 8.403-19.838 15.618-32.315 20.678-9.52 3.861-11.966 4.081-16.765 1.516-2.052-1.097-6.775-2.14-11.485-2.537-15.087-1.272-31.005-3.825-38.5-6.178-9.132-2.867-19.555-9.557-31.263-20.07-16.504-14.819-21.325-23.57-28.713-52.102-.606-2.337-1.646-4.241-2.313-4.232-.666.009-3.46 3.233-6.21 7.166-12.536 17.925-29.5 30.049-52 37.162-4.95 1.565-11.22 3.815-13.932 5-4.144 1.81-6.778 2.147-16.5 2.107-24.254-.098-38.37-8.66-52.8-32.021-9.404-15.228-11.442-21.134-14.82-42.932-1.322-8.538-1.58-14.693-1.146-27.5.634-18.71 1.684-23.54 7.818-36 5.217-10.595 14.162-19.823 24.38-25.152 8.464-4.415 12.036-5.465 25-7.354 4.871-.71 9.608-1.151 14.18-1.326 1.716-.065 3.408-.093 5.075-.084zm83.652 160.211l5.168 8.746c9.12 15.432 16.944 24.499 28.995 33.596l7.072 5.338-.443 8.443c-.246 4.684.033 9.812.626 11.514.806 2.312.774 3.073-.128 3.086-5.298.076-21.245 2.306-25.698 3.591-3.025.874-10.112 3.763-15.75 6.42l-10.25 4.832v-2.757c0-3.879-5.582-20.273-9.74-28.604-4.71-9.438-11.263-18.493-16.824-23.246l-4.59-3.922 4.826-1.795c10.946-4.069 20.746-10.357 30.97-19.875l5.766-5.367zM376.05 691.197c2.451.023 5.14.073 8.111.143 17.52.41 22.02.837 28.328 2.681 29.619 8.66 39.818 15.627 51.414 35.122 10.431 17.535 14.641 32.942 14.944 54.683.169 12.147 1.244 13 6.54 5.194 9.303-13.712 30.402-26.995 49.602-31.229 11.16-2.46 31.485-4.025 44.756-3.443 14.066.616 18.55 1.92 39.244 11.404 16.549 7.584 20.512 10.137 25.471 16.41 11.65 14.74 11.433 42.786-.533 68.742-4.442 9.635-9.393 16.238-15.58 20.78-5.566 4.085-19.962 10.345-38.358 16.675-10.667 3.671-13.11 4.146-22 4.284-5.5.085-14.725.654-20.5 1.263-11.594 1.223-14.876 1.251-23.023.2-18.57-2.398-31.714-13.388-42.488-35.526-5.533-11.368-6.928-16.514-8.061-29.75-.76-8.888-2.071-9.83-4.719-3.39-6.406 15.58-24.405 36.311-37.209 42.855-10.153 5.19-25.14 9.659-36.248 10.81-14.394 1.493-19.258-.856-17.804-8.601.697-3.719 1.497-3.255-9.303-5.389-5.356-1.058-16.83-6.292-22.588-10.303-6.105-4.252-20.404-16.767-25.065-21.937-10.442-11.585-18.97-25.58-21.847-35.846-2.265-8.083-4.009-27.024-3.342-36.302.785-10.926 3.568-19.378 9.912-30.088 9.292-15.686 20.35-25.516 38.27-34.02 8.044-3.817 13.257-5.192 25.388-5.406a248.3 248.3 0 0 1 6.688-.016z" fill="url(#a)" transform="translate(-222.091 -12.325)"/><path d="M547.682 833.08c-.554.02-.792.35-1.01 1-.277.825-3.275 4.425-6.662 8-7.5 7.915-10.522 11.832-10.522 13.635 0 .75.462 1.365 1.028 1.365 2.23 0 12.875-6.071 18.082-10.312 3.024-2.464 6.872-5.315 8.548-6.334 4.176-2.54 4.239-3.738.237-4.495-1.868-.353-4.928-1.253-6.801-2-1.477-.588-2.347-.879-2.9-.859zM529.988 816.104c-20.133 0-19.374 5.266 1 6.937 4.95.406 10.013.806 11.25.889 1.918.128 2.25-.347 2.25-3.22 0-3.115-.281-3.414-3.75-3.987-2.062-.341-6.9-.62-10.75-.62zM370.521 799.266c-1.019.224-3.155.975-7.224 2.431-8.063 2.886-9.809 3.955-9.809 6.006 0 1.789.62 1.745 7.18-.512 7.291-2.508 12.62-5.33 11.062-5.857-.69-.233-1-.835-.689-1.338.402-.65.5-.954-.52-.73zM584.072 788.145c-1.082-.04-2.561.063-4.51.226-7.325.614-13.074 2.863-13.074 5.113 0 .744-.675 1.911-1.5 2.596-.851.707-1.5 2.887-1.5 5.043 0 3.414.306 3.866 3.024 4.463 3.938.865 8.389 4.664 9.988 8.525 1.66 4.006-.218 7.86-4.217 8.66-2.47.495-2.795 1-2.795 4.35 0 2.902-.693 4.443-2.955 6.578-2.22 2.095-2.686 3.11-1.877 4.084.592.713 1.603 1.297 2.246 1.297s3.175 2.063 5.627 4.582c2.452 2.52 6.034 5.424 7.96 6.455 3.448 1.848 10.326 2.542 13.417 1.356 3.968-1.523-.623-8.595-8.16-12.575-3.894-2.055-5.183-6.083-3.121-9.748 1.371-2.437 1.88-2.571 9.904-2.607 6.766-.03 9.31-.486 12.71-2.272 10.104-5.307.669-12.19-16.71-12.19-5.052 0-8.296-.492-9.687-1.466-1.15-.805-2.345-1.21-2.654-.9-.546.546-.472-.04.753-5.865.353-1.678 1.725-3.329 3.557-4.276 1.701-.88 3.629-3.086 4.486-5.138 2.002-4.79 2.334-6.175-.912-6.291zM359.533 773.28c-7.048-.423-6.6 1.605 1.205 5.462 7.018 3.468 8.857 2.783 5.748-2.142-1.65-2.615-2.582-3.059-6.953-3.32zm33.545 3.74c-1.566-.243-3.425.257-5.361 1.613-5.116 3.583-5.208 8.562-.192 10.31 1.769.617 3.4 2.158 4.057 3.834a180.568 180.568 0 0 0 2.426 5.803c.729 1.65 1.61 7.5 1.957 13 .687 10.875 1.884 16.75 4.127 20.25 1.145 1.788 2.369 2.25 5.951 2.25 2.48 0 6.07-.652 7.977-1.45 3.396-1.418 3.466-1.568 3.447-7.25-.011-3.19-.44-8.725-.955-12.3-.838-5.816-1.357-6.868-4.932-10-2.453-2.149-4.327-4.851-4.853-7-.61-2.487-1.485-3.591-3.028-3.816-2.96-.433-6.21-4.82-6.21-8.383 0-3.993-1.8-6.458-4.41-6.861zM411.143 770.08c-2.532 0-2.805.278-2.205 2.25.376 1.238 1.203 5.288 1.837 9 1.133 6.625 1.211 6.75 4.239 6.75 1.72 0 4.585 1.106 6.474 2.5 2.88 2.125 4.476 2.5 10.63 2.5 8.127 0 12.37-1.198 12.37-3.496 0-2.28-7.717-10.254-12.82-13.244-4.892-2.867-16.017-6.26-20.525-6.26z" fill="url(#a)" transform="translate(-222.091 -12.325)"/><path d="M580.54 768.186c-3.488-.078-7.63.011-12.993.162-21.03.59-31.465 2.293-42.283 6.896-19.171 8.157-32.33 21.343-36.225 36.297-3.47 13.326-1.545 27.877 5.607 42.377 7.41 15.022 16.043 23.206 27.577 26.146 5.424 1.383 29.621.36 36.765-1.556 8.56-2.295 13.154-2.796 13.942-1.522 1.194 1.933 5.025 1.194 18.18-3.511 27.509-9.841 33.726-14.03 39.892-26.871 7.464-15.546 10.242-34.36 6.943-47.024-2.763-10.61-6.37-13.563-28.457-23.29-13.925-6.135-18.488-7.873-28.949-8.104zm5.06 6.148c11.923.588 16.525 7.657 13.527 20.906l-.828 3.66 5.5 1.141c7.176 1.49 14.082 6.15 17.332 11.695 5.153 8.794 1.377 18.885-9.082 24.268-5.127 2.638-5.036 2.232-2.531 11.137 1.575 5.603.737 9.325-2.924 12.986-3.525 3.525-9.663 5.278-18.606 5.312-8.224.032-14.141-2.232-20.244-7.746-2.2-1.987-4.618-3.608-5.377-3.603-.758.005-3.388 1.606-5.842 3.556-6.933 5.512-14.95 10.061-21.755 12.346-7.201 2.418-8.67 2.495-12.868.668-9.684-4.216-9.92-16.325-.545-27.967 1.722-2.138 3.131-4.46 3.131-5.162 0-.704-1.763-1.573-3.941-1.941-5.367-.907-16.834-6.62-20.854-10.389-1.812-1.699-3.955-4.672-4.763-6.605-1.279-3.06-1.285-3.96-.041-6.936.786-1.88 2.385-3.93 3.552-4.555 2.923-1.563 14.795-3.68 25.297-4.511 9.65-.764 9.845-.958 7.25-7.168-2.882-6.9-1.643-12.185 3.479-14.834 4.223-2.184 8.988-1.863 14.601.984 2.706 1.373 5.31 2.498 5.787 2.5.478.002 2.384-1.327 4.237-2.953 4.05-3.556 10.922-5.736 20.951-6.644 2.001-.182 3.853-.229 5.557-.145zM372.928 736.58c-1.685 0-1.98.835-2.24 6.324-.317 6.677 1.55 14.807 4.912 21.397 1.06 2.079 2.131 3.78 2.38 3.78 1.443 0 9.508-4.56 9.508-5.376 0-.538-1.354-2.136-3.01-3.55-2.278-1.949-3.252-3.91-4.01-8.075-1.345-7.403-5.036-14.5-7.54-14.5zm37.756 5.5c-4.473 0-15.196 9.134-15.196 12.943 0 .921-.661 2.548-1.468 3.616-2.238 2.958-1.833 4.44 1.218 4.457 1.513.008 3.425.45 4.25.984.825.533 2.513.976 3.75.984 1.73.012 2.25-.554 2.25-2.449 0-1.356 1.575-5.332 3.5-8.834 3.917-7.126 4.58-11.7 1.696-11.7z" fill="url(#a)" transform="translate(-222.091 -12.325)"/><path d="M376.879 704.074c-4.431.108-8.895.444-13.39 1.006-9.968 1.246-25.728 9.002-34.167 16.815-7.035 6.513-15.139 19.23-17.867 28.04-3.857 12.456-1.886 39.337 3.766 51.366 7.764 16.523 29.259 38.195 46.531 46.914 3.178 1.604 9.48 3.61 14.006 4.457 17.502 3.277 19.041 4.053 21.117 10.658.313.998 1.532 1.748 2.832 1.744 3.979-.01 24.325-7.492 29.627-10.894 18.735-12.022 36.158-44.883 36.107-68.1-.02-9.536-2.302-26.194-4.365-31.875-3.082-8.488-11.934-24.112-16.676-29.432-5.912-6.633-14.757-11.447-28.57-15.546-12.663-3.758-25.658-5.477-38.951-5.153zm-6.127 15.362c5.675.369 12.871 5.787 17.324 13.386 1.373 2.343 2.814 4.25 3.203 4.24.39-.01 2.665-1.344 5.057-2.964 5.178-3.51 14.155-7.019 17.94-7.014 9.624.013 14.866 12.109 10.64 24.555-1.678 4.942-1.368 7.441.924 7.441 3.23 0 17.556 8.235 22.11 12.71 12.337 12.122 13.843 21.806 4.599 29.585-3.727 3.136-8.058 4.606-16.235 5.508-4.666.514-6.32 1.09-6.3 2.197.014.825.41 5.935.877 11.356.574 6.658.493 11.047-.25 13.529-1.421 4.742-6.499 9.62-12.051 11.58-5.498 1.94-16.665 2.787-20.508 1.557-7.54-2.416-13.012-11.835-14.894-25.64-.63-4.61-1.55-8.382-2.045-8.382-.497 0-4.403 1.75-8.678 3.89-8.552 4.281-19.617 6.777-25.315 5.708-7.833-1.47-12.93-9.227-10.634-16.184 1.514-4.588 6.087-9.787 11.066-12.586 2.149-1.207 3.906-2.73 3.906-3.38 0-.652-2.985-2.928-6.633-5.061-10.505-6.144-14.057-13.698-9.29-19.758 2.976-3.784 5.342-4.786 14.392-6.098 7.667-1.111 8.015-1.274 7.709-3.597-.91-6.91-.496-21.814.703-25.27 1.77-5.101 6.526-10.375 10.057-11.15a8.311 8.311 0 0 1 2.326-.158zM570.879 619.428c-.614.296-1.027.951-1.56 2.123-.791 1.734-4.083 4.352-9.16 7.281-4.36 2.515-9.495 6.138-11.411 8.055-3.095 3.095-3.425 3.923-2.957 7.416.29 2.162 1.303 4.791 2.252 5.84 2.056 2.272 4.932 1.815 11.137-1.766 6.927-3.998 20.816-19.908 22.738-26.047.62-1.983.355-2.25-2.238-2.25-1.619 0-4.335-.277-6.035-.617-1.338-.268-2.152-.332-2.766-.035zM597.938 617.08c-.372 0-.5 3.13-.284 6.957.325 5.748.917 7.702 3.403 11.238 3.447 4.905 10.693 10.708 17.877 14.319 2.72 1.367 5.322 2.486 5.78 2.486 5.246 0-4.585-21.768-13.368-29.603-1.961-1.75-11.023-5.397-13.409-5.397zM539.332 601.14c-3.618-.1-7.005.065-8.264.548-3.104 1.19-1.491 3.282 4.17 5.408 3.163 1.187 7.55 2.521 9.75 2.963 2.2.441 6.813.851 10.25.912 5.945.104 6.25-.006 6.25-2.268 0-2.858-1.488-4.187-5.5-4.914-1.65-.299-4.8-1.02-7-1.601-2.187-.58-6.038-.947-9.656-1.047zm54.09 6.94c-1.647 0-2.245 2.922-.924 4.514 1.43 1.723 2.618 1.896 3.477.508.747-1.21-1.19-5.022-2.553-5.022zM582.328 595.256a12.176 12.176 0 0 0-4.89 1.35c-2.975 1.537-3.75 4.23-2.303 8 .524 1.366 1.335 1.543 4.25.923 1.98-.42 5.516-.716 7.853-.654 4.043.107 4.25-.027 4.25-2.768 0-4.354-4.31-7.13-9.16-6.851zm23.664 2.06c-.46.304-.504 1.018-.504 2.385 0 2.385.733 3.254 4.25 5.041 5.44 2.763 15.069 3.22 14.573.692-.39-1.981-10.428-7.253-15.325-8.047-1.66-.27-2.534-.375-2.994-.07zM556.982 566.11c-.305.121-.494.395-.494.845 0 1.58 3.002 9.424 4.125 10.777 3.219 3.879 3.574-4.409.397-9.257-1.134-1.73-3.11-2.732-4.028-2.366zM598.07 560.213c-.708-.038-1.727.193-3.345.678-8.714 2.61-13.93 8.104-14.424 15.19l-.313 4.5 5.5 1.153c10.396 2.18 10.328 2.21 12.803-5.474 2.312-7.18 2.774-12.719 1.26-15.112-.374-.59-.772-.897-1.48-.935z" fill="url(#a)" transform="translate(-222.091 -12.325)"/><path d="M569.236 532.152c-4.33.12-8.24.448-11.314 1.006-9.848 1.789-23.527 8.888-31.08 16.13-7.48 7.17-17.162 19.605-21.149 27.163-2.57 4.874-2.702 5.804-2.623 18.63.074 11.872.47 14.94 3.284 25.442 1.759 6.57 4.64 14.894 6.402 18.5 6.374 13.047 29.184 33.247 42.232 37.4 5.768 1.837 20.098 4.09 36.217 5.696 6.17.615 12.47 1.493 14 1.953 4.91 1.476 6.571 1.095 15.941-3.65 16.927-8.571 27.849-20.042 32.795-34.442 2.911-8.473 3.317-32.506.758-44.9-2.34-11.335-10.687-32.872-15.592-40.23-6.55-9.83-21.932-22.249-30.74-24.82-9.356-2.733-26.137-4.238-39.13-3.878zm31.573 14.635c2.373.17 4.445.736 5.986 1.75 5.56 3.66 8.363 13.443 6.601 23.043-2.44 13.3-2.779 11.86 3.239 13.758 7.724 2.436 21.368 11.135 24.351 15.525 2.761 4.064 3.049 6.35 1.397 11.088-1.128 3.234-7.891 8.13-11.233 8.13-2.44 0-2.04 2.335 1.305 7.61 3.457 5.451 5.717 11.8 6.996 19.66 1.2 7.369-.12 11.985-4.346 15.208-4.95 3.775-10.83 4.122-18.101 1.068-8.368-3.515-18.829-10.902-24.346-17.193-2.57-2.93-4.985-5.333-5.369-5.34-.384-.007-4.659 3.965-9.5 8.828-6.203 6.23-10.694 9.773-15.21 12-15.04 7.413-26.608 1.835-30.116-14.522-1.413-6.59-.111-11.679 4.553-17.789 1.91-2.502 3.472-4.958 3.472-5.459 0-.5-2.362-1.685-5.25-2.63-17.469-5.722-26.574-15.113-22.41-23.118 3.945-7.583 11.872-10.83 26.41-10.812 6.993.008 10.25-.348 10.25-1.123 0-.625-1.075-3.105-2.388-5.512-4.77-8.741-5.527-18.024-1.922-23.525 4.203-6.415 18.192-7.022 23.181-1.006 2.095 2.526 4.911 1.996 9.286-1.748 6.223-5.327 16.043-8.4 23.164-7.89zM410.168 505.674c-4.665-.089-9.675.218-15.207.879-15.078 1.8-20.725 3.512-28.328 8.59-12.706 8.485-18.89 20.04-21.149 39.523-2.09 18.033 1.986 48.506 8.172 61.094 3.88 7.893 5.42 7.43 5.42-1.631 0-5.802.508-7.884 3.205-13.113 1.763-3.42 3.207-6.55 3.207-6.955 0-.406-1.462-1.313-3.25-2.018-7.27-2.866-12.75-8.86-12.75-13.947 0-5.718 6.524-9.673 17.68-10.715 3.51-.328 6.597-.94 6.857-1.361.26-.422-.244-3.844-1.123-7.604-2.007-8.593-1.501-17.401 1.207-21.03 4.556-6.1 14.53-8.345 22.04-4.958l4.062 1.832 5.389-4.108c5.398-4.114 15.618-8.072 20.843-8.072 7.345 0 14.782 4.763 18.08 11.576 3.05 6.3 3.018 16.104-.076 23.295-1.228 2.855-2.058 5.334-1.845 5.51.212.176 3.311 1.85 6.886 3.72s8.863 5.675 11.75 8.456c4.951 4.768 5.25 5.34 5.25 10.027 0 2.864-.655 5.905-1.545 7.176-2.436 3.479-9.752 8.05-15.933 9.953-5.256 1.618-5.626 1.927-5.073 4.266 1.694 7.155 1.76 14.715.155 17.818-4.672 9.034-17.953 7.9-31.334-2.678-2.866-2.265-5.5-4.119-5.852-4.119-.352 0-4.194 3.344-8.539 7.432-4.345 4.087-10.386 8.648-13.424 10.134-4.723 2.311-6.306 2.61-10.93 2.067-3.025-.356-5.66-.225-5.982.297-.317.513 1.91 2.959 4.947 5.433 4.92 4.008 9.113 5.856 18.01 7.938 12.602 2.949 45.052-6.686 62.25-18.483 10.168-6.974 21.767-21.482 25.112-31.41 2.63-7.81 3.57-20.886 2.255-31.408-.903-7.235-1.95-10.286-7.04-20.5-7.254-14.557-13.856-22.288-25.97-30.412-12.543-8.413-23.432-12.228-37.427-12.494zm17.924 30.662c-2.558-.536-5.98.172-10.2 2.137-5.928 2.76-9.365 7.501-10.066 13.886-.806 7.353-1.336 8.764-3.7 9.84-3.207 1.462-2.879 3.67.663 4.447 1.633.36 4.934 2.618 7.334 5.018 3.502 3.502 4.365 5.06 4.365 7.89 0 3.37-2.725 7.526-4.933 7.526-.513 0-1.223.912-1.576 2.027-.472 1.487.21 2.827 2.56 5.022 2.742 2.561 3.124 3.486 2.647 6.426-.683 4.209 1.631 7.51 8.177 11.662 4.677 2.965 8.125 3.7 8.125 1.73 0-4.559-2.745-9.405-7.1-12.533-5.635-4.048-6.9-7.512-4.115-11.26 2.398-3.225 7.967-3.937 11.696-1.494 4.566 2.992 19.52-.072 19.52-4 0-3.283-21.908-13.58-28.895-13.58-4.06 0-8.106-3.493-8.106-7 0-4.14 4.05-7 9.918-7 4.012 0 4.873-.377 6.274-2.75 2.059-3.487 3.208-9.517 2.416-12.674-.755-3.006-2.447-4.784-5.004-5.32zm-40.416 7.941c-2.578.49-2.68 7.824-.223 15.916 2.201 7.247 2.684 7.602 7.885 5.79 3.65-1.273 3.88-2.173 1.232-4.82-1.188-1.19-2.19-4.09-2.632-7.632-.76-6.078-3.29-9.817-6.262-9.254zm-5.893 35.323c-.69.01-1.563.134-2.691.324-4.65.783-4.585 1.921.273 4.812 5.313 3.162 6.415 2.983 5.596-.906-.692-3.282-1.109-4.264-3.178-4.23zm5.363 10.48c-.737 0-1.879 1.791-2.535 3.98-.767 2.562-2.585 5.101-5.101 7.124-6.297 5.06-8.633 12.529-6.047 19.332 1.414 3.72 4.946 3.286 10.685-1.313 13.259-10.623 20.637-23.123 13.65-23.123-2.626 0-9.29-3.76-9.304-5.25-.004-.412-.61-.75-1.348-.75zM559.707 440.58l-5.86 5.57c-10.66 10.134-22.848 15.17-36.609 15.13-4.262-.013-7.75.318-7.75.738 0 1.435 5.654 8.562 9.403 11.85 5.638 4.943 10.625 8.008 16.658 10.241 3.95 1.462 6.807 1.862 10.44 1.461a755.91 755.91 0 0 1 11.75-1.166c6.996-.636 7.79-1.363 5.216-4.765-2.105-2.783-1.811-5.888.783-8.313 2.232-2.086 16.248-5.235 23.332-5.242 5.546-.006 3.445-2.628-4.85-6.053-6.024-2.487-9.29-4.627-13.581-8.9-3.108-3.094-6.39-6.734-7.291-8.088l-1.641-2.463zM579.541 420.51a16.565 16.565 0 0 0-3.951.17c-3.679.588-4.102.948-4.102 3.48 0 5.568 2.225 13.034 4.793 16.086 1.438 1.71 5.773 4.621 9.633 6.47 8.162 3.913 13.113 4.39 14.076 1.354.351-1.105.325-4.523-.058-7.593-.679-5.43-.85-5.68-6.202-9.104-3.238-2.071-5.929-4.65-6.539-6.266-.987-2.614-3.92-4.293-7.65-4.597zM576.69 401.498c-3.644-.144-8.202.759-8.202 1.996 0 .653.563 1.765 1.25 2.47.837.86 2.7 1.091 5.639.7 2.414-.321 5.002-.584 5.75-.584 2.412 0 1.446-3.016-1.3-4.06-.809-.308-1.923-.474-3.138-.522zM400.773 397.08c-1.346 0-10.408 7.438-15.074 12.371-4.175 4.415-5.21 6.184-5.21 8.903 0 1.866.299 3.693.665 4.06 2.3 2.3 9.218-1.316 17.54-9.166 3.736-3.525 6.794-7.003 6.794-7.73 0-1.464-3.896-8.438-4.715-8.438zm25.16 3.303c-.336.224-.445.72-.445 1.566 0 1.156-.428 4.022-.949 6.367-5.211 23.444-2.382 33.667 10.492 37.924 2.726.902 5.407 1.525 5.957 1.387 1.734-.437.753-14.971-1.6-23.711-1.233-4.585-3.291-10.71-4.572-13.613-1.28-2.903-2.328-6.166-2.328-7.25 0-1.085-.562-1.979-1.25-1.987-.687-.008-2.262-.283-3.5-.615-.905-.242-1.468-.292-1.804-.068zM421.203 391.467a4.332 4.332 0 0 0-2.125.002c-3.542.889-3.268 4.705.41 5.715 3.218.882 4.432.577 4.778-1.205.409-2.11-1.063-4.006-3.063-4.512zM436.225 384.016l.63 3.156c.348 1.737.633 4.677.633 6.533 0 2.587.422 3.375 1.805 3.375.993 0 4.68 2.025 8.195 4.5 7.516 5.292 12.787 6.07 15.444 2.277 2.33-3.326 1.96-8.102-.844-10.89-2.72-2.706-14.909-7.442-21.483-8.348l-4.38-.603zM380.738 375.135c-5.817-.075-5.605 2.203.5 5.38 4.942 2.573 7.172 2.96 11.047 1.923 6.026-1.615-2.791-7.191-11.547-7.303zM599.207 366.285c-4.885-.405-10.315 2.392-15.473 8.252-3.516 3.995-5.246 7.965-5.246 12.037 0 .685 1.636 1.511 3.637 1.836 9.126 1.481 15.297 9.959 13.922 19.13-.653 4.35-.579 4.54 1.797 4.54 4.2 0 5.645 1.071 8.17 6.053 1.578 3.114 3.233 4.973 4.705 5.287 7.484 1.595 14.77-2.072 14.77-7.436 0-5.138-9.947-11.71-20.259-13.386-7.489-1.218-8.77-8.541-2.232-12.772 3.706-2.398 7.49-9.091 7.49-13.25 0-1.455-1.379-4.028-3.252-6.072-2.363-2.58-5.098-3.976-8.029-4.219zM404.988 366.08c-1.561 0-1.984 1.183-.834 2.334 1.15 1.15 2.334.728 2.334-.834 0-.825-.675-1.5-1.5-1.5zM441.756 353.08c-11.265 0-19.158 7.758-22.848 22.46-.6 2.39-.41 2.542 3.22 2.556 2.123.008 4.985.64 6.36 1.402 4.44 2.463 6 1.982 6-1.846 0-2.511.704-3.98 2.635-5.5 1.45-1.14 3.245-2.072 3.992-2.072 2.242 0 7.373-7.967 7.373-11.45 0-4.244-1.583-5.55-6.732-5.55z" fill="url(#a)" transform="translate(-222.091 -12.325)"/><path d="M572.531 324.303c-15.039-.886-30.816 1.117-39.468 5.482-10.824 5.46-20.492 16.209-26.487 29.45-2.841 6.275-2.88 6.602-3.326 29.345-.428 21.794-.597 23.454-3.242 31.649l-2.791 8.646 1.892 8.342c2.224 9.797 3.865 10.881 6.94 4.586 1.606-3.288 4.436-5.906 12.785-11.83 17.988-12.764 18.889-14.362 10.902-19.368-7.508-4.705-14.342-11.596-16.886-17.025-2.78-5.93-2.922-8.519-.725-13.148 2.533-5.338 7.664-7.413 20.254-8.194l10.61-.658.566-7c.312-3.85 1.31-8.409 2.215-10.13 6.326-12.031 20.864-10.994 27.746 1.978 1.357 2.559 2.837 4.652 3.289 4.652.452 0 2.832-1.382 5.289-3.072 12.203-8.396 24.335-7.515 34.642 2.517 7.429 7.23 9.199 14.505 5.85 24.022-1.155 3.28-2.098 6.5-2.098 7.154 0 .654 1.938 2.325 4.307 3.713 5.725 3.355 12.131 10.437 13.676 15.117 3.868 11.72-5.634 24.749-19.264 26.412l-5.219.637-.535 8.219c-.464 7.13-.95 8.806-3.67 12.664-1.724 2.445-2.87 4.709-2.549 5.031 2.157 2.156 15.756-2.462 22.909-7.781 7.694-5.722 19.186-17.754 23.529-24.633 1.91-3.025 4.612-8.425 6.006-12 7.25-18.602 7.62-32.607 1.256-47.424-3.408-7.93-4.38-9.209-12.49-16.4-8.326-7.381-9.94-8.313-30.128-17.399-16.46-7.408-23.6-10.075-31.283-11.687-4.558-.956-9.489-1.572-14.502-1.867zM558.84 361.14c-.52.012-1.007.315-1.432.94-1.578 2.316-.335 12.223 1.723 13.728.957.7 2.777 1.271 4.047 1.271 2.771 0 2.85-1.389.496-8.893-1.408-4.488-3.273-7.082-4.834-7.046zm-31.791 25.095c-1.408.215-1.56.7-1.56 1.625 0 2.21 5.986 7.824 14.464 13.563 3.123 2.113 6.543 5.263 7.602 7 5.448 8.935-.817 18.987-19.846 31.84-4.104 2.772-6.994 5.378-6.625 5.974.972 1.574 7.786.189 13.62-2.767 6.831-3.462 13.66-10.055 19.827-19.145 4.447-6.553 4.977-7.843 3.977-9.654l-3.086-5.592c-1.162-2.105-1.933-5.434-1.934-8.355 0-3.55-.605-5.598-2.25-7.616-1.237-1.518-2.748-3.608-3.357-4.644-.952-1.62-2.6-1.932-11.75-2.225-5.013-.16-7.675-.218-9.082-.004zM415.422 317.39c-9.573.263-22.499 1.668-27.899 3.272-15.192 4.513-24.33 11.116-28.968 20.934-3.69 7.809-4.575 11.575-7.108 30.277-2.356 17.404-2.411 21.358-.45 32.598 2.267 13.004 5.068 20.103 12.179 30.879 10.764 16.311 17.669 22.082 33.226 27.76 7.147 2.608 9.46 2.97 18.922 2.97 7.93 0 11.295.389 12.723 1.469 2.742 2.074 11.47 1.891 17.404-.363 11.377-4.323 27.642-19.212 33.996-31.122l3.46-6.484.04-21c.038-19.788.204-21.631 2.889-31.945 3.155-12.123 3.075-14.762-.695-22.998-2.87-6.27-12.826-16.422-20.907-21.319-8.238-4.991-33.157-14.023-40.76-14.773-2.042-.202-4.861-.242-8.052-.154zm-17.18 18.044c4.585.013 9.005 3.727 12.203 10.556 1.312 2.8 3.036 5.09 3.832 5.09.796 0 3.061-1.416 5.034-3.148 9.218-8.094 23.63-11.085 32.119-6.664 10.387 5.408 13.679 15.406 8.674 26.34-1.44 3.142-2.616 6.048-2.616 6.456 0 .408 2.952 2.195 6.56 3.971 13.037 6.418 17.693 18.83 11.556 30.799-3.612 7.042-10.373 11.246-18.084 11.246-4.703 0-4.66-.192-2.547 11.5 2.776 15.367 1.289 23.623-4.953 27.48v.003c-8.814 5.446-27.92-.65-35.713-11.395-3.27-4.508-5.819-12.267-5.819-17.709 0-2.068-.44-4.032-.98-4.365-.54-.334-3.362 1.189-6.27 3.385-6.861 5.18-13.294 8.052-18.1 8.08-12.82.073-20.402-14.173-14.427-27.11 1.364-2.953 4.116-6.944 6.117-8.869 2-1.925 3.638-4.175 3.637-5 0-.825-2.616-2.934-5.813-4.69-7.73-4.245-11.664-9.827-11.664-16.55 0-4.376.398-5.277 3.655-8.262 4.205-3.854 9.129-5.484 16.595-5.492l5.25-.006v-7.766c0-9.233 1.956-13.783 7.153-16.64 1.526-.84 3.073-1.245 4.601-1.24zM559.895 211.08c-.81 0-4.973 3.488-9.252 7.75-8.356 8.323-10.155 11.964-10.155 20.535 0 6.32.661 7.545 5.848 10.834 5.444 3.452 8.337 3.583 13.652.615 6.602-3.686 10.539-14.265 10.467-28.12l-.031-6.114-4.53-2.75c-2.491-1.512-5.19-2.75-6-2.75zM600.19 206.193c-.92-.114-2.379.378-4.542 1.457-1.73.864-4.033 1.288-5.117.944-1.577-.5-2.277.108-3.508 3.052-.845 2.023-1.535 4.48-1.535 5.458 0 2.517 8.753 13.855 12.426 16.095 6.1 3.72 17.574 1.453 17.574-3.472 0-2.896-4.636-9.94-9.94-15.1-2.422-2.358-4.06-4.88-4.06-6.25 0-1.348-.38-2.07-1.299-2.184zM604.215 185.08c-2.135 0-2.221.342-2.08 8.25l.146 8.25 3.354-.275c1.844-.153 7.628.836 12.853 2.199s10.316 2.5 11.315 2.527c5.111.139 7.572-4.977 3.935-8.183-4.21-3.712-25.15-12.768-29.523-12.768zM353.414 184.17c-2.37-.777-2.428 3.77-.404 14.41.837 4.4 1.766 8.788 2.066 9.75.798 2.56 2.655 2.15 5.975-1.32 1.615-1.689 4.4-3.974 6.187-5.08 1.788-1.107 3.25-2.633 3.25-3.393 0-.76-2.587-3.15-5.75-5.308-3.162-2.16-6.842-5.101-8.176-6.538-1.312-1.413-2.358-2.262-3.148-2.521z" fill="url(#a)" transform="translate(-222.091 -12.325)"/><path d="M369.863 175.08c-5.574 0-3.95 2.661 5.461 8.95 4.583 3.061 8.955 6.687 9.713 8.058 3.758 6.789-.069 14.208-11.299 21.902-1.787 1.225-3.25 2.87-3.25 3.658 0 1.882 8.623 1.937 15.705.1 5.637-1.462 15.295-8.17 15.295-10.623 0-.85-1.623-2.838-3.605-4.42-4.618-3.685-8.372-11.668-8.385-17.83l-.01-4.707-8.053-2.543c-4.428-1.399-9.635-2.545-11.572-2.545zm69.705 5c-1.486 0-1.384 9.298.12 10.8 1.262 1.263 7.527 1.626 10.218.593 3.09-1.186 1.618-4.174-3.838-7.795-2.98-1.979-5.905-3.598-6.5-3.598zm-26.177 1.41c-1.864.014-3.732.286-5.403.873-5.158 1.814-5.916 5.393-1.976 9.332 2.462 2.462 3.082 2.608 8.648 2.026 6.245-.653 9.722-3.091 9.795-6.867.06-3.113-5.475-5.404-11.064-5.364zm16.972 25.067c-1.32-.041-3.116.659-6.125 1.707-4.472 1.557-4.799 3.61-1.638 10.334 2.384 5.072 6.502 8.932 12.388 11.615 2.2 1.003 4.62 1.833 5.38 1.846 2.488.04.656-7.972-3.958-17.303-2.969-6.005-3.846-8.131-6.047-8.2zM610.785 151.277c-.733-.277-1.98-.157-4.361.125-10.167 1.204-23.822 10.191-25.428 16.735-.575 2.343-.228 2.685 4.182 4.107 2.645.853 5.152 1.615 5.572 1.694.42.078 2.484-1.478 4.586-3.458 2.102-1.98 5.996-4.792 8.654-6.25 6.236-3.42 8.986-7.062 8.074-10.695-.327-1.306-.546-1.98-1.279-2.258zM436.305 144.273c-4.94-.41-13.078 3.203-16.825 7.47-2.656 3.025-2.992 4.125-2.992 9.806 0 6.213.08 6.412 2.75 6.816 6.608 1.001 7.25.838 7.25-1.834 0-4.245 2.524-7.79 8.457-11.877 5.038-3.47 5.613-4.22 5.344-6.98-.27-2.776-.678-3.126-3.984-3.4zM544.955 129.08c-3.33 0-11.819 5.365-18.613 11.766-5.956 5.61-7.96 8.39-12.002 16.646-2.67 5.451-4.852 11.228-4.852 12.838 0 2.908.028 2.92 4.25 2.088 4.831-.952 16.83-.662 24.25.586 7.277 1.224 7.5 1.214 7.5-.358 0-.789-.69-4.714-1.533-8.722-.843-4.008-1.545-11.493-1.559-16.633-.02-7.669.345-9.973 2.034-12.836 2.458-4.166 2.576-5.375.525-5.375zm12.012 13.877c-1.355-.108-1.558 2.357-1.07 7.873.76 8.594 1.868 13.638 4.398 20.018 2.267 5.717 4.417 5.219 5.514-1.28 1.822-10.804.246-18.197-5.06-23.738-1.741-1.817-2.97-2.808-3.782-2.873z" fill="url(#a)" transform="translate(-222.091 -12.325)"/><path d="M579.717 124.33c-16.498-.502-22.229.064-22.229 2.197 0 .747 1.34 1.826 2.979 2.397 3.965 1.382 12.572 9.537 15.699 14.873 1.381 2.356 2.66 4.283 2.84 4.283.18 0 3.624-1.767 7.654-3.928 12.829-6.877 25.197-8.86 31.389-5.033 9.072 5.607 9.945 22.77 1.545 30.367-3.517 3.181-2.64 5.008 3.644 7.59 22.84 9.386 30.512 19.644 24.264 32.44-2.572 5.267-7.604 8.605-14.23 9.443-4.523.572-5.241.953-4.983 2.645 1.439 9.425 1.358 11.244-.682 15.242-3.974 7.79-11.826 11.76-23.119 11.685-7.894-.052-10.02-.796-16.27-5.695-3.674-2.88-6.73-3.124-6.732-.537-.002 3.054-6.005 13.579-9.49 16.639-4.322 3.794-10.855 6.855-16.598 7.773-4.311.69-5.167 2.706-1.66 3.908 1.238.424 11.475 1.063 22.75 1.422s21.45.74 22.614.846c2.723.25 18.893-5.756 25.097-9.323 7.038-4.044 24.15-21.786 27.967-28.994 7.304-13.793 9.607-29.932 6.897-48.33-3.039-20.62-8.63-31.07-22.131-41.357-10.17-7.749-17.447-11.54-31.717-16.52-9.59-3.347-11.18-3.598-25.498-4.033zM382.143 120.08c-2.525 0-13.164 7.635-17.52 12.572-2.39 2.71-5.654 7.514-7.252 10.672-2.715 5.366-5.883 15.38-5.883 18.592 0 1.107.707 1.226 3.25.549 1.788-.476 7.413-.87 12.5-.875 10.45-.011 10.131.33 7.64-8.235-3.044-10.474-.687-21.993 5.743-28.062 3.053-2.882 3.733-5.213 1.522-5.213zm14.248 11.072c-1.492.025-3.31 1.134-5.504 3.328-2.935 2.935-3.4 4.064-3.395 8.25.007 6.158 1.508 11.703 4.625 17.1 1.952 3.38 3.02 4.25 5.213 4.25 2.646 0 2.814-.304 4.082-7.44 1.424-8.011.848-16.733-1.47-22.31-.892-2.143-2.06-3.202-3.551-3.178z" fill="url(#a)" transform="translate(-222.091 -12.325)"/><path d="M421.922 114.26c-10.297.222-19.226 1.036-19.045 2.271.093.637 1.99 2.8 4.213 4.809 2.766 2.499 4.638 5.404 5.928 9.197 1.036 3.05 2.481 5.543 3.21 5.543.73 0 3.665-1.184 6.524-2.633 7.194-3.645 15.98-4.303 21.289-1.593 10.226 5.219 13.727 17.4 7.479 26.025-1.633 2.254-3.883 4.588-5 5.185-1.118.598-2.032 1.638-2.032 2.313 0 .675 3.643 3.637 8.096 6.582 13.407 8.867 17.015 17.537 10.885 26.146-2.395 3.363-8.899 6.916-12.73 6.954-2.935.028-2.844 1.41.642 9.668 6.04 14.311 6.207 23.097.535 28.42-2.219 2.082-3.56 2.431-9.262 2.415-11.772-.032-25.71-8.491-31.275-18.98-1.313-2.476-2.906-4.502-3.54-4.502-.632 0-3.48 1.568-6.327 3.484-6.885 4.634-13.513 6.53-25.274 7.229-5.362.319-9.75.898-9.75 1.289 0 2.193 8.266 10.877 17.18 18.047 10.537 8.476 14.188 10.526 21.227 11.922 2.25.446 8.65.86 14.22.92 10.817.117 11.57-.185 12.746-5.112.812-3.399 2.709-4.425 10.494-5.68 8.061-1.297 12.762-4.048 18.963-11.093 10.739-12.2 17.462-25.7 22.262-44.705 2.455-9.722 2.908-13.495 2.908-24.244 0-19.108-2.86-35.547-7.615-43.78-3.731-6.46-13.646-11.41-29.701-14.826-5.289-1.125-16.953-1.494-27.25-1.271zm156.256 70.736c-1.858.101-3.811.613-5.711 1.596-8.534 4.413-5.535 15.134 4.627 16.543 8.236 1.141 8.189 1.152 8.89-2.043.361-1.644 1.073-3.245 1.58-3.559.508-.314.924-2.139.924-4.056 0-5.398-4.736-8.784-10.31-8.48zm-53.94.084c-3.393 0-3.686 2.427-.5 4.14 1.238.666 6.3 2.684 11.25 4.485 5.219 1.899 10.996 3.297 13.75 3.326l4.75.05v-3.442c0-1.893-.393-3.682-.873-3.979-1.2-.741-24.979-4.58-28.377-4.58zm-13.957 12c-2.007 0-2.066.359-1.533 9.299.777 13.025 6.224 28.409 14.469 40.867 3.424 5.175 4.626 3.985 3.797-3.76-1.123-10.48 1.837-20.931 8.002-28.257 1.443-1.716 2.478-3.838 2.298-4.717-.193-.95-2.963-2.52-6.826-3.87-7.478-2.612-16.567-7.052-17.488-8.542-.346-.56-1.57-1.02-2.719-1.02z" fill="url(#a)" transform="translate(-222.091 -12.325)"/></svg>