<svg xmlns:osb="http://www.openswatchbook.org/uri/2009/osb" xmlns="http://www.w3.org/2000/svg" height="922.233" width="593.592"><defs><linearGradient osb:paint="solid" id="c"><stop offset="0" stop-color="#fff"/></linearGradient><linearGradient osb:paint="solid" id="b"><stop offset="0"/></linearGradient><linearGradient osb:paint="solid" id="a"><stop offset="0" stop-color="#162d50"/></linearGradient><linearGradient osb:paint="solid" id="d"><stop offset="0" stop-color="#d40000"/></linearGradient></defs><path d="M386.035 19.322c-22.005-.004-44.35.134-62.807.416-9.229.142-17.486.319-24.242.532-6.756.213-12.01.462-15.237.748-8.945.791-16.957 1.564-24.152 2.336-7.195.77-13.57 1.54-19.248 2.324-5.677.783-10.657 1.58-15.05 2.408-4.395.828-8.205 1.686-11.55 2.59-14.765 3.993-24.012 6.519-30.418 8.34-6.405 1.82-9.97 2.937-13.377 4.111-3.746 1.291-7.723 2.842-11.806 4.594a234.841 234.841 0 0 0-12.451 5.795 250.928 250.928 0 0 0-12.375 6.63 214.672 214.672 0 0 0-11.573 7.104c-5.12 3.383-9.506 6.488-13.462 9.629-1.979 1.57-3.85 3.15-5.65 4.777a104.99 104.99 0 0 0-5.231 5.067c-3.398 3.527-6.668 7.406-10.114 11.949-3.446 4.543-7.068 9.75-11.168 15.938a607.037 607.037 0 0 0-9.918 15.474c-2.888 4.672-5.126 8.482-6.017 10.3-1.002 2.047-2.335 5.397-3.836 9.542s-3.17 9.084-4.846 14.312a568.43 568.43 0 0 0-4.879 16.041c-1.523 5.296-2.89 10.371-3.935 14.72-.754 3.132-1.328 5.58-1.778 7.958-.449 2.378-.772 4.686-1.027 7.535-.509 5.7-.739 13.567-1.127 28.51-.221 8.526-.542 17.345-.88 24.686-.34 7.34-.698 13.203-.991 15.814-.586 5.223-1.747 16.246-2.578 24.496-.831 8.25-2.177 21.525-2.992 29.5-.816 7.975-1.746 18.1-2.069 22.5-.322 4.4-1.223 12.5-2.002 18-1.442 10.19-2.384 17.269-3.064 23.385-.68 6.116-1.098 11.27-1.494 17.615-.446 7.15-1.301 17.95-1.9 24-.338 3.412-.537 16.082-.622 33.387-.084 17.305-.053 39.246.067 61.201.119 21.955.327 43.924.6 61.283.272 17.36.608 30.11.984 33.63 1.47 13.784 2.828 24.658 3.931 31.5 1.639 10.156 3.883 24.77 4.532 29.5.339 2.474 2.649 12.6 5.13 22.5 2.482 9.9 5.586 23.85 6.899 31 1.545 8.414 3.939 20.082 6.31 30.997 2.372 10.915 4.722 21.078 6.18 26.48.783 2.902 1.96 6.214 3.467 9.811 1.507 3.597 3.343 7.48 5.443 11.524a222.24 222.24 0 0 0 7.032 12.488 246.99 246.99 0 0 0 8.23 12.707c4.206 6.075 7.697 10.92 10.828 14.84 1.566 1.96 3.042 3.688 4.473 5.224a52.314 52.314 0 0 0 4.201 4.069 37.804 37.804 0 0 0 4.201 3.142 36.998 36.998 0 0 0 4.467 2.448 50.57 50.57 0 0 0 5.002 1.98c1.786.608 3.706 1.177 5.805 1.744 3.737 1.012 10.83 2.429 17.869 3.678 7.04 1.25 14.027 2.331 17.554 2.676 1.456.388 3.102.752 4.659 1.129-.114.153-.039.285.19.373.227.088.608.132 1.108.111.22-.009.24-.054.393-.076 1.225.285 2.3.592 3.584.867 3.882.83 8.034 1.608 12.453 2.299 4.42.69 9.348 1.069 14.59 1.205 5.242.136 10.796.029 16.467-.256 2.796-.14 5.635-.432 8.465-.65 9.826-.442 20.157-1.06 27.466-1.846 3.988-.43 9.483-.84 15.125-1.16 5.643-.32 11.433-.546 16.006-.602 9.147-.11 16.3-.428 15.895-.703-.06-.04-.247-.323-.32-.389 3.68 1.524 7.472 3.115 12.673 4.954a257.245 257.245 0 0 0 10.979 3.609 220.257 220.257 0 0 0 12.103 3.312c4.17 1.01 8.445 1.904 12.75 2.614s8.639 1.237 12.92 1.513c4.282.277 8.424.457 12.434.555 4.01.098 7.887.113 11.633.057a278.65 278.65 0 0 0 20.957-1.096 277.472 277.472 0 0 0 18.056-2.236 326.892 326.892 0 0 0 15.366-2.805c4.695-.967 7.492-1.346 9.443-1.545 1.95-.198 3.055-.215 4.367-.457 1.312-.242 2.832-.708 5.611-1.805 1.316-.518 4.243-1.798 6.235-2.642l6.066-.82c1.705-.231 4.494-.848 7.612-1.657 3.117-.809 6.564-1.81 9.59-2.806 5.369-1.77 10.104-3.563 14.322-5.457a90.736 90.736 0 0 0 5.953-2.926 70.254 70.254 0 0 0 5.263-3.137 58.747 58.747 0 0 0 4.663-3.402 53.932 53.932 0 0 0 7.87-7.834 62.25 62.25 0 0 0 3.383-4.547c2.199-3.245 3.894-5.855 5.278-8.588a40.038 40.038 0 0 0 1.867-4.287 51.307 51.307 0 0 0 1.547-5.035c.957-3.733 1.798-8.341 2.715-14.584.917-6.243 1.91-14.12 3.176-24.385 2.09-16.965 3.36-27.907 4.283-38.096.923-10.189 1.501-19.625 2.213-33.578.588-11.55 1.518-25.438 2.066-30.863.548-5.426 1.41-20.5 1.916-33.5.356-9.157.881-19.044 1.531-29.123.65-10.08 1.425-20.353 2.278-30.285.852-9.933 1.783-19.524 2.746-28.24.963-8.717 1.96-16.558 2.941-22.989.714-4.675 1.474-10.612 2.123-16.412.65-5.8 1.188-11.463 1.46-15.588.541-8.25 1.392-21.3 1.892-29 .5-7.7 1.615-19.4 2.478-26 .863-6.6 2.033-17.85 2.598-25 .565-7.15 1.673-18.4 2.463-25 1.447-12.099 2.324-19.996 3.035-28.545.71-8.549 1.255-17.748 2.037-32.455.52-9.79.97-22.908 1.328-37.351.358-14.444.623-30.212.778-45.301.154-15.09.195-29.5.105-41.229-.09-11.729-.314-20.776-.69-25.138-.459-5.334-.878-9.617-1.503-13.809-.626-4.192-1.459-8.294-2.748-13.264-1.29-4.97-3.037-10.807-5.489-18.472-2.452-7.665-5.608-17.157-9.72-29.436-6.241-18.635-9.526-28.381-12.856-37.033-1.665-4.326-3.342-8.378-5.404-13.13-2.062-4.754-4.51-10.208-7.719-17.337-2.5-5.555-4.39-9.746-5.94-13.033-1.548-3.287-2.757-5.671-3.896-7.613a35.13 35.13 0 0 0-3.476-4.963c-1.27-1.522-2.739-3.064-4.68-5.088-2.256-2.352-4.168-4.216-6.047-5.733-1.878-1.516-3.722-2.683-5.838-3.642-2.116-.96-4.505-1.711-7.473-2.393-2.967-.681-6.515-1.294-10.949-1.976-1.86-.287-5.92-.539-11.652-.754-5.732-.216-13.137-.395-21.684-.54-17.092-.289-38.755-.436-60.76-.44z" style="isolation:auto;mix-blend-mode:normal" color="#000" overflow="visible" fill="#fff"/><path d="M385.75-.002c-31.308 0-54.456.091-71.016.293-16.56.202-26.532.515-31.485.957-7.7.687-19.4 1.74-26 2.342-6.6.602-16.05 1.929-21 2.95-4.95 1.02-11.7 2.153-15 2.519-1.738.192-4.557.749-8.158 1.588-3.6.839-7.982 1.96-12.844 3.283-9.723 2.644-21.368 6.091-32.53 9.687a214.443 214.443 0 0 0-13.366 4.813c-4.459 1.77-8.907 3.7-13.303 5.76a254.02 254.02 0 0 0-12.982 6.543 248.395 248.395 0 0 0-12.406 7.17 224.863 224.863 0 0 0-11.569 7.636 187.737 187.737 0 0 0-10.474 7.942 143.678 143.678 0 0 0-9.12 8.09c-2.785 2.703-5.304 5.405-7.51 8.078-1.753 2.125-4.306 5.569-7.236 9.699a633.248 633.248 0 0 0-9.496 13.818 646.945 646.945 0 0 0-9.217 14.147c-2.744 4.349-5.018 8.122-6.402 10.685-1.409 2.611-3.145 6.611-5.035 11.477-1.89 4.865-3.934 10.596-5.957 16.672a505.307 505.307 0 0 0-5.836 18.74c-1.809 6.242-3.423 12.306-4.67 17.672-.58 2.498-1.042 4.659-1.42 6.838a87.63 87.63 0 0 0-.912 6.94c-.481 5.13-.754 11.742-1.086 22.661-.405 13.331-.966 25.92-1.637 37.006-.67 11.086-1.45 20.67-2.295 27.994-1.078 9.357-2.851 26.658-5.535 54-1.496 15.249-2.812 26.427-6.006 51-.786 6.05-1.666 16.87-1.957 24.043-.29 7.173-1.005 16.623-1.59 21-.266 1.997-.464 4.004-.58 7.772-.115 3.767-.15 9.296-.093 18.334.113 18.076.595 50.193 1.531 110.351.212 13.615.408 24.453.64 33.365.233 8.912.502 15.898.858 21.807.356 5.909.798 10.741 1.379 15.346.58 4.605 1.3 8.982 2.209 13.982.5 2.75 1.68 10.4 2.623 17 .472 3.3 1.562 9.056 2.94 15.672a727.727 727.727 0 0 0 4.662 20.828c3.237 13.475 5.885 25.625 5.884 27 0 1.375 1.085 7 2.412 12.5 1.328 5.5 3.59 15.85 5.028 23a370.551 370.551 0 0 0 2.707 12.457c.923 3.893 1.88 7.55 2.902 11.047a160.445 160.445 0 0 0 3.301 10.092 141.468 141.468 0 0 0 3.902 9.584c1.424 3.16 2.981 6.313 4.707 9.531a201.496 201.496 0 0 0 5.717 9.928c4.193 6.852 9.195 14.272 15.276 22.861 3.302 4.665 6.321 8.597 9.263 11.963a79.545 79.545 0 0 0 4.381 4.647 60.851 60.851 0 0 0 4.422 3.92 54.158 54.158 0 0 0 4.613 3.318 57.17 57.17 0 0 0 4.965 2.84c3.46 1.762 7.256 3.288 11.594 4.744 1.771.594 5.038 1.404 9.35 2.342 4.31.938 9.664 2.003 15.609 3.115a1055.763 1055.763 0 0 0 39.127 6.531c3.836.562 8.692.973 14.219 1.233 5.526.26 11.723.368 18.246.33 6.522-.04 13.37-.226 20.195-.559a424.65 424.65 0 0 0 20.06-1.436 499.979 499.979 0 0 1 16.135-1.312c4.972-.319 9.486-.516 13.383-.592 3.897-.075 7.177-.029 9.684.145 2.506.173 4.24.473 5.04.902.581.31 1.962.688 3.717 1.047a69.82 69.82 0 0 0 5.967.932c2.082.233 5.808.965 10.135 1.955 4.327.99 9.253 2.238 13.736 3.505 8.966 2.536 18.417 4.967 21.002 5.403 2.53.426 5.672.668 9.25.738 3.578.07 7.59-.03 11.862-.295 4.27-.264 8.8-.69 13.408-1.267a227.46 227.46 0 0 0 13.889-2.17c7.037-1.33 12.517-2.25 18.722-3.06 6.205-.812 13.134-1.513 23.07-2.403 7-.627 12.834-1.2 17.875-1.783 5.042-.584 9.292-1.181 13.124-1.854a125.59 125.59 0 0 0 10.613-2.314c3.37-.893 6.696-1.927 10.353-3.17 5.123-1.742 9.55-3.375 13.467-5.004 3.917-1.63 7.324-3.256 10.41-4.983a67.885 67.885 0 0 0 8.48-5.586c2.631-2.033 5.129-4.272 7.678-6.822a93.598 93.598 0 0 0 6.186-6.834 95.001 95.001 0 0 0 5.47-7.37 88.721 88.721 0 0 0 4.614-7.696 76.171 76.171 0 0 0 3.617-7.809c.516-1.31 1.113-3.417 1.737-6.03.623-2.61 1.274-5.728 1.896-9.058 1.245-6.66 2.378-14.171 2.963-20.203.346-3.575 1.275-11.45 2.062-17.5.788-6.05 2.148-16.625 3.024-23.5.438-3.437.93-8.812 1.369-14.703.439-5.89.824-12.297 1.053-17.797.456-11 1.527-30.125 2.379-42.5.851-12.375 2.008-31.5 2.57-42.5.441-8.642 1.037-18.012 1.738-27.568.7-9.556 1.507-19.3 2.367-28.688.861-9.388 1.776-18.42 2.698-26.558.921-8.138 1.849-15.38 2.732-21.186.77-5.061 1.559-11.89 2.26-19.351a617.571 617.571 0 0 0 1.734-23.149c.388-7.012 1.028-15.625 1.748-23.853.72-8.228 1.519-16.071 2.223-21.543 1.408-10.944 2.56-22.558 2.56-25.809 0-3.25.422-8.923.938-12.603 1.507-10.756 2.782-22.091 3.84-34.307 1.057-12.216 1.896-25.313 2.531-39.594.635-14.28 1.065-29.743 1.305-46.691.24-16.948.289-35.38.16-55.6-.11-17.134-.122-29.559-.404-39.523-.142-4.982-.35-9.35-.672-13.383-.322-4.033-.757-7.733-1.352-11.379a132.725 132.725 0 0 0-2.305-11.06c-.958-3.822-2.122-7.874-3.537-12.434-2.828-9.12-6.66-20.276-11.861-35.72-5.829-17.307-9.65-28.397-12.871-37.06-3.222-8.662-5.845-14.898-9.277-22.494-2.597-5.745-6.963-15.397-9.702-21.447-1.369-3.025-3.097-6.453-4.779-9.539-1.681-3.086-3.316-5.83-4.498-7.486-1.196-1.677-2.854-3.68-4.736-5.776a139.48 139.48 0 0 0-6.08-6.332c-2.09-2.046-4.164-3.949-5.983-5.476-1.818-1.528-3.38-2.68-4.449-3.219-1.277-.645-2.896-1.315-4.771-1.984a96.374 96.374 0 0 0-6.309-1.987c-4.605-1.291-9.896-2.487-15.188-3.396-2.395-.412-4.733-.73-8.154-.977-3.42-.246-7.925-.42-14.654-.543-13.457-.245-35.812-.285-76.192-.285zm.285 19.324c22.004.005 43.667.152 60.76.442 8.546.144 15.95.323 21.683.539 5.732.215 9.792.467 11.652.754 4.434.682 7.982 1.295 10.95 1.976 2.967.682 5.356 1.433 7.472 2.393 2.116.96 3.96 2.126 5.838 3.642 1.879 1.517 3.791 3.382 6.047 5.733 1.941 2.024 3.41 3.566 4.68 5.088a35.13 35.13 0 0 1 3.476 4.963c1.139 1.942 2.348 4.326 3.897 7.613 1.549 3.287 3.438 7.478 5.94 13.033 3.208 7.13 5.656 12.583 7.718 17.336 2.062 4.753 3.74 8.805 5.404 13.131 3.33 8.652 6.615 18.398 12.856 37.033 4.112 12.279 7.268 21.77 9.72 29.436 2.452 7.665 4.199 13.503 5.489 18.472 1.29 4.97 2.122 9.072 2.748 13.264.625 4.192 1.044 8.475 1.504 13.809.375 4.362.599 13.41.689 25.138.09 11.73.049 26.14-.105 41.229-.155 15.089-.42 30.858-.778 45.3-.357 14.444-.808 27.561-1.328 37.352-.782 14.707-1.326 23.907-2.037 32.455-.71 8.549-1.588 16.446-3.035 28.545-.79 6.6-1.898 17.85-2.463 25-.565 7.15-1.735 18.4-2.598 25-.863 6.6-1.979 18.3-2.478 26-.5 7.7-1.35 20.75-1.893 29-.27 4.125-.81 9.788-1.459 15.588-.65 5.8-1.409 11.737-2.123 16.412-.982 6.43-1.978 14.272-2.941 22.988a1176.826 1176.826 0 0 0-2.746 28.24 1444.584 1444.584 0 0 0-2.278 30.286c-.65 10.08-1.175 19.966-1.531 29.123-.505 13-1.368 28.074-1.916 33.5-.548 5.426-1.478 19.313-2.066 30.863-.712 13.953-1.29 23.39-2.213 33.578-.924 10.19-2.193 21.131-4.283 38.096-1.265 10.265-2.259 18.142-3.176 24.385-.917 6.243-1.758 10.851-2.715 14.584a51.307 51.307 0 0 1-1.547 5.035 40.038 40.038 0 0 1-1.867 4.287c-1.384 2.733-3.08 5.343-5.278 8.588a62.25 62.25 0 0 1-3.382 4.547 53.932 53.932 0 0 1-7.871 7.834 58.747 58.747 0 0 1-4.663 3.402 70.254 70.254 0 0 1-5.263 3.137 90.736 90.736 0 0 1-5.953 2.926c-4.218 1.894-8.953 3.688-14.323 5.457a161.372 161.372 0 0 1-9.59 2.806c-3.117.81-5.906 1.426-7.61 1.657l-6.067.82c-1.992.844-4.919 2.124-6.235 2.642-2.779 1.097-4.299 1.563-5.61 1.805-1.313.242-2.417.259-4.368.457-1.95.199-4.748.578-9.443 1.545a326.892 326.892 0 0 1-15.366 2.805 277.472 277.472 0 0 1-18.056 2.236 278.65 278.65 0 0 1-20.957 1.096 294.93 294.93 0 0 1-11.633-.057c-4.01-.098-8.152-.278-12.434-.554-4.281-.277-8.615-.804-12.92-1.514s-8.58-1.604-12.75-2.613c-4.169-1.01-8.23-2.137-12.103-3.313-3.874-1.176-7.56-2.4-10.979-3.61-5.2-1.838-8.993-3.43-12.674-4.952.074.065.26.347.32.388.406.275-6.747.592-15.894.703-4.573.056-10.363.283-16.006.602-5.642.32-11.137.73-15.125 1.16-7.31.787-17.64 1.404-27.466 1.846-2.83.218-5.669.51-8.465.65-5.671.285-11.225.392-16.467.256-5.242-.136-10.17-.515-14.59-1.205-4.42-.69-8.57-1.468-12.453-2.299-1.284-.275-2.359-.582-3.584-.867-.153.022-.172.067-.393.076-.5.02-.88-.023-1.109-.111-.228-.088-.303-.22-.19-.373-1.556-.377-3.202-.741-4.658-1.13-3.527-.344-10.515-1.426-17.554-2.675-7.04-1.25-14.132-2.666-17.87-3.678-2.098-.567-4.018-1.136-5.804-1.744a50.57 50.57 0 0 1-5.002-1.98 36.998 36.998 0 0 1-4.467-2.448 37.804 37.804 0 0 1-4.201-3.142 52.314 52.314 0 0 1-4.201-4.068c-1.431-1.537-2.907-3.265-4.473-5.225-3.131-3.92-6.622-8.765-10.828-14.84a246.99 246.99 0 0 1-8.23-12.707 222.24 222.24 0 0 1-7.032-12.488c-2.1-4.044-3.936-7.927-5.443-11.524-1.507-3.597-2.684-6.909-3.467-9.81-1.458-5.403-3.808-15.565-6.18-26.48-2.371-10.916-4.765-22.584-6.31-30.999-1.313-7.15-4.417-21.1-6.899-31-2.481-9.9-4.791-20.025-5.13-22.5-.649-4.73-2.893-19.343-4.532-29.5-1.103-6.841-2.46-17.715-3.931-31.5-.376-3.52-.712-16.27-.985-33.629-.272-17.36-.48-39.328-.6-61.283-.119-21.955-.15-43.896-.066-61.201.085-17.305.284-29.975.621-33.387.6-6.05 1.455-16.85 1.9-24 .397-6.344.815-11.499 1.495-17.615.68-6.116 1.622-13.194 3.064-23.385.779-5.5 1.68-13.6 2.002-18 .323-4.4 1.253-14.525 2.069-22.5.815-7.975 2.16-21.25 2.992-29.5.831-8.25 1.992-19.273 2.578-24.496.293-2.611.651-8.474.99-15.814.34-7.34.66-16.16.881-24.686.388-14.942.618-22.81 1.127-28.51.255-2.85.578-5.157 1.027-7.535.45-2.378 1.024-4.826 1.778-7.959 1.046-4.348 2.412-9.423 3.935-14.718a568.43 568.43 0 0 1 4.88-16.042c1.674-5.228 3.344-10.167 4.845-14.312s2.834-7.495 3.836-9.541c.89-1.819 3.13-5.629 6.017-10.3a607.037 607.037 0 0 1 9.918-15.475c4.1-6.188 7.722-11.395 11.168-15.938 3.446-4.543 6.716-8.422 10.114-11.95a104.99 104.99 0 0 1 5.23-5.066c1.8-1.627 3.672-3.207 5.65-4.777 3.957-3.14 8.343-6.246 13.463-9.629a214.672 214.672 0 0 1 11.573-7.103c4.031-2.31 8.196-4.54 12.375-6.631a234.841 234.841 0 0 1 12.45-5.795c4.084-1.752 8.06-3.303 11.807-4.594 3.407-1.174 6.972-2.29 13.377-4.111 6.406-1.821 15.653-4.347 30.418-8.34 3.345-.904 7.155-1.762 11.55-2.59 4.393-.828 9.373-1.625 15.05-2.408 5.678-.783 12.053-1.553 19.248-2.324 7.195-.771 15.207-1.545 24.152-2.336 3.226-.286 8.48-.535 15.237-.748 6.756-.213 15.013-.39 24.242-.532 18.457-.282 40.802-.42 62.807-.416z" style="isolation:auto;mix-blend-mode:normal" color="#000" overflow="visible"/><path d="M557.945 613.072c-6.375.056-11.04 1.304-16.453 4.02-12.38 6.211-18.148 14.428-22.666 32.29-1.856 7.34-2.063 10.14-1.512 20.5 1.496 28.11 7.904 40.934 28.752 57.544 11.505 9.165 19.568 13.575 28.297 15.474 3.35.73 6.4 1.361 6.78 1.405 1.718.198 15.921-5.456 21.64-8.614 3.482-1.922 9.495-6.479 13.36-10.125 20.344-19.192 31.822-41.344 31.804-61.38-.01-11.788-3.4-18.103-14.539-27.092-7.952-6.417-12.875-9.11-25.955-14.196-12.451-4.84-20.854-6.84-37.73-8.972-3.369-.426-6.3-.698-8.934-.805a57.882 57.882 0 0 0-2.844-.049zm-.674 16.31c4.438 0 12.577 4.202 18.56 9.58 2.703 2.432 5.524 4.405 6.269 4.384.744-.022 2.254-1.484 3.357-3.25 2.975-4.765 7.893-6.947 13.996-6.211 14.309 1.724 21.878 12.477 17 24.152-1.828 4.375-1.905 6.347-.25 6.348 1.861 0 13.545 5.694 16.596 8.086 6.03 4.727 6.687 10.097 1.904 15.545-4.406 5.018-10.4 7.463-19.879 8.113l-7.87.54v4.882c0 6.145-3.137 15.197-6.858 19.795-1.571 1.94-4.834 4.527-7.25 5.748-6.53 3.299-13.429 3.798-18.684 1.35-3.5-1.631-4.727-2.973-6.652-7.28-1.298-2.904-2.663-7.869-3.031-11.031l-.67-5.75h-8.961c-10.296 0-14.29-1.304-18.192-5.94-4.112-4.887-3.713-9.284 1.297-14.295 2.2-2.2 3.982-4.285 3.961-4.632-.021-.348-2.018-2.089-4.437-3.868-5.49-4.036-9.316-8.977-10.14-13.091-.547-2.742-.116-3.677 3.255-7.047 3.11-3.11 5.08-4.12 9.873-5.065 8.753-1.724 8.632-1.65 7.812-4.789-.398-1.524-.688-4.549-.646-6.719.098-5.05 4.642-9.554 9.64-9.554z" fill="url(#d)" transform="translate(-203.204 -38.885)"/><path d="M578.357 588.428c-14.754-.125-30.058 3.45-44.328 10.654-6.958 3.513-13.547 7.707-16.857 10.732-9.883 9.032-20.458 25.113-23.063 35.069-4.328 16.542-4.84 48.541-1.129 70.603 1.8 10.697 6.685 26.473 10.59 34.198 2.843 5.622 9.42 13.513 14.479 17.37l4.906 3.743-7.594 2.682c-8.514 3.005-18.887 9.685-27.793 17.904-5.453 5.033-15.62 19.138-17.548 24.346-.714 1.928-.876 1.787-1.541-1.346-3.217-15.14-17.474-33.356-35.34-45.15-12.075-7.972-18.407-10.182-33.82-11.811-24.669-2.607-48.256 2.595-66.106 14.578-11.73 7.875-12.82 8.847-20.442 18.213-11.8 14.502-14.177 19.967-17.328 39.828-1.745 11.005-1.74 11.33.391 23.832 2.264 13.284 4.08 18.457 10.535 30.01 5.523 9.884 9.595 14.632 19.914 23.22 8.546 7.114 28.39 18.28 32.485 18.28.835 0 1.275.243.978.54-.117.118-1.872-.105-3.168-.232 1.456.388 3.102.753 4.658 1.13.012-.017-.03-.025-.013-.042.332-.332 1.196-.367 1.918-.078.647.26.444.434-.213.528 1.225.285 2.3.592 3.584.867 3.882.83 8.033 1.608 12.453 2.299 4.42.69 9.348 1.069 14.59 1.205 5.241.136 10.795.029 16.466-.256 2.797-.14 5.636-.432 8.465-.65-14.37.645-27.533.845-27.533.066 0-.518 4.64-1.764 10.313-2.772 11.165-1.983 15.882-3.752 28.187-10.566 15.68-8.683 26.778-23.137 29.61-38.568 1.07-5.832 4.67-14.471 6.03-14.471.376 0 .979 1.912 1.339 4.25 1.402 9.106 5.984 22.716 11.039 32.795 4.577 9.126 12.891 22.523 15.187 24.566 3.68 1.523 7.473 3.114 12.674 4.953a257.245 257.245 0 0 0 10.979 3.61 220.257 220.257 0 0 0 12.103 3.312c4.17 1.01 8.445 1.904 12.75 2.613 4.305.71 8.639 1.238 12.92 1.514 4.281.276 8.424.457 12.434.555 4.009.098 7.886.113 11.632.056a278.65 278.65 0 0 0 20.957-1.095 277.472 277.472 0 0 0 18.057-2.237 326.892 326.892 0 0 0 15.365-2.804c4.696-.967 7.493-1.347 9.444-1.545 1.95-.199 3.055-.216 4.367-.457 1.312-.242 2.832-.709 5.611-1.805 1.316-.519 4.243-1.798 6.235-2.643l-.133.018 5.82-6.578c12.305-13.903 16.505-24.116 16.48-40.078-.023-15.267-5.55-29.664-19.19-49.983-16.406-24.435-40.386-45.113-64.415-55.548l-4.705-2.043 4.893-4.213c3.757-3.237 7.164-4.942 14.703-7.35 12.297-3.928 15.842-5.704 25.814-12.941 9.678-7.023 13.59-11.006 20.904-21.276 8.682-12.19 10.625-17.385 13.102-35.029 1.141-8.132 1.252-12.277.47-17.785-1.16-8.18-5.308-22.524-8.12-28.082-1.886-3.727-3.644-5.246-2.44-2.108.51 1.329.357 1.415-.797.457-1.203-.998-1.187-.37.1 4.02 1.884 6.428 1.28 23.45-1.15 32.38-4.146 15.237-14.811 32.295-29.74 47.565-10.832 11.078-18.815 16.646-30.845 21.506-3.566 1.44-7.166 3.225-7.998 3.965-1.8 1.602-13.35 3.626-15.78 2.766-.939-.332-2.38-1.154-3.206-1.825-.825-.67-3.975-2.012-7-2.982-13.259-4.253-35.225-20.694-45.082-33.742-11.704-15.494-15.706-27.744-16.578-50.752-.415-10.943-.175-16.248.976-21.63 1.948-9.1 6.868-20.923 11.731-28.189 6.48-9.682 19.211-17.745 32.812-20.785 6.371-1.423 8.788-1.484 17.989-.449 18.716 2.106 28.357 4.154 41.152 8.74 19.92 7.14 29.444 12.959 42.28 25.832 3.728 3.74 6.464 5.98 6.08 4.977-.509-1.324-.352-1.609.57-1.04 5.171 3.197-12.616-19.231-20.922-26.38-9.194-7.913-13.949-10.963-24.92-15.988-10.066-4.61-21.208-6.946-32.684-7.043zm-29.935 17.677c1.728-.054 3.568-.014 5.533.096-1.965-.11-3.805-.15-5.533-.096zm-26.725 3.278c.275 0-.06.675-.744 1.5-.685.825-1.471 1.5-1.746 1.5-.275 0 .061-.675.746-1.5s1.47-1.5 1.744-1.5zm-126.38 159.646c.934-.004 1.864.004 2.788.024 25.88.553 47.342 10.432 53.85 25.56 5.81 13.505 3.433 51.354-4.654 74.108-5.493 15.454-18.719 31.433-30.666 37.05-4.44 2.088-17.8 5.612-21.27 5.612-.226 0-.412.606-.412 1.345 0 .74-.787 2.033-1.75 2.874-6.2 5.415-17.143 1.55-41.25-14.567-23.03-15.397-38.172-40.132-40.607-66.338-1.73-18.61 9.266-37.601 29.584-51.088 10.924-7.251 28.93-12.832 45.845-14.21 2.885-.236 5.736-.357 8.541-.37zm164.37 16.45c8.555-.056 11.986.556 23.03 2.8 19.988 4.063 35.209 10.163 44.158 17.694 3.975 3.345 18.459 23.547 24.31 33.91 8.372 14.825 13.646 36.565 11.73 48.34-3.366 20.67-22.531 32.622-56.462 35.213-15.127 1.155-16.5 1.477-16.5 3.86 0 .979-.824 2.522-1.83 3.433-1.006.91-3.143 1.577-4.75 1.482-1.607-.095-11.92-.48-22.92-.857-24.513-.841-31.43-2.664-45.25-11.917-11.628-7.785-18.052-14.128-24.613-24.298-10.95-16.973-13.485-24.106-14.336-40.336-.69-13.137.324-18.443 5.781-30.235 7.01-15.146 17.471-26.051 31.276-32.603 10.154-4.82 14.792-5.632 35.642-6.244 4.462-.131 7.883-.224 10.735-.242z" fill="url(#a)" transform="translate(-203.204 -38.885)"/><path d="M552.574 658.139l-5.857.611c-5.94.62-9.764 2.012-9.764 3.55 0 1.485 6.366 7.192 10.26 9.198 2.068 1.066 6.343 2.563 9.5 3.328 7.032 1.705 8.172 1.805 6.24.557-1.247-.806-1.163-.982.5-1.047 1.947-.077 1.944-.102-.078-.92-1.142-.462-4.039-4.088-6.437-8.059l-4.364-7.218zM558.807 638.383c-3.713 0-1.115 10.298 3.154 12.506 4.037 2.087 5.305 4.714 3.832 7.947-1.015 2.228-.86 2.896 1.17 5.057 2.735 2.911 2.989 2.96 5.549 1.023 1.067-.807 2.927-1.482 4.133-1.5 1.205-.017 2.435-.431 2.736-.918.87-1.408-1.476-7.24-4.797-11.924-2.758-3.89-13.502-12.191-15.777-12.191zM611.88 853.258c-7.231-.074-15.142.134-19.4.666l-5.517.69.59 5.134c.513 4.469.184 5.904-2.54 11.053l-3.13 5.918 2.613 5.162c2.55 5.04 5.787 7.79 11.299 9.596 3.341 1.094 19.604.274 22.21-1.122 4.87-2.606.013-7.925-14.089-15.433-7.839-4.174-9.515-5.484-9.764-7.625-.504-4.342 1.853-5.388 8.815-3.91 8.073 1.713 17.705.843 22.879-2.065 4.848-2.725 5.383-5.497 1.357-7.045-1.538-.59-8.09-.946-15.322-1.02z" fill="url(#d)" transform="translate(-203.204 -38.885)"/><path d="M642.242 852.883l-1.318 4.303c-1.637 5.34-5.78 9.479-12.951 12.939-3.037 1.465-5.841 3.135-6.233 3.709-.391.574.898 2.69 2.864 4.703 2.736 2.803 3.694 4.734 4.09 8.242.482 4.283.264 4.836-3.362 8.46-2.898 2.895-5.218 4.161-9.178 5.009-7.38 1.581-18.934 1.342-23.7-.49-6.53-2.51-8.5-2.778-8.5-1.16 0 .796-1.124 3.661-2.497 6.367-1.373 2.706-2.498 5.512-2.5 6.236-.002.778.713 1.114 1.746.82 1.73-.49 15.943-1.986 29.983-3.154 13.184-1.097 28.019-6.338 32.968-11.648 6.86-7.36 6.882-24.456.05-40.836l-1.462-3.5zM329.27 844.383c-1.232 0-1.431.693-.926 3.25.652 3.302 6.524 16.399 9.191 20.5 1.998 3.072 4.418 2.909 4.418-.299 0-3.119 2.081-7.31 4.897-9.857 3.89-3.52 2.738-5.061-6.436-8.608-4.696-1.815-8.772-3.681-9.059-4.144-.286-.463-1.224-.842-2.085-.842zm35.183 12.601c-2.492-.758-11.048 5.313-12.75 9.047-.997 2.19-.892 2.774.701 3.94 3.051 2.23 9.753-.163 16.782-5.992 4.597-3.814 4.721-5.228.517-5.881-1.787-.278-4.15-.779-5.25-1.114zM349.854 834.092c-1.147-.21-2.845.027-6.15.515-4.308.637-6.75 1.461-6.75 2.28 0 1.377.378 1.58 9.5 5.082 3.3 1.267 6.45 2.183 7 2.033 1.92-.523 1.469-5.132-.76-7.756-1.098-1.291-1.694-1.945-2.84-2.154zm42.072 1.398c-1.817-.095-2.973.136-2.973.813 0 .505.652 2.193 1.45 3.75.796 1.557 1.682 3.617 1.968 4.58.286.962 1.188 1.75 2.006 1.75.818 0 3.144 1.125 5.17 2.5 2.87 1.948 4.952 2.5 9.424 2.5 8.85 0 10.49-4.222 3.664-9.428-3.876-2.955-15.26-6.18-20.71-6.465zm-22.01 1.785c-1.526-.04-3.01.189-4.38.715-2.466.946-1.964 6.105.87 8.94 2.1 2.1 3.39 2.453 8.93 2.453 6.56 0 9.617 1.43 9.617 4.5 0 1.979-2.842 4.5-5.072 4.5-2.282 0-2.44 1.254-.541 4.285.763 1.218 1.67 3.82 2.012 5.78.669 3.83 5.032 8.742 10.101 11.368 3.312 1.717 8.23 2.025 10.4.65 1.04-.657 1.247-2.187.805-5.917-.798-6.742-3.957-12.794-9.295-17.807-2.51-2.357-4.41-5.05-4.41-6.25 0-1.16-.637-2.11-1.416-2.11-.779 0-2.887-1.857-4.685-4.128-3.405-4.299-8.358-6.856-12.936-6.979zM583.719 824.605c-1.588.074-3.656.304-6.35.635-5.365.66-11.704 2.062-14.086 3.115-4.244 1.878-4.333 2.018-4.48 6.973-.083 2.781-.195 5.617-.25 6.305-.066.825 2.154 1.473 6.531 1.906 3.647.36 7.922 1.367 9.5 2.234 3.016 1.66 6.99 1.335 9.12-.742 1.739-1.698 5.252-12.016 5.234-15.373-.023-4.089-.457-5.274-5.22-5.053zM524.824 802.674c-1.758.006-5.244 1.347-9.738 4.02-11.489 6.83-22.067 22.417-24.38 35.925-1.868 10.899.13 23.958 5.216 34.106 8.113 16.186 17.672 26.457 31.46 33.806 3.281 1.749 7.79 3.751 10.018 4.45 4.978 1.558 11.553 1.768 11.553.369 0-.569-1.632-2.666-3.627-4.66-7.335-7.336-9.375-16.993-5.457-25.85 2.726-6.163 2.632-7.301-.666-8.008-1.512-.324-8.375-2.163-15.25-4.086-14.703-4.112-25.627-9.56-28.281-14.105-1.674-2.866-1.702-3.39-.315-6.073 3.122-6.036 14.992-7.774 31.592-4.625 4.52.858 8.497 1.28 8.838.94.34-.341-.635-2.732-2.17-5.31-1.534-2.58-4.673-8.515-6.976-13.19-3.644-7.396-4.188-9.363-4.188-15.145 0-4.925.453-7.145 1.75-8.578 2.412-2.665 2.38-3.992.621-3.986zm9.858 7.918c-.916.094-1.695.348-2.221.785-3.084 2.56-.812 10.619 6.861 24.34 2.051 3.667 4.322 6.666 5.047 6.666 1.285 0 3.146-6.233 4.274-14.315.64-4.587-1.75-11.452-5.073-14.574-2.15-2.02-6.14-3.184-8.888-2.902zm26.675 41.853c-1.754.075-3.412.372-4.84.914-3.19 1.213-3.363 4.669-.546 10.877 3.242 7.145 7.66 11.984 12.008 13.155 2.139.576 4.16 1.484 4.49 2.02.927 1.499 3.478 1.15 4.136-.565.325-.846-.241-2.455-1.257-3.578-1.802-1.991-1.792-2.141.379-5.913 2.703-4.697 2.895-10.057.439-12.279-3.407-3.083-9.544-4.854-14.809-4.63zm-51 3.05c-1.114.125-1.404.483-1.404 1.136 0 1.985 5.568 4.248 20.5 8.33 17.193 4.7 19.11 4.492 16.568-1.781-.511-1.264-1.196-3.535-1.519-5.047-.7-3.27-2.147-3.477-5.076-.725-2.07 1.945-2.41 1.967-8.565.518-3.524-.83-9.895-1.807-14.158-2.17-3.294-.28-5.232-.388-6.346-.262zm43.97 24.028c-.961.094-1.887.955-3.007 2.61-6.06 8.953-5.79 16.8.787 22.941 1.29 1.205 3.471 2.659 4.846 3.233 5.095 2.126 12.275-.36 15.574-5.395 1.782-2.72 4.176-16.112 3.077-17.21-.386-.387-2.256-.14-4.155.546-2.985 1.08-4.03.99-7.724-.662-2.35-1.051-5.13-2.877-6.178-4.057-1.264-1.423-2.26-2.099-3.22-2.006z" fill="url(#d)" transform="translate(-203.204 -38.885)"/><path d="M554.37 799.393c-10.088-.007-12.085.24-12.085 1.494 0 .826 1.838 2.582 4.084 3.902 4.429 2.603 7.422 6.19 9.553 11.45 1.52 3.749.845 3.715 14.531.714 8.426-1.847 17.446-2.008 21.033-.373 5.708 2.6 8.075 12.993 4.967 21.803-.825 2.338-1.5 4.533-1.5 4.877 0 .343 6.863.627 15.25.63 13.859.007 15.727.222 20.469 2.36 2.87 1.294 5.715 2.952 6.322 3.684.608.732 1.75 1.082 2.541.779 1.809-.694-1.967-7.616-11.683-21.41-6.974-9.901-11.662-14.71-17.05-17.496-13.153-6.802-38.611-12.402-56.433-12.414zM398.256 783.506c-10.383-.279-21.182.827-29.803 3.389-4.95 1.47-11.358 3.789-14.24 5.15-15.316 7.233-27.2 21.776-28.469 34.838-.34 3.497.146 3.532 8.21.58 3.024-1.108 7.602-2.029 10.171-2.047l4.672-.033-.166-10.75c-.131-8.578.19-11.4 1.59-13.969 3.533-6.491 10.099-7.174 17.164-1.781 2.522 1.925 4.808 3.5 5.08 3.5.272 0 2.112-1.79 4.09-3.979 1.977-2.189 5.102-4.397 6.945-4.906 6.757-1.866 17.165 2.363 19.46 7.906 1.769 4.268.748 12.07-2.36 18.06-1.457 2.808-2.647 5.637-2.647 6.29 0 .652 3.099 1.985 6.887 2.96 12.077 3.112 19.758 9.605 20.832 17.612.902 6.727-4.585 12.646-13.469 14.528-1.787.378-3.245.99-3.238 1.359.007.369.907 3.523 2 7.01 1.093 3.486 1.988 7.445 1.988 8.798 0 4.02-2.534 7.732-6.99 10.237-6.42 3.608-14.128 2.755-21.6-2.39-3.11-2.143-6.785-5.603-8.166-7.69-1.38-2.087-3.088-3.795-3.795-3.795-.706 0-3.677 1.202-6.6 2.67-2.922 1.468-7.469 2.876-10.103 3.129-2.634.253-5.017.829-5.295 1.279-.702 1.136 8.021 7.529 20.928 15.34 12.257 7.417 15.185 8.014 18.344 3.742 1.753-2.37 3.442-3.109 10.222-4.469 10.897-2.185 14.514-4.039 21.305-10.918 6.107-6.186 11.519-15.686 14.145-24.832 4.72-16.437 7.113-47.064 4.492-57.474-1.316-5.225-7.578-11.548-14.283-14.422-6.953-2.98-16.918-4.643-27.301-4.922zm-10.2 18.877c-5.935 0-10.103 8.534-10.103 20.681 0 3.884.418 6.319 1.086 6.319 2.353 0 13.768-12.813 14.834-16.65 2.169-7.81.74-10.35-5.816-10.35zm-28.42 3c-1.867 0-1.94.552-1.45 10.892.284 5.991.824 11.391 1.2 12 .844 1.366 2.653 1.406 6 .133 2.358-.896 2.567-1.458 2.567-6.935 0-3.278-.48-7.225-1.066-8.774-1.465-3.866-4.884-7.316-7.25-7.316zM387.14 690.701c.798.32.56.556-.605.604-1.054.043-1.645-.193-1.312-.526.332-.332 1.196-.367 1.918-.078z" fill="url(#d)" transform="translate(-203.204 -38.885)"/><path d="M364.91 659.586c-.643-.108-1.36.115-2.463.617-1.424.649-3.692 1.18-5.04 1.18-3.605 0-3.027 1.649 2.296 6.549 6.306 5.804 7.837 5.75 8.547-.3.447-3.805.184-5.133-1.326-6.679-.802-.821-1.371-1.26-2.014-1.367zm20.701 2.219c-.933-.054-1.897.1-2.873.47-5.15 1.959-7.183 7.945-4.613 13.586 1.391 3.054 4.409 3.988 10.275 3.184 3.496-.48 4.644-.217 6.094 1.385 1.548 1.71 1.61 2.303.467 4.437-2.68 5.009-11.49 5.595-19.205 1.278l-3.7-2.07-4.501 4.904c-5.476 5.965-9.158 12.51-8.3 14.75.767 1.995 7.168 2.262 11.401.474 1.539-.65 5.395-3.684 8.57-6.742 5.68-5.47 5.818-5.536 8.5-4.043 1.5.835 3.79 3.597 5.09 6.139 1.3 2.542 3.325 5.097 4.5 5.68 2.7 1.337 9.228.469 13.137-1.749 2.287-1.297 3.07-2.525 3.295-5.16.42-4.9-3.53-12.032-7.34-13.256-6.086-1.954-7.945-5.384-4.8-8.86 1.967-2.173 4.914-2.29 8.345-.33 3.018 1.726 12.003 1.8 17.5.143 3.78-1.138 4-1.42 4-5.117 0-3.316-.47-4.187-3.09-5.717-3.805-2.222-13.295-3.301-20.79-2.365l-5.62.701v3.893c0 2.87-.526 4.174-2 4.963-2.832 1.516-5.287-.09-7.441-4.867-1.595-3.536-4.101-5.55-6.9-5.711zM598.658 643.383c-4.884 0-5.5.251-6.619 2.709-.679 1.49-1.666 6.576-2.193 11.303l-.96 8.593 3.901 4.1c4.767 5.01 5.858 8.59 3.649 11.963-2.24 3.42-5.534 2.733-7.7-1.606-2.434-4.877-4.96-7.1-8.347-7.347-2.913-.212-2.934-.174-2.674 4.73.319 6.019 2.425 9.555 5.69 9.555 2.635 0 5.548 2.362 5.548 4.5 0 2.512-3.092 4.5-6.996 4.5-4.31 0-9.533-3.628-11.08-7.697-.888-2.336-1.057-2.365-10.164-1.704-10.947.796-16.105 2.244-16.568 4.649-.5 2.591 3.668 3.752 13.468 3.752 6.988 0 9.05.37 11.4 2.043 3.018 2.148 4.924 7.073 4.934 12.74.003 1.805.658 4.843 1.455 6.75 1.374 3.289 1.702 3.467 6.352 3.467 10.415 0 15.506-6.863 15.902-21.438.166-6.104.693-9.386 1.66-10.353.988-.987 4.403-1.5 11.276-1.688 11.184-.307 17.361-2.268 17.361-5.513 0-2.224-3.228-4.082-15.5-8.918-7.838-3.09-11.5-5.875-11.5-8.75 0-.792 1.587-2.895 3.527-4.672 4.872-4.463 5.7-9.532 2.137-13.094-2.127-2.127-3.507-2.574-7.959-2.574zM371.33 629.383c-2.747 0-1.215 21.082 1.797 24.71 1.316 1.587 2.043 1.604 5.28.13 2.163-.986 2.546-1.818 2.546-5.532 0-2.912-.489-4.557-1.463-4.931-.804-.309-1.754-1.532-2.113-2.719-1.729-5.715-4.811-11.658-6.047-11.658zm29.344 3c-5.909 0-8.84 4.487-10.139 15.517-.55 4.678-.403 5.134 2.164 6.762 2.854 1.81 3.495 1.785 11.645-.441 3.93-1.074 5.256-2.023 6.75-4.823 2.078-3.894 2.412-9.114.78-12.166-1.34-2.503-6.76-4.85-11.2-4.85zM457.953 612.383c.052-.052.457.25 1.25.873.963.755 1.75 1.542 1.75 1.75 0 .823-.822.293-2.129-1.373-.622-.793-.922-1.199-.87-1.25z" fill="url(#d)" transform="translate(-203.204 -38.885)"/><path d="M388.057 601.7c-9.99.338-20.677 2.434-32.286 6.267-10.1 3.335-15.163 7.051-17.142 12.592-2.181 6.104-5.04 39.403-4.188 48.767 1.189 13.05 3.482 23.33 6.678 29.938 3.434 7.098 14.891 19.912 20.1 22.48 4.364 2.152 28.128 2.223 40.181.121 16.902-2.947 22.52-5.933 36.14-19.2 9.362-9.123 15.495-18.753 19.103-30.003 2.214-6.905 2.446-9.07 2.074-19.28-.679-18.617-4.597-24.55-25.524-38.648-13.782-9.285-28.488-13.6-45.136-13.035zm-17.006 18.325c4.401.116 7.559 2.567 12.056 9.36l1.655 2.498 4.056-3.914c3.453-3.332 4.845-3.98 9.354-4.354 7.217-.598 13.142 1.198 17.781 5.389 5.033 4.547 6.428 8.871 5.629 17.465l-.63 6.773 5.542 1.61c7.127 2.071 13.053 7.307 14.545 12.85 2.42 8.983-2.812 15.513-14.336 17.894-3.162.653-5.746 1.66-5.74 2.238.006.577.697 3.299 1.535 6.049 1.368 4.492 1.364 5.415-.027 9.074-2.324 6.112-9.5 10.826-18.25 11.986-6.541.868-11.355-.756-15.188-5.12-1.66-1.892-3.494-3.44-4.074-3.44-.58 0-3.287 1.538-6.018 3.416-2.73 1.878-7.241 3.903-10.025 4.5-2.784.597-5.826 1.066-6.762 1.045-2.522-.058-7.508-2.422-9.064-4.297-.75-.903-1.656-1.46-2.012-1.24-.356.22-.778-2.008-.94-4.948-.337-6.161 1.82-11.263 7.358-17.392 1.901-2.105 3.457-4.478 3.457-5.274 0-.796-4.073-5.181-9.053-9.748-8.467-7.765-9.033-8.532-8.75-11.834.427-4.962 4.125-7.48 11.805-8.035 3.316-.24 6.248-.79 6.516-1.222.267-.434-.001-4.298-.598-8.588-1.407-10.114-.548-15.65 3.055-19.682 2.397-2.683 3.496-3.154 7.123-3.059zm-20.098 91.358c.052-.052.457.25 1.25.873.963.755 1.75 1.542 1.75 1.75 0 .823-.822.293-2.129-1.373-.622-.793-.922-1.199-.87-1.25z" fill="url(#d)" transform="translate(-203.204 -38.885)"/><path d="M392.002 577.611c-7.81-.284-15.864.477-24.404 2.254-13.239 2.755-18.73 4.988-29.575 12.026-10.067 6.533-13.872 10.145-21.408 20.32-8.078 10.907-9.654 14.074-13.78 27.672-3.114 10.27-3.34 11.962-3.36 25.5-.027 16.865 2.365 29.175 7.898 40.654 3.455 7.168 15.319 21.597 22.316 27.139 6.622 5.244 23.893 12.992 34.764 15.597 12.634 3.028 24.128 5.467 28 5.942 5.544.68 6.97.605 15-.807 15.248-2.68 34.169-14.065 51.3-30.865 8.794-8.623 12.643-14.311 17.599-26.004 6.884-16.244 7.997-29.596 4.08-48.896-1.566-7.716-9.76-24.747-15.52-32.26-7.092-9.25-23.076-22.125-34.742-27.985-12.809-6.433-25.151-9.813-38.168-10.287zm-2.049 10.444c15.165-.047 17.212.168 25.297 2.648 11.01 3.378 18.013 6.916 28.203 14.25 23.71 17.066 29.463 26.942 29.637 50.867.076 10.514-.25 13.068-2.537 19.871-5.323 15.833-11.827 25.85-24.975 38.463-14.352 13.769-22.63 18.095-41.324 21.594-9.803 1.835-36.555 2.866-41.584 1.604-5.46-1.371-8.817-3.306-15.742-9.069-7.178-5.973-16.58-18.23-19.895-25.933-2.985-6.94-5.873-20.967-6.703-32.56-.787-10.997 2.072-45.574 4.375-52.907 2.402-7.649 11.468-16.188 21.674-20.418 15.767-6.534 25.187-8.354 43.574-8.41zM673.541 480.615c-1.13.14-2.302.581-3.416 1.362-1.905 1.334-2.225 2.346-1.973 6.242l.301 4.648 5 .705c2.776.391 5.442 1.396 5.994 2.258 1.2 1.874 3.097 2.01 4.182.303 1.253-1.974.983-3-1.426-5.408-1.237-1.238-2.25-3.248-2.25-4.467 0-3.798-3.02-6.064-6.412-5.643zm18.217 2.069c-1.546-.085-1.73.561-2.121 2.925-.298 1.801-.835 4.428-1.194 5.836-.521 2.049-.184 2.785 1.68 3.682 3.231 1.554 12.077 1.528 14.225-.043 1.18-.863 1.664-2.285 1.441-4.236-.38-3.323-5.591-6.75-11.975-7.873-.875-.155-1.54-.263-2.056-.291zM648.803 434.941c-1.014-.127-3.153.568-6.032 2.131-5.38 2.924-9.702 8.397-11.91 15.086-.778 2.357-.975 9.438-.615 22.098.445 15.65.94 20.196 3.098 28.44 1.412 5.396 2.834 10.242 3.158 10.767.952 1.54 2.22.156 3.52-3.844 1.359-4.182 6.166-10.754 8.957-12.248 2.506-1.341 4.872-.241 5.585 2.6.427 1.7-.282 3.558-2.51 6.588-4.375 5.949-4.133 7.2 1.272 6.591 4.65-.524 15.627-6.972 15.627-9.18 0-.669-1.524-1.942-3.385-2.83-2.233-1.065-4.017-3.006-5.25-5.712-1.706-3.747-2.128-4.053-4.91-3.565-5.834 1.024-15.507-7.13-18.48-15.578-2.402-6.822 1.203-12.902 7.65-12.902 4.053 0 4 .55 1.02-10.451-1.585-5.849-.592-11.913 2.49-15.194 1.617-1.721 1.729-2.67.715-2.797zm6.572 11.442c-1.404 0-1.571.669-1.025 4.084.359 2.245 1.802 6.35 3.207 9.12 1.894 3.74 2.843 4.75 3.68 3.913 2.133-2.134-2.997-17.117-5.862-17.117zm-6.742 28.115c-1.151-.165-1.68.239-1.68 1.195 0 1.97 2.1 4.279 6 6.6 4.762 2.834 6.204 2.689 5.817-.586-.237-2-1.432-3.264-4.725-5-2.49-1.312-4.261-2.044-5.412-2.209zm32.77 24.797c-.75-.02-1.385.476-1.811 1.588-.317.825-1.24 1.5-2.049 1.5-.81 0-1.754.457-2.098 1.013-.797 1.29 4.86 13.34 7.506 15.985 2.513 2.513 3.236 2.504 5.56-.065 1.807-1.995 1.812-2.293.128-8.716-1.72-6.559-4.99-11.247-7.237-11.305z" fill="url(#a)" transform="translate(-203.204 -38.885)"/><path d="M675.424 429.662c-12.649-.96-26.963 2.844-19.553 5.195 3.745 1.189 7.195 4.807 10.133 10.627 1.638 3.245 3.562 5.899 4.275 5.899.714 0 2.293-1.345 3.51-2.99 3.58-4.844 9.559-7.352 15.955-6.692 12.244 1.264 18.939 11.243 14.805 22.069-.918 2.403-2.553 5.168-3.633 6.146-3.113 2.817-2.388 4.79 2.498 6.799 4.985 2.05 11.146 8.257 12.145 12.234 1.024 4.08-1.27 10.083-4.89 12.793-3.138 2.351-4.195 2.781-10.06 4.092-2.829.632-2.84.663-2.166 6.467.558 4.808.316 6.542-1.379 9.863-4.57 8.959-12.167 10.874-18.923 4.77-2.1-1.898-4.68-5.048-5.73-7-1.052-1.953-2.214-3.551-2.583-3.551-.368 0-3.53 1.43-7.023 3.18-7.75 3.878-15.394 4.447-18.77 1.394-1.417-1.28-2.464-1.593-3.127-.93-1.87 1.871 11.69 18.356 15.1 18.356.9 0 2.994-.677 4.652-1.504 3.37-1.681 5.598-1.15 16.293 3.892 6.208 2.927 13.176 3.4 18.326 1.249 1.795-.75 5.202-3.563 7.573-6.25 7.748-8.786 12.557-20.405 17.752-42.887 5.837-25.266 4.573-39.002-4.395-47.742-7.33-7.145-26.417-14.388-40.785-15.479zm13.047 20.934a10.624 10.624 0 0 0-4.518.787c-3.378 1.4-7.545 8.953-8.56 15.517-.599 3.87-.5 4.058 2.718 5.11 5.975 1.952 8.554 1.654 9.239-1.073.337-1.345 1.9-3.207 3.472-4.136 3.192-1.885 6.131-6.248 6.131-9.1 0-3.977-3.998-6.914-8.482-7.105z" fill="url(#a)" transform="translate(-203.204 -38.885)"/><path d="M675.205 400.926c-2.872-.129-5.31.065-8.648.52-8.75 1.19-24.979 7.285-33.123 12.44-5.252 3.325-17.578 15.986-22.608 23.223-8.89 12.793-16.9 37.01-16.855 50.965.024 7.68 2.502 24.75 4.347 29.951.809 2.279 3.87 8.567 6.803 13.973 7.123 13.13 21.439 27.93 33.332 34.459 13.303 7.303 24.333 11.627 34.5 13.523v-.002c8.5 1.586 10.097 1.586 19.018-.006 19.38-3.458 37.123-18.752 42.947-37.017 1.065-3.34 3.056-8.772 4.424-12.072 1.368-3.3 3.7-10.5 5.181-16 2.445-9.079 2.7-11.706 2.774-28.5.125-28.299-3.352-41.452-14.965-56.614-9.79-12.782-18.908-20.191-29.402-23.894-2.452-.865-9.861-2.458-16.467-3.54-5.078-.83-8.385-1.28-11.258-1.41zm-3.752 15.033c12.269.066 15.108.413 22.967 2.809 13.74 4.188 25.18 10.158 31.201 16.28 12.647 12.864 15.833 29.784 10.23 54.335a9927.572 9927.572 0 0 1-3.552 15.5c-2.182 9.475-8.47 25.237-12.647 31.703-6.106 9.451-11.714 14.93-18.377 17.951-6.002 2.722-15.235 4.367-18.322 3.266-11.483-4.099-13.9-4.523-16.91-2.967-6.765 3.498-12.86 1.003-23.928-9.795-7.474-7.292-13.155-14.764-17.054-22.434-6.576-12.93-11.696-49.197-9.319-66.005 2.695-19.056 13.19-30.925 33.518-37.905 7.518-2.581 9.344-2.807 22.193-2.738zM537.771 357.383c-1.317 0-1.818.758-1.818 2.75 0 3.244 5.49 8.148 10.39 9.28 2.824.65 6 .454 9.36-.581 2.398-.739 1.27-4.273-2-6.271-3.45-2.11-12.892-5.178-15.932-5.178zM489.955 333.486c-.366-.002-.732.226-1.19.684-.915.916-.73 1.705.805 3.451 1.095 1.245 4.328 4.887 7.186 8.094 7.944 8.914 7.068 13.234-4.313 21.271-2.602 1.838-2.805 2.312-1.611 3.75.752.906 2.097 1.653 2.992 1.66 2.994.024 16.13-3.367 16.13-4.164 0-.432-1.009-2.714-2.241-5.068-1.63-3.114-2.26-6.079-2.307-10.88-.06-6.014-.4-7.06-3.844-11.75-2.94-4.007-4.381-5.151-6.494-5.151-1.493 0-3.256-.54-3.916-1.2-.463-.462-.83-.695-1.197-.697zm27.824 16.897c-3.116 0-3.826.36-3.826 1.935 0 2.662 1.817 7.205 3.725 9.313.908 1.004 3.012 1.752 4.93 1.752 3.26 0 3.345-.106 3.345-4.186 0-5.636-2.947-8.814-8.174-8.814zm-14.222 3.271c.332.333.369 1.194.08 1.916-.32.798-.558.562-.606-.603-.043-1.054.193-1.645.526-1.313zm25.728 14.772c-.62-.2-1.53.518-2.832 1.957-1.28 1.415-3.081 2-6.156 2-4.887 0-5.038.358-3.225 7.558.736 2.924 2.286 5.47 4.533 7.444 3.897 3.42 4.27 3.507 6.854 1.617 1.607-1.175 1.907-2.812 2.012-11 .081-6.36-.152-9.243-1.186-9.576zM506.295 324.383c-1.629 0-1.7 1.678-.244 5.851.604 1.732 1.729 3.149 2.5 3.149 1.697 0 1.71-.242.244-5.133-.637-2.126-1.762-3.867-2.5-3.867zm27.55 2c-5.115 0-8.75 4.077-10.33 11.584-.583 2.776-.245 3.364 3.395 5.887 2.224 1.54 4.043 3.19 4.043 3.666 0 .475 1.125.863 2.5.863 1.966 0 2.5-.507 2.5-2.377 0-1.308.675-3.994 1.5-5.969 2.863-6.851 1.066-13.654-3.607-13.654zM451.76 305.857c.308.308 0 1.115-.684 1.793-.987.98-1.101.865-.558-.56.375-.986.934-1.54 1.242-1.233z" fill="url(#a)" transform="translate(-203.204 -38.885)"/><path d="M507.904 297.383c-25.272 0-40.39 6.78-44.02 19.742-2.18 7.788 1.449 30.492 8.848 55.361 6.057 20.355 15.27 29.661 35.217 35.569 8.696 2.575 11.502 2.735 21.313 1.215 12.01-1.862 26.007-10.488 34.705-21.387 7.58-9.498 12.94-24.255 12.97-35.7.046-17.525-6.155-27.544-24.81-40.083-18.254-12.27-25.604-14.717-44.223-14.717zm-4.48 9.928c3.835.537 7.812 4.342 10.976 10.962 1.607 3.361 3.335 6.11 3.842 6.11.507 0 2.245-1.112 3.862-2.473 8.438-7.1 20.643-5.05 24.47 4.11 1.951 4.668 1.673 12.119-.642 17.222-2.316 5.104-2.436 6.14-.702 6.14 2.582 0 15.303 6.84 17.909 9.628 9.488 10.152 1.82 19.98-15.436 19.785l-7.75-.088v2.973c0 5.122-2.156 10.462-5.555 13.756-2.35 2.278-4.507 3.312-7.644 3.666-3.821.43-4.928.066-8.828-2.909-2.932-2.236-5.604-5.611-7.801-9.855-1.838-3.55-3.865-6.44-4.506-6.422-.641.018-3.301.407-5.91.863-6.517 1.14-11.168.06-15.277-3.549-2.933-2.575-3.476-3.705-3.457-7.2.024-4.595 1.513-6.882 7.228-11.11 2.063-1.526 3.75-3.448 3.75-4.272 0-.823-2.519-4.217-5.598-7.543-6.544-7.068-12.01-15.075-12.955-18.978-.947-3.913 1.669-7.487 6.088-8.316 2.762-.519 4.673-.085 8.6 1.953 2.777 1.44 5.396 2.619 5.818 2.619.423 0 .717-2.661.656-5.914-.092-4.971.278-6.328 2.315-8.5 1.995-2.127 4.245-2.981 6.547-2.658zM461.762 293.383c.275 0-.313.9-1.309 2-.995 1.1-2.035 2-2.31 2-.275 0 .315-.9 1.31-2 .996-1.1 2.034-2 2.309-2zM352.209 204.383c-2.457 0-5.256 3.039-5.256 5.705 0 2.604 2.336 7.763 4.776 10.545 3.376 3.85 6.224.855 6.224-6.549 0-4.806-2.898-9.701-5.744-9.701zm17.56 10.246c-1.64.26-2.494 1.507-2.97 3.81-.404 1.957-1.891 5.86-3.305 8.674-1.995 3.972-3.236 5.265-5.545 5.772-1.636.36-3.194 1.008-3.463 1.443-.859 1.39 2.112 11.005 4.075 13.188 1.04 1.157 2.792 2.471 3.892 2.922 1.1.45 3.238.847 4.75.882 2.525.059 2.75-.245 2.738-3.687-.007-2.063-.676-6.225-1.488-9.25-2.12-7.9-1.926-10.673.877-12.51 2.182-1.43 2.797-1.391 7.535.477 6.681 2.633 11.088 2.704 11.088.18 0-2.863-4.45-7.004-10.5-9.774-3.617-1.656-6.043-2.387-7.683-2.127zM373.283 187.604c-2.973-.435-6.616 1.834-10.58 6.667-2.256 2.752-2.206 3.577.438 7.153 1.203 1.628 2.724 2.959 3.379 2.959 1.983 0 8.13-2.84 9.834-4.543 2.273-2.273 2.075-8.714-.334-10.895-.83-.75-1.746-1.197-2.737-1.341z" fill="url(#a)" transform="translate(-203.204 -38.885)"/><path d="M358.652 157.994c-7.29.138-15.436.909-21.51 2.258-17.675 3.927-23.772 9.38-28.29 25.297-2.023 7.126-2.37 10.582-2.383 23.834-.01 8.525.33 16.737.754 18.25.765 2.737 3.73 3.907 3.73 1.472 0-1.865 4.8-6.807 10.25-10.552 2.613-1.796 4.75-3.704 4.75-4.24 0-.537-2.488-4.23-5.53-8.204-6.159-8.05-9.318-16.272-7.534-19.605 3.207-5.993 10.565-7.744 17.324-4.121 2.052 1.1 4.152 2 4.664 2 .527 0 .693-2.306.383-5.315-.946-9.163 4.63-15.67 12.21-14.248 4.023.755 10.712 7.696 12.428 12.897 1.375 4.165 1.507 4.21 6.4 2.166 9.462-3.954 17.683.468 20.53 11.04 1.285 4.772.165 9.869-3.074 13.987l-2.17 2.758 2.084 1.607c1.146.885 3.706 2.866 5.687 4.403 1.982 1.537 4.501 4.557 5.6 6.71 5.012 9.825.23 16.995-11.334 16.995-5.603 0-5.858.108-5.324 2.25 1.676 6.727 1.768 10.547.336 13.974-3.06 7.322-10.695 8.96-20.166 4.327-5.92-2.897-9.67-7.598-11.602-14.551-.688-2.475-1.595-4.897-2.017-5.385-.44-.508-4.594-.144-9.727.854-8.531 1.657-16.002 1.673-20.918.044-1.829-.605-2.25-.373-2.25 1.243 0 2.97 9.07 16.293 13.916 20.441 6.644 5.687 20.23 13.614 26.174 15.272 3.615 1.007 8.727 1.41 15.41 1.214 8.415-.246 10.872-.714 15.5-2.955 6.644-3.216 13.408-8.7 19.422-15.746 7.676-8.992 8.094-10.433 7.963-27.482-.143-18.545-2.022-26.362-9.922-41.287-8.553-16.16-17.2-26.399-25.39-30.06-2.65-1.185-9.083-1.68-16.374-1.542zm-12.798 16.389c-1.973 0-2.076.348-1.416 4.75 1.01 6.752 3.41 13.537 5.308 15.013 3.516 2.734 4.151.577 2.73-9.294-.787-5.472-3.948-10.47-6.622-10.47zm-22.624 15a1.29 1.29 0 0 0-1.277 1.295c0 1.388 4.617 8.952 9.5 15.562 3.459 4.683 4.873 4.777 5.31.356.237-2.384-.655-4.443-3.728-8.602-4.15-5.618-7.558-8.611-9.805-8.611zm14.284 25.193c-.849-.087-1.764 1.009-2.846 3.278-1 2.098-3.838 4.919-7.184 7.14-3.042 2.02-5.53 4.284-5.53 5.031 0 1.757 1.514 1.714 12.714-.36 7.285-1.35 9.285-2.08 9.285-3.38 0-.911-.601-2.156-1.336-2.765-.734-.61-1.931-2.914-2.66-5.122-.813-2.463-1.595-3.734-2.443-3.822z" fill="url(#a)" transform="translate(-203.204 -38.885)"/><path d="M350.168 130.719c-5.28.148-10.68 1.146-18.283 3.052-17.086 4.285-25.982 10.229-37.026 24.737-7.422 9.75-10.444 15.706-14.13 27.855-6.122 20.173-5.425 46.678 1.751 66.557 4.876 13.504 7.36 17.482 17.383 27.844 9.678 10.005 15.239 13.927 26.09 18.396 4.125 1.699 10.258 4.24 13.629 5.647 3.37 1.407 8.546 2.985 11.5 3.507 6.706 1.186 18.085.482 25.06-1.55 6.266-1.826 22.674-10.388 28.18-14.705 6.392-5.011 18.219-19.26 22.8-27.471 5.657-10.143 6.47-12.002 10.175-23.205 2.946-8.911 3.14-10.399 3.121-24-.011-7.975-.566-16.867-1.234-19.762-1.694-7.337-11.322-26.854-15.842-32.113-14.165-16.483-34.129-28.236-55.61-32.74-7.123-1.494-12.284-2.197-17.564-2.05zm9.785 13.242c11.811-.032 14.22.251 19.252 2.266 11.107 4.445 20.754 14.38 30.8 31.72 9.805 16.921 13.562 29.113 14.84 48.172.956 14.237-.071 22.064-3.925 29.942-6.284 12.843-25.077 29.136-38.262 33.168-7.814 2.39-14.898 3.01-25.705 2.251-7.731-.542-9.314-1.04-17.5-5.482-21.67-11.76-32.246-22.162-40.527-39.86-4.956-10.59-7.005-20.656-7.076-34.775-.068-13.362.971-21.1 4.275-31.82 5.298-17.193 11.947-24.44 27.645-30.137 10.838-3.932 20.61-5.403 36.183-5.445zM514.92 270.965c-3.217.13-6.562.576-11.639 1.404-16.958 2.767-22.445 4.905-32.828 12.785-8.043 6.105-13.532 11.371-12.906 12.383.281.456 1.82-.14 3.42-1.322 1.599-1.182 2.704-2.477 2.457-2.877-.248-.4.332-1.342 1.289-2.092 1.574-1.234 1.609-1.197.367.387-1.768 2.254-1.027 2.21 3.065-.186 11.085-6.489 32.766-9.867 51.187-7.976 14.576 1.495 24.434 5.803 43.11 18.838 20.253 14.136 28.717 28.928 28.597 49.98-.107 18.926-7.764 35.898-23.094 51.19-13.198 13.165-26.853 19.57-43.855 20.568-12.028.706-18.696-.864-32.934-7.758-18.819-9.112-27.418-21.28-34.572-48.906-5.604-21.64-6.948-29.653-7.043-42-.076-9.87.226-12.178 2.121-16.283 1.215-2.631 1.814-4.541 1.334-4.245-.48.297-1.039.04-1.242-.57-.772-2.315-5.78 9.052-8.856 20.098-5.032 18.08-4.965 35.13.207 52.365 4.153 13.836 12.58 28.411 21.813 37.73 5.296 5.346 8.714 7.674 18.035 12.286 6.596 3.263 14.272 6.247 18 6.998 9.078 1.827 39.727 1.875 47.701.074 13.824-3.122 24.103-10.382 34.795-24.576 8.09-10.74 9.92-14.332 14.627-28.703 2.96-9.033 3.175-10.668 3.264-24.674.087-13.671-.157-15.882-2.762-24.967-3.834-13.376-6.51-18.716-14.193-28.318-9.045-11.305-14.986-16.16-26.953-22.037-12.77-6.271-18.054-7.79-31.639-9.098-4.567-.44-7.656-.628-10.873-.498z" fill="url(#a)" transform="translate(-203.204 -38.885)"/></svg>