<svg xmlns:osb="http://www.openswatchbook.org/uri/2009/osb" xmlns="http://www.w3.org/2000/svg" height="937.187" width="629.904"><defs><linearGradient osb:paint="solid" id="c"><stop offset="0" stop-color="#fff"/></linearGradient><linearGradient osb:paint="solid" id="b"><stop offset="0"/></linearGradient><linearGradient osb:paint="solid" id="a"><stop offset="0" stop-color="#162d50"/></linearGradient><linearGradient osb:paint="solid" id="d"><stop offset="0" stop-color="#d40000"/></linearGradient></defs><path d="M357.952 20.994c-17.529.006-31.946.064-43.932.2-11.986.138-21.541.354-29.343.677-7.803.323-13.853.752-18.83 1.318-4.978.566-8.883 1.266-12.395 2.13-4.4 1.084-12.275 2.48-17.5 3.104-5.225.624-11.975 1.766-15 2.538-3.025.772-14.275 2.804-25 4.515-10.725 1.711-21.3 3.523-23.5 4.026-2.2.503-10.975 1.636-19.5 2.52-8.342.864-15.341 1.764-21.332 2.814a131.9 131.9 0 0 0-8.271 1.699 81.724 81.724 0 0 0-7.012 2.008 56.957 56.957 0 0 0-6.002 2.404 46.997 46.997 0 0 0-5.242 2.88 48.064 48.064 0 0 0-4.739 3.448 61.669 61.669 0 0 0-4.482 4.098c-2.506 2.512-4.574 4.848-6.336 7.32a39.992 39.992 0 0 0-2.43 3.848 43.293 43.293 0 0 0-2.066 4.283c-1.278 3.052-2.38 6.55-3.436 10.805-1.055 4.253-2.062 9.263-3.154 15.34-.444 2.474-1.164 5.681-1.965 8.853-.8 3.172-1.682 6.309-2.453 8.646a74.016 74.016 0 0 0-1.947 7.182c-.581 2.624-1.096 5.497-1.555 8.674-.917 6.353-1.607 13.922-2.13 23.144-.329 5.775-1.903 19.95-3.499 31.5s-5.167 39.675-7.933 62.5c-2.767 22.825-5.917 46.225-7.002 52-1.085 5.775-2.45 14.735-3.033 19.91-.584 5.176-1.248 9.712-1.475 10.08-.403.652-1.003 4.073-1.64 8.997-.638 4.923-1.312 11.35-1.856 18.013-.607 7.425-1.736 17.143-2.508 21.596-.772 4.453-1.899 12.979-2.506 18.945-.607 5.967-2.393 17.849-3.969 26.405-1.576 8.555-3.16 18.93-3.52 23.054-.359 4.125-1.51 12.225-2.558 18-1.248 6.88-2.212 12.84-2.957 19.625-.744 6.786-1.268 14.394-1.635 24.57-.366 10.177-.574 22.922-.687 39.975-.113 17.053-.132 38.416-.117 65.83.013 24.785.082 46.074.217 64.334.134 18.26.334 33.493.61 46.162.277 12.67.63 22.778 1.07 30.79.438 8.011.962 13.927 1.583 18.214.329 2.266.964 5.365 1.781 8.848.818 3.483 1.82 7.351 2.877 11.156a269.986 269.986 0 0 0 3.225 10.78c1.05 3.232 2.032 5.953 2.824 7.716 1.36 3.025 5.3 11.575 8.756 19 3.457 7.425 6.612 14.625 7.012 16 .448 1.541 1.446 3.801 2.775 6.414 1.33 2.614 2.99 5.582 4.762 8.536a156.878 156.878 0 0 0 5.43 8.455c1.775 2.562 3.442 4.745 4.78 6.183 1.267 1.36 2.382 2.487 3.565 3.526a34.064 34.064 0 0 0 3.975 2.992c3.08 2.008 7.315 4.233 14.46 7.824 3.719 1.868 6.697 3.34 9.35 4.566 2.654 1.227 4.982 2.208 7.405 3.1 2.423.892 4.939 1.695 7.965 2.559 3.026.864 6.562 1.79 11.025 2.933l19.5 4.996 50-.492c18.067-.178 31.504-.41 41.643-.738 10.138-.328 16.979-.753 21.857-1.318 7.425-.86 15.975-2.01 19-2.553 7.706-1.384 20.165-4.03 31.936-6.701 11.77-2.672 22.85-5.371 27.8-6.86 6.18-1.858 15.63-4.287 21-5.396 7.335-1.516 15.563-3.352 24.188-5.393 8.625-2.04 17.648-4.287 26.576-6.619l23-6.008c4.927-1.287 7.983-2.192 9.963-3.066.99-.437 1.71-.867 2.262-1.332a5.11 5.11 0 0 0 1.244-1.549c.456-.852 1.11-1.604 2.035-2.281.926-.678 2.125-1.282 3.672-1.84 1.547-.558 3.442-1.07 5.762-1.563 2.32-.493 5.064-.966 8.308-1.449 3.695-.55 7.04-1.09 10.113-1.662 3.074-.572 5.877-1.177 8.485-1.853 2.608-.677 5.022-1.427 7.318-2.29a56.844 56.844 0 0 0 6.615-2.97 62.22 62.22 0 0 0 6.38-3.897c2.138-1.48 4.315-3.157 6.607-5.07 4.582-3.825 9.625-8.596 15.748-14.639 3.585-3.538 6.498-6.555 8.91-9.326 2.411-2.77 4.32-5.294 5.894-7.842 1.575-2.547 2.816-5.12 3.89-7.99 1.073-2.869 1.979-6.035 2.888-9.77.595-2.443 1.067-4.54 1.451-6.642.384-2.102.678-4.208.92-6.668.483-4.92.752-11.254 1.08-21.807.206-6.636.584-13.614 1.123-20.832a609.403 609.403 0 0 1 2.088-22.267 699.023 699.023 0 0 1 6.797-46.4c1.046-5.776 2.376-15.226 2.957-21a502.581 502.581 0 0 1 2.892-23.313c1.164-7.883 2.545-15.995 4.194-24.688 1.617-8.525 2.932-16.914 2.922-18.642-.01-1.729 1.505-10.279 3.367-19 1.862-8.722 5.266-25.983 7.562-38.358 2.297-12.375 5.015-26.775 6.04-32 .504-2.571.975-5.542 1.421-9.005.447-3.464.869-7.42 1.274-11.961.81-9.085 1.554-20.513 2.299-35.034.6-11.689 1.29-23.133 1.99-33.183s1.41-18.706 2.05-24.817c.275-2.612.526-7.574.711-13.464.186-5.891.306-12.71.313-19.036.007-6.325.121-13.2.299-19.181.177-5.982.419-11.069.681-13.819 1.344-14.06 2.382-26.294 3.125-37.285.744-10.99 1.193-20.738 1.358-29.832.165-9.093.047-17.532-.346-25.9-.392-8.368-1.06-16.667-1.988-25.483-1.246-11.825-2.694-28.475-3.217-37-.727-11.835-1.356-21.197-2.023-28.884-.668-7.688-1.374-13.701-2.258-18.842-.442-2.57-.929-4.922-1.477-7.156a87.057 87.057 0 0 0-1.845-6.448c-1.376-4.195-3.066-8.318-5.21-13.17-1.73-3.917-3.443-7.502-5.13-10.742-1.688-3.24-3.35-6.134-4.975-8.668-1.625-2.533-3.215-4.707-4.76-6.506-1.545-1.798-3.044-3.221-4.49-4.255a67.577 67.577 0 0 0-6.367-4.018 80.671 80.671 0 0 0-7.066-3.494 84.07 84.07 0 0 0-7.471-2.842 76.678 76.678 0 0 0-7.578-2.063c-5.394-1.166-10.543-2.51-11.442-2.988-.72-.383-5.392-1.316-15.468-3.05-10.077-1.735-25.558-4.27-47.897-7.856-6.04-.97-11.547-1.737-17.5-2.342-5.953-.605-12.35-1.046-20.172-1.367-7.821-.32-17.065-.52-28.71-.637-11.646-.117-25.693-.153-43.118-.146z" style="isolation:auto;mix-blend-mode:normal" color="#000" overflow="visible" fill="#fff"/><path d="M359.452.005c-22.495-.01-39.467-.013-52.576.057-13.109.07-22.353.213-29.393.496-7.039.283-11.874.707-16.16 1.336-4.286.63-8.023 1.465-12.871 2.574-4.4 1.007-10.7 2.109-14 2.45-3.3.34-11.4 1.735-18 3.1-7.84 1.62-22.31 4.099-36.648 6.366-14.339 2.268-28.544 4.323-35.852 5.098-5.24.556-10.168 1.237-14.805 2.059-4.636.821-8.983 1.782-13.064 2.896-4.08 1.115-7.896 2.383-11.469 3.818-3.573 1.436-6.902 3.037-10.015 4.82a68.217 68.217 0 0 0-8.711 5.909 65.776 65.776 0 0 0-7.545 7.074 72.698 72.698 0 0 0-6.53 8.328c-2.022 2.994-3.899 6.21-5.654 9.662-.652 1.284-1.408 3.186-2.187 5.432a136.905 136.905 0 0 0-2.332 7.488 152.98 152.98 0 0 0-2.012 7.885c-.564 2.509-.995 4.806-1.217 6.615-.443 3.62-1.207 7.541-2.242 11.573a118.87 118.87 0 0 1-3.867 12.228c-.598 1.588-1.145 3.548-1.659 6.033-.514 2.486-.995 5.496-1.464 9.184-.94 7.376-1.828 17.464-2.82 31.482-.312 4.4-1.412 13.85-2.444 21s-2.81 20.65-3.951 30l-2.989 24.5a4453.832 4453.832 0 0 1-2.912 23c-1.1 8.525-2.508 20-3.13 25.5-.623 5.5-1.949 13.825-2.946 18.5-.997 4.675-2.088 11.74-2.426 15.698-.337 3.958-1.255 10.033-2.039 13.5-.784 3.466-1.914 12.152-2.51 19.302-.731 8.787-2.11 20.869-3.755 33.338-1.645 12.47-3.555 25.326-5.346 35.662-1.62 9.35-3.422 21.725-4.006 27.5-.584 5.775-1.703 13.425-2.486 17-.392 1.788-.975 5.838-1.6 10.922a624.87 624.87 0 0 0-1.845 17.131c-.47 5.01-.831 9.306-1.108 14.408-.276 5.103-.468 11.01-.6 19.239-.262 16.456-.284 42.197-.257 89.353.027 47.404.174 78.317.593 101.104.21 11.393.488 20.755.854 29.13.366 8.376.82 15.765 1.38 23.213.434 5.756 1.104 11.255 2.067 16.692.964 5.437 2.22 10.81 3.826 16.316 1.607 5.506 3.564 11.144 5.926 17.106 2.362 5.962 5.13 12.249 8.361 19.054 3.7 7.792 7.294 15.892 7.989 18 .695 2.109 4.598 9.947 8.672 17.42 3.143 5.767 5.305 9.47 7.548 12.59a53.12 53.12 0 0 0 3.561 4.426c1.296 1.453 2.746 2.945 4.482 4.662 1.83 1.809 3.36 3.271 4.84 4.559a46.44 46.44 0 0 0 4.55 3.507c1.636 1.109 3.476 2.215 5.775 3.487 2.298 1.272 5.054 2.71 8.519 4.488a195.082 195.082 0 0 0 14.176 6.572 204.088 204.088 0 0 0 15.02 5.555 242.115 242.115 0 0 0 16.296 4.676c5.693 1.428 11.671 2.735 18.006 3.941h.002c1.64.312 4.526.557 8.363.74 3.838.183 8.626.304 14.075.37 10.897.13 24.433.037 38.263-.235 13.831-.272 27.957-.723 40.037-1.305 6.04-.29 11.57-.615 16.293-.966 4.724-.352 8.644-.73 11.467-1.13 4.135-.585 10.015-1.623 16.682-2.905 6.667-1.283 14.12-2.81 21.4-4.375 7.28-1.567 14.385-3.173 20.358-4.61 5.973-1.437 10.813-2.705 13.56-3.6 4.125-1.343 11.775-3.384 17-4.535a1817.66 1817.66 0 0 0 40.131-9.3c12.441-3.04 23.799-5.98 33.635-8.696 9.836-2.716 18.15-5.208 24.5-7.357 3.175-1.075 5.858-2.064 7.996-2.951 2.138-.888 3.73-1.673 4.72-2.342a17.714 17.714 0 0 1 3.14-1.662c1.05-.427 2.02-.692 2.655-.692 1.338 0 3.469-.335 6.043-.902 2.575-.567 5.594-1.367 8.71-2.295a164.612 164.612 0 0 0 9.289-3.062c2.96-1.08 5.67-2.187 7.78-3.213a70.229 70.229 0 0 0 9.083-5.256c2.927-2.001 5.847-4.314 9.043-7.135a386.688 386.688 0 0 0 11.562-10.633 326.972 326.972 0 0 0 10.2-10.19c3.074-3.22 5.776-6.213 7.956-8.825 2.18-2.612 3.84-4.843 4.833-6.54a64.665 64.665 0 0 0 3.097-6.03 85.104 85.104 0 0 0 2.73-6.852c.848-2.413 1.63-4.953 2.348-7.606.718-2.652 1.37-5.419 1.953-8.289 1.167-5.74 2.061-11.892 2.665-18.367.603-6.475.916-13.273.92-20.305.001-3.972.042-7.394.165-10.748.124-3.353.329-6.636.659-10.33.66-7.387 1.818-16.416 3.818-30.922.834-6.05 1.924-14.15 2.422-18 .497-3.85 1.801-11.95 2.896-18 1.096-6.05 2.733-17.525 3.639-25.5 1.273-11.205 2.1-18.147 2.879-23.566.778-5.42 1.506-9.316 2.578-14.434 1.094-5.225 2.63-14.225 3.414-20 .783-5.775 3.002-18.15 4.93-27.5 2.781-13.49 5.149-25.357 7.135-35.808 1.985-10.452 3.59-19.489 4.845-27.315 1.256-7.825 2.163-14.442 2.756-20.054.593-5.613.871-10.221.867-14.034-.004-3.837.093-7.13.596-14.166.503-7.035 1.413-17.814 3.037-36.623.451-5.225.95-13.911 1.39-23.699.44-9.787.821-20.676 1.038-30.3.216-9.626.588-20.233 1.014-29.567.425-9.334.905-17.396 1.334-21.934.857-9.075 2.012-21.675 2.564-28 .323-3.703.567-9.129.732-15.347.165-6.219.25-13.23.256-20.1.005-6.87-.069-13.599-.224-19.256-.156-5.657-.393-10.242-.711-12.822-.927-7.51-1.946-18.006-2.91-29.686a1516.713 1516.713 0 0 1-2.579-36.789c-.46-8.018-.994-14.972-1.662-21.181-.667-6.21-1.47-11.674-2.472-16.719-1.002-5.045-2.202-9.67-3.666-14.193-1.465-4.524-3.192-8.947-5.246-13.594-2.68-6.062-5.627-11.973-8.606-17.313a158.291 158.291 0 0 0-4.463-7.527 103.377 103.377 0 0 0-4.336-6.355c-.841-1.132-1.934-2.323-3.228-3.547-1.295-1.225-2.791-2.482-4.442-3.744-3.3-2.525-7.216-5.07-11.357-7.416-4.141-2.347-8.51-4.494-12.713-6.221a79.893 79.893 0 0 0-6.135-2.248c-1.971-.626-3.853-1.12-5.597-1.453-4.3-.823-10.807-2.383-14.461-3.467-1.827-.542-5.626-1.38-10.274-2.293a478.035 478.035 0 0 0-15.369-2.748c-10.45-1.689-29.125-4.721-41.5-6.738l-22.5-3.668-86-.038zm-1.5 20.989c17.425-.007 31.472.03 43.117.146 11.646.117 20.89.316 28.711.637 7.822.32 14.22.762 20.172 1.367 5.953.605 11.46 1.373 17.5 2.342 22.34 3.585 37.82 6.121 47.897 7.855 10.076 1.735 14.748 2.668 15.468 3.051.9.478 6.048 1.822 11.442 2.988a76.678 76.678 0 0 1 7.578 2.063 84.07 84.07 0 0 1 7.47 2.842 80.671 80.671 0 0 1 7.067 3.494 67.577 67.577 0 0 1 6.367 4.018c1.446 1.034 2.945 2.457 4.49 4.255 1.545 1.799 3.135 3.973 4.76 6.506 1.625 2.534 3.287 5.428 4.975 8.668 1.687 3.24 3.4 6.825 5.13 10.742 2.144 4.852 3.834 8.975 5.21 13.17a87.057 87.057 0 0 1 1.845 6.448 103.676 103.676 0 0 1 1.477 7.156c.884 5.14 1.59 11.154 2.258 18.842.667 7.687 1.296 17.05 2.023 28.884.523 8.525 1.97 25.175 3.217 37 .929 8.816 1.596 17.115 1.988 25.483.393 8.368.51 16.807.346 25.9-.165 9.094-.614 18.841-1.358 29.832-.743 10.991-1.781 23.225-3.125 37.285-.262 2.75-.504 7.837-.681 13.819a696.91 696.91 0 0 0-.299 19.181 650.54 650.54 0 0 1-.313 19.036c-.185 5.89-.436 10.852-.71 13.464-.642 6.111-1.351 14.767-2.051 24.817-.7 10.05-1.39 21.494-1.99 33.183-.745 14.521-1.49 25.95-2.3 35.034-.404 4.542-.826 8.497-1.273 11.96-.446 3.464-.917 6.435-1.422 9.006-1.024 5.225-3.742 19.625-6.039 32-2.296 12.375-5.7 29.636-7.562 38.358-1.862 8.721-3.377 17.271-3.367 19 .01 1.728-1.305 10.117-2.922 18.642-1.65 8.693-3.03 16.805-4.194 24.688a502.581 502.581 0 0 0-2.892 23.312c-.58 5.775-1.911 15.225-2.957 21a699.023 699.023 0 0 0-6.797 46.4 609.403 609.403 0 0 0-2.088 22.268 481.579 481.579 0 0 0-1.123 20.832c-.328 10.553-.597 16.888-1.08 21.807a79.525 79.525 0 0 1-.92 6.668c-.384 2.102-.856 4.199-1.451 6.643-.91 3.734-1.815 6.9-2.889 9.77-1.073 2.868-2.314 5.442-3.889 7.99-1.574 2.547-3.483 5.07-5.894 7.841-2.412 2.77-5.325 5.788-8.91 9.326-6.123 6.043-11.166 10.814-15.748 14.639-2.292 1.913-4.47 3.59-6.608 5.07a62.22 62.22 0 0 1-6.379 3.897 56.844 56.844 0 0 1-6.615 2.97c-2.296.863-4.71 1.613-7.318 2.29-2.608.676-5.41 1.28-8.485 1.853-3.073.572-6.418 1.113-10.113 1.662-3.244.483-5.989.956-8.308 1.45-2.32.492-4.215 1.004-5.762 1.562-1.547.558-2.746 1.162-3.672 1.84-.926.677-1.58 1.429-2.035 2.281a5.11 5.11 0 0 1-1.244 1.549c-.552.465-1.272.895-2.262 1.332-1.98.874-5.036 1.78-9.963 3.066l-23 6.008a1192.257 1192.257 0 0 1-26.576 6.62c-8.625 2.04-16.853 3.876-24.188 5.392-5.37 1.11-14.82 3.538-21 5.396-4.95 1.489-16.03 4.188-27.8 6.86-11.77 2.672-24.23 5.317-31.936 6.7-3.025.544-11.575 1.693-19 2.554-4.878.565-11.719.99-21.857 1.318-10.14.328-23.576.56-41.643.738l-50 .492-19.5-4.996c-4.463-1.143-8-2.07-11.025-2.933-3.026-.864-5.542-1.667-7.965-2.559-2.423-.892-4.751-1.873-7.404-3.1-2.654-1.226-5.632-2.698-9.35-4.566-7.146-3.59-11.38-5.816-14.461-7.824a34.064 34.064 0 0 1-3.975-2.992c-1.183-1.039-2.298-2.166-3.564-3.526-1.34-1.438-3.006-3.621-4.781-6.183a156.878 156.878 0 0 1-5.43-8.455c-1.772-2.954-3.432-5.922-4.762-8.536-1.33-2.613-2.327-4.873-2.775-6.414-.4-1.375-3.555-8.575-7.012-16-3.457-7.425-7.397-15.975-8.756-19-.792-1.763-1.774-4.484-2.824-7.716a269.986 269.986 0 0 1-3.225-10.78 290.168 290.168 0 0 1-2.877-11.156c-.817-3.483-1.452-6.582-1.78-8.848-.622-4.287-1.146-10.203-1.585-18.214-.438-8.012-.792-18.12-1.068-30.79-.277-12.669-.477-27.901-.611-46.162-.135-18.26-.204-39.549-.217-64.334-.015-27.414.004-48.777.117-65.83.113-17.053.321-29.798.687-39.974.367-10.177.89-17.785 1.635-24.57.745-6.786 1.71-12.747 2.957-19.626 1.048-5.775 2.2-13.875 2.559-18 .36-4.125 1.943-14.499 3.52-23.054 1.575-8.556 3.361-20.438 3.968-26.405.607-5.966 1.734-14.492 2.506-18.945.772-4.453 1.901-14.17 2.508-21.596.544-6.663 1.218-13.09 1.855-18.013.638-4.924 1.238-8.345 1.64-8.996.228-.369.892-4.905 1.476-10.08.583-5.176 1.948-14.136 3.033-19.91 1.085-5.776 4.235-29.176 7.002-52 2.766-22.826 6.337-50.95 7.933-62.5 1.596-11.55 3.17-25.726 3.498-31.5.524-9.223 1.214-16.792 2.131-23.145.459-3.177.974-6.05 1.555-8.674.58-2.624 1.228-5 1.947-7.182.77-2.337 1.653-5.474 2.453-8.646.801-3.172 1.52-6.379 1.965-8.854 1.092-6.076 2.1-11.086 3.154-15.34 1.055-4.253 2.158-7.752 3.436-10.804a43.293 43.293 0 0 1 2.066-4.283 39.992 39.992 0 0 1 2.43-3.848c1.762-2.472 3.83-4.808 6.336-7.32a61.669 61.669 0 0 1 4.482-4.098 48.064 48.064 0 0 1 4.739-3.447 46.997 46.997 0 0 1 5.242-2.881 56.957 56.957 0 0 1 6.002-2.404 81.724 81.724 0 0 1 7.012-2.008 131.9 131.9 0 0 1 8.271-1.7c5.99-1.049 12.99-1.95 21.332-2.814 8.525-.883 17.3-2.016 19.5-2.52 2.2-.502 12.775-2.314 23.5-4.025 10.725-1.71 21.975-3.743 25-4.515 3.025-.772 9.775-1.914 15-2.538 5.225-.623 13.1-2.02 17.5-3.103 3.512-.865 7.417-1.565 12.395-2.13 4.977-.567 11.027-.996 18.83-1.32 7.802-.322 17.357-.538 29.343-.675s26.403-.195 43.932-.201z" style="isolation:auto;mix-blend-mode:normal" color="#000" overflow="visible"/><path d="M338.72 818.395c-1.349.267-2.588 1.708-4.47 4.472-2.173 3.191-3.147 10.779-1.584 12.342.888.888.851.894 5.115-.885 3.943-1.644 10.23-7.127 10.2-8.894-.01-.58-1.867-2.591-4.127-4.47-2.323-1.928-3.784-2.833-5.133-2.565zM654.658 788.201c-.405-.405-2.323.115-4.26 1.158-3.709 1.998-3.81 2.67-1.384 9.053.549 1.444 1.558 2.445 2.242 2.223 1.482-.481 4.463-11.374 3.402-12.434zM378.275 784.807l.047 5.285c.112 12.563-11.564 23.144-17.478 15.84-2.47-3.051-2.328-4.882.736-9.391 3.02-4.443 2.589-6.66-1.299-6.68-1.53-.008-3.86-.301-5.177-.654-2.225-.595-2.346-.433-1.69 2.264 1.869 7.68 1.841 8.566-.353 11.535-2.765 3.74-2.346 5.977 1.45 7.744 4.699 2.186 6.489 4.206 6.489 7.316 0 1.585.746 4.018 1.658 5.41 1.02 1.556 1.938 5.902 2.383 11.276.78 9.425 3.248 15.81 7.168 18.557 4.16 2.913 6.692 2.046 8.955-3.07 3.285-7.426 2.33-14.835-3.451-26.794-5.236-10.83-5.52-12.352-2.9-15.588 1.67-2.064 2.71-2.252 13.25-2.396 8.074-.11 12.994-.689 16.734-1.967l5.297-1.81-.297-5.645c-.26-4.925-.624-5.801-2.852-6.865-2.565-1.225-11.19-2.666-22.558-3.772l-6.112-.595zM332.957 774.72l-6.728.64c-9.904.939-12.229 1.52-12.229 3.056 0 .76 1.688 1.824 3.75 2.365 2.063.541 6.225 1.644 9.25 2.45 3.025.805 6.076 1.504 6.781 1.554 2.185.155 2.58-2.93.84-6.578l-1.664-3.486zM339.666 748.88c-1.427-.28-2.78.128-3.26 1.38-.707 1.844 1.867 7.824 6.397 14.857 3.53 5.48 6.197 7.359 6.197 4.363 0-2.026-3.98-14.636-5.637-17.855-.77-1.498-2.27-2.464-3.697-2.744zM372.129 741.084c-1.376.115-2.36.357-2.604.75-1.202 1.945-3.484 19.921-3.505 27.61-.02 6.98.02 7.089 3.23 8.699 4.51 2.262 6.058 1.77 6.867-2.188.483-2.358 2.543-5.172 6.684-9.125 3.773-3.601 6.238-6.862 6.668-8.818.803-3.66-1.719-13.269-3.975-15.14-1.602-1.33-9.238-2.133-13.365-1.788z" fill="url(#d)" transform="translate(-185.048 -31.407)"/><path d="M589.06 719.426a85.596 85.596 0 0 0-7.14.453c-19.52 2.137-26.754 3.81-34.955 8.076-10.412 5.417-15.243 9.789-18.897 17.1-3.628 7.261-3.787 10.593-1.603 33.82 2.197 23.373 5.843 34.311 16.74 50.22 6.832 9.976 18.263 21.084 26.08 25.342 2.868 1.563 9.04 4.305 13.715 6.094 4.675 1.79 9.24 3.274 10.145 3.3 4.414.122 15.173-4.343 20.98-8.708C623.48 848.091 640 831.248 640 828.744c0-1.724-.406-1.975-2.25-1.394-14.622 4.602-20.74 4.712-29.59.525-3.487-1.65-6.786-3-7.33-3-.544 0-2.984 1.995-5.422 4.434-9.718 9.717-26.967 14.221-37.008 9.662-7.208-3.274-11.4-11.668-9.449-18.916 1.085-4.028 6.899-13.546 11.41-18.68 1.45-1.65 2.636-3.486 2.637-4.08 0-.594-3.485-1.833-7.748-2.756-9.439-2.043-15.458-5.474-17.629-10.049-4.77-10.052 1.077-18.763 15.135-22.549 2.334-.628 4.24-1.462 4.24-1.853-.002-.391-1.127-2.925-2.5-5.631-1.373-2.706-2.496-6.47-2.496-8.365 0-7.736 7.982-16.01 16.357-16.953 5.761-.65 10.415.972 15.094 5.257 2.09 1.914 4.306 3.463 4.924 3.442.618-.021 2.025-1.484 3.125-3.25 4.454-7.152 17.765-10.168 26.104-5.914 5.127 2.616 10.801 8.87 12.376 13.642.92 2.788.949 4.78.12 8.073-1.581 6.279-1.568 6.303 3.65 6.982 9.248 1.204 14.258 2.729 18.084 5.5 5.486 3.974 6.59 2.89 5.738-5.635-1.511-15.143-6.674-24.31-16.513-29.33-10.128-5.166-34.28-8.92-51.998-8.48zm18.864 21.437c-1.358.046-2.724.37-3.951 1.028-1.181.632-2.852 4.043-4.434 9.05-3.53 11.177-3.47 11.523 2.211 12.707 8.453 1.762 9.25 1.607 9.25-1.806 0-1.668 1.125-5.254 2.5-7.967s2.5-6.048 2.5-7.41c0-3.372-4.003-5.738-8.076-5.602zm-37.367 2.285a4.885 4.885 0 0 0-1.596.239c-3.053.969-2.53 5.57 1.02 8.97 1.64 1.571 4.124 4.505 5.521 6.52 1.397 2.015 3.204 3.666 4.018 3.666 1.786 0 1.784.068.123-6.168-2.29-8.592-5.435-13.143-9.086-13.227zm51.047 27.547c-2.126-.126-3.59-.13-3.79.053-.377.345-.173 2.54.456 4.877 1.459 5.43-.29 14.58-3.426 17.918-3.799 4.043-9.203 2.583-11.201-3.025-.364-1.022-.182-3.644.406-5.827 1.398-5.193.307-6.43-6.33-7.187-7.38-.841-12.136.37-12.543 3.191-.761 5.276 10.068 20.18 14.662 20.18 2.966 0 6.723 3.535 9.076 8.541 1.483 3.155 3.157 5.02 5.37 5.982 4.22 1.836 8.202 1.82 14.536-.062 3.343-.993 5.773-2.44 6.842-4.07 1.55-2.365 1.541-2.9-.129-8.2-.983-3.118-2.63-7.243-3.66-9.166-3.717-6.934-1.311-11.803 7.428-15.03 4.49-1.66 5.92-4.277 2.998-5.49-1.993-.826-14.32-2.306-20.695-2.685zm-56.678 3.7c-1.071-.208-2.633.058-5.705.6-4.875.858-6.221 1.478-6.221 2.866 0 1.394 1.547 2.094 7.25 3.282 3.988.83 7.813 1.56 8.5 1.62 1.968.177 1.395-3.122-1.064-6.126-1.108-1.353-1.69-2.035-2.76-2.242zm14.576 28.48c-1.447 0-10.69 9.564-13.908 14.39-2.783 4.174-3.37 8.099-1.344 9 2.171.968 9.753-.299 14.59-2.435 5.222-2.307 11.16-7.556 11.16-9.867 0-1.728-8.863-11.088-10.498-11.088zM376.992 709.688c-15.106.053-23.933 1.444-34.324 5.408-10.239 3.905-32.657 18.742-39.02 25.822-10.322 11.487-25.66 48.237-25.642 61.437.009 6.361 3.148 19.553 6.406 26.92 3.67 8.3 11.077 18.885 19.428 27.766 10.249 10.9 24.785 20.834 30.484 20.834 1.323 0 3.672.997 5.22 2.215 1.55 1.218 5.098 3.005 7.886 3.969 10.908 3.77 27.679 1.638 37.341-4.748 8.734-5.773 25.529-23.248 32.276-33.584 6.837-10.475 17.78-32.221 20.81-41.352 7.166-21.596 6.552-49.478-1.375-62.527-5.185-8.537-17.52-19.78-26.482-24.139-14.105-6.86-19.09-8.071-33.008-8.021zm-1.674 17.035c13.604.225 19.495 3.42 24.536 13.302 4.804 9.42 5.394 17.777 1.779 25.166-1.449 2.962-2.633 5.809-2.633 6.327 0 .518 3.195 1.69 7.1 2.607 13.509 3.17 18.354 9.804 17.748 24.3-.32 7.638-.594 8.583-3.348 11.513-4.063 4.322-11.446 7.622-20.215 9.037-4.007.646-7.285 1.578-7.285 2.07 0 .492.945 3.691 2.102 7.111 2.823 8.35 2.35 21.068-1.034 27.719-2.707 5.323-6.529 9.636-10.27 11.59-4.376 2.286-10.915 1.751-16.915-1.383-6.413-3.35-11.153-9.21-13.522-16.725-.95-3.015-2.054-5.482-2.453-5.482s-3.02 1.192-5.828 2.648c-17.406 9.03-31.58-2.438-26.676-21.584 1.796-7.008 3.85-10.422 10.346-17.195 7.136-7.44 7.036-7.536-14.25-13.387-4.978-1.368-6.955-2.624-11.598-7.37-3.078-3.148-5.817-6.88-6.088-8.298-1.494-7.817 5.54-14.043 18.327-16.22l7.359-1.254-.34-7.045c-.393-8.152 1.037-11.83 6.088-15.65 6.858-5.189 15.913-5.452 22.03-.641 1.395 1.098 2.961 1.996 3.48 1.996.518 0 2.355-2.27 4.08-5.045 3.945-6.347 8.077-8.263 17.48-8.107z" fill="url(#d)" transform="translate(-185.048 -31.407)"/><path d="M352.902 678.074c-4.07.225-7.187.756-11.87 1.733-18.211 3.797-33.314 11.722-49.68 26.068-11.465 10.05-22.633 24.715-30.08 39.5-1.109 2.2-4.02 7.825-6.471 12.5-6.22 11.864-7.807 16.25-9.403 26-2.943 17.98-1.361 36.053 4.813 55 7.381 22.65 18.875 42.43 31.398 54.03 19.28 17.857 37.32 27.49 58.891 31.449 4.734.868 11.048 1.273 15.467.99 8.818-.566 22.513-4.503 29.535-8.49 4.197-2.384 15.75-13.435 24.102-23.055 1.157-1.333 5.135-4.899 8.84-7.924 10.097-8.247 25.477-25.597 30.658-34.588 14.052-24.386 19.696-42.578 20.603-66.412.975-25.614-1.528-38.504-11.414-58.771-7.949-16.297-23.462-30.156-43.791-39.12-15.296-6.744-22.46-8.178-44-8.806-8.501-.248-13.527-.329-17.598-.104zm28.131 17.11c8.322.186 14.932 1.64 23.621 4.904 13.645 5.125 22.632 10.915 32.346 20.84 14.848 15.17 18.78 24.584 19.73 47.22.842 20.066-2.342 35.082-11.822 55.735-10.096 21.997-18.57 34.665-33.35 49.867-12.204 12.553-21.853 19.928-30.425 23.256-4.56 1.77-8.11 2.241-18.633 2.469-14.805.32-17.125-.054-27.5-4.422-21.822-9.188-38.957-22.998-52.934-42.664-11.303-15.906-16.867-30.458-17.78-46.514-.635-11.149.506-16.516 7.083-33.318 12.863-32.861 19.928-42.323 43.098-57.723 21.29-14.151 32.442-17.919 57.533-19.436 3.295-.199 6.26-.277 9.033-.214zM585.344 676.207c-19.654-.576-42.156 3.175-56.022 9.623-13.69 6.366-26.375 17.65-35.636 31.703-6.218 9.433-8.17 14.043-10.635 25.108-4.123 18.51-1.129 51.647 6.506 72.007 6.76 18.03 16.302 32.143 32.945 48.727 11.57 11.53 14.513 13.858 26.021 20.594 15.924 9.32 22.605 12.265 33.516 14.777 11.747 2.705 20.735 2.63 32.172-.271 12.36-3.136 18.907-6.558 25.87-13.52 8.436-8.437 13.919-20.917 13.919-31.684 0-2.77.499-4.374 1.479-4.75 4.11-1.577 17.115-12.66 22.115-18.847 7.204-8.917 9.722-13.465 13.543-24.45 2.785-8.01 3.123-10.32 3.558-24.349.557-17.927-1.01-35.07-3.914-42.844-3.512-9.399-12.99-22.323-21.54-29.37-20.37-16.79-50.294-29.418-75.682-31.936a118.635 118.635 0 0 0-8.215-.518zm13.336 29.07c10.627.272 20.819 1.7 31.32 4.303 12.775 3.167 20.655 6.957 27.21 13.09 9.99 9.344 13.715 19.3 14.52 38.803.869 21.026-2.52 36.755-13.425 62.318-5.35 12.542-8.411 16.89-19.49 27.693-16.22 15.817-24.362 21.422-35.97 24.764-7.637 2.2-12.062 2.004-20.345-.9-23.418-8.21-39.267-20.8-53.814-42.75-9.909-14.95-14.81-31.05-16.707-54.885-2.248-28.244-.355-37.232 10.216-48.494 10.796-11.502 24.398-18.311 42.557-21.309 12.24-2.02 23.3-2.905 33.928-2.633z" fill="url(#a)" transform="translate(-185.048 -31.407)"/><path d="M609.42 586.875c-1.73 0-9.963 9.182-12.205 13.61-2.686 5.304-3.51 9.683-2.711 14.411.57 3.379 1.042 3.979 3.133 3.979 3.928 0 7.63-2.442 13.795-9.1 7.916-8.55 8.572-10.216 5.379-13.668-1.39-1.502-3.364-4.194-4.385-5.982-1.022-1.788-2.375-3.25-3.006-3.25zm30.426 11.213c-.808-.158-2.055.809-2.772 2.148-1.086 2.03-1.04 3.725.27 10.15.865 4.243 2.295 8.816 3.177 10.163 1.057 1.612 2.352 2.343 3.792 2.139 1.964-.28 2.16-.832 1.921-5.415-.337-6.47-4.444-18.805-6.388-19.185zM384.213 579.508l-3.475 3.683c-1.91 2.027-4.435 3.684-5.607 3.684-1.422 0-2.131.628-2.131 1.885 0 3.229 7.907 17.86 11.107 20.552 4.067 3.422 7.645 3.402 8.51-.046 1.826-7.276-1.438-21.121-6.441-27.325l-1.963-2.433zM651.055 575.031c-1.396-.102-2.151.604-2.604 2.094-1.18 3.883-5.58 8.905-9.084 10.37-1.852.773-3.367 1.857-3.367 2.407 0 1.301 2.23 5.28 3.451 6.157.523.376 1.76-.649 2.75-2.276 2.565-4.217 5.757-5.144 13.137-3.816 7.248 1.304 11.662.158 11.662-3.028 0-2.48-3.044-5.412-9.5-9.15-3.013-1.745-5.05-2.655-6.445-2.758zM355.223 569.875c-1.596 0-17.828 2.061-20.473 2.6-3.144.64-3.836 3.937-1 4.765 2.694.787 11.173-.152 17-1.883 4.019-1.193 5.25-2.02 5.25-3.521 0-1.079-.35-1.961-.777-1.961zm48.716 1.582c-3.207-.171-5.512.059-5.939.877-.652 1.25 8.63 8.304 12.5 9.502 5.606 1.735 19.78-.464 20.297-3.148.502-2.605-17.236-6.718-26.858-7.231zM373.469 564.875c-2.946 0-4.238 2.37-2.46 4.514 1.61 1.939 3.62 1.894 4.384-.096 1.194-3.114.627-4.418-1.924-4.418zm19.031 2c-.825 0-1.5.675-1.5 1.5s.675 1.5 1.5 1.5 1.5-.675 1.5-1.5-.675-1.5-1.5-1.5zM594.008 562.1c-3.228-.309-5.676-.002-5.676 1.08 0 .988 2.935 2.81 8.084 5.02 10.185 4.368 12.584 4.58 12.584 1.118 0-2.079-.865-2.937-4.637-4.605-3.119-1.38-7.127-2.305-10.355-2.613zm32.138 6.763c-2.851-.023-3.323 1.895-2.978 7.319.285 4.47 1.057 7.202 2.684 9.486 2.33 3.273 6.148 4.37 6.148 1.768 0-.793-.45-1.721-1-2.061-1.71-1.057-1.1-6.104 1.072-8.865 2.873-3.653 2.148-5.95-2.222-7.033-1.538-.381-2.753-.606-3.704-.614zM616.2 538.057c-3.133-.455-2.838 2.15.904 7.98 3.693 5.756 6.414 6.56 5.376 1.588-1.033-4.95-3.832-9.213-6.28-9.568zm32.6 2.922c-3.582-.04-5.734 2.242-8.8 8.187l-3.5 6.787 2.5 1.94c1.375 1.066 2.95 1.946 3.5 1.955.55.009 4.037-2.811 7.75-6.266 8.152-7.585 8.71-10.038 2.695-11.84-1.598-.479-2.95-.75-4.144-.763zM336.25 525.883c-1.712-.006-2.25.568-2.25 2.4 0 2.488 6.91 9.489 14 14.184 4.592 3.04 6.422 2.684 6.81-1.326.256-2.642-.344-3.805-3.35-6.493-4.95-4.426-12.462-8.755-15.21-8.765zM381.09 519.875c-6.573 0-8.682 1.318-9.89 6.174-1.423 5.713-2.637 21.25-1.825 23.365.39 1.015 1.259 1.431 2.215 1.065.865-.333 2.662-.604 3.992-.604 1.593 0 2.418-.569 2.418-1.67 0-.92 2.025-3.613 4.5-5.984 4.423-4.238 4.5-4.423 4.5-10.764 0-9.527-1.049-11.582-5.91-11.582zm51.379 19c-12.75 0-29.968 6.552-37.8 14.383-2.568 2.568-4.669 5.334-4.669 6.144 0 2.137 2.014 1.808 4.764-.777 2.256-2.121 3.491-2.283 21.564-2.855 11.255-.357 20.41-1.109 22.17-1.82 11.338-4.587 7.143-15.075-6.03-15.075z" fill="url(#d)" transform="translate(-185.048 -31.407)"/><path d="M630.5 515.564c-25.616.028-36.017 2.975-51.354 14.55-8.805 6.644-14.215 12.962-18.664 21.796-4.902 9.735-5.865 16.373-5.193 35.787.88 25.4 3.717 33.26 16.68 46.19 10.907 10.88 19.029 14.788 36.031 17.342 6.094.915 21.511.528 32.037-.803C659.055 648.02 666 644.97 666 639.027c0-3.448 1.272-5.05 7.133-8.98 2.548-1.709 8.093-6.833 12.322-11.385 13.89-14.951 19.21-30.211 16.705-47.922-1.346-9.522-4.602-17.142-12.463-29.172-13.898-21.268-24.76-26.04-59.197-26.004zm-18.246 7.54c6.244-.518 11.455 1.634 16.73 6.91 2.928 2.927 3.41 3.093 5.366 1.838 5.735-3.68 9.428-4.977 14.183-4.977 7.203 0 14.101 2.636 18.553 7.088 6.676 6.676 6.232 14.86-1.268 23.38-2.1 2.387-3.818 4.975-3.818 5.75 0 .777 1.58 2.166 3.51 3.087 4.875 2.324 12.283 9.37 14.574 13.861 5.267 10.325-.65 20.56-13.826 23.916l-6.758 1.72.49 3.85c.27 2.117.49 6.81.5 10.428.01 5.684-.373 7.084-2.806 10.272-1.55 2.03-3.865 4.376-5.145 5.214-5.046 3.307-13.164 2.325-19.482-2.357-1.407-1.043-3.907-4.636-5.557-7.986-1.65-3.35-3.403-6.12-3.896-6.157-.493-.036-3.021 1.921-5.618 4.35-7.926 7.414-18.922 11.82-25.422 10.19-4.531-1.138-9.426-6.398-11.054-11.881-3.209-10.804-1.243-20.639 6.523-32.655 2.182-3.376 3.967-6.338 3.967-6.586 0-.247-2.363-1.643-5.25-3.1-13.283-6.7-19.057-13.896-16.752-20.88 2.307-6.99 9.92-10.504 22.76-10.504h8.459l-.848-2.75c-.466-1.512-.85-5.33-.86-8.484-.01-5.28.282-6.026 3.669-9.412 3.126-3.126 4.49-3.745 9.076-4.125zM378.898 490.146a89.736 89.736 0 0 0-7.898.026c-15.34.78-22.402 3.56-41.646 16.389-13.605 9.07-25.705 20.164-30.249 27.734-3.944 6.571-7.105 17.07-7.105 23.6 0 5.885 2.49 15.394 5.217 19.923 5.017 8.334 38.376 43.237 49.379 51.664 4.427 3.391 9.546 6.296 13.088 7.428 7.1 2.27 8.33 2.338 10.843.61 1.298-.893 6.594-1.554 15.473-1.934 17.621-.753 29.421-3.779 45.654-11.705 14.468-7.064 21.778-13.304 29.268-24.98 12.554-19.572 15.237-31.591 11.2-50.21-2.906-13.394-5.518-19.847-10.177-25.14-4.671-5.307-16.45-14.373-24.816-19.102-13.214-7.469-38.796-13.569-58.23-14.303zm.653 15.922c6.147-.322 8.852-.036 11.222 1.19 5.575 2.882 10.208 11.034 10.243 18.017.028 5.76.86 6.042 9.629 3.272 4.356-1.376 11.515-3.052 15.908-3.725 6.884-1.054 8.756-1 13.55.395 12.733 3.701 21.604 15.601 18.958 25.43-1.312 4.87-6.48 11.876-10.17 13.785-3.417 1.767-3.672 3.983-.809 7.03 1.145 1.22 2.294 3.949 2.553 6.065 1.285 10.51-12.344 18.256-33.135 18.832l-10 .278-.568 9.537c-.5 8.386-.9 9.97-3.317 13.138-1.512 1.983-3.827 4.311-5.144 5.174-3.429 2.247-9.234 2.584-14.67.854-8.866-2.822-18.066-14.615-23.963-30.715-1.26-3.441-2.697-5.75-3.578-5.75-.81 0-4.236.723-7.615 1.605-14 3.657-27.874-1.14-31.579-10.92-3.795-10.017 4.082-19.43 17.922-21.42 6.675-.958 7.443-2.812 2.541-6.132-6.558-4.442-16.237-14.716-17.517-18.594-2.282-6.914 1.05-15.777 7.383-19.639 5.977-3.644 15.934-2.144 24.525 3.694 1.949 1.324 4.048 2.406 4.666 2.406.618 0 2.37-1.973 3.896-4.387 4.02-6.359 9.163-8.9 19.069-9.42z" fill="url(#d)" transform="translate(-185.048 -31.407)"/><path d="M622.69 483.135c-10.77.183-20.938.754-24.19 1.605-2.2.576-7.15 1.784-11 2.684-22.211 5.19-47.05 22.995-58.486 41.928-14.003 23.182-16.723 44.88-10 79.785 4.282 22.233 16.33 40.502 34.804 52.781 12.031 7.996 17.02 9.376 56.182 15.525 10.45 1.641 28.88 1.161 38.766-1.007 14.036-3.08 31.477-11.485 42.234-20.356 16.77-13.83 30.657-30.02 37.201-43.371 9.451-19.281 10.91-41.37 4.115-62.334-3.444-10.628-5.523-14.64-11.972-23.115-17.684-23.236-45.255-40.372-69.844-43.406-5.666-.7-17.04-.903-27.81-.72zm6.81 18.318c38.864-.132 53.99 6.397 70.428 30.397 19.031 27.786 22.103 52.14 9.687 76.795-6.254 12.419-21.174 29.067-30.861 34.433-3.195 1.77-4.261 2.97-4.285 4.826-.117 9.148-8.866 13.627-32.297 16.534-10.511 1.303-30.872 1.737-37.172.79-10.386-1.56-15.492-3.085-22.947-6.855-15.082-7.627-26.84-19.236-34.17-33.736-4.834-9.564-6.009-16.382-6.592-38.266-.605-22.696.178-27.707 6.256-40.02 9.638-19.526 32.073-37.213 54.09-42.646 7.475-1.844 11.838-2.198 27.863-2.252zM385 462.395c-22.243.017-24.062.163-34 2.72-21.102 5.43-37.218 12.462-53.916 23.53-31.066 20.59-42.29 47.877-35.781 86.98 3.483 20.922 17.543 42.749 39.799 61.783 23.448 20.054 37.426 26.136 79.398 34.545 7.228 1.448 32.25.257 40.568-1.932 27.567-7.252 51.234-28.565 67.159-60.478 15.076-30.213 15.163-58.227.279-88.816-4.637-9.53-8.591-14.928-18.445-25.176-15.96-16.598-30.46-24.886-54.956-31.414-5.427-1.447-10.796-1.758-30.105-1.742zm-11.605 13.453c7.338-.115 15.307.577 24.105 2.056 25.75 4.33 38.68 8.964 54.57 19.565 21.138 14.1 28.58 24.41 33.498 46.406 4.792 21.426 3.111 33.726-7.236 52.936-11.57 21.48-23.59 32.556-46.125 42.5-13.773 6.077-28.054 9.6-41.576 10.255-6.868.334-11.98 1.072-13.346 1.926-6.51 4.068-24.64-.422-36.875-9.13-12.682-9.028-50.053-48.418-55.875-58.893-11.024-19.837-8.159-43.212 7.725-63.02 9.125-11.38 32.453-29.185 48.76-37.219 9.66-4.759 20.143-7.19 32.375-7.382zM669.172 259.17c-.571-.063-1.268.377-2.621 1.264-2.345 1.536-2.674 2.302-2.213 5.144.307 1.89-.083 4.834-.899 6.785-.792 1.896-1.44 4.7-1.439 6.23 0 3.363 5.266 14.837 7.152 15.589 2.614 1.04 3.964.67 6.393-1.76 2.038-2.038 2.457-3.44 2.467-8.25.012-6.192-3.868-19.126-6.971-23.24-.853-1.131-1.298-1.699-1.87-1.762zM671.896 231.578c-.476.476-.4 2.515.172 4.586.566 2.05.895 5.86.73 8.469-.274 4.359-.123 4.724 1.89 4.515 1.204-.125 3.679.42 5.5 1.211 4.395 1.91 6.512 1.835 11.43-.398 7.371-3.348 9.784-9.818 4.632-12.426-4.453-2.254-23.417-6.893-24.354-5.957zM401.902 196.375c-8.216 0-10.928 1.217-10.867 4.873.088 5.28 8.891 15.02 14.522 16.065 2.168.402 4.73 1.439 5.693 2.302 2.149 1.929 2.3 7.558.25 9.26-4.049 3.36-.11 10.966 7 13.52 2.268.814 6.769 1.337 10.395 1.209 8.544-.304 9.422-1.677 5.673-8.874a3861.854 3861.854 0 0 1-4.43-8.527c-1.542-2.984-1.893-3.139-5.908-2.611-7.768 1.02-10.236-3.807-6.052-11.834 2.17-4.165 2.171-4.191.25-7.737-3.008-5.548-7.54-7.646-16.526-7.646zm34.909 8.95c-.982-.082-1.644-.052-1.895.103-.504.311-.916 2.565-.916 5.008 0 3.926.26 4.444 2.25 4.482 1.238.023 5.4 1.137 9.25 2.475 8.009 2.782 9.431 2.926 12.953 1.322 5.408-2.464 1.983-7.727-6.603-10.149-6.27-1.768-12.095-2.998-15.04-3.242z" fill="url(#a)" transform="translate(-185.048 -31.407)"/><path d="M674.154 167.19c-5.815-.258-12.085.097-18.654 1.076-25.502 3.797-38.904 9.248-51.01 20.748-13.642 12.959-19.515 24.816-20.263 40.914-.527 11.331.546 16.201 7.71 34.982 10.776 28.247 27.214 48.369 42.5 52.027 5.222 1.25 6.118 1.03 8.405-2.062 2.023-2.737 2.73-3 8.049-3 8.312 0 15.109-1.083 15.109-2.408 0-.625-1.652-2.026-3.672-3.113-3.738-2.013-8.788-8.857-11.728-15.893-1.81-4.331-1.16-4.31-15.1-.496-6.86 1.877-8.6 2.023-12.205 1.023-6.363-1.764-10.034-5.401-11.889-11.783-2.404-8.27-.414-15.482 6.778-24.562 1.625-2.053 2.71-4.13 2.408-4.618-.301-.487-2.451-1.192-4.778-1.564-13.703-2.191-23.982-12.59-23.982-24.266 0-3.348.603-5.159 2.334-7.013 4.078-4.37 10.594-6.977 21.918-8.768l3.584-.566-.459-7.916c-.645-11.14.197-14.463 4.846-19.112 3.436-3.436 4.53-3.945 8.494-3.945 5.14 0 8.832 1.614 12.375 5.406 3.002 3.214 4.12 3.242 7 .176 5.655-6.02 25.02-9.975 34.728-7.092 7.966 2.366 11.552 7.457 11.537 16.381-.011 6.897-3.129 15.585-7.775 21.672-1.878 2.46-3.414 4.877-3.414 5.37 0 .49 3.263 1.87 7.25 3.064 13.347 3.996 18.736 9.344 18.746 18.593.008 10.316-7.883 20.405-18.387 23.506-5.276 1.558-5.322 1.732-3.027 11.613 1.036 4.46 1.356 8.624.928 12.061-.957 7.685 1.257 6.924 8.578-2.95 7.598-10.247 18.345-31.816 23.344-46.85 3.604-10.844 3.78-11.964 3.34-21.167-.399-8.316-.913-10.622-3.579-16-6.991-14.107-20.99-26.767-34.12-30.861-4.745-1.48-10.104-2.35-15.919-2.608zm-43.966 8.003c.797.32.559.556-.606.604-1.054.043-1.645-.193-1.312-.526.332-.332 1.196-.367 1.918-.078zM678.25 188.9c-8.202.035-14.327 1.685-17.498 4.717-3.38 3.232-6.32 10.836-7.258 18.776-.389 3.29-1.335 6.979-2.101 8.197-.767 1.218-1.393 2.68-1.393 3.25 0 .588 2.375 1.035 5.5 1.035 4.143 0 5.5-.359 5.5-1.453 0-3.464 2.677-6.856 7.232-9.164 9.318-4.722 15.768-13.95 15.768-22.56 0-2.772-.103-2.822-5.75-2.798zm-43.016 5.084c-.133-.024-.179.446-.242 1.391-.134 2-.132 2-1.08 0-1.11-2.344-.477 9.867.666 12.848.492 1.281.92 1.465 1.44.623.556-.9.893-.86 1.363.166.96 2.097-.376-10.974-1.375-13.453-.415-1.031-.638-1.55-.772-1.575zm-16.273 28.891c-7.18 0-11.961 1.604-11.961 4.01 0 2.823 5.505 6.804 10.254 7.416 2.335.3 5.371.718 6.746.926 5.894.889 8 .648 8-.916 0-2.202-1.81-5.469-4.81-8.686-2.215-2.374-3.339-2.75-8.23-2.75zm38.568 16.271c-.417-.298-1.205-.186-2.683.11-5.675 1.135-6.975 4.153-3.602 8.369.55.687 2.018 1.25 3.262 1.25 2.416 0 3.455-2.202 3.48-7.375.006-1.347-.04-2.055-.457-2.354zm-19.797 16.729c-1.406 0-8.359 6.88-11.086 10.973-.906 1.36-1.646 4.172-1.646 6.25 0 3.642.124 3.777 3.463 3.777 5.167 0 14.288-3.78 18.668-7.736 3.604-3.257 5.035-6.264 2.98-6.264-.488 0-3.178-1.575-5.976-3.5-2.799-1.925-5.679-3.5-6.403-3.5zM432.773 133.088c-7.74-.515-17.479.325-32.273 2.318-35.952 4.844-43.673 7.427-54.45 18.223-8.815 8.832-11.05 14.45-11.05 27.783 0 7.24.315 9.463 1.34 9.463.737 0 1.862-1.147 2.502-2.55 1.555-3.415 6.954-5.513 15.937-6.192l7.41-.56-.66-3.098c-1.57-7.385-1.659-9.407-.584-13.399 2.247-8.342 10.496-14.367 19.672-14.367 6.938 0 12.896 4.415 18.778 13.916 1.446 2.338 2.914 4.25 3.263 4.25.35 0 2.534-1.554 4.854-3.455 2.32-1.901 6.4-4.618 9.066-6.035 19.566-10.404 43.313-5.485 48.434 10.031 2.201 6.67-1.66 16.864-7.94 20.959-1.687 1.1-3.068 2.481-3.07 3.068-.002.587 2.506 1.858 5.572 2.825 10.518 3.315 17.87 14.527 15.442 23.546-1.917 7.12-11.726 14.061-19.868 14.061h-3.916l-.406 6.38c-.32 5.043-.986 7.142-3.174 10.01-5.19 6.806-13.069 9.253-24.54 7.626-8.874-1.259-15.91-4.725-21.563-10.625l-4.324-4.512-6.864 3.123c-13.41 6.104-20.807 5.792-31.537-1.33-9.783-6.494-11.14-14.785-4.281-26.174 1.901-3.157 3.457-6.1 3.457-6.541 0-.44-1.688-1.337-3.75-1.99-5.963-1.89-12.037-5.77-14.488-9.252-3.722-5.29-5.12-4.733-4.315 1.715 3.804 30.447 20.14 66.647 34.309 76.027 2.383 1.578 4.47 2.254 5.744 1.86 1.1-.341 11.225-.948 22.5-1.348 28.588-1.016 43.177-4.232 55-12.127 13.36-8.921 25.329-28.208 31.242-50.342 3.848-14.402 1.883-39.183-4.12-52-4.137-8.83-15.756-19.762-27.071-25.473-6.796-3.43-12.537-5.3-20.278-5.814zm-54.382 31.828a6.109 6.109 0 0 0-2.274.865c-2.262 1.433-.96 10.983 2.244 16.45 1.497 2.554 3.096 4.644 3.553 4.644 1.83 0 10.086-4.158 10.086-5.08 0-1.33-4.786-10.752-7.197-14.17-1.492-2.115-4.037-3.104-6.412-2.709zm59.11 3.338c-4.45.194-9.27 1.194-13.001 2.935-6.744 3.148-11.5 7.2-11.5 9.8 0 .99 1.83 2.803 4.25 4.212 2.337 1.361 5.044 2.52 6.016 2.574 2.24.127 22.487-6.78 25.484-8.693 3.259-2.08 3.024-6.652-.457-8.934-2.258-1.479-6.34-2.089-10.791-1.894zm-67.86 29.205c-2.327.893-2.032 2.921.609 4.195 3.24 1.563 5.75 1.452 5.75-.256 0-2.02-4.344-4.712-6.36-3.939zm9.367 15.197l-2.754 2.906c-1.515 1.6-3.666 3.56-4.781 4.36-3.452 2.474-6.473 7.096-6.473 9.906 0 2.03.792 3.08 3.25 4.303 1.788.89 4.789 1.646 6.67 1.682 4.514.084 17.095-5.703 17.037-7.836-.024-.882-2.947-4.688-6.496-8.461l-6.453-6.86z" fill="url(#a)" transform="translate(-185.048 -31.407)"/><path d="M676.787 127.217a120.57 120.57 0 0 0-10.975.045c-14.412.7-41.46 5.84-54.978 10.45-24.081 8.213-45.798 24.832-55.098 42.163-10.77 20.073-13.276 29.917-13.11 51.5.206 26.541 4.134 43.172 15.825 67 7.47 15.224 11.455 20.84 23.31 32.861 19.363 19.632 40.946 33.069 60.239 37.504 10.66 2.45 28.176 2.763 36.307.645 18.3-4.767 31.531-19.111 35.01-37.957 1.028-5.573 2.046-7.688 6.2-12.862 11.941-14.869 18.903-26.006 26.057-41.691 11.963-26.226 17.285-48.601 16.123-67.768-1.402-23.12-8.124-39.521-22.18-54.101-16.85-17.48-37.715-26.725-62.73-27.79zM669.5 153.49c14.958-.08 16.535.094 24.215 2.682 20.986 7.072 42.414 29.327 47.176 48.998.638 2.637 1.176 9.248 1.195 14.691.03 8.68-.39 11.165-3.416 20.205-9.273 27.704-21.247 48.523-38.514 66.957-12.289 13.12-21.334 17.256-40.486 18.516-9.05.596-10.053.873-12.672 3.492-2.352 2.352-3.681 2.84-7.672 2.819-11.182-.06-26.252-8.292-36.015-19.672-9.305-10.846-18.38-25.88-22.83-37.826a927.777 927.777 0 0 0-4.96-12.977c-10.168-25.844-7.048-50.119 9.16-71.281 18.875-24.642 46.109-36.394 84.819-36.604zM380.76 93.428c-8.299.19-15.767.958-20.76 2.263-11.232 2.936-16.881 5.926-26.436 13.989-10.535 8.89-17.94 19.857-24.439 36.195-6.535 16.431-9.772 29.835-11.14 46.137-.48 5.7-1.572 12.824-2.428 15.832-3.854 13.532-.14 33.273 9.222 49.031 1.47 2.475 4.531 8.59 6.801 13.588 13.38 29.46 44.699 52.33 77.293 56.437 11.708 1.476 31.87.525 38.127-1.798 3.025-1.124 9.1-2.789 13.5-3.7 18.509-3.832 29.17-9.493 43.375-23.027 15.736-14.993 23.665-27.127 33.03-50.549 4.414-11.041 5.157-13.974 6.175-24.404 1.674-17.142.683-45.91-1.914-55.547-5.963-22.13-14.168-36.047-27.85-47.24-15.798-12.925-37.65-20.742-66.316-23.72-5.775-.601-15-1.633-20.5-2.294-8.312-.999-17.442-1.384-25.74-1.193zm45.683 25.31c6.67-.108 12.513.23 15.557 1.041 24.448 6.524 46.762 25.24 53.38 44.772 5.375 15.86 6.672 40.44 2.87 54.355-5.824 21.317-14.407 36.952-27.75 50.541-7.487 7.626-10.429 9.858-17.5 13.278-14.514 7.019-31.199 10.15-54.07 10.15-11.118 0-12.826.225-14.336 1.895-3.56 3.934-8.967 3.086-19.313-3.032-7.739-4.576-13.278-10.254-19.867-20.363-14.229-21.829-23.324-50.889-24.88-79.5-1.256-23.075 2.798-35.457 15.87-48.469 11.694-11.64 24.083-16.77 48.371-20.025 5.898-.79 15.414-2.148 21.147-3.018 6.354-.964 13.852-1.517 20.521-1.625z" fill="url(#a)" transform="translate(-185.048 -31.407)"/></svg>