<svg xmlns:osb="http://www.openswatchbook.org/uri/2009/osb" xmlns="http://www.w3.org/2000/svg" xmlns:xlink="http://www.w3.org/1999/xlink" height="938.7" width="542.617"><defs><linearGradient osb:paint="solid" id="c"><stop offset="0" stop-color="#fff"/></linearGradient><linearGradient osb:paint="solid" id="b"><stop offset="0"/></linearGradient><linearGradient osb:paint="solid" id="a"><stop offset="0" stop-color="#162d50"/></linearGradient><linearGradient osb:paint="solid" id="f"><stop offset="0" stop-color="#d40000"/></linearGradient><linearGradient gradientUnits="userSpaceOnUse" y2="500" x2="771.309" y1="500" x1="228.692" id="e" xlink:href="#b"/><linearGradient gradientUnits="userSpaceOnUse" y2="500.105" x2="752.403" y1="500.105" x1="248.611" id="d" xlink:href="#c"/></defs><path d="M482.883 50.783a336.62 336.62 0 0 0-13.74.547c-4.292.262-8.555.61-13.569 1.059-12.375 1.108-29.25 2.522-37.5 3.142-6.339.477-11.7.938-16.449 1.448-4.75.509-8.89 1.066-12.783 1.734a146.758 146.758 0 0 0-11.313 2.4c-3.77.953-7.665 2.08-12.047 3.444-7.227 2.248-13.034 4.186-17.865 6.101-2.415.958-4.588 1.909-6.57 2.89a53.597 53.597 0 0 0-5.436 3.073 42.73 42.73 0 0 0-4.632 3.469 46.785 46.785 0 0 0-4.165 4.08c-1.346 1.486-2.668 3.109-4.023 4.906-1.355 1.797-2.742 3.769-4.217 5.95-2.603 3.85-6.77 9.262-9.26 12.029a49.421 49.421 0 0 0-3.646 4.625c-1.097 1.574-1.988 3.053-2.408 4.058-.441 1.056-1.14 2.132-1.944 3.057-.804.925-1.714 1.699-2.58 2.146-.562.291-1.16.746-1.783 1.346-.623.6-1.27 1.344-1.932 2.211-1.321 1.735-2.698 3.964-4.042 6.522-1.345 2.557-2.658 5.442-3.852 8.492a92.667 92.667 0 0 0-3.139 9.476c-.739 2.73-2.31 12.855-3.488 22.5-.48 3.922-.848 7.176-1.125 10.272a160.89 160.89 0 0 0-.568 9.316c-.215 6.569-.124 14.53.138 27.95.162 8.25.415 16.368.694 22.802.278 6.434.58 11.185.841 12.697.313 1.81.554 6.018.72 11.43.165 5.412.255 12.028.269 18.658.014 6.63-.049 13.275-.192 18.74-.142 5.466-.365 9.754-.67 11.672-.523 3.3-1.458 14.325-2.08 24.5-.584 9.577-1.172 17.938-1.892 26.104a645.217 645.217 0 0 1-2.692 24.94c-1.116 8.801-2.494 18.432-4.265 29.917-1.771 11.485-3.936 24.824-6.621 41.04-1.63 9.84-2.772 17.577-3.623 24.923-.852 7.346-1.413 14.3-1.883 22.576-.536 9.432-1.196 18.395-1.883 25.817-.687 7.421-1.4 13.301-2.04 16.57-.579 2.963-1.063 7.688-1.073 10.5-.011 2.813-.733 8.713-1.604 13.113-.338 1.711-.612 3.94-.838 7.608-.225 3.668-.403 8.778-.552 16.254-.3 14.95-.486 39.364-.706 80.638-.154 29.107-.29 50.666-.228 67.137.031 8.236.112 15.2.266 21.2.153 6 .379 11.036.699 15.415.32 4.38.734 8.104 1.265 11.479a92.604 92.604 0 0 0 1.97 9.387c.787 2.985 1.716 5.929 2.806 9.14 1.09 3.212 2.34 6.69 3.777 10.742 2.301 6.493 4.397 12.229 6.356 17.373 1.958 5.145 3.78 9.698 5.539 13.827 1.757 4.128 3.45 7.833 5.148 11.279a170.439 170.439 0 0 0 5.184 9.726c1.945 3.38 3.644 6.19 5.293 8.647 1.648 2.457 3.244 4.561 4.982 6.533 1.738 1.972 3.618 3.812 5.83 5.736 2.213 1.925 4.759 3.934 7.832 6.249 4.607 3.468 8.446 6.236 12.12 8.562a84.06 84.06 0 0 0 5.462 3.191 76.174 76.174 0 0 0 5.666 2.725c3.947 1.704 8.33 3.228 13.754 4.83 5.425 1.603 11.89 3.283 19.998 5.305 7.425 1.85 17.775 4.507 23 5.902a131.591 131.591 0 0 0 12.266 2.692c4.41.748 9.363 1.368 15.521 1.92 6.159.55 13.521 1.033 22.752 1.505 9.232.472 20.332.934 33.961 1.446 13.75.516 25.9 1.186 27 1.492 1.776.493 5.1.978 9.694 1.44 4.593.46 10.455.898 17.308 1.294 13.706.793 31.374 1.425 50.77 1.766 12.037.212 23.052.478 31.103.734 8.051.257 13.137.504 13.315.682.322.322 2.488.522 5.716.617 3.23.095 7.523.085 12.096-.014a376.76 376.76 0 0 0 13.783-.543c4.356-.258 8.213-.588 10.79-.972 5.69-.85 11.167-1.836 16.34-2.932 5.171-1.096 10.038-2.302 14.503-3.592 4.466-1.29 8.531-2.663 12.104-4.092 3.572-1.428 6.65-2.912 9.142-4.425a42.108 42.108 0 0 0 4.948-3.502 38.536 38.536 0 0 0 4.263-4.102 40.382 40.382 0 0 0 3.649-4.775 48.022 48.022 0 0 0 3.095-5.524c.712-1.482 1.247-2.612 1.65-3.75.404-1.138.675-2.285.856-3.802.363-3.035.367-7.551.36-16.448-.005-6.074-.368-14.858-.952-24.734-.583-9.876-1.388-20.844-2.275-31.283-.887-10.44-1.855-20.351-2.77-28.115-.457-3.883-.901-7.228-1.314-9.834-.413-2.607-.795-4.473-1.129-5.399l-1.043-2.887.362-1.273 2.738-4.791c.406-.37.428-.303.95-.826 1.056-1.055 1.881-1.677 2.894-2 1.012-.323 2.21-.347 4.01-.203l4.349.345.475-16c1.497-50.665 2.874-89.503 3.828-108 .595-11.55 1.47-36.975 1.945-56.5.237-9.762.622-20.1 1.053-28.89.43-8.79.906-16.035 1.322-19.61.416-3.575.908-10.707 1.365-19.316.457-8.61.879-18.696 1.156-28.184.556-18.975 1.54-45.568 2.188-59.095.339-7.08.56-15.129.648-22.696.089-7.566.044-14.65-.152-19.804-.364-9.58-1.056-35.613-1.56-58.274.173-14.441.3-27.872.134-33.5a483.722 483.722 0 0 0-.902-18.908c-.415-6.067-.953-12-1.637-18.103-.683-6.104-1.514-12.379-2.515-19.13-1.001-6.75-2.172-13.976-3.54-21.984-.683-4.004-1.733-8.118-3.046-12.252-.073-.228-.182-.453-.256-.681a581.543 581.543 0 0 0-4.483-17.56c-1.612-5.92-3.29-11.665-4.875-16.513-1.347-4.125-3.246-10.631-5.218-17.79-1.973-7.16-4.02-14.972-5.664-21.71-2.106-8.62-3.725-15.19-5.196-20.562-1.47-5.372-2.792-9.545-4.297-13.37-1.505-3.824-3.195-7.3-5.404-11.279-2.21-3.977-4.937-8.457-8.52-14.289-1.782-2.901-3.147-5.108-4.289-6.836-1.141-1.728-2.06-2.977-2.949-3.96a13.621 13.621 0 0 0-2.77-2.372c-1.022-.669-2.21-1.288-3.755-2.072-1.643-.833-4.377-1.795-8.1-2.861-3.723-1.067-8.436-2.237-14.04-3.492-5.605-1.256-12.1-2.595-19.387-3.995-7.288-1.4-15.367-2.86-24.14-4.359-6.294-1.076-11.508-1.913-16.618-2.57-5.11-.658-10.117-1.136-15.998-1.494-5.882-.359-12.638-.598-21.246-.776-8.609-.178-19.07-.295-32.362-.412-22.95-.201-36.435-.26-46.691-.043z" style="isolation:auto;mix-blend-mode:normal" color="#000" overflow="visible" fill="url(#d)" transform="translate(-228.692 -30.65)"/><path d="M487.229 30.756c-10.021.168-16.844.546-24.155 1.197-9.9.882-29.7 2.495-44 3.586a883.838 883.838 0 0 0-21.152 1.875c-6.434.653-11.735 1.28-14.348 1.725-3.09.525-7.403 1.567-12.295 2.916-4.891 1.349-10.36 3.004-15.761 4.757-5.402 1.754-10.738 3.605-15.36 5.344-4.622 1.74-8.531 3.366-11.084 4.672a52.265 52.265 0 0 0-6.965 4.295 62.343 62.343 0 0 0-6.666 5.637c-2.185 2.115-4.34 4.472-6.482 7.09-2.142 2.617-4.271 5.494-6.408 8.65-1.588 2.344-3.97 5.44-6.53 8.537-2.56 3.098-5.298 6.198-7.595 8.553-1.765 1.809-3.224 3.36-4.496 4.818a51.517 51.517 0 0 0-3.375 4.272c-1.016 1.443-1.963 2.962-2.957 4.724-.995 1.763-2.038 3.77-3.246 6.186-2.106 4.208-3.803 7.78-5.208 11.14-1.404 3.36-2.518 6.508-3.46 9.872-.943 3.363-1.712 6.94-2.43 11.158-.718 4.217-1.385 9.076-2.117 15-1.076 8.698-1.715 14.88-2.078 21.482-.364 6.603-.451 13.628-.426 24.018.016 6.81.14 13.564.324 18.959s.43 9.431.693 10.806c.39 2.04.729 6.843.996 13.096.268 6.253.466 13.954.575 21.791.108 7.837.128 15.81.04 22.6-.087 6.79-.282 12.4-.6 15.513-.621 6.05-1.586 18.875-2.145 28.5-.56 9.625-1.677 22.191-2.48 27.924-.805 5.733-1.464 12.517-1.464 15.072 0 2.055-1.564 12.89-3.842 27.178a2559.538 2559.538 0 0 1-8.127 47.903c-1.116 6.2-2.03 13.395-2.03 15.988s-.635 8.253-1.41 12.576c-.389 2.162-.816 6.04-1.192 10.545-.376 4.506-.7 9.64-.883 14.314-.365 9.35-1.067 19.475-1.559 22.5-.492 3.025-1.368 11.072-1.947 17.881-.579 6.81-1.355 12.87-1.725 13.469-.405.656-.765 3.362-1.084 8.32-.318 4.958-.593 12.169-.834 21.83-.481 19.323-.818 48.454-1.05 89-.155 26.985-.266 47.288-.153 63.096.057 7.904.17 14.686.36 20.615.19 5.93.46 11.009.83 15.51.37 4.501.838 8.424 1.431 12.043a109.36 109.36 0 0 0 2.174 10.219c.862 3.283 1.87 6.535 3.045 10.03 1.176 3.493 2.52 7.229 4.055 11.48 2.746 7.607 5.29 14.477 7.705 20.718 2.415 6.242 4.7 11.854 6.928 16.946 2.226 5.092 4.394 9.663 6.576 13.822 2.182 4.158 4.38 7.904 6.66 11.346a95.77 95.77 0 0 0 7.168 9.52 95.078 95.078 0 0 0 8.11 8.337c2.907 2.655 6.044 5.224 9.48 7.81 3.436 2.587 7.171 5.192 11.28 7.926 3.51 2.338 6.756 4.307 10.286 6.106 3.53 1.798 7.344 3.425 11.99 5.074 4.646 1.65 10.125 3.321 16.985 5.211 6.86 1.89 15.101 3.998 25.273 6.518 7.745 1.918 14.112 3.424 20.018 4.627 5.906 1.202 11.35 2.1 17.252 2.806 5.902.706 12.261 1.218 19.994 1.647 7.732.428 16.839.773 28.236 1.144 16.775.546 34.1 1.424 38.5 1.95a566.048 566.048 0 0 0 34.28 3.052c12.173.726 25.67 1.193 42.22 1.506 20.075.38 40.775 1.005 46 1.39 6.809.503 13.101.796 19.112.862 6.01.066 11.737-.095 17.416-.498a204.547 204.547 0 0 0 17.119-1.955c5.812-.906 11.81-2.07 18.222-3.512 6.394-1.437 11.973-2.889 16.916-4.443a116.53 116.53 0 0 0 6.96-2.42 85.024 85.024 0 0 0 6.142-2.635 67.44 67.44 0 0 0 5.455-2.918 59.705 59.705 0 0 0 4.908-3.262 59.865 59.865 0 0 0 4.492-3.673 68.41 68.41 0 0 0 4.211-4.149 72.22 72.22 0 0 0 5.744-6.95 59.5 59.5 0 0 0 4.463-7.153 50.199 50.199 0 0 0 3.153-7.317 44.17 44.17 0 0 0 1.822-7.428 71.99 71.99 0 0 1 1.17-5.867c.448-1.84.917-3.414 1.3-4.281.509-1.148.856-3.079 1.075-6.258.219-3.179.31-7.606.303-13.742-.012-10.636.632-37.716 1.525-67.64.893-29.925 2.036-62.695 3.022-84.71.824-18.425 1.503-41.15 1.507-50.5.002-4.675.168-11.174.432-17.88.264-6.707.627-13.62 1.025-19.12.4-5.5.766-13.104 1.034-20.923.268-7.82.437-15.855.445-22.22.008-6.792.173-14.06.447-20.683.274-6.623.658-12.603 1.106-16.816.504-4.75 1.023-11.688 1.529-20.18.506-8.492 1-18.538 1.455-29.5.91-21.924 1.666-47.514 2.055-71.678.218-13.579.217-30.358.05-48.142a3519.94 3519.94 0 0 0-.939-54.168c-.441-17.596-.992-33.998-1.598-47.012-.302-6.507-.618-12.167-.941-16.705-.323-4.538-.654-7.953-.984-9.973-.54-3.3-2.382-14.775-4.094-25.5a441.507 441.507 0 0 0-2.776-15.632 376.142 376.142 0 0 0-3.22-14.823 351.232 351.232 0 0 0-3.746-14.343 361.639 361.639 0 0 0-4.354-14.202c-1.13-3.437-2.977-9.832-5.043-17.367a1186.043 1186.043 0 0 1-6.355-24.203c-1.864-7.43-3.42-13.46-4.815-18.504-1.394-5.043-2.627-9.098-3.842-12.582-1.214-3.484-2.412-6.396-3.736-9.148-1.323-2.753-2.773-5.346-4.494-8.196a2717.029 2717.029 0 0 1-8.967-15c-1.569-2.644-3.065-4.968-4.54-7.027-1.477-2.058-2.931-3.852-4.415-5.432a36.753 36.753 0 0 0-4.588-4.156 35.822 35.822 0 0 0-5.066-3.203c-2.119-1.111-4.004-2.023-6.115-2.86-2.112-.835-4.45-1.595-7.471-2.4-6.043-1.61-14.825-3.404-30.016-6.36-13.24-2.575-23.42-4.53-32.203-6.025-8.783-1.493-16.17-2.526-23.824-3.253-7.655-.728-15.579-1.151-25.436-1.43-9.857-.279-21.647-.412-37.037-.559-20.106-.19-33.325-.232-43.345-.064zm-4.346 20.027c10.256-.216 23.74-.158 46.691.043 13.291.117 23.753.234 32.362.412 8.608.178 15.364.417 21.246.776 5.881.358 10.887.836 15.998 1.494 5.11.657 10.324 1.494 16.619 2.57 8.772 1.5 16.851 2.96 24.138 4.36 7.288 1.399 13.783 2.738 19.387 3.994 5.605 1.255 10.318 2.425 14.041 3.492 3.723 1.066 6.457 2.028 8.1 2.861 1.545.784 2.733 1.403 3.756 2.072a13.621 13.621 0 0 1 2.77 2.372c.888.983 1.807 2.233 2.948 3.96 1.142 1.728 2.507 3.935 4.29 6.836 3.582 5.832 6.31 10.312 8.519 14.29 2.21 3.977 3.9 7.454 5.404 11.279 1.505 3.824 2.827 7.997 4.297 13.369 1.47 5.372 3.09 11.942 5.196 20.562 1.645 6.738 3.691 14.55 5.664 21.71 1.972 7.159 3.87 13.665 5.218 17.79 1.584 4.848 3.263 10.593 4.875 16.512a581.543 581.543 0 0 1 4.483 17.56c.074.229.183.454.256.682 1.313 4.134 2.363 8.248 3.046 12.252 1.368 8.008 2.539 15.234 3.54 21.985 1 6.75 1.832 13.025 2.515 19.129a416.984 416.984 0 0 1 1.637 18.103c.415 6.067.707 12.268.902 18.908.166 5.628.039 19.059-.135 33.5.505 22.66 1.197 48.694 1.561 58.274.196 5.153.24 12.238.152 19.804-.088 7.567-.31 15.616-.648 22.696-.648 13.527-1.632 40.12-2.188 59.095-.277 9.488-.699 19.575-1.156 28.184-.457 8.61-.95 15.741-1.365 19.316-.416 3.575-.892 10.82-1.322 19.61-.43 8.79-.816 19.128-1.053 28.89-.474 19.525-1.35 44.95-1.945 56.5-.954 18.497-2.33 57.335-3.828 108l-.475 16-4.35-.345c-1.798-.144-2.997-.12-4.01.203-1.012.323-1.837.945-2.892 2-.523.523-.545.456-.951.826l-2.739 4.791-.36 1.273 1.042 2.887c.334.926.716 2.792 1.129 5.399.413 2.606.857 5.951 1.314 9.834.915 7.764 1.883 17.676 2.77 28.115.887 10.44 1.692 21.407 2.275 31.283.584 9.876.946 18.66.952 24.734.008 8.897.003 13.413-.36 16.448-.181 1.517-.452 2.664-.855 3.802-.404 1.138-.939 2.268-1.65 3.75a48.022 48.022 0 0 1-3.096 5.524 40.382 40.382 0 0 1-3.649 4.775 38.536 38.536 0 0 1-4.263 4.102 42.108 42.108 0 0 1-4.948 3.502c-2.491 1.513-5.57 2.997-9.142 4.426-3.573 1.428-7.638 2.802-12.104 4.091-4.465 1.29-9.332 2.496-14.504 3.592a274.363 274.363 0 0 1-16.34 2.932c-2.576.384-6.433.714-10.789.972-4.356.259-9.21.445-13.783.543-4.573.099-8.867.11-12.096.014-3.228-.095-5.394-.295-5.716-.617-.178-.177-5.264-.425-13.315-.682-8.05-.256-19.066-.522-31.103-.734-19.396-.341-37.064-.973-50.77-1.766-6.853-.396-12.715-.834-17.308-1.295-4.594-.46-7.918-.946-9.694-1.44-1.1-.305-13.25-.975-27-1.491-13.63-.512-24.73-.974-33.96-1.446-9.232-.472-16.594-.954-22.753-1.505-6.158-.552-11.11-1.172-15.521-1.92a131.591 131.591 0 0 1-12.266-2.692c-5.225-1.395-15.575-4.051-23-5.902-8.108-2.022-14.573-3.702-19.998-5.305-5.424-1.602-9.807-3.126-13.754-4.83a76.174 76.174 0 0 1-5.666-2.725 84.06 84.06 0 0 1-5.463-3.19c-3.673-2.327-7.512-5.095-12.119-8.563-3.073-2.315-5.62-4.324-7.832-6.248-2.212-1.925-4.092-3.765-5.83-5.737-1.738-1.972-3.334-4.076-4.982-6.533-1.649-2.457-3.348-5.267-5.293-8.647a170.439 170.439 0 0 1-5.184-9.726c-1.698-3.446-3.39-7.15-5.148-11.28-1.758-4.128-3.58-8.681-5.54-13.826-1.958-5.144-4.054-10.88-6.355-17.373-1.436-4.052-2.687-7.53-3.777-10.742-1.09-3.211-2.019-6.155-2.807-9.14a92.604 92.604 0 0 1-1.969-9.387c-.531-3.375-.945-7.099-1.265-11.479-.32-4.38-.546-9.416-.7-15.416-.153-6-.234-12.963-.265-21.199-.063-16.471.074-38.03.228-67.137.22-41.274.406-65.687.706-80.638.15-7.476.327-12.586.552-16.254.226-3.669.5-5.897.838-7.608.871-4.4 1.593-10.3 1.604-13.113.01-2.812.494-7.537 1.074-10.5.64-3.269 1.352-9.149 2.039-16.57.687-7.422 1.347-16.385 1.883-25.817.47-8.275 1.031-15.23 1.883-22.576.851-7.346 1.993-15.084 3.623-24.924 2.685-16.215 4.85-29.554 6.62-41.039 1.772-11.485 3.15-21.116 4.266-29.918a645.217 645.217 0 0 0 2.692-24.94c.72-8.165 1.308-16.525 1.892-26.103.622-10.175 1.557-21.2 2.08-24.5.305-1.918.528-6.206.67-11.671.143-5.466.206-12.11.192-18.74-.014-6.631-.104-13.247-.27-18.659-.165-5.412-.406-9.62-.719-11.43-.26-1.512-.563-6.262-.841-12.697-.279-6.434-.532-14.553-.694-22.803-.262-13.418-.353-21.38-.138-27.949.107-3.284.291-6.22.568-9.316.277-3.096.646-6.35 1.125-10.272 1.179-9.645 2.749-19.77 3.488-22.5a92.667 92.667 0 0 1 3.139-9.476c1.194-3.05 2.507-5.935 3.852-8.492 1.344-2.558 2.72-4.787 4.042-6.522.661-.867 1.31-1.611 1.932-2.21.623-.6 1.22-1.056 1.783-1.347.866-.447 1.776-1.221 2.58-2.146.805-.925 1.503-2.001 1.944-3.057.42-1.005 1.31-2.484 2.408-4.058a49.421 49.421 0 0 1 3.646-4.625c2.49-2.767 6.657-8.18 9.26-12.03 1.475-2.18 2.862-4.151 4.217-5.949 1.355-1.797 2.677-3.42 4.023-4.906a46.785 46.785 0 0 1 4.165-4.08 42.73 42.73 0 0 1 4.632-3.469 53.597 53.597 0 0 1 5.436-3.072c1.982-.982 4.155-1.933 6.57-2.89 4.831-1.916 10.638-3.854 17.865-6.102 4.382-1.364 8.276-2.49 12.047-3.444a146.758 146.758 0 0 1 11.313-2.4c3.894-.668 8.033-1.225 12.783-1.734 4.75-.51 10.11-.971 16.45-1.448 8.25-.62 25.124-2.034 37.5-3.142 5.013-.45 9.276-.797 13.568-1.059a336.62 336.62 0 0 1 13.74-.547z" style="isolation:auto;mix-blend-mode:normal" color="#000" overflow="visible" fill="url(#e)" transform="translate(-228.692 -30.65)"/><path d="M608.05 798.836c-.305.055-.476.252-.476.605 0 2.888 7.624 19.177 11.38 24.31 7.5 10.257 10.083 12.76 15.23 14.77 6.417 2.507 7.242 2.464 9.57-.496 1.081-1.375 2.607-2.5 3.392-2.5 2.534 0 1.54-2.062-3.888-8.06-6.327-6.992-11.684-16.9-11.684-21.611 0-4.14-1.77-5.016-5.86-2.9-4.518 2.336-8.522 1.962-12.21-1.141-2.403-2.022-4.536-3.141-5.453-2.977zM478.613 779.525c-.43 0-2.958.962-5.615 2.137-3.242 1.434-7.724 2.302-13.627 2.639-7.998.456-8.797.685-8.797 2.525 0 3.215 5.729 11.286 12.108 17.059 6.903 6.247 14.16 10.415 20.115 11.554 2.352.45 5.402.585 6.777.301 3.447-.711 16.5-5.967 16.5-6.644 0-.303-2.252-2.07-5.006-3.924-6.678-4.497-16.661-15.298-19.433-21.024-1.23-2.542-2.59-4.623-3.022-4.623zM651.781 754.006c-2.18.491-4.76 2.416-5.01 4.158-.247 1.728.363 2.243 3.303 2.795 1.984.372 3.855 1.326 4.16 2.121.305.795 1.8 1.445 3.325 1.445 2.81 0 4.705 1.574 6.515 5.41 1.826 3.87 6.971 10.431 9 11.475 1.1.566 4.025.936 6.5.822 3.879-.178 4.546-.529 4.83-2.537.851-6.006-12.448-16.816-22.306-18.133-3.314-.442-4.288-1.104-5.524-3.753-.825-1.77-2.107-3.46-2.85-3.756-.536-.215-1.216-.21-1.943-.047zM441.594 749.014c-.525.324-.76 1.81-.524 3.3.237 1.492.704 5.299 1.04 8.461.685 6.473 1.831 7.125 5.54 3.155 1.334-1.428 4.337-3.72 6.674-5.094 2.338-1.375 4.25-3.085 4.25-3.799 0-1.46-15.48-6.951-16.98-6.023zM495.12 736.525c-2.452 0-3.577.527-4.003 1.87-.824 2.595.889 6.617 3.645 8.56 3.626 2.556 6.255 1.663 6.63-2.25.468-4.874-2.067-8.18-6.273-8.18zM675.107 726.781c-4.923.338-12.376 1.921-15.642 3.565-2.884 1.451-3.355 2.212-3.46 5.595-.087 2.836-.783 4.451-2.525 5.862-2.852 2.31-2.802 3.005.286 3.867 2.554.713 2.32.75 5.808-.865 1.375-.637 4.582-1.43 7.125-1.762 6.044-.788 12.994-4.357 14.77-7.586 1.986-3.612.77-7.726-2.53-8.555-.83-.208-2.19-.233-3.832-.12zM334.02 723.84c-.412-.196-1.099-.156-2.196.055-1.512.29-9.162 1.728-17 3.193-17.051 3.188-18.103 4.61-6.75 9.133 4.137 1.647 6.595 1.012 17.237-4.453 6.524-3.351 9.24-5.28 9.25-6.573.006-.73-.13-1.16-.541-1.355zm21.054 5.185l-4.24.19c-5.66.251-9.745 2.834-13.342 8.44-3.349 5.218-5.58 14.09-4.564 18.14.964 3.843 5.985 9.195 10.918 11.637 7.8 3.86 10.847 2.427 12.642-5.942 1.373-6.399 1.244-19.797-.26-26.965l-1.154-5.5zM315.074 701.275l-8.5.577c-11.449.775-19.747 2.576-20.463 4.441-1.526 3.977 5.257 8.744 14.463 10.162 4.335.668 21.181.331 23.75-.475 2.442-.766 1.18-3.648-4-9.14l-5.25-5.565z" fill="url(#a)" transform="translate(-228.692 -30.65)"/><path d="M658.074 697.21c-20.495.262-34.967 4.917-45.111 14.51-9.924 9.386-11.389 14.76-11.389 41.813 0 19.274 1.529 35.347 3.121 32.834.687-1.083.866-1.053.932.158.045.825.688-.44 1.428-2.81 1.824-5.845 5.182-10.544 10.27-14.367 2.337-1.757 4.25-3.742 4.25-4.412 0-.67-2.363-2.564-5.25-4.207-6.937-3.949-10.693-8.074-11.417-12.536-.531-3.276-.185-4.05 3.42-7.656 3.592-3.592 4.524-4.012 8.92-4.012h4.91l1.68-7.156c2.904-12.375 9.028-18.725 16.158-16.756 1.694.468 5.22 3.151 7.838 5.961l4.758 5.11 6.242-2.028c16.53-5.37 25.136-4.451 29.791 3.184 5.447 8.932-.473 19.708-13.506 24.584-3.09 1.156-6.053 2.101-6.582 2.101-.53 0-.963.67-.963 1.489 0 .837 3.027 3.01 6.93 4.976 7.956 4.007 13.245 9.003 16.674 15.752 3.104 6.111 3.023 9.053-.354 12.822-3.391 3.786-9.47 5.372-15.445 4.03-2.308-.519-4.589-.701-5.068-.405-.48.297-.577 3.306-.215 6.688.582 5.44-.035 12.6-2.14 24.898-.806 4.703.24 4.79 6.439.541 10.25-7.026 20.405-18.355 25.527-28.478 3.331-6.585 8.438-24.676 9.224-32.68.776-7.889-1.816-28.622-4.44-35.531-1.112-2.924-3.004-6.751-4.206-8.506-3.047-4.447-15.237-12.978-24.041-16.824-6.951-3.037-8.03-3.218-18.385-3.086zm-20.513 23.315c-2.676 0-5.096 5.106-5.729 12.092l-.521 5.768 3.869 1.822c4.644 2.187 5.364 4.657 2.31 7.908-2.76 2.939-6.752 3.114-10.144.446-2.676-2.105-11.29-4.45-12.836-3.495-1.962 1.213-.801 4.46 2.49 6.971 1.884 1.437 6.497 3.922 10.25 5.524 3.753 1.6 7.39 2.922 8.082 2.937.692.015 1.976-1.766 2.854-3.959.877-2.193 3.124-5.33 4.992-6.97 3.946-3.465 4.104-4.12 1.396-5.811-2.492-1.557-2.697-7.237-.388-10.76.927-1.415 1.364-3.415 1.03-4.715-.81-3.164-5.344-7.758-7.655-7.758zm-34.381 25.272c.332.332.367 1.194.078 1.916-.32.798-.556.561-.604-.604-.043-1.054.193-1.644.526-1.312zm49.4 22.992c-.52.017-1.164.129-2.006.291-1.925.371-7.236.834-11.803 1.027-6.75.286-9.251.868-13.37 3.11-6.686 3.639-9.827 7.821-9.827 13.088 0 6.764 1.41 9.22 5.295 9.22 4.97 0 11.261-5.82 14.79-13.683 2.386-5.32 3.227-6.317 5.339-6.317 4.5 0 5.02 3.075 1.992 11.78-5.225 15.025-3.621 24.617 5.826 34.867 4.662 5.057 7.497 5.407 9.52 1.174 5.09-10.653 3.85-36.094-2.475-50.79-1.289-2.994-1.723-3.817-3.28-3.767zM336.395 675.684c-1.561-.162-3.658-.112-6.762.101-10.114.693-13.459 2.237-13.863 6.397-.169 1.728.371 4.761 1.199 6.742 1.426 3.414 1.75 3.601 6.226 3.601 5.135 0 8.38 2.01 8.38 5.188 0 1.032-.676 2.134-1.5 2.451-2.025.777-1.891 1.914.626 5.318 1.622 2.195 1.976 3.685 1.488 6.282-.35 1.872-.332 3.71.041 4.084 1.14 1.14 3.032.76 4.393-.88.711-.856 3.251-2.707 5.647-4.11 3.638-2.133 5.091-2.442 8.83-1.881 3.537.53 4.474.37 4.474-.768 0-2.4 2.487-3.701 8.13-4.252 8.517-.831 10.87-2.104 10.87-5.879 0-2.151-.848-4.001-2.58-5.629-2.22-2.087-3.74-2.472-10.924-2.773-7.667-.321-8.492-.167-10.17 1.9-4.151 5.117-5.492 6.065-8.136 5.76-3.579-.413-4.11-4.585-1.211-9.498 2.584-4.38 1.961-8.65-1.604-10.986-.968-.635-1.994-1.007-3.554-1.168zm20.18 36.773v3.418c0 2.577.491 3.547 2 3.941 1.31.343 2 1.364 2 2.961 0 1.342.837 3.197 1.86 4.123 1.024.927 2.673 3.48 3.663 5.676 1.247 2.766 2.595 4.167 4.388 4.559 1.424.311 3.038.739 3.588.95 1.66.642 9.44-.455 11.66-1.644 1.751-.937 2.002-1.797 1.59-5.449-1.044-9.263-10.9-16.186-25.5-17.914l-5.25-.621zM493.027 665.813c-8.483.144-16.455 1.686-22.222 4.597-7.327 3.699-17.24 11.77-20.02 16.3-2.713 4.423-8.044 21.07-8.746 27.315-.31 2.75-.754 6.238-.988 7.75-.551 3.556 1.4 3.612 8.738.252 3.001-1.374 8.281-2.793 11.732-3.154l6.276-.656-.645-4.096c-.354-2.253-.915-7.764-1.246-12.25-.525-7.117-.32-8.736 1.602-12.707 2.739-5.658 8.25-10.639 11.773-10.639 4.07 0 10.474 7.359 13.815 15.873 2.644 6.74 4.479 8.555 6.06 5.997 1.977-3.199 25.559-11.87 32.281-11.87 3.207 0 7.574 2.492 9.489 5.414 3.924 5.99.187 16.358-8.711 24.163-3.088 2.708-5.62 5.387-5.627 5.953-.007.565 3.024 1.812 6.736 2.77 13.953 3.598 21.25 8.702 21.25 14.864 0 4.517-5.3 13.91-10.7 18.961-5.79 5.415-10.704 7.283-17.446 6.635-2.703-.26-5.138-.108-5.412.336-.275.444.425 5.335 1.552 10.87 1.128 5.533 2.109 13.205 2.18 17.048.118 6.392.306 6.986 2.227 6.977 3.905-.019 12.614-4.892 18.236-10.205 6.548-6.189 17.343-20.341 23.1-30.286 6.82-11.78 8.758-19.081 8.761-33 .003-11.072-.21-12.433-2.75-17.605-1.514-3.083-5.842-9.173-9.617-13.535-6.512-7.524-7.73-8.402-23.748-17.117-9.286-5.053-19.476-10.076-22.645-11.164-7.808-2.681-16.801-3.936-25.285-3.792zm-13.914 21.712c-4.504 0-6.394 9.998-4.133 21.862.877 4.598 1.615 9.998 1.64 12 .023 2.001.628 5.28 1.345 7.287 1.548 4.334.525 6.851-2.785 6.851-2.587 0-5.014-2.342-6.094-5.877-.694-2.271-1.033-2.354-7.676-1.878-4.985.356-8.557 1.318-12.642 3.404-6.66 3.4-7.84 6.226-3.729 8.92 2.824 1.85 22.412 7.748 29.566 8.902 11.74 1.894 12.045 9.055.47 10.967-7.88 1.302-16.284 4.686-20.415 8.223-8.236 7.05-2.988 10.217 11.4 6.88 7.591-1.76 11.852-4.36 14.018-8.548 2.05-3.963 5.375-4.861 7.64-2.063 1.629 2.01 1.646 2.444.221 5.432-1.252 2.625-1.338 4.025-.449 7.326 1.68 6.235 8.741 14.99 16.492 20.45 4.344 3.058 7.963 4.862 9.75 4.862 2.772 0 2.842-.136 2.842-5.369 0-10.472-5.691-35.63-8.06-35.63-.54 0-1.515-1.17-2.166-2.598-1.03-2.259-1.63-2.525-4.61-2.041-8.645 1.403-19.172-7.98-19.16-17.078.005-3.648 3.345-9.028 6.494-10.463 2.957-1.347 3.122-2.476.752-5.104-1.406-1.56-1.697-3.457-1.484-9.676.385-11.247-5.004-27.04-9.227-27.04zm51.742 10.01c-4.968-.036-14.507 2.575-22.193 6.45-8.838 4.454-9.823 5.743-10.353 13.54-.243 3.575-.786 7.513-1.205 8.75-.635 1.874-.402 2.25 1.392 2.25 1.186 0 4.008 1.729 6.272 3.84 3.668 3.422 4.166 4.44 4.576 9.385.388 4.683.13 5.877-1.655 7.662-2.97 2.97-2.695 4.4.702 3.654 1.982-.435 3.549-.041 5.293 1.33 1.362 1.072 4.706 2.656 7.433 3.52 10.19 3.23 18.296-.275 23.031-9.953 3.388-6.923 2.833-8.18-4.644-10.508-26.078-8.12-31.817-10.147-33.266-11.748-3.634-4.015-1.309-7.177 5.287-7.191 5.452-.012 13.29-3.488 17.625-7.817 3.1-3.095 6.035-10.377 4.912-12.193-.402-.652-1.55-.959-3.207-.97z" fill="url(#a)" transform="translate(-228.692 -30.65)"/><path d="M455.096 485.525c-1.792 0-1.805-.191.697 11.75.605 2.888 1.651 5.25 2.324 5.25 1.556 0 9.468-7.858 9.43-9.367-.036-1.416-10.177-7.633-12.451-7.633zm31.738 10.875l-5.379 1.612c-11.384 3.41-15.403 6.79-16.562 13.937-.502 3.089-.253 4.151 1.218 5.227 2.584 1.89 6.145 1.682 10.93-.635 4.764-2.306 15.533-11.602 15.533-13.408 0-.678-1.29-2.47-2.869-3.983l-2.871-2.75zM471.73 474.525c-6.802 0-11.156 1.007-11.156 2.579 0 1.79 8.18 7.305 14.977 10.1 3.038 1.248 5.973 2.136 6.523 1.97.55-.166 1.132-1.617 1.293-3.225.222-2.212-.244-3.167-1.918-3.924-2.195-.992-3.233-2.39-4.271-5.75-.42-1.355-1.647-1.75-5.448-1.75zM513.324 472.525l.84 3.25c.462 1.788.855 6.032.875 9.43.04 6.878-2.395 11.558-6.318 12.14-2.988.445-3.705-2.116-2.217-7.921 1.37-5.346.657-10.737-1.531-11.576-2.358-.905-7.915.578-10.223 2.728-4.094 3.815-2.036 13.08 3.572 16.082 3.254 1.742 4.184 3.768 4.742 10.33.698 8.203 3.73 13.107 9.532 15.422 4.115 1.642 7.807 1.304 8.943-.818 1.835-3.43 1.124-12.21-1.584-19.567-2.7-7.337-3.086-10.195-1.576-11.705.498-.498 3.706-1.301 7.127-1.785 7.835-1.107 11.068-3.115 11.068-6.877 0-1.552-.809-3.555-1.799-4.451-2.863-2.59-9.985-4.682-15.95-4.682h-5.5zM493.762 445.59a8.826 8.826 0 0 0-5.475 2.328c-4.866 4.51-4.846 15.197.04 20.428 3.194 3.42 4.355 3.634 9.673 1.783 2.159-.752 5.58-1.145 7.604-.873 3.22.432 3.758.201 4.312-1.867 1.071-4.001.75-4.864-1.807-4.864-3.01 0-4.53-2.565-4.55-7.683-.018-4.336-.494-5.255-3.957-7.625a9.32 9.32 0 0 0-5.84-1.627zm25.66 5.926c-1.004-.1-2.316.19-3.87 1.021-1.923 1.03-4.338 7.594-3.37 9.16.601.974 1.532.54 6.142-2.869 4.343-3.212 4.108-7.015 1.098-7.312zM381.346 441.602c-5.303-.423-11.94 1.07-15.15 3.816-2.318 1.983-5.552 9.254-6.495 14.607-.781 4.434-.09 4.265-11.877 2.91-5.768-.662-5.972-.415-4.34 5.278 1.232 4.294-.587 6.862-4.216 5.951-2.013-.505-2.899-1.639-3.83-4.898-1.778-6.216-2.483-6.814-7.229-6.133-8.346 1.197-11.635 2.4-11.635 4.258 0 3.054 4.12 5.862 14.5 9.882 8.712 3.375 10.04 4.199 10.301 6.399.351 2.95-.977 4.23-8.662 8.353-6.36 3.412-9.31 7.443-7.502 10.243 2.49 3.854 14.654-.04 22.838-7.311l3.974-3.531-2.724-4.848c-4.8-8.539-3.201-13.525 5.658-17.65 8.1-3.772 15.052-2.897 19.367 2.435 2.947 3.643.191 12.638-4.21 13.742-3.84.964-4.812-.277-4.073-5.205.79-5.268-.312-6.03-6.361-4.402-3.634.978-4.106 1.445-4.106 4.066 0 3.534 3.103 6.961 6.301 6.961 4.577 0 6.41 4.915 2.7 7.233-1.1.687-2 2.185-2 3.33 0 3.807 3.145 11.382 5.991 14.43 2.292 2.453 3.614 3.006 7.16 3.005 5.334-.002 10.826-2.626 12.747-6.091 1.278-2.306 1.224-3.238-.48-8.393-1.773-5.36-2.25-5.92-6.304-7.406-2.411-.884-5.03-2.586-5.822-3.783-1.297-1.964-1.227-2.39.733-4.35 2.314-2.314 4.811-2.301 10.517.053 3.557 1.467 13.232.589 16.028-1.455 1.482-1.085 1.632-1.898.855-4.692-1.293-4.652-7.697-7.777-17.555-8.566-12.756-1.022-16.639-5.282-8.931-9.799 6.294-3.69 11.06-9.247 11.06-12.897 0-2.563-.567-3.556-2.547-4.458-1.294-.59-2.914-.944-4.681-1.084zM630.281 437.232l.576 8.897c.317 4.893 1.396 12.046 2.397 15.896l1.82 7 5.854 1.852c3.844 1.217 7.135 3.137 9.593 5.596 3.557 3.556 4.013 3.722 9.149 3.341 6.345-.47 10.717 1.715 13.91 6.952 2.46 4.033 2.47 6.117.057 11.431-2.293 5.05-6.483 8.18-8.912 6.658-2.432-1.523-2.522-4.681-.194-6.789 2.756-2.494 2.773-8.08.03-9.548-2.738-1.466-8.687-.294-13.188 2.595-2.757 1.77-3.873 3.296-4.377 5.98-.797 4.25.45 5.873 5.496 7.151 7.319 1.854 6.66 7.853-.846 7.692-6.96-.15-13.215-6.266-13.324-13.026-.034-2.136-.654-4.58-1.377-5.431-.722-.851-2.888-4.959-4.814-9.127-3.935-8.517-3.928-8.512-15.76-9.483-6.264-.514-8.18-.32-10.25 1.035-5.28 3.46-3.035 5.743 12.838 13.047 12.99 5.978 14.615 7.043 14.615 9.574 0 2.811-2.147 3.882-11.092 5.538-11.674 2.16-14.57 3.218-16.892 6.17-2.245 2.853-2.51 5.977-.973 11.51 2.419 8.708 8.217 9.154 22.383 1.72 6.295-3.304 10.591-4.954 12.361-4.75 2.603.3 2.718.556 2.805 6.312.05 3.3.425 8.25.836 11 1.542 10.318 10.35 27.142 15.787 30.16 1.258.699 2.995 1.286 3.861 1.305 5.056.114 9.924-12.929 9.924-26.588 0-9.362-2.775-19.892-5.963-22.617-2.282-1.951-2.64-4.754-.836-6.558 1.914-1.914 5.109-1.368 7.645 1.306 2.31 2.436 9.059 4.962 16.41 6.145 8.8 1.416 18.744-4.881 18.744-11.871 0-10.913-14.012-23.08-29.26-25.409-5.905-.901-7.74-2.056-7.74-4.873 0-3.026 1.485-3.798 11.5-5.986 18.251-3.987 23.871-11 15.352-19.154-2.765-2.646-3.562-2.856-10.67-2.828-12.92.05-22.33 5.895-26.21 16.279-2.431 6.51-4.499 9.19-7.091 9.19-3.298 0-4.194-3.542-2.32-9.182 1.991-5.995 1.452-13.401-1.323-18.153-2.483-4.252-10.094-8.781-15.843-9.43l-4.688-.529zm11.36 42.504c-2.223-.507-2.879 1.405-1.032 4.856 1.104 2.061 1.867 2.291 4.383 1.326 2.244-.861 1.96-3.015-.64-4.836-1.055-.739-1.97-1.177-2.711-1.346z" fill="url(#f)" transform="translate(-228.692 -30.65)"/><path d="M363.537 415.525c-8.647 0-28.026 3.605-34.103 6.344-9.547 4.303-16.546 12.443-20.372 23.692-2.462 7.239-3.396 17.964-1.564 17.964.508 0 2.232-1.31 3.832-2.91 2.85-2.85 6.889-4.403 14.594-5.613 3.038-.477 3.732-.96 3.287-2.291-.31-.927-1.736-5.006-3.168-9.065-2.207-6.255-2.424-7.81-1.434-10.2 4.109-9.92 22.256-7.879 29.465 3.314 1.65 2.561 3.335 4.68 3.742 4.71.408.03 2.782-1.501 5.274-3.404 7.153-5.46 18.568-6.58 26.39-2.59 8.032 4.098 9.643 9.904 5.131 18.481-3.2 6.083-3.333 8.568-.46 8.568.9 0 4.477 1.356 7.947 3.012 5.248 2.505 6.659 3.734 8.392 7.315 4.51 9.317 1.41 16.163-8.924 19.693-5.89 2.012-5.75 1.708-4.435 9.67.884 5.35.097 8.381-3.186 12.283-6.654 7.909-19.63 10.813-26.771 5.992-4.125-2.785-10.158-11.04-11.178-15.295-.935-3.901-2.75-4.276-6.623-1.369-10.995 8.254-23.865 10.796-29.217 5.774-3.008-2.823-4.58-7.63-3.81-11.653.297-1.555 2.72-5.007 5.384-7.672 2.665-2.664 4.844-5.202 4.844-5.638 0-.437-1.735-1.314-3.855-1.95-2.12-.635-6.01-3.052-8.645-5.37-5.542-4.879-7.702-5.63-7.047-2.452.245 1.189.719 5.31 1.053 9.16.77 8.866 2.5 14.267 8.992 28.084 5.741 12.219 10.916 18.78 17.002 21.551 6.43 2.929 26.332 2.35 21.518-.625-1.565-.967-1.205-5.5.488-6.15.828-.318 4.454.22 8.055 1.195 5.7 1.543 7.407 1.613 13.191.547 19.03-3.506 33.212-16.084 42.08-37.322 2.306-5.524 2.624-7.664 2.645-17.79l.023-11.511-4.607-9.488c-5.056-10.412-10.02-16.072-22.3-25.418-11.912-9.067-18.76-11.573-31.63-11.573zm-27.432 20.004c-2.057.003-3.53.493-3.53 1.473 0 1.424 4.346 13.656 5.536 15.582.32.518 3.313.941 6.65.941h6.07l-.655-4.097c-1.146-7.164-3.23-10.849-7.033-12.438-2.338-.976-4.98-1.463-7.038-1.46zM504.047 549.2l2.398 2.769c5.713-1.597 7.633-2.918 12.686-7.645 3.595-3.363 8.801-9.531 11.57-13.707 6.545-9.87 16.013-29.407 19.963-41.197 3.035-9.057 3.111-9.728 2.635-22.863-.27-7.443-1.002-15.175-1.627-17.184-1.546-4.967-7.52-10.679-19.649-18.789-15.282-10.22-21.58-11.716-42.712-10.152-8.738.646-13.941 1.52-16.489 2.77-7.624 3.738-15.716 18.82-18.83 35.095-2.01 10.507-2.003 10.555 1.832 9.906 1.788-.302 7.143-1.082 11.9-1.732l8.649-1.182.352-7.705c.281-6.192.84-8.435 2.85-11.422 2.657-3.952 10.29-9.64 12.921-9.63 3.855.013 9.04 2.268 12.992 5.652l4.283 3.666 4.87-1.75c5.964-2.145 10.811-.96 13.918 3.402 2.56 3.596 2.548 6.56-.047 11.402-2.57 4.794-2.148 5.943 2.722 7.403 7.625 2.284 14.193 9.182 14.3 15.02.099 5.465-5.069 11.285-12.571 14.16-5.481 2.1-5.435 1.907-2.87 12.038 3.62 14.287-3.422 26.69-13.872 24.436-7.865-1.697-15.432-7.218-18.758-13.686-1.06-2.062-2.441-3.75-3.067-3.75-.625 0-3.516 1.838-6.425 4.082-6.735 5.196-12.083 7.918-15.55 7.918-3.836 0-4.384 1.595-1.827 5.305 3.716 5.393 8.608 8.504 14.529 9.244 5.608.7 17.97.112 22.672-1.08 2.3-.583 2.907-.28 3.93 1.963 1.047 2.299.936 2.926-.836 4.7-1.155 1.154-3.699 1.972-6.842 2.542zM668.818 417.162c-4.287.088-9.66.395-16.744.817-25.771 1.534-27.106 1.812-40.142 8.367-12.58 6.324-17.3 12.642-23.407 31.33-6.185 18.929-7.812 40.202-4.5 58.85 2.743 15.44 11.774 29.964 25.223 40.566 12.301 9.697 21.966 14.544 36.826 18.472 3.85 1.018 7.563 1.876 8.25 1.907 2.478.109 1.17-3.261-2.808-7.24-7.14-7.14-14.858-22.45-16.936-33.592-.552-2.963-1.006-5.55-1.006-5.75 0-1.12-3.683.01-8.838 2.713-7.873 4.126-12.658 4.681-18.412 2.136-5.44-2.407-9.43-8.433-10.638-16.072-1.436-9.083 2.508-15.747 11.931-20.16 2.727-1.277 4.956-2.807 4.955-3.4 0-.594-2.47-2.37-5.488-3.948-6.052-3.162-12.51-9.608-12.51-12.488 0-2.73 4.054-8.262 8.024-10.951 3.14-2.127 4.364-2.323 12.644-2.024 5.042.182 9.397.1 9.678-.181.281-.282-.104-3.443-.856-7.028-.75-3.584-1.646-9.88-1.99-13.99-.538-6.442-.346-7.911 1.395-10.672 1.11-1.76 3.416-3.925 5.125-4.808 7.327-3.79 23.65 4.088 29.48 14.226 1.65 2.87 3.568 5.232 4.26 5.25.692.019 3.087-1.291 5.322-2.91 8.425-6.103 22.687-8.302 29.918-4.613 7.139 3.641 13 11.358 13 17.115 0 5.826-5.125 12.263-12.404 15.58-3.776 1.72-3.113 3.951 2.209 7.438 5.931 3.885 13.645 13.354 15.635 19.195 1.221 3.585 1.307 5.356.427 8.848-1.503 5.97-7.533 12.56-14.058 15.367-4.673 2.01-6.256 2.192-14.055 1.603l-8.789-.664.768 4.287c1.44 8.043.76 19.898-1.55 26.996-2.951 9.074-2.885 10.178.567 9.346 5.46-1.316 20.899-9.55 27.75-14.8 7.475-5.729 18.395-18.471 22.86-26.675 6.28-11.54 7.34-31.067 2.652-48.894-3.801-14.455-5.6-18.43-12.893-28.479-7.893-10.875-13.775-16.422-24.57-23.171-10.333-6.461-13.442-8.163-26.305-7.899z" fill="url(#f)" transform="translate(-228.692 -30.65)"/><path d="M360.912 383.725c-18.575 1.036-37.95 9.468-50.951 22.984-13.985 14.54-24.859 32.292-31.059 50.703-3.142 9.33-4.294 30.08-2.392 43.088 3.66 25.034 24.14 51.743 48.367 63.08 14.587 6.826 31.531 6.664 46.197-.443 3.85-1.866 9.7-4.155 13-5.084 11.66-3.285 28.294-13.395 36.938-22.45 1.615-1.692 3.255-3.078 3.642-3.078.388 0 1.462 1.913 2.387 4.25 4.726 11.938 17.965 28.611 27.66 34.832 4.776 3.065 16.559 6.927 27.223 8.922 10.618 1.987 24.144-3.442 48.65-19.525 7.53-4.942 27.339-23.882 36.453-34.856l4.883-5.877 1.25 4.885c5.046 19.715 14.156 35.187 29.111 49.438 13.107 12.488 24.977 19.21 36.53 20.687 10.263 1.312 33.527.644 40.04-1.15 11.294-3.11 26.196-12.048 33.604-20.154 9.566-10.466 23.497-34.484 21.285-36.696-.798-.798-1.721-.304-3.376 1.801-11.655 14.823-24.393 25.19-39.28 31.975-4.616 2.103-7.56 4.083-7.963 5.353-1.481 4.668-13.988 9.115-25.634 9.115-13.078 0-34.454-8.273-48.258-18.677-18.512-13.952-29.793-30.228-33.205-47.907-3.575-18.52-2.897-36.17 2.111-54.984 4.751-17.851 10.893-29.898 19.098-37.46 4.922-4.538 22.036-13.223 29.351-14.895 2.475-.566 15.02-1.583 27.877-2.26 27.375-1.441 27.79-1.36 44.133 8.732 11.776 7.272 22.376 17.756 30.783 30.451 6.147 9.283 8.49 15.171 13.326 33.5.802 3.037 1.469 4.257 1.702 3.106.311-1.542.564-1.636 1.36-.5 1.728 2.462-.076-14.556-2.308-21.781-4.265-13.81-8.65-21.11-18.865-31.412-18.104-18.258-37.872-27.074-64.008-28.543-11.771-.662-33.919 2.897-44.5 7.15-13.099 5.265-26.79 14.961-33 23.371-1.65 2.235-3.299 4.073-3.664 4.086-.365.013-2.358-3.014-4.43-6.727-4.937-8.85-13.01-17.205-22.902-23.709-21.196-13.933-34.774-16.829-59.004-12.58-7.023 1.232-15.263 3.098-18.312 4.147-11.081 3.812-26.168 14.866-34.256 25.097l-3.723 4.711-2.504-3.787c-1.378-2.082-6.17-7.658-10.65-12.39-12.454-13.157-30.927-24.117-46.09-27.346a59.58 59.58 0 0 0-8.736-1.178c-2.6-.16-5.237-.163-7.89-.015zm318.85 23.117c.797.319.561.557-.604.605-1.054.044-1.645-.193-1.312-.525.332-.332 1.194-.37 1.916-.08zm-301.584 1.183l7.449 3.717c8.13 4.058 17.928 11.467 27.758 20.99 5.034 4.877 7.36 8.256 11.5 16.704l5.19 10.59v13.5c0 12.348-.225 14.035-2.645 19.779-4.482 10.636-9.01 17.308-17.856 26.318-9.046 9.213-13.928 12.25-25.5 15.857-5.226 1.63-8.9 2.101-14.5 1.864-7.239-.308-7.502-.238-7.615 1.998-.064 1.274-.65 2.849-1.3 3.5-1.441 1.44-15.674 1.88-22.362.691-10.925-1.943-20.078-10.71-27.676-26.508-8.629-17.94-9.791-21.78-11.484-37.896-1.938-18.444-1.944-21.682-.047-29.143 2.794-10.992 7.763-19.521 15.85-27.203 11.576-10.997 23.565-14.659 48.187-14.72l15.05-.038zm115.902 3.621c9.795-.334 19.729.483 25.168 2.608 7.979 3.117 25.061 14.8 32.457 22.195 7.536 7.536 8.404 9.625 10.002 24.076 1.85 16.73.552 23.413-8.668 44.682-11.377 26.245-26.924 47.07-39.678 53.147-8.897 4.238-16.192 3.52-15.603-1.54.254-2.185 1.01-2.893 3.816-3.574 2.014-.488 3.459-.876 4.871-1.271l-2.398-2.77c-8.67 1.572-22.45.94-28.406-2.14-1.509-.78-5.194-4.063-8.188-7.297-18.941-20.46-28.43-65.237-19.44-91.737 5.655-16.665 13.155-27.739 21.725-32.082 4.89-2.477 14.547-3.962 24.342-4.297zm168.03.659c3.222-.196 6.25-.244 9.35 0-3.1-.244-6.128-.196-9.35 0zM505.306 550.832c.973.254.417.478-1.233.498-1.65.02-2.444-.187-1.767-.46.677-.275 2.027-.292 3-.038zM647.074 283.525c-4.807 0-5.5.25-5.5 1.973 0 1.365 1 2.259 3.25 2.908 6.246 1.804 7.75 1.439 7.75-1.88 0-2.97-.055-3-5.5-3zM670.674 271.885c-1.237-.067-2.706.285-4.445 1.011-4.456 1.862-6.008 4.801-5.397 10.221.372 3.3 1.328 5.096 4.113 7.723 1.996 1.882 3.63 4.07 3.63 4.863 0 2.136-2.226 4.606-4.5 4.996-1.504.258-2.077 1.257-2.307 4.024-.263 3.156.092 3.896 2.5 5.2 5.248 2.846 20.378 1.207 22.318-2.417 1.304-2.437 1.252-6.371-.147-11.04-1.09-3.636-1.303-3.785-5.25-3.616l-4.115.175-.504-8c-.564-8.962-2.185-12.939-5.896-13.14zM749.18 271.797c.332.332.367 1.194.078 1.916-.32.798-.556.561-.604-.604-.043-1.054.193-1.644.526-1.312zM498.355 264.705c-.605-.091-1.288.325-2.595 1.166-1.477.95-5.01 2.795-7.852 4.1-5.421 2.488-8.953 6.495-7.974 9.047.741 1.932 1.17 1.906 8.154-.497 7.176-2.468 14.498-6.666 14.453-8.287-.018-.664-.947-2.307-2.064-3.65-.99-1.189-1.516-1.787-2.122-1.879zM637.123 256.662c-2.957.21-1.588 2.708 4.059 8.807 8.245 8.906 10.504 8.08 5.966-2.18-2.046-4.627-2.925-5.583-5.625-6.123-1.95-.39-3.414-.574-4.4-.504zM539.611 247.574c-1.335-.201-2.037.875-2.037 3.24 0 1.81-.9 5.054-2 7.211-1.1 2.158-2 4.567-2 5.352 0 1.135 1.204 1.317 5.867.894 11.291-1.023 13.053-4.622 6.006-12.267-2.533-2.748-4.5-4.228-5.836-4.43zM693.654 241.852c-.76-.157-1.74.038-3.383.492-2.044.564-5.953 2.668-8.687 4.676l-4.97 3.648.642 7.68c.53 6.333 1.132 8.29 3.432 11.177 3.204 4.024 5.293 11.998 4.398 16.788l-.615 3.285 8.078-.524c12.468-.807 22.415-3.54 24.056-6.607.885-1.652.282-2.259-4.76-4.799-3.174-1.6-9.575-4.108-14.226-5.574-9.438-2.976-11.045-3.954-11.045-6.727 0-1.31 1.397-2.512 4.436-3.814 6.009-2.576 7.984-5.756 7.125-11.483-.368-2.452-1.452-5.424-2.408-6.605-.77-.95-1.312-1.457-2.073-1.613zM655.111 240.582c-1.39.173-2.114 1.983-2.29 5.443-.25 4.896-.167 5.056 4 7.664 5.191 3.25 6.386 3.391 7.718.903 1.744-3.258 1.2-4.933-3.135-9.635-2.843-3.084-4.902-4.548-6.293-4.375zM481.531 236.645c-.822.174-.957.639-.957 1.513 0 1.21 2.587 3.856 7 7.158 3.85 2.882 7 5.715 7 6.297 0 2.175 3.515.298 3.848-2.054.515-3.638-1.648-9.857-3.836-11.028-1.055-.565-4.64-1.31-7.965-1.658-2.757-.288-4.267-.403-5.09-.228zm40.586 7.88c-9.028 0-16.543 5.541-16.543 12.198 0 4.601 2.791 7.802 6.801 7.802 5.056 0 7.06 4.585 3.19 7.295-2.723 1.907-6.99 12.724-6.99 17.717 0 5.284 2.078 10.119 5.513 12.82 3.073 2.418 8.19 2.837 10.851.891 2.409-1.76 3.584-7.63 3.612-18.03.026-9.552-1.39-16.96-3.588-18.784-2.008-1.667-1.706-5.312.615-7.413 1.102-.997 2.481-3.58 3.063-5.738 1.57-5.83-.612-8.758-6.524-8.758zM383.72 235.707c-1.082.15-1.16.962-1.18 2.568-.02 1.513-.647 3.852-1.394 5.2-1.614 2.916-1.027 5.05 1.39 5.05.96 0 2.96 1.125 4.444 2.5 3.19 2.956 8.119 3.295 13.157.905 8.774-4.164 4.32-11.334-9.207-14.82-4.041-1.042-6.127-1.553-7.21-1.403zM384.277 218.191c-2.638.092-5.9.89-7.25 1.774-2.604 1.706-3.288 5.057-1.203 5.898 2.23.9 3.173.658 8.25-2.115 6.586-3.597 6.666-5.78.203-5.557zM505.814 212.611c-1.083-.15-2.33-.028-3.773.334-4.18 1.05-5.05 4.52-3.018 12.03 1.41 5.21 2.374 6.88 4.905 8.5 1.731 1.108 3.546 1.89 4.033 1.738 1.775-.556 4.713-9.95 4.096-13.094-1.21-6.16-2.992-9.056-6.243-9.508zm35.682 7.114c-4.81-.404-14.21 3.242-17.914 6.947-3.479 3.479-4.237 8.836-1.258 8.88.963.015 3.55.878 5.75 1.919 4.923 2.33 7.5 2.525 7.5.568 0-.818 1.818-2.635 4.04-4.037 4.42-2.79 6.22-6.205 5.759-10.92-.266-2.716-.697-3.09-3.877-3.357z" fill="url(#a)" transform="translate(-228.692 -30.65)"/><path d="M661.668 206.219c-2.326.1-4.503.37-6.594.806-9.9 2.068-20.872 7.84-27.648 14.547-4.878 4.828-6.034 6.745-8.463 14.024-2.568 7.695-2.813 9.693-2.81 22.93.002 13.997.133 14.915 3.788 26.5 2.083 6.6 5.128 15.22 6.766 19.158 3.564 8.566 13.217 23.51 18.504 28.646 4.158 4.039 7.363 4.83 7.363 1.818 0-3.155 2.07-3.832 13.5-4.418 6.05-.31 16.2-1.693 22.553-3.074 26.014-5.653 34.578-12.06 40.574-30.36 2.657-8.106 2.868-9.87 2.785-23.27-.102-16.662-1.966-25.401-8.033-37.68-7.16-14.49-15.504-20.518-35.63-25.737-11.363-2.946-19.679-4.189-26.655-3.89zm-7.04 25.406a8.27 8.27 0 0 1 2.21.252c1.4.351 5.163 3.117 8.365 6.144 3.202 3.028 6.444 5.504 7.203 5.504.76 0 2.794-1.194 4.524-2.654 4.156-3.51 12.446-7.324 15.945-7.336 4.771-.016 8.324 2.596 11.096 8.158 2.96 5.94 3.442 13.74 1.103 17.832-2.567 4.49-1.902 5.462 6.149 9 13.658 6.003 18.476 12.968 12.857 18.586-3.714 3.715-13.79 8.114-21.601 9.432l-6.905 1.164-.004 5.158c-.006 8.841-5.435 14.48-15.543 16.145-7.489 1.233-8.963 1.303-12.547.594-9.432-1.868-15.39-9.073-14.328-17.329l.61-4.75h-3.944c-5.328 0-10.159-1.737-13.593-4.886-5.364-4.919-5.427-9.714-.184-14.272 1.393-1.211 2.533-2.74 2.533-3.396 0-.657-2.386-3.866-5.303-7.135-2.916-3.269-5.892-7.367-6.613-9.107-2.975-7.183 2.083-11.913 11.484-10.739l5.292.662.687-4.59c1.106-7.377 5.442-12.32 10.508-12.437zM532.574 193.684c-6.875-.188-15.865.198-19.978.859-9.176 1.474-21.742 6.007-27.342 9.861-11.322 7.793-20.54 22.782-23.205 37.737-3.289 18.454-.348 45.144 6.486 58.884 5.884 11.83 17.303 21.88 26.637 23.444 2.696.451 6.488.875 8.424.94 4.615.153 16.837-3.272 23.224-6.509 15.6-7.904 41.206-44.816 47.287-68.164 2.891-11.097 1.355-24.622-4.068-35.82-3.159-6.523-11.83-14.736-19.21-18.195-5.098-2.389-7.18-2.735-18.255-3.037zm-26.879 10.636c4.697.385 9.101 3.25 11.88 8.487 1.374 2.592 3.02 4.714 3.657 4.716.637.002 3.337-1.12 6-2.494 2.664-1.373 7.34-2.992 10.391-3.597 10.034-1.992 16.12 2.808 16.12 12.716 0 4.77-3.358 12.852-5.714 13.756-2.845 1.092-1.544 5.12 3.125 9.664 7.019 6.832 9.011 12.118 6.403 16.993-1.556 2.906-9.007 6.836-15.393 8.119l-5.73 1.15.646 7.098c1.282 14.05-2.589 26.573-9.252 29.93-1.515.763-3.879 1.618-5.254 1.9-10.282 2.11-22.416-10.58-22.451-23.483-.019-6.769-.303-6.872-9.049-3.27-9.793 4.035-17.183 2.733-19.322-3.403-2.333-6.693 3.007-15.126 12.39-19.565 3.13-1.48 5.432-3.226 5.432-4.117 0-1.785-3.404-5.209-10.836-10.895-2.875-2.2-6.43-5.73-7.898-7.845-2.492-3.59-2.57-4.022-1.18-6.5 2.154-3.843 6.117-5.343 13.91-5.27l6.846.065-.547-7.248c-.516-6.831-.391-7.433 2.197-10.51 3.943-4.686 8.932-6.781 13.63-6.397zM354.283 191.727c-1.794-.148-5.816 1.11-11.38 3.83-12.85 6.281-20.668 19.21-21.932 36.271-.653 8.806.816 25.14 2.761 30.72.657 1.884 1.394 2.822 1.64 2.087.368-1.106.593-1.101 1.308.027.587.926.868.307.879-1.935.025-5.38 2.608-8.865 10.53-14.211 9.629-6.497 9.74-7.825 1.411-16.729-6.979-7.46-8.435-10.097-7.541-13.658.787-3.137 3.738-4.843 9.605-5.557 4.474-.544 4.493-.564 5.15-5.176.801-5.615 1.962-7.912 5.589-11.064 3.34-2.904 3.774-4.458 1.98-4.605zm4.326 10.103c-2.1.52-3.205 2.958-3.69 7.787-.507 5.07-.346 5.593 2.558 8.346 1.724 1.635 3.097 3.962 3.097 5.25 0 4.337 5.362 2.09 5.729-2.4.945-11.594-.767-17.757-5.246-18.881-.936-.235-1.747-.275-2.448-.102zm-15.713 19.213c-1.08.719.344 3.585 3.887 7.195 4.317 4.399 6.476 5.275 7.354 2.987.63-1.644-6.315-9.203-9.313-10.135-.93-.29-1.567-.287-1.928-.047zm26.993 11.674c-4.104-.398-9.126 2.208-9.856 5.115-1.012 4.034 1.172 7.607 5.885 9.627 5.242 2.247 6.339 4.386 3.635 7.09-3.586 3.585-2.234 11.977 2.773 17.226 3.176 3.33 5.612 3.496 7.692.528 1.99-2.843 2.02-11.365.05-15.14-.821-1.576-1.494-4.389-1.494-6.25 0-2.686-.4-3.388-1.94-3.388-2.762 0-3.422-1.593-3.495-8.455l-.065-6.045-3.185-.308zm-16.77 15.808c-1.787 0-15.74 9.599-16.86 11.598-.469.839-.58 2.23-.25 3.092.972 2.53 6.71.967 13.579-3.697 3.361-2.283 6.342-4.754 6.625-5.493.696-1.815-1.376-5.5-3.094-5.5z" fill="url(#a)" transform="translate(-228.692 -30.65)"/><path d="M750.646 343.656c.174-14.441.3-27.872.135-33.5a483.722 483.722 0 0 0-.902-18.908c-.415-6.067-.953-12-1.637-18.103-.683-6.104-1.514-12.379-2.515-19.13-1.001-6.75-2.172-13.976-3.54-21.984-.683-4.004-1.733-8.118-3.046-12.252-.073-.228-.182-.453-.256-.681.752 3.155 1.776 6.942 2.277 9.427.277 1.375-1.576-1.144-4.117-5.6-6.711-11.765-16.606-24.673-26.447-34.5-10.57-10.553-20.855-16.16-33.766-18.413-13.493-2.354-28.837.256-42.758 7.275-7.824 3.945-10.481 6.046-20.345 16.074-6.24 6.345-12.692 13.92-14.336 16.834l-2.99 5.3-3.956-5.92c-4.833-7.238-11.453-13.382-25.281-23.46-24.376-17.764-42.185-22.91-66.437-19.197-10.317 1.58-20.326 4.645-28.397 8.697-8.339 4.187-20.38 12.82-25.639 18.38l-5.34 5.646-6.707-6.309c-28.156-26.478-39.28-33.433-57.287-35.826-14.311-1.902-35.906 1.769-47.85 8.135-9.826 5.237-27.784 25.621-34.86 39.572-12.615 24.866-11.861 51.834 2.093 74.967 4.272 7.082 13.191 16.114 23.332 23.625 4.967 3.678 8.705 7.307 9.858 9.572 2.84 5.58 9.386 11.787 15.045 14.268 10.418 4.566 23.212 2.722 43.597-6.282 24.017-10.607 32.124-15.06 44.645-24.533l3.142-2.379 3.762 6.787c7.164 12.928 15.7 24.434 21.643 29.172 3.183 2.538 8.105 6.508 10.935 8.82 9.367 7.652 12.77 8.79 25.873 8.659 8.215-.082 13.785-.718 19.5-2.229 20.436-5.402 45.667-22.81 59.664-41.164l5.276-6.916 3.593 9.223c8.609 22.09 23.26 38.944 41.467 47.699 9.088 4.37 17.649 6.072 31 6.162 4.95.033 12.375.118 16.5.188 6.486.11 8.408-.302 14.219-3.034 24.207-11.38 49.52-38.28 57.687-61.302l1.948-5.49.127 4.5c.07 2.474.541 23.4 1.049 46.5.013.628.028.996.043 1.63zM373.574 182.13c23.949.031 33.719 2.99 44.041 13.342 10.97 10.999 15.214 22.09 15.328 40.054.105 16.37-2.454 24.266-11.963 36.914-10.337 13.753-26.72 23.351-42.648 24.987-9.076.932-12.964-.023-13.603-3.342-.547-2.84 2.564-4.556 8.287-4.572 22.087-.065 43.227-15.91 49.713-37.264 1.772-5.835 2.014-8.68 1.623-19.041-.596-15.79-3.412-23.42-11.721-31.758-8.238-8.266-14.003-10.04-34.639-10.664-14.117-.426-16.084-.296-16.084 1.074 0 .859 1.327 2.112 2.95 2.784 3.462 1.434 8.302 7.72 9.244 12.007.819 3.731 2.41 4.39 7.498 3.098 5.518-1.4 10.88.009 14.224 3.74 3.258 3.636 3.49 6.827.75 10.31-2.862 3.64-2.487 5.412 1.416 6.7 4.53 1.495 12.518 8.624 14.215 12.686 3.087 7.388-5.612 16.85-17.277 18.793-4.035.671-4.167.817-4.848 5.357-1.377 9.18-6.76 15.191-13.603 15.191-5.222 0-11.718-5.833-15.04-13.505-1.3-3.004-2.769-5.468-3.267-5.477-.498-.009-2.298 1.042-4 2.338-8.379 6.378-15.893 8.547-21.084 6.084-6.932-3.29-5.874.263 3.582 12.017 6.845 8.51 14.349 14.065 23.762 17.596 4.55 1.707 6.845 1.99 11.822 1.461 5.362-.57 6.298-.418 7.113 1.164 1.295 2.514.522 4.11-2.832 5.844-5.357 2.77-12.67 1.91-21.957-2.58-4.616-2.233-10.584-5.667-13.26-7.631-8.94-6.563-21.742-24.526-25.877-36.31-2.04-5.816-2.279-8.343-2.275-24 .004-15.45.255-18.173 2.152-23.249 4.366-11.676 13.422-22.258 23.946-27.984 9.046-4.922 16.089-6.188 34.312-6.164zm160.207 2.508c3.126.005 5.54.23 7.951.677 18.547 3.438 34.455 18.686 40.446 38.764 2.567 8.604 2.322 22.066-.557 30.443-7.489 21.795-22.088 44.982-38.316 60.858-8.6 8.413-14.55 12.118-24.924 15.517-8.816 2.89-13.634 3.65-16.307 2.575-1.1-.443-3.927-.837-6.283-.875-6.689-.11-13.727-4.336-23.242-13.953-10.013-10.121-13.216-15.675-16.496-28.606-9.094-35.847-2.456-67.508 18.138-86.512 11.86-10.944 26.283-16.498 47.364-18.242 5.261-.435 9.1-.651 12.226-.646zm125.64 13.254c7.404-.505 16.635.578 27.075 3.21 17.832 4.497 29.543 10.476 36.545 18.657 4.201 4.908 10.625 17.083 13.445 25.484 3.11 9.266 5.428 26.499 4.676 34.783-1.464 16.129-8.29 32.35-16.851 40.047-10.05 9.036-29.76 16.092-50.94 18.237-7.263.735-7.294.752-6.994 3.564.166 1.554-.228 3.46-.873 4.238-1.874 2.258-10.647 1.759-16.432-.935-16.559-7.712-37.518-47.07-41.746-78.393-2.678-19.844 4.873-43.653 16.93-53.375 6.423-5.179 20.892-12.558 28.394-14.482 2.04-.523 4.304-.867 6.772-1.035zM723.076 788.773l.362-1.273 2.738-4.791c-.683.623-1.602 1.506-1.602 1.39 0-.184 1.111-3.286 2.469-6.894 1.358-3.608 2.989-10.606 3.623-15.55.977-7.618.892-10.566-.555-19.31-3.594-21.726-8.565-33.435-18.535-43.656-11.97-12.27-26.003-19.521-43.81-22.636-11.822-2.068-15.684-1.94-31.66 1.056-20.827 3.906-34.524 9.216-45.419 17.602l-4.388 3.377-11.028-11.285c-17.629-18.042-34.963-28.764-51.197-31.67-11.658-2.087-32.653-2.102-43.638-.031-18.738 3.532-29.413 7.73-44.182 17.37l-7.584 4.952-3.483-4.7c-9.6-12.949-31.247-31.151-44.87-37.73-16.936-8.177-52.08-6.703-72.612 3.047-25.126 11.932-42.381 30.104-49.361 51.984-4.392 13.768-2.641 44.831 3.578 63.5 13.794 41.408 30.907 63.54 57.875 74.842 5.682 2.382 7.512 2.632 19.277 2.645 13.745.014 16.535-.612 23.82-5.356 2.1-1.367 5.026-4.222 6.5-6.341 2.065-2.968 4.47-4.631 10.461-7.231 8.964-3.89 28.622-16.707 33.624-21.922l3.404-3.549 4.133 7.207c2.273 3.964 6.253 10.067 8.845 13.565 2.914 3.932 4.713 7.404 4.713 9.092 0 3.932 5.573 14.507 9.309 17.668 1.755 1.485 5.666 3.848 8.691 5.25 5.02 2.325 6.92 2.583 21.737 2.957 21.296.536 29.178-.693 47.73-7.438 19.94-7.25 28.252-12.11 42.893-25.084 2.672-2.367 5.189-4.305 5.593-4.305.405 0 3.81 5.063 7.569 11.25 14.964 24.639 42.265 45.709 62.496 48.233 6.234.778 20.295-.878 25.336-2.985 8.292-3.464 30.566-22.34 36.652-31.062 3.683-5.278 15.011-28.126 17.998-36.3l2.326-6.366.172.478zM345.51 648.693c11.292-.348 19.526 2.362 34.99 10.006 12.389 6.125 15.488 8.14 20.662 13.442 7.194 7.371 11.878 16.341 16.414 31.427 5.408 17.985 5.217 33.425-.566 45.9-8.131 17.54-32.34 36.71-51.29 40.612-10.133 2.087-26.007 1.624-27.534-.805-.8-1.272-.8-2.227 0-3.5.886-1.41 3.115-1.868 11.494-2.36 18.623-1.097 24.234-2.91 37.683-12.173 12.78-8.801 21.558-20.269 24.674-32.232 2.73-10.479 1.697-20.38-4.014-38.485-6.09-19.307-10.584-24.488-29.406-33.908-16.595-8.306-21.687-9.517-37.043-8.814-19.77.904-34.793 6.697-45.152 17.41-5.214 5.392-13.848 18.322-13.848 20.738 0 1.915.288 1.922 6.188.131 2.578-.782 7.903-1.74 11.834-2.127 4.018-.396 7.347-1.227 7.605-1.898.252-.658.02-3.158-.52-5.555-.538-2.398-.721-5.65-.406-7.229 1.42-7.1 11.25-11.897 24.688-12.048 9.785-.11 14.867 2.829 18.984 10.98 1.567 3.102 1.734 3.164 6.942 2.627 11.554-1.192 21.861 4.87 24.765 14.563 1.059 3.533.95 4.462-.941 8.091-2.267 4.35-2.734 7.04-1.219 7.04.506 0 3.372 2.24 6.37 4.98 16.695 15.26 9.59 32.57-12.598 30.695l-7.264-.613-1.127 9.473c-1.836 15.446-6.697 22.451-15.584 22.46-7.52.007-19.868-8.454-23.916-16.388-1.735-3.4-1.974-5.248-1.523-11.819.315-4.6.146-7.789-.413-7.789-.52 0-2.709.9-4.865 2-4.706 2.401-8.782 2.536-13.781.452-6.006-2.504-15.83-9.304-16.93-11.72-1.105-2.424-.03-6.732 1.68-6.732 2.513 0 .68-3.138-2.9-4.964-2.163-1.104-4.218-2.47-4.569-3.038-1.259-2.037-2.5.204-2.5 4.516 0 4.279 5.78 22.242 9.498 29.523 4.215 8.254 16.866 26.15 23.53 33.286 10.306 11.035 13.832 12.865 26.185 13.597 8.866.526 10.185.853 11.867 2.93 1.447 1.786 1.652 2.786.871 4.244-.59 1.102-1.956 1.838-3.236 1.742-1.218-.09-6.49-.428-11.715-.75-11.164-.687-14.877-2.463-24.597-11.756-15.383-14.706-28.672-34.666-36.002-54.074l-4.819-12.756-.04-15c-.047-16.95.05-17.29 8.81-30.5 12.73-19.2 28.352-28.992 51.892-32.533 4.825-.726 8.928-1.183 12.692-1.299zm138.814 7.17c.688-.277 1.813-.277 2.5 0 .688.278.125.504-1.25.504s-1.937-.226-1.25-.504zm10.25 2.227c14.424-.012 16.057.18 23.5 2.787 7.03 2.462 19.5 8.812 38.803 19.758 3.897 2.21 8.137 6.01 12.92 11.582 13.714 15.976 15.926 21.13 15.883 37.039-.05 18.45-5.704 31.946-22.772 54.361-8.376 11-15.801 18.35-22.496 22.268-2.565 1.5-10.44 4.764-17.5 7.25-7.06 2.486-12.966 4.876-13.123 5.312-1.16 3.221-3.394 4.33-11.258 5.582-4.65.74-10.093 1.655-12.094 2.033-2.588.49-3.886.296-4.5-.673-.474-.75-4.688-3.262-9.363-5.584-18.618-9.248-29.734-23.713-36.619-47.649-2.342-8.143-2.679-11.352-3.113-29.67-.308-13-.063-23.278.666-28 1.398-9.057 5.118-21.154 8.648-28.12 4.682-9.24 18.97-21.128 31.274-26.02 4.991-1.985 7.441-2.245 21.144-2.256zm167.934 29.93c8.165.647 21.41 6.164 31.447 13.357 10.107 7.244 14.8 12.632 18.03 20.7 3.056 7.634 5.59 23.216 5.59 34.374 0 9.872-4.566 28.385-9.565 38.778-3.86 8.025-13.013 19.968-20.229 26.396-6.222 5.543-19.731 14.359-26.777 17.475-5 2.21-5.595 2.78-5.178 4.96.26 1.355-.03 3.088-.64 3.852-1.128 1.41-8.459 2.534-12.112 1.858-7.739-1.434-15.28-4.896-19.722-9.051-13.268-12.41-23.554-32.673-28.254-55.658-2.22-10.856-3.117-38.652-1.61-49.881 1.853-13.802 4.233-18.992 12.492-27.237 11.477-11.456 21.77-16.158 40.094-18.314 5.5-.647 11.472-1.358 13.27-1.58.935-.116 1.997-.122 3.164-.03z" fill="url(#a)" transform="translate(-228.692 -30.65)"/></svg>