<svg xmlns:osb="http://www.openswatchbook.org/uri/2009/osb" xmlns="http://www.w3.org/2000/svg" height="822.692" width="612.373"><defs><linearGradient osb:paint="solid" id="c"><stop offset="0" stop-color="#fff"/></linearGradient><linearGradient osb:paint="solid" id="b"><stop offset="0"/></linearGradient><linearGradient osb:paint="solid" id="a"><stop offset="0" stop-color="#162d50"/></linearGradient></defs><path style="isolation:auto;mix-blend-mode:normal" d="M431.502 21.022c-23.04.103-46.15.312-64.514.607-18.364.295-31.983.675-36.048 1.12-6.05.66-17.3 1.862-25 2.671a725.352 725.352 0 0 0-21.014 2.514c-7.154.96-14.637 2.068-22.986 3.395-4.95.786-12.15 1.72-16 2.076-4.476.412-8.985.96-13.49 1.633-4.507.673-9.01 1.472-13.473 2.39a245.602 245.602 0 0 0-13.235 3.104 227.174 227.174 0 0 0-12.771 3.773 264.884 264.884 0 0 1-15.77 4.629c-5.113 1.327-9.887 2.386-13.73 3.025-3.1.516-6.328 1.156-9.63 1.897-3.3.74-6.672 1.584-10.058 2.508a260.016 260.016 0 0 0-20 6.342c-6.406 2.324-12.396 4.802-17.5 7.263-2.552 1.23-4.88 2.458-6.931 3.658-2.05 1.201-3.822 2.376-5.254 3.504-.999.787-2.238 1.972-3.65 3.461-1.413 1.489-3 3.28-4.688 5.285-3.378 4.01-7.172 8.864-10.832 13.82-3.66 4.957-7.186 10.017-10.03 14.432-1.421 2.208-2.672 4.255-3.683 6.05-1.012 1.793-1.784 3.333-2.248 4.527-.975 2.507-1.935 5.718-2.873 9.582-.939 3.864-1.855 8.381-2.74 13.502-.885 5.12-1.739 10.842-2.553 17.119a682.28 682.28 0 0 0-2.315 20.437c-.544 5.5-1.451 12.424-2.017 15.387-.566 2.962-1.03 7.199-1.03 9.414s-1.317 11.716-2.927 21.113c-1.956 11.415-3.23 19.369-4.137 26.252-.907 6.884-1.447 12.697-1.935 19.834-.517 7.55-1.119 13.809-2.051 20.565-.933 6.756-2.196 14.008-4.035 23.54a314.746 314.746 0 0 0-2.059 11.86c-.528 3.473-.855 6.187-.855 7.303 0 2.231-.719 7.583-1.596 11.894-.788 3.87-1.3 7.123-1.912 13.95-.612 6.826-1.323 17.227-2.508 35.388-.347 5.316-.566 13.358-.672 22.654-.106 9.297-.1 19.848.006 30.184.105 10.336.308 20.457.594 28.89.286 8.435.656 15.182 1.094 18.772.603 4.95 1.506 16.425 2.007 25.5 1.228 22.214 2.247 39.487 3.065 51.945.818 12.459 1.434 20.102 1.86 23.055.514 3.575 1.457 10.325 2.095 15 .319 2.338.834 5.194 1.408 7.912.574 2.719 1.207 5.3 1.76 7.088a792.65 792.65 0 0 1 4.28 14.5c.991 3.497 2.335 7.595 4.944 14.832 2.61 7.237 6.485 17.613 12.541 33.668 1.557 4.125 4.496 13.125 6.534 20a162.71 162.71 0 0 0 3.02 9.195c1.059 2.924 2.164 5.69 3.296 8.252a89.177 89.177 0 0 0 3.455 7.026c1.164 2.107 2.335 3.966 3.49 5.527 1.48 2 3.192 4.126 5 6.235a144.488 144.488 0 0 0 5.582 6.138c1.868 1.938 3.696 3.72 5.352 5.205 1.656 1.486 3.14 2.676 4.314 3.43 1.705 1.094 3.985 2.296 6.598 3.512a130.923 130.923 0 0 0 8.592 3.6c3.035 1.153 6.16 2.23 9.13 3.136 2.972.906 5.791 1.642 8.214 2.117 9.401 1.843 16.756 3.245 23.914 4.326 3.579.541 7.108 1.003 10.82 1.399 3.712.396 7.605.725 11.912 1.006 8.614.561 18.88.922 32.649 1.205 13.768.282 31.039.486 53.662.73 20.385.22 39.67.536 54.341.867 14.672.332 24.73.68 26.659.963 3.85.566 9.675 1.052 12.945 1.08 2.525.022 4.117.136 5.375.53.63.197 1.175.464 1.713.824.537.36 1.066.814 1.662 1.385a13.29 13.29 0 0 1 1.98 2.414c.509.805.825 1.545.825 2.027 0 .482.129 1 .336 1.445.207.446.492.82.806 1.014.517.32 1.504.607 2.881.861 1.378.254 3.146.475 5.225.66 4.157.372 9.556.606 15.56.692 6.005.086 12.616.026 19.194-.191 6.577-.218 13.122-.593 18.998-1.133 9.075-.834 21.675-2.385 28-3.444 6.325-1.058 22.964-3.31 36.976-5.006 8.327-1.007 15.63-1.978 22.002-2.933 6.372-.955 11.812-1.892 16.412-2.832s8.362-1.881 11.375-2.844c3.013-.962 5.278-1.946 6.887-2.969.592-.376 1.468-1.312 2.402-2.52a36.048 36.048 0 0 0 2.752-4.138c.739-1.302 1.532-3.009 2.362-5.039.829-2.03 1.694-4.384 2.572-6.982 1.756-5.196 3.567-11.367 5.267-17.871 1.7-6.504 3.29-13.341 4.598-19.872 1.31-6.53 2.34-12.752 2.922-18.027 2.456-22.221 4.409-42.66 5.494-57.5.563-7.7 1.49-19.4 2.06-26 .57-6.6 1.457-27.3 1.971-46s1.606-45.475 2.426-59.5c.82-14.025 1.928-35.4 2.461-47.5.534-12.1 1.492-29.662 2.129-39.027.354-5.204.571-14.345.672-25.395.1-11.049.086-24.006-.03-36.838-.115-12.831-.33-25.539-.624-36.09-.295-10.55-.672-18.943-1.11-23.15-.437-4.194-.697-12.023-.797-25.48-.1-13.457-.04-32.542.166-59.248.27-34.89.387-53.36.198-64.746-.095-5.694-.266-9.618-.534-12.938-.267-3.32-.63-6.036-1.109-9.316a262.08 262.08 0 0 0-2.191-12.828 244.374 244.374 0 0 0-2.815-12.55 263.294 263.294 0 0 0-3.549-12.697 324.957 324.957 0 0 0-4.388-13.271c-1.403-3.967-3.012-8.98-4.473-13.86-1.461-4.88-2.775-9.628-3.59-13.066-1.387-5.853-2.504-10.45-3.467-14.107-.962-3.657-1.769-6.375-2.539-8.467-.77-2.092-1.503-3.56-2.312-4.719-.81-1.159-1.696-2.009-2.778-2.865-1.252-.992-2.671-1.883-4.302-2.684-1.631-.8-3.473-1.513-5.567-2.148-2.093-.636-4.44-1.194-7.082-1.69-2.64-.495-5.575-.927-8.847-1.308-3.524-.41-16.737-.67-34.83-.803-18.094-.132-41.067-.136-64.108-.033z" color="#000" overflow="visible" fill="#fff"/><path style="isolation:auto;mix-blend-mode:normal" d="M508.861.114c-13.256-.173-33.819-.136-68.421.025-22.138.103-44.513.325-62.729.6-18.216.274-32.271.602-37.771.916-10.01.57-22.548 1.664-35.752 3.08-13.205 1.416-27.075 3.155-39.748 5.017-7.425 1.091-19.35 2.705-26.5 3.586-7.15.881-13.696 1.807-14.543 2.057-.848.25-4.747.856-8.664 1.348-1.96.246-5.858 1.151-10.563 2.412a337.26 337.26 0 0 0-15.395 4.543 311.218 311.218 0 0 1-17.302 5.033c-5.441 1.404-10.421 2.5-14.533 3.184-2.947.489-6.133 1.142-9.475 1.93a226.31 226.31 0 0 0-10.416 2.732c-7.15 2.05-14.606 4.516-21.719 7.156-7.112 2.64-13.881 5.453-19.66 8.203-2.89 1.375-5.53 2.735-7.844 4.047-2.313 1.312-4.298 2.576-5.873 3.765-1.766 1.334-4.453 4.037-7.613 7.547-3.16 3.511-6.794 7.831-10.451 12.399A363.645 363.645 0 0 0 53.295 93.58c-3.257 4.504-6.09 8.697-8.049 12.017a75.693 75.693 0 0 0-3.111 5.844 83.356 83.356 0 0 0-2.742 6.433 102.242 102.242 0 0 0-2.414 7.202 136.188 136.188 0 0 0-2.127 8.142c-1.33 5.783-2.496 12.314-3.551 19.828-1.055 7.515-2 16.012-2.889 25.73-.575 6.288-1.467 13.263-1.984 15.5-.517 2.238-.952 6.08-.965 8.536-.014 2.456-1.341 12.131-2.951 21.5-1.972 11.473-3.491 21.205-4.516 28.896-1.025 7.692-1.555 13.343-1.553 16.653.001 1.813-.156 4.339-.45 7.4-.295 3.062-.726 6.66-1.268 10.617-1.084 7.917-2.614 17.275-4.399 26.668-1.588 8.36-2.886 16.743-2.886 18.63 0 1.885-.922 8.544-2.047 14.798-.781 4.337-1.508 10.056-2.159 16.781-.65 6.725-1.225 14.455-1.703 22.819a934.862 934.862 0 0 0-1.12 26.613c-.263 9.253-.407 18.764-.41 28.158-.007 14.608.393 31.9.968 46.094.287 7.097.618 13.418.963 18.242.344 4.824.703 8.15 1.047 9.256.272.875 1.182 14.6 2.023 30.5 1.227 23.197 2.032 37.575 2.678 47.016.646 9.44 1.134 13.944 1.73 17.392.618 3.575 1.722 10.55 2.453 15.5a109.616 109.616 0 0 0 2.125 10.682c.979 3.936 2.286 8.433 4.1 14.035 1.814 5.602 4.134 12.311 7.139 20.676 3.004 8.364 6.692 18.384 11.242 30.607 2.047 5.5 4.96 14.275 6.474 19.5 1.088 3.752 2.135 7.091 3.198 10.145 1.062 3.053 2.138 5.82 3.287 8.427a88.247 88.247 0 0 0 3.715 7.47 104.62 104.62 0 0 0 4.472 7.265c1.662 2.484 3.744 5.253 6.028 8.072a176.959 176.959 0 0 0 7.236 8.365c2.467 2.679 4.915 5.169 7.127 7.23 2.212 2.063 4.186 3.698 5.705 4.669 3.173 2.027 6.653 3.95 10.355 5.742a129.402 129.402 0 0 0 11.694 4.943 143.568 143.568 0 0 0 12.533 3.957 138.753 138.753 0 0 0 12.871 2.79c7.026 1.17 13.101 2.326 13.5 2.57.4.244 6.25 1.154 13 2.023 2.414.31 5.375.575 9.37.805 3.993.23 9.018.426 15.562.601 13.087.35 32.242.616 61.344.903 26.056.256 44.888.526 57.603.838 6.357.155 11.186.322 14.623.502 3.437.18 5.481.373 6.274.584 2.475.657 8.775 2.497 14 4.087 6.737 2.051 13.137 3.835 18.654 5.215 5.516 1.38 10.148 2.356 13.346 2.79 2.157.292 6.692.51 12.472.652 5.78.142 12.807.207 19.944.2a902.431 902.431 0 0 0 20.609-.24c6.225-.152 11.428-.378 14.475-.675 6.05-.591 17.975-2.162 26.5-3.49 8.525-1.328 24.95-3.562 36.5-4.963 14.011-1.7 25.205-3.232 34.267-4.85 4.531-.809 8.529-1.639 12.08-2.523 3.551-.885 6.655-1.824 9.399-2.848 2.743-1.024 5.125-2.135 7.232-3.363a32.533 32.533 0 0 0 5.582-4.07c1.643-1.497 3.099-3.145 4.45-4.973 1.35-1.829 2.597-3.84 3.827-6.065 1.029-1.86 2.047-4.011 3.084-6.543 1.038-2.531 2.094-5.442 3.198-8.82 2.207-6.755 4.604-15.378 7.418-26.562 1.63-6.478 2.804-11.92 3.853-18.317 1.049-6.397 1.971-13.748 3.092-24.043 1.44-13.227 2.616-24.59 3.596-35.113.98-10.524 1.764-20.21 2.422-30.088.657-9.878 1.185-19.948 1.656-31.238.47-11.29.883-23.8 1.304-38.56.503-17.6 1.398-37.176 1.99-43.5.593-6.326 1.546-22.75 2.12-36.5.573-13.75 1.434-31.976 1.912-40.5.34-6.068.587-16.462.744-28.84.157-12.38.224-26.742.203-40.747-.02-14.004-.128-27.652-.318-38.597-.19-10.946-.465-19.19-.819-22.393-.294-2.669-.534-8.58-.714-16.965-.181-8.385-.304-19.243-.364-31.805-.118-25.122.014-57.059.424-89.654.087-6.885.128-12.398.082-17.113s-.177-8.633-.435-12.326c-.259-3.693-.645-7.162-1.196-10.98-.55-3.82-1.267-7.989-2.191-13.08a233.097 233.097 0 0 0-4.463-19.622c-1.81-6.65-3.946-13.425-6.424-20.379-1.274-3.575-2.987-9.02-4.72-14.91-1.734-5.89-3.488-12.227-4.844-17.59-1.482-5.86-2.792-10.693-4.033-14.738-1.242-4.045-2.414-7.3-3.625-9.998-1.211-2.698-2.461-4.838-3.852-6.656-1.39-1.819-2.923-3.316-4.703-4.723-2.395-1.893-4.594-3.448-6.87-4.758-2.274-1.31-4.625-2.374-7.323-3.283-2.7-.91-5.746-1.663-9.413-2.356-3.666-.692-7.95-1.322-13.128-1.98-2.687-.342-5.517-.608-9.333-.81C520.292.34 515.49.2 508.861.113zm-77.359 20.908c23.04-.103 46.014-.099 64.107.033 18.094.132 31.307.393 34.83.803 3.273.381 6.207.813 8.848 1.308 2.641.496 4.989 1.054 7.082 1.69 2.094.635 3.936 1.347 5.567 2.148 1.63.801 3.05 1.692 4.302 2.684 1.082.856 1.968 1.706 2.778 2.865.81 1.16 1.542 2.627 2.312 4.719.77 2.092 1.577 4.81 2.54 8.467.962 3.657 2.079 8.254 3.466 14.107.815 3.438 2.129 8.186 3.59 13.067 1.461 4.88 3.07 9.892 4.473 13.859a324.957 324.957 0 0 1 4.388 13.271 263.294 263.294 0 0 1 3.55 12.698 244.374 244.374 0 0 1 2.814 12.549 262.08 262.08 0 0 1 2.19 12.828c.48 3.28.843 5.996 1.11 9.316.268 3.32.439 7.244.534 12.938.189 11.387.072 29.855-.198 64.746-.206 26.706-.266 45.79-.166 59.248.1 13.457.36 21.286.797 25.48.438 4.207.814 12.6 1.11 23.15.295 10.551.51 23.259.624 36.09.116 12.832.13 25.789.03 36.838-.101 11.05-.318 20.191-.672 25.395-.637 9.365-1.595 26.927-2.129 39.027-.534 12.1-1.64 33.475-2.461 47.5-.82 14.025-1.912 40.8-2.426 59.5-.514 18.7-1.4 39.4-1.97 46-.57 6.6-1.498 18.3-2.061 26-1.085 14.84-3.038 35.279-5.494 57.5-.583 5.275-1.613 11.497-2.922 18.027a358.458 358.458 0 0 1-4.598 19.872c-1.7 6.504-3.511 12.675-5.267 17.87-.878 2.599-1.743 4.953-2.572 6.983-.83 2.03-1.623 3.737-2.362 5.04a36.048 36.048 0 0 1-2.752 4.138c-.934 1.207-1.81 2.143-2.402 2.52-1.61 1.022-3.874 2.006-6.887 2.968-3.013.963-6.774 1.904-11.375 2.844-4.6.94-10.04 1.877-16.412 2.832-6.372.955-13.675 1.926-22.002 2.933-14.012 1.695-30.651 3.948-36.976 5.006-6.325 1.06-18.925 2.61-28 3.444-5.876.54-12.42.915-18.999 1.133a411.59 411.59 0 0 1-19.193.19c-6.005-.085-11.404-.319-15.56-.69-2.079-.186-3.848-.407-5.225-.66-1.377-.255-2.364-.542-2.88-.862-.315-.194-.6-.568-.808-1.014a3.534 3.534 0 0 1-.335-1.445c0-.482-.316-1.222-.825-2.027a13.29 13.29 0 0 0-1.98-2.414c-.596-.571-1.125-1.025-1.662-1.385a6.474 6.474 0 0 0-1.713-.824c-1.258-.394-2.85-.508-5.375-.53-3.27-.028-9.095-.514-12.945-1.08-1.929-.283-11.987-.631-26.659-.963-14.671-.331-33.957-.647-54.341-.867-22.623-.244-39.894-.448-53.663-.73-13.768-.283-24.034-.644-32.648-1.205-4.307-.281-8.2-.61-11.912-1.006a246.547 246.547 0 0 1-10.82-1.399c-7.158-1.081-14.513-2.483-23.914-4.326-2.423-.475-5.242-1.21-8.213-2.117a145.888 145.888 0 0 1-9.131-3.137 130.923 130.923 0 0 1-8.592-3.6c-2.613-1.215-4.893-2.417-6.598-3.511-1.175-.754-2.658-1.944-4.314-3.43-1.656-1.485-3.485-3.267-5.352-5.205a144.488 144.488 0 0 1-5.582-6.138 112.942 112.942 0 0 1-5-6.235c-1.155-1.561-2.326-3.42-3.49-5.527a89.177 89.177 0 0 1-3.455-7.026 130.482 130.482 0 0 1-3.297-8.252 162.71 162.71 0 0 1-3.02-9.195c-2.037-6.875-4.977-15.875-6.533-20-6.057-16.055-9.931-26.43-12.54-33.668-2.61-7.237-3.954-11.335-4.946-14.832a792.65 792.65 0 0 0-4.28-14.5c-.552-1.787-1.185-4.369-1.76-7.088-.573-2.718-1.088-5.574-1.407-7.912a2580.918 2580.918 0 0 0-2.096-15c-.425-2.953-1.041-10.596-1.86-23.055-.817-12.458-1.837-29.731-3.064-51.945-.501-9.075-1.405-20.55-2.008-25.5-.437-3.59-.807-10.337-1.093-18.771-.287-8.434-.489-18.555-.594-28.891-.105-10.336-.112-20.887-.006-30.184.106-9.296.325-17.338.672-22.654 1.185-18.161 1.896-28.562 2.508-35.389.611-6.826 1.124-10.08 1.912-13.949.877-4.31 1.595-9.663 1.595-11.894 0-1.116.328-3.83.856-7.303a314.746 314.746 0 0 1 2.058-11.86c1.84-9.532 3.103-16.784 4.036-23.54.932-6.756 1.534-13.016 2.05-20.565.489-7.137 1.029-12.95 1.936-19.834.907-6.883 2.18-14.837 4.137-26.252 1.61-9.397 2.927-18.898 2.927-21.113s.464-6.452 1.03-9.414c.566-2.963 1.473-9.887 2.017-15.387a682.28 682.28 0 0 1 2.315-20.437c.814-6.277 1.667-12 2.552-17.12.885-5.12 1.802-9.637 2.74-13.501.94-3.864 1.9-7.075 2.874-9.582.464-1.194 1.236-2.734 2.248-4.528 1.011-1.794 2.262-3.84 3.683-6.049 2.844-4.415 6.37-9.475 10.03-14.431 3.66-4.957 7.454-9.811 10.832-13.82 1.689-2.005 3.275-3.797 4.687-5.286 1.413-1.489 2.652-2.674 3.65-3.46 1.433-1.13 3.204-2.304 5.254-3.505 2.051-1.2 4.38-2.427 6.932-3.658 5.104-2.46 11.094-4.94 17.5-7.263a260.016 260.016 0 0 1 20-6.342 228.139 228.139 0 0 1 10.059-2.508c3.3-.741 6.53-1.38 9.629-1.897 3.843-.639 8.617-1.698 13.73-3.025a264.884 264.884 0 0 0 15.77-4.629 227.174 227.174 0 0 1 12.771-3.773 245.602 245.602 0 0 1 13.235-3.104 250.528 250.528 0 0 1 13.472-2.39c4.506-.673 9.015-1.22 13.49-1.633 3.85-.355 11.05-1.29 16-2.076 8.35-1.327 15.833-2.434 22.987-3.395 7.154-.96 13.98-1.775 21.013-2.514 7.7-.809 18.95-2.01 25-2.672 4.065-.444 17.685-.824 36.05-1.119 18.363-.295 41.472-.504 64.513-.607z" color="#000" overflow="visible"/><path d="M631.781 736.162c-2.391-.196-3.239 2.893-3.41 12.44-.133 7.41 1.184 12.32 4.195 15.648 2.495 2.757 6.26 2.917 7.647.326.977-1.826 4.487-24.138 3.846-24.445-2.327-1.113-10.781-3.846-12.278-3.969zM669.932 726.5c-1.703 0-5.678 5.86-5.678 8.37 0 .897-.9 2.53-2 3.63-2.47 2.47-2.479 3.149-.098 7.791 2.358 4.599 5.56 7.647 10.104 9.617 4.207 1.825 4.54 1.845 9.037.596 5.027-1.397 9.992-6.846 10.64-11.682.432-3.216.06-4.474-2.07-7.006-2.602-3.092-17.09-11.316-19.935-11.316zM395.615 714.268l-7.431 2.324c-4.088 1.278-7.631 2.47-7.877 2.648-.246.178.339 1.653 1.3 3.281.962 1.629 2.445 5.329 3.295 8.221 1.652 5.618 3.634 8.467 6.852 9.858 3.255 1.406 9.795.1 11.86-2.37 3.437-4.111 1.19-13.097-5.151-20.595l-2.848-3.367zM611.809 710.697c-7.143-.377-16.555 1.472-16.555 3.252 0 1.636 4.156 3.383 13.353 5.612 7.978 1.933 11.654 2.309 11.631 1.189-.008-.413-.618-2.775-1.355-5.25l-1.342-4.5-5.732-.303zM642.662 707.578c-4.105.103-7.254 1.077-7.842 2.608-.904 2.356 3.497 10.6 6.434 12.05 1.375.68 4.4 1.242 6.723 1.25 3.673.013 4.423-.37 5.75-2.935 3.48-6.731.752-11.934-6.702-12.774a32.057 32.057 0 0 0-4.363-.199zM688.729 699.617c-2.876.2-6.43.907-10.667 2.121-7.32 2.099-7.808 2.412-7.808 5 0 2.545.307 2.762 3.912 2.762 4.936 0 18.353-2.537 21.049-3.98 2.57-1.376 2.617-3.64.103-4.985-1.519-.813-3.714-1.118-6.59-.918zM417.58 685.98c-1.904-.069-3.341-.028-3.857.17-.677.26-1.489 2.809-1.801 5.663-.312 2.853-.867 6.425-1.234 7.937l-.668 2.75h6.568c8.747 0 16.198-1.695 19.342-4.398 2.15-1.85 2.454-2.73 1.865-5.415-.387-1.762-1.68-3.727-2.873-4.367-1.734-.93-11.63-2.131-17.342-2.34zM617.924 664.955c-.562-.29-1.107-.303-1.608.006-1.721 1.064-1.246 3.65 1.895 10.29 1.744 3.687 3.59 6.25 4.5 6.25 1.89 0 1.892.302-.065-7.487-1.205-4.798-3.037-8.186-4.722-9.059zM661.184 661.8c-1.141-.047-2.416.128-3.817.548-5.174 1.55-6.819 4.37-9.299 15.949-2.837 13.247-2.948 12.488 1.928 13.348 2.334.411 5.034 1.208 6 1.771 3.089 1.799 3.794 1.224 7.555-6.166 7.082-13.917 5.62-25.117-2.367-25.45zM423.277 649.648c-.9-.158-2.299-.09-4.548.143-8.054.831-15.73 4.695-19.407 9.771-3.764 5.197-3.795 6.024-.318 8.18 3.705 2.297 4.063 2.252 12.443-1.592 10.358-4.75 15.28-10.367 13.393-15.285-.258-.673-.662-1.058-1.563-1.217z" fill="url(#a)" transform="translate(-193.814 -88.654)"/><path d="M667.05 624.756c-9.234-.56-30.559 1.717-41.24 4.404-16.5 4.151-33.965 15.78-45.673 30.412-11.773 14.712-16.247 33.56-12.356 52.057 5.48 26.048 15.158 45.564 30.358 61.207 13.722 14.122 25.4 21.398 38.826 24.187 16.924 3.517 38.373-2.622 51.789-14.822 6.975-6.343 19.479-22.859 24.203-31.967 1.802-3.474 4.48-10.123 5.951-14.775 2.475-7.827 2.674-9.765 2.674-25.959 0-14.242-.402-19.336-2.164-27.363-2.69-12.252-9.36-29.203-14.547-36.971-8.078-12.097-21.664-19.43-37.82-20.41zm-5.654 20.865c2.747.117 5.41.857 8.358 2.233 10.852 5.064 15.367 14.121 14.086 28.261l-.67 7.385 6.79.021c10.767.035 17.782 4.168 22.395 13.19 4.003 7.827.916 15.975-8.209 21.668-3.191 1.991-5.822 4.017-5.847 4.5-.025.483 1.572 2.671 3.55 4.861 6.727 7.446 8.094 15.17 4.42 24.989-3.593 9.604-15.61 19.103-25.92 20.486-5.13.688-12.54-1.14-17.324-4.274-4.63-3.032-6.437-3.079-7.341-.191-1.47 4.692-6.47 10.592-10.727 12.652v-.002c-7.468 3.615-14.156 2.195-21.73-4.615-2.68-2.41-6.02-6.723-7.42-9.586-2.911-5.949-4.653-17.346-3.846-25.164l.545-5.277-7.877-1.733c-11.077-2.435-16.721-5.091-21.242-9.996-4.286-4.65-5.674-8.838-4.682-14.129.788-4.2 5.604-9.883 10.453-12.336 3.998-2.021 12.615-4.064 17.145-4.064 3.715 0 3.692-1.11-.166-8-9.68-17.285-8.928-30.193 2.082-35.75 8.349-4.214 16.074-2.479 23.646 5.312l4.48 4.61 2.866-3.955c3.563-4.919 7.17-7.515 13.328-9.598 3.281-1.11 6.11-1.615 8.857-1.498zM379.754 617.793c-14.447.637-21.13 2.294-33 8.186-43.09 21.385-53.014 59.324-28.225 107.9 4.01 7.858 6.696 11.552 13.133 18.062 10.89 11.015 22.295 16.814 38.422 19.536 7.512 1.267 12.75 1.127 20.924-.561 9.351-1.932 12.534-3.464 17.87-8.61 2.986-2.877 6.44-4.787 12.5-6.908 12.096-4.23 23.026-11.116 32.384-20.398 9.143-9.07 12.347-14.803 15.008-26.865 2.682-12.16.569-26.579-5.727-39.055-7.251-14.37-20.906-31.24-24.246-29.959-1.366.524-1.28 1.072.658 4.207 3.314 5.362 2.935 12.614-1.064 20.37-1.726 3.345-3.137 6.434-3.137 6.865 0 .43 1.473 1.268 3.275 1.863 12.009 3.963 18.92 19.296 13.701 30.398-4.036 8.587-13.078 13.684-27.093 15.27l-6.07.685.609 3.112c.335 1.71.864 6.259 1.174 10.109.509 6.325.289 7.531-2.268 12.5-1.646 3.2-4.266 6.45-6.266 7.775-5.122 3.394-13.586 5.56-19.152 4.9-5.347-.633-13.443-4.388-16.316-7.568-2.451-2.712-3.7-2.653-8.168.38-3.758 2.55-9.379 4.504-12.926 4.497-2.968-.006-11.679-4.369-14.201-7.113-6.921-7.53-8.626-20.903-4.246-33.31 2.036-5.77 2.167-6.856.912-7.559-7.282-4.077-16.028-14.874-18.028-22.252-1.116-4.122-.07-9.71 2.502-13.37 1.995-2.836 8.04-5.659 13.56-6.331 4.45-.542 4.496-.59 4.186-4.049-.172-1.925-.397-7.132-.5-11.572-.165-7.13.105-8.497 2.297-11.698 8.932-13.035 28.918-9.467 40.489 7.229 1.54 2.222 3.212 4.041 3.714 4.041.503 0 2.452-1.494 4.332-3.32 8.883-8.627 27.641-13.96 37.28-10.6 2.042.712 3.689.747 4.836.106 1.481-.83.898-1.51-3.946-4.608-14.156-9.055-30.401-13.113-49.187-12.285zm-20.795 27.88c-1.901-.116-3.27.885-3.537 3.222-.389 3.406 2.257 10.878 4.523 12.777.873.73 4.111 1.832 7.198 2.45 3.086.616 6.005 1.179 6.486 1.25 1.624.237-.377-6.199-3.358-10.802-3.496-5.4-8.144-8.701-11.312-8.896zm27.34 34.8c-4.272.08-8.914 2.959-12.723 8.312-3.225 4.534-4.043 9.851-1.853 12.041 3.765 3.765 14.24 1.186 20.78-5.117 4.725-4.552 4.966-8.147.827-12.285-2.038-2.038-4.468-3-7.031-2.951zm-38.42.275c-6.496-.155-10.753.15-11.152.795-.996 1.61 4.272 7.84 9.353 11.062 6.342 4.022 7.364 3.766 9.475-2.369 3.478-10.111 4.213-9.203-7.676-9.488zm9.908 29.752c-.614 0-2.356 2.45-3.871 5.441-3.073 6.07-3.951 15.393-1.818 19.309.89 1.633 2.132 2.25 4.535 2.25 4.01 0 5.74-1.76 9.027-9.191 1.368-3.094 2.96-5.918 3.54-6.276 2.29-1.416 1.048-4.38-2.3-5.484-1.844-.609-4.397-2.22-5.673-3.578-1.277-1.36-2.826-2.471-3.44-2.471z" fill="url(#a)" transform="translate(-193.814 -88.654)"/><path d="M666.438 592.732c-3.206-.095-6.572-.07-10.127.067-37.066 1.423-74.752 14.892-92.145 32.931-16.242 16.845-23.456 36.418-24.615 66.786-.519 13.581-.347 15.537 2.662 30.44 3.93 19.461 6.195 27.392 14.164 49.567 7.311 20.347 13.642 30.93 24.39 40.774 12.803 11.725 22.773 16.179 46.087 20.596 7.094 1.344 11.639 2.48 10.1 2.525-3.612.105-8.357 2.573-9.67 5.027-2.992 5.59.931 14.486 6.755 15.317 2.945.42 3.338.382 13.715-1.282 9.542-1.53 26.404-8.287 33.857-13.568a744.095 744.095 0 0 1 12.643-8.717c3.575-2.4 11.675-9.614 18-16.029 16.108-16.336 20.739-24.385 29.97-52.082 8.595-25.785 9.99-33.668 10.012-56.656.015-14.751-.382-19.569-2.465-30-5.896-29.533-14.156-46.65-30.128-62.428-16.205-16.008-30.765-22.6-53.206-23.268zm-.989 20.83c5.02.157 9.487.658 12.973 1.54 13.816 3.492 26.726 13.124 35.988 26.853 4.543 6.733 6.449 10.912 9.68 21.215 5.422 17.29 7.21 26.582 7.853 40.83.793 17.563-1.332 29.994-9.09 53.2-8.612 25.759-12.196 32.069-26.023 45.8-6.092 6.05-12.426 11.686-14.076 12.525-2.515 1.279-5.913 1.42-21 .866-25.721-.945-46.635-4.945-56.986-10.899-5.807-3.34-14.751-12.233-19.745-19.635-3.477-5.154-13.678-32.008-17.609-46.357-1.13-4.125-3.478-14.475-5.217-23-3.563-17.466-3.562-22.944.01-40.5 3.302-16.23 6.325-23.35 13.467-31.72 9.542-11.184 16.478-15.198 41.191-23.846 13.481-4.718 33.523-7.342 48.584-6.872zM406.979 583.678c-19.482.585-46.84 6.194-68.725 14.703-18.723 7.28-30.18 15.654-41.055 30.004-7.344 9.691-16.418 28.278-18.43 37.754-.917 4.324-2.747 11.011-4.066 14.861-5.241 15.305-5.883 19.233-5.887 36-.004 14.273.292 17.133 2.754 26.5 3.337 12.695 6.913 20.613 13.82 30.605 6.165 8.918 12.818 14.85 23.528 20.975 12.813 7.329 25.355 10.774 57.336 15.758 10.282 1.602 20.667-.135 22.719-3.8.633-1.133 3.259-1.968 8.351-2.66 15.866-2.152 36.452-8.477 50.3-15.452 23.388-11.782 32.767-19.037 43.04-33.295 13.357-18.539 14.98-24.63 14.256-53.533-.792-31.612-1.767-39.34-6.572-52.09-2.233-5.924-5.155-12.624-6.493-14.889-5.566-9.424-20.799-24.164-34.279-33.17-9.065-6.056-28.452-15.74-34.236-17.101-4.249-1-9.868-1.365-16.361-1.17zm5.771 21.027c3.069.068 5.494.296 6.775.719 6.167 2.035 23.517 11.804 32.303 18.187 4.64 3.37 11.571 9.737 15.406 14.147 5.851 6.727 7.623 9.674 11.002 18.318 4.713 12.053 5.976 22.701 6.002 50.637.018 19.03-1.205 24.172-7.92 33.287-2.025 2.75-4.924 6.697-6.441 8.771-4.975 6.803-27.002 20.574-41.844 26.16-12.911 4.86-29.822 8.607-43.28 9.59-7.15.523-17.05 1.4-22 1.948-11.748 1.3-12.72 1.256-21.157-.955-22.928-6.01-35.082-14.788-44.227-31.946-4.672-8.765-8.113-24.426-8.115-36.923-.001-10.802.99-16.028 5.992-31.645 1.586-4.95 3.54-11.925 4.346-15.5 3.9-17.321 20.77-39.542 35.656-46.967 8.635-4.307 22.908-9.38 32.14-11.424 3.501-.775 9.765-2.313 13.92-3.418 7.244-1.925 22.236-3.188 31.442-2.986zM669.223 274.5c-1.876 0-10.042 6.283-9.664 7.436.191.585 1.843 2.076 3.67 3.314 4.249 2.88 9.644 3.022 10.515.277.734-2.31-2.84-11.027-4.521-11.027zM637.754 271.5c-.825 0-1.5.675-1.5 1.5s.675 1.5 1.5 1.5 1.5-.675 1.5-1.5-.675-1.5-1.5-1.5zM393.65 261.832a25.545 25.545 0 0 0-4.254.154c-11.516 1.41-15.767 5.66-14.882 14.871.614 6.397 4.742 10.605 10.506 10.713 2.053.039 4.634.457 5.734.93 3.518 1.512 6.343 1.072 12.857-2.006 9.072-4.286 12.032-7.257 11.258-11.3-1.337-6.986-11.245-12.91-21.219-13.362zm39.405 13.684c-1.136.073-1.801.917-1.801 2.517 0 1.393-.673 4.14-1.494 6.106-.822 1.965-1.222 4.012-.89 4.548.794 1.286 5.25.18 8.384-2.082 3.577-2.58 3.754-6.365.42-8.988-1.88-1.478-3.484-2.175-4.62-2.101zM625.662 250.83c-.907.03-2.288.366-4.535 1.02-10.112 2.94-11.323 5.653-3.357 7.517 5.801 1.358 6.632 1.308 8.654-.521 1.942-1.758 2.36-4.96.94-7.203-.36-.568-.795-.843-1.702-.813zM651.256 243.5c-6.303 0-8.505 1.734-7.649 6.018.796 3.978 5.026 9.79 8 10.99 3.808 1.536 5.562 1.055 7.12-1.957.839-1.623 1.527-4.755 1.527-6.961 0-5.522-2.856-8.09-8.998-8.09zm33.137.21l-7.64.29-.31 4.873c-.17 2.68-.053 5.542.26 6.36.454 1.182 2.117 1.406 8.158 1.101 8.358-.422 10.393-1.782 10.393-6.953 0-4.804-2.283-5.996-10.861-5.67zM417.229 234.5c-3.23 0-7.626 2.675-10.424 6.344-3.53 4.628-3.241 6.11 1.498 7.674 2.227.735 4.295 1.731 4.593 2.214 1.738 2.811 8.358-4.17 8.358-8.814 0-4.068-1.818-7.418-4.025-7.418zM626.262 213.506c-.642.305-1.008 1.602-1.008 3.93 0 5.065 1.47 8.875 4.75 12.314 6.072 6.365 6.674 2.053 1.35-9.69-2.185-4.818-4.022-7.063-5.092-6.554zM676.035 210.805c-.716.065-1.645.678-2.498 1.814-2.043 2.722-5.497 12.884-4.904 14.428.307.8.815 1.453 1.129 1.453.908 0 7.492-14.255 7.492-16.22 0-1.058-.503-1.541-1.219-1.475z" fill="url(#a)" transform="translate(-193.814 -88.654)"/><path d="M385.303 201.842c-9.827-.149-19.289 1.049-27.262 3.71-10.073 3.363-23.789 10.265-30.49 15.344-16.055 12.169-23.551 31.258-19.9 50.672 4.523 24.056 17.102 46.128 34.07 59.778 9.445 7.598 15.215 11.015 23.533 13.94 4.942 1.737 7.851 2.163 12.14 1.776 6.287-.566 16.045-3.877 17.854-6.056 1.424-1.716.512-3.497-1.805-3.527-5.8-.076-15.09-7.49-18.312-14.614l-1.87-4.136-7.322.048c-6.244.04-8.11-.382-12.681-2.865-9.872-5.363-14.778-17.362-11.44-27.976.948-3.015 1.545-5.582 1.328-5.708-.216-.125-2.033-1.06-4.037-2.078-16.668-8.464-21.477-28.829-8.648-36.63 5.804-3.53 12.954-3.645 26.951-.432l2.658.611-.158-7.35c-.132-6.155.248-8.08 2.342-11.849 3.16-5.687 9.736-9.406 14.953-8.459 5.143.934 10.348 3.9 13.86 7.9 3.737 4.257 5.387 4.413 9.542.905 11.862-10.014 27.758-7.991 33.715 4.29 3.344 6.895 3.765 15.686 1.045 21.835-1.155 2.61-1.875 5.11-1.6 5.556.276.446 3.473 2.472 7.104 4.502 13.47 7.533 17.864 15.112 14.781 25.494-3.122 10.515-15.105 18.977-26.87 18.977h-4.241l-.604 7.209c-.42 5.008-1.482 8.98-3.476 13.004-1.58 3.186-2.647 6.015-2.373 6.289 1.366 1.367 5.831.063 14.312-4.182 22.24-11.13 37.27-34.916 37.172-58.82-.097-23.88-12.292-42.094-37.32-55.736-13.186-7.188-30.574-11.175-46.951-11.422zm-7.832 31.773c-1.093-.088-1.636 1.358-1.367 4.362.193 2.159.745 4.96 1.226 6.224.684 1.799 1.641 2.299 4.399 2.299 4.444 0 4.514-1.362.408-8.035-1.93-3.138-3.574-4.761-4.666-4.85zm-35.737 23.121c-.982.045-1.663.25-1.904.639-1.927 3.118 4.66 8.897 11.924 10.463 4.934 1.063 6.551.654 7.523-1.902 1.353-3.557 1.549-3.288-4.273-5.918-4.66-2.106-10.323-3.416-13.27-3.282zm18.27 32.946c-1.817.258-2.312 1.054-2.567 4.144-.188 2.296.321 4.796 1.274 6.25 1.324 2.021 2.405 2.424 6.506 2.424 2.705 0 5.202-.459 5.549-1.02.346-.56-1.428-3.019-3.942-5.462-2.514-2.444-4.57-4.94-4.57-5.55 0-.608-1.013-.962-2.25-.786zm45.762 13.818c-.694 0-3.174.675-5.512 1.5-2.338.825-6.056 1.5-8.262 1.5h-4.012l.624 4.541c.833 6.08 2.193 8.356 5.978 10.002 6.922 3.011 11.22 1.297 12.715-5.07 1.142-4.865.208-12.473-1.531-12.473zM645.86 178.813c-17.452.714-34.577 6.852-46.84 17.658-7.202 6.345-15.812 19.967-19.297 30.529-2.769 8.39-2.963 9.982-2.881 23.5.078 13.004.367 15.325 2.8 22.5 11.14 32.844 35.847 62.077 57.522 68.057 6.897 1.902 17.587 1.664 26.527-.588 13.196-3.325 18.73-7.632 22.475-17.496 1.383-3.643 2.898-5.17 9.254-9.319 16.572-10.818 27.324-30.657 29.351-54.154 1.138-13.185-3.966-32.746-11.99-45.955-7.218-11.882-23.222-25.168-36.136-30-9.727-3.64-20.315-5.161-30.786-4.732zm30.456 12.363c1.152-.041 2.323.072 3.516.342 10.876 2.452 16.375 15.36 11.922 27.982-2.135 6.052-1.954 7.995.75 8.021 3.383.033 9.905 3.361 12.945 6.604 11.521 12.286 4.805 33.77-11.715 37.467-5.34 1.195-5.613 1.402-5.043 3.836 2.35 10.029 1.46 15.333-3.593 21.45-3.477 4.21-9.71 7.566-14.12 7.6-4.391.035-13.338-3.524-18.634-7.412-2.673-1.961-5.34-3.566-5.928-3.566-.588 0-1.95 1.992-3.027 4.426-2.248 5.082-9.244 13.061-13.284 15.15-3.863 1.998-9.782 1.765-13.554-.535-6.93-4.225-8.225-12.905-3.766-25.225 4.377-12.09 4.492-11.376-2.16-13.31-7.338-2.133-13.848-8.193-14.916-13.885-1.509-8.041 3.496-15.999 12.936-20.568 2.534-1.227 4.607-2.754 4.607-3.393 0-.638-.946-3.635-2.104-6.66-4.832-12.633-1.832-26.918 6.665-31.732 5.214-2.955 8.954-2.84 15.503.482 6.231 3.16 9.472 7.38 13.477 17.553 1.812 4.6 3.153 6.704 4.146 6.5.809-.167 2.73-3.541 4.268-7.5 6.006-15.46 13.048-23.341 21.11-23.627z" fill="url(#a)" transform="translate(-193.814 -88.654)"/><path d="M365.03 166.797c-11.714-.361-23.98 1.191-30.512 4.182-14.962 6.849-29.54 22.567-42.164 45.458-11.176 20.266-14.697 28.725-16.676 40.063-1.794 10.28-1.502 24.362.736 35.469 1.235 6.128 9.243 22.856 14.979 31.289 5.289 7.775 15.983 21.262 21.86 27.572 12.274 13.176 28.782 21.888 51.5 27.178 5.5 1.28 13.2 2.365 17.112 2.41 6.389.074 7.48-.21 10.72-2.785 2.641-2.098 5.18-3.045 9.462-3.53 9.646-1.09 32.963-7.325 39.367-10.525 7.684-3.84 22.747-13.257 29.97-18.738 11.885-9.018 24.062-24.046 33.919-41.86 9.901-17.893 10.296-19.433 9.677-37.748-.552-16.377-2.199-24.11-7.753-36.42-9.415-20.862-26.47-33.498-58.473-43.316-38.112-11.693-44.465-13.243-72.43-17.682-3.549-.563-7.39-.897-11.295-1.017zm-7.276 20.976c8.32-.406 12.94.042 27.5 2.668 9.625 1.737 21.1 4.23 25.5 5.54 50.731 15.092 51.155 15.256 63.766 24.548 7.736 5.701 12.363 12.226 15.587 21.985 4.828 14.611 6.275 27.312 4.043 35.486-1.151 4.218-8.72 18.27-14.79 27.459-5.096 7.713-20.602 23.672-26.034 26.793-2.515 1.445-7.047 4.278-10.072 6.297-3.025 2.018-7.44 4.656-9.81 5.861-4.856 2.469-22.934 7.136-37.145 9.59-6.568 1.134-13.736 1.536-23.485 1.316-13.174-.296-14.476-.509-21.296-3.462-15.041-6.514-24.537-15.027-38.295-34.34-14.079-19.762-17.983-29.651-17.953-45.473.022-11.635 2.32-20.342 8.724-33.041 13.994-27.752 26.94-43.705 39.846-49.102 2.323-.971 7.977-1.835 13.914-2.125zM644.031 143.662c-7.5.351-15.544 1.455-22.074 3.215-15.675 4.225-29.991 12.38-37.414 21.312-6.435 7.744-16.063 22.624-19.404 29.99-12.197 26.888-17.6 42.246-19.92 56.634-1.759 10.9-.051 28.244 4.058 41.22 6.816 21.52 35.195 67.69 47.23 76.84 11.4 8.665 31.597 16.287 51.747 19.527 16.512 2.656 22.584 2.224 26.25-1.865 3.615-4.032 3.674-8.783.16-12.959-1.424-1.692-3.561-3.14-4.75-3.219-1.189-.078 2.454-.496 8.094-.93 21.565-1.657 30.617-6.224 49.318-24.884 12.764-12.736 13.909-14.207 19.23-24.68 3.113-6.125 7.018-15.19 8.678-20.146l3.02-9.012v-31.892c0-33.664-.505-38.45-5.047-47.885-2.677-5.562-13.98-18.459-21.371-24.385a3681.37 3681.37 0 0 1-16.082-13.016c-19.551-15.91-41.138-29.198-52.899-32.566-4.364-1.25-11.323-1.65-18.824-1.299zm3.223 20.455c7.714-.04 9.194.286 16 3.512 8.56 4.058 24.368 14.268 34.16 22.066 19.905 15.852 25.235 20.429 30.219 25.936 3.014 3.33 6.23 7.635 7.146 9.566 2.816 5.933 3.64 16.611 3.258 42.221L737.67 292l-3.125 8c-5.756 14.736-11.107 23.24-20.791 33.035-15.983 16.167-23.253 19.464-42.932 19.467-13.606.002-18.063 1.385-20.414 6.334-1.835 3.865-.703 9.087 2.518 11.621 3.072 2.417 3.273 2.416-8.172.01-17.038-3.582-28.817-8.643-36.713-15.777-7.394-6.68-26.98-37.582-35.574-56.125-4.01-8.652-7.183-22.784-7.2-32.065-.018-10.142 4.24-25.407 12.51-44.855 11.195-26.325 19.232-38.508 30.414-46.102 10.163-6.9 25.392-11.355 39.063-11.426z" fill="url(#a)" transform="translate(-193.814 -88.654)"/></svg>