<svg xmlns:osb="http://www.openswatchbook.org/uri/2009/osb" xmlns="http://www.w3.org/2000/svg" xmlns:xlink="http://www.w3.org/1999/xlink" height="908.662" width="573.599"><defs><linearGradient osb:paint="solid" id="c"><stop offset="0" stop-color="#fff"/></linearGradient><linearGradient osb:paint="solid" id="b"><stop offset="0"/></linearGradient><linearGradient osb:paint="solid" id="a"><stop offset="0" stop-color="#162d50"/></linearGradient><linearGradient gradientUnits="userSpaceOnUse" y2="508.692" x2="761.443" y1="508.692" x1="262.139" id="d" xlink:href="#a"/><linearGradient y2="508.692" x2="761.443" y1="508.692" x1="262.139" gradientUnits="userSpaceOnUse" id="e" xlink:href="#a"/><linearGradient y2="508.692" x2="761.443" y1="508.692" x1="262.139" gradientUnits="userSpaceOnUse" id="f" xlink:href="#a"/><linearGradient y2="508.692" x2="761.443" y1="508.692" x1="262.139" gradientUnits="userSpaceOnUse" id="g" xlink:href="#a"/></defs><path d="M389.222 19.03c-17.84.047-31.836.28-44.674.761-12.837.482-24.516 1.212-37.722 2.252-8.517.672-19.148 1.695-30.618 2.914a2277.51 2277.51 0 0 0-35.644 4.092c-11.869 1.456-23.3 2.95-33.016 4.328-9.715 1.378-17.714 2.638-22.722 3.625-5.5 1.084-12.178 2.692-19.28 4.588a566.913 566.913 0 0 0-21.818 6.32c-7.191 2.239-14.05 4.532-19.818 6.641-5.768 2.11-10.446 4.036-13.278 5.545-2.808 1.497-5.817 3.525-8.845 5.902-3.029 2.378-6.078 5.105-8.963 7.999-2.886 2.893-5.609 5.954-7.989 9-2.38 3.045-4.415 6.076-5.925 8.91-1.378 2.584-2.662 5.733-3.864 9.484-1.2 3.751-2.319 8.105-3.359 13.098-1.04 4.992-2.004 10.625-2.898 16.933-.895 6.308-1.722 13.293-2.487 20.99-.758 7.635-1.48 13.647-2.834 22.307-1.353 8.66-3.338 19.968-6.62 38.194-1.425 7.903-2.57 15.462-3.503 24.052-.932 8.59-1.65 18.214-2.222 30.25-.573 12.036-.997 26.485-1.34 44.725-.343 18.24-.605 40.27-.85 67.473-.336 37.239-.552 57.48-.934 70.04-.19 6.281-.422 10.642-.73 14.247-.308 3.604-.693 6.454-1.19 9.713-1.172 7.7-3.101 21.425-4.285 30.5-1.183 9.075-2.984 20.55-4.004 25.5-1.019 4.95-3.022 16.875-4.45 26.5-1.43 9.625-4.165 24.925-6.08 34-1.492 7.06-2.711 13.327-3.71 19.29a279.539 279.539 0 0 0-2.385 17.471c-.608 5.847-1.047 11.878-1.367 18.588-.32 6.71-.522 14.097-.656 22.65-.209 13.328-.245 22.01.057 31.018.301 9.009.942 18.344 2.088 32.98.713 9.111 1.302 16.293 1.875 22.245.572 5.951 1.13 10.673 1.779 14.865.65 4.192 1.391 7.853 2.334 11.685.942 3.833 2.085 7.836 3.537 12.708 4.238 14.215 7.307 24.826 9.545 33.078 2.237 8.251 3.643 14.143 4.555 18.922a81.11 81.11 0 0 0 1.886 7.796c.68 2.266 1.355 4.016 1.862 4.704.667.906 1.47 1.712 2.455 2.439.985.727 2.154 1.375 3.558 1.965 1.405.59 3.044 1.121 4.969 1.617 1.925.496 4.136.954 6.684 1.398l37.504 6.538a709.654 709.654 0 0 1 23.068 4.423c6.978 1.465 12.683 2.803 15.432 3.659 2.948.918 5.618 1.662 8.453 2.283 2.834.62 5.834 1.118 9.447 1.549 3.613.43 7.84.793 13.123 1.138 5.284.346 11.626.675 19.473 1.043 12.925.606 30.7 1.446 39.5 1.865 6.132.293 15.062.512 25.175.659 10.113.146 21.41.221 32.272.222 10.862.001 21.291-.07 29.672-.214 8.38-.145 14.713-.364 17.38-.655 5.226-.57 23.676-1.439 41-1.933 15.24-.435 26.605-.855 37.977-1.47 11.372-.613 22.752-1.422 38.024-2.634 3.223-.256 6.286-.573 9.205-.957 2.918-.384 5.692-.837 8.334-1.361a98.238 98.238 0 0 0 7.545-1.795 77.954 77.954 0 0 0 6.847-2.266 65.917 65.917 0 0 0 6.233-2.767 60.458 60.458 0 0 0 5.709-3.305 60.56 60.56 0 0 0 5.27-3.873 66.401 66.401 0 0 0 4.915-4.477c2.065-2.073 3.918-4.165 5.623-6.39a61.682 61.682 0 0 0 4.742-7.196c1.478-2.61 2.873-5.468 4.254-8.693 1.381-3.225 2.747-6.818 4.162-10.89 1.466-4.218 2.693-8.158 3.727-12.106a130.924 130.924 0 0 0 2.572-12.145c.696-4.242 1.244-8.773 1.694-13.875.449-5.1.798-10.772 1.093-17.296 1.319-29.123 2.165-46.568 2.922-58.323.379-5.877.734-10.33 1.117-14.111.384-3.78.794-6.887 1.278-10.066.433-2.848.782-5.504 1.068-8.41.286-2.907.51-6.063.69-9.913.359-7.699.546-18.169.728-34.945.214-19.75.318-29.7.092-35.283-.113-2.792-.308-4.492-.613-5.78-.306-1.287-.721-2.163-1.274-3.304-.51-1.056-.903-1.927-1.193-2.801-.29-.874-.478-1.75-.584-2.813-.212-2.126-.093-5.003.209-10.117.18-3.061.52-6.633.92-9.92s.861-6.29 1.287-8.214c.762-3.45 1.41-6.691 1.965-9.891.554-3.2 1.014-6.357 1.398-9.637.77-6.56 1.24-13.611 1.563-22.472.18-4.95.56-11.194 1.025-17.266.466-6.072 1.018-11.972 1.543-16.234.542-4.395 1.022-9.893 1.37-15.356.346-5.463.56-10.892.568-15.144.015-8.25.685-25.35 1.49-38 .415-6.53.742-14.486.976-22.981.235-8.495.378-17.529.422-26.213.045-8.684-.008-17.018-.162-24.115-.154-7.097-.411-12.958-.773-16.691-.534-5.5-1.426-26.425-1.985-46.5-1.02-36.666-1.727-59.565-2.369-74.41-.32-7.423-.626-12.832-.945-16.942-.32-4.11-.652-6.922-1.031-9.148a728.832 728.832 0 0 1-4.174-27.596 628.08 628.08 0 0 1-2.907-26.404c-.899-10.175-1.752-17.805-2.916-25.14-1.163-7.333-2.637-14.372-4.779-23.36-1.638-6.875-4.269-18.8-5.846-26.5-1.002-4.898-1.804-8.7-2.507-11.68-.704-2.98-1.308-5.14-1.92-6.75-.612-1.61-1.231-2.673-1.96-3.461-.728-.789-1.566-1.303-2.618-1.817-.963-.47-2.794-1.085-4.97-1.699a93.763 93.763 0 0 0-7.03-1.687c-1.818-.36-3.859-.648-6.788-.885-2.928-.237-6.745-.424-12.11-.578-10.733-.308-27.665-.488-56.102-.692-16.107-.115-29.71-.166-41.604-.134z" fill="#fff"/><path d="M373.619.075c-11.427.098-21.46.299-30.977.646a758.52 758.52 0 0 0-27.873 1.524c-9.357.681-19.073 1.551-30.021 2.652-10.95 1.1-23.132 2.432-37.422 4.037-10.252 1.151-24.495 3.009-37.553 4.846-13.058 1.836-24.932 3.652-30.447 4.718-5.977 1.156-12.975 2.827-20.34 4.803a506.533 506.533 0 0 0-22.549 6.639c-7.45 2.38-14.613 4.856-20.84 7.223-6.227 2.366-11.517 4.622-15.217 6.558-3.386 1.772-6.22 3.511-9.119 5.682-2.9 2.17-5.866 4.772-9.521 8.27-2.853 2.729-5.444 5.372-7.805 8.013-2.36 2.641-4.491 5.281-6.424 8.004a75.17 75.17 0 0 0-5.234 8.5 80.84 80.84 0 0 0-4.233 9.506c-1.265 3.392-2.394 7.036-3.42 11.017-1.025 3.981-1.947 8.299-2.796 13.037-.85 4.739-1.627 9.9-2.364 15.565-.736 5.665-1.43 11.836-2.117 18.598-.752 7.409-2.151 17.807-3.6 27.279-1.447 9.472-2.944 18.018-3.89 21.72-.492 1.926-1.813 9.576-2.938 17-1.35 8.916-2.411 16.671-3.26 24.848-.847 8.177-1.483 16.775-1.976 27.375-.493 10.6-.845 23.203-1.13 39.389-.286 16.186-.504 35.955-.73 60.889-.335 37.236-.61 60.33-.952 74.886-.172 7.279-.361 12.422-.584 16.133-.223 3.711-.48 5.99-.788 7.535-.826 4.155-2.031 12.93-2.677 19.5-.646 6.57-1.98 16.67-2.963 22.446-.983 5.775-3.444 20.625-5.469 33-2.025 12.375-4.81 28.125-6.191 35-2.303 11.46-4.122 21.003-5.545 29.558s-2.45 16.122-3.172 23.627C.76 637.603.344 645.045.146 653.354c-.199 8.309-.18 17.483-.033 28.451.127 9.518.424 20.363.802 30.17.379 9.807.837 18.575 1.284 23.938.835 10.028 1.467 17.575 2.127 23.876.659 6.302 1.347 11.36 2.295 16.415.947 5.055 2.156 10.106 3.857 16.394 1.701 6.288 3.895 13.813 6.814 23.815a797.517 797.517 0 0 1 5.47 19.746c1.665 6.329 3.04 11.896 3.72 15.173.706 3.398 1.354 6.221 2.01 8.612.655 2.39 1.318 4.349 2.05 6.023.733 1.675 1.538 3.064 2.475 4.313.937 1.249 2.008 2.358 3.277 3.472 1.822 1.6 3.62 2.946 5.623 4.116 2.004 1.17 4.215 2.164 6.866 3.062 2.65.898 5.743 1.699 9.506 2.483 3.762.783 8.197 1.55 13.537 2.376 15.843 2.454 29.45 4.807 40.652 7.024 5.6 1.109 10.6 2.184 14.977 3.22 4.376 1.038 8.13 2.036 11.238 2.993 3.088.95 6.524 1.776 10.549 2.502 4.024.725 8.637 1.351 14.078 1.9 5.441.55 11.711 1.02 19.049 1.442 7.337.42 15.743.79 25.457 1.13 16.225.57 35.8 1.391 43.5 1.827 9.615.543 23.987.822 37.77.834 6.89.006 13.634-.055 19.562-.184 5.928-.13 11.04-.327 14.668-.592 6.6-.482 26.175-1.339 43.5-1.902s37.125-1.488 44-2.055c6.875-.567 20.375-1.48 30-2.03 6.083-.346 11.185-.68 15.595-1.042 4.411-.362 8.131-.751 11.452-1.207a108 108 0 0 0 9.052-1.611c2.812-.631 5.515-1.368 8.4-2.252 3.987-1.223 7.721-2.547 11.227-4 3.506-1.454 6.784-3.036 9.858-4.77a73.102 73.102 0 0 0 8.632-5.687 67.501 67.501 0 0 0 7.557-6.756 72.222 72.222 0 0 0 6.621-7.979c2.068-2.88 4.005-5.988 5.834-9.35 1.83-3.361 3.55-6.976 5.19-10.87 1.638-3.895 3.194-8.068 4.691-12.545 1.716-5.134 3.119-9.673 4.275-14.016a138.099 138.099 0 0 0 2.8-12.84c.73-4.35 1.283-8.904 1.724-14.059.44-5.154.77-10.91 1.053-17.666 1.326-31.617 2.11-49.066 3.058-62.052.474-6.494.988-11.87 1.633-17.346.645-5.476 1.42-11.051 2.412-17.937.447-3.1.818-8.833 1.1-16.096.282-7.263.475-16.056.57-25.278.095-9.22.092-18.87-.023-27.841-.115-8.973-.342-17.269-.69-23.785-.555-10.404-.823-16.523-.775-20.981.024-2.23.127-4.042.312-5.77.185-1.727.452-3.368.805-5.25 1.025-5.46 1.928-12.656 2.578-20.076.65-7.42 1.047-15.064 1.059-21.423.005-2.75.184-6.545.468-10.442.285-3.897.674-7.896 1.1-11.058.427-3.163.91-8.794 1.344-15.319.435-6.525.821-13.944 1.054-20.681.467-13.475 1.376-33.802 2.024-45.17.332-5.838.555-13.472.676-22.09.12-8.618.138-18.22.06-27.996-.078-9.776-.251-19.724-.515-29.035-.264-9.312-.618-17.985-1.055-25.21-.632-10.45-1.596-39.7-2.145-65-.253-11.677-.464-20.703-.716-28.197-.253-7.493-.548-13.455-.971-19.004-.424-5.548-.976-10.684-1.74-16.527-.765-5.843-1.743-12.394-3.02-20.771-1.383-9.075-3.235-24.825-4.113-35-.433-5.02-.862-9.413-1.358-13.6a262.005 262.005 0 0 0-1.752-12.361c-1.392-8.385-3.326-17.617-6.357-31.04a5494.539 5494.539 0 0 1-6.367-28.546c-1.041-4.76-2.075-8.683-3.229-11.95-.576-1.633-1.181-3.102-1.834-4.43a25.506 25.506 0 0 0-2.113-3.577 19.342 19.342 0 0 0-2.482-2.86 19.24 19.24 0 0 0-2.95-2.277 25.292 25.292 0 0 0-3.513-1.826 41.543 41.543 0 0 0-4.172-1.514c-4.15-1.281-7.48-2.256-11.305-3.004-3.824-.748-8.14-1.27-14.256-1.646-6.115-.376-14.032-.607-25.056-.772-11.025-.164-25.158-.263-43.707-.377-22.26-.136-39.972-.19-55.207-.058zm15.603 18.955c11.894-.032 25.497.02 41.604.134 28.437.204 45.37.384 56.101.692 5.366.154 9.183.34 12.112.578 2.928.237 4.97.526 6.787.885a93.763 93.763 0 0 1 7.03 1.687c2.176.614 4.007 1.23 4.97 1.7 1.052.513 1.89 1.027 2.619 1.816.728.788 1.347 1.85 1.959 3.46.612 1.611 1.216 3.77 1.92 6.75.703 2.981 1.505 6.783 2.508 11.68 1.576 7.7 4.207 19.626 5.845 26.5 2.142 8.99 3.616 16.028 4.78 23.362 1.163 7.334 2.016 14.964 2.916 25.139a628.08 628.08 0 0 0 2.906 26.404 728.832 728.832 0 0 0 4.174 27.596c.379 2.226.712 5.038 1.03 9.148.32 4.11.625 9.519.946 16.941.642 14.846 1.35 37.745 2.37 74.41.558 20.076 1.45 41 1.984 46.5.362 3.734.619 9.595.773 16.692.154 7.097.207 15.431.162 24.115-.044 8.684-.187 17.718-.422 26.213-.234 8.495-.561 16.45-.976 22.98-.805 12.65-1.475 29.75-1.49 38-.008 4.253-.222 9.682-.569 15.145-.347 5.463-.827 10.961-1.369 15.356-.525 4.262-1.077 10.162-1.543 16.234-.465 6.072-.845 12.316-1.025 17.266-.324 8.86-.794 15.912-1.563 22.472-.384 3.28-.844 6.437-1.398 9.637-.554 3.2-1.203 6.441-1.965 9.89-.426 1.926-.887 4.928-1.287 8.215-.4 3.287-.74 6.859-.92 9.92-.302 5.114-.421 7.991-.21 10.117.107 1.064.295 1.94.585 2.813.29.874.682 1.745 1.193 2.8.553 1.142.968 2.018 1.274 3.305.305 1.288.5 2.988.613 5.78.226 5.583.122 15.532-.092 35.283-.182 16.776-.369 27.246-.728 34.945-.18 3.85-.404 7.006-.69 9.912a155.883 155.883 0 0 1-1.068 8.41 195.08 195.08 0 0 0-1.278 10.067c-.383 3.78-.738 8.234-1.117 14.111-.757 11.755-1.603 29.2-2.922 58.323-.295 6.524-.644 12.195-1.093 17.296-.45 5.102-.998 9.633-1.694 13.875a130.924 130.924 0 0 1-2.572 12.145c-1.034 3.948-2.261 7.888-3.727 12.105-1.415 4.073-2.78 7.666-4.162 10.891-1.38 3.225-2.776 6.084-4.254 8.693a61.682 61.682 0 0 1-4.742 7.196c-1.705 2.225-3.558 4.317-5.623 6.39a66.401 66.401 0 0 1-4.916 4.477 60.56 60.56 0 0 1-5.27 3.873 60.458 60.458 0 0 1-5.708 3.305 65.917 65.917 0 0 1-6.233 2.767 77.954 77.954 0 0 1-6.847 2.266 98.238 98.238 0 0 1-7.545 1.795c-2.642.524-5.416.977-8.334 1.361-2.919.384-5.982.701-9.205.957-15.272 1.212-26.652 2.02-38.024 2.635-11.372.614-22.736 1.034-37.976 1.469-17.325.494-35.775 1.363-41 1.933-2.668.291-9 .51-17.381.655-8.381.144-18.81.216-29.672.214a2299.548 2299.548 0 0 1-32.272-.222c-10.113-.147-19.043-.366-25.175-.659-8.8-.419-26.575-1.259-39.5-1.865-7.847-.368-14.19-.697-19.473-1.043-5.284-.345-9.51-.708-13.123-1.138-3.613-.43-6.613-.928-9.447-1.55-2.835-.62-5.505-1.364-8.453-2.282-2.749-.856-8.454-2.194-15.432-3.659a709.654 709.654 0 0 0-23.068-4.423l-37.504-6.538c-2.548-.444-4.759-.902-6.684-1.398-1.925-.496-3.564-1.027-4.969-1.617-1.404-.59-2.573-1.238-3.558-1.965a11.429 11.429 0 0 1-2.455-2.44c-.507-.687-1.182-2.437-1.862-4.703a81.11 81.11 0 0 1-1.886-7.796c-.912-4.779-2.318-10.67-4.555-18.922-2.238-8.252-5.307-18.863-9.545-33.078-1.452-4.872-2.595-8.875-3.537-12.708a132.244 132.244 0 0 1-2.334-11.685c-.65-4.192-1.207-8.914-1.78-14.865-.572-5.952-1.161-13.134-1.874-22.244-1.146-14.637-1.787-23.972-2.088-32.98-.302-9.01-.266-17.691-.057-31.018.134-8.554.336-15.941.656-22.65.32-6.71.76-12.742 1.368-18.589a279.539 279.539 0 0 1 2.384-17.47c.999-5.964 2.218-12.23 3.71-19.291 1.915-9.075 4.65-24.375 6.08-34 1.428-9.625 3.431-21.55 4.45-26.5 1.02-4.95 2.82-16.425 4.004-25.5 1.184-9.075 3.113-22.8 4.286-30.5.496-3.259.88-6.109 1.189-9.713.308-3.605.54-7.966.73-14.246.382-12.561.598-32.802.934-70.041.245-27.202.507-49.233.85-67.473.343-18.24.768-32.689 1.34-44.725.572-12.036 1.29-21.66 2.222-30.25.932-8.59 2.078-16.149 3.502-24.052 3.283-18.226 5.268-29.534 6.621-38.194 1.354-8.66 2.076-14.672 2.834-22.306.765-7.698 1.592-14.683 2.487-20.99.894-6.309 1.858-11.942 2.898-16.934 1.04-4.993 2.158-9.347 3.36-13.098 1.2-3.751 2.485-6.9 3.863-9.484 1.51-2.834 3.546-5.865 5.925-8.91 2.38-3.046 5.103-6.107 7.989-9 2.886-2.894 5.934-5.621 8.963-7.999 3.028-2.377 6.037-4.405 8.845-5.902 2.832-1.51 7.51-3.435 13.278-5.545 5.768-2.11 12.627-4.402 19.818-6.64a566.913 566.913 0 0 1 21.818-6.32c7.102-1.897 13.78-3.505 19.28-4.589 5.008-.987 13.007-2.247 22.722-3.625 9.716-1.377 21.147-2.872 33.016-4.328a2277.51 2277.51 0 0 1 35.644-4.092c11.47-1.22 22.101-2.242 30.618-2.914 13.206-1.04 24.885-1.77 37.722-2.252 12.838-.481 26.833-.714 44.674-.761z"/><g fill="#d40000"><path d="M259.808 516.047c-1.276-.208-1.963.024-2.351.653-1.014 1.64-3.672 22.51-3.098 24.32 1.476 4.651 7.675-.169 12.828-9.975 4.909-9.341 4.788-10.386-1.496-12.998-2.744-1.14-4.607-1.791-5.883-2zm51.514 6.137c-.439-.253-1.25-.137-2.746.172-1.788.368-4.938.917-7 1.219-4.575.669-4.767 2.305-.674 5.75 4.136 3.48 8.629 3.49 9.947.023.536-1.41.977-3.712.977-5.113 0-1.173-.066-1.798-.504-2.051zM336.982 503.913c-1.908 0-9.065 8.086-9.115 10.298-.027 1.163 1.462 2.492 4.209 3.754 2.337 1.075 5.6 1.84 7.25 1.701 2.638-.221 3.04-.675 3.336-3.753.382-3.972-3.418-12-5.68-12zM232.962 494.114c-4.13.766-14.376 21.13-12.755 25.353.305.796.953 1.446 1.439 1.446 3.62 0 17.18-14.47 17.18-18.333 0-3.028-4.005-8.811-5.864-8.466zM269.837 477.913c-2.443 0-21.342 19.7-20.644 21.519.752 1.959 4.256 1.902 5.017-.082.414-1.077 1.615-1.466 3.858-1.25 3.2.309 3.252.394 3.025 4.95l-.23 4.634 5.965 2.23c5.567 2.083 9.253 2.254 13.052.608.93-.403 2.94.322 5 1.8 2.111 1.516 4.607 2.399 6.446 2.282l3-.191-.346-8.098c-.585-13.711-.897-14.45-6.914-16.412-6.308-2.057-12.463-6.165-14.258-9.52-.727-1.358-2.063-2.47-2.97-2.47zM223.517 465.913c-4.915 0-7.945.486-9.25 1.482-1.68 1.282-1.74 1.616-.441 2.484.825.552 3.3 1.043 5.5 1.09 2.2.047 4.9.47 6 .944 4.2 1.804 5.5 1.214 5.5-2.5v-3.5h-7.309zM288.351 455.002c-4.276.094-7.752 1.137-9.582 2.967-1.463 1.463-1.943 3.331-1.943 7.543 0 10.537 4.134 15.236 14.478 16.457 11.816 1.394 13.226.295 14.262-11.125.93-10.26-2.436-14.397-12.703-15.613a32.47 32.47 0 0 0-4.512-.229zm26.057 23.91c-.843 0-2.27 1.463-3.172 3.25-2.13 4.22-6.392 8.75-8.235 8.75-1.22 0-1.335 1.695-.73 10.729.395 5.9.958 11.116 1.25 11.588.292.472 1.49.6 2.666.285 1.175-.315 2.476-.58 2.889-.588.412-.008.75-1.047.75-2.312 0-4.354 5.287-6.47 8-3.201.684.825 1.618 1.5 2.076 1.5 2.386 0 11.95-12.615 11.887-15.68-.042-2.042-14.945-14.32-17.381-14.32zM322.298 434.13c-.665-.141-1.257-.13-1.748.058-1.33.51-6.096 7.223-10.3 14.508l-1.895 3.283 2.734 4.863c1.504 2.676 2.737 5.712 2.737 6.746 0 3.02 2.61 5.958 11.834 13.323 4.766 3.805 9.21 6.937 9.877 6.96 3.682.129 5.039-24.168 1.88-33.677-2.22-6.685-10.463-15.08-15.119-16.065zm24.778 10.964c-2.19-.31-3.124 1.613-1.55 3.188 1.166 1.165 3.8.206 3.8-1.383 0-.818-1.013-1.63-2.25-1.805zm22.105 6.117c-3.857-.087-8.784.799-13.068 2.694-6.755 2.988-8.287 4.682-8.287 9.164 0 2.115.471 3.844 1.048 3.844 2.15 0 6.952-3.102 6.952-4.49 0-1.882 3.13-3.51 6.752-3.51 4.778 0 13.248-2.917 13.248-4.563 0-1.992-2.788-3.051-6.645-3.139zm-20.201 19.78c-.891-.17-1.356 1.512-2.145 6.357-.51 3.139-2.07 8.203-3.468 11.256-1.398 3.052-2.541 5.946-2.541 6.43 0 .483 6.717.879 14.927.879 12.232 0 15.212-.282 16.498-1.569 3.777-3.776 3.136-11.56-1.302-15.812-3.18-3.047-10.541-5.62-16.082-5.62-2.003 0-4.174-.53-4.825-1.181-.419-.42-.765-.684-1.062-.74zM359.52 422.913c-1.922 0-9.8 5.296-12.815 8.617-1.529 1.682-2.845 4.549-3.159 6.883-.296 2.2-.317 3.437-.047 2.75.27-.688 1.06-1.25 1.754-1.25s2.095-.922 3.114-2.047c1.018-1.126 3.227-2.702 4.906-3.504 5.044-2.41 9.977-11.45 6.248-11.45zM222.681 420.084c-1.79.417-1.863 1.913-.486 4.55 1.878 3.595 5.786 7.19 12.63 11.618 3.026 1.958 6.282 3.582 7.237 3.61 1.868.054 8.692-6.682 8.736-8.625.04-1.75-9.516-6.84-17.328-9.229-5.49-1.678-8.999-2.34-10.789-1.924zm69.375 6.096c-3.192.025-6.44.21-9.453.58-8.946 1.102-18.78 4.519-18.775 6.526 0 .62 3.546 3.929 7.879 7.353l7.878 6.227 8.157-.108c4.486-.058 8.44.18 8.787.526.346.346 1.65.629 2.896.629 1.776 0 3.383-1.849 7.424-8.54 2.837-4.697 4.932-9.132 4.654-9.857-.786-2.05-9.87-3.41-19.447-3.336zm-36.164 12.733c-.978 0-7.066 7.333-7.066 8.511 0 .398-1.35 2.264-3 4.143-3.194 3.637-3.602 5.637-2.004 9.84.87 2.289.607 2.98-2.069 5.423-2.582 2.36-3.016 3.415-2.748 6.688.28 3.404.679 3.949 3.213 4.39 5.074.885 6.24 6.504 1.602 7.717-1.29.338-1.994 1.364-1.994 2.905 0 4.44 3.007 2.495 14.306-9.254 10.276-10.686 11.297-12.098 12.471-17.23.703-3.075 1.716-6.027 2.25-6.561 2.493-2.493.833-5.25-6.545-10.858-4.135-3.143-7.922-5.714-8.416-5.714zM336.326 410.913c-.834 0-1.5.888-1.5 2 0 1.11.666 2 1.5 2 .833 0 1.5-.89 1.5-2 0-1.112-.667-2-1.5-2z"/><path d="M303.181 372.141c-23.503-.61-57.667 6.771-72.139 16.342-11.367 7.517-22.964 20.706-28.386 32.28-3.932 8.392-12.205 33.593-14.395 43.85-3.044 14.258-1.716 35.949 3.139 51.3 3.773 11.928 15.149 28.711 25.508 37.628 9.312 8.017 24.443 14.977 43.418 19.97 3.237.851 7.996 1.124 13.5.775 4.675-.297 9.625-.485 11-.418 1.375.066 5.258-.388 8.629-1.008 4.894-.9 6.559-1.71 8.267-4.02 3.356-4.54 7.481-6.212 13.475-5.46 11.134 1.394 12.739 1.136 22.806-3.66 11.208-5.34 16.863-9.03 25.61-16.708 27.042-23.74 40.163-70.604 28.83-102.969-4.78-13.647-16.198-31.66-25.873-40.81-12.644-11.958-36.746-23.694-54.057-26.322-2.834-.43-5.974-.683-9.332-.77zm-14.633 17.01c3.731-.487 7.667 4.112 8.73 11.486 1.575 10.912 2.936 11.967 5.958 4.621 2.355-5.725 9.446-13.345 12.418-13.345 5.632 0 7.629 6.841 4.77 16.343-.82 2.72-1.021 4.895-.485 5.227.505.312 3.7-1.947 7.098-5.022 6.752-6.11 10.729-7.752 15.146-6.25 5.319 1.81 6.463 8.56 2.658 15.67-2.06 3.85.263 4.06 5.854.53 6.872-4.34 10.154-5.054 14.027-3.051 8.107 4.192 6.154 14.015-4.732 23.803-2.294 2.062-3.607 3.757-2.918 3.765.855.01.778.359-.246 1.096-1.206.867-1.108.94.5.373 1.1-.388 4.948-.935 8.552-1.215 5.387-.419 7.3-.13 10.737 1.623 10.291 5.25 9.925 14.388-.776 19.297-2.757 1.265-5.013 2.708-5.013 3.209 0 .5 1.814 2.464 4.033 4.363 7.949 6.804 10.28 15.846 6.156 23.889-3.526 6.878-7.596 8.661-20.928 9.172-10.009.383-11.296.63-10.7 2.056 2.463 5.904 2.606 8.954.626 13.43-3.849 8.701-10.9 10.168-21.94 4.565-6.864-3.485-8.198-3.175-8.232 1.91-.044 6.626-6.663 14.217-12.396 14.217-4.416 0-11.223-4.536-16.62-11.077-5.34-6.474-5.861-6.888-8.702-6.908-1.774-.012-2.998 1.614-6.29 8.352-4.44 9.088-9.683 15.91-13.859 18.033-6.722 3.417-11.712 2.15-14.478-3.68-2.17-4.57-2.108-8.972.328-23.217 1.1-6.432 1.748-12.102 1.441-12.6-1.432-2.317-4.616-.52-8.865 5-13.532 17.587-28.574 19.288-28.574 3.233 0-6.448 6.86-20.376 13.94-28.297 3.849-4.307 5.06-6.425 5.06-8.865 0-2.896-.218-3.13-2.25-2.404-3.066 1.095-12.76.774-17.827-.59-9.74-2.623-11.707-9.898-4.216-15.596 4.77-3.628 11.486-5.384 20.593-5.384h6.202l2.41-4.54c1.398-2.635 2.026-4.874 1.498-5.337-.5-.44-4.161-2.922-8.133-5.518-14.32-9.36-20.084-19.925-14.256-26.129 1.28-1.363 3.86-2.902 5.729-3.418 6.283-1.735 22.397 3.725 33.597 11.383 2.408 1.646 4.56 2.405 5.75 2.027 2.163-.686 2.302-1.57.924-5.896-.538-1.69-1.861-7.05-2.94-11.91-2.126-9.588-1.6-13.046 2.163-14.24 3.218-1.022 7.635 4.229 12.949 15.392 3.714 7.802 5.323 10.23 6.607 9.975 1.435-.286 1.647-1.36 1.356-6.952-.425-8.173 1.292-16.867 4.017-20.332 1.084-1.378 2.306-2.105 3.55-2.267z"/></g><g fill="url(#d)" transform="translate(-213.2 -45.67)"><path d="M571.955 296.824c-7.951-.084-16.335.65-27.16 2.184-10.301 1.46-21.776 3.47-25.5 4.467-16.42 4.392-32.27 9.674-32.27 10.754 0 .646 2.038 2.161 4.528 3.367 6.799 3.291 9.972 8.037 9.972 14.91 0 6.857-2.592 10.975-8.8 13.98-4.87 2.358-11.225 8.44-10.33 9.887.327.53 2.617 1.472 5.087 2.094 8.895 2.24 14.65 10.394 13.116 18.576-.914 4.87-7.238 11.198-12.104 12.111-4.96.931-13.317-.167-19.844-2.61-11.062-4.138-17.277-10.97-19.757-21.716-2.242-9.712 2.446-22.589 12.214-33.549 2.705-3.035 4.918-6.008 4.918-6.607 0-1.35-3.661-1.447-4.482-.12-.33.534-3.756 1.91-7.613 3.06-8.616 2.565-33.045 14.721-38.149 18.982-2.06 1.719-7.91 5.853-13 9.187-15.085 9.882-37.086 29.871-35.082 31.875.482.482 3.72-.033 7.344-1.168 4.093-1.281 9.172-2.02 13.781-2.004 8.973.033 15.117 2.986 21.893 10.522 4.702 5.23 12.44 20.188 16.467 31.826 1.313 3.797 2.919 6.75 3.67 6.75.734 0 3.21-1.522 5.503-3.383 13.53-10.982 42.248-19.337 69.946-20.35 17.798-.65 26.782.627 38.722 5.503 31.24 12.756 45.875 25.424 61.496 53.23 5.391 9.596 10.504 23.697 10.504 28.969 0 3.837 1.823 4.233 5.756 1.252 4.341-3.29 10.833-3.984 15.692-1.678 5.004 2.375 8.239 7.61 9.466 15.326 1.246 7.83 4.046 13.524 6.858 13.942 2.721.404 8.725-5.038 15.219-13.797 5.455-7.359 9.567-10.014 15.51-10.014 8.243 0 14.476 5.696 15.269 13.953.563 5.862-1.256 9.565-10.211 20.807-11.909 14.949-23.934 21.696-37.559 21.072-8.128-.372-12.992-2.32-20.142-8.066-3.866-3.107-10.892-13.127-12.281-17.516-.762-2.405-3.42-3.074-3.973-1-5.495 20.606-11.721 35.038-19.842 45.99-6.858 9.25-7.022 11.469-.68 9.23 5.709-2.013 14.53-1.831 19.418.401 11.53 5.266 17.95 19.15 19.123 41.354.3 5.651.716 10.838.928 11.525.212.688.92 1.25 1.574 1.25 5.664 0 41.536-37.695 58.526-61.5 7.216-10.11 9.454-14.333 16.17-30.516 9.827-23.68 13.089-35.054 17.773-61.984 2.418-13.897 2.702-18.033 2.748-40 .055-25.936-.71-33.845-4.86-50.26-7.694-30.44-23.156-50.118-51.825-65.957-33.833-18.69-54.875-27.144-79.157-31.804-9.098-1.747-16.618-2.652-24.57-2.737zm-23.238 12.758c4.664 0 17.604 7.534 24.451 14.236 10.999 10.766 17.038 33.495 12.396 46.65-3.936 11.159-11.706 18.007-27.337 24.1-11.134 4.34-15.873 4.872-20.985 2.352-9.764-4.813-10.963-20.11-2.072-26.441 1.594-1.136 6.602-3.504 11.127-5.264 8.088-3.146 8.233-3.263 8.537-6.889.562-6.71-2.707-11.933-10.705-17.107-8.537-5.523-11.095-9.246-11.1-16.155-.007-8.881 6.68-15.482 15.688-15.482zm101.75 57.188c1.174-.006 2.36.02 3.558.082 14.29.726 24.91 5.51 34.912 15.724 5.677 5.797 10.422 15.766 10.333 21.705-.136 8.966-8.027 16.037-16.795 15.05-5.73-.647-9.771-3.737-13.72-10.493-4.185-7.164-9.529-10.264-17.638-10.233-6.69.027-12.345 2.42-16.79 7.106-5.098 5.372-6.584 10.064-7.3 23.05-.566 10.288-.953 12.147-3.234 15.594-1.425 2.153-4.16 4.66-6.08 5.57-7.213 3.423-15.006 1.158-19.53-5.677-2.353-3.557-2.676-5.13-2.99-14.576-.547-16.49 2.99-28.338 12.172-40.78 10.654-14.435 25.492-22.032 43.102-22.122z" fill="url(#e)"/><path d="M356.543 399.582c-1.915 0-14.482 14.54-19.1 22.098-2.152 3.521-7.903 14.727-12.78 24.902-21.29 44.41-24.64 54.198-26.694 78-.546 6.325-1.4 13.975-1.897 17-2.095 12.77-.722 38.486 3.065 57.387 2.289 11.426 8.93 32.171 14.447 45.136 12.768 30.002 32.807 49.247 64.592 62.034 15.297 6.154 32.672 10.969 46.35 12.843 1.65.227 13.8.298 27 .159l24-.254 15.5-4.086c8.524-2.247 21.35-6.18 28.5-8.74 7.15-2.561 15.476-5.045 18.503-5.52 7.773-1.22 25.852-8.288 42.274-16.53 10.694-5.367 34.722-22.26 34.722-24.413 0-.469-1.48-1.767-3.289-2.885-5.65-3.492-7.379-8.037-8.568-22.537-.582-7.1-1.51-13.36-2.06-13.91-.976-.976-2.15-.305-11.981 6.845-9.775 7.11-23.598-.977-23.406-13.693.05-3.3-.333-4.836-1.207-4.836-.705 0-5.991 2.2-11.748 4.889l-10.467 4.886.078 5.438c.058 4.034-.687 7.096-2.887 11.863-2.348 5.089-2.965 7.812-2.965 13.094 0 8.526 2.165 11.214 10.383 12.889 3.09.63 6.984 1.977 8.654 2.994 3.787 2.305 7.463 8.68 7.463 12.947 0 4.305-3.68 10.64-7.582 13.05-9.972 6.164-28.617 1.078-39.433-10.757-6.476-7.086-9.74-14.104-11.192-24.06-.964-6.614-.938-9.659.13-15.483.73-3.988 1.555-8.54 1.833-10.115l.504-2.865-7.88.68c-16.312 1.406-21.298 1.052-33.38-2.37-17.018-4.82-32.934-13.37-43.664-23.459-10.753-10.11-21.32-25.973-26.011-39.049-4.045-11.273-6.198-34.181-4.38-46.617 2.385-16.309 12.245-46.14 19.24-58.217 2.155-3.719 3.679-7.148 3.388-7.619-.291-.47-2.328-1.142-4.526-1.494-5.624-.9-10.084-5.754-14.033-15.271-4.554-10.978-7.875-17.354-9.039-17.354-.546 0-2.857 1.35-5.135 3-3.317 2.403-5.158 3-9.258 3-9.936 0-16.336-7.398-15.277-17.66.42-4.064.23-5.34-.787-5.34zm-8 44.004c11.471-.01 18.137 10.217 14.107 21.639-.755 2.14-1.914 8.61-2.576 14.375-1.279 11.145-.585 17.804 1.977 18.966 10.825 4.913 13.977 8.618 13.967 16.414-.008 6.117-2.255 10-7.69 13.29-4.844 2.932-13.919 3.124-19.869.421-15.43-7.008-22.632-24.543-20.424-49.726 2.304-26.28 7.572-35.37 20.508-35.38zm.482 127.568c11.59.078 20.38 2.41 32.9 8.727 8.865 4.473 12.6 9.252 12.6 16.123 0 4.194-.558 5.966-2.802 8.908-5.998 7.864-11.647 8.439-25.403 2.584-7.335-3.122-11.043-4.126-15.699-4.25l-6.096-.164-.308 3.725c-.26 3.135.245 4.28 3.201 7.236 7.487 7.487 5.514 20.508-3.775 24.916-10.067 4.777-22.301-.922-28.329-13.195-2.563-5.22-2.789-6.617-2.789-17.201 0-10.985.152-11.83 3.26-18.143 3.794-7.706 9.214-12.994 17.12-16.701 4.998-2.344 6.78-2.628 16.12-2.565zm98.036 75.684c2.87.275 5.737 1.16 7.712 2.566 5.784 4.118 7.977 13.347 4.676 19.676-5.266 10.1-19.063 22.517-30.484 27.436-5.86 2.523-19.71 3.715-25.44 2.19-9.657-2.572-22.1-12.455-25.964-20.624-2.722-5.751-3.16-13.385-1.026-17.88 2.705-5.7 6.874-8.12 13.99-8.12 7.168 0 11.313 2.437 14.004 8.23 2.704 5.82 4.393 7.27 8.479 7.27 4.842 0 11.447-4.417 18.115-12.113 2.849-3.289 6.542-6.682 8.207-7.543 1.987-1.028 4.86-1.363 7.73-1.088z" fill="url(#f)"/><path d="M575.525 272.133l-31.5.008c-32.354.008-41.414.69-60.5 4.56-41.059 8.325-70.247 22.996-112 56.295-12.904 10.292-37.288 34.631-45.933 45.85-7.54 9.784-27.221 42.098-34.621 56.844-13.23 26.361-22.726 56.96-27.436 88.392-2.615 17.455-1.532 42.983 3.055 72 7.169 45.348 13.462 63.934 30.476 90 14.072 21.559 20.539 26.882 44.46 36.598 8.25 3.35 20.4 8.573 27 11.603 17.113 7.859 21.211 9.368 27.988 10.305 10.056 1.39 51.496.457 67.511-1.521 14.409-1.78 17.204-1.863 45-1.332 11.55.22 15.924-.1 21.5-1.567 8.507-2.238 32.261-11.548 47.313-18.543 20.65-9.596 50.323-27.919 65.789-40.623 14.306-11.752 22.035-17.84 30.36-23.92 10.696-7.81 22.86-20.511 36.876-38.5 13.269-17.03 19.707-27.543 28.582-46.676 7.193-15.505 9.8-23.694 15.543-48.812 6.206-27.14 6.493-29.963 6.451-63.512-.058-47.428-2.636-62.294-15.974-92.095-8.81-19.683-17.644-31.775-32.13-43.977-17.531-14.77-25.038-18.936-50.31-27.926-33.416-11.887-37.633-13.122-62.5-18.273l-25-5.178zm-2.673 19.275l20.336 4.112c22.666 4.581 34.475 7.701 46.337 12.24 4.4 1.683 13.85 5.059 21 7.502 18.165 6.205 29.022 12.84 44.93 27.455 11.822 10.86 21.418 27.688 30.197 52.955 5.117 14.725 6.373 27.332 6.37 63.873-.005 34.335-.3 36.933-7.64 67.037-5.14 21.09-7.115 26.544-15.966 44.06-8.013 15.86-11.699 21.538-24.723 38.092-12.323 15.664-25.98 29.3-37.168 37.112-4.4 3.071-13.056 9.86-19.236 15.084-24.63 20.823-56.536 39.407-91.826 53.484-16.93 6.753-21.27 7.865-24.324 6.23-3.27-1.75-37.265.549-73.524 4.973-9.008 1.1-40.576 1.085-48.1-.021-2.754-.405-11.08-3.553-18.5-6.994-7.42-3.442-19.468-8.678-26.773-11.637-23.103-9.359-27.509-12.302-35.697-23.832-17.103-24.084-26.375-47.333-30.928-77.551-.787-5.225-2.238-13.775-3.224-19-1.437-7.614-1.8-14.859-1.83-36.5-.037-26.133.053-27.401 2.802-39.5 4.519-19.882 7.35-29.198 13.737-45.193 7.255-18.172 9.855-23.43 20.175-40.807 17.594-29.625 24.452-38.808 41.73-55.875 12.547-12.392 28.597-25.689 45.018-37.297 14.132-9.99 20.809-13.931 34.727-20.504 14.802-6.99 28.11-11.37 46.975-15.467 14.786-3.21 14.823-3.212 49.96-3.62l35.165-.41z" fill="url(#g)"/></g></svg>