<svg xmlns:osb="http://www.openswatchbook.org/uri/2009/osb" xmlns="http://www.w3.org/2000/svg" height="848.024" width="594.307"><defs><linearGradient osb:paint="solid" id="c"><stop offset="0" stop-color="#fff"/></linearGradient><linearGradient osb:paint="solid" id="b"><stop offset="0"/></linearGradient><linearGradient osb:paint="solid" id="a"><stop offset="0" stop-color="#162d50"/></linearGradient></defs><path d="M267.943 19.135c-2.25.068-5.807.454-11.586 1.187-7.7.978-26.375 2.703-41.5 3.832-15.125 1.13-30.875 2.486-35 3.012-9.71 1.24-30.811 3.675-43.455 5.016a181.92 181.92 0 0 0-13.736 1.978 159.009 159.009 0 0 0-12.905 2.922 136.416 136.416 0 0 0-11.972 3.836 114.996 114.996 0 0 0-10.932 4.725c-4.166 2.07-11.54 6.078-18.322 9.888-6.782 3.81-12.972 7.424-14.772 8.705a15.245 15.245 0 0 0-3.02 2.817c-.89 1.092-1.674 2.36-2.382 3.867-.708 1.507-1.34 3.255-1.926 5.307-.586 2.05-1.127 4.406-1.652 7.13-1.094 5.673-3.973 17.963-6.398 27.313-1.45 5.586-2.676 10.536-3.733 15.13a300.827 300.827 0 0 0-2.71 13.005 264.407 264.407 0 0 0-1.999 12.56c-.582 4.3-1.099 8.808-1.6 13.805-.73 7.293-1.471 13.41-2.812 22.207-1.34 8.797-3.28 20.276-6.406 38.293-.256 1.475-.496 4.48-.715 8.658-.22 4.179-.418 9.53-.594 15.705-.352 12.349-.613 27.981-.756 44.069-.142 16.087-.168 32.629-.05 46.795.117 14.165.377 25.956.804 32.54.615 9.478 1.853 28.258 2.75 41.733.338 5.07.605 10.111.815 15.99.209 5.88.36 12.597.463 21.022.203 16.85.213 40.529.115 77.988-.066 24.887-.229 48.187-.44 65.678-.21 17.49-.468 29.172-.722 30.822-.306 1.984-.534 4.883-.684 8.482-.15 3.6-.223 7.902-.219 12.688.01 9.572.327 21.088.951 32.83.556 10.45 1.46 30.475 2.008 44.5.279 7.115.685 14.221 1.121 20.01.437 5.788.904 10.26 1.301 12.105a51.573 51.573 0 0 0 2.233 7.47 59.172 59.172 0 0 0 3.373 7.3 59.585 59.585 0 0 0 4.33 6.797 52.749 52.749 0 0 0 5.111 5.966c1.314 1.314 2.5 2.427 3.73 3.452a38.993 38.993 0 0 0 3.997 2.916c2.982 1.91 6.83 3.904 12.914 6.859 6.697 3.253 12.237 5.816 17.527 7.902a119.07 119.07 0 0 0 7.861 2.8 114.7 114.7 0 0 0 8.172 2.247c2.851.676 5.868 1.287 9.162 1.86 3.295.572 6.867 1.106 10.832 1.628 7.931 1.046 17.432 2.048 29.41 3.22 8.563.837 20.713 2.203 27 3.034 3.144.416 9.445.886 17.063 1.307 7.619.42 16.555.793 24.97 1.016 8.416.223 16.224.525 22.024.834 5.8.308 9.592.623 9.977.869.384.245 5.683.55 13.912.842 8.228.291 19.386.57 31.486.767 14.011.228 26.055.539 35.512.906 9.457.368 16.326.793 19.988 1.252 4.387.55 9.93.898 18.666 1.086 8.737.188 20.669.217 37.834.131 21.872-.109 33.167-.18 39.768-.496 3.3-.158 5.426-.377 7.115-.693 1.689-.316 2.94-.73 4.488-1.274 3.504-1.231 11.604-4.49 18-7.242 6.396-2.751 15.904-6.603 21.13-8.56 4.415-1.654 7.891-3.005 10.847-4.332 2.955-1.327 5.39-2.631 7.72-4.19 2.332-1.559 4.56-3.373 7.102-5.723 2.543-2.35 5.4-5.234 8.99-8.933s6.5-6.782 8.912-9.504c2.413-2.722 4.328-5.083 5.924-7.338a49.446 49.446 0 0 0 4.018-6.703c1.142-2.299 2.146-4.747 3.195-7.6l2.752-7.488.598-42.5c.164-11.688.447-23.719.773-33.688.326-9.968.694-17.875 1.024-21.312 1.732-18.063 2.777-29.374 3.386-37.156.61-7.783.784-12.037.776-15.987-.008-3.496.27-8.475.752-14.277s1.169-12.426 1.982-19.213a638.414 638.414 0 0 1 2.74-20.185c.987-6.451 2.02-12.404 3.022-17.2.352-1.685.69-4.113 1.031-7.52.34-3.405.682-7.79 1.041-13.39.718-11.2 1.502-27.26 2.475-50.072.621-14.575 1.84-35.5 2.71-46.5.49-6.196.911-21.645 1.245-42.441.333-20.797.58-46.942.717-74.526.137-27.584.167-56.608.07-83.166s-.322-50.65-.693-68.367c-.268-12.792-.503-22.657-.823-30.512-.32-7.855-.723-13.7-1.328-18.45a76.425 76.425 0 0 0-1.072-6.423 55.702 55.702 0 0 0-1.461-5.467c-1.123-3.48-2.562-6.781-4.436-10.822-1.36-2.932-2.612-5.444-3.804-7.597-1.193-2.154-2.325-3.952-3.448-5.458-1.122-1.505-2.235-2.718-3.384-3.705a15.778 15.778 0 0 0-3.61-2.345c-1.059-.498-1.973-.898-3.054-1.27-1.082-.372-2.329-.716-4.057-1.101-3.457-.77-8.835-1.706-18.633-3.366-2.612-.442-6.168-1.238-9.793-2.164-3.625-.925-7.32-1.98-10.207-2.941-5.65-1.881-10.993-3.487-16.355-4.871a209.994 209.994 0 0 0-16.47-3.551c-5.725-1.002-11.796-1.842-18.538-2.576-6.743-.734-14.157-1.362-22.569-1.942-12.337-.85-22.754-1.745-23.148-1.988-.394-.243-14.15-.891-30.568-1.441-16.42-.55-33.677-1.47-38.352-2.043-2.337-.287-7.669-.533-14.375-.696a799.658 799.658 0 0 0-22.625-.203c-16.586.085-24.211.157-27.9-.002-1.845-.079-2.705-.216-3.21-.437-.503-.22-.65-.525-1.07-.942-.272-.27-.644-.468-1.228-.59-.584-.12-1.381-.166-2.506-.132z" fill="#fff"/><path d="M284.273.055a34.71 34.71 0 0 0-3.965.004c-1.96.102-4.18.339-6.646.713-6.07.919-16.633 2.156-28.123 3.345-11.49 1.19-23.908 2.329-33.682 3.05-8.525.627-25.4 2.247-37.5 3.599-12.1 1.352-28.075 3.093-35.5 3.87-7.872.825-14.704 1.752-21.043 2.962-3.17.605-6.216 1.281-9.207 2.05-2.99.77-5.926 1.633-8.875 2.612a147.07 147.07 0 0 0-8.953 3.31 194.142 194.142 0 0 0-9.441 4.141c-6.548 3.07-13.692 6.785-21.98 11.328-5.507 3.018-9.982 5.701-13.651 8.326-1.835 1.313-3.468 2.612-4.928 3.93a37.457 37.457 0 0 0-3.889 4.047 31.8 31.8 0 0 0-3.02 4.37 35.6 35.6 0 0 0-2.318 4.905c-.675 1.746-1.262 3.615-1.789 5.64-.526 2.027-.993 4.211-1.427 6.587-.888 4.855-3.81 17.376-6.494 27.826-1.643 6.396-3.013 11.962-4.178 17.084a310.197 310.197 0 0 0-2.947 14.412 279.38 279.38 0 0 0-2.131 14.04c-.62 4.872-1.172 10.066-1.725 15.964-.296 3.162-1.09 9.019-2.13 15.906a958.187 958.187 0 0 1-3.61 22.094l-4.664 26.5-.354 64.904c-.139 25.474-.146 42.86.031 55.998.178 13.138.54 22.027 1.14 30.502 1.143 16.21 1.995 27.997 2.605 38.617.609 10.62.976 20.075 1.146 31.618.17 11.542.144 25.173-.03 44.148-.172 18.975-.493 43.294-.913 76.213-.271 21.22-.452 39.28-.532 55.08-.079 15.8-.057 29.337.075 41.514.131 12.176.372 22.992.734 33.343a1242.61 1242.61 0 0 0 1.457 30.563c.356 5.999.73 10.974 1.2 15.271.469 4.298 1.034 7.92 1.773 11.21a62.282 62.282 0 0 0 2.816 9.224c1.165 2.976 2.58 5.967 4.326 9.322 1.648 3.167 3.43 6.08 5.389 8.785a59.968 59.968 0 0 0 6.463 7.534c2.364 2.333 4.952 4.503 7.812 6.556 2.86 2.054 5.993 3.99 9.442 5.854 6.497 3.511 13.791 7.02 20.728 10.025a229.572 229.572 0 0 0 9.994 4.07c3.147 1.19 6.061 2.19 8.598 2.942a128.04 128.04 0 0 0 8.6 2.23c3.023.675 6.281 1.29 10.01 1.89 7.456 1.195 16.792 2.316 29.89 3.661 13.475 1.384 29.9 3.205 36.5 4.045 3.3.42 9.788.905 17.582 1.346a966.35 966.35 0 0 0 25.418 1.088c8.525.249 16.838.583 23.363.922 6.525.338 11.262.68 12.637.945 1.375.264 6.527.512 13.719.697 7.191.185 16.422.308 25.959.324 9.713.017 19.241.153 26.89.362 7.65.208 13.419.489 15.61.797 4.302.604 14.347 1.673 22.322 2.375 4.526.398 11.146.714 18.76.943 7.614.229 16.223.37 24.726.418 8.504.047 16.902 0 24.096-.147 7.194-.146 13.185-.393 16.871-.746 3.46-.33 6.614-.729 9.639-1.24a96.17 96.17 0 0 0 8.86-1.92c2.938-.784 5.92-1.727 9.12-2.877 3.2-1.15 6.618-2.505 10.428-4.113a1354.03 1354.03 0 0 1 24.14-9.86c5.367-2.118 9.484-3.769 12.893-5.31 3.41-1.541 6.109-2.974 8.64-4.654 2.533-1.68 4.897-3.609 7.632-6.145 2.735-2.536 5.841-5.68 9.86-9.789 4.934-5.047 8.933-9.3 12.232-13.127 3.298-3.827 5.894-7.229 8.025-10.574a60.184 60.184 0 0 0 2.877-5.022 61.448 61.448 0 0 0 2.351-5.21c1.433-3.6 2.636-7.511 3.84-12.102.519-1.977.92-3.695 1.244-5.822.324-2.127.57-4.66.776-8.272.41-7.221.659-18.746 1.049-39.906.23-12.513.608-25.8 1.033-37.129.424-11.328.895-20.696 1.308-25.371.827-9.35 1.985-25.325 2.573-35.5.692-11.975 1.827-25.036 3.172-37.072a572.698 572.698 0 0 1 2.144-17.024c.747-5.242 1.517-9.965 2.28-13.904.631-3.262 1.213-7.208 1.763-12.121.55-4.913 1.07-10.794 1.578-17.92 1.018-14.252 1.991-33.49 3.082-59.959.601-14.575 1.86-35.725 2.8-47 .367-4.42.656-8.81.884-14.316.227-5.507.392-12.13.51-21.016.235-17.774.281-44.603.26-89.668-.015-30.693-.1-56.923-.268-79.203s-.417-40.611-.762-55.508c-.344-14.897-.785-26.36-1.33-34.902-.273-4.272-.571-7.813-.898-10.69-.328-2.876-.684-5.087-1.069-6.697a176.593 176.593 0 0 0-2.16-8.254 102.167 102.167 0 0 0-2.318-7.06 95.532 95.532 0 0 0-2.79-6.71 147.981 147.981 0 0 0-3.574-7.2c-1.255-2.384-2.464-4.534-3.68-6.481-1.215-1.947-2.435-3.69-3.714-5.26a33.734 33.734 0 0 0-4.06-4.22 30.642 30.642 0 0 0-4.715-3.362c-1.716-.997-3.592-1.88-5.68-2.682-2.089-.8-4.39-1.519-6.955-2.183-2.565-.665-5.394-1.275-8.54-1.863-3.144-.589-6.605-1.153-10.433-1.725-2.2-.329-5.718-1.111-9.615-2.107a220.72 220.72 0 0 1-11.885-3.391 284.69 284.69 0 0 0-15.619-4.51 257.815 257.815 0 0 0-15.55-3.492 275.572 275.572 0 0 0-16.09-2.596 344.806 344.806 0 0 0-17.24-1.812c-17.415-1.412-31.092-2.43-42.702-3.16s-21.153-1.173-30.299-1.432c-11-.311-23.375-.98-27.5-1.488-2.062-.254-6.542-.49-12.096-.664a649.79 649.79 0 0 0-18.546-.303c-9.588-.018-15.398-.092-18.868-.309-1.735-.108-2.884-.253-3.629-.445-.744-.192-1.085-.43-1.199-.729-.199-.518-.568-.964-1.103-1.335-.536-.372-1.237-.671-2.096-.895-.86-.224-1.876-.373-3.047-.447zm-16.33 19.08c1.125-.034 1.922.011 2.506.133.584.121.956.319 1.228.59.42.416.567.72 1.07.94.505.222 1.365.36 3.21.438 3.689.159 11.314.087 27.9.002 7.838-.04 15.919.04 22.625.204 6.706.162 12.038.408 14.375.695 4.675.573 21.933 1.493 38.352 2.043 16.419.55 30.174 1.198 30.568 1.441.394.244 10.811 1.138 23.149 1.988 8.411.58 15.825 1.208 22.568 1.942 6.742.734 12.813 1.574 18.539 2.576a209.994 209.994 0 0 1 16.469 3.55c5.362 1.386 10.705 2.99 16.355 4.872 2.888.961 6.582 2.016 10.207 2.941 3.625.926 7.18 1.722 9.793 2.164 9.798 1.66 15.176 2.595 18.633 3.366 1.729.385 2.975.73 4.057 1.101 1.08.372 1.995.772 3.054 1.27a15.778 15.778 0 0 1 3.61 2.345c1.15.987 2.262 2.2 3.384 3.706 1.123 1.505 2.255 3.303 3.448 5.457 1.192 2.154 2.445 4.665 3.804 7.597 1.874 4.041 3.313 7.343 4.436 10.822a55.702 55.702 0 0 1 1.46 5.467c.418 1.943.77 4.047 1.073 6.422.605 4.751 1.009 10.596 1.328 18.451.32 7.855.555 17.72.823 30.512.37 17.718.596 41.81.693 68.367a9854.74 9854.74 0 0 1-.07 83.166c-.138 27.584-.384 53.729-.717 74.526-.333 20.796-.754 36.246-1.244 42.441-.87 11-2.09 31.925-2.711 46.5-.973 22.812-1.757 38.872-2.475 50.072-.359 5.6-.7 9.985-1.04 13.39-.341 3.407-.68 5.835-1.032 7.52-1.002 4.796-2.035 10.749-3.022 17.2-.986 6.45-1.926 13.399-2.74 20.185-.813 6.787-1.5 13.411-1.982 19.213-.482 5.802-.76 10.78-.752 14.277.009 3.95-.166 8.204-.776 15.987-.61 7.782-1.653 19.093-3.386 37.156-.33 3.438-.698 11.344-1.024 21.313-.325 9.968-.609 22-.773 33.687l-.598 42.5-2.752 7.488c-1.049 2.853-2.053 5.301-3.195 7.6a49.446 49.446 0 0 1-4.018 6.703c-1.596 2.255-3.511 4.616-5.924 7.338-2.412 2.722-5.322 5.805-8.912 9.504-3.59 3.7-6.447 6.584-8.99 8.933-2.543 2.35-4.77 4.164-7.101 5.723-2.332 1.559-4.766 2.863-7.721 4.19-2.956 1.327-6.432 2.678-10.848 4.332-5.225 1.957-14.733 5.809-21.129 8.56-6.396 2.751-14.496 6.01-18 7.242-1.548.545-2.8.958-4.488 1.274-1.689.316-3.815.535-7.115.693-6.601.316-17.896.387-39.768.496-17.165.086-29.097.057-37.834-.13-8.737-.189-14.28-.537-18.666-1.087-3.662-.459-10.531-.884-19.988-1.252-9.457-.367-21.5-.678-35.512-.906-12.1-.197-23.258-.476-31.486-.767-8.229-.292-13.528-.597-13.912-.842-.385-.246-4.177-.56-9.977-.87-5.8-.308-13.608-.61-22.023-.833a903.906 903.906 0 0 1-24.971-1.016c-7.618-.42-13.919-.89-17.062-1.307-6.288-.831-18.438-2.197-27-3.035-11.979-1.171-21.48-2.173-29.41-3.218a268.713 268.713 0 0 1-10.833-1.63 153.728 153.728 0 0 1-9.162-1.859 114.7 114.7 0 0 1-8.172-2.248 119.07 119.07 0 0 1-7.861-2.799c-5.29-2.086-10.83-4.65-17.527-7.902-6.084-2.955-9.932-4.948-12.914-6.86a38.993 38.993 0 0 1-3.996-2.915c-1.231-1.025-2.417-2.138-3.73-3.452a52.749 52.749 0 0 1-5.112-5.966 59.585 59.585 0 0 1-4.33-6.797 59.172 59.172 0 0 1-3.373-7.299 51.573 51.573 0 0 1-2.233-7.47c-.397-1.847-.864-6.318-1.3-12.106-.437-5.789-.843-12.895-1.122-20.01-.548-14.025-1.452-34.05-2.007-44.5-.625-11.742-.943-23.257-.952-32.83-.004-4.786.069-9.088.22-12.688.15-3.6.377-6.498.683-8.482.254-1.65.512-13.332.722-30.822.211-17.49.374-40.79.44-65.678.098-37.46.088-61.138-.115-77.988-.102-8.425-.254-15.143-.463-21.022-.21-5.879-.477-10.92-.815-15.99-.897-13.475-2.135-32.255-2.75-41.732-.427-6.585-.687-18.376-.804-32.541-.118-14.166-.092-30.708.05-46.795.143-16.088.404-31.72.756-44.069.176-6.174.375-11.526.594-15.705.22-4.178.459-7.183.715-8.658 3.125-18.017 5.065-29.496 6.406-38.293 1.34-8.797 2.082-14.914 2.813-22.207.5-4.997 1.017-9.504 1.6-13.805.582-4.3 1.23-8.393 1.997-12.56a300.827 300.827 0 0 1 2.711-13.004c1.057-4.595 2.283-9.545 3.733-15.131 2.425-9.35 5.304-21.64 6.398-27.312.525-2.725 1.066-5.08 1.652-7.131.587-2.052 1.218-3.8 1.926-5.307.708-1.507 1.493-2.775 2.383-3.867a15.245 15.245 0 0 1 3.02-2.817c1.8-1.281 7.99-4.894 14.77-8.705 6.783-3.81 14.157-7.818 18.323-9.888 3.46-1.72 7.109-3.297 10.932-4.725a136.416 136.416 0 0 1 11.973-3.836 159.009 159.009 0 0 1 12.904-2.922 181.92 181.92 0 0 1 13.736-1.978c12.644-1.341 33.745-3.777 43.455-5.016 4.125-.526 19.875-1.882 35-3.012 15.125-1.13 33.8-2.854 41.5-3.832 5.779-.733 9.337-1.119 11.586-1.187z"/><path d="M253.357 622.553c-1.1.263-3.8.954-6 1.535s-6.475.799-9.5.484c-5.149-.535-5.882-.321-11.5 3.334-10.357 6.74-19.5 18.754-19.5 25.623 0 2.358.847 3.134 6.25 5.733 5.685 2.734 7.02 2.98 14.75 2.703 7.046-.252 9.612-.833 15-3.397 7.423-3.531 15.702-10.575 18.467-15.709l1.885-3.498-3.926-8.644c-3.31-7.29-4.24-8.568-5.926-8.164zm22.442 26.822c-1.99-.234-3.4.793-6.766 4.93-2.61 3.207-4.027 5.834-3.672 6.797 1.805 4.892 10.924 18.244 16.86 24.685 6.549 7.108 10.06 9.691 15.628 11.5 3.855 1.252 10.942.318 13.871-1.828 1.45-1.062 3.424-3.473 4.385-5.36 3.944-7.734.693-24.356-5.379-27.495-1.636-.847-3.9-2.466-5.03-3.596-1.898-1.897-2.503-1.968-7.84-.918-9.913 1.95-15.3.146-18.434-6.176-.622-1.254-2.218-2.374-3.623-2.539zM337.222 603.383l-9.865.287-.178 8.746c-.192 9.443-2.076 17.36-5.947 25-1.346 2.657-2.179 5.262-1.851 5.791 1.049 1.698 15.779 1.06 23.988-1.039 7.92-2.026 19.11-7.451 23.238-11.268 4.385-4.052 2.406-12.35-4.812-20.181-5.575-6.047-11.196-7.726-24.573-7.336zM228.795 567.315c-2.43.091-5.122.533-8.12 1.314-5.935 1.546-14.09 5.6-17.17 8.535-1.8 1.715-1.793 1.89.196 6.385 2.723 6.157 10.897 14.636 19.947 20.69 8.052 5.385 9.222 5.66 14.555 3.431 4.628-1.934 9.623-1.91 12.433.059 2.817 1.972 3.831 1.325 4.633-2.95.352-1.877 1.76-5.515 3.127-8.086 2.685-5.05 2.515-6.523-.752-6.523-2.614 0-8.892-6.693-12.98-13.838-3.666-6.407-8.582-9.293-15.87-9.017zm63.257 26.251c-8.137.24-16.754 3.329-21.195 8.09-2.223 2.384-2.497 3.53-2.47 10.348.048 12.31 4.355 20.016 13.902 24.875 4.156 2.115 5.806 2.417 10.5 1.92 4.121-.436 6.077-.202 7.527.904 2.749 2.096 3.6 1.56 7.322-4.601 4.194-6.942 6.22-13.791 6.22-21.036 0-5.659-.05-5.757-3.454-6.88-3.64-1.202-4.942-3.416-5.008-8.516-.036-2.798-.41-3.091-5.539-4.35-2.433-.597-5.092-.833-7.805-.754zM278.72 520.281c-1.43-.079-3.599.16-7.384.666-9.648 1.291-15.302 4.07-20.914 10.284-4.14 4.58-4.545 8.242-2.026 18.294 2.519 10.051 3.488 11.821 10.475 19.145 6.016 6.306 6.747 7.52 7.367 12.25.76 5.787 1.68 6.303 6.66 3.729 1.618-.837 5.51-2.104 8.647-2.817 7.146-1.623 7.508-2.585 7.447-19.748-.067-18.587-3.385-37.019-7.303-40.564-.842-.763-1.537-1.16-2.969-1.239zm57.086 21.084c-1.23-.223-2.953-.17-5.824.041-14.842 1.091-26.488 11.792-26.355 24.217.023 2.226-.59 5.975-1.364 8.332-.773 2.357-1.406 4.863-1.406 5.568 0 .706 2.398 2.04 5.33 2.963 2.932.925 7.095 3.238 9.25 5.141 2.156 1.903 4.442 3.48 5.08 3.502 3.82.137 17.625-14.612 20.807-22.227 3.009-7.2 1.517-21.746-2.658-25.921-.893-.893-1.63-1.393-2.86-1.616z" fill="#162d50"/><path d="M324.998 487.397c-3.895-.274-8.901-.189-18.14.039-16.328.401-21.372.908-31 3.113-26.77 6.13-46.968 16.053-65.679 32.264-16.386 14.197-23.355 23.811-31.142 42.957-8.367 20.572-11.173 36.967-9.223 53.914 2.183 18.972 5.34 27.437 16.613 44.572 15.192 23.09 37.382 43.323 60.506 55.17 11.57 5.927 21.375 9.358 30.424 10.646 16.458 2.343 27.798.458 37.416-6.216 2.52-1.75 6.895-3.905 9.719-4.79 7.341-2.3 21.083-10.024 30.629-17.214 10.85-8.174 33.43-30.176 40.107-39.082 11.678-15.577 20.197-31.936 24.264-46.6 1.454-5.242 1.802-10.274 1.799-26-.004-21.572-1.26-28.74-7.46-42.555-12.347-27.521-40.692-48.807-77.366-58.097-4.79-1.214-7.573-1.848-11.467-2.121zm-45.826 19.835c2.78.13 5.216.552 7.013 1.303 1.796.75 4.476 2.803 5.955 4.56 2.646 3.144 7.717 17.543 7.717 21.909 0 3.622 2.54 3.57 8.703-.182 7.152-4.353 15.898-6.95 23.797-7.064 14.575-.212 23.95 12.332 23.848 31.912-.043 8.281-2.82 16.343-7.934 23.043-4.057 5.316-4.35 7.457-1.02 7.457 4.718 0 15.385 4.052 20.053 7.617 9.845 7.517 17.185 23.92 14.61 32.65-3.489 11.826-24.554 23.676-47.488 26.713-4.363.578-8.11 1.23-8.329 1.448-.218.218.744 3.56 2.14 7.427 3.847 10.667 4.23 15.78 1.782 23.823-2.817 9.26-6.923 14.57-13.914 17.99-12.96 6.341-27.2 3.052-39.594-9.145-6.085-5.989-14.533-16.958-19.08-24.773-1.52-2.612-3.155-4.99-3.632-5.285-.478-.295-3.142.616-5.922 2.025-13.118 6.648-27.272 6.655-40.694.022-11.895-5.88-15.388-12.01-12.707-22.309 2.444-9.384 10.66-21.438 18.295-26.842 2.224-1.573 4.053-3.547 4.065-4.386.011-.84-2.831-3.68-6.317-6.313-12.626-9.538-20.985-22.083-21.097-31.662-.084-7.174 2.416-10.711 11.308-15.994 8.797-5.226 16.908-7.898 26.697-8.795 7.14-.654 7.904-.925 7.667-2.719-1.457-10.98-1.414-16.741.158-20.857 1.905-4.99 10.561-13.788 17.619-17.91 6.527-3.813 17.96-6.05 26.3-5.662z" fill="#162d50"/><path d="M330.246 460.156c-16.498.113-37.284 3.68-64.889 10.912-23.345 6.116-33.255 10.71-55.803 25.866-18.41 12.374-26.27 18.855-36.8 30.347-18.128 19.783-27.493 34.775-30.457 48.758-1.87 8.822-1.838 33.922.06 46.514 3.196 21.205 10.942 43.888 20.291 59.433 18.634 30.982 22.786 36.777 36.324 50.7 11.26 11.579 19.586 16.975 36.385 23.578 6.05 2.378 11.585 5.126 12.3 6.107 2.09 2.863 4.036 3.506 17.218 5.682 6.865 1.133 13.607 2.265 14.982 2.515 8.255 1.502 35.356-2.808 45.287-7.2 7.664-3.391 28.899-16.673 39.713-24.84 8.563-6.468 13.428-11.338 26.377-26.395 24.034-27.947 31.968-39.95 41.62-62.963 6.755-16.11 11.555-30.781 13.952-42.656 1.704-8.441 2.045-13.848 2.016-32-.04-24.946-1.132-33.068-6.031-44.87-4.92-11.848-8.995-18.18-16.787-26.078-15.309-15.515-42.521-31.004-70.147-39.925-7.357-2.376-15.713-3.552-25.611-3.485zm.611 17.614c12.135-.09 14.362.178 22.018 2.64 13.678 4.4 39.115 17.5 50.574 26.047 13.609 10.15 18.443 16.43 24.41 31.713l3.318 8.5.436 23.5c.391 21.153.22 24.536-1.703 33.863-3.35 16.242-11.885 38.94-21.043 55.967-6.96 12.938-29.25 41.493-43.203 55.346-7.641 7.586-21.857 17.903-35.807 25.988-11.424 6.621-15.319 8.202-25.29 10.262-9.56 1.974-9.446 1.98-10.21-.426-1.153-3.632-4.314-4.404-17-4.15-14.23.284-22.84-1.286-35.91-6.55-24.065-9.69-35.635-20.788-55.734-53.448-4.52-7.344-9.451-15.602-10.96-18.352-5.216-9.512-11.193-26.048-13.734-38-2.24-10.541-2.556-14.432-2.582-32-.027-18.551.138-20.414 2.264-25.738 3.364-8.424 14.112-23.026 27.656-37.57 13.458-14.453 47.804-36.972 66.738-43.756 8.25-2.957 43.849-11.416 52.762-12.54 5.225-.658 15.575-1.242 23-1.296zM277.717 218.17c-2.106 0-6.428 6.053-7.913 11.082-.884 2.997-3.918 24.302-3.939 27.668-.004.687.631 1.25 1.414 1.25 2.44 0 8.294-10.745 10.53-19.326 1.17-4.496 2.833-10.112 3.693-12.48 1.451-3.999 1.438-4.446-.196-6.25-.967-1.07-2.583-1.944-3.59-1.944zm37.486 10.45c-.741.078-1.582.376-2.59.85-1.791.845-4.943 1.848-7.006 2.23-2.062.381-3.75 1.267-3.75 1.97 0 .703 1.812 6.534 4.028 12.959 6.629 19.225 9.614 24.233 15.238 25.568 7.294 1.733 8.209.882 7.338-6.818-.927-8.188-5.027-24.705-7.528-30.326-2.189-4.922-3.507-6.669-5.73-6.434zM253.838 182.225c-3.3.102-6.642.639-8.6 1.568-3.644 1.73-7.38 6.163-7.38 8.756 0 2.484 5.685 4.79 16.5 6.691 5.5.967 10.45 1.638 11 1.492 1.046-.277 1.036-1.456-.083-10.71-.563-4.656-1.107-5.844-3.097-6.75-1.786-.814-5.041-1.15-8.34-1.047zM293.246 168.684c-1.527.303-3.388 1.427-6.26 3.507-7.672 5.558-10.623 16.23-6.904 24.979 2.351 5.533 9.314 13.637 15.015 17.477 4.757 3.203 5.875 3.523 12.284 3.523 4.918 0 8.85-.686 13.011-2.273 5.23-1.995 6.245-2.836 8.243-6.838 5.269-10.555 3.566-22.387-4.364-30.317-4.428-4.428-8.482-5.889-9.914-3.572-1.043 1.689-5.09 1.11-7-1-.995-1.1-3.03-2-4.521-2-1.49 0-3.894-.93-5.34-2.068-1.532-1.205-2.723-1.722-4.25-1.418zm51.611 26.236l-.012 3.375c-.007 1.856-.676 5.85-1.488 8.875-.812 3.025-1.481 5.822-1.488 6.215-.02 1.174 3.29 2.595 12.125 5.207 13.538 4.002 26.931 2.864 33.576-2.852 2.389-2.054 2.618-2.722 1.766-5.133-2.15-6.083-21.992-14.42-36.229-15.222l-8.25-.465zM351.26 142.52c-3.631-.41-6.734.29-10.122 2.007-6.167 3.126-17.28 13.17-17.28 15.618 0 .967 1.753 2.92 3.898 4.34 2.144 1.419 5.407 4.396 7.25 6.615 2.89 3.48 3.9 4.034 7.351 4.035 6.128 0 16.71-2.532 22.194-5.31 5.095-2.583 12.306-9.626 12.306-12.022 0-2.91-4.453-6.76-12.306-10.639-5.5-2.717-9.66-4.236-13.291-4.644zM266.525 123.428c-4.068.39-5.596 1.097-7.86 3.63-1.544 1.73-2.808 4.216-2.808 5.526 0 5.692 11.653 22.574 18.438 26.711 3.997 2.438 4.36 2.4 11.062-1.125 3.137-1.65 6.391-3 7.233-3 4.173 0-2.595-17.543-9.479-24.572-5.601-5.72-10.343-7.77-16.586-7.17z" fill="#162d50"/><path d="M303.857 94.84c-17.996-.046-25.548 1.526-39.615 8.246-31.065 14.84-48.072 35.178-56.512 67.584-1.688 6.481-2.077 10.943-2.05 23.5.065 30.816 7.066 47.75 26.33 63.687 4.316 3.571 7.847 6.819 7.847 7.217 0 .399 2.724 3.961 6.053 7.916 9.402 11.17 24.729 20.394 39.447 23.74 4.027.916 11.263 1.286 22 1.124 13.657-.206 17.684-.657 27.5-3.07 27.432-6.747 35.095-10.517 48.035-23.632 8.34-8.45 20.478-25.565 24.36-34.341 5.061-11.446 6.98-20.328 7.045-32.641.054-10.311-.212-12.12-2.573-17.5-1.448-3.3-3.41-9.6-4.361-14-4.458-20.635-14.226-35.052-35.006-51.668-15.63-12.498-28.048-19.09-44.215-23.473-8.427-2.284-11.796-2.657-24.285-2.69zm-34.295 15.494c8.84.512 15.141 3.579 22.596 11.002 6.528 6.5 12.677 18.27 14.672 28.084.65 3.2 1.707 5.75 2.383 5.75.667 0 3.362-2.556 5.988-5.68 2.626-3.123 7.396-7.783 10.601-10.355 14.613-11.728 26.12-12.868 43.633-4.328 16.696 8.14 23.55 18.939 18.975 29.89-1.863 4.46-10.104 12.693-15.414 15.403-2.276 1.16-4.138 2.665-4.137 3.341.001.677 3.562 2.486 7.912 4.022 15.246 5.384 24.586 13.56 25.795 22.576.759 5.655-.221 8.585-4.422 13.235-10.474 11.593-29.88 14.059-51.287 6.515-14.1-4.969-15-5.172-15-3.363 0 .82.92 3.568 2.043 6.11 1.124 2.54 3.42 10.585 5.102 17.876 4.46 19.338 3.454 28.698-3.582 33.309-5.193 3.402-18.422 2.393-24.985-1.906-5.457-3.576-9.465-10.42-15.013-25.633-1.795-4.92-3.72-8.6-4.58-8.752-.964-.17-2.597 2.112-4.653 6.504-3.491 7.458-10.004 15.498-14.396 17.77-9.18 4.746-18.942-2.779-18.934-14.598.008-12.361 3.517-31.11 7.156-38.245 1.103-2.16 1.63-4.26 1.172-4.668-.457-.407-4.205-1.267-8.33-1.91-19.223-2.995-27.987-9.309-27.996-20.168-.01-12.86 16.923-25.151 32.246-23.404 7.012.8 7.5-.487 2.12-5.594-5.007-4.751-12.867-16.917-14.917-23.088-3.761-11.325.713-21.354 12.01-26.916 5.74-2.825 7.194-3.13 13.242-2.779z" fill="#162d50"/><path d="M312.027 56.928c-2.856-.05-5.503.051-7.867.32-10.746 1.221-18.86 4.386-42.803 16.688-25.78 13.245-36.94 20.825-50.806 34.507-18.634 18.387-28.74 32.583-33.557 47.141-4.578 13.834-5.503 23.588-4.793 50.586 1.253 47.661 5.863 63.23 24.144 81.549 6.634 6.647 12.344 11.114 21.52 16.834 24.703 15.398 47.318 24.426 67.492 26.943 9.04 1.128 20.225.59 25-1.205 5.615-2.11 34.022-7.5 48.5-9.203 19.327-2.272 32.866-8.821 50.13-24.244 18.287-16.34 25.24-24.443 30.743-35.838 7.248-15.006 12.083-36.13 12.092-52.836.005-9.229-3.15-31.947-5.992-43.164-4.58-18.07-15.173-39.369-25.967-52.207-10.078-11.986-33.5-33.621-41.477-38.313-16.084-9.46-46.367-17.209-66.359-17.558zm-5.576 17.42c10.913-.866 25.362 1.268 43 6.375 10.144 2.937 18.557 6.95 25.275 12.058 8.033 6.107 22.119 19.459 29.815 28.262 29.747 34.026 38.755 94.516 19.771 132.768-4.104 8.27-5.779 10.36-17.297 21.59-20.7 20.183-31.721 26.474-50.158 28.63-5.225.611-14.2 1.974-19.943 3.028-6.973 1.28-11.223 1.618-12.793 1.021-1.784-.678-4.451-.08-11.057 2.473-9.661 3.735-17.45 4.764-27.207 3.596-17.964-2.153-34.312-8.855-59.41-24.358-11.509-7.109-17.978-12.646-23.943-20.5-10.18-13.402-12.64-27.03-12.645-70.057-.004-35.226 1.063-39.572 14.219-57.935 9.675-13.505 25.368-28.622 38.814-37.389 12.515-8.16 44.141-24.431 53.836-27.697 2.84-.956 6.085-1.577 9.723-1.865z" fill="#162d50"/></svg>