<svg xmlns:osb="http://www.openswatchbook.org/uri/2009/osb" xmlns="http://www.w3.org/2000/svg" height="956.929" width="551.725"><defs><linearGradient osb:paint="solid" id="c"><stop offset="0" stop-color="#fff"/></linearGradient><linearGradient osb:paint="solid" id="b"><stop offset="0"/></linearGradient><linearGradient osb:paint="solid" id="d"><stop offset="0" stop-color="#002b11"/></linearGradient><linearGradient osb:paint="solid" id="a"><stop offset="0" stop-color="#162d50"/></linearGradient><linearGradient osb:paint="solid" id="e"><stop offset="0" stop-color="#d40000"/></linearGradient></defs><path d="M547.121 39.688c-6.109 0-12.095.077-17.441.226-5.346.15-10.051.372-13.596.67-6.325.531-17.125 1.195-24 1.475-6.875.279-19.7 1.375-28.5 2.435s-21.694 2.41-28.654 3c-3.48.295-7.19.713-10.362 1.149-3.172.435-5.806.89-7.138 1.255-11.454 3.15-24.172 6.762-28.346 8.051-1.873.578-4.898 1.725-8.68 3.266-3.782 1.54-8.32 3.477-13.222 5.633-9.803 4.312-21.056 9.507-30.598 14.195-4.254 2.09-7.534 3.716-10.18 5.098-2.645 1.381-4.655 2.518-6.373 3.632a38.743 38.743 0 0 0-4.611 3.493c-1.47 1.288-2.987 2.775-4.89 4.68-2.463 2.462-4.63 4.892-6.565 7.41a61.007 61.007 0 0 0-5.182 7.931c-1.54 2.81-2.914 5.826-4.19 9.166-1.274 3.34-2.45 7.005-3.59 11.113-6.26 22.563-12.931 47.473-16.185 60.438-1.89 7.532-7.181 27.372-9.074 34.023-.856 3.01-1.587 6.04-2.21 9.237a132.66 132.66 0 0 0-1.563 10.238c-.425 3.678-.759 7.67-1.018 12.121-.259 4.451-.443 9.363-.57 14.88-.134 5.809-.15 12.554-.067 19.624.083 7.07.264 14.466.52 21.574.256 7.108.588 13.928.973 19.85.384 5.921.821 10.943 1.29 14.453 2.078 15.535 3.608 26.777 4.674 34.951 1.067 8.175 1.67 13.281 1.891 16.549.11 1.634.126 2.808.057 3.676-.07.867-.223 1.428-.452 1.836-.456.814-1.212 1.016-2.181 1.832l-3.166 2.662.57 18.246c.683 21.898 1.12 49.318 1.258 72.709.069 11.695.063 22.383-.025 30.87-.089 8.489-.26 14.776-.52 17.669-.593 6.6-1.563 21.45-2.156 33-.365 7.1-.827 13.323-1.399 18.783-.572 5.46-1.254 10.16-2.058 14.217-2.602 13.132-4.462 23.25-5.733 31.338-.635 4.044-1.123 7.582-1.484 10.734-.36 3.153-.594 5.921-.719 8.428-.287 5.775-.971 15-1.52 20.5-.547 5.5-1.905 21.7-3.017 36-1.112 14.3-2.523 31.4-3.135 38-.4 4.313-.717 8.966-.957 13.846-.24 4.88-.402 9.988-.49 15.216a607.817 607.817 0 0 0 .33 31.932c.385 10.54 1.035 20.684 1.916 29.56.44 4.439.94 8.561 1.492 12.256.553 3.696 1.16 6.964 1.817 9.698.924 3.844 1.905 7.174 3.033 10.134s2.404 5.55 3.922 7.915c1.517 2.363 3.274 4.502 5.365 6.556 2.09 2.055 4.515 4.026 7.363 6.059 1.76 1.256 4.405 2.821 7.55 4.513 3.143 1.693 6.785 3.51 10.54 5.276a250.169 250.169 0 0 0 11.217 4.951c3.593 1.475 6.912 2.714 9.57 3.535 4.676 1.444 10.106 3.414 16.979 6.186 6.873 2.771 15.19 6.345 25.638 11 6.892 3.07 12.862 5.608 18.305 7.73 5.444 2.122 10.362 3.826 15.15 5.233a145.356 145.356 0 0 0 14.376 3.437c4.927.924 10.123 1.667 15.984 2.342 2.773.32 6.334.561 10.336.723 4.002.161 8.446.243 12.988.246 4.542.003 9.182-.073 13.576-.229 4.394-.156 8.542-.391 12.1-.707 6.875-.61 17.225-1.942 23-2.96 8.432-1.488 15.965-2.672 24.123-3.757 8.158-1.084 16.942-2.07 27.877-3.158 11.275-1.122 21.625-2.247 23-2.5 14.514-2.667 26.479-4.916 36.607-6.914 10.129-1.998 18.422-3.745 25.594-5.406 7.172-1.66 13.222-3.235 18.867-4.889 5.645-1.654 10.885-3.388 16.432-5.367 10.45-3.728 24.958-8.635 32.238-10.906 3.64-1.136 8.067-2.728 12.266-4.377 4.199-1.65 8.17-3.356 10.9-4.723 4.525-2.265 7.055-3.609 8.705-4.904.825-.648 1.431-1.283 1.955-2.016.525-.733.967-1.563 1.47-2.6.605-1.25 1.312-3.421 1.964-5.912.652-2.49 1.25-5.3 1.635-7.828.917-6.032 2.701-23.212 4.414-41.506 1.712-18.293 3.354-37.7 3.982-48.185.544-9.075 1.405-21.225 1.914-27 .51-5.775 1.228-15.225 1.596-21 .368-5.775 1.55-16.35 2.625-23.5 1.075-7.15 2.65-17.725 3.5-23.5.302-2.053.56-4.695.787-8.367.227-3.672.424-8.375.602-14.541.354-12.334.635-30.53.941-58.092.407-36.574 1.018-69.643 1.684-93.822.333-12.09.68-21.958 1.021-28.93.342-6.972.678-11.049.992-11.557.2-.322.463-5.117.729-12.582.265-7.464.532-17.599.736-28.601.204-11.003.512-21.904.846-30.606.333-8.701.692-15.202.994-17.402.432-3.143.805-12.234 1.1-24.441.295-12.208.51-27.53.627-43.14.116-15.608.134-31.502.029-44.849-.105-13.346-.332-24.146-.7-29.566-.655-9.661-1.685-20.775-2.85-31.215-1.167-10.44-2.47-20.208-3.673-27.18-.408-2.368-.95-6.883-1.494-12.25a624.067 624.067 0 0 1-1.508-17.36c-.538-7.45-1.159-13.907-1.959-19.747s-1.777-11.063-3.029-16.05c-1.252-4.988-2.778-9.739-4.672-14.632-1.894-4.893-4.158-9.928-6.885-15.484a139.788 139.788 0 0 0-6.191-11.252c-2.195-3.59-4.487-6.974-6.77-10.01-2.283-3.036-4.557-5.726-6.718-7.93-2.161-2.203-4.208-3.919-6.037-5.01-1.44-.858-3.96-1.988-6.86-3.118-2.9-1.13-6.18-2.261-9.14-3.118-5.92-1.712-15.482-4.72-21.247-6.685-3.264-1.113-6.114-2-9.021-2.725-2.907-.724-5.871-1.285-9.367-1.746-3.496-.46-7.524-.82-12.555-1.142-5.03-.323-11.065-.606-18.576-.915-13.2-.541-30.075-1.382-37.5-1.869-4.52-.296-9.958-.517-15.791-.664a725.719 725.719 0 0 0-18.172-.218z" style="isolation:auto;mix-blend-mode:normal" color="#000" overflow="visible" fill="url(#c)" transform="translate(-224.137 -21.536)"/><path d="M547.594 21.535c-6.256-.002-12.511.076-17.688.233-5.176.157-9.274.393-11.213.71-3.24.531-14.265 1.248-24.5 1.592-5.117.172-11.231.55-16.96 1.018-5.73.469-11.074 1.03-14.649 1.568-7.15 1.078-19.105 2.373-26.568 2.88-6.99.473-13.42 1.206-18.893 2.132-2.737.463-5.234.974-7.443 1.525-2.21.552-4.132 1.143-5.715 1.766-1.991.783-7.78 2.4-12.863 3.594-2.78.652-6.09 1.657-9.963 3.031-3.874 1.374-8.314 3.116-13.352 5.24-5.038 2.125-10.675 4.633-16.947 7.537a1046.323 1046.323 0 0 0-20.756 9.922c-9.108 4.466-15.024 7.489-19.281 9.957-2.129 1.234-3.843 2.33-5.334 3.399a43.363 43.363 0 0 0-3.998 3.232c-3.104 2.82-6.117 6.042-8.942 9.51a104.691 104.691 0 0 0-7.816 10.99c-2.355 3.808-4.429 7.71-6.123 11.549a74.083 74.083 0 0 0-2.246 5.693 57.06 57.06 0 0 0-1.608 5.485c-1.847 7.805-7.976 30.4-11.638 42.906-1.611 5.5-3.43 12.7-4.043 16-.614 3.3-2.204 9.6-3.534 14-2.626 8.69-4.987 17.326-6.902 25.158-1.914 7.832-3.382 14.862-4.22 20.342-.403 2.63-.736 5.957-1.004 9.832-.269 3.874-.47 8.295-.61 13.115-.278 9.64-.303 20.872-.098 32.498.206 11.626.644 23.647 1.291 34.865.648 11.22 1.506 21.636 2.553 30.053.645 5.183.985 8.561 1.043 10.983.03 1.21-.013 2.181-.123 3.02-.11.837-.289 1.542-.533 2.218-.238.658-.416 1.855-.535 3.879-.12 2.023-.178 4.873-.178 8.836 0 7.925.236 20.3.711 39.42.727 29.31 1.109 56.592 1.14 78.326.017 10.867-.054 20.346-.214 27.998-.16 7.652-.408 13.477-.744 17.033-.543 5.733-1.436 18.888-1.985 29.234-.322 6.068-.786 11.851-1.365 17.102-.579 5.25-1.273 9.968-2.053 13.898-2.298 11.583-3.935 20.39-5.072 27.42-1.137 7.031-1.775 12.287-2.076 16.77-.333 4.95-1.471 18.9-2.531 31l-2.89 33c-.528 6.05-1.234 15.725-1.567 21.5-.334 5.775-1.253 16.899-2.041 24.72-.428 4.241-.755 8.281-.983 12.325a250.877 250.877 0 0 0-.39 12.344c-.033 4.252.034 8.71.195 13.578.16 4.867.417 10.144.767 16.033.75 12.585 1.39 22.508 2.053 30.576.664 8.069 1.35 14.282 2.19 19.445.42 2.582.877 4.902 1.39 7.059a73.374 73.374 0 0 0 1.72 6.088c1.279 3.869 2.84 7.494 4.82 11.68.94 1.989 2.108 3.96 3.497 5.908 1.39 1.948 3 3.873 4.828 5.771a69.712 69.712 0 0 0 6.125 5.612 94.079 94.079 0 0 0 7.387 5.43 124.858 124.858 0 0 0 8.615 5.222 161.955 161.955 0 0 0 9.805 4.994 205.39 205.39 0 0 0 10.963 4.742 254.46 254.46 0 0 0 12.084 4.467c7.124 2.437 12.738 4.486 19.014 7.025 6.276 2.54 13.214 5.57 22.986 9.97 7.568 3.407 14.096 6.195 20.11 8.507 6.012 2.312 11.51 4.15 17.019 5.654 5.508 1.505 11.026 2.675 17.08 3.659 6.053.983 12.642 1.778 20.29 2.527 4.501.44 9.956.641 16.03.623 6.074-.019 12.766-.256 19.74-.692a436.174 436.174 0 0 0 21.432-1.878c7.201-.81 14.348-1.798 21.104-2.942 4.179-.707 11.094-1.677 18.869-2.672 7.775-.994 16.41-2.013 24.027-2.814a1027.59 1027.59 0 0 0 21.707-2.514c6.344-.81 11.286-1.526 13.293-1.953 4.015-.854 16.524-3.342 27.799-5.527 15.78-3.059 26.36-5.254 34.893-7.364a221.597 221.597 0 0 0 11.658-3.197 237.641 237.641 0 0 0 10.949-3.654c7.7-2.759 22.55-7.814 33-11.233 7.334-2.399 13.615-4.614 19.002-6.728 5.386-2.115 9.878-4.13 13.633-6.127a65.254 65.254 0 0 0 5.1-2.994 43.038 43.038 0 0 0 4.113-3.031 30.93 30.93 0 0 0 3.242-3.135 25.575 25.575 0 0 0 2.494-3.297c1.453-2.29 2.616-4.396 3.605-6.912.99-2.517 1.803-5.445 2.555-9.377.752-3.933 1.444-8.87 2.188-15.408.743-6.538 1.538-14.677 2.5-25.01.614-6.6 1.803-18.75 2.642-27 .84-8.25 1.925-22.2 2.41-31 .896-16.227 2.158-33.002 3.51-47.395.676-7.196 1.375-13.797 2.063-19.437.687-5.64 1.362-10.317 1.992-13.668.736-3.918 1.33-7.937 1.818-13.05.49-5.115.874-11.323 1.192-19.622.318-8.299.57-18.687.793-32.16.223-13.473.418-30.031.623-50.668.277-27.95.59-49.926.931-65.615.342-15.69.713-25.09 1.106-27.885.328-2.338.72-8.682 1.088-17.02.367-8.337.71-18.668.941-28.98.418-18.718.909-34.233 1.557-48.373a1183.94 1183.94 0 0 1 2.5-40.127c.32-4.055.52-12.905.615-24.233.094-11.327.083-25.13-.016-39.095s-.287-28.09-.547-40.057c-.26-11.968-.59-21.779-.978-27.115-.496-6.822-1.553-16.792-2.729-26.322-1.175-9.53-2.47-18.62-3.44-23.678-.58-3.025-1.732-15.175-2.562-27-.404-5.757-.872-10.99-1.43-15.834-.557-4.843-1.203-9.296-1.962-13.492a153.272 153.272 0 0 0-2.639-11.955 144.24 144.24 0 0 0-3.463-11.213 164.242 164.242 0 0 0-4.02-10.262 173.224 173.224 0 0 0-9.845-19.398 155.672 155.672 0 0 0-5.564-8.758 130.903 130.903 0 0 0-5.82-7.877 100.638 100.638 0 0 0-5.946-6.809c-1.989-2.07-3.978-3.93-5.943-5.549-1.966-1.618-3.91-2.995-5.809-4.1-1.238-.719-3.762-1.78-6.832-2.913a159.63 159.63 0 0 0-10.106-3.336c-6.84-2-13.317-4.106-14.392-4.682-1.145-.613-3.151-1.352-5.66-2.13-2.51-.78-5.52-1.598-8.678-2.368a193.47 193.47 0 0 0-9.55-2.08c-3.092-.587-5.972-1.04-8.282-1.27-5.5-.547-22.825-1.441-38.5-1.986-7.838-.272-15.646-.633-21.914-.994-6.268-.36-10.996-.721-12.668-.996-1.942-.32-6.041-.56-11.219-.72-5.177-.162-11.433-.244-17.69-.247zm-.473 18.152c6.109 0 12.339.072 18.172.22 5.833.146 11.27.367 15.791.663 7.425.487 24.3 1.328 37.5 1.87 7.511.308 13.545.591 18.576.914 5.03.322 9.059.681 12.555 1.142 3.496.46 6.46 1.022 9.367 1.746 2.907.724 5.757 1.612 9.022 2.725 5.764 1.964 15.325 4.973 21.246 6.685 2.96.857 6.24 1.987 9.14 3.118 2.9 1.13 5.42 2.26 6.86 3.119 1.829 1.09 3.876 2.806 6.037 5.01 2.16 2.203 4.435 4.893 6.718 7.93 2.284 3.035 4.575 6.419 6.77 10.009a139.788 139.788 0 0 1 6.191 11.252c2.727 5.556 4.99 10.591 6.885 15.484 1.895 4.893 3.42 9.644 4.672 14.631 1.252 4.988 2.23 10.21 3.03 16.05.8 5.841 1.42 12.298 1.958 19.749.417 5.775.964 11.993 1.508 17.36.544 5.366 1.086 9.881 1.494 12.25 1.203 6.971 2.506 16.739 3.672 27.179 1.166 10.44 2.196 21.554 2.852 31.215.368 5.42.594 16.22.699 29.566.105 13.347.087 29.241-.03 44.85-.116 15.609-.331 30.931-.626 43.138-.295 12.208-.668 21.3-1.1 24.442-.302 2.2-.66 8.701-.994 17.402-.334 8.702-.642 19.603-.846 30.606-.203 11.002-.47 21.137-.736 28.601-.266 7.465-.53 12.26-.729 12.582-.314.508-.65 4.585-.992 11.557-.342 6.972-.688 16.84-1.021 28.93-.666 24.18-1.277 57.248-1.684 93.822-.306 27.561-.586 45.758-.941 58.092-.178 6.166-.375 10.869-.602 14.54-.227 3.673-.485 6.315-.787 8.368-.85 5.775-2.425 16.35-3.5 23.5-1.075 7.15-2.257 17.725-2.625 23.5a1052.816 1052.816 0 0 1-1.596 21c-.509 5.775-1.37 17.925-1.914 27-.628 10.485-2.27 29.892-3.982 48.185-1.713 18.294-3.497 35.474-4.414 41.506a79.012 79.012 0 0 1-1.635 7.828c-.652 2.49-1.36 4.662-1.965 5.913-.502 1.036-.944 1.866-1.469 2.6-.524.732-1.13 1.367-1.955 2.015-1.65 1.295-4.18 2.639-8.705 4.904-2.73 1.367-6.701 3.073-10.9 4.723-4.199 1.65-8.625 3.241-12.266 4.377-7.28 2.27-21.788 7.178-32.238 10.906-5.547 1.979-10.787 3.713-16.432 5.367-5.645 1.654-11.695 3.228-18.867 4.889-7.172 1.66-15.465 3.408-25.594 5.406-10.128 1.998-22.093 4.247-36.607 6.914-1.375.253-11.725 1.378-23 2.5-10.935 1.088-19.719 2.074-27.877 3.158-8.158 1.085-15.691 2.27-24.123 3.756-5.775 1.019-16.125 2.352-23 2.961-3.558.316-7.706.551-12.1.707-4.394.156-9.034.232-13.576.229a332.948 332.948 0 0 1-12.988-.246c-4.002-.162-7.563-.404-10.336-.723-5.86-.675-11.057-1.418-15.984-2.342a145.356 145.356 0 0 1-14.375-3.437c-4.79-1.407-9.707-3.111-15.15-5.233-5.444-2.122-11.414-4.66-18.305-7.73-10.45-4.655-18.766-8.229-25.64-11-6.872-2.772-12.302-4.742-16.978-6.186-2.658-.82-5.977-2.06-9.57-3.535a250.169 250.169 0 0 1-11.217-4.951c-3.755-1.765-7.397-3.583-10.54-5.276-3.145-1.692-5.79-3.257-7.55-4.513-2.848-2.033-5.272-4.004-7.363-6.059-2.09-2.054-3.848-4.193-5.365-6.556-1.517-2.364-2.794-4.954-3.922-7.915-1.128-2.96-2.11-6.29-3.033-10.134-.657-2.734-1.264-6.002-1.817-9.698-.552-3.695-1.051-7.817-1.492-12.255-.881-8.877-1.531-19.021-1.916-29.561a607.795 607.795 0 0 1-.33-31.932c.088-5.228.25-10.336.49-15.216.24-4.88.558-9.533.957-13.846.612-6.6 2.023-23.7 3.135-38 1.112-14.3 2.47-30.5 3.018-36 .548-5.5 1.232-14.725 1.52-20.5.124-2.507.357-5.275.718-8.428.36-3.152.849-6.69 1.484-10.734 1.271-8.089 3.131-18.206 5.733-31.338.804-4.058 1.486-8.756 2.058-14.217.573-5.46 1.034-11.682 1.399-18.783.593-11.55 1.563-26.4 2.156-33 .26-2.893.431-9.18.52-17.668.088-8.488.094-19.176.025-30.871-.138-23.391-.575-50.811-1.258-72.71l-.57-18.245 3.166-2.662c.97-.816 1.725-1.018 2.182-1.832.228-.408.381-.969.45-1.836.07-.868.055-2.042-.056-3.676-.221-3.268-.824-8.374-1.89-16.549-1.067-8.174-2.597-19.416-4.674-34.951-.47-3.51-.907-8.532-1.291-14.453-.385-5.922-.717-12.742-.973-19.85a903.058 903.058 0 0 1-.52-21.574c-.082-7.07-.067-13.815.067-19.623.127-5.518.311-10.43.57-14.881.26-4.451.593-8.443 1.018-12.121.424-3.678.939-7.041 1.562-10.238a111.343 111.343 0 0 1 2.211-9.237c1.893-6.651 7.184-26.49 9.074-34.023 3.254-12.965 9.925-37.875 16.186-60.438 1.14-4.108 2.315-7.773 3.59-11.113s2.649-6.356 4.19-9.166a61.007 61.007 0 0 1 5.18-7.932c1.937-2.517 4.104-4.947 6.565-7.41 1.904-1.904 3.42-3.39 4.891-4.68a38.743 38.743 0 0 1 4.611-3.492c1.718-1.114 3.728-2.251 6.373-3.632 2.646-1.382 5.926-3.008 10.18-5.098 9.542-4.688 20.795-9.883 30.598-14.195 4.901-2.156 9.44-4.092 13.222-5.633 3.782-1.541 6.808-2.688 8.68-3.266 4.174-1.289 16.892-4.9 28.346-8.05 1.332-.367 3.967-.82 7.138-1.256 3.172-.436 6.881-.854 10.362-1.149 6.96-.59 19.854-1.94 28.654-3s21.625-2.156 28.5-2.435c6.875-.28 17.675-.944 24-1.475 3.545-.298 8.25-.52 13.596-.67a641.63 641.63 0 0 1 17.441-.227z" style="isolation:auto;mix-blend-mode:normal" color="#000" overflow="visible" fill="url(#b)" transform="translate(-224.137 -21.536)"/><path d="M356.242 695.627c-21.073-.176-32.93 2.474-50.828 10.957-21.801 10.334-31.3 17.53-36.695 27.797-5.52 10.505-4.695 17.318 3.047 25.123 1.364 1.375 3.468 4.075 4.675 6 1.208 1.925 4.435 4.98 7.17 6.793 6.403 4.241 15.391 13.03 16.063 15.705.287 1.143.078 3.248-.465 4.676-.849 2.232-1.905 2.756-7.533 3.736-19.1 3.326-30.592 13.242-30.592 26.4 0 9.312 6.921 16.491 19.822 20.563 5.172 1.632 7.178 2.738 7.178 3.953 0 4.332-2.377 8.89-7.37 14.123-10.248 10.745-10.036 20.945.643 30.75 9.544 8.762 26.447 15.05 46.457 17.283 5.374.6 12.92 1.482 16.77 1.961 3.85.48 18.7.788 33 .684 24.3-.177 26.365-.335 31.58-2.416 11.298-4.51 17.877-12.868 17.877-22.711 0-10.623-3.37-14.26-45.715-49.344-2.883-2.389-5.242-4.74-5.242-5.224 0-.485 3.712-2.73 8.25-4.989 9.27-4.616 11.956-6.513 23.021-16.252 9.668-8.508 12.846-14.216 13.504-24.248.49-7.477-1.267-12.87-5.421-16.627-2.504-2.263-12.057-6.646-16.213-7.44l-3.36-.642 4.86-2.052c11.183-4.727 16.109-9.806 18.418-18.99 1.021-4.064.942-5.789-.51-11.155-3.337-12.326-14.544-22.612-32.877-30.174-9.08-3.745-9.33-3.786-25.172-4.168-1.491-.036-2.937-.06-4.342-.072zm13.418 29.377l7.713 3.803c4.242 2.092 7.711 4.19 7.711 4.66 0 .47-3.263 1.4-7.25 2.066-8.944 1.495-14.398 4.162-16.582 8.108-3.495 6.313-3.433 6.279-7.227 3.966-11.863-7.232-25.953 5.213-20.912 18.471.811 2.134.685 3.083-.595 4.498-.893.987-2.17 3.386-2.838 5.33l-1.215 3.535-1.332-3.718c-.732-2.046-2.61-5.59-4.172-7.875-3.319-4.854-14.524-15.249-20.625-19.137-2.337-1.489-4.25-2.998-4.25-3.354-.003-1.154 9.29-6.644 19.152-11.316 14.434-6.837 22.726-8.736 38.885-8.9l13.537-.137zm-38.803 63.658a.458.458 0 0 1 .268.088c.257.166.567.552.977 1.08 1.002 1.293 1.942 5.005 2.324 9.174.352 3.85.92 8.844 1.262 11.1.49 3.234.279 4.23-.993 4.718-1.198.46-1.611.02-1.611-1.71 0-1.282-1.165-4.048-2.59-6.147-2.558-3.77-2.574-3.912-1.332-11.56.803-4.947 1.114-6.712 1.695-6.743zm53.602 1.842l-2.824 2.947c-1.554 1.622-5.867 4.548-9.582 6.5-7.6 3.994-7.969 3.813-7.969-3.89v-4.28l5.25-.63c2.887-.347 7.472-.634 10.187-.64l4.938-.007zm-37.53 52.26l4.329 6.414c3.025 4.483 7.637 9.082 15.326 15.281 6.05 4.878 13.25 10.914 16 13.412l5 4.543-18.5-.086c-18.009-.082-25.023-.567-41.463-2.875-6.676-.937-16.173-3.38-17.353-4.46-.175-.16.83-2.557 2.232-5.325 1.878-3.707 5.584-18.756 5.584-22.678 0-.138 3.487-.576 7.75-.972 4.262-.397 10.754-1.29 14.424-1.987l6.672-1.267zM409.41 108.521c-12.232.186-25.273 1.835-38.387 5.038-20.278 4.951-32.092 10.44-40.142 18.648-6.903 7.039-9.222 12.884-9.242 23.297-.016 7.762.276 9.04 3.347 14.736 4.17 7.732 11.017 14.248 19.28 18.35 3.864 1.918 7.103 4.356 8.338 6.275 1.11 1.726 3.738 4.039 5.84 5.139 3.233 1.693 6.475 5.417 6.605 7.59.02.325-1.857 1.16-4.172 1.853-5.534 1.658-13.644 6.908-17.236 11.157-8.474 10.021-10.672 25.07-5.268 36.076 3.225 6.568 12.496 15.68 19.547 19.213 2.565 1.285 7.093 2.908 10.06 3.607l5.397 1.271-.604 11.26c-.527 9.844-.923 11.728-3.146 15.004-1.398 2.06-2.543 4.088-2.543 4.504 0 .416-4.388 2.433-9.75 4.48-19.997 7.637-22.89 9.503-26.354 16.985-3.422 7.393-1.6 17.668 4.563 25.74 3.991 5.228 13.975 12.259 19.527 13.754 5.833 1.57 24.285 4.062 36.514 4.93 15.987 1.134 46.093 1.213 52.664.136 12.3-2.014 27.694-10.167 37.191-19.693 6.633-6.652 8.645-10.924 8.645-18.35 0-12.87-8.685-24.583-23.412-31.574-11.367-5.395-19.917-16.393-25.057-32.232-2.005-6.178-1.655-7.713 1.963-8.621 5.56-1.396 29.676-11.436 33.424-13.916 6.201-4.104 9.36-8.966 9.877-15.201.584-7.043-.165-9.688-3.969-14.02-4.061-4.626-10.675-7.929-21.23-10.602l-8.463-2.142 3.85-7.606c2.117-4.182 4.867-11.35 6.11-15.927 2.098-7.722 2.578-8.54 6.618-11.32 6.48-4.459 9.412-9.515 10.037-17.301 1.052-13.112-3.505-26.25-11.797-34.006-11.09-10.374-30.602-16.081-53.433-16.522a151.328 151.328 0 0 0-5.192-.01zm241.53 2c-22.324.031-43.217 4.108-57.856 11.291-8.373 4.109-18.38 13.791-19.895 19.249-2.939 10.586-.293 18.595 9.196 27.835 10.25 9.983 10.699 11.173 10.697 28.415v14.693l-5.992 1.76c-7.896 2.32-13.872 8.012-17.053 16.24-3.316 8.577-3.408 24.957-.2 35.162 3.096 9.842 9.33 18.804 16.929 24.338l6.18 4.5.07 12.203c.066 11.555-.052 12.287-2.182 13.8-1.238.88-6.75 4.762-12.25 8.624-12.743 8.948-14.987 11.124-18.166 17.621-2.24 4.58-2.531 6.237-2.115 12.031.615 8.569 3.027 13.258 10.426 20.264 9.664 9.151 20.599 14.072 42.937 19.322 10.405 2.446 20.043 4.68 21.418 4.967 5.025 1.045 33.614-.175 41.49-1.772 24.678-5.001 35.547-11.239 40.026-22.964 1.256-3.29 1.604-6.156 1.209-9.989-.923-8.943-4.78-15.417-16.788-28.175-9.087-9.657-11.742-13.23-15.601-21.004-4.4-8.865-4.655-9.83-4.742-17.963l-.094-8.596 7-2.44c11.885-4.14 30.142-13.478 33.906-17.341 3.763-3.862 6.594-9.6 6.594-13.362 0-1.284-1.114-4.57-2.475-7.3-4.38-8.79-16.24-14.813-34.388-17.467l-8.137-1.19-.004-8.634c-.008-15.754 2.222-39.135 3.732-39.135 2.593 0 9.042-3.937 11.807-7.207 1.532-1.812 3.943-5.768 5.358-8.793 2.19-4.683 2.574-6.911 2.59-15 .016-8.7-.254-10.047-3.198-16-4.079-8.247-12.827-18.024-19.564-21.863-8.16-4.65-15.685-6.14-30.866-6.12zm-241.772 28.172c10.57.011 21.973.852 26.506 2.237 6.442 1.968 11.429 5.312 13.385 8.974 1.352 2.534 1.355 2.918.025 3.383-.825.289-3.138 2.153-5.14 4.143-3.017 2.998-4.35 5.838-7.776 16.556-3.635 11.37-7.033 18.881-13.62 30.102-.995 1.697-3.407 3.947-5.357 5-5.733 3.097-8.248 7.769-8.015 14.89.147 4.498-1.76 22.179-2.496 23.15-.053.07-1.109.437-2.346.817-2.248.691-2.249.684-2.264-11.625-.017-14.213-1.42-21.44-6.66-34.316-4.426-10.874-10.101-20.155-15.113-24.713-2.042-1.857-4.921-4.978-6.4-6.936-2.735-3.62-5.165-4.957-12.313-6.779-4.728-1.205-10.782-6.366-10.314-8.793.899-4.67 24.465-13.085 43.08-15.383 2.89-.356 6.485-.571 10.361-.66a188.17 188.17 0 0 1 4.457-.047zm243.27 1.592c3.043-.01 5.665.098 7.482.344 5.068.687 6.165 1.293 10.414 5.746 3.085 3.234 4.75 5.86 4.75 7.492 0 3.8-5.053 11.362-8 11.973-4.434.92-9.442 5.05-11.748 9.691-2.074 4.174-2.3 6.385-2.904 28.535l-.655 24.012-6.097-.342c-7.445-.417-11.518 1.734-14.555 7.688-2.62 5.137-2.556 8.608.252 13.58 2.402 4.252 6.453 6.823 13.457 8.537l4.25 1.04v5.845c0 5.21-.245 5.911-2.25 6.469-3.143.873-19.877 1.623-22 .986-1.585-.476-1.745-2.239-1.713-18.701.027-13.872.372-18.768 1.463-20.676.786-1.375 1.43-3.85 1.43-5.5s-.644-4.125-1.43-5.5c-1.098-1.921-1.436-6.936-1.463-21.662-.055-29.79-2.819-40.564-11.934-46.526-2.786-1.822-5.073-3.619-5.083-3.992-.026-.975 10.266-4.684 17.931-6.463 6.347-1.473 19.272-2.547 28.403-2.576zM371.2 237.86c1.37.094 1.883 2.047 1.883 6.203 0 6.278-.894 6.7-5.158 2.436-3.387-3.387-3.327-4.542.373-7.305.898-.67 1.644-1.097 2.262-1.261.231-.062.445-.086.64-.073zm38.426 40.055c1.422.058 1.767 1.155 2.982 5.375 2.289 7.944 8.409 20.747 13.541 28.332 6.714 9.922 14.31 16.796 24.364 22.041l8.927 4.658-4.878 3.096c-2.684 1.702-7.282 3.992-10.217 5.09-4.761 1.781-7.57 1.981-26.05 1.848-11.391-.083-22.062-.299-23.712-.48-1.65-.183-7.5-.827-13-1.433-14.638-1.61-14.845-1.758-6.838-4.873 10.295-4.005 15.676-8.096 18.738-14.242 1.43-2.87 2.6-6.858 2.6-8.865 0-2.375.696-4.278 1.994-5.453 3.039-2.75 3.996-7.834 4.002-21.287.004-8.951.343-12.384 1.254-12.662.687-.21 2.687-.63 4.441-.932.786-.135 1.378-.232 1.852-.213zm238.326 22.86a.722.722 0 0 1 .36.035c.633.25.775 1.642.783 5.337.014 6.96 1.6 13.28 5.789 23.079 4.068 9.516 9.564 17.462 19.799 28.619 4.62 5.037 8.4 9.424 8.4 9.75 0 .948-6.791 2.715-16.5 4.293-15.1 2.453-22.007 2.59-31.5.619-21.563-4.478-31.883-7.359-38.129-10.64-3.779-1.987-6.862-3.893-6.851-4.237.01-.345 3.676-3.1 8.146-6.125 13.104-8.868 17.272-12.552 20.12-17.783 2.933-5.39 4.663-14.775 4.694-25.467l.02-6.75h11.418c6.28 0 12.13-.274 13-.608.166-.063.316-.106.451-.123zM512.5 378.124l89.063 32.813-89.063-32.813zM643.031 681.557c-2.41.014-5.413.103-9.42.22-14.341.42-16.973.781-25.027 3.434-11.133 3.666-15.869 6.055-25.752 12.992-7.882 5.533-15.346 13.633-18.8 20.404-4.66 9.134-2.947 22.039 4.501 33.897l3.455 5.5-6.797.633c-18.79 1.753-30.666 10.239-31.87 22.773-.94 9.782 4.261 17.528 17.16 25.55 7.51 4.672 21.041 10.821 26.404 11.999 2.674.587 3.199 1.165 3.199 3.516 0 3.807-1.481 4.103-25 5.01-26.986 1.04-37.48 3.654-45.045 11.218-5.183 5.183-7.29 10.953-6.451 17.67 1.875 15.013 14.245 37.083 25.728 45.904 6.612 5.08 24.747 14.705 33.575 17.82 6.443 2.275 7.78 2.364 35.693 2.376 33.569.014 52.725-1.13 67.5-4.036 18.747-3.685 33.889-9.896 40.69-16.69 5.915-5.912 7.644-16.937 3.798-24.21-3.653-6.907-15.372-15.89-31.988-24.52-6.05-3.141-11.563-6.173-12.25-6.736-.802-.656-1.25-3.758-1.248-8.65l.002-7.627 10.248-.29c11.839-.332 19.494-2.023 29.03-6.413 11.09-5.106 15.967-12.335 14.304-21.197-1.386-7.386-7.363-11.442-24.211-16.434-5.431-1.61-12.237-3.248-15.125-3.64l-5.25-.716v-8.585l6.367-1.202c15.157-2.86 24.687-13.28 26.23-28.681.772-7.697-1.654-18.97-5.519-25.647-8.205-14.174-24.453-26.916-41.556-32.588-7.477-2.479-9.346-3.098-16.575-3.054zm-7.677 29.947c16.041 0 24.755 3.833 35.982 15.836 6.34 6.778 7.855 15.164 2.74 15.164-3.448 0-10.052 3.94-11.824 7.055-1.26 2.214-2.402 2.933-4.668 2.941-4.332.015-9.11 3.318-11.459 7.924-1.648 3.23-2.041 5.908-2.041 13.914 0 6.256-.553 11.483-1.5 14.166-.825 2.338-1.5 5.32-1.5 6.625 0 2.615-1.3 2.745-14.416 1.455-5.303-.522-5.736-.728-4.184-2.008 4.982-4.105 6.13-13.47 2.35-19.176-1.238-1.868-4.11-4.296-6.383-5.396l-4.133-2-.367-12c-.414-13.538-1.758-17.16-7.92-21.322-2.75-1.858-4.505-2.263-8.687-2.004-3.424.212-5.4-.092-5.7-.877-.55-1.438 8.143-9.46 13.866-12.793 8.541-4.977 18.594-7.504 29.844-7.504zM608.86 824.238l3.362.578c1.848.318 6.511.855 10.361 1.194 3.85.338 8.237.847 9.75 1.133l2.75.52v11.382c0 20.173 4.657 26.946 26.82 39.012 7.898 4.299 11.975 7.052 11.358 7.67-1.694 1.693-26.177 5.65-41.678 6.738-16.175 1.134-49.493 1.207-56 .12-6.302-1.05-24.37-10.945-29.52-16.163-4.064-4.12-11.733-16.5-10.798-17.434 1.035-1.035 19.868-2.424 41.086-3.031 21.504-.615 24.168-.882 27.992-2.816 3.331-1.685 4.64-3.151 6.181-6.92 1.738-4.247 1.81-5.254.657-9-.715-2.32-1.528-6.19-1.809-8.6l-.512-4.383z" fill="url(#d)" transform="translate(-224.137 -21.536)"/><path d="M495.578 402.889c-12.488-.003-25.145.594-30.527 1.797-16.457 3.676-28.957 10.643-39.62 22.082-7.997 8.58-10.726 15.222-10.779 26.236-.063 13.388 5.78 21.795 17.133 24.654l4.299 1.082v9.881c0 8.978-.17 9.883-1.865 9.883-3.54 0-15.928 7.028-19.65 11.148-7.799 8.632-10.941 19.95-7.999 28.809 3.435 10.34 18.67 22.895 30.016 24.736l3.498.567v40.648l-3.75.615c-38.989 6.405-53.015 14.425-54.064 30.912-.308 4.828.1 7.354 1.834 11.385 3.852 8.957 21.007 23.079 34.882 28.717 9.13 3.71 44.117 14.282 49.598 14.986 2.75.354 8.825 1.335 13.5 2.182 4.675.847 11.875 1.872 16 2.277 13.83 1.359 32.415-1.131 41.035-5.5 13.475-6.828 18.366-20.261 12.815-35.195-4.251-11.436-22.961-39.832-29.829-45.271-4.578-3.627-4.806-4.95-2.474-14.311.85-3.413 2.555-13.798 3.789-23.076l2.244-16.87 6.227-2.341c20.493-7.704 30.406-18.53 28.867-31.526-.332-2.8-1.407-6.336-2.389-7.859-5.056-7.838-16.733-17.978-25.142-21.828l-5.373-2.459.578-4.623c1.86-14.907 1.221-13.615 7.69-15.553 7.04-2.109 20.255-9.492 24.698-13.799a20.024 20.024 0 0 0 5.96-16.71c-.837-7.062-3.654-11.858-10.995-18.725-6.937-6.49-17.742-11.817-30.701-15.139-4.701-1.205-17.018-1.81-29.506-1.812zm-.994 29.615c17.482 0 28.014 1.583 35.06 5.275 2.597 1.36 2.555 1.396-3.716 3.004-3.489.895-7.785 1.904-9.547 2.242-6.687 1.286-11.287 7.257-11.309 14.678-.008 2.772-1.074 6.394-3 10.192-2.182 4.303-2.988 7.295-2.988 11.109v5.22l-9.498-.497c-10.575-.554-16.416.926-20.402 5.17-1.212 1.289-2.59 3.642-3.065 5.226-.57 1.907-.892-2.731-.95-13.72-.048-9.507-.57-18.054-1.222-20-2.648-7.91-9.896-13.69-15.781-12.585-2.364.444-2.246.192 1.418-3.005 11.061-9.653 20.775-12.31 45-12.31zm-26.201 76.16l2.894 2.139c2.378 1.757 4.9 2.262 14.102 2.818 6.163.372 11.336.723 11.494.78.158.056.158 4.265 0 9.353l-.289 9.25-4.904 1.209c-2.698.666-8.66 1.516-13.25 1.889l-8.346.675-.043-9.886c-.024-5.439-.407-11.764-.852-14.057l-.806-4.17zm-28.549 19.049c.23.126.25.783.25 2.076 0 3.061.04 3.025-2 1.734-1.312-.83-1.28-1.168.25-2.699.833-.833 1.27-1.237 1.5-1.111zm54.545 36.478l-.713 6.407c-.392 3.523-1.645 10.456-2.785 15.406-1.234 5.357-2.117 12.845-2.184 18.5-.144 12.253 2.397 18.288 10.676 25.361 5.475 4.678 14.144 16.41 20.65 27.947 1.802 3.196 3.08 6.004 2.842 6.243-.238.238-2.823.887-5.744 1.441-7.611 1.444-13.573 1.127-30.537-1.619-22.811-3.693-55.9-14.113-65.26-20.553l-4.66-3.207 2.961-1.199c3.173-1.285 12.61-3.192 29.459-5.953 11.682-1.915 17.104-4.162 19.736-8.182 1.604-2.45 1.733-5.268 1.405-30.988l-.362-28.291h7.471c4.11 0 9.625-.296 12.258-.656l4.787-.657z" fill="url(#e)" transform="translate(-224.137 -21.536)"/></svg>