<svg xmlns:osb="http://www.openswatchbook.org/uri/2009/osb" xmlns="http://www.w3.org/2000/svg" height="929.418" width="567.661"><defs><linearGradient osb:paint="solid" id="c"><stop offset="0" stop-color="#fff"/></linearGradient><linearGradient osb:paint="solid" id="b"><stop offset="0"/></linearGradient><linearGradient osb:paint="solid" id="d"><stop offset="0" stop-color="#002b11"/></linearGradient><linearGradient osb:paint="solid" id="a"><stop offset="0" stop-color="#162d50"/></linearGradient></defs><path d="M649.883 52.975c-10.486-.11-25.39-.073-45.961.103-27.74.237-42.214.38-51.809.78-4.797.2-8.375.464-11.781.835-3.406.372-6.642.85-10.754 1.48-9.35 1.434-19.25 2.616-22 2.626-1.375.005-3.243.175-5.146.445s-3.841.641-5.354 1.047c-3.025.811-12.25 2.406-20.5 3.545-8.25 1.139-18.825 2.901-23.5 3.916-23.494 5.1-29.989 6.421-35.5 7.219-3.3.477-10.5 1.95-16 3.273-5.5 1.323-14.95 3.359-21 4.522-6.05 1.163-13.7 2.978-17 4.033-3.3 1.055-9.15 2.81-13 3.902-4.708 1.335-8.455 2.44-11.75 3.56s-6.138 2.257-9.04 3.653c-2.904 1.397-5.866 3.053-9.397 5.217-3.532 2.164-7.633 4.834-12.813 8.256-8.217 5.428-14.685 9.842-19.892 13.793-2.604 1.975-4.89 3.835-6.924 5.646-2.034 1.812-3.815 3.576-5.4 5.361a49.218 49.218 0 0 0-4.237 5.487 53.5 53.5 0 0 0-3.443 6.025c-1.056 2.144-2.037 4.445-3.01 6.973-.973 2.528-1.935 5.284-2.947 8.334-1.424 4.29-2.634 8.375-3.64 12.303a132.712 132.712 0 0 0-2.405 11.355 105.758 105.758 0 0 0-1.221 10.69 95.489 95.489 0 0 0-.082 10.306c.304 6.576 1.15 17.871 2.033 28.055.884 10.184 1.805 19.255 2.256 21.383.327 1.543.987 14.593 1.465 29 .478 14.407 1.352 37.182 1.943 50.613.347 7.887.573 19.284.69 32.144a2722.2 2722.2 0 0 1 .037 40.92c-.088 13.738-.27 26.89-.535 37.409-.266 10.518-.614 18.403-1.032 21.607-.92 7.06-1.636 12.84-2.203 18.232a326.192 326.192 0 0 0-1.297 15.913c-.315 5.514-.53 11.539-.695 18.966-.166 7.428-.283 16.258-.402 27.389-.225 21.013-.403 32.913-.813 41.672-.205 4.38-.468 7.973-.824 11.53-.356 3.555-.807 7.072-1.385 11.298a476.596 476.596 0 0 0-1.789 14.828c-.46 4.44-.749 8.022-.752 9.672-.003 1.893-.216 4.903-.572 8.549a385.723 385.723 0 0 1-1.44 12.361c-1.165 8.87-2.656 18.352-3.966 24.59-1.098 5.225-3.137 18.097-4.533 28.604-1.397 10.506-3.03 20.631-3.627 22.5-.374 1.169-.731 3.046-1.065 5.476-.333 2.43-.643 5.413-.926 8.795-.565 6.765-1.016 15.125-1.314 23.846-.298 8.72-.443 17.803-.389 26.011.054 8.208.306 15.543.795 20.768.426 4.547 1.207 9.9 2.219 15.533a320.643 320.643 0 0 0 3.605 17.22c1.35 5.674 2.805 11.107 4.243 15.774 1.437 4.668 2.857 8.57 4.134 11.186a53.543 53.543 0 0 0 3.219 5.695 43.034 43.034 0 0 0 3.578 4.774c1.228 1.41 2.478 2.622 3.715 3.597 1.237.975 2.46 1.713 3.63 2.168 8.108 3.155 13.63 5.265 18.48 7.024 4.848 1.758 9.024 3.165 14.439 4.916 6.996 2.262 13.6 4.113 14.676 4.113 1.075 0 9.751 1.965 19.279 4.367s22.444 5.356 28.703 6.565c6.259 1.208 16.753 3.76 23.32 5.668 4.203 1.22 8.868 2.307 14.477 3.347 5.61 1.04 12.163 2.034 20.144 3.073 12.474 1.622 25.83 3.453 29.68 4.068 3.85.615 13.075 1.494 20.5 1.955 15.214.944 29.649 1.956 40.75 2.834 11.101.877 18.87 1.62 20.75 2.027 1.393.302 5.433.53 11.03.686 5.596.155 12.75.237 20.37.244 7.62.007 15.707-.062 23.17-.205 7.464-.144 14.304-.362 19.43-.658 19.39-1.119 30.12-1.788 37.143-2.524 3.511-.368 6.096-.753 8.373-1.22 2.277-.467 4.246-1.016 6.527-1.711 3.237-.988 7.44-2.664 12.174-4.8 4.734-2.135 9.998-4.73 15.363-7.558a348.436 348.436 0 0 0 15.96-8.949c5.13-3.063 9.927-6.13 13.956-8.973 2.19-1.544 4.857-3.593 7.676-5.865a305.305 305.305 0 0 0 8.592-7.2c2.8-2.434 5.427-4.81 7.558-6.843 2.132-2.033 3.767-3.722 4.58-4.789 1.135-1.488 2.342-3.333 3.573-5.435a105.984 105.984 0 0 0 3.713-6.975 140.056 140.056 0 0 0 3.552-7.904 135.298 135.298 0 0 0 3.098-8.225c1.804-5.327 4.294-13.954 6.457-22.076 2.163-8.122 4-15.74 4.494-19.045l.543-3.62-2.37 2.37a7.699 7.699 0 0 1-2.45 1.623c-.92.39-1.922.628-2.94.707a9.633 9.633 0 0 1-3.037-.24 8.154 8.154 0 0 1-2.736-1.22 6.612 6.612 0 0 1-1.95-2.124c-.538-.914-.975-2.072-1.337-3.588-.362-1.515-.65-3.387-.89-5.73-.24-2.344-.432-5.159-.604-8.557-.334-6.6-1.531-19.832-2.66-29.404-.458-3.876-.81-7.131-1.075-10.301-.264-3.17-.44-6.255-.543-9.791-.204-7.072-.116-15.946.141-30.908.54-31.44 1.083-57.338 1.568-75.502.485-18.164.913-28.593 1.225-29.094.342-.55 1.358-10.9 2.258-23 .45-6.05 1.093-12.956 1.767-19.209.675-6.253 1.38-11.853 1.953-15.291.579-3.464 1.073-7.171 1.514-11.64.441-4.47.828-9.702 1.19-16.217.723-13.03 1.347-31.191 2.1-58.643.557-20.35 1.455-41.5 1.993-47 .578-5.893.932-14.55 1.09-24.59.159-10.04.12-21.462-.09-32.887-.21-11.424-.591-22.85-1.119-32.898-.527-10.048-1.2-18.716-1.994-24.625-.296-2.2-.651-8.7-.986-17.4-.336-8.7-.65-19.6-.864-30.6-.212-11-.534-22.35-.88-31.775-.347-9.425-.72-16.925-1.034-20.225-1.424-14.966-2.441-26.153-3.103-34.166-.662-8.013-.969-12.853-.969-15.125 0-2.071-.3-4.641-.902-7.719-.603-3.077-1.508-6.663-2.717-10.763-1.21-4.1-2.724-8.717-4.545-13.856-1.821-5.14-3.949-10.801-6.387-16.996-2.936-7.461-5.226-13.23-7.095-17.748-1.87-4.517-3.318-7.782-4.569-10.234-1.25-2.452-2.303-4.092-3.383-5.358-1.08-1.265-2.187-2.157-3.544-3.115-2.023-1.427-4.919-2.965-8.368-4.504-3.449-1.539-7.45-3.08-11.681-4.512a176.52 176.52 0 0 0-13.059-3.865c-4.367-1.108-8.643-1.998-12.502-2.562-2.892-.423-8.958-.683-19.443-.793z" style="isolation:auto;mix-blend-mode:normal" color="#000" overflow="visible" fill="url(#c)" transform="translate(-216.17 -35.29)"/><path d="M614.578 35.291c-14.59 0-26.569.044-36.629.16-10.06.116-18.199.303-25.111.592-6.912.29-12.596.68-17.742 1.201-5.147.521-9.756 1.173-14.518 1.983-2.475.42-5.449.805-8.246 1.086-2.797.28-5.417.455-7.186.46-1.768.005-4.228.229-6.765.586-2.538.358-5.153.85-7.235 1.387-2.08.538-5.747 1.26-9.978 1.99a351.275 351.275 0 0 1-13.365 2.043c-8.676 1.144-16.936 2.521-18.356 3.06-1.419.54-6.695 1.647-11.724 2.46-5.03.812-10.72 1.95-12.645 2.527-1.925.578-8.829 1.938-15.342 3.022-6.513 1.084-12.629 2.392-13.59 2.906-.96.514-7.106 1.852-13.658 2.973-6.551 1.12-14.16 2.649-16.91 3.396-10.333 2.808-20.546 5.88-29.037 8.686-4.245 1.402-8.061 2.74-11.244 3.943-3.183 1.203-5.734 2.273-7.453 3.144-2.347 1.19-10.79 6.458-18.766 11.708-7.298 4.803-13.417 8.97-18.59 12.707-5.172 3.735-9.4 7.04-12.914 10.117a89.131 89.131 0 0 0-4.765 4.47 63.73 63.73 0 0 0-3.875 4.284 52.685 52.685 0 0 0-3.155 4.25 52.798 52.798 0 0 0-2.613 4.37c-1.083 2.023-2.238 4.521-3.414 7.348a173.518 173.518 0 0 0-3.537 9.32 229.062 229.062 0 0 0-3.35 10.407 213.69 213.69 0 0 0-2.855 10.61c-.68 2.822-1.202 5.082-1.604 7.158a60.669 60.669 0 0 0-.877 6.046c-.39 4.163-.437 9.09-.425 17.795.007 5.172.128 10.998.318 16.22.19 5.22.446 9.835.726 12.585 1.55 15.203 2.563 26.52 3.297 37.941.735 11.422 1.191 22.946 1.625 38.559.264 9.488.62 19.012.979 26.715.36 7.703.724 13.585 1.006 15.785.417 3.256.709 10.582.883 19.91.173 9.328.228 20.658.177 31.918-.05 11.26-.21 22.45-.467 31.502s-.612 15.965-1.056 18.67c-.813 4.95-1.514 11.7-1.557 15-.042 3.3-.546 8.25-1.119 11-.287 1.375-.641 7.07-.982 15.135-.341 8.065-.668 18.503-.899 29.365-.518 24.408-1.11 43.315-1.824 57.666-.357 7.176-.744 13.212-1.168 18.229-.424 5.016-.885 9.012-1.387 12.105-.848 5.225-1.559 12.425-1.578 16-.01 2.042-.288 5.664-.728 10.074s-1.045 9.608-1.711 14.797a548.216 548.216 0 0 1-2.082 14.75c-.688 4.38-1.336 7.957-1.842 9.938-.835 3.268-2.688 14.716-4.117 25.441a510.07 510.07 0 0 1-2.45 16.27c-.85 5.075-1.666 9.393-2.242 11.73-.475 1.928-.846 3.66-1.142 5.75-.297 2.09-.517 4.54-.694 7.904-.352 6.73-.524 17.118-.746 35.616-.17 14.24-.202 25.165-.086 33.38.116 8.216.38 13.72.8 17.12.333 2.701 1.005 6.62 1.872 11.119.867 4.498 1.93 9.576 3.047 14.593a507.628 507.628 0 0 0 3.367 14.237c1.082 4.26 2.074 7.821 2.836 10.047.877 2.561 2.087 5.29 3.51 8.013a80.291 80.291 0 0 0 4.793 7.985c1.734 2.541 3.565 4.904 5.375 6.92 1.81 2.015 3.6 3.681 5.252 4.826 1.84 1.275 5.469 3.058 10.074 5.049 4.605 1.99 10.186 4.19 15.934 6.3 5.747 2.111 11.66 4.132 16.927 5.766 5.268 1.634 9.89 2.883 13.053 3.445 3.025.538 9.1 1.913 13.5 3.057 8.378 2.177 14.208 3.651 19.217 4.826 5.009 1.175 9.196 2.05 14.283 3.031 5.775 1.114 14.55 3.147 19.5 4.52 7.994 2.218 14.41 3.804 20.994 5.105 6.584 1.302 13.337 2.318 22.006 3.393 9.35 1.16 21.5 2.769 27 3.578 5.5.81 18.325 1.917 28.5 2.461 10.175.544 22.058 1.433 26.408 1.975 4.35.541 10.875 1.013 14.5 1.047 1.813.016 4.248.18 6.711.431 2.464.251 4.956.59 6.881.955 2.171.412 6.924.743 13.104.987 6.179.243 13.785.398 21.66.457 7.875.058 16.019.019 23.277-.125 7.258-.145 13.63-.395 17.96-.758 6.6-.555 20.55-1.443 31-1.973 5.725-.29 10.699-.674 15.208-1.223 4.51-.548 8.555-1.26 12.424-2.207a88.994 88.994 0 0 0 11.367-3.613c3.805-1.486 7.722-3.277 12.04-5.443 3.758-1.886 8.006-4.161 12.407-6.623a487.092 487.092 0 0 0 13.338-7.748 402.097 402.097 0 0 0 12.276-7.676c3.693-2.413 6.875-4.613 9.217-6.4 4.358-3.328 8.231-6.48 11.707-9.55 3.475-3.07 6.552-6.059 9.322-9.064a95.196 95.196 0 0 0 7.474-9.158 96.174 96.174 0 0 0 6.157-9.832c1.409-2.572 3.075-6.436 4.84-11.086 1.764-4.65 3.627-10.085 5.43-15.8a386.161 386.161 0 0 0 5.062-17.483c1.52-5.771 2.819-11.317 3.738-16.131.832-4.355 1.429-9.572 1.797-15.182.368-5.61.506-11.614.424-17.547-.083-5.932-.386-11.792-.907-17.115-.26-2.661-.574-5.19-.941-7.523-.367-2.334-.787-4.475-1.26-6.365-.792-3.172-1.75-9.32-2.129-13.663-.28-3.201-.564-5.287-1.017-6.81-.227-.762-.495-1.381-.826-1.932a7.804 7.804 0 0 0-1.204-1.508c-.827-.827-1.844-1.444-2.955-1.853a10.017 10.017 0 0 0-3.521-.6 10.18 10.18 0 0 0-3.533.653c-1.117.425-2.142 1.06-2.983 1.9l-2.453 2.455.04-18.205c.035-16.13.505-40.382 1.093-61.44.294-10.528.616-20.257.93-27.773.313-7.516.617-12.818.87-14.492.543-3.575 1.688-16.19 2.546-28.031a541.653 541.653 0 0 1 1.695-18.574c.65-5.982 1.33-11.272 1.887-14.426.738-4.185 1.306-9.012 1.775-15.438.47-6.425.84-14.45 1.18-25.031.513-15.95 1.507-42.5 2.209-59 .438-10.316.761-24.366.97-39.807.21-15.44.305-32.272.29-48.148-.016-15.877-.142-30.8-.377-42.422-.236-11.622-.58-19.945-1.032-22.623-.419-2.49-.83-8.125-1.197-16.133-.367-8.008-.69-18.387-.933-30.367a1637.244 1637.244 0 0 0-1.004-32.479c-.42-10.24-.892-19.071-1.313-24.021-.842-9.9-2.225-26.775-3.072-37.5-.488-6.18-.997-11.371-1.688-16.186-.69-4.814-1.562-9.252-2.773-13.931-1.21-4.68-2.76-9.598-4.81-15.373-2.05-5.776-4.6-12.407-7.81-20.51-5.801-14.653-8.807-22.196-11.113-26.908-1.152-2.356-2.13-4.003-3.193-5.479-1.063-1.475-2.212-2.778-3.709-4.443-1.379-1.534-3.015-3-4.953-4.422-1.937-1.421-4.176-2.798-6.756-4.15-2.58-1.353-5.5-2.682-8.805-4.01-3.304-1.328-6.992-2.654-11.105-4-5.477-1.793-9.522-3.132-13.514-4.133a71.751 71.751 0 0 0-6.12-1.262 92.149 92.149 0 0 0-7.08-.84c-5.27-.437-11.87-.65-21.18-.753-9.311-.105-21.334-.1-37.448-.1zm35.305 17.684c10.486.11 16.551.37 19.443.793 3.86.564 8.135 1.454 12.502 2.562a176.52 176.52 0 0 1 13.059 3.865c4.23 1.433 8.232 2.973 11.681 4.512 3.45 1.54 6.345 3.077 8.368 4.504 1.357.958 2.464 1.85 3.544 3.115 1.08 1.266 2.133 2.906 3.383 5.358 1.25 2.452 2.7 5.717 4.569 10.234 1.869 4.517 4.16 10.287 7.095 17.748 2.438 6.195 4.566 11.857 6.387 16.996 1.821 5.14 3.336 9.755 4.545 13.856 1.21 4.1 2.114 7.686 2.717 10.763.602 3.078.902 5.648.902 7.719 0 2.272.307 7.112.969 15.125.662 8.013 1.68 19.2 3.103 34.166.314 3.3.687 10.8 1.034 20.225.346 9.425.668 20.775.88 31.775.213 11 .528 21.9.864 30.6.335 8.7.69 15.2.986 17.4.794 5.909 1.467 14.577 1.994 24.625.528 10.048.91 21.474 1.12 32.898.21 11.425.247 22.847.09 32.887-.16 10.04-.513 18.697-1.09 24.59-.54 5.5-1.437 26.65-1.995 47-.752 27.452-1.376 45.612-2.1 58.643-.361 6.515-.748 11.747-1.189 16.216-.44 4.47-.935 8.177-1.513 11.641-.574 3.438-1.28 9.038-1.954 15.291a604.778 604.778 0 0 0-1.767 19.209c-.9 12.1-1.916 22.45-2.258 23-.312.501-.74 10.93-1.225 29.094-.485 18.164-1.027 44.062-1.568 75.502-.257 14.962-.345 23.836-.14 30.908.102 3.536.278 6.62.542 9.79.265 3.171.617 6.426 1.075 10.302 1.129 9.572 2.326 22.804 2.66 29.404.172 3.398.363 6.213.603 8.557.24 2.343.529 4.215.89 5.73.363 1.516.8 2.674 1.339 3.588a6.612 6.612 0 0 0 1.949 2.123 8.154 8.154 0 0 0 2.736 1.22c.984.243 2.02.32 3.037.241a9.431 9.431 0 0 0 2.94-.707 7.699 7.699 0 0 0 2.45-1.623l2.37-2.37-.543 3.62c-.495 3.305-2.33 10.923-4.494 19.045-2.163 8.122-4.653 16.75-6.457 22.076a135.298 135.298 0 0 1-3.098 8.225 140.056 140.056 0 0 1-3.552 7.904 105.984 105.984 0 0 1-3.713 6.975c-1.23 2.102-2.438 3.947-3.572 5.435-.814 1.067-2.45 2.756-4.58 4.79-2.132 2.032-4.76 4.408-7.56 6.843a305.305 305.305 0 0 1-8.591 7.2c-2.82 2.27-5.486 4.32-7.676 5.864-4.03 2.843-8.827 5.91-13.957 8.973a348.436 348.436 0 0 1-15.959 8.95c-5.365 2.827-10.63 5.422-15.363 7.558-4.734 2.135-8.937 3.811-12.174 4.799-2.281.695-4.25 1.244-6.527 1.71-2.277.468-4.862.853-8.373 1.221-7.023.736-17.753 1.405-37.143 2.524-5.126.296-11.966.514-19.43.658-7.463.143-15.55.212-23.17.205-7.62-.007-14.774-.089-20.37-.244-5.597-.155-9.637-.384-11.03-.686-1.88-.407-9.648-1.15-20.75-2.027-11.101-.878-25.536-1.89-40.75-2.834-7.425-.46-16.65-1.34-20.5-1.955-3.85-.615-17.206-2.446-29.68-4.068-7.981-1.039-14.535-2.033-20.144-3.073-5.61-1.04-10.274-2.126-14.477-3.347-6.567-1.909-17.061-4.46-23.32-5.668-6.259-1.209-19.175-4.163-28.703-6.565-9.528-2.402-18.204-4.367-19.28-4.367-1.075 0-7.679-1.851-14.675-4.113-5.415-1.751-9.59-3.158-14.44-4.916-4.849-1.759-10.37-3.87-18.478-7.024-1.171-.455-2.394-1.193-3.631-2.168-1.237-.975-2.487-2.188-3.715-3.597a43.034 43.034 0 0 1-3.578-4.774 53.543 53.543 0 0 1-3.219-5.695c-1.277-2.615-2.697-6.518-4.134-11.186-1.438-4.667-2.893-10.1-4.243-15.773a320.643 320.643 0 0 1-3.605-17.22c-1.012-5.634-1.793-10.987-2.219-15.534-.49-5.225-.741-12.56-.795-20.768-.054-8.208.091-17.29.389-26.011.298-8.721.75-17.081 1.314-23.846.283-3.382.593-6.365.926-8.795.334-2.43.69-4.307 1.065-5.476.597-1.869 2.23-11.994 3.627-22.5 1.396-10.507 3.435-23.379 4.533-28.604 1.31-6.238 2.801-15.72 3.967-24.59a385.723 385.723 0 0 0 1.439-12.361c.356-3.646.569-6.656.572-8.549.003-1.65.292-5.231.752-9.672.46-4.44 1.094-9.74 1.79-14.828.577-4.226 1.028-7.743 1.384-11.299.357-3.556.62-7.15.824-11.53.41-8.758.588-20.658.813-41.671.119-11.13.236-19.961.402-27.389.166-7.427.38-13.452.695-18.966.315-5.515.731-10.52 1.297-15.913.567-5.392 1.283-11.172 2.203-18.232.418-3.204.766-11.089 1.032-21.607.265-10.519.447-23.671.535-37.409.087-13.737.08-28.06-.037-40.92-.117-12.86-.343-24.257-.69-32.144-.59-13.43-1.465-36.206-1.943-50.613-.478-14.407-1.137-27.457-1.465-29-.451-2.128-1.372-11.2-2.256-21.383-.883-10.184-1.73-21.48-2.033-28.055a95.504 95.504 0 0 1 .082-10.306c.215-3.484.619-7.032 1.22-10.69a132.712 132.712 0 0 1 2.407-11.355c1.005-3.928 2.215-8.013 3.639-12.303 1.012-3.05 1.974-5.806 2.947-8.334.973-2.528 1.954-4.83 3.01-6.973a53.5 53.5 0 0 1 3.443-6.025 49.218 49.218 0 0 1 4.236-5.486c1.586-1.786 3.367-3.55 5.4-5.362 2.034-1.811 4.321-3.671 6.925-5.646 5.207-3.95 11.675-8.365 19.892-13.793 5.18-3.422 9.281-6.092 12.813-8.256 3.531-2.164 6.493-3.82 9.396-5.217 2.903-1.396 5.746-2.532 9.041-3.652s7.042-2.226 11.75-3.56c3.85-1.092 9.7-2.848 13-3.903 3.3-1.055 10.95-2.87 17-4.033 6.05-1.163 15.5-3.199 21-4.522 5.5-1.323 12.7-2.796 16-3.273 5.511-.798 12.006-2.119 35.5-7.219 4.675-1.015 15.25-2.777 23.5-3.916 8.25-1.139 17.475-2.734 20.5-3.545 1.513-.406 3.45-.776 5.354-1.047 1.903-.27 3.771-.44 5.146-.445 2.75-.01 12.65-1.192 22-2.625 4.112-.63 7.348-1.11 10.754-1.48 3.406-.372 6.984-.637 11.781-.837 9.595-.4 24.07-.542 51.809-.779 20.57-.176 35.475-.214 45.96-.103z" style="isolation:auto;mix-blend-mode:normal" color="#000" overflow="visible" fill="url(#b)" transform="translate(-216.17 -35.29)"/><path d="M762.475 763.06c1.122-1.122 2.869 11.844 3.332 24.731.643 17.904-.105 22.63-1.108 7-.405-6.325-1.164-15.959-1.685-21.41-.522-5.451-.764-10.096-.54-10.32zM761.543 756.281c.058-.005.12.071.19.24h.001c.274.677.29 2.027.036 3-.254.973-.478.42-.498-1.23-.016-1.237.098-1.994.271-2.01zM760.59 747.639c.055.031.115.161.178.402.251.963.251 2.538 0 3.5-.252.963-.46.175-.46-1.75 0-1.444.118-2.247.282-2.152zM489.104 546.217c-3.256.11-6.575.678-11.526 1.758-10.526 2.296-20.373 9.623-26.129 19.445-4.984 8.506-4.023 22.751 2.035 30.152 2.174 2.656 2.213 3.15 1.649 21.219l-.578 18.5-8.989 9.027c-7.069 7.1-9.983 10.944-13.648 18-8.318 16.017-9.807 25.706-5.406 35.159 2.595 5.573 9.675 11.696 14.883 12.869 1.55.348 3.069 1.287 3.375 2.084.777 2.025-6.068 29.202-9.788 38.861-13.158 34.169-13.227 34.399-13.318 44.5-.104 11.445 2.349 18.077 8.695 23.51 6.25 5.35 12.262 6.94 26.32 6.967l12.104.023 2.86 3.5c7.47 9.147 16.934 16.019 24.935 18.107 4.279 1.117 12.162.106 16.524-2.119 19.489-9.943 22.972-45.276 9.859-99.988-3.299-13.763-6.883-31.412-6.883-33.887 0-.343 1.274-1.188 2.83-1.877 9.226-4.084 15.484-13.643 15.6-23.828.063-5.598-.463-7.269-5.268-16.77-2.935-5.803-7.16-12.626-9.39-15.16l-4.057-4.607.549-9.685c.568-10.063 2.937-18.31 7.236-25.186 5.155-8.244 11.482-22.536 13.004-29.375 2.95-13.262-.465-22.853-10.963-30.787-6.392-4.831-13.672-7.533-25.373-9.416-4.696-.756-7.887-1.106-11.142-.996zm2.582 27.98c5.046.078 10.394.869 13.642 2.336 2.613 1.18 4.75 2.79 4.75 3.576 0 2.91-3.066 9.952-8.889 20.424-7.885 14.181-10.918 23.51-12.199 37.524-.565 6.179-1.665 13.394-2.447 16.033-1.236 4.172-1.232 5.346.041 9 .945 2.712 1.47 8.19 1.478 15.451l.016 11.25h-5.58c-5.562 0-5.577-.009-4.994-2.75 1.106-5.2 3.562-22.753 3.568-25.5.003-1.513.446-2.75.985-2.75.538 0 1.938-1.877 3.109-4.172 2.537-4.973 2.176-10.242-1.006-14.71-2.089-2.934-2.103-3.306-1.064-25.798.58-12.55.772-24.514.427-26.584-.366-2.202-1.824-4.958-3.513-6.648l-2.887-2.887 2.727-1.851c2.043-1.387 6.79-2.021 11.836-1.944zm-11.211 143.594h8.398l1.152 6.75c.635 3.712 3.353 16.425 6.037 28.25 5.965 26.27 7.383 37.312 6.84 53.232-.23 6.747-.922 13.157-1.537 14.243-1.031 1.821-1.672 1.378-8.322-5.737-10.518-11.253-14.85-13.138-31.215-13.588l-12.75-.351v-3.326c0-3.3 1.35-7.354 10.477-31.473 4.445-11.747 12.523-41.372 12.523-45.93 0-1.928.572-2.07 8.397-2.07zM464.96 86.506c-8.11.32-15.738 2.805-21.544 7.402-9.213 7.296-19.061 23.149-21.36 34.383-2.596 12.693 3.038 43.047 11.514 62.022 1.47 3.288 3.72 8.833 5 12.322l2.326 6.344-5.277 7.751c-8.1 11.897-10.704 21.553-8.164 30.29 1.939 6.668 5.21 11.649 9.371 14.271 2.986 1.881 3.177 2.359 3.213 8.041.036 5.566-2.624 29.105-3.437 30.42-.195.315-1.085 7.623-1.979 16.242-1.11 10.702-2.419 17.95-4.133 22.856-6.148 17.598-3.556 29.074 7.963 35.236 3.533 1.89 5.631 2.196 14.625 2.139 9.3-.06 11.451-.431 18.818-3.25 4.576-1.751 8.905-3.184 9.624-3.184.718 0 4.837 2.577 9.15 5.727 4.313 3.15 10.107 6.511 12.875 7.468 19.669 6.801 35.86-7.85 31.56-28.558-.655-3.158-3.645-13.257-6.644-22.44-7.782-23.83-10.174-33.173-12.357-48.267l-1.926-13.313 2.2-1.484c3.87-2.614 9.635-9.093 11.952-13.428 1.9-3.556 2.248-5.752 2.248-14.226 0-9.308-.234-10.497-3.287-16.698-2.019-4.1-5.034-8.212-7.814-10.66l-4.528-3.984 1.065-13.268c1.465-18.268 1.332-32.229-.46-48.523-1.804-16.416-4.237-25.944-9.406-36.828-4.802-10.114-9.354-15.337-16.744-19.217-7.738-4.063-16.332-5.906-24.443-5.586zm3.507 27.396c1.72.188 3.564.688 5.57 1.49 4.789 1.917 6.979 5.184 10.49 15.651 3.886 11.583 6.166 39.618 4.657 57.248-.613 7.15-1.112 13.722-1.11 14.604.002 1.264-1.526 1.738-7.246 2.246-3.987.353-8.216.91-9.394 1.236-1.8.497-2.346-.024-3.403-3.246-.692-2.111-4.071-10.836-7.51-19.387-6.822-16.967-11.443-35.015-11.443-44.701 0-6.718 1.738-11.667 6.358-18.1 3.842-5.35 7.871-7.603 13.03-7.04zm13.299 118.66l.671 8.764c.371 4.82.425 9.015.12 9.32-.954.954-13.476 1.426-13.559.512-.043-.476-.014-3.792.063-7.367.168-7.826 1.61-9.709 8.125-10.602l4.58-.626zm5.048 45.586c.932.384 1.279 2.449 2.163 9.325 1.788 13.913 5.047 27.072 11.908 48.068 3.28 10.038 5.868 18.25 5.752 18.25-.116 0-1.277-1.135-2.58-2.521-1.303-1.387-4.869-3.75-7.924-5.25-4.8-2.358-6.778-2.729-14.555-2.729-7.43 0-10.361.5-16.799 2.87-4.288 1.577-8.002 2.663-8.252 2.413s.425-3.012 1.5-6.138c1.076-3.126 2.67-12.538 3.543-20.915.874-8.376 2.207-18.83 2.963-23.23.756-4.4 1.69-10.587 2.074-13.75l.702-5.75 8.134-.014c4.474-.008 9.066-.263 10.203-.568.483-.13.858-.189 1.168-.06z" fill="url(#d)" transform="translate(-216.17 -35.29)"/></svg>