<svg xmlns:osb="http://www.openswatchbook.org/uri/2009/osb" xmlns="http://www.w3.org/2000/svg" height="934.882" width="567.001"><defs><linearGradient osb:paint="solid" id="c"><stop offset="0" stop-color="#fff"/></linearGradient><linearGradient osb:paint="solid" id="b"><stop offset="0"/></linearGradient><linearGradient osb:paint="solid" id="d"><stop offset="0" stop-color="#002b11"/></linearGradient><linearGradient osb:paint="solid" id="a"><stop offset="0" stop-color="#162d50"/></linearGradient></defs><path d="M478.102 51.57c-6.344-.002-11.47.033-16.022.174-4.552.141-8.528.388-12.578.807-4.05.418-8.171 1.01-13.01 1.84-4.838.83-10.394 1.897-17.312 3.271-3.852.765-8.305 1.999-12.951 3.53a188.686 188.686 0 0 0-14.114 5.31c-4.627 1.952-9.04 4.03-12.834 6.06a83.883 83.883 0 0 0-5.176 2.99c-1.536.972-2.867 1.91-3.94 2.794-2.571 2.114-7.93 5.982-11.91 8.595-2.255 1.482-6.025 4.66-10.534 8.764-4.51 4.104-9.757 9.132-14.969 14.316-5.212 5.185-10.386 10.525-14.752 15.249-4.365 4.723-7.921 8.831-9.89 11.552-4.52 6.246-8.232 11.849-11.08 16.721-1.425 2.436-2.633 4.69-3.62 6.75-.987 2.06-1.752 3.926-2.289 5.588-.55 1.705-1.724 4.569-3.168 7.806a217.214 217.214 0 0 1-4.8 10.057 128.595 128.595 0 0 0-4.794 10.485c-1.324 3.301-2.32 6.272-2.822 8.503-.907 4.03-2.934 11.377-4.506 16.327-.995 3.136-1.98 6.697-2.918 10.488-.937 3.79-1.827 7.81-2.629 11.865a266.255 266.255 0 0 0-2.103 12.072c-.589 3.929-1.053 7.698-1.352 11.11-.555 6.343-1.72 15.568-2.588 20.5-.868 4.931-2.201 13.915-2.962 19.965-.762 6.05-2.069 14.6-2.903 19-.834 4.4-1.531 9.99-1.55 12.423-.02 2.433-1.601 14.358-3.516 26.5-2.934 18.605-5.217 33.667-6.989 47.082a742.207 742.207 0 0 0-2.29 19.125 572.111 572.111 0 0 0-1.631 18.079 604.082 604.082 0 0 0-1.075 18.453 863.683 863.683 0 0 0-.623 20.252c-.289 14.416-.349 30.979-.318 51.586.037 24.998.144 41.488.406 53.459.131 5.985.301 10.84.522 15.064.22 4.224.49 7.816.822 11.275.456 4.757.87 10.309 1.17 15.42.3 5.112.486 9.783.486 12.782 0 3.31.159 7.641.426 12.431.267 4.79.644 10.04 1.082 15.182.438 5.142.938 10.177 1.451 14.543.513 4.365 1.04 8.06 1.531 10.521.79 3.948 1.92 11.148 2.512 16 .315 2.579.972 6.28 1.838 10.54.866 4.26 1.943 9.08 3.092 13.894a441.01 441.01 0 0 0 3.535 13.867c1.163 4.242 2.264 7.916 3.172 10.46 1.386 3.884 3.563 10.437 4.838 14.562s3.295 10.162 4.488 13.416c1.193 3.253 5.055 17.481 8.582 31.619a757.007 757.007 0 0 0 5.154 19.588c1.549 5.543 2.803 9.656 3.39 10.998 1.17 2.684 3.165 7.881 4.433 11.55.736 2.131 1.82 4.54 3.177 7.106s2.985 5.29 4.803 8.05a126.64 126.64 0 0 0 5.947 8.27 117.062 117.062 0 0 0 6.616 7.766 62.308 62.308 0 0 0 3.693 3.656 49.59 49.59 0 0 0 3.943 3.23 51.2 51.2 0 0 0 4.453 2.922 66.05 66.05 0 0 0 5.215 2.739c3.79 1.79 8.26 3.54 13.75 5.406 5.491 1.867 12.003 3.852 19.88 6.117 6.847 1.97 12.742 3.568 18.318 4.893a214.561 214.561 0 0 0 16.402 3.26c5.571.88 11.458 1.59 18.293 2.228 6.835.638 14.62 1.204 23.986 1.799 14.991.952 27.733 1.577 38.713 1.844 5.49.133 10.54.177 15.211.129 4.672-.05 8.966-.192 12.941-.43 3.976-.239 7.635-.573 11.038-1.008 3.402-.435 6.549-.971 9.502-1.611a85.807 85.807 0 0 0 8.335-2.237 78.165 78.165 0 0 0 7.538-2.88c2.555-1.13 4.102-1.736 5.406-1.928a6.066 6.066 0 0 1 1.867.008c.625.096 1.285.28 2.074.54 1.282.424 2.366 1.044 3.239 1.83a7.605 7.605 0 0 1 1.974 2.831c.44 1.09.658 2.317.64 3.65-.017 1.334-.27 2.773-.769 4.29-.433 1.314-.877 2.286-.949 2.96-.036.338.021.6.219.795.197.195.535.321 1.062.385 1.055.128 2.866.005 5.815-.322 2.948-.327 7.035-.858 12.644-1.547 7.412-.91 12.19-1.609 16.914-2.682 4.724-1.073 9.392-2.52 16.586-4.927a206.013 206.013 0 0 0 11.608-4.258 160.917 160.917 0 0 0 10.507-4.66 130.136 130.136 0 0 0 9.485-5.114c2.999-1.786 5.84-3.658 8.535-5.623a98.339 98.339 0 0 0 7.658-6.183 93.71 93.71 0 0 0 6.856-6.801 95.619 95.619 0 0 0 6.127-7.47 104.304 104.304 0 0 0 5.47-8.194c3.444-5.713 9.02-14.347 14.24-22.178 5.222-7.83 10.09-14.857 12.12-17.353 1.185-1.459 2.932-4.498 4.941-8.44 2.01-3.942 4.281-8.788 6.516-13.857a351.777 351.777 0 0 0 6.295-15.202c1.861-4.838 3.385-9.22 4.275-12.47.753-2.75 2.708-12.88 4.344-22.512 1.636-9.631 3.666-19.756 4.51-22.5.843-2.743 2.236-9.713 3.093-15.488.858-5.775 2.218-13.089 3.02-16.254.802-3.165 1.918-9.465 2.48-14s1.675-10.792 2.475-13.904c.4-1.557.933-4.584 1.469-8.21a291.654 291.654 0 0 0 1.488-11.79c.827-7.888 2.157-17.267 2.957-20.842.4-1.788 1.001-5.776 1.646-10.76a607.502 607.502 0 0 0 1.915-16.74c.579-5.775 1.327-12.151 2.066-17.77.739-5.619 1.468-10.48 2.01-13.23.684-3.475 1.289-8.34 1.85-15.028.56-6.688 1.076-15.2 1.585-25.972 1.26-26.665 2.101-43.371 2.772-54.121.335-5.375.628-9.262.91-12.159.281-2.896.552-4.802.842-6.22.2-.98.39-4.826.566-10.84.176-6.014.337-14.198.48-23.854.288-19.311.504-44.514.626-70.037.12-25.523.146-51.366.048-71.96-.098-20.595-.319-35.941-.69-40.467-.297-3.636-.751-7.723-1.314-11.979a362.305 362.305 0 0 0-1.966-13 316.245 316.245 0 0 0-2.334-12.348c-.808-3.82-1.63-7.251-2.418-10.015-1.604-5.624-3.822-14.437-5.856-23.06-2.034-8.624-3.884-17.058-4.754-21.925a90.781 90.781 0 0 0-1.851-8.138 100.127 100.127 0 0 0-5.793-15.672 95.515 95.515 0 0 0-3.756-7.217 84.853 84.853 0 0 0-4.209-6.592 70.062 70.062 0 0 0-4.57-5.81 53.77 53.77 0 0 0-4.84-4.871c-1.649-1.45-3.327-2.717-5.02-3.774-1.602-1-4.714-3.227-6.914-4.947-1.983-1.55-5.765-3.78-10.504-6.297s-10.435-5.322-16.246-8.023c-5.811-2.701-11.738-5.299-16.937-7.4-5.2-2.103-9.672-3.71-12.576-4.43-3.706-.92-8.762-2.535-11.237-3.588-1.214-.517-4.831-1.569-9.83-2.905-4.999-1.335-11.379-2.954-18.117-4.607-13.477-3.306-28.387-6.744-36.553-8.309a1062.23 1062.23 0 0 0-28.168-5c-8.97-1.464-17.153-2.667-23.459-3.43-3.472-.419-7.177-.968-10.35-1.513-3.171-.545-5.81-1.086-7.15-1.492-.93-.283-2.06-.515-3.523-.707-1.462-.192-3.257-.342-5.518-.457-4.521-.23-10.905-.32-20.22-.324z" style="isolation:auto;mix-blend-mode:normal" color="#000" overflow="visible" fill="url(#c)" transform="translate(-216.5 -32.56)"/><path d="M478.639 32.559c-6.156 0-10.876.008-14.813.074-3.937.066-7.092.189-10.119.42-3.027.23-5.926.57-9.352 1.066-3.425.497-7.377 1.15-12.51 2.012a416.544 416.544 0 0 0-17.798 3.41c-5.568 1.195-10.323 2.354-12.92 3.186-3.59 1.15-7.554 2.615-11.606 4.26a235.287 235.287 0 0 0-12.126 5.333c-3.937 1.866-7.673 3.775-10.918 5.588-3.246 1.814-6 3.532-7.977 5.02a616.187 616.187 0 0 1-14.01 10.18c-2.22 1.555-6.08 4.928-10.734 9.269-4.655 4.34-10.103 9.649-15.498 15.072s-10.737 10.962-15.178 15.764c-4.44 4.802-7.981 8.868-9.773 11.346-5.26 7.272-8.926 12.626-11.696 17.224a89.61 89.61 0 0 0-3.57 6.477 79.8 79.8 0 0 0-2.752 6.213c-1.865 4.722-6.296 14.66-9.848 22.086a183.483 183.483 0 0 0-5.03 11.59c-1.462 3.715-2.59 6.985-3.03 8.91-.881 3.85-2.89 11.05-4.465 16a182.545 182.545 0 0 0-2.99 10.56 243.81 243.81 0 0 0-2.625 11.621 271.572 271.572 0 0 0-2.158 12.16 255.738 255.738 0 0 0-1.584 12.176c-.766 7.286-1.814 15.726-3.092 24.936A1303.793 1303.793 0 0 1 236 314.059c-1.072 6.6-2.432 17.138-3.023 23.418-.592 6.28-1.24 11.685-1.442 12.011-.202.327-1.51 8.238-2.906 17.582-2.61 17.468-4.674 31.986-6.3 45.014-1.628 13.028-2.82 24.565-3.684 36.074-.865 11.51-1.402 22.992-1.723 35.904-.321 12.913-.425 27.258-.422 44.497.004 23.281.309 44.265.893 62.25.291 8.992.653 17.234 1.082 24.638.428 7.405.923 13.97 1.482 19.612.49 4.95.937 14.85.992 22 .028 3.6.17 7.629.405 11.851.234 4.222.561 8.638.958 13.006.398 4.368.866 8.689 1.383 12.725.517 4.035 1.083 7.785 1.676 11.011.85 4.624 2.232 12.785 3.068 18.135a222.42 222.42 0 0 0 2.315 12.408 294.292 294.292 0 0 0 3.289 13.62 431.162 431.162 0 0 0 4.385 15.3 679.918 679.918 0 0 0 5.605 17.444c2.166 6.462 4.817 15.093 7.342 23.793 2.525 8.7 4.926 17.47 6.592 24.207a531.73 531.73 0 0 0 5.267 19.652c1.708 5.89 3.23 10.648 4.155 12.848 1.85 4.4 3.93 9.77 4.62 11.931.723 2.262 2.095 5.141 3.915 8.35 1.82 3.209 4.09 6.748 6.603 10.33a167.186 167.186 0 0 0 8.08 10.586c2.806 3.38 5.656 6.516 8.35 9.121 1.7 1.644 3.665 3.259 5.877 4.834 2.212 1.575 4.672 3.111 7.36 4.598 2.686 1.486 5.6 2.923 8.726 4.3a143.571 143.571 0 0 0 9.99 3.944c3.49 1.235 13.458 4.272 23.387 7.193 9.929 2.921 19.819 5.727 23.154 6.5 3.48.807 10.126 1.788 17.772 2.688 7.645.899 16.29 1.717 23.767 2.199 7.975.514 21.025 1.355 29 1.867 7.975.512 22.604.961 32.508.996l18.006.063-.363 4.572c-.146 1.834-.128 3.094.152 4.135.28 1.04.82 1.86 1.715 2.812.613.653 1.411 1.293 2.201 1.799s1.572.877 2.156.992c1.17.23 2.35.475 2.625.545.688.175 7.037-.552 13.977-1.494s14.472-2.1 17.523-2.783c3.85-.862 15.236-2.475 25.303-3.584 7.076-.78 12.528-1.393 16.998-1.963 4.47-.57 7.96-1.1 11.115-1.711a101.448 101.448 0 0 0 9.11-2.21c3.132-.902 6.574-2.013 10.974-3.458 5.399-1.773 9.82-3.273 13.65-4.678 3.83-1.404 7.069-2.714 10.098-4.101a105.88 105.88 0 0 0 8.848-4.578c2.997-1.724 6.171-3.702 9.904-6.112a97.84 97.84 0 0 0 10.184-7.521 99.564 99.564 0 0 0 9.36-9.053c3.046-3.345 6.051-7.052 9.114-11.229 3.064-4.176 6.185-8.824 9.46-14.046 5.754-9.178 10.254-16.174 13.831-21.48 3.578-5.308 6.233-8.927 8.301-11.354 1.013-1.19 2.127-2.81 3.36-4.897 1.233-2.088 2.585-4.643 4.076-7.707 2.98-6.127 6.514-14.283 10.75-24.773 1.638-4.058 2.983-7.546 4.142-10.875 1.16-3.33 2.132-6.5 3.028-9.922.895-3.422 1.712-7.094 2.558-11.428.846-4.334 1.721-9.33 2.733-15.398a312.766 312.766 0 0 1 2.207-11.838c.725-3.486 1.382-6.232 1.795-7.397.413-1.164.91-3.152 1.379-5.418.468-2.265.906-4.809 1.203-7.082.593-4.546 1.95-12.315 3.017-17.265 1.067-4.95 2.377-12.15 2.912-16 .536-3.85 1.644-10.15 2.463-14 .82-3.85 1.984-12.175 2.586-18.5.602-6.325 1.976-16 3.053-21.5.539-2.75 1.253-7.5 1.97-12.938a566.661 566.661 0 0 0 1.99-17.062c.551-5.5 1.227-11.288 1.872-16.182.645-4.894 1.26-8.893 1.69-10.818.394-1.773.726-3.64 1.044-6.334.319-2.695.624-6.218.963-11.303.68-10.17 1.499-26.588 2.852-55.127.828-17.47 1.758-32.171 2.066-32.67.309-.499 1.112-9.605 1.783-20.236.352-5.559.637-20.797.848-40.77.211-19.973.348-44.68.399-69.176.05-24.496.015-48.783-.116-67.912-.13-19.129-.356-33.101-.687-36.972-.276-3.22-.738-7.119-1.322-11.319-.585-4.2-1.293-8.701-2.055-13.123a378.305 378.305 0 0 0-2.39-12.65c-.81-3.886-1.61-7.316-2.337-9.908a541.581 541.581 0 0 1-4.82-18.475 449.977 449.977 0 0 1-3.897-17.525c-1.226-6.14-2.44-11.553-3.709-16.42-1.267-4.867-2.588-9.187-4.029-13.14-1.44-3.955-3-7.543-4.744-10.944a92.365 92.365 0 0 0-5.853-9.826 102.432 102.432 0 0 0-5.006-6.784 84.72 84.72 0 0 0-5.485-6.17 85.294 85.294 0 0 0-6.242-5.752 102.71 102.71 0 0 0-7.281-5.527 142.886 142.886 0 0 0-8.6-5.498c-3.117-1.85-6.5-3.725-10.197-5.662-7.394-3.873-16.04-7.986-26.31-12.598-5.551-2.492-12.751-5.27-16-6.174-3.25-.903-11.309-3.385-17.909-5.515-3.86-1.246-9.54-2.838-16.103-4.555a944.207 944.207 0 0 0-21.414-5.306c-7.403-1.748-14.758-3.402-21.135-4.74-6.378-1.34-11.777-2.364-15.266-2.854-5.94-.834-12.439-1.947-14.441-2.473-2.002-.526-11.066-1.914-20.14-3.084a384.691 384.691 0 0 1-13.905-2.068c-4.38-.735-8.153-1.455-10.262-1.985a50.121 50.121 0 0 0-4.88-.996c-1.711-.258-3.604-.448-5.975-.586-4.742-.275-11.397-.343-22.33-.343zm-.537 19.011c9.315.004 15.699.095 20.22.325 2.261.114 4.056.265 5.518.457 1.462.191 2.593.424 3.523.707 1.34.406 3.979.947 7.15 1.492 3.173.545 6.878 1.094 10.35 1.513 6.306.762 14.49 1.966 23.46 3.43a1062.23 1062.23 0 0 1 28.167 5c8.166 1.565 23.076 5.003 36.553 8.309 6.738 1.652 13.118 3.272 18.117 4.607 4.999 1.336 8.616 2.388 9.83 2.904 2.475 1.054 7.531 2.668 11.237 3.588 2.904.721 7.376 2.328 12.576 4.43s11.126 4.7 16.937 7.4c5.811 2.701 11.507 5.507 16.246 8.024 4.74 2.517 8.521 4.746 10.504 6.297 2.2 1.72 5.312 3.946 6.914 4.947 1.693 1.057 3.371 2.324 5.02 3.773a53.77 53.77 0 0 1 4.84 4.872 70.062 70.062 0 0 1 4.57 5.81 84.853 84.853 0 0 1 4.209 6.592 95.515 95.515 0 0 1 3.756 7.217 100.127 100.127 0 0 1 5.793 15.672 90.781 90.781 0 0 1 1.851 8.138c.87 4.867 2.72 13.3 4.754 21.924 2.034 8.623 4.252 17.436 5.856 23.06.788 2.764 1.61 6.196 2.418 10.016.808 3.82 1.601 8.03 2.334 12.348a362.305 362.305 0 0 1 1.966 13c.563 4.256 1.017 8.343 1.315 11.978.37 4.527.591 19.873.69 40.467.097 20.595.072 46.438-.05 71.961-.12 25.523-.337 50.726-.624 70.037-.144 9.656-.305 17.84-.48 23.854-.176 6.014-.367 9.86-.567 10.84-.29 1.417-.56 3.324-.842 6.22-.282 2.897-.575 6.784-.91 12.158-.67 10.75-1.511 27.457-2.772 54.122-.509 10.772-1.025 19.284-1.586 25.972-.56 6.688-1.165 11.553-1.85 15.028-.541 2.75-1.27 7.611-2.009 13.23a603.962 603.962 0 0 0-2.066 17.77 607.502 607.502 0 0 1-1.915 16.74c-.645 4.984-1.246 8.972-1.646 10.76-.8 3.575-2.13 12.954-2.957 20.841a291.654 291.654 0 0 1-1.488 11.791c-.536 3.625-1.07 6.653-1.47 8.21-.798 3.112-1.912 9.369-2.474 13.904-.562 4.534-1.678 10.834-2.48 14-.802 3.165-2.162 10.479-3.02 16.254-.857 5.775-2.25 12.744-3.093 15.488-.844 2.743-2.874 12.868-4.51 22.5-1.636 9.631-3.591 19.762-4.344 22.512-.89 3.25-2.414 7.632-4.275 12.47a351.777 351.777 0 0 1-6.295 15.201c-2.235 5.07-4.507 9.915-6.516 13.858-2.01 3.942-3.755 6.981-4.941 8.44-2.03 2.496-6.898 9.522-12.12 17.353-5.22 7.83-10.796 16.465-14.24 22.178a104.304 104.304 0 0 1-5.47 8.193 95.619 95.619 0 0 1-6.127 7.47 93.71 93.71 0 0 1-6.856 6.801 98.339 98.339 0 0 1-7.658 6.184 110.066 110.066 0 0 1-8.535 5.623c-3 1.786-6.156 3.487-9.485 5.113a160.917 160.917 0 0 1-10.507 4.66 206.013 206.013 0 0 1-11.608 4.258c-7.193 2.408-11.862 3.855-16.586 4.928-4.723 1.073-9.502 1.771-16.914 2.682-5.609.689-9.696 1.22-12.644 1.547-2.949.327-4.76.45-5.815.322-.527-.064-.864-.19-1.062-.385-.198-.195-.255-.457-.219-.795.072-.675.516-1.646.95-2.96.498-1.517.751-2.957.769-4.29.017-1.333-.201-2.56-.64-3.65a7.605 7.605 0 0 0-1.975-2.83c-.873-.787-1.957-1.407-3.239-1.83-.789-.26-1.449-.445-2.074-.541a6.08 6.08 0 0 0-1.867-.008c-1.304.192-2.851.797-5.406 1.927a78.165 78.165 0 0 1-7.538 2.881 85.807 85.807 0 0 1-8.335 2.237c-2.953.64-6.1 1.175-9.502 1.61-3.403.436-7.062.77-11.038 1.009-3.975.238-8.27.38-12.94.43-4.673.048-9.722.004-15.212-.13-10.98-.267-23.722-.891-38.713-1.843-9.366-.595-17.15-1.161-23.986-1.8-6.835-.637-12.721-1.346-18.293-2.228a214.561 214.561 0 0 1-16.402-3.26c-5.576-1.325-11.471-2.922-18.319-4.892-7.876-2.266-14.388-4.25-19.879-6.117-5.49-1.867-9.96-3.616-13.75-5.406a66.05 66.05 0 0 1-5.214-2.739 51.2 51.2 0 0 1-4.454-2.922 49.59 49.59 0 0 1-3.943-3.23 62.308 62.308 0 0 1-3.693-3.656 117.062 117.062 0 0 1-6.616-7.766 126.64 126.64 0 0 1-5.947-8.27c-1.818-2.76-3.446-5.484-4.803-8.05-1.356-2.567-2.441-4.975-3.177-7.106-1.268-3.669-3.263-8.866-4.434-11.55-.585-1.342-1.84-5.455-3.389-10.999a757.007 757.007 0 0 1-5.154-19.587c-3.527-14.138-7.389-28.366-8.582-31.62-1.193-3.253-3.213-9.29-4.488-13.416-1.275-4.125-3.452-10.677-4.838-14.562-.908-2.543-2.01-6.217-3.172-10.46a441.01 441.01 0 0 1-3.535-13.866 433.917 433.917 0 0 1-3.092-13.895c-.866-4.26-1.523-7.96-1.838-10.539-.592-4.852-1.722-12.052-2.512-16-.491-2.46-1.018-6.156-1.53-10.521-.514-4.366-1.014-9.401-1.452-14.543a530.114 530.114 0 0 1-1.082-15.182c-.267-4.79-.426-9.122-.426-12.432 0-2.998-.186-7.67-.486-12.78-.3-5.112-.714-10.664-1.17-15.42-.331-3.46-.602-7.052-.822-11.276-.22-4.224-.39-9.08-.522-15.065-.262-11.97-.369-28.46-.406-53.459-.03-20.607.03-37.17.318-51.586.145-7.208.346-13.88.623-20.251.278-6.372.63-12.444 1.075-18.454.445-6.01.983-11.956 1.63-18.078a742.207 742.207 0 0 1 2.292-19.125c1.771-13.415 4.054-28.477 6.988-47.082 1.915-12.142 3.496-24.067 3.515-26.5.02-2.433.717-8.024 1.551-12.424s2.141-12.95 2.903-19c.761-6.05 2.094-15.033 2.962-19.964.869-4.932 2.033-14.157 2.588-20.5.3-3.412.763-7.181 1.352-11.11a266.255 266.255 0 0 1 2.103-12.072 259.755 259.755 0 0 1 2.63-11.865c.937-3.791 1.922-7.352 2.917-10.489 1.572-4.95 3.6-12.296 4.506-16.326.502-2.231 1.498-5.202 2.822-8.504a128.595 128.595 0 0 1 4.793-10.484 217.214 217.214 0 0 0 4.801-10.057c1.444-3.237 2.617-6.1 3.168-7.806.537-1.662 1.302-3.528 2.29-5.588.986-2.06 2.194-4.314 3.618-6.75 2.849-4.873 6.56-10.475 11.08-16.72 1.97-2.722 5.526-6.83 9.891-11.554 4.366-4.723 9.54-10.063 14.752-15.248 5.212-5.184 10.46-10.212 14.969-14.316 4.509-4.104 8.279-7.282 10.535-8.764 3.98-2.613 9.338-6.481 11.908-8.595 1.074-.884 2.405-1.822 3.941-2.793a83.883 83.883 0 0 1 5.176-2.99c3.795-2.032 8.207-4.109 12.834-6.061a188.686 188.686 0 0 1 14.114-5.31c4.646-1.531 9.099-2.765 12.95-3.53 6.919-1.374 12.475-2.442 17.313-3.272 4.839-.83 8.96-1.42 13.01-1.84 4.05-.418 8.027-.665 12.578-.806 4.552-.141 9.678-.177 16.022-.174z" style="isolation:auto;mix-blend-mode:normal" color="#000" overflow="visible" fill="url(#b)" transform="translate(-216.5 -32.56)"/><path d="M587.014 565.326c-19.602-.016-33.314 7.777-40.295 22.904-1.973 4.275-2.207 6.266-2.035 17.329.106 6.875 1.058 17.84 2.115 24.365l1.922 11.865-2.397 4.29c-1.318 2.358-2.945 4.726-3.615 5.26-.67.536-5.816 1.186-11.436 1.444-8.951.411-11.024.866-16.752 3.686-12.127 5.97-17.66 17.12-17.66 35.59 0 7.337.556 11.784 2.088 16.697l2.088 6.697-3.035 4.934c-4.136 6.72-11.091 21.78-15.09 32.672-2.97 8.09-3.31 10.114-3.363 20.021-.056 10.435.11 11.368 3.139 17.518 1.758 3.572 5.215 8.6 7.68 11.172 8.205 8.563 17.395 11.759 33.868 11.777l10.746.012 7.248 6.652c8.774 8.051 15.588 12.679 23.395 15.889 10.485 4.31 21.774 3.086 34.625-3.756 11.906-6.34 15.962-12.592 16.563-25.535.457-9.848-.774-17.526-5.489-34.25-3.529-12.518-6.587-25.848-7.724-33.67-.592-4.067-.526-4.188 2.642-4.87 4.04-.868 24.137-9.892 28.404-12.753 4.376-2.934 6.344-6.708 6.344-12.16 0-11.172-5.452-14.925-26.183-18.022-4.93-.737-9.26-1.635-9.623-1.998-.363-.363.343-2.406 1.572-4.541 1.288-2.239 2.234-5.569 2.234-7.867 0-3.11.44-4.123 2.004-4.62 2.157-.684 16.501-16.435 20.945-23 4.022-5.939 5.857-11.38 7.036-20.869 1.168-9.402.803-13.508-2.194-24.63-2.48-9.205-4.813-13.91-9.42-19.01-4.327-4.79-15.51-12.27-24.3-16.256-5.76-2.611-7.643-2.96-16.047-2.967zm-.414 26.238c3.568-.006 13.59 4.889 18.795 9.178 4.784 3.944 8.113 14.593 7.222 23.112-.756 7.238-1.334 8.306-10.04 18.51-10.362 12.143-11.585 14.05-11.598 18.093-.01 3.004-.588 3.974-3.471 5.842l-3.457 2.24-1.131-2.111c-.622-1.162-2.181-5.931-3.465-10.598-1.707-6.206-2.082-9.145-1.398-10.943 1.797-4.727 1.088-9.815-1.95-14.008-2.26-3.12-3.127-5.82-4.013-12.477-2.002-15.039-1.77-18.537 1.457-21.906 2.961-3.09 7.805-4.923 13.049-4.932zm-39.444 98.924l2.903 4.008c3.16 4.362 10.088 8.757 19.148 12.145 5.425 2.029 5.783 2.365 5.783 5.433 0 2.19-.579 3.497-1.75 3.953-2.656 1.035-25.335 1.526-28.75.623-1.65-.436-4.673-1.505-6.717-2.377l-3.714-1.584 3.396-5.814a1680.05 1680.05 0 0 1 6.549-11.102l3.152-5.285zm-27.025 45.108l4.752 2.408c8.276 4.194 15.765 5.55 31.256 5.658 7.893.055 15.637-.232 17.209-.637 3.287-.846 4.603.499 4.627 4.73.008 1.484 2.1 10.709 4.648 20.5 5.9 22.675 8.716 35.953 8.016 37.778-.303.79-2.356 2.356-4.56 3.48-2.206 1.126-5.5 2.046-7.321 2.046-4.31 0-11.866-4.986-20.237-13.356-8.803-8.803-14.235-10.902-29.03-11.209-6.05-.125-11.997-.275-13.216-.332-3.55-.166-8.91-5.585-10.08-10.193-.806-3.176-.696-5.26.489-9.254 2.205-7.438 9.137-24.608 11.46-28.387l1.987-3.232zM350.01 532.363c-5.991-.178-12.795.914-20.285 3.301-10.8 3.442-16.542 8.066-21.004 16.918-9.122 18.094-10.616 31.748-6.293 57.477 4.437 26.407 7.456 34.76 16.422 45.43l2.88 3.429-8.36 5.076c-19.196 11.653-26.405 19.503-26.358 28.701.063 12.616 11.844 22.707 29.728 25.465 2.338.36 4.25.792 4.25.96 0 .167-1.449 5.622-3.22 12.122-3.17 11.631-3.22 12.142-3.1 32.45.162 27.655 2.703 46.329 8.297 60.954 2.836 7.416 7.958 12.787 13.523 14.18 3.719.931 15.098.74 21.012-.353 22.277-4.118 32.022-21.666 34.662-62.414 1.391-21.476.503-41.635-2.639-59.932-2.029-11.815-2.299-15.103-1.298-15.746 1.817-1.17 11.633-4.822 12.957-4.822 2.69 0 7.79-5.22 8.814-9.026 2.302-8.55-1.368-14.081-12.297-18.53-3.968-1.614-5.151-2.576-4.963-4.032.136-1.052.966-6.412 1.844-11.912 2.585-16.194 1.244-38.504-3.666-61-2.947-13.503-12.948-39.335-18.322-47.327-4.874-7.246-12.599-11.071-22.584-11.369zm-1.684 26.504c1.668-.067 2.259.613 3.66 2.899 7.346 11.978 15.799 43.726 17.528 65.83.872 11.147-1.424 25.34-5.592 34.574-2.033 4.503-3.354 9.387-3.815 14.1-.387 3.965-.909 7.372-1.16 7.57-.25.198-2.82 1.316-5.707 2.484-5.05 2.044-5.25 2.052-5.25.244 0-3.389 1.732-6.526 4.383-7.945 3.924-2.1 5.848-5.763 5.848-11.13 0-5.166-1.318-7.317-16.037-26.173-3.469-4.443-6.904-9.245-7.635-10.67-1.494-2.912-3.422-11.62-6.705-30.277-2.17-12.334-2.187-12.902-.545-20.469 2.586-11.915 5.243-16.502 10.691-18.459 2.475-.888 6.182-1.92 8.239-2.293.864-.157 1.541-.262 2.097-.285zm13.352 152.9l2.406 14.147c2.02 11.877 2.378 17.13 2.232 32.758-.233 25.09-3.55 44.549-8.595 50.414-1.494 1.736-3.618 2.784-6.41 3.158-4.155.557-4.183.54-5.194-3.312-3.9-14.86-4.587-21.182-4.607-42.373-.019-19.667.176-22.122 2.275-28.803 1.263-4.017 2.645-10.199 3.07-13.736.426-3.538.969-6.626 1.206-6.862.236-.236 3.397-1.545 7.023-2.91l6.594-2.48zM492.457 108.922c-1.659.09-3.367.272-5.15.537-13.865 2.062-21.687 7.088-29.76 19.121-7.296 10.874-9.86 19.06-10.352 33.063-.488 13.907.81 19.89 7.465 34.408 12.273 26.774 14.33 31.559 14.33 33.33 0 1.65-.95 1.979-7.008 2.412-12.817.917-25.454 9.344-27.959 18.646-2.965 11.012 3.684 20.783 18.45 27.112 5.704 2.445 6.25 4.984 2.947 13.701-15.292 40.349-16.905 46.747-16.19 64.195.503 12.246 1.672 16.935 6.915 27.705 3.754 7.713 11.89 15.842 18.4 18.383 9.455 3.692 18.125 2.255 34.332-5.687 8.754-4.29 13.002-7.106 18.377-12.176 8.643-8.154 15.108-16.454 18.185-23.352 5.402-12.107 3.792-31.951-4.396-54.191-5.697-15.474-5.77-15.704-6.918-21.863l-.893-4.795 4.63-2.36c9.166-4.67 10.493-11.957 4.126-22.673-2.201-3.706-5.166-7.652-6.588-8.77l-2.584-2.033 2.68-8.287c1.474-4.558 5.094-14.667 8.047-22.463 9.307-24.573 12.596-37.158 13.176-50.416.856-19.577-2.889-27.583-18.225-38.96-15.268-11.325-24.426-15.214-36.037-14.587zm2.74 26.687c2.947.38 6.008 1.648 9.362 3.827 3.28 2.131 8.208 5.908 10.949 8.392l4.982 4.518-.117 7.357c-.142 8.889-3.797 22.016-12.908 46.356-3.5 9.35-7.096 19.587-7.99 22.75-.895 3.162-1.8 5.75-2.01 5.75-.211 0-.637-1.688-.947-3.75-1.387-9.211-5.248-20.05-13.166-36.963-10.31-22.02-11.71-27.913-9.045-38.075 2.089-7.966 7.68-16.508 12.214-18.66 2.896-1.373 5.73-1.881 8.676-1.502zm2.133 119.227c1.768-.458 1.916.698-.447 2.666-2.475 2.06-10.576 2.972-9.393 1.057.34-.55 1.534-1 2.655-1 1.12 0 3.33-.764 4.91-1.698.916-.54 1.686-.872 2.275-1.025zm-10.012 31.037c1.239-.022 2.85.06 4.537.25l6.135.695v3.38c0 1.858 2.49 10.237 5.533 18.62 8.487 23.38 10.239 34.2 6.737 41.59-3.184 6.718-14.918 17.41-24.135 21.992-4.601 2.287-9.19 4.159-10.2 4.159-2.345 0-6.141-5.106-8.55-11.5-1.386-3.68-1.85-7.377-1.758-14.002.138-9.851 2.525-18.306 11.762-41.66 2.53-6.396 5.128-14.038 5.773-16.983.646-2.945 1.488-5.722 1.871-6.17.192-.224 1.057-.35 2.295-.371zm207.995 103.19l-210.938 84.375 210.938-84.375z" fill="url(#d)" transform="translate(-216.5 -32.56)"/></svg>