<svg xmlns:osb="http://www.openswatchbook.org/uri/2009/osb" xmlns="http://www.w3.org/2000/svg" height="949.786" width="585.258"><defs><linearGradient osb:paint="solid" id="c"><stop offset="0" stop-color="#fff"/></linearGradient><linearGradient osb:paint="solid" id="b"><stop offset="0"/></linearGradient><linearGradient osb:paint="solid" id="d"><stop offset="0" stop-color="#002b11"/></linearGradient><linearGradient osb:paint="solid" id="a"><stop offset="0" stop-color="#162d50"/></linearGradient></defs><path d="M633.107 42.355c-7.657-.16-19.152-.106-38.052.088-21.275.219-32.603.364-40.159.752-3.778.195-6.613.45-9.277.805-2.664.356-5.157.813-8.252 1.41-12.816 2.472-20.342 3.94-25.603 5.028-5.262 1.088-8.259 1.798-12.016 2.753-4.191 1.066-8.88 1.938-10.42 1.938-1.464 0-5.308.69-11.734 2.111-6.426 1.422-15.435 3.577-27.227 6.51-7.31 1.819-17.079 4.705-26.197 7.652a435.9 435.9 0 0 0-12.803 4.342c-3.846 1.38-7.142 2.65-9.5 3.684-3.025 1.327-8.65 3.43-12.5 4.674-2.355.76-7.071 2.776-13.039 5.503-5.968 2.728-13.186 6.166-20.547 9.772a1030.71 1030.71 0 0 0-21.398 10.775c-6.534 3.398-12.1 6.419-15.586 8.52-3.08 1.856-6.64 4.26-9.893 6.637-3.253 2.377-6.2 4.727-8.056 6.478-1.418 1.338-2.604 2.516-3.659 3.68a35.72 35.72 0 0 0-2.87 3.588c-1.785 2.552-3.446 5.617-5.782 10.338-1.619 3.272-3.002 6.266-4.187 9.113a93.24 93.24 0 0 0-3.008 8.228 81.524 81.524 0 0 0-2.07 8.116c-.56 2.772-1.004 5.656-1.372 8.779-1.057 8.984-1.564 12.817-4.558 34.5-.874 6.325-2.387 18.455-3.363 26.955l-1.778 15.455 2.834 2.385c.625.525 1.114.979 1.496 1.441.383.463.658.936.856 1.498.395 1.125.477 2.61.474 5.106-.002 1.557-.234 3.927-.607 6.494-.373 2.566-.886 5.328-1.45 7.666-.634 2.635-1.233 6.335-1.743 10.662-.51 4.327-.932 9.28-1.215 14.422-.502 9.121-1.136 17.221-1.408 18-.273.779-.962 6.59-1.532 12.916-.376 4.18-.94 8.098-1.816 12.361-.875 4.263-2.061 8.87-3.684 14.428-1.336 4.577-2.398 8.313-3.256 11.588-.858 3.275-1.511 6.09-2.037 8.82-.525 2.731-.92 5.38-1.26 8.324-.338 2.945-.62 6.186-.917 10.102-.501 6.595-1.385 14.665-1.965 17.934-1.337 7.532-3.708 24.477-5.588 39.943-2.201 18.105-3.46 27.924-5.065 39.5-.898 6.485-1.81 14.49-2.847 25.185-1.038 10.695-2.203 24.078-3.606 41.315-.582 7.15-1.724 17.95-2.539 24-.815 6.05-1.477 12.932-1.47 15.293.005 2.36-.846 9.56-1.895 16-.917 5.627-1.63 10.48-2.186 15.59-.555 5.11-.952 10.475-1.232 17.125s-.444 14.583-.537 24.83c-.093 10.247-.114 22.807-.106 38.709.008 15.635.033 27.813.123 37.7.09 9.89.245 17.489.514 23.968.27 6.479.652 11.838 1.197 17.246.546 5.408 1.253 10.864 2.172 17.539.38 2.76.956 5.825 1.668 8.996a159.861 159.861 0 0 0 2.492 9.63 140.703 140.703 0 0 0 2.965 9.063c1.029 2.794 2.077 5.295 3.088 7.301 1.454 2.884 3.48 6.335 5.854 10.047a243.676 243.676 0 0 0 7.945 11.613c2.85 3.928 5.826 7.81 8.705 11.34 2.88 3.53 5.662 6.707 8.127 9.225 1.385 1.415 3.026 2.871 4.879 4.343a90.687 90.687 0 0 0 6.144 4.446 130.693 130.693 0 0 0 7.135 4.41 162.586 162.586 0 0 0 7.852 4.236 174.637 174.637 0 0 0 16.761 7.397 143.938 143.938 0 0 0 8.362 2.885 107.76 107.76 0 0 0 7.984 2.156c3.575.81 9.875 2.587 14 3.945 5.165 1.7 10.804 3.297 16.707 4.738a277.863 277.863 0 0 0 18.293 3.807c5.775 1.002 12.975 2.492 16 3.31 4.118 1.116 9.032 2.273 14.748 3.473 5.717 1.2 12.237 2.443 19.563 3.73 14.652 2.575 32.533 5.326 53.69 8.26 2.382.331 9.603.582 19.288.752 9.686.17 21.835.26 34.08.268 12.245.007 24.585-.068 34.647-.227 10.062-.158 17.848-.4 20.984-.728 3.537-.37 7.74-.997 12.223-1.797 4.483-.8 9.248-1.771 13.906-2.826 4.658-1.055 9.21-2.194 13.272-3.33 4.06-1.136 7.629-2.267 10.32-3.309 4.829-1.869 14.621-6.24 21.762-9.717 2.87-1.397 5.18-2.55 7.15-3.613 1.97-1.062 3.603-2.033 5.117-3.06a47.312 47.312 0 0 0 4.412-3.407c1.501-1.294 3.107-2.797 5.037-4.658a117.88 117.88 0 0 0 6.297-6.55 114.999 114.999 0 0 0 5.819-7.096 123.026 123.026 0 0 0 5.423-7.793 143.09 143.09 0 0 0 5.11-8.645c1.66-3.04 3.281-6.245 4.879-9.644 1.597-3.4 3.17-6.99 4.732-10.8 3.125-7.618 6.208-16.108 9.36-25.671a497.105 497.105 0 0 0 5.939-19.412 516.68 516.68 0 0 0 5.076-19.22c1.494-6.153 2.763-11.94 3.727-17.028.964-5.09 1.622-9.48 1.894-12.84.312-3.85 1.456-14.425 2.543-23.5 1.088-9.075 2.67-24.15 3.518-33.5.847-9.35 1.807-17.675 2.133-18.5.325-.825.958-16.575 1.408-35 .253-10.39.554-19.727.922-28.268.368-8.54.803-16.285 1.322-23.486a525.579 525.579 0 0 1 1.828-20.232 440.021 440.021 0 0 1 2.447-18.514c.405-2.634.806-7.943 1.145-14.752.34-6.809.617-15.116.773-23.748.274-15.107.62-26.249 1.23-36.793.612-10.544 1.49-20.49 2.83-33.207.841-7.975 1.955-20.35 2.477-27.5.491-6.72.972-12.422 1.649-19.145.677-6.722 1.549-14.464 2.82-25.26.816-6.927 1.487-15.63 1.492-19.34.005-3.709.72-13.276 1.592-21.259.475-4.352.81-9.504 1.006-15.266.196-5.761.254-12.132.176-18.925a612.506 612.506 0 0 0-.64-21.455 704.57 704.57 0 0 0-1.446-22.85 6300.44 6300.44 0 0 1-2.684-35c-.29-3.988-.77-8.625-1.312-12.885s-1.145-8.14-1.678-10.615c-1.066-4.95-2.217-11.25-2.559-14-.341-2.75-1.979-10.175-3.638-16.5-1.805-6.88-3.133-12.664-4.266-18.899-1.133-6.234-2.071-12.918-3.096-21.601-.58-4.915-1.135-9.18-1.712-13.002-.578-3.821-1.176-7.199-1.838-10.34a121.874 121.874 0 0 0-2.221-8.918 141 141 0 0 0-2.867-8.74c-2.187-6.05-5.228-15.124-6.758-20.164a106.964 106.964 0 0 0-2.594-7.49c-.892-2.29-1.739-4.186-2.328-5.14-.794-1.283-1.827-2.626-3.035-3.97a45.805 45.805 0 0 0-4.078-3.974 52.46 52.46 0 0 0-4.72-3.635 43.76 43.76 0 0 0-4.962-2.945c-1.638-.824-3.74-1.719-6.078-2.616a141.347 141.347 0 0 0-7.492-2.619 136.775 136.775 0 0 0-7.541-2.183c-2.37-.607-4.52-1.07-6.223-1.313-2.475-.354-8.935-1.5-14.357-2.547-5.422-1.047-11.687-1.904-13.922-1.904-2.235 0-7.84-.708-12.455-1.572a57.272 57.272 0 0 0-5.973-.79c-2.355-.197-5.224-.331-9.053-.412z" style="isolation:auto;mix-blend-mode:normal" color="#000" overflow="visible" fill="url(#c)" transform="translate(-207.371 -25.107)"/><path d="M598.139 25.107c-12.584.006-22.464.043-30.578.18-8.115.137-14.463.375-19.985.781-5.521.407-10.216.983-15.021 1.797-4.806.815-9.722 1.867-15.688 3.227-4.675 1.066-11.2 2.436-14.5 3.045-14.369 2.652-27.257 5.258-38.797 7.845-11.539 2.588-21.729 5.156-30.703 7.737-7.542 2.169-15.924 4.825-23.045 7.254-7.12 2.428-12.98 4.628-15.474 5.88-2.189 1.1-8.256 3.418-13.48 5.15-2.814.934-7.975 3.147-14.366 6.087s-14.013 6.607-21.746 10.443C337.023 88.37 329.179 92.376 322.34 96c-6.839 3.624-12.672 6.866-16.381 9.168-3.662 2.273-7.061 4.636-10.207 7.096a92.783 92.783 0 0 0-8.684 7.681 79.257 79.257 0 0 0-7.205 8.31 73.03 73.03 0 0 0-5.771 8.99 120.026 120.026 0 0 0-5.12 10.614 115.45 115.45 0 0 0-4.01 11.047 128.974 128.974 0 0 0-3.009 11.819c-.847 4.106-1.544 8.397-2.11 12.931-1.03 8.265-2.606 19.961-3.501 25.99-1.579 10.631-4.373 34.171-6.567 55.311-.297 2.868-.494 6.803-.572 10.865-.078 4.063-.037 8.254.14 11.635.565 10.729.83 18.948.784 26.084a202.783 202.783 0 0 1-.303 10.07 192.105 192.105 0 0 1-.773 9.518c-.765 7.254-1.174 11.01-2.069 15.262-.894 4.251-2.273 8.999-4.978 18.238-1.09 3.72-1.994 6.997-2.76 10.082a139.627 139.627 0 0 0-1.928 8.934 151.765 151.765 0 0 0-1.367 9.298c-.393 3.33-.738 6.975-1.082 11.186-.407 4.996-.728 8.377-1.351 13.13-.624 4.755-1.552 10.882-3.176 21.37-.767 4.95-1.885 13.725-2.485 19.5-.599 5.775-1.5 12.975-2.003 16-.504 3.025-1.424 9.775-2.045 15a6825.011 6825.011 0 0 1-2.045 17c-.769 6.299-1.754 15.926-2.727 26.416-.973 10.49-1.933 21.84-2.652 31.584-.751 10.175-1.828 22.1-2.395 26.5-2.625 20.391-4.463 33.49-5.476 39-.374 2.031-.652 10.314-.838 25.197-.186 14.883-.28 36.367-.285 64.803l-.018 84 2.738 16c.868 5.068 1.758 9.621 2.713 13.79.956 4.17 1.976 7.955 3.102 11.485a101.718 101.718 0 0 0 3.736 9.955 99.748 99.748 0 0 0 4.62 9.202c2.854 5.04 6.153 10.245 9.683 15.345 3.53 5.1 7.29 10.096 11.06 14.723 3.772 4.627 7.555 8.884 11.135 12.506a102.902 102.902 0 0 0 5.19 4.924c1.66 1.46 3.243 2.728 4.72 3.771 4.104 2.897 9.816 6.413 15.371 9.553 5.556 3.14 10.953 5.901 14.428 7.287 5.042 2.01 10.65 4.018 15.83 5.701 5.18 1.684 9.932 3.044 13.266 3.756 3.628.775 8.854 2.3 11.613 3.387 2.76 1.087 8.41 2.68 12.56 3.537 4.15.857 8.761 2.02 10.245 2.584 1.483.564 7.037 1.716 12.342 2.56 5.304.845 13.02 2.387 17.144 3.428 8.53 2.152 16.44 3.939 24.7 5.549 8.26 1.61 16.87 3.043 26.8 4.49 11.55 1.683 24.825 3.683 29.5 4.443 1.609.262 4.823.481 9.236.66 4.414.18 10.026.32 16.43.42 12.808.203 28.783.253 44.668.169 15.886-.085 31.682-.305 44.133-.641 6.225-.168 11.614-.365 15.76-.59 4.145-.225 7.047-.477 8.299-.754 7.48-1.655 13.836-3.154 19.52-4.654 5.682-1.5 10.692-3.002 15.48-4.66 4.787-1.658 9.351-3.474 14.146-5.602s9.82-4.57 15.523-7.48a99.605 99.605 0 0 0 8.374-4.793 97.017 97.017 0 0 0 7.857-5.588c2.539-2.003 5-4.15 7.393-6.45 2.392-2.299 4.717-4.752 6.982-7.369a127.934 127.934 0 0 0 6.625-8.35 154.582 154.582 0 0 0 6.322-9.394 192.997 192.997 0 0 0 6.072-10.5 246.98 246.98 0 0 0 5.875-11.666c1.399-2.96 3.297-7.627 5.397-13.14 2.1-5.514 4.401-11.875 6.607-18.227 2.206-6.352 4.317-12.694 6.034-18.168 1.716-5.474 3.038-10.081 3.67-12.963.75-3.43 2.737-12.311 4.414-19.736a200.77 200.77 0 0 0 2.09-10.635c.673-3.95 1.338-8.424 2.042-13.781 1.41-10.713 2.978-24.955 5.079-45.584 1.092-10.725 2.482-23.325 3.09-28 .303-2.338.669-8.457 1.013-16.432.344-7.975.667-17.806.887-27.568a993.34 993.34 0 0 1 .877-24.533c.393-8.256.872-16.383 1.392-23.756.52-7.373 1.082-13.994 1.64-19.236.56-5.243 1.117-9.11 1.628-10.975.466-1.704 1.067-9.353 1.678-20.627.61-11.274 1.232-26.172 1.736-42.373.265-8.525.679-17.794 1.13-25.86.453-8.065.942-14.928 1.362-18.64.84-7.425 1.993-19.125 2.563-26 1.268-15.305 3.636-38.497 5.548-54.342.786-6.513 1.428-15.117 1.428-19.121 0-4.004.72-13.75 1.598-21.658.472-4.251.798-9.61.982-15.656.185-6.048.227-12.783.135-19.79a584.684 584.684 0 0 0-.678-21.412c-.358-7.128-.846-14.108-1.459-20.521-.84-8.8-2.026-24.325-2.634-34.5-.304-5.088-.747-10.5-1.217-15.121-.47-4.622-.968-8.454-1.377-10.38-.82-3.85-2.095-10.824-2.834-15.5-.77-4.866-1.212-7.556-1.93-10.81-.718-3.253-1.713-7.07-3.59-14.19-1.305-4.95-2.234-9.106-3.31-15.634-1.077-6.528-2.3-15.427-4.192-29.865a197.748 197.748 0 0 0-1.554-10c-.581-3.166-1.23-6.186-1.965-9.135a134.64 134.64 0 0 0-2.479-8.7 150.251 150.251 0 0 0-3.101-8.689c-1.831-4.688-4.496-12.555-5.924-17.484-.714-2.464-1.601-5.1-2.453-7.361-.852-2.262-1.67-4.149-2.248-5.115a56.329 56.329 0 0 0-5.26-7.35 61.456 61.456 0 0 0-6.455-6.578 63.824 63.824 0 0 0-15.684-10.123c-3.888-1.759-10.106-4-15.76-5.801-2.826-.9-5.512-1.692-7.695-2.258-2.183-.565-3.862-.906-4.678-.906-1.367 0-7.267-.876-13.11-1.947-6.246-1.145-11.455-2.037-16.528-2.729a206.375 206.375 0 0 0-15.713-1.535c-5.703-.35-12.171-.555-20.307-.672-8.135-.117-17.938-.144-30.308-.139zm34.968 17.248c3.829.08 6.698.215 9.053.413 2.356.197 4.198.456 5.973.789 4.615.864 10.22 1.572 12.455 1.572 2.235 0 8.5.857 13.922 1.904 5.422 1.047 11.882 2.193 14.357 2.547 1.703.244 3.853.706 6.223 1.313 2.37.607 4.96 1.359 7.54 2.183 2.582.825 5.155 1.723 7.493 2.62 2.338.896 4.44 1.791 6.078 2.615a43.76 43.76 0 0 1 4.961 2.945 52.46 52.46 0 0 1 4.72 3.635 45.805 45.805 0 0 1 4.079 3.974c1.208 1.344 2.241 2.687 3.035 3.97.589.954 1.436 2.85 2.328 5.14.892 2.289 1.83 4.97 2.594 7.49 1.53 5.04 4.57 14.114 6.758 20.164a141 141 0 0 1 2.867 8.74 121.874 121.874 0 0 1 2.22 8.918c.663 3.141 1.261 6.519 1.839 10.34.577 3.821 1.133 8.087 1.712 13.002 1.025 8.683 1.963 15.367 3.096 21.601 1.133 6.235 2.46 12.02 4.266 18.899 1.66 6.325 3.297 13.75 3.638 16.5.342 2.75 1.493 9.05 2.56 14 .532 2.475 1.135 6.356 1.677 10.615.542 4.26 1.023 8.897 1.312 12.885a6300.44 6300.44 0 0 0 2.684 35 704.57 704.57 0 0 1 1.445 22.85 612.53 612.53 0 0 1 .64 21.455c.079 6.793.021 13.164-.175 18.925-.196 5.762-.53 10.914-1.006 15.266-.871 7.983-1.587 17.55-1.592 21.26-.005 3.71-.676 12.412-1.492 19.34-1.271 10.795-2.143 18.537-2.82 25.26a665.601 665.601 0 0 0-1.649 19.144c-.522 7.15-1.636 19.525-2.476 27.5-1.34 12.717-2.219 22.663-2.83 33.207-.612 10.544-.957 21.686-1.23 36.793-.157 8.632-.435 16.94-.774 23.748-.34 6.809-.74 12.118-1.145 14.752a440.021 440.021 0 0 0-2.447 18.514 525.579 525.579 0 0 0-1.828 20.232c-.519 7.201-.954 14.946-1.322 23.486-.368 8.54-.669 17.878-.922 28.268-.45 18.425-1.083 34.175-1.408 35-.326.825-1.286 9.15-2.133 18.5-.848 9.35-2.43 24.425-3.518 33.5-1.087 9.075-2.231 19.65-2.543 23.5-.272 3.36-.93 7.75-1.894 12.84-.964 5.089-2.233 10.875-3.727 17.027a516.68 516.68 0 0 1-5.076 19.22 497.105 497.105 0 0 1-5.94 19.413c-3.15 9.563-6.234 18.053-9.359 25.672-1.562 3.809-3.135 7.4-4.732 10.799a178.418 178.418 0 0 1-4.88 9.644 143.09 143.09 0 0 1-5.109 8.645 123.026 123.026 0 0 1-5.423 7.793 114.999 114.999 0 0 1-5.819 7.095 117.88 117.88 0 0 1-6.297 6.551c-1.93 1.861-3.536 3.364-5.037 4.658a47.312 47.312 0 0 1-4.412 3.407c-1.514 1.027-3.146 1.998-5.117 3.06-1.97 1.062-4.28 2.216-7.15 3.613-7.14 3.476-16.933 7.848-21.762 9.717-2.691 1.042-6.26 2.173-10.32 3.309-4.061 1.136-8.614 2.275-13.272 3.33a311.292 311.292 0 0 1-13.906 2.826c-4.484.8-8.686 1.428-12.223 1.797-3.136.327-10.922.57-20.984.728-10.062.16-22.402.234-34.647.227-12.245-.007-24.394-.097-34.08-.268-9.685-.17-16.906-.421-19.289-.752-21.156-2.934-39.037-5.685-53.69-8.26-7.325-1.287-13.845-2.53-19.562-3.73-5.716-1.2-10.63-2.357-14.748-3.472-3.025-.82-10.225-2.309-16-3.311a277.863 277.863 0 0 1-18.293-3.807c-5.903-1.44-11.542-3.037-16.707-4.738-4.125-1.358-10.425-3.134-14-3.945a107.76 107.76 0 0 1-7.984-2.156 143.938 143.938 0 0 1-8.362-2.885 174.637 174.637 0 0 1-16.761-7.397 162.586 162.586 0 0 1-7.852-4.236 130.693 130.693 0 0 1-7.135-4.41 90.687 90.687 0 0 1-6.144-4.446c-1.853-1.472-3.494-2.928-4.879-4.343-2.465-2.518-5.247-5.695-8.127-9.225a255.664 255.664 0 0 1-8.705-11.34c-2.85-3.927-5.571-7.9-7.945-11.613-2.374-3.712-4.4-7.163-5.854-10.047-1.011-2.006-2.06-4.507-3.088-7.3a140.703 140.703 0 0 1-2.965-9.063c-.928-3.182-1.78-6.46-2.492-9.631-.712-3.171-1.288-6.236-1.668-8.996-.919-6.675-1.626-12.131-2.172-17.54-.545-5.407-.928-10.766-1.197-17.245-.269-6.48-.424-14.079-.514-23.967-.09-9.888-.115-22.066-.123-37.701-.008-15.902.013-28.462.106-38.71.093-10.246.256-18.18.537-24.83.28-6.649.677-12.015 1.232-17.124.555-5.11 1.27-9.963 2.186-15.59 1.049-6.44 1.9-13.64 1.894-16-.006-2.36.656-9.243 1.471-15.293.815-6.05 1.957-16.85 2.54-24 1.402-17.237 2.567-30.62 3.605-41.315 1.037-10.694 1.949-18.7 2.847-25.185 1.605-11.576 2.864-21.395 5.065-39.5 1.88-15.466 4.25-32.411 5.588-39.943.58-3.27 1.464-11.34 1.965-17.934.297-3.916.579-7.157.918-10.102.338-2.944.734-5.593 1.26-8.324.525-2.73 1.178-5.545 2.036-8.82.858-3.275 1.92-7.011 3.256-11.588 1.623-5.557 2.809-10.165 3.684-14.428.875-4.263 1.44-8.181 1.816-12.361.57-6.325 1.26-12.137 1.532-12.916.272-.779.906-8.879 1.408-18 .283-5.142.704-10.095 1.215-14.422.51-4.327 1.109-8.027 1.744-10.662.563-2.338 1.076-5.1 1.449-7.666.373-2.567.605-4.937.607-6.494.003-2.497-.08-3.981-.474-5.106a4.763 4.763 0 0 0-.856-1.498c-.382-.462-.871-.916-1.496-1.441l-2.834-2.385 1.778-15.455c.976-8.5 2.49-20.63 3.363-26.955 2.994-21.683 3.5-25.516 4.558-34.5.368-3.123.811-6.007 1.371-8.78a81.524 81.524 0 0 1 2.07-8.115 93.24 93.24 0 0 1 3.009-8.228c1.185-2.847 2.568-5.841 4.187-9.113 2.336-4.721 3.997-7.786 5.781-10.338a35.72 35.72 0 0 1 2.871-3.588c1.055-1.164 2.24-2.342 3.659-3.68 1.856-1.75 4.803-4.101 8.056-6.478 3.254-2.378 6.813-4.781 9.893-6.637 3.487-2.101 9.052-5.122 15.586-8.52a1030.71 1030.71 0 0 1 21.398-10.775c7.361-3.606 14.58-7.044 20.547-9.772 5.968-2.727 10.684-4.743 13.04-5.503 3.85-1.244 9.474-3.347 12.5-4.674 2.357-1.034 5.653-2.304 9.5-3.684a435.9 435.9 0 0 1 12.802-4.342c9.118-2.947 18.887-5.833 26.197-7.652 11.792-2.933 20.8-5.088 27.227-6.51 6.426-1.422 10.27-2.111 11.734-2.111 1.54 0 6.229-.872 10.42-1.938 3.757-.955 6.754-1.665 12.016-2.754 5.261-1.088 12.787-2.555 25.603-5.027 3.095-.597 5.588-1.054 8.252-1.41 2.664-.356 5.5-.61 9.277-.805 7.556-.388 18.884-.533 40.159-.752 18.9-.194 30.395-.248 38.052-.088z" style="isolation:auto;mix-blend-mode:normal" color="#000" overflow="visible" fill="url(#b)" transform="translate(-207.371 -25.107)"/><path d="M346.113 541.287c-13.917-.177-29.093 1.712-38.869 5.367-12.824 4.795-22.66 13.222-27.967 23.96-3.265 6.607-3.615 8.104-3.568 15.247.08 12.268 4.969 22.738 13.85 29.657 2.48 1.931 4.873 3.647 5.32 3.812 1.492.551 5.124 30.1 5.703 46.406l.572 16.106-9.318 4.894c-11.917 6.258-19.403 13.021-23.125 20.889-4.526 9.568-3.446 16.133 3.685 22.395 4.519 3.967 8.186 5.63 18.971 8.603l8 2.205.598 16.4c.329 9.02.936 18.225 1.348 20.456.513 2.78.235 5.766-.883 9.5-2.55 8.516-4.176 29.604-2.864 37.15 1.033 5.937.973 6.38-1.043 7.795-10.083 7.076-16.325 17.693-15.332 26.08 1.678 14.166 11.563 25.301 31.264 35.215 11.266 5.67 16.5 6.606 37.912 6.79 22.845.198 23.528.017 48.836-12.9 24.026-12.262 28.285-16.732 26.254-27.556-1.341-7.15-12.823-16.781-23.338-19.576-4.064-1.08-4.187-1.224-2.855-3.34 1.93-3.067 3.34-18.265 6.611-71.213.476-7.7.893-14.338.928-14.75.035-.413 2.359-.75 5.162-.75 5.028 0 5.225.12 14.846 8.998l9.752 8.996-1.815 5.254c-4.557 13.19-.04 23.625 13.084 30.234 11.798 5.942 19.428 6.869 50.994 6.201 28.991-.613 35.055-1.356 49.51-6.078 12.421-4.057 18.214-8.996 20.498-17.478 1.413-5.25 1.815-20.518.66-25.082l-.875-3.453 2.375 1.742c1.306.958 3.63 2.511 5.164 3.453 2.624 1.61 2.754 2.012 2.158 6.713-.348 2.75-1.687 10.175-2.974 16.5-1.287 6.325-2.87 15.76-3.52 20.965-.652 5.23-2.023 11.038-3.066 12.984-1.925 3.592-2.5 10.54-1.059 12.809 1.357 2.136-4.903 13.5-9.81 17.808-6.587 5.784-7.878 7.384-10.68 13.242-5.729 11.977-3.528 22.56 6.022 28.942 5.214 3.485 18.875 8.157 32.638 11.164 7.06 1.542 13.243 1.877 36.5 1.973 24.986.102 29.171-.118 38.87-2.05 11.924-2.374 15.8-4.604 18.267-10.507 3.101-7.422 1.104-14.32-9.434-32.578-3.411-5.912-6.203-11.324-6.203-12.027 0-.704-.685-2.258-1.523-3.456-1.33-1.897-1.394-4.778-.498-22.472.959-18.938 2.068-33.555 3.554-46.87l.623-5.572 7.172-2.113c13.046-3.842 23.999-8.513 27.516-11.736 2.984-2.735 3.53-3.955 3.93-8.781.374-4.518.051-6.273-1.668-9.055-3.057-4.946-9.564-9.948-21.862-16.805-5.909-3.294-11.083-6.325-11.5-6.734-.997-.981 6.31-70.76 7.504-71.647.14-.103 2.844-1.356 6.012-2.785 10.934-4.93 27.858-20.332 31.738-28.883 4.483-9.879 1.472-21.43-7.847-30.103-4.734-4.405-17.79-11.713-20.926-11.713-.733 0-6.145-1.669-12.028-3.71l-10.697-3.71-29-.363c-26.436-.332-29.913-.177-39.334 1.746-5.684 1.16-12.478 2.924-15.1 3.92-7.148 2.716-15.454 8.626-18.689 13.299-2.59 3.742-2.877 4.96-2.877 12.26 0 7.167.387 8.887 3.342 14.888 1.837 3.731 5.536 9.423 8.219 12.646l4.877 5.862-8.72 7.238c-4.794 3.981-10.518 8.923-12.718 10.984l-4 3.748-16 .436c-12.63.344-17.214.86-21.767 2.447l-5.77 2.012-.57-2.602c-1.41-6.414-2.663-8.972-5.969-12.173-3.342-3.237-3.914-3.423-10.232-3.34-7.76.1-14.135 2.594-31.592 12.351-5.996 3.351-10.976 5.973-11.067 5.827-4.723-7.636-17.745-23.978-25.824-32.409l-4.928-5.142 2.36-3.201c2.06-2.797 2.343-4.237 2.224-11.358-.139-8.383-3.348-20.734-7.523-28.951-5.883-11.58-23.774-23.255-44.342-28.934-6.006-1.658-13.903-2.507-22.254-2.613zm-1.14 23.25c10.83.138 20.388 2.71 31.443 8.139 11.614 5.702 14.932 9.134 17.912 18.533l2.33 7.352-4.32 3.802c-4.92 4.332-6.178 8.094-4.451 13.324 1.021 3.096.934 3.838-.67 5.61-1.733 1.913-1.881 5.241-2.35 53.185-.491 50.259-.535 51.15-2.5 51.276-1.1.07-14.15-.906-29-2.17-14.85-1.264-27.487-2.335-28.084-2.379-.725-.053-.933-2.813-.627-8.33.252-4.538.556-8.366.678-8.51.122-.143 5.129.492 11.127 1.412 5.998.92 14.159 1.712 18.135 1.76 6.625.08 7.46-.142 10-2.684 2.35-2.352 2.771-3.601 2.771-8.228 0-7.935-2.258-9.815-15-12.496-5.5-1.157-13.871-2.37-18.603-2.694l-8.604-.587-.611-14.612c-.532-12.7-1.651-23.787-4.268-42.265-.495-3.496-.255-5.233.963-6.973 2.23-3.184 2.033-7.999-.537-13.092-4.426-8.773-9.978-12.2-16.035-9.896-2.544.967-2.759.8-4.36-3.39-2.149-5.628-1.41-8.493 3.592-13.919 5.417-5.876 13.09-9.088 26.463-11.074 4.408-.655 8.507-1.024 12.422-1.09a74.35 74.35 0 0 1 2.184-.004zm281.035 20.725c3.054-.011 6.288.024 9.717.101 18.68.423 22.327.768 26.642 2.514 2.75 1.113 8.69 3.017 13.197 4.232 8.136 2.194 15.772 6.192 16.764 8.778.751 1.957-1.904 5.533-7.79 10.492-7.116 5.993-12.074 8.688-18.07 9.824-7.383 1.4-10.135 4.586-12.027 13.926-1.932 9.541-4.087 26.306-6.537 50.865-1.062 10.65-2.15 19.582-2.416 19.848-.266.266-3.09-.492-6.275-1.684-7.083-2.65-10.923-2.123-14.92 2.049-2.415 2.52-2.926 3.902-2.926 7.922 0 6.73 3.322 10.027 14.256 14.154 7.4 2.793 8.326 3.417 7.832 5.258-.308 1.149-.566 5.125-.574 8.838l-.014 6.75-16.25-.168c-8.937-.093-17.912-.343-19.945-.557l-3.697-.388.537-5.194c.295-2.856 1.62-14.007 2.945-24.781 1.325-10.774 2.41-20.927 2.41-22.562 0-2.024.988-3.915 3.09-5.913 3.805-3.617 5.91-7.514 5.91-10.937 0-3.407-2.508-8.167-5.01-9.506-1.834-.982-1.99-2.11-1.99-14.51 0-13.344.018-13.451 2.39-14.047 1.316-.33 3.678-1.942 5.25-3.584 2.347-2.448 2.86-3.86 2.86-7.853 0-4.006-.512-5.402-2.89-7.885-1.59-1.66-4.244-3.315-5.897-3.678-1.653-.363-4.702-2.445-6.777-4.627-3.537-3.718-4.093-3.95-8.838-3.699-6.097.324-8.516-1.527-12.785-9.78-2.77-5.352-2.782-5.452-.813-6.632 8.686-5.203 21.26-7.492 42.64-7.566zm-215.801 60.8a.714.714 0 0 1 .36.045c1.24.45 3.37 3.804 7.017 8.625 11.24 14.86 11.59 15.447 12.408 20.7.639 4.102 1.55 5.881 4.328 8.447 1.936 1.787 4.35 3.25 5.367 3.25 1.104 0 3.306 2.115 5.467 5.25 1.99 2.887 5.657 7.249 8.149 9.691l4.531 4.442-2.734 1.884c-1.503 1.037-6.31 3.651-10.68 5.81-4.371 2.157-8.646 3.889-9.5 3.847-1.834-.09-22.82-9.486-24.734-11.074-1.04-.864-1.313-7.66-1.295-32.223.014-20.692-.342-28.424 1.316-28.694zm176.66 2.05v12.51c0 6.879-.17 12.507-.379 12.507-.208 0-.941-1.361-1.63-3.025-.69-1.665-3.39-4.946-5.999-7.292l-4.742-4.263 6.375-5.219 6.375-5.219zm-104.611 14.054c1.87-.078-.582 11.465-4.045 19.041-1.992 4.357-3.924 7.922-4.295 7.922-1.003 0-5.322-4.844-9.338-10.475l-3.547-4.972 10.168-5.74c5.593-3.157 10.569-5.756 11.057-5.776zm41.914 11.197c.435.027.67.16.658.408-.022.473-2.047 3.04-4.5 5.706-3.104 3.373-4.46 4.308-4.46 3.078 0-.973-.74-2.586-1.645-3.586-1.552-1.715-1.45-1.902 1.804-3.262 3.726-1.557 6.839-2.425 8.143-2.344zm32.127 3.012c.574-.033.941.387 1.64.748 5.936 3.07 6.93 4.873 6.93 12.576v7.223l-9.883 8.558c-5.436 4.708-12.653 11.674-16.037 15.48-5.816 6.545-6.427 6.948-11.205 7.407-7.334.705-10.375 3.99-10.375 11.205 0 6.041 2.517 9.842 7.31 11.045 1.442.362 4.524 1.526 6.85 2.586 2.327 1.06 4.671 1.926 5.21 1.926 1.717 0 7.144 6.097 8.663 9.732 1.834 4.389 1.922 12.648.15 14.118-2.924 2.427-14.95 5.262-28.183 6.646-21.088 2.206-45.638 1.535-55.146-1.506-5.155-1.649-5.649-2.249-4.291-5.228.843-1.852 2.185-2.706 4.94-3.147 5.35-.856 9.997-6.276 9.997-11.664 0-3.117-.722-4.769-3.334-7.62-2.96-3.23-4-3.69-9.25-4.103-3.253-.255-6.694-1.148-7.646-1.984-1.626-1.427-1.55-1.73 1.25-4.918 2.203-2.509 2.98-4.4 2.98-7.24 0-3.395.38-3.999 3.25-5.184 1.788-.738 6.163-3.332 9.72-5.765l6.47-4.424 6.722 7.394c6.65 7.313 6.779 7.393 11.733 7.393 4.722 0 5.33-.315 10.638-5.5 3.097-3.025 6.488-6.847 7.536-8.492 1.047-1.646 9.223-11.088 18.168-20.983 19.898-22.012 23.47-26.18 25.193-26.279zm-57.695 20.074a.194.194 0 0 1 .103.022c.364.192 1.498.648 2.52 1.013 1.661.594 1.458 1.112-1.938 4.905-4.266 4.764-4.987 5.247-5.818 3.902-.657-1.063 3.949-9.772 5.133-9.842zm-198.815 12.84a.82.82 0 0 1 .262.037c.637.208.818 1.28.818 3.303 0 3.594-.739 3.99-5.25 2.81-2.435-.636-2.188-1.82.885-4.238 1.59-1.25 2.624-1.907 3.285-1.912zm281.781 12.137a.116.116 0 0 1 .078.021c.183.131.182.842.147 2.24-.04 1.618-.393 4.967-.783 7.442-.686 4.347-.755 4.42-2.018 2.144-1.488-2.68-.831-7.628 1.406-10.585.611-.808.968-1.252 1.17-1.262zm85.889 20.23c.29.043.719.273 1.346.664 1.064.665 1.713 1.57 1.441 2.01-.99 1.602-3.377.747-3.377-1.209 0-.868.067-1.33.342-1.443a.467.467 0 0 1 .248-.022zm-344.59 3.198l6.25.585c3.438.323 16.941 1.368 30.008 2.32l23.758 1.731-.535 9.07c-1.545 26.2-2.674 43.092-3.483 52.069-.495 5.5-.922 13.228-.949 17.174-.043 6.346.259 7.537 2.613 10.336 1.464 1.74 3.69 3.553 4.946 4.03 2.2.838 2.228.985.722 4.003-1 2.005-1.355 4.416-.984 6.701.597 3.68 5.02 9.256 7.342 9.256 3.306 0 .255 1.972-12.381 8l-13.627 6.5-13.09.162c-17.167.212-22.234-.663-32.082-5.543-8.253-4.09-17.07-11.914-16.246-14.418.217-.66 2.384-2.643 4.816-4.406 8.772-6.36 10.815-8.443 12.44-12.697 1.558-4.08 1.54-4.856-.307-13.711-1.763-8.456-1.837-10.379-.738-19.387.67-5.5 2.026-11.945 3.012-14.322 1.868-4.508 1.74-12.076-.428-25.178-.5-3.025-.942-9.275-.983-13.889l-.074-8.386zM602.3 771.543l5.035.72c2.769.397 11.676.753 19.793.794l14.758.072-.545 5.75c-.3 3.162-.797 8-1.106 10.75-.744 6.637-2.247 36.537-3.27 65-.648 18.067-.55 23.59.462 25.75l1.289 2.75-17.174-.1c-21.157-.122-37.95-2.647-49.414-7.435-4.176-1.744-3.49-3.728 2.625-7.606 2.518-1.597 6.95-5.622 9.848-8.945 4.593-5.267 5.263-6.577 5.224-10.227-.024-2.302-.678-5.966-1.453-8.142-1.362-3.825-1.291-4.193 2.143-11.14 2.628-5.319 3.77-9.229 4.394-15.046.464-4.322 2.317-15.753 4.117-25.402l3.274-17.543zM655.52 119.168c-5.745-.092-11.828.237-16.22 1.02-20.776 3.702-37.695 12.076-50.314 24.906-7.566 7.692-10.466 13.677-10.923 22.535-.338 6.532-.093 7.538 3.675 15.035 5.188 10.323 16.312 22.486 25.448 27.824l6.605 3.86-2.432 3.58c-1.337 1.968-2.956 5.922-3.597 8.787l-1.166 5.209-7.114.38c-7.64.41-14.78 3.245-18.714 7.432l-2.131 2.268-3.635-2.399c-5.624-3.711-10.637-5.089-23.547-6.472-19.566-2.097-43.289.486-58.19 6.336-4.577 1.797-7.346 2.275-11.087 1.916-4.505-.433-5.334-.175-8.578 2.674-5.167 4.536-5.43 7.304-1.717 18.115 3.913 11.398 3.623 12.756-4.256 19.824l-2.64 2.37-2.696-2.12c-3.703-2.913-9.441-2.81-13.096.236-1.554 1.296-4.556 2.674-6.668 3.063-4.625.85-11.92 7.209-14.841 12.937-1.108 2.17-2.307 6.884-2.666 10.475l-.653 6.53-6.25 4.913-6.25 4.912V290.943l7.518-8.091c6.287-6.768 7.84-9.141 9.5-14.512 5.204-16.848.355-28.092-15.139-35.113-7.185-3.257-7.815-4.221-7.9-12.098-.027-2.475-.692-7.425-1.479-11-2.55-11.596-2.717-11.25 7.25-15.047 4.813-1.833 11.038-4.768 13.834-6.523 7.43-4.664 15.78-13.242 18.916-19.43 2.345-4.628 2.665-6.246 2.215-11.205-1.264-13.935-13.438-23.764-34.93-28.203-14.055-2.904-53.214-1.237-64.355 2.74-12.732 4.544-24.498 14.137-28.668 23.375-3.065 6.788-3.018 18.647.105 26.539 3.774 9.537 11.819 17.114 21.383 20.139 1.553.49 1.748 2.052 1.73 13.834-.01 7.304-.67 17.78-1.466 23.28-.797 5.5-1.465 10.29-1.483 10.643-.017.353-1.212.938-2.658 1.301-8.595 2.157-26.574 18.575-31.314 28.596-5.294 11.19-3.9 19.404 4.693 27.66 3.057 2.938 6.615 5.606 7.904 5.93 1.29.324 2.344.78 2.344 1.015 0 1.567-8.155 32.722-9.398 35.909-6.097 15.616-7.164 30.995-2.826 40.714 3.063 6.864 10.747 13.928 18.543 17.05 10.526 4.213 17.792 4.995 41.084 4.42 18.227-.451 22.39-.86 30.597-3.018 10.214-2.685 19.303-6.374 24.065-9.764 1.63-1.162 7.589-4.46 13.24-7.332 5.651-2.871 13.293-7.375 16.982-10.008l6.71-4.787 6.157 5.572c8.15 7.376 14.132 9.6 25.819 9.6 10.486 0 13.227-.866 18.363-5.809 7.02-6.755 8.151-10.062 8.158-23.826l.006-12.135 5.547 2.797c7.317 3.69 14.814 4.973 29.037 4.973h11.717l7.1 8.162 7.097 8.162-2.748 1.705c-9.693 6.014-11.552 16.514-4.22 23.846 6.448 6.448 22.775 13.638 42.47 18.7 12.596 3.236 13.623 3.34 33 3.362 20.608.025 36.622-1.506 46.223-4.416 3.807-1.154 5.972-2.565 7.988-5.209 5.93-7.773 3.647-24.289-5.527-39.998-4.523-7.744-10.186-13.29-17.01-16.654-3.99-1.967-4.28-2.368-3.71-5.146 1.299-6.333 2.479-28.8 2.507-47.725l.03-19.711 4.25-1.096c12.708-3.274 20.65-8.08 23.675-14.328 3.983-8.227 2.31-14.381-6.035-22.209-5.848-5.484-16.281-12.883-20.348-14.43-2.497-.949-2.543-1.148-2.543-11.34 0-5.705.293-13.704.65-17.775l.651-7.4 9.1-4.309c5.004-2.37 11.23-5.856 13.834-7.748 5.196-3.776 12.278-12.17 16.824-19.943 6.258-10.7 2.393-22.577-9.309-28.608-4.434-2.285-30.459-12.134-37.912-14.347-3.035-.902-8.441-1.414-14.185-1.506zm-1.965 23.963c8.4-.002 10.198.374 21 4.392 18.802 6.995 19.514 7.362 18.388 9.465-1.998 3.734-9.63 9.527-16.978 12.887-9.07 4.148-12.854 7.443-13.695 11.93-.344 1.828-1.17 3.324-1.838 3.324-.668 0-2.22 1.068-3.446 2.373-2.521 2.684-5.07 16.415-5.101 27.484-.016 5.662-.21 6.278-1.768 5.63-.962-.401-3.879-.956-6.482-1.233-3.444-.367-5.445-.04-7.342 1.203l-2.607 1.709 2.212-2.994c1.89-2.557 2.153-3.953 1.795-9.565-.51-8.004-2.179-10.055-13.814-16.976-4.382-2.607-9.374-6.148-11.094-7.867-3.755-3.755-10.393-12.602-11.213-14.944-1.287-3.678 9.782-14.572 20.041-19.724 7.894-3.964 21.973-7.091 31.942-7.094zm-264.739 9.068c8.817-.057 16.784.28 19.551 1.035 6.712 1.835 13.5 5.07 13.5 6.434 0 .71-2.035 3.083-4.523 5.273-3.26 2.87-8.219 5.426-17.75 9.153-16.614 6.495-19.89 9.38-19.672 17.32.078 2.869-.183 7.33-.58 9.916-.486 3.163-.207 6.76.855 11 .868 3.465 1.83 8.22 2.139 10.568.496 3.774.299 4.372-1.703 5.145-7.553 2.917-9.92 13.185-4.375 18.973 1.59 1.659 4.115 3.284 5.611 3.613 2.71.595 2.722.638 3.395 11.799.371 6.16.912 12.55 1.2 14.2.507 2.89.296 3.092-5.784 5.436-3.472 1.34-9.239 3.875-12.815 5.637-3.576 1.762-8.945 3.93-11.931 4.817-2.987.886-5.556 1.61-5.711 1.61-.156 0 .64-2.137 1.771-4.75 9.857-22.78 12.373-37.675 12.373-73.25v-26.5l-3.361-6.5c-5.467-10.569-10.661-15-17.588-15-4.235 0-4.397-.84-.945-4.942 4.702-5.59 10.546-8.191 21.707-9.666 6.156-.814 15.82-1.264 24.636-1.32zm242.051 83.723l3.418 3.002c2.855 2.506 7.033 4.478 16.332 7.709.866.3 1.25 3.01 1.25 8.828v8.396l-4.638.637c-2.552.35-6.987.635-9.856.635h-5.217l-.636-6.75c-.351-3.713-.641-10.284-.645-14.604l-.008-7.853zm-26.75 19.236c3.507-.027 3.75.166 3.75 2.97 0 1.65-.218 3-.484 3-.267 0-1.954-1.336-3.75-2.97l-3.266-2.97 3.75-.03zm-65.513 1.069c4.448.035 8.78.306 12.75.837 4.941.662 9.17 1.389 9.396 1.616.227.227-.708 2.103-2.08 4.17-2.39 3.6-2.73 3.759-8.129 3.77-4.971.01-6.003.378-8.764 3.138-2.267 2.267-3.265 4.339-3.625 7.53-.673 5.975 1.24 10.024 8.426 17.84 4.883 5.311 6.083 7.307 6.559 10.907.747 5.653 4.81 9.914 10.281 10.783 2.837.451 5.709 2.165 10.19 6.082 6.337 5.54 6.759 6.72 2.913 8.157-5.925 2.215-6.153 2.17-10.199-2.03-6.993-7.26-34.653-29.258-41.181-32.752-1.178-.63-3.73-1.146-5.672-1.146-4.244 0-10.04 4.59-11.06 8.762-.706 2.879-9.173 12.238-11.073 12.238-.609 0-4.45-3.097-8.537-6.883l-7.432-6.885 6.283-6.564c8.613-8.998 10.734-13.915 10.493-24.326l-.19-8.159 4.076-1.63c8.837-3.536 23.23-5.56 36.575-5.455zm43.515 14.943l5.125 4.63c5.48 4.953 10.286 7.476 17.842 9.368 3.162.792 4.922 1.83 5.34 3.146.725 2.285-.02 3.495-1.088 1.768-2.732-4.42-19.164-7.029-31.342-4.975-8.158 1.376-11.518.276-6.502-2.128 1.553-.745 4.58-3.705 6.725-6.58l3.9-5.23zm71.748 16.408v15.703c0 8.637-.422 18.998-.94 23.026-.516 4.027-1.225 11.608-1.575 16.847-.603 9.02-.782 9.61-3.358 11.088-2.675 1.535-2.783 1.49-6.424-2.695l-3.703-4.258-.008-15.83c-.005-8.707-.693-21.631-1.527-28.72-.835-7.09-1.393-12.989-1.24-13.11.152-.121 4.437-.631 9.525-1.135l9.25-.916zm-266.537 17.55c.296 0 .537 9.754.537 21.673 0 19.236-.196 21.889-1.75 23.605-1.204 1.331-1.75 3.59-1.75 7.248 0 6.6 2.29 9.377 10.356 12.551 3.104 1.222 8.065 3.57 11.023 5.219l5.379 3-3.879 2.367c-2.133 1.302-7.479 3.567-11.879 5.033-7.578 2.526-9.186 2.682-30.5 2.947-12.375.155-23.627-.083-25.006-.529-5.717-1.847-9.205-4.375-10.58-7.666-1.702-4.073-1.069-7.7 4.088-23.447 1.891-5.775 4.366-14.775 5.5-20 1.134-5.225 2.737-11.577 3.565-14.115l1.505-4.616 6.33-.648c8.495-.87 15.203-2.923 26.811-8.203 5.341-2.43 9.954-4.418 10.25-4.418zm74.938 12.067l6.55 6.15c3.603 3.383 7.195 6.729 7.983 7.436 1.238 1.112 1.194 1.551-.324 3.229-.967 1.068-4.398 4.014-7.623 6.549l-5.864 4.607-2.928-4.268c-3.734-5.448-8.4-14.664-8.001-15.802.168-.482 2.535-2.455 5.257-4.387l4.95-3.514zm66.072 10.373a.23.23 0 0 1 .098.016c.32.11 1.12.771 2.55 2.037 1.86 1.646 3.808 3.333 4.33 3.75 1.467 1.17.33.83-2.675-.8-1.499-.814-3.244-2.483-3.88-3.71-.427-.826-.601-1.268-.423-1.293zm-96.881 12.819c1.094 1.094 11.408 18.093 11.408 18.802 0 .465-1.993 2.217-4.43 3.893-2.436 1.676-4.574 3.03-4.75 3.01-.175-.02-2.09-1.553-4.253-3.405-2.164-1.851-6.008-4.616-8.543-6.144l-4.61-2.78 7.408-6.868c4.075-3.779 7.571-6.707 7.77-6.508zm168.768 4.765c.472-.012 3.816 2.847 7.43 6.356 6.328 6.145 6.534 6.499 5.628 9.658-.794 2.768-1.73 3.548-6.014 5.004l-5.074 1.725-6.588-8.133-6.588-8.133 5.174-3.227c2.846-1.775 5.559-3.237 6.032-3.25zm-108.428 7.977c1.64 0 3.287 8.056 2.594 12.68-.547 3.642-.991 4.298-2.836 4.183-4.782-.297-7.328-1.15-10.414-3.486l-3.227-2.442 6.445-5.466c3.545-3.008 6.892-5.47 7.438-5.47zm180.928 29.375c.346.104.76.657 1.449 1.72.855 1.323 2.477 4.761 3.603 7.641l2.05 5.237-2.231.48c-1.227.265-6.28.946-11.23 1.512-9.46 1.082-27.067 1.151-34.223.135-3.444-.49-4.047-.877-3.266-2.1 1.248-1.956 1.258-8.629.016-10.951-.842-1.572-.403-1.964 3.224-2.885 3.37-.855 4.513-.782 5.79.373 2.479 2.244 7.209 2.776 10.987 1.234 3.178-1.296 3.68-1.23 6.84.914 1.876 1.273 4.72 2.315 6.32 2.315 3.477 0 8.35-2.354 9.637-4.654.41-.732.688-1.076 1.034-.971z" fill="url(#d)" transform="translate(-207.371 -25.107)"/></svg>