<svg xmlns:osb="http://www.openswatchbook.org/uri/2009/osb" xmlns="http://www.w3.org/2000/svg" height="930.16" width="555.52"><defs><linearGradient osb:paint="solid" id="c"><stop offset="0" stop-color="#fff"/></linearGradient><linearGradient osb:paint="solid" id="b"><stop offset="0"/></linearGradient><linearGradient osb:paint="solid" id="d"><stop offset="0" stop-color="#002b11"/></linearGradient><linearGradient osb:paint="solid" id="a"><stop offset="0" stop-color="#162d50"/></linearGradient><linearGradient osb:paint="solid" id="e"><stop offset="0" stop-color="#d40000"/></linearGradient></defs><path d="M610.715 52.506c-6.325.033-11.738.117-16.795.28-5.057.161-9.756.4-14.652.74-9.793.679-20.375 1.763-36.176 3.447-7.478.796-16.253 1.444-19.5 1.44-3.247-.006-13.553.66-22.903 1.476-9.35.816-26 2.175-37 3.021a762.06 762.06 0 0 0-24.712 2.32 756.217 756.217 0 0 0-23.815 2.997c-7.539 1.074-14.554 2.208-20.674 3.347-6.12 1.14-11.344 2.285-15.299 3.383-4.414 1.226-10.111 3.07-16.107 5.188-5.996 2.116-12.289 4.504-17.89 6.814a153.635 153.635 0 0 0-8.137 3.623 122.46 122.46 0 0 0-7.393 3.867 101.506 101.506 0 0 0-6.705 4.156 88.261 88.261 0 0 0-6.072 4.495 81.21 81.21 0 0 0-5.498 4.873 79.569 79.569 0 0 0-4.98 5.3 83.103 83.103 0 0 0-4.518 5.774 92.348 92.348 0 0 0-4.114 6.29c-2.315 3.87-4.443 8.127-6.336 12.599a125.224 125.224 0 0 0-4.918 13.878c-1.369 4.723-2.45 9.484-3.195 14.108a96.578 96.578 0 0 0-.857 6.81 77.237 77.237 0 0 0-.31 6.475c-.018 4.243-.676 13.788-1.462 21.213-.893 8.438-1.578 15.244-2.078 21.045-.5 5.8-.816 10.594-.967 15.01-.15 4.415-.136 8.452.022 12.734.157 4.282.458 8.81.88 14.21.883 11.276 2.28 26.126 3.106 33 .826 6.876 1.901 17.944 2.39 24.597.322 4.37.669 7.582 1.095 9.947.425 2.365.93 3.882 1.572 4.861.404.617.71 1.14.924 1.696.213.555.336 1.143.37 1.886.071 1.486-.205 3.595-.779 7.323a67.549 67.549 0 0 0-.642 6.138 81.187 81.187 0 0 0-.131 6.406c.04 2.128.162 4.22.367 6.2.206 1.979.494 3.844.862 5.517.272 1.238.309 2.164 0 3.11-.31.945-.966 1.91-2.075 3.228-.613.73-1.12 1.296-1.597 1.73-.477.435-.924.738-1.414.94-.491.203-1.026.306-1.68.338-.654.032-1.429-.007-2.397-.084-1.993-.159-3.107-.184-3.884.176-.39.18-.694.455-.983.86-.289.403-.562.935-.887 1.626-1.138 2.42-2.297 5.182-3.455 8.195a216.36 216.36 0 0 0-3.443 9.702c-2.26 6.849-4.42 14.34-6.299 21.751-1.878 7.411-3.473 14.74-4.601 21.266-.565 3.263-1.013 6.325-1.32 9.096-.309 2.77-.477 5.249-.483 7.346-.007 2.268-.167 5.314-.434 8.718a299.47 299.47 0 0 1-1.068 10.873c-.43 3.705-.915 7.35-1.41 10.518-.496 3.168-1 5.858-1.465 7.654-.568 2.197-1.13 5.02-1.674 8.344-.543 3.324-1.066 7.15-1.555 11.35-.977 8.4-1.817 18.3-2.402 28.693-.572 10.175-1.45 24.575-1.953 32-.297 4.393-.52 12.338-.67 22.103-.15 9.766-.224 21.352-.225 33.032 0 11.68.072 23.453.22 33.59.147 10.137.369 18.638.665 23.775 1.074 18.613 3.517 55.316 4.926 74 .54 7.15 1.91 19.3 3.049 27 1.138 7.7 2.526 17.6 3.082 22 .556 4.4 1.658 11.6 2.45 16 1.773 9.866 4.722 29.968 7.485 51.05.535 4.077 1.03 7.436 1.559 10.325.53 2.888 1.095 5.306 1.77 7.492a40.833 40.833 0 0 0 2.427 6.113c.97 1.97 2.124 3.954 3.537 6.194.988 1.564 2.004 2.91 3.182 4.125 1.178 1.214 2.52 2.296 4.162 3.332s3.583 2.027 5.961 3.056c2.379 1.03 5.194 2.1 8.582 3.295 4.238 1.496 8.957 2.984 14.123 4.455 5.167 1.472 10.78 2.928 16.809 4.36a579.96 579.96 0 0 0 19.299 4.215 788.002 788.002 0 0 0 21.587 4.027c14.025 2.423 27.75 4.818 30.5 5.322 1.685.309 10.345.55 22.545.719 12.2.17 27.942.268 43.784.29 15.84.02 31.784-.034 44.39-.17 12.607-.137 21.877-.356 24.373-.66 4.35-.527 16.233-1.658 26.408-2.51 11.93-1 20.571-1.696 27.686-2.4 7.115-.702 12.703-1.412 18.53-2.44 5.826-1.029 11.889-2.377 19.952-4.352 8.064-1.975 18.127-4.579 31.954-8.123a831.852 831.852 0 0 0 21.234-5.735c6.072-1.736 10.649-3.156 12.266-3.843a149.386 149.386 0 0 0 13.716-6.71 148.124 148.124 0 0 0 12.53-7.742c3.841-2.658 7.28-5.345 10.113-7.923a52.245 52.245 0 0 0 3.768-3.768c1.087-1.216 1.997-2.386 2.705-3.494 1.339-2.097 2.727-5.091 4.095-8.729 1.369-3.637 2.717-7.918 3.979-12.59a219.518 219.518 0 0 0 3.453-14.93 223.7 223.7 0 0 0 2.516-15.751c.905-7.425 2.12-15.3 2.699-17.5.291-1.107.639-6.628.967-14.674.327-8.046.635-18.616.845-29.826.365-19.424 1.195-42.137 2.104-60.389.454-9.125.927-17.135 1.373-23.06.445-5.925.863-9.765 1.203-10.551.179-.413.427-14.682.684-37.338.256-22.656.52-53.7.73-87.662.419-67.564.93-119.304 1.574-157.682.323-19.188.68-35.036 1.074-47.851.395-12.816.828-22.599 1.305-29.657.477-7.047.72-12.432.735-17.406.014-4.973-.202-9.536-.643-14.937-.315-3.86-.603-9.39-.81-15.19-.208-5.8-.336-11.87-.337-16.81 0-11.5-.427-28.295-1.025-43.75-.598-15.456-1.366-29.572-2.049-35.717-.57-5.133-1.63-12.286-2.761-18.994-1.133-6.709-2.338-12.973-3.202-16.334-.729-2.838-1.892-6.713-3.293-11.069a536.602 536.602 0 0 0-4.716-13.949 497.956 497.956 0 0 0-4.961-13.482c-1.564-4.045-2.971-7.455-4.026-9.672-1.702-3.58-3.329-6.711-4.949-9.484-1.62-2.774-3.235-5.189-4.91-7.332a44.89 44.89 0 0 0-5.28-5.708c-1.867-1.69-3.865-3.195-6.062-4.607-3.996-2.567-9.966-6.512-13.266-8.768l-6-4.101-50.5-.324c-12.987-.084-23.04-.134-31.474-.09z" style="isolation:auto;mix-blend-mode:normal" color="#000" overflow="visible" fill="url(#c)" transform="translate(-222.24 -34.92)"/><path d="M638.69 34.92c-23.539 0-38.529.076-49.39.332-5.43.128-9.828.302-13.745.533-3.918.231-7.355.52-10.866.881-9.35.96-23.075 2.21-30.5 2.775-7.425.567-18.675 1.489-25 2.05-6.325.56-18.025 1.467-26 2.015-16.042 1.102-25.896 1.826-34.5 2.639-8.603.812-15.957 1.714-27 3.171-13.553 1.789-22.772 3.105-29.906 4.338a200.084 200.084 0 0 0-9.418 1.838 150.632 150.632 0 0 0-7.978 2.004c-6.192 1.73-14.153 4.416-22.047 7.37-7.895 2.953-15.722 6.174-21.65 8.978-5.519 2.61-10.383 5.165-14.754 7.797a107.685 107.685 0 0 0-6.207 4.021 89.705 89.705 0 0 0-5.588 4.236 82.602 82.602 0 0 0-5.084 4.547 85.039 85.039 0 0 0-4.705 4.96c-3.036 3.464-5.898 7.267-8.745 11.542a158.302 158.302 0 0 0-4.935 7.881 126.057 126.057 0 0 0-4.188 7.758 110.051 110.051 0 0 0-3.49 7.8 106.205 106.205 0 0 0-2.846 8.014 113.33 113.33 0 0 0-2.255 8.393 132.886 132.886 0 0 0-1.715 8.937 169.57 169.57 0 0 0-1.227 9.655 232.105 232.105 0 0 0-.793 10.535c-.472 8.8-1.446 20.725-2.164 26.5-.541 4.356-.913 10.655-1.125 17.959-.212 7.304-.264 15.612-.168 23.988s.342 16.82.725 24.39c.382 7.572.903 14.272 1.55 19.163 1.166 8.8 2.844 24.94 3.73 35.865.798 9.864 1.196 14.842 1.13 18.24-.033 1.7-.181 3.004-.455 4.327-.274 1.322-.673 2.661-1.203 4.433-.588 1.963-1.557 4.478-2.647 6.95-1.09 2.47-2.3 4.897-3.365 6.685-2.28 3.825-4.51 8.261-6.54 12.96a137.8 137.8 0 0 0-5.331 14.54c-2.14 7.075-3.93 13.317-5.434 19.068-1.504 5.752-2.724 11.013-3.726 16.127a214.465 214.465 0 0 0-2.422 15.242c-.635 5.163-1.121 10.523-1.524 16.42-.297 4.361-.736 9.242-1.205 13.592-.468 4.35-.965 8.17-1.379 10.408-.826 4.479-2.133 11.54-2.902 15.69-1.003 5.415-1.872 11.87-2.627 19.55-.754 7.681-1.395 16.586-1.937 26.903-.521 9.9-1.385 23.625-1.918 30.5-.324 4.166-.567 11.962-.73 21.547-.164 9.585-.248 20.96-.25 32.287-.004 11.326.073 22.603.232 31.994.158 9.39.399 16.895.72 20.672.562 6.6 1.472 20.55 2.022 31 1.237 23.515 2.292 40.358 3.443 53.775.576 6.71 1.174 12.563 1.832 17.965a357.815 357.815 0 0 0 2.188 15.26c.727 4.4 1.613 10.25 1.968 13 .686 5.304 4.978 33.258 6.526 42.5.507 3.025 1.896 13.375 3.09 23 .806 6.503 1.532 11.36 2.324 15.287.792 3.928 1.649 6.926 2.715 9.713 1.323 3.46 2.846 6.681 4.56 9.656 1.714 2.975 3.619 5.705 5.71 8.178a48.507 48.507 0 0 0 6.818 6.644 45.99 45.99 0 0 0 7.886 5.067c3.193 1.617 7.719 3.397 13.268 5.254 5.55 1.857 12.121 3.793 19.404 5.724 7.283 1.932 15.278 3.859 23.672 5.7a680.03 680.03 0 0 0 26.07 5.18c11 1.962 23.6 4.214 28 5.005 1.647.296 3.81.53 7.106.713 3.296.183 7.724.314 13.902.4 12.356.174 31.709.172 62.992.065 25.028-.086 44.625-.247 58.541-.479 13.917-.231 22.154-.533 24.46-.902 3.85-.617 13.75-1.584 22-2.148 6.525-.447 11.81-.847 16.515-1.31 4.705-.461 8.828-.986 13.031-1.683 4.204-.696 8.487-1.565 13.51-2.715 5.023-1.149 10.785-2.579 17.947-4.4 15.398-3.915 32.326-8.148 37.618-9.408 3.554-.846 6.718-1.659 9.646-2.492a131.642 131.642 0 0 0 8.236-2.621c2.615-.933 5.15-1.942 7.764-3.084a174.667 174.667 0 0 0 8.232-3.881c3.207-1.605 6.703-3.572 10.229-5.72a197.917 197.917 0 0 0 10.416-6.815c3.333-2.335 6.44-4.672 9.066-6.832 2.627-2.161 4.773-4.146 6.182-5.774 1.114-1.288 2.208-2.757 3.277-4.39a62.408 62.408 0 0 0 3.127-5.381 88.566 88.566 0 0 0 2.942-6.284 117.834 117.834 0 0 0 2.728-7.093c1.74-4.98 3.315-10.44 4.684-16.26a209.822 209.822 0 0 0 3.445-18.414c1.096-7.7 2.723-18.05 3.613-23 .608-3.374 1.056-8.127 1.416-15.785.36-7.659.633-18.222.891-33.215.19-11 .545-24.15.967-36.475.422-12.325.909-23.825 1.36-31.525.9-15.4 2.093-36.1 2.65-46 .278-4.95.538-20.138.732-40.62.194-20.48.324-46.255.34-72.38.03-48.935.257-88.377.732-122.12.238-16.87.54-32.317.909-46.812.369-14.494.806-28.036 1.32-41.101.292-7.426.466-16.16.523-26.016.058-9.856 0-20.835-.172-32.748a2629.036 2629.036 0 0 0-.851-38.357c-.395-13.597-.902-27.94-1.516-42.846-.358-8.707-.856-16.565-1.549-23.89-.692-7.326-1.58-14.118-2.716-20.696a232.913 232.913 0 0 0-4.211-19.404c-1.69-6.464-3.682-13.028-6.034-20.01-1.806-5.366-3.394-9.923-4.87-13.922-1.477-3.999-2.84-7.44-4.202-10.568a122.683 122.683 0 0 0-4.181-8.702c-1.463-2.754-3.031-5.447-4.811-8.324-1.765-2.853-3.507-5.408-5.297-7.736a63.184 63.184 0 0 0-5.582-6.37 59.293 59.293 0 0 0-6.281-5.41c-2.257-1.69-4.699-3.29-7.397-4.869-4.608-2.695-9.283-5.71-10.39-6.7-1.107-.99-4.257-2.836-7-4.1l-4.989-2.3h-57zm-27.975 17.586c8.433-.044 18.487.006 31.474.09l50.5.324 6 4.101c3.3 2.256 9.27 6.2 13.266 8.768 2.197 1.412 4.195 2.918 6.063 4.607a44.89 44.89 0 0 1 5.279 5.708c1.675 2.143 3.29 4.558 4.91 7.332 1.62 2.773 3.247 5.905 4.95 9.484 1.054 2.217 2.461 5.627 4.025 9.672a497.956 497.956 0 0 1 4.96 13.482 536.602 536.602 0 0 1 4.717 13.95c1.4 4.355 2.564 8.23 3.293 11.068.864 3.36 2.07 9.625 3.202 16.334 1.132 6.708 2.191 13.86 2.761 18.994.683 6.145 1.451 20.261 2.05 35.717.597 15.455 1.024 32.25 1.024 43.75 0 4.94.129 11.01.336 16.81.208 5.8.496 11.33.81 15.19.442 5.401.658 9.964.644 14.937-.015 4.974-.258 10.359-.735 17.406-.477 7.058-.91 16.841-1.305 29.657-.394 12.815-.751 28.663-1.074 47.851-.645 38.378-1.155 90.118-1.574 157.682-.21 33.962-.474 65.006-.73 87.662-.257 22.656-.505 36.925-.684 37.338-.34.786-.758 4.626-1.203 10.55-.446 5.926-.919 13.936-1.373 23.061-.909 18.252-1.739 40.965-2.104 60.389-.21 11.21-.518 21.78-.845 29.826-.328 8.046-.676 13.567-.967 14.674-.58 2.2-1.794 10.075-2.7 17.5a223.7 223.7 0 0 1-2.515 15.752 219.518 219.518 0 0 1-3.453 14.93c-1.262 4.67-2.61 8.952-3.979 12.59-1.368 3.637-2.756 6.63-4.095 8.728-.708 1.108-1.618 2.278-2.705 3.494a52.245 52.245 0 0 1-3.768 3.768c-2.832 2.578-6.272 5.265-10.113 7.923a148.124 148.124 0 0 1-12.53 7.743 149.386 149.386 0 0 1-13.716 6.709c-1.617.687-6.194 2.107-12.266 3.843a831.852 831.852 0 0 1-21.234 5.735c-13.827 3.544-23.89 6.148-31.954 8.123-8.063 1.975-14.126 3.323-19.953 4.351-5.826 1.029-11.414 1.739-18.529 2.442-7.115.703-15.756 1.398-27.686 2.398-10.175.853-22.058 1.984-26.408 2.512-2.496.303-11.766.522-24.373.658-12.606.137-28.55.191-44.39.17-15.842-.021-31.583-.12-43.784-.289-12.2-.17-20.86-.41-22.545-.719-2.75-.504-16.475-2.9-30.5-5.322a788.002 788.002 0 0 1-21.587-4.027 579.96 579.96 0 0 1-19.3-4.215c-6.028-1.432-11.641-2.888-16.808-4.36-5.166-1.471-9.885-2.96-14.123-4.455-3.388-1.195-6.203-2.265-8.582-3.295-2.378-1.03-4.319-2.02-5.96-3.056-1.643-1.036-2.985-2.118-4.163-3.332-1.178-1.214-2.194-2.56-3.182-4.125-1.413-2.24-2.567-4.223-3.537-6.194a40.833 40.833 0 0 1-2.427-6.113c-.675-2.186-1.24-4.604-1.77-7.492-.53-2.889-1.024-6.248-1.559-10.324-2.763-21.083-5.712-41.185-7.486-51.051-.791-4.4-1.893-11.6-2.45-16-.555-4.4-1.943-14.3-3.081-22-1.138-7.7-2.51-19.85-3.049-27-1.41-18.684-3.852-55.387-4.926-74-.296-5.137-.518-13.638-.666-23.775-.147-10.137-.22-21.91-.219-33.59.001-11.68.076-23.266.225-33.032.15-9.765.373-17.71.67-22.103.502-7.425 1.38-21.825 1.953-32 .585-10.393 1.425-20.293 2.402-28.693.49-4.2 1.012-8.026 1.555-11.35.543-3.324 1.106-6.147 1.674-8.344.464-1.796.97-4.486 1.465-7.654.495-3.168.98-6.813 1.41-10.518.43-3.704.802-7.468 1.068-10.873.267-3.404.427-6.45.434-8.718.006-2.097.174-4.576.482-7.346.308-2.77.756-5.833 1.32-9.096 1.129-6.526 2.724-13.855 4.602-21.265 1.878-7.411 4.038-14.903 6.3-21.752a216.36 216.36 0 0 1 3.442-9.702c1.158-3.013 2.317-5.775 3.455-8.195.325-.69.598-1.223.887-1.627.29-.404.594-.68.983-.86.777-.359 1.891-.334 3.884-.175.968.077 1.743.116 2.397.084.654-.032 1.189-.135 1.68-.338.49-.202.937-.505 1.414-.94.477-.434.984-1 1.597-1.73 1.11-1.318 1.765-2.283 2.075-3.228.309-.946.272-1.872 0-3.11-.368-1.673-.656-3.538-.862-5.517a73.899 73.899 0 0 1-.367-6.2c-.04-2.127.002-4.289.13-6.406.13-2.117.343-4.19.643-6.138.574-3.728.85-5.837.78-7.323-.035-.743-.158-1.33-.371-1.886-.214-.556-.52-1.08-.924-1.696-.642-.98-1.147-2.496-1.572-4.861-.426-2.365-.773-5.577-1.094-9.947-.49-6.653-1.565-17.721-2.39-24.596-.826-6.875-2.224-21.725-3.106-33-.423-5.4-.724-9.929-.881-14.211a175.656 175.656 0 0 1-.022-12.734c.15-4.416.467-9.21.967-15.01.5-5.8 1.185-12.607 2.078-21.045.786-7.425 1.444-16.97 1.461-21.213.01-2.087.114-4.253.31-6.475.197-2.221.486-4.498.858-6.81.744-4.624 1.826-9.385 3.195-14.108a125.224 125.224 0 0 1 4.918-13.878c1.893-4.472 4.021-8.729 6.336-12.598a92.348 92.348 0 0 1 4.114-6.291 83.103 83.103 0 0 1 4.517-5.774 79.569 79.569 0 0 1 4.98-5.3 81.21 81.21 0 0 1 5.499-4.873 88.263 88.263 0 0 1 6.072-4.495 101.506 101.506 0 0 1 6.705-4.156 122.46 122.46 0 0 1 7.393-3.867 153.635 153.635 0 0 1 8.136-3.623c5.602-2.31 11.895-4.698 17.891-6.814 5.996-2.117 11.693-3.962 16.107-5.188 3.955-1.098 9.18-2.243 15.3-3.383 6.12-1.14 13.134-2.273 20.673-3.347a756.217 756.217 0 0 1 23.815-2.997 762.06 762.06 0 0 1 24.712-2.32c11-.846 27.65-2.205 37-3.021 9.35-.817 19.656-1.482 22.903-1.477 3.247.005 12.022-.643 19.5-1.44 15.801-1.683 26.383-2.767 36.176-3.447 4.896-.34 9.595-.578 14.652-.74 5.057-.162 10.47-.246 16.795-.28z" style="isolation:auto;mix-blend-mode:normal" color="#000" overflow="visible" fill="url(#b)" transform="translate(-222.24 -34.92)"/><path d="M379.838 434.678a60.77 60.77 0 0 0-4.149.158c-16.443 1.153-25.936 2.308-32 3.893-14.89 3.89-23.227 5.717-26.037 5.705-3.756-.017-9.482 3.02-24.859 13.181-8.363 5.527-11.729 10.05-12.36 16.615-1.159 12.069 12.582 28.282 22.807 26.91 4.665-.625 4.67-.599 2.434 11.78-.795 4.4-1.454 9.172-1.465 10.605-.019 2.46-.367 2.64-6.27 3.225-3.437.34-7.968 1.11-10.07 1.71-4.673 1.337-11.51 7.325-13.332 11.679-4.607 11.005 3.504 26.435 18.986 36.117l4.836 3.023-3.543.979c-11.577 3.196-23.448 18.882-24.435 32.289-.58 7.865 1.435 18.579 4.853 25.807 3.298 6.972 11.008 15.611 17.825 19.974 6.679 4.275 18.706 8.846 27.775 10.555 11.493 2.166 44.511 1.39 57.195-1.344 17.033-3.67 29.773-10.155 34.194-17.404 2.911-4.776 2.661-14.137-.596-22.28-2.005-5.01-2.422-7.354-1.912-10.753 1.034-6.9-1.244-25.079-4.86-38.774l-3.322-12.592 4.438-2.355c2.44-1.295 7.74-5.439 11.775-9.207 5.725-5.347 7.788-8.057 9.39-12.34 3.968-10.604 2.424-17.877-5.636-26.545-6.068-6.526-13.941-11.615-22.299-14.416-6.454-2.163-6.52-2.223-7.408-6.705-.877-4.423-.794-4.648 3.828-10.322 12.395-15.216 13.985-29.988 4.402-40.875-4.402-5.002-9.34-7.535-16.445-8.145a42.858 42.858 0 0 0-3.74-.148zm-6.123 28.05c1.534-.01 2.474.109 2.474.391 0 .37-1.725 2.726-3.834 5.236-8.449 10.061-9.68 12.733-9.513 20.627l.152 7.202-5.568 1.119c-3.063.615-6.44 1.117-7.502 1.117-6.578 0-12.735 6.768-12.735 14 0 5.358 2.94 10.27 7.418 12.394 4.007 1.902 5.774 1.933 15.248.27l7.165-1.258 1.6 8.547c.878 4.701 1.703 10.543 1.833 12.98l.236 4.432-7.5 2.375c-4.125 1.306-10.65 2.786-14.5 3.287-9.672 1.26-20.5 1.219-20.5-.078 0-.578 1.463-1.663 3.25-2.412 3.443-1.442 6.766-4.61 8.625-8.22 2.54-4.931.6-11.056-4.99-15.76l-3.187-2.682 1.652-11.688c.909-6.428 1.647-13.712 1.64-16.187-.005-2.475.762-10.233 1.706-17.242l1.715-12.744 3.545-.616c1.949-.338 6.92-1.428 11.044-2.421 5.973-1.438 15.923-2.636 20.526-2.668zm24.691 68.686c.398 0 .835.28 1.213.893.302.487-.122 1.443-.941 2.123-1.24 1.028-1.489.88-1.489-.887 0-1.073.355-1.79.836-2.035a.838.838 0 0 1 .381-.094zm-23.576 46.467c1.093.041 1.851 2.322 3.852 10.687 3.569 14.926 4.062 20.618 2.504 28.875-1.206 6.392-1.145 7.304.853 12.784 1.183 3.245 2.15 6.13 2.15 6.414 0 .945-11.46 3.748-21.54 5.267-23.26 3.506-44.982.08-56.838-8.963-4.04-3.081-7.622-10.779-7.622-16.383 0-4.78 3.934-10.142 7.44-10.142 9.698 0 19.535-10.186 19.555-20.25l.006-2.75 14.25-.002c11.629-.002 15.997-.437 23.75-2.365 5.225-1.3 10.24-2.679 11.146-3.065.174-.074.338-.113.494-.107zM314.69 683.92l-10.5 3.33c-5.776 1.831-13.2 4.748-16.5 6.482-7.615 4.002-16.95 13.194-19.7 19.397-2.907 6.558-3.55 17.524-1.402 23.988 3.302 9.943 17.05 21.751 33.746 28.987 8.495 3.68 15.91 4.367 19.56 1.81 2.131-1.493 2.13-1.45-.277 4.69-1.335 3.407-2.428 6.335-2.428 6.505 0 .171-3.395.31-7.544.31-14.91 0-26.764 5.142-34.13 14.798-6.199 8.128-6.905 19.257-1.859 29.351 3.286 6.574 6.664 10.243 12.533 13.62 2.475 1.423 4.689 2.734 4.918 2.912.23.177-1.034 2.126-2.806 4.332-5.02 6.246-6.414 10.514-5.877 17.986.825 11.497 5.58 17.942 24.574 33.307 15.504 12.541 30.874 20.278 43.691 21.994 6.606.884 14.352.595 21-.787 28.353-5.894 41.283-23.3 28.295-38.092-3.113-3.546-11.368-8.42-14.261-8.42-1.263 0-1.53-1.546-1.514-8.75.02-9.13 1.318-20.269 3.059-26.25.93-3.199 1.971-3.959 12.076-8.846 11.335-5.482 17.877-10.381 20.41-15.28 1.665-3.22 1.899-12.524.412-16.435-1.523-4.005-13.706-15.667-19.822-18.972-5.194-2.807-5.33-2.99-4.762-6.428.322-1.946.59-6.52.596-10.166l.011-6.629 6.545-1.644c13.903-3.493 23.582-9.952 27.002-18.022 1.175-2.772 1.373-2.88 1.994-1.078 4.065 11.775 11.473 21.734 20.457 27.5 2.752 1.765 5.002 3.621 5.002 4.125s-1.085 3.584-2.41 6.846c-1.325 3.261-2.729 7.415-3.12 9.23-.393 1.815-1.56 4.97-2.593 7.012-1.518 2.999-2.693 3.91-6.127 4.754-10.604 2.603-16.382 7.879-17.464 15.945-.75 5.59 1.22 10.379 6.134 14.908l4.317 3.979-5.864 13.072c-9.626 21.46-12.93 36.544-9.812 44.814 1.477 3.917 6.7 9.087 10.367 10.262 1.69.542 8.697 1.674 15.572 2.516 6.875.841 17 2.819 22.5 4.394 9.575 2.744 11.275 2.9 40 3.707 47.432 1.332 44.847 1.442 48.46-2.021 3.687-3.535 5.543-9.055 4.648-13.826-1.01-5.383-7.78-14.965-16.502-23.36l-7.932-7.634-.695-10.204c-.61-8.958-.422-11.106 1.549-17.61 1.234-4.075 2.372-7.915 2.53-8.534.156-.62 4.605-3.284 9.884-5.922 15.73-7.86 25.477-18.254 25.537-27.234.029-4.288-2.409-10.006-5.781-13.563-3.02-3.185-11.51-7.775-17.948-9.701-2.337-.7-4.25-1.547-4.25-1.885 0-.338 1.579-1.465 3.508-2.504 5.765-3.104 12.941-11.493 15.477-18.091 4.833-12.579 1.904-31.27-6.305-40.237-4.922-5.376-14.526-11.85-19.594-13.21-1.972-.53-13.936-1.017-26.586-1.085-24.965-.133-32.04.79-50.5 6.592-14.473 4.55-25.633 12.963-29.931 22.563l-1.781 3.976-.588-4.969c-.769-6.487-3.828-12.333-9.174-17.529-4.772-4.638-11.679-7.17-33.526-12.299-11.188-2.626-12.353-2.7-43-2.738l-31.5-.04zm365.744 20.049c-2.699-.008-5.757-.003-9.245.004l-25.5.05-16.648 3.633c-19.041 4.155-26.331 7.307-32.576 14.082-4.802 5.21-5.752 8.77-5.031 18.842.767 10.719 6.721 22.037 16.902 32.123 7.6 7.53 7.854 7.934 7.848 12.5l-.006 4.717-8.745.053c-9.883.058-16.86 2.537-23.472 8.343-12.18 10.695-9.806 29.631 4.982 39.745 6.472 4.425 15.649 7.667 25.192 8.898 4.475.577 5.148.904 3.78 1.832l-6.81 4.629c-13.297 9.039-17.576 15.783-16.63 26.215 1.03 11.371 8.285 19.245 22.156 24.049 7.853 2.72 8.478 2.778 24.558 2.308 21.817-.637 32.875-3.216 48.254-11.254 13.385-6.995 19.014-14.749 17.309-23.84-.744-3.964-5.754-10.22-9.25-11.548-2.48-.943-2.96-4.381-1.686-12.09.558-3.374.97-3.75 5.24-4.805 13.067-3.227 18.437-5.315 22.03-8.56 5.558-5.022 7.497-13.087 4.945-20.575-2.738-8.032-14.836-21.922-24.047-27.607-5.526-3.411-5.923-3.9-5.38-6.613.322-1.612.585-6.249.585-10.305v-7.375h2.819c4.879 0 12.537-2.821 16.46-6.066 5.345-4.42 7.721-9.594 7.721-16.805 0-11.617-5.621-20.89-17.21-28.395-8.359-5.411-9.658-6.128-28.546-6.185zm-345.881 7.517c3.979.018 9.002.092 15.545.198 27.235.44 27.74.488 39.091 3.613 15.028 4.137 15 4.128 15 5.05 0 1.258-12.655 5.073-16.824 5.073-4.104 0-10.869 3.75-15.125 8.385-2.173 2.366-2.53 3.93-3.18 13.892-.402 6.174-.762 12.91-.8 14.973-.044 2.373-.53 3.702-1.32 3.617-.688-.074-4.446-.56-8.35-1.078l-7.1-.943.957-5.172c1.18-6.383.363-16.253-1.765-21.348-3.46-8.28-9.713-12.326-19.059-12.326-9.938 0-16.434 5.285-16.434 13.37 0 1.997-.344 3.63-.765 3.63-1.104 0-14.152-7.71-17.985-10.627-7.976-6.072-.939-13.371 17.659-18.318 3.987-1.061 6.444-1.615 11.175-1.85 2.366-.118 5.3-.156 9.28-.139zm189.25 4.034c3.902.026 6.775.126 7.676.294 5.17.97 9.427 5.534 10.244 10.979 1.165 7.77-2.62 11.434-13.977 13.533-7.907 1.462-9.993 3.034-13.658 10.295-2.627 5.203-3.013 6.874-2.496 10.77l.611 4.611-4.258 1.14c-2.377.637-5.58 2.525-7.256 4.276-2.634 2.753-3 3.847-3 8.988 0 4.855.427 6.316 2.5 8.563 2.872 3.112 7.794 5.45 11.47 5.45 2.288 0 2.53.388 2.53 4.015 0 3.89-.161 4.084-5.376 6.39-2.958 1.308-7.707 2.879-10.551 3.489-8.361 1.793-9.513 1.546-10.912-2.325-1.133-3.13-5.808-8.151-9.534-10.236-1.313-.735-1.277-1.625.311-7.352 2.816-10.154 6.072-17.152 9.834-21.136 3.841-4.068 5.252-10.412 3.303-14.844-5.116-11.631-11.836-17.097-19.205-15.623-2.474.495-3.662-.065-7.35-3.465-2.42-2.23-4.177-4.642-3.902-5.357.911-2.376 9.751-6.32 20.382-9.094 9.04-2.36 13.04-2.807 28.758-3.211 5.021-.13 9.953-.177 13.856-.15zm147.603 15.433c9.451-.006 18.4.44 20.533 1.34 3.28 1.384 4.361 3.127 1.938 3.127-1.781 0-6.332 4.897-7.55 8.125-.719 1.9-1.951 2.806-4.464 3.277-7.92 1.486-12.245 8.18-11.117 17.207.764 6.115 1.228 5.885-8.557 4.223-3.025-.514-8.284-.799-11.687-.633l-6.186.3-.345-15.5c-.19-8.524-.701-16.246-1.137-17.161-.663-1.392.158-1.873 5.031-2.938 4.138-.904 14.09-1.36 23.541-1.367zm-328.14 57.756c.35.054 1.869.726 3.673 1.637 2.078 1.048 7.138 2.187 11.346 2.554l7.598.662-.49 5.18c-.27 2.849-.993 6.922-1.606 9.055-1.093 3.8-1.29 3.933-10.105 6.691-5.24 1.64-11.392 2.839-14.743 2.873-5.024.052-5.75-.183-5.75-1.861 0-1.314.933-2.125 2.954-2.568 4.082-.897 8.028-4.222 9.668-8.147 1.878-4.496 1.734-7.244-.622-11.865-1.1-2.158-2-4.046-2-4.195 0-.02.026-.024.077-.016zm303.011 6.035c.56.015 1.3.084 2.264.188 2.281.245 7.087.705 10.68 1.023 8.927.79 9.626 1.327 8.15 6.254-.65 2.17-1.182 6.668-1.182 9.998 0 5.81-.11 6.076-2.75 6.582-1.512.29-6.071.827-10.13 1.193l-7.38.668.637-3.365c1.747-9.21 1.803-11.688.336-14.972-.833-1.866-1.738-4.39-2.011-5.61-.232-1.031-.283-1.578.205-1.814.244-.119.622-.16 1.181-.145zm-339.265 11.86l-1.282 3.158c-.704 1.737-1.45 3.694-1.66 4.347-.612 1.916-5.81-1.49-5.865-3.843-.008-.361 1.969-1.334 4.395-2.16l4.412-1.502zm386.789 6.199a.69.69 0 0 1 .388.117c.55.34 1 1.043 1 1.56 0 .518-.45.94-1 .94s-1-.701-1-1.559c0-.643.253-1.042.612-1.058zm-81.612 4.746c.454 0 .907.07 1.25.209.688.277.125.506-1.25.506s-1.937-.229-1.25-.506c.344-.139.797-.21 1.25-.21zm-104.771 17.316c1.082-.028 1.334 2.574 1.576 14.27.252 12.126.66 15.495 2.36 19.445 1.13 2.628 2.68 5.297 3.445 5.932.765.634 1.39 1.548 1.39 2.031 0 .867-27.157 1.013-32 .172-1.375-.239-5.983-1.52-10.24-2.846-4.257-1.325-11.798-2.949-16.76-3.61-10.619-1.413-10.47.872-1.289-19.92l6.44-14.58 4.674.772c9.824 1.62 32.195.713 40.175-1.627a.902.902 0 0 1 .229-.039zm-150.178 7.703l-.672 17.217c-.732 18.768-.176 22.345 4.297 27.66l2.502 2.975-4.838-.072c-5.115-.078-11.928-2.16-19.351-5.914-5.593-2.829-27.994-20.702-27.975-22.32.008-.656 2.481-4.095 5.496-7.641 3.015-3.547 5.727-7.22 6.026-8.16.478-1.509 2.108-1.7 13.754-1.606 7.266.058 14.91-.398 16.986-1.016l3.775-1.123zm308.389 4.254c1.394-.022 2.328.031 2.46.164.267.267-.341 4.686-1.35 9.82-1.674 8.512-1.67 11.533.029 15.958.442 1.152-.73 1.945-4.747 3.21-6.112 1.926-34.177 3.315-35.15 1.74-.321-.519 2.582-2.935 6.451-5.368 3.87-2.434 8.973-5.87 11.344-7.639 4.533-3.38 8.523-10.15 8.523-14.457 0-2.428.315-2.565 7.207-3.143a81.194 81.194 0 0 1 5.233-.285z" fill="url(#d)" transform="translate(-222.24 -34.92)"/><path d="M532.395 404.62c-1.523-.01-3.081 0-4.67.026-21.187.362-47.72 3.896-64.71 9.563-12.106 4.038-27.424 15.259-32.382 23.719-3.394 5.79-5.777 17.492-5.047 24.78 1.31 13.084 6.918 20.033 22.644 28.071 9.602 4.908 13.282 5.56 17.9 3.172l2.845-1.47-1.875 7.22c-1.032 3.971-1.884 9.713-1.893 12.762l-.018 5.543-4.384 1.172C448.347 522.51 440.7 543.925 447 557.842c3.665 8.098 8.468 13.079 16.457 17.072 6.764 3.38 7.34 3.93 8.887 8.457l1.654 4.842-6.654 3.05c-3.66 1.679-10.03 4.087-14.155 5.354-5.718 1.756-8.463 3.261-11.558 6.336-5.452 5.416-6.844 10.657-6.229 23.445.658 13.656 3.908 20.372 14.196 29.344 13.815 12.05 20.702 16.374 30.591 19.21 3.157.904 12.89 1.317 32.59 1.38 24.6.078 29.022-.15 35.584-1.828 20.052-5.128 29.942-14.99 28.551-28.465-.304-2.95-1.51-7.238-2.68-9.531-2.523-4.946-9.399-11.888-12.562-12.682-2.544-.638-3.453-4.18-3.47-13.525-.018-8.548-4.314-30.683-7.636-39.34-.222-.58 2.64-1.911 6.36-2.955 14.462-4.059 22.883-10.086 25.719-18.406 2.162-6.348 1.976-8.282-1.637-16.961-4.134-9.93-15.654-22.364-25.381-27.393-5.8-2.999-6.43-3.629-6.434-6.416-.003-2.736.47-3.245 4.131-4.453 10.187-3.362 24.663-16.571 31.033-28.314 3.325-6.13 3.332-6.173 3.332-20.143 0-15.542-.575-17.507-6.992-23.924-4.062-4.062-15.584-11-23.828-14.348-4.94-2.006-13.817-2.965-24.474-3.029zm171.12 7.673c-1.99-.006-4.21.008-6.724.03-48.693.413-85.287 9.584-98.56 24.702-5.932 6.756-8.433 13.101-8.434 21.395-.002 11.427 3 16.86 16.709 30.25 6.053 5.912 12.788 11.535 14.967 12.496l3.96 1.746-.615 6.504c-.338 3.577-.617 8.216-.62 10.307-.007 3.458-.347 3.934-3.759 5.29-11.11 4.417-18.784 10.718-22.939 18.833-2.104 4.11-2.455 5.964-2.121 11.213.33 5.175.939 6.952 3.441 10.045 3.798 4.692 12.033 10.343 19.844 13.615l5.977 2.502 1.65 8.35c.907 4.592 2.331 9.976 3.166 11.964l1.518 3.615-8.143 4.286c-22.543 11.863-35.247 24.412-37.223 36.767-.977 6.112 1.898 14.521 6.772 19.809 5.562 6.034 19.16 12.796 28.94 14.388 4.052.66 9.802 1.887 12.777 2.727 2.974.84 9.274 2.343 14 3.34 11.404 2.406 42.518 2.665 53.277.443 9.31-1.923 18.747-6.662 25.428-12.767 6.96-6.361 9.386-11.519 9.386-19.95 0-12.201-4.744-22.404-15.005-32.273-5.363-5.157-6.623-7.673-8.061-16.09-.65-3.8-2.66-10.875-4.47-15.723-2.233-5.978-2.918-8.937-2.128-9.197.641-.21 5.89-1.796 11.664-3.523 25.208-7.541 32.43-12.223 35.993-23.332 3.114-9.713-.84-19.566-12.5-31.135-8.344-8.279-15.368-13.046-24.963-16.945-3.067-1.247-5.727-2.444-5.912-2.66-.186-.217-.628-2.282-.98-4.588l-.643-4.192 10.658-5.142c9.166-4.422 11.799-6.285 18.795-13.307 13.83-13.883 17.447-26.415 11.576-40.111-2.966-6.92-7.656-11.349-16.943-16.008-13.13-6.587-15.817-7.63-29.754-7.674zM544.077 432.42l8.307 4.25c8.278 4.235 8.308 4.265 8.613 8.48.391 5.4-1.868 10.173-7.463 15.768-6.087 6.087-13.144 9.284-23.326 10.56-9.738 1.222-14.07 3.428-16.41 8.36-2.692 5.673-1.66 10.789 3.207 15.906 2.61 2.743 2.63 2.865.766 4.235-7.785 5.717-7.222 19.084.988 23.478 2.37 1.268 2.575 1.817 2.031 5.438-.332 2.214-.897 7.85-1.254 12.525-.356 4.675-1.141 8.832-1.746 9.236-.604.404-6.367.742-12.805.75l-11.705.016-.644-3.442c-.355-1.892-.446-11.23-.201-20.75.38-14.816.803-18.46 2.93-25.308 1.365-4.4 3.062-12.357 3.77-17.68 1.193-8.957 1.15-9.959-.577-13.435-2.706-5.446-6.533-7.885-12.368-7.885-5.513 0-9.573 2.4-12 7.096-.825 1.596-1.614 3.092-1.753 3.324-.14.231-1.407-.662-2.817-1.987-1.41-1.324-5.57-3.99-9.246-5.921-5.893-3.098-6.72-3.89-6.992-6.7-.17-1.752.376-4.509 1.213-6.127 1.677-3.242 10.059-9.23 16.174-11.554 12.096-4.597 40.51-8.605 61.115-8.621l12.193-.012zm154.06 7.125c.98.003 1.922.017 2.829.045 7.256.22 12.245 1.23 15.724 3.053 2.75 1.44 5.883 3.28 6.961 4.09 1.928 1.445 1.916 1.536-.736 5.363-5.131 7.404-14.87 13.522-26.162 16.433-6.045 1.559-7.654 2.506-12.5 7.352-5.49 5.49-5.563 5.638-5.563 11.445 0 4.2.501 6.438 1.75 7.819 2.6 2.872 2.222 7.485-.845 10.351-3.32 3.102-5.405 7.122-5.405 10.424 0 3.302 2.084 7.324 5.405 10.426 3.305 3.088 3.265 4.981-.41 18.959-1.647 6.261-2.995 11.549-2.995 11.75 0 .2-5.625.365-12.5.365h-12.5v-4.955c0-3.637.666-5.935 2.5-8.639 3.207-4.724 3.184-9.121-.074-13.922-2.551-3.76-2.565-3.885-1.5-13.677.592-5.437 1.074-19.446 1.074-31.133 0-20.07-.124-21.493-2.25-25.637-6.293-12.274-24.659-9.584-26.464 3.877-.628 4.68-1.716 4.36-5.391-1.586l-2.13-3.447 2.366-2.54c6.14-6.583 23.62-11.421 52.32-14.482 10.978-1.17 19.642-1.754 26.497-1.734zm-225.572 42.062c.069-.025.146.001.229.084.332.333.369 1.195.08 1.916-.32.798-.557.562-.605-.603-.033-.79.092-1.321.296-1.397zm238.286 52.77c.184.009.387.047.61.111.597.173 1.339.54 2.255 1.08 4.596 2.712 12.115 9.51 11.367 10.278-.334.343-3.934 1.532-8 2.642-4.066 1.11-8.117 2.234-9.002 2.498-1.455.434-1.479-.023-.25-4.761.748-2.883 1.36-6.23 1.36-7.44 0-3.129.37-4.469 1.66-4.408zm-161.836.63c.42.102 1.035.7 2.127 1.862 1.314 1.4 2.199 2.734 1.966 2.967-.232.232-1.658.732-3.17 1.111-2.27.57-2.735.368-2.677-1.168.038-1.022.389-2.667.78-3.656.323-.821.553-1.217.974-1.115zm-25.215 43.18l2.62 9.868c2.971 11.182 3.42 14.1 4.755 30.865 1.196 15.029 2.434 18.942 7.656 24.182 3.492 3.503 3.9 4.298 2.514 4.921v.002c-.91.41-12.455.884-25.655 1.055-18.452.24-24.989-.01-28.283-1.078-4.23-1.372-16.224-9.776-21.361-14.969-3.168-3.202-4.346-9.546-1.916-10.314 10.2-3.226 29.567-13.051 34.94-17.727 5.242-4.562 6.595-13.726 3.148-21.32l-1.93-4.25 6.701-.01c3.686-.005 8.976-.283 11.756-.617l5.055-.608zm141.709 7.233h11.316l3.11 7.75c3.763 9.382 4.753 12.641 6.638 21.867 2.017 9.867 6.205 17.555 14.518 26.652 4.53 4.957 7.1 8.611 7.1 10.092 0 3.281-7.823 7.334-16.606 8.604-14.442 2.087-30.734.92-47.395-3.393-5.225-1.353-12.354-2.962-15.843-3.576-6.496-1.144-13.157-3.75-13.157-5.148 0-1.744 11.302-9.081 24.5-15.907 14.88-7.694 19.893-11.47 22.12-16.658 2.226-5.19 1.649-8.493-3.12-17.838-6.54-12.819-6.745-12.445 6.819-12.445zM617.377 818.738c.798.32.561.556-.604.604-1.054.043-1.644-.193-1.312-.526.332-.332 1.194-.367 1.916-.078z" fill="url(#d)" transform="translate(-222.24 -34.92)"/><path d="M480.363 86.42c-36.25 0-52.917 4.748-67.158 19.127-15.506 15.656-17.038 30.17-5.049 47.824 6.74 9.925 11.521 13.358 22.836 16.399 5.425 1.457 11.236 2.65 12.914 2.65 2.755 0 3.25.51 5.092 5.25 1.975 5.078 3.507 10.006 4.459 14.336.445 2.026.34 2.045-3.654.65-6.8-2.374-14.61-2.668-21.055-.795-21.394 6.22-28.142 25.406-14.44 41.053 4.06 4.635 13.772 11.105 18.098 12.055 2.822.62 2.937.783 1.201 1.72-1.054.57-4.393 2.604-7.418 4.52-28.853 18.273-36 26.576-36 41.822 0 9.89 1.563 16.627 5.698 24.57 6.828 13.118 22.982 24.533 41.482 29.313 8.967 2.317 10.658 2.41 44.576 2.457 44.664.062 55.534-1.316 77.096-9.78 10.324-4.052 15.257-7.994 18.252-14.59 3.68-8.104 1.632-26.59-4.406-39.763-4.209-9.18-14.294-20.21-29.094-31.818l-9.56-7.5-.022-6.75c-.014-4.598.362-6.75 1.18-6.75 3.11 0 25.655-12.229 29.664-16.09 12.83-12.358 9.987-27.36-6.162-32.523-2.862-.915-9.254-1.94-14.204-2.276l-9-.611-.869-9.71c-1.163-13.001-.662-14.79 4.139-14.79 8.302-.002 23.858-10.584 28.498-19.387 4.878-9.253 1.902-22.858-6.605-30.199-5.68-4.9-21.454-12.202-31.163-14.424-20.93-4.79-30.797-5.99-49.326-5.99zm-11.304 28.21c3.772-.076 7.993-.062 12.78.03 23.098.445 39.943 3.162 51.302 8.272l7.45 3.351-3.327 1.819c-1.83 1-4.687 2.927-6.348 4.28-2.11 1.722-4.005 2.38-6.29 2.182-6.974-.6-14.675 6.092-16.526 14.366-.69 3.085-.991 10.791-.756 19.347l.39 14.221-5.523 1.594c-3.037.877-6.374 2.184-7.416 2.906-5.64 3.907-7.34 12.88-3.59 18.947 2.59 4.192 8.134 6.875 12.682 6.137 6.612-1.073 2.821 1.722-6.77 4.99-5.185 1.767-11.124 3.242-13.197 3.28-3.636.065-3.742-.03-3.022-2.682.411-1.513.73-9.05.711-16.75-.035-13.946-.053-14.054-4.687-28-6.212-18.694-8.733-28.81-8.733-35.04 0-8.801-5.265-14.43-13.5-14.43-8.356 0-13.5 5.612-13.5 14.728 0 5.444-.008 5.457-2.75 4.824-3.384-.781-10.244-8.299-10.248-11.23-.004-3.159 9.946-11.846 15.737-13.74 6.52-2.134 13.812-3.172 25.13-3.401zm36.296 129.09c.707.058.834 1.098.834 4.126 0 8.776 4.172 14.932 16.5 24.351 9.92 7.58 20.57 17.37 23.174 21.307 2.57 3.882 5.295 12.598 5.315 16.998.01 2.097-.693 2.82-3.739 3.846-10.584 3.562-17.757 5.273-27.685 6.605-14.263 1.914-62.09 1.885-71.565-.043-17.916-3.646-30-13.546-30-24.576 0-4.358.36-5.061 4.436-8.648 4.922-4.333 7.277-5.952 22.713-15.63 10.375-6.504 22.887-18.02 24.252-22.32.52-1.636 1.849-1.859 11.842-1.978 10.044-.12 17.126-1.29 23.007-3.803.381-.163.681-.253.916-.234z" fill="url(#e)" transform="translate(-222.24 -34.92)"/></svg>