<svg xmlns:osb="http://www.openswatchbook.org/uri/2009/osb" xmlns="http://www.w3.org/2000/svg" height="914.474" width="592.281"><defs><linearGradient osb:paint="solid" id="c"><stop offset="0" stop-color="#fff"/></linearGradient><linearGradient osb:paint="solid" id="b"><stop offset="0"/></linearGradient><linearGradient osb:paint="solid" id="e"><stop offset="0" stop-color="#002b11"/></linearGradient><linearGradient osb:paint="solid" id="a"><stop offset="0" stop-color="#162d50"/></linearGradient><linearGradient osb:paint="solid" id="d"><stop offset="0" stop-color="#d40000"/></linearGradient></defs><path d="M675.521 60.564c-6.236.002-12.728.118-18.166.303-5.437.185-9.82.438-11.834.717-2.013.279-8.286.64-16.773 1-8.486.36-19.186.716-30.049.982-18.868.463-32.55.91-44.43 1.52-11.879.61-21.957 1.38-33.617 2.484-2.9.275-7.503.524-12.582.705-5.078.182-10.633.295-15.44.295-3.98 0-9.051.17-14.782.477-5.731.306-12.12.748-18.735 1.289a837.71 837.71 0 0 0-20.084 1.889c-6.63.705-13.051 1.474-18.83 2.273-6.384.882-17.35 2.246-40.5 5.041-6.709.81-12.313 1.545-17.312 2.315-5 .77-9.393 1.575-13.684 2.527-4.29.952-8.477 2.05-13.06 3.406-4.584 1.356-9.565 2.97-15.444 4.953-2.703.912-5.918 2.212-9.3 3.72a198.306 198.306 0 0 0-10.317 4.983c-3.38 1.754-6.588 3.54-9.285 5.184-2.697 1.644-4.882 3.144-6.213 4.324-1.54 1.366-3.466 3.553-5.541 6.2-2.075 2.646-4.3 5.753-6.434 8.964-2.133 3.211-4.178 6.526-5.894 9.584-1.717 3.059-3.105 5.861-3.928 8.051-.992 2.64-2.123 6.658-3.299 11.562-1.175 4.905-2.396 10.696-3.568 16.88a535.806 535.806 0 0 0-3.277 19.238c-.982 6.477-1.823 12.854-2.428 18.64a333.994 333.994 0 0 1-2.613 19.559c-1.07 6.518-2.36 13.182-3.948 20.441-1.05 4.801-1.748 8.876-2.27 13.9-.52 5.025-.863 10.999-1.202 19.6-.252 6.378-.766 14.142-1.438 22.055-.672 7.913-1.5 15.975-2.383 22.945-2.236 17.676-3.374 26.784-3.724 31.662-.175 2.44-.153 3.823.027 4.69.18.867.518 1.218.975 1.598.277.23.516.663.718 1.28.203.619.367 1.422.495 2.393.255 1.943.365 4.557.326 7.705-.04 3.148-.225 6.83-.555 10.905-.33 4.075-.806 8.544-1.424 13.267-.64 4.89-1.12 9.646-1.44 14.278-.32 4.631-.48 9.139-.48 13.525 0 4.386.158 8.652.477 12.805.319 4.152.799 8.19 1.437 12.12.476 2.927.836 5.39 1.104 8.638.268 3.248.444 7.28.547 13.347.205 12.133.123 32.4-.078 70.787-.136 25.901-.341 46.65-.6 61.487-.259 14.836-.572 23.761-.928 26.013a217.84 217.84 0 0 0-1.416 10.75 324.067 324.067 0 0 0-1.092 12.684c-.636 9.344-1.105 20.71-1.507 35.566-.273 10.07-.609 18.268-1.01 24.662-.401 6.395-.868 10.985-1.406 13.838-.556 2.943-.975 8.322-1.258 14.996-.283 6.675-.43 14.645-.438 22.77-.008 8.125.122 16.403.39 23.697.27 7.294.68 13.603 1.228 17.785.791 6.036 1.726 11.427 2.845 16.28.56 2.426 1.165 4.718 1.822 6.888a79.939 79.939 0 0 0 2.13 6.159 63.557 63.557 0 0 0 2.47 5.507 54.154 54.154 0 0 0 2.84 4.938 50.22 50.22 0 0 0 6.914 8.48c1.267 1.252 2.414 2.314 3.59 3.282a35.977 35.977 0 0 0 3.765 2.712c2.77 1.743 6.256 3.482 11.655 5.971 7.116 3.281 15.016 7.172 17.556 8.647 2.266 1.315 6.575 3.275 11.948 5.513 5.373 2.239 11.81 4.756 18.336 7.19 6.526 2.433 13.14 4.783 18.867 6.683 5.726 1.9 10.563 3.35 13.535 3.989 5.863 1.258 18.382 4.352 29.666 7.254 11.283 2.901 21.331 5.61 22.254 6.097.977.515 5.377 1.688 9.777 2.604 4.4.916 11.375 2.535 15.5 3.6 2.512.647 7.647 1.635 14.125 2.765 6.478 1.13 14.298 2.4 22.176 3.615a1241.145 1241.145 0 0 0 22.523 3.28c6.711.905 12.198 1.556 15.176 1.755 5.225.35 14 1.468 19.5 2.485 2.168.4 4.154.715 6.37.957 2.214.242 4.658.412 7.738.525 6.16.226 14.867.223 29.392.113 9.213-.07 19.613-.265 28.947-.523 9.335-.258 17.603-.58 22.553-.902 9.321-.607 17.307-1.21 24.336-1.868 7.03-.657 13.103-1.37 18.598-2.19 5.495-.823 10.41-1.753 15.129-2.853 4.718-1.099 9.238-2.365 13.937-3.855 4.198-1.33 8.075-2.709 11.623-4.13 3.548-1.423 6.766-2.89 9.649-4.395 2.882-1.506 5.429-3.05 7.63-4.631 2.203-1.581 4.06-3.198 5.567-4.846 1.094-1.197 1.978-2.22 2.732-3.22.754-1 1.378-1.978 1.948-3.083 1.139-2.21 2.064-4.93 3.396-9.365a5664.71 5664.71 0 0 1 5.955-19.676c1.595-5.225 5.405-19.175 8.467-31 1.32-5.1 2.38-9.323 3.281-13.27a216.553 216.553 0 0 0 2.338-11.607c1.382-7.984 2.549-17.259 4.332-32.623 1.239-10.67 2.153-18.157 2.828-25.463.676-7.305 1.113-14.43 1.397-24.38.283-9.952.413-22.729.476-41.336.064-18.608.06-43.046.075-76.32.015-34.513.124-67.913.287-93.923.163-26.009.38-44.628.611-49.578.464-9.9 1.278-40.05 1.81-67 .267-13.475.628-26.678.997-37.095.368-10.418.744-18.049 1.037-20.38.585-4.66 1.064-12.326 1.064-17.036 0-2.356.167-5.842.438-9.563.27-3.72.644-7.675 1.054-10.965.41-3.29.788-7.404 1.063-11.385.275-3.98.45-7.826.457-10.576.009-3.156.22-7.71.566-12.92a632.41 632.41 0 0 1 1.37-16.855c.543-5.78 1.15-11.474 1.751-16.342.602-4.868 1.197-8.91 1.717-11.383 1.709-8.124 3.127-15.375 4.29-22.08 1.162-6.704 2.07-12.864 2.763-18.803a268 268 0 0 0 1.467-17.484c.299-5.827.42-11.763.402-18.133-.029-9.896-.111-15.718-.486-20.511a82.039 82.039 0 0 0-.813-6.8c-.363-2.262-.829-4.647-1.427-7.536a245.118 245.118 0 0 0-3.018-12.834c-1.076-4.07-2.206-7.886-3.346-11.309-1.14-3.423-2.288-6.455-3.4-8.957-1.112-2.502-2.189-4.475-3.182-5.781a23.743 23.743 0 0 0-2.562-2.84 31.347 31.347 0 0 0-3.229-2.66c-2.369-1.712-5.169-3.298-8.379-4.75s-6.829-2.77-10.836-3.942c-4.006-1.171-8.4-2.198-13.16-3.07-5.78-1.059-10.31-1.872-14.203-2.494-3.894-.622-7.152-1.053-10.389-1.354-3.236-.3-6.452-.468-10.261-.56-3.81-.092-8.213-.11-13.825-.108z" style="isolation:auto;mix-blend-mode:normal" color="#000" overflow="visible" fill="url(#c)" transform="translate(-203.86 -42.762)"/><path d="M655.77 42.844c-8.532.116-16.667.36-23.57.744-11 .612-34.85 1.502-53 1.978-9.076.239-18.056.575-25.216.922-7.159.348-12.497.708-14.285.996-1.787.29-6.563.613-12.816.903-6.253.29-13.984.546-21.684.697-15.4.302-32.725.994-38.5 1.537-16 1.504-28.57 2.783-40.058 4.108-11.49 1.324-21.899 2.692-33.578 4.378-5.575.805-11.926 1.463-14.114 1.463-2.187 0-6.274.435-9.08.967s-9.055 1.45-13.887 2.041c-3.568.436-8.102 1.341-13.16 2.578-5.058 1.237-10.64 2.806-16.302 4.569a320.696 320.696 0 0 0-16.791 5.732c-5.383 2.013-10.405 4.083-14.624 6.07-4.732 2.23-8.816 4.37-12.457 6.594a78.243 78.243 0 0 0-5.154 3.424 66.452 66.452 0 0 0-4.642 3.687 66.104 66.104 0 0 0-4.284 4.084 77.16 77.16 0 0 0-4.078 4.616c-2.685 3.283-5.336 7.01-8.158 11.359a140.989 140.989 0 0 0-4.775 7.9 118.615 118.615 0 0 0-3.971 7.73 96.508 96.508 0 0 0-3.13 7.485 76.163 76.163 0 0 0-2.26 7.174c-1.463 5.643-3.441 15.722-5.247 26.225-1.805 10.503-3.437 21.43-4.207 28.765a422.472 422.472 0 0 1-2.724 20.9c-1.05 6.721-2.215 13.008-3.403 18.301a189.741 189.741 0 0 0-2.056 10.649 223.13 223.13 0 0 0-2.522 22.275 173.677 173.677 0 0 0-.338 10.524c0 3.375-.22 8.164-.576 13.16s-.847 10.198-1.387 14.402c-1.079 8.409-3.092 25.414-4.474 37.79a446.527 446.527 0 0 1-2.905 21.33c-1.11 6.886-2.34 13.412-3.627 19.17-1.653 7.406-2.887 13.618-3.699 18.816-.406 2.599-.707 4.944-.902 7.058-.195 2.114-.284 3.998-.268 5.672.017 1.674.14 3.14.37 4.418.228 1.279.562 2.37 1.003 3.299.441.928.989 1.693 1.643 2.316a7.39 7.39 0 0 0 2.281 1.467c.81.338 1.416.593 1.889.946.473.352.812.801 1.084 1.53.544 1.46.82 4.036 1.373 9.178.608 5.665 1.854 15.7 2.767 22.3.696 5.023 1.079 9 1.204 14.232.124 5.232-.01 11.72-.346 21.767-.443 13.202-.685 24.083-.738 35.16-.054 11.078.082 22.352.394 36.34.12 5.39.141 11.065.07 16.801a563.023 563.023 0 0 1-.474 17.166 473.179 473.179 0 0 1-.961 16.182c-.395 5.08-.862 9.772-1.39 13.851-.41 3.163-.883 9.693-1.313 17.668-.43 7.975-.818 17.395-1.06 26.332-.486 17.875-1.103 33.625-1.372 35-.85 4.336-1.512 8.052-2.021 11.711-.51 3.66-.865 7.261-1.098 11.373-.233 4.112-.344 8.733-.365 14.426-.021 5.693.048 12.46.176 20.863.173 11.482.426 20.872.86 28.813.218 3.97.481 7.579.802 10.906.32 3.328.698 6.373 1.148 9.219.45 2.846.97 5.49 1.574 8.015a88.656 88.656 0 0 0 2.076 7.3 99.136 99.136 0 0 0 2.655 7.062c.99 2.369 2.088 4.78 3.308 7.312 1.22 2.533 2.237 4.579 3.188 6.332.95 1.754 1.837 3.214 2.793 4.58.956 1.367 1.983 2.638 3.219 4.01 1.235 1.372 2.68 2.845 4.47 4.615 3.233 3.197 5.623 5.357 7.9 7.01a30.98 30.98 0 0 0 3.426 2.166 41.37 41.37 0 0 0 3.803 1.803c3.85 1.618 12.85 5.933 20 9.59a325.288 325.288 0 0 0 19.826 9.308c6.825 2.931 13.896 5.7 21.31 8.344 7.416 2.643 15.174 5.158 23.37 7.582 8.196 2.424 16.83 4.755 25.996 7.028 14.576 3.612 29.134 7.475 32.35 8.582 3.216 1.106 9.515 2.7 13.998 3.544 4.483.845 10.175 2.18 12.65 2.965 2.475.786 8.1 1.938 12.5 2.56 4.4.624 18.755 2.9 31.899 5.057a635.216 635.216 0 0 0 18.67 2.788c5.437.72 9.652 1.176 11.33 1.191 1.678.015 4.385.24 7.394.59 3.01.35 6.32.828 9.207 1.346 2.377.426 4.5.755 7.012 1.003 2.512.25 5.412.42 9.346.526 7.867.212 19.865.173 41.142.023 12.925-.091 25.97-.3 36.572-.564 10.604-.265 18.766-.585 21.928-.895 6.325-.62 16.675-1.608 23-2.193 4.037-.374 7.87-.83 11.61-1.393 3.74-.563 7.385-1.234 11.046-2.035 3.662-.8 7.34-1.73 11.143-2.816a247.2 247.2 0 0 0 11.895-3.746c5.686-1.939 10.6-3.779 14.896-5.61 4.295-1.83 7.97-3.652 11.182-5.558a59.439 59.439 0 0 0 4.486-2.934 49.49 49.49 0 0 0 3.904-3.125c2.434-2.163 4.556-4.502 6.52-7.105 1.452-1.925 2.632-3.581 3.662-5.262a39.657 39.657 0 0 0 2.766-5.404c.855-2.019 1.685-4.35 2.61-7.29.927-2.938 1.95-6.483 3.194-10.923 2.23-7.961 4.526-15.715 5.102-17.23.576-1.516 3.753-13.258 7.06-26.094 1.359-5.272 2.434-9.549 3.336-13.426.902-3.878 1.63-7.358 2.29-11.032 1.317-7.347 2.36-15.476 3.986-29.146l3.597-30.262.942-64.5c.55-37.756.832-61.667.865-83.37.033-21.704-.184-41.2-.635-70.13-.238-15.283-.32-26.827-.236-35.529.083-8.702.332-14.561.754-18.47.326-3.026.72-11.12 1.094-21.723.372-10.604.723-23.715.962-36.778.521-28.453 1.13-51.304 1.862-69.492.366-9.094.762-17.022 1.195-23.9.434-6.88.904-12.71 1.414-17.608.83-7.975 1.51-18.775 1.508-24-.002-5.225.418-13.325.936-18 .517-4.675 1.449-14.35 2.072-21.5s1.585-14.755 2.137-16.9c1.008-3.92 2.997-14.997 7.021-39.1.471-2.821.843-5.3 1.137-7.851.294-2.552.51-5.175.67-8.287.318-6.225.408-14.404.441-27.862.038-15.248.045-23.05-.305-28.613-.175-2.781-.439-5.003-.834-7.316-.394-2.313-.92-4.717-1.617-7.864-1.463-6.61-2.896-12.373-4.361-17.44-1.466-5.066-2.964-9.435-4.557-13.259-1.593-3.824-3.282-7.103-5.129-9.986a47.28 47.28 0 0 0-2.896-4.047 44.676 44.676 0 0 0-3.18-3.567 41.235 41.235 0 0 0-4.047-3.556 53.967 53.967 0 0 0-4.834-3.319 70.11 70.11 0 0 0-5.59-3.07 89.49 89.49 0 0 0-6.31-2.806c-4.44-1.78-9.338-3.374-14.647-4.766-5.309-1.392-11.03-2.58-17.117-3.547-2.544-.404-6.275-.758-10.84-1.055-4.564-.297-9.963-.537-15.843-.716-11.762-.36-25.45-.473-38.246-.3zm19.751 17.72c5.612-.001 10.015.016 13.825.108 3.81.092 7.025.26 10.261.56 3.237.3 6.495.732 10.39 1.354 3.893.622 8.422 1.435 14.202 2.494 4.76.872 9.154 1.899 13.16 3.07 4.007 1.172 7.626 2.49 10.836 3.942s6.01 3.038 8.38 4.75a31.347 31.347 0 0 1 3.228 2.66c.966.917 1.82 1.864 2.562 2.84.993 1.306 2.07 3.279 3.182 5.781s2.26 5.534 3.4 8.957c1.14 3.423 2.27 7.239 3.346 11.309a245.118 245.118 0 0 1 3.018 12.834c.598 2.89 1.064 5.274 1.427 7.537.364 2.262.625 4.402.813 6.799.375 4.793.457 10.615.486 20.511.019 6.37-.103 12.306-.402 18.133a268 268 0 0 1-1.467 17.485c-.693 5.938-1.601 12.098-2.764 18.802-1.162 6.705-2.58 13.956-4.289 22.08-.52 2.473-1.115 6.515-1.717 11.383a579.873 579.873 0 0 0-1.752 16.342 632.41 632.41 0 0 0-1.369 16.855c-.345 5.21-.557 9.764-.566 12.92-.008 2.75-.182 6.596-.457 10.576-.275 3.98-.652 8.096-1.063 11.385-.41 3.29-.784 7.244-1.054 10.965-.27 3.72-.438 7.207-.438 9.563 0 4.71-.479 12.376-1.064 17.037-.293 2.33-.669 9.961-1.037 20.379-.369 10.417-.73 23.62-.996 37.095-.533 26.95-1.347 57.1-1.811 67-.232 4.95-.448 23.57-.611 49.578-.163 26.01-.272 59.41-.287 93.922-.015 33.275-.011 57.713-.075 76.32-.063 18.608-.193 31.385-.476 41.337-.284 9.95-.721 17.075-1.397 24.38-.675 7.306-1.59 14.792-2.828 25.463-1.783 15.364-2.95 24.64-4.332 32.623a216.553 216.553 0 0 1-2.338 11.608c-.902 3.946-1.96 8.17-3.281 13.27-3.062 11.824-6.872 25.774-8.467 31a5664.71 5664.71 0 0 0-5.955 19.675c-1.332 4.435-2.257 7.156-3.396 9.365a20.949 20.949 0 0 1-1.948 3.082c-.754 1-1.638 2.024-2.732 3.221-1.506 1.648-3.364 3.265-5.566 4.846-2.202 1.58-4.749 3.125-7.631 4.63-2.883 1.506-6.1 2.973-9.649 4.395-3.548 1.422-7.425 2.8-11.623 4.131-4.7 1.49-9.219 2.756-13.937 3.855-4.719 1.1-9.634 2.03-15.13 2.852-5.494.822-11.568 1.534-18.597 2.191-7.029.658-15.015 1.261-24.336 1.868-4.95.322-13.218.644-22.553.902-9.334.258-19.734.454-28.947.523-14.524.11-23.232.113-29.392-.113-3.08-.113-5.524-.283-7.739-.525a84.222 84.222 0 0 1-6.369-.957c-5.5-1.017-14.275-2.136-19.5-2.485-2.978-.199-8.465-.85-15.176-1.756A1241.145 1241.145 0 0 1 459 929.992c-7.878-1.215-15.698-2.485-22.176-3.615-6.478-1.13-11.613-2.118-14.125-2.766-4.125-1.064-11.1-2.683-15.5-3.6-4.4-.915-8.8-2.088-9.777-2.603-.923-.486-10.97-3.196-22.254-6.097-11.284-2.902-23.803-5.996-29.666-7.254-2.972-.638-7.81-2.089-13.535-3.989-5.726-1.9-12.341-4.25-18.867-6.683-6.527-2.434-12.963-4.951-18.336-7.19-5.373-2.238-9.682-4.198-11.948-5.513-2.54-1.475-10.44-5.366-17.556-8.647-5.399-2.489-8.885-4.228-11.655-5.97a35.977 35.977 0 0 1-3.765-2.713c-1.176-.968-2.323-2.03-3.59-3.282a50.22 50.22 0 0 1-6.914-8.48 54.154 54.154 0 0 1-2.84-4.938 63.557 63.557 0 0 1-2.47-5.507 79.939 79.939 0 0 1-2.13-6.159 105.922 105.922 0 0 1-1.822-6.888c-1.119-4.853-2.054-10.244-2.845-16.28-.549-4.182-.958-10.49-1.227-17.785-.27-7.294-.399-15.572-.39-23.697.007-8.125.154-16.095.437-22.77.283-6.674.702-12.053 1.258-14.996.538-2.853 1.005-7.443 1.406-13.838.401-6.394.737-14.591 1.01-24.662.403-14.857.871-26.222 1.507-35.566.318-4.672.679-8.84 1.092-12.684a217.84 217.84 0 0 1 1.416-10.75c.356-2.252.669-11.177.928-26.013.259-14.837.464-35.586.6-61.487.2-38.386.283-58.654.078-70.787-.103-6.066-.28-10.1-.547-13.347-.268-3.248-.628-5.711-1.104-8.637a144.63 144.63 0 0 1-1.437-12.121c-.32-4.153-.477-8.419-.477-12.805 0-4.386.16-8.894.48-13.525.32-4.632.8-9.389 1.44-14.278a273.253 273.253 0 0 0 1.424-13.267c.33-4.075.516-7.756.555-10.905.039-3.148-.07-5.762-.326-7.705-.128-.971-.292-1.774-.495-2.392-.202-.618-.441-1.052-.718-1.281-.457-.38-.795-.731-.975-1.598-.18-.867-.202-2.25-.027-4.69.35-4.878 1.488-13.986 3.724-31.662.882-6.97 1.712-15.032 2.383-22.945.672-7.913 1.186-15.677 1.438-22.055.34-8.601.682-14.575 1.203-19.6.52-5.024 1.22-9.099 2.27-13.9 1.586-7.259 2.878-13.923 3.947-20.441a333.994 333.994 0 0 0 2.613-19.559c.605-5.786 1.446-12.163 2.428-18.64a535.806 535.806 0 0 1 3.277-19.239c1.172-6.183 2.393-11.974 3.568-16.878 1.176-4.905 2.307-8.923 3.3-11.563.822-2.19 2.21-4.992 3.927-8.05 1.716-3.06 3.76-6.374 5.894-9.585 2.134-3.21 4.359-6.318 6.434-8.965 2.075-2.646 4.001-4.833 5.541-6.199 1.33-1.18 3.516-2.68 6.213-4.324 2.697-1.644 5.904-3.43 9.285-5.184a198.306 198.306 0 0 1 10.316-4.982c3.384-1.51 6.598-2.809 9.301-3.72 5.879-1.983 10.86-3.598 15.444-4.954 4.583-1.356 8.77-2.454 13.06-3.406 4.29-.952 8.685-1.758 13.684-2.527 4.999-.77 10.603-1.505 17.312-2.315 23.15-2.795 34.116-4.159 40.5-5.041 5.779-.799 12.2-1.568 18.83-2.273a837.71 837.71 0 0 1 20.084-1.89 674.858 674.858 0 0 1 18.735-1.288c5.73-.306 10.803-.477 14.783-.477 4.806 0 10.36-.113 15.44-.295 5.078-.18 9.681-.43 12.581-.705 11.66-1.104 21.738-1.875 33.618-2.484 11.88-.61 25.56-1.057 44.43-1.52 10.862-.266 21.562-.623 30.048-.982 8.487-.36 14.76-.721 16.774-1 2.013-.279 6.396-.532 11.833-.717 5.438-.185 11.93-.3 18.167-.303z" style="isolation:auto;mix-blend-mode:normal" color="#000" overflow="visible" fill="url(#b)" transform="translate(-203.86 -42.762)"/><path d="M537.455 117.574c-23.145.005-38.522 2.513-58.246 9.496-13.816 4.892-25.714 15.34-32.451 28.5-6.142 11.997-5.04 20.919 4.072 33.012 6.375 8.46 9.734 11.399 14.43 12.62 2.89.75 2.866.776-1.385 1.527-15.617 2.756-30.139 17.739-30.166 31.123-.012 5.893 3.167 15.681 7.096 21.85 8.429 13.231 27.636 25.204 42.884 26.732l6.51.652-.248 5.992c-.331 8.02-2.613 13.725-7.049 17.62-3.399 2.984-7.21 4.94-30.154 15.488-13.777 6.333-24.697 16.14-27.172 24.4-1.398 4.666.165 14.185 3.356 20.44 2.915 5.714 13.014 15.335 21.785 20.753 5.933 3.665 10.15 5.316 20 7.823 12.222 3.11 12.845 3.167 29.982 2.7 20.383-.553 36.753-3.636 48.51-9.13 11.75-5.49 16.49-11.779 16.49-21.873 0-10.912-8.639-21.807-22.52-28.399-5.92-2.812-7.471-3.998-7.437-5.691.045-2.2 3.54-25.421 6.494-43.139.917-5.5 1.97-10.326 2.338-10.724.37-.398 4.037-1.368 8.149-2.157 9.983-1.913 16.371-4.45 23.529-9.343 11.14-7.617 14.694-13.372 14.684-23.776-.01-10.318-1.639-14.173-8.942-21.16-6.339-6.064-17.405-12.69-25.545-15.295-3.148-1.007-3.75-1.648-3.75-3.986 0-2.418.823-3.194 6.25-5.893 10.618-5.279 20.115-12.328 27.588-20.476 3.94-4.295 7.162-8.233 7.162-8.75 0-.243.091-.456.22-.623-.268-6.541-.481-12.89-.722-19.33-.219-5.871-.334-11.38-.482-17.002l-.305.924-3.84-3.288c-10.473-8.964-22.176-11.624-51.115-11.617zm2.547 27.156c17.638.07 31.697 2.76 31.697 6.405 0 .693-2.273 3.982-5.053 7.308-4.715 5.644-11.74 10.76-21.308 15.524-2.124 1.057-4.656 3.228-5.625 4.822-.97 1.594-3.282 3.705-5.139 4.691-4.228 2.246-7.72 7.273-8.517 12.26l-.614 3.83H502.7l-.022-10.25c-.032-15.052-2.933-20.275-13.494-24.308-5.684-2.171-10.831-1.25-14.713 2.633-3.299 3.298-3.772 3.496-3.772 1.57 0-2.482 6.989-10.555 11.354-13.113 10.786-6.322 29.112-10.422 50.2-11.237 2.636-.102 5.23-.145 7.749-.135zm-68.219 55.963c.347-.014.743.05 1.104.194.797.319.561.555-.604.603-1.054.044-1.645-.19-1.312-.523.166-.166.465-.259.812-.274zm46.578 26.85c6.505-.048 5.74.564 3.84 13.408-.823 5.566-2.201 15.07-3.062 21.12-.861 6.05-1.685 11.674-1.83 12.5-.596 3.37-7.65-26.372-10.14-42.75l-.646-4.25h8.588c1.244 0 2.321-.021 3.25-.028zm-42.9 1.033c3.11-.036 3.43 2.408 5.156 11.244 1.21 6.188 2.427 12.038 2.707 13 .646 2.22-.087 2.152-5.625-.52-6.36-3.067-16-12.632-16-15.874 0-3.367 2.537-5.512 8.014-6.774 2.21-.509 3.843-.913 5.088-1.037a7.54 7.54 0 0 1 .66-.039zm75.447 6.06l3.647 1.913c2.004 1.051 4.95 2.984 6.545 4.293l2.9 2.379-3.51 2.17c-1.93 1.193-5.424 2.844-7.763 3.67l-4.254 1.5.664-4.745c.365-2.61.913-6.193 1.218-7.962l.553-3.217zm-34.834 53.122c.068-.025.146 0 .229.084.332.332.369 1.194.08 1.916-.32.798-.558.561-.606-.604-.032-.79.093-1.32.297-1.396zm-6.144 30.486l-.659 4.412a877.19 877.19 0 0 1-1.75 11.022c-1.607 9.724-.484 15.236 4.02 19.715 2.038 2.026 6.383 4.725 9.678 6.01 11.446 4.463 13.54 5.505 12.713 6.333-.459.458-4.861 1.725-9.784 2.813-11.876 2.625-38.558 2.653-48.523.05-9.253-2.416-23.213-12.137-21.473-14.953 1.195-1.933 9.004-6.772 13.047-8.085 6.584-2.139 22.075-9.604 27.205-13.11 2.637-1.802 7.21-5.736 10.16-8.742l5.366-5.465zM593.23 721.127l-.205.32-3.414-5.152c-3.883-5.862-12.816-12.423-21.172-15.549-2.992-1.12-12.82-3.747-21.84-5.838l-16.4-3.8-31.072-.333c-4.35-.046-8.234-.078-11.723-.086a484.54 484.54 0 0 0-9.351.057c-16.608.285-21.487 1.711-29.67 6.072-13.788 7.35-19.482 16.688-18.358 30.102 1.225 14.61 11 27.06 27.436 34.947l8.318 3.99-.615 4.606c-.338 2.533-.766 5.103-.951 5.709-.188.614-3.807 1.344-8.176 1.652-10.093.711-17.546 3.578-23.998 9.227-9.638 8.438-11.647 17.72-6.283 29.02 3.109 6.548 12.825 16.112 20.816 20.49 3.506 1.92 6.489 3.945 6.627 4.5.138.554.743 4.2 1.344 8.097.601 3.898 1.35 7.755 1.664 8.572.42 1.093-.565 1.762-3.719 2.532-15.307 3.737-27.667 7.742-30.45 9.865-9.977 7.609-10.42 18.897-1.063 27.111 11.521 10.116 30.248 16.579 83.224 28.717 6.05 1.386 11.9 2.742 13 3.016 1.1.273 9.875.328 19.5.123 18.986-.406 24.325-1.399 33.063-6.155 15.61-8.496 20.648-21.945 13.285-35.472-6.72-12.345-22.89-20.926-45.098-23.93l-9.25-1.252v-9.363l7.582-1.647c9.133-1.982 13.662-4.595 15.81-9.123 2.03-4.278 2.038-7.875.022-12.123-1.696-3.574-4.691-5.989-8.666-6.986l-2.459-.617 1.924-3.678c3.259-6.228 1.052-16.492-5.433-25.264-1.777-2.403-1.862-3.324-.926-10.029.567-4.061 1.31-9.95 1.654-13.088.702-6.407-.125-5.85 12.328-8.314 15.842-3.135 26.628-8.253 35.442-16.819l4.316-4.195c.741-5.322 1.434-10.508 2.326-16.22.295-1.889.316-1.842.611-3.692zM490.086 717.7c2.821.018 5.935.058 9.38.113 25.272.41 26.013.481 41.409 4.022 8.622 1.983 17.148 4.367 18.947 5.297l3.27 1.691-3.762 1.932c-6.283 3.223-18.588 5.914-28.9 6.32-15.75.62-18.102 3.326-19.133 21.994-.365 6.6-.925 13.913-1.244 16.25-.601 4.395-.838 4.527-5.854 3.25-1.65-.42-5.157-.817-7.795-.883l-4.797-.117.797-3.75c.438-2.062.795-8.51.795-14.33 0-9.99-.152-10.779-2.738-14.168-3.005-3.937-8.37-6.255-12.586-5.437-5.163 1-18.889-8.227-20.549-13.815-.443-1.493.225-2.559 2.639-4.207 4.232-2.888 8.83-3.973 22.494-4.146 2.277-.03 4.806-.034 7.627-.016zm-3.072 86.87h4.476c2.462 0 6.251.531 8.42 1.18 4.421 1.326 4.288.106 1.588 14.57-1.136 6.086-1.246 6.246-4.232 6.158-2.814-.084-13.627-2.635-14.387-3.395-.18-.18.68-4.418 1.906-9.42l2.229-9.094zm-29.596.392c1.425-.096 1.329.565.72 2.988-.74 2.954-1.208 3.11-3.689 1.227-2.515-1.91-2.16-3.296 1-3.903.85-.163 1.494-.28 1.969-.312zm28.781 47.726l4 .495c11.403 1.41 10.5.77 10.5 7.431 0 3.275-.225 5.955-.5 5.955s-.5-.718-.5-1.595c0-2.856-4.068-7.4-8.836-9.87l-4.664-2.416zm13.733 18.104c.287-.035.925 1.262 1.705 3.55 3.75 11.007 6.353 12.22 36.006 16.784 5.56.856 14.378 3.854 17.25 5.865 2.163 1.516 2.154 1.534-1.477 3.051-4.93 2.06-31.494 1.972-40.717-.135-12.038-2.75-42.462-10.348-47-11.738-3.984-1.22-4.213-1.44-2-1.904 5.819-1.222 13.838-2.6 18.5-3.18 2.75-.342 6.44-1.077 8.2-1.63 3.852-1.214 9.273-7.097 9.37-10.17.01-.321.067-.481.163-.493z" fill="url(#d)" transform="translate(-203.86 -42.762)"/><path d="M593.23 721.127c-.295 1.85-.316 1.803-.61 3.691-.893 5.713-1.586 10.9-2.327 16.221l.055-.053 1.728 4.182c2.486 6.01 9.805 13.03 15.785 15.143 4.683 1.653 4.948 1.932 4.41 4.634-.314 1.582-.572 4.518-.572 6.528v3.654l-8.48 1.156c-10.464 1.427-19.945 6.044-22.893 11.149-2.786 4.824-2.455 11.288.832 16.256 3.12 4.714 14.348 12.333 24.164 16.396 3.782 1.565 7.177 3.102 7.543 3.416.367.314.808 7.698.979 16.408l.31 15.838-3.761 2.27c-9.672 5.837-13.722 13.248-11.545 21.13 1.772 6.421 6.044 9.957 17.384 14.391 5.732 2.24 11.893 4.347 13.694 4.68 1.8.333 9.798 2.55 17.773 4.928 22.768 6.787 31.515 7.684 47.58 4.882 10.194-1.777 15.478-4.384 19.815-9.779 4.24-5.273 4.356-13.013.302-19.93-3.328-5.68-7.698-8.811-17.126-12.271-11.784-4.325-13.003-5.995-10.409-14.27a870.56 870.56 0 0 0 3.92-12.988c1.895-6.475 2.5-7.434 5.448-8.666 1.823-.762 4.102-2.588 5.064-4.057l1.75-2.67 1.91 5.118c1.05 2.814 2.942 5.793 4.205 6.62 8.542 5.597 18.849 2.228 21.395-6.993 1.402-5.08-.284-14.744-3.543-20.305-3.476-5.931-13.272-13.92-21.56-17.582-6.33-2.796-6.75-3.183-6.75-6.217 0-3.022.346-3.35 5.25-4.93 6.697-2.158 18.806-8.615 25.259-13.47 13.267-9.98 14.276-26.006 2.553-40.545-9.543-11.836-41.29-26.857-62.338-29.496-20.823-2.611-45.851.42-59.074 7.156-5.087 2.59-12.325 9.3-15.65 14.508l-2.47 3.867zm62.092 1.46c13.457-.016 14.625.147 24.785 3.476 11.813 3.869 14.112 4.913 23.684 10.751 10.07 6.142 10.21 6.9 2.145 11.645-7.581 4.459-12.189 5.898-21.108 6.592-6.916.537-11.52 2.515-13.209 5.67-2.472 4.619-2.859 8-1.394 12.203.794 2.28 1.45 4.709 1.459 5.396.015 1.348-.63 1.362-8.985.207-3.025-.418-8.087-.803-11.25-.857-3.162-.054-5.757-.437-5.767-.85-.01-.412-.427-4.641-.928-9.398-.94-8.934-3.199-14.864-6.95-18.256-1.158-1.048-2.105-2.553-2.105-3.346 0-4.565-7.653-10.25-13.8-10.25-3.937 0-4.424-.813-2.467-4.125 3.505-5.934 15.25-8.832 35.89-8.857zm2.461 82.106c.347-.014.743.05 1.104.194.797.319.561.555-.604.603-1.054.044-1.645-.19-1.312-.523.166-.166.465-.259.812-.274zM640.7 829.781l3.75.871c2.063.48 7.64.882 12.395.895l8.646.023-1.896 6.088c-2.798 8.99-2.909 9.11-6.207 6.705-2.981-2.174-9.187-2.852-13.938-1.523l-2.75.767v-13.826zm18.11 36.002c.339-.158 1.19 1.096 1.892 2.79.701 1.692 2.595 4.901 4.21 7.13 1.614 2.229 2.79 4.184 2.612 4.346-.535.485-23.825-6.734-23.812-7.381.007-.33 3.267-1.948 7.246-3.598 3.979-1.65 7.512-3.129 7.852-3.287zM365.662 672.654c-4.184.022-9.459.099-16.299.21-31.204.503-39.203 1.446-52.967 6.236-8.528 2.968-18.411 9.378-21.578 14-6.262 9.138-5.966 18.411.93 29.209 4.574 7.16 7.24 9.221 12.912 9.982 3.606.484 4.04.836 4.04 3.29 0 2.55-.472 2.863-6.595 4.401-8.622 2.166-19.467 7.682-22.732 11.563-8.655 10.286-2.854 23.994 15.336 36.242 9.736 6.555 9.487 5.654 5.453 19.652-3.654 12.681-5.165 15.118-10.627 17.143-6.81 2.525-10.825 5.75-12.931 10.389-3.605 7.936-1.404 16.547 5.763 22.564 3.734 3.135 31.443 16.689 42.83 20.95 4.445 1.663 14.464 4.271 36.002 9.378 4.61 1.093 25.695.587 34.5-.828 15.498-2.49 21.902-7.006 23.52-16.582 1.784-10.562-6.618-21.658-22.598-29.842L372.2 836.3l-.117-6.828c-.065-3.755-.426-10.345-.8-14.645l-.682-7.816 4.96-2.096c5.867-2.478 8.481-6.598 8.381-13.201-.056-3.743.415-4.78 3.323-7.334 3.93-3.45 5.571-8.27 4.474-13.135-.984-4.365-5.994-11.667-10.623-15.482l-3.594-2.961.717-10.096c.394-5.552.999-9.92 1.344-9.707 1.373.848 11.863-1.746 17.57-4.346 8.394-3.823 11.973-7.171 15.645-14.63 2.804-5.697 3.084-7.021 2.467-11.688-.98-7.41-3.612-12.77-8.688-17.69-5.571-5.4-9.665-7.487-19.855-10.128-3.844-.997-6.342-1.52-11.301-1.739-2.48-.11-5.574-.144-9.758-.123zM434.375 675l163.889 15.72L434.375 675zm-77.438 24.98c11.93.036 22.431.503 25.104 1.448 4.483 1.584 4.014 2.294-3.016 4.574-2.845.923-5.673 2.28-6.285 3.018-.864 1.04-1.882 1.105-4.56.283-5.072-1.557-10.738.425-14.205 4.97-2.61 3.422-2.797 4.347-3.131 15.47-.406 13.518.78 12.522-11.645 9.769-4.4-.975-9.575-1.817-11.5-1.871-6.98-.196-8-.893-8-5.477 0-5.22-2.456-14.835-4.642-18.172-2.208-3.369-6.935-5.695-11.573-5.695-2.082 0-3.785-.179-3.785-.399 0-1.08 9.994-4.462 17.764-6.011 5.727-1.142 20.344-1.796 34.293-1.895a514.03 514.03 0 0 1 5.182-.012zM320.57 764.6c.402-.006.859-.004 1.38 0 2.337.016 8.974 1.049 14.75 2.295 11.56 2.493 11.937 2.862 10.54 10.306-.566 3.018-.965 3.36-3.836 3.285-1.762-.046-7.03-.987-11.705-2.09-4.675-1.102-9.85-2.32-11.5-2.707-1.945-.454-2.97-1.301-2.916-2.41l.25-5.209c.143-3 .228-3.43 3.037-3.47zm-6.257 38.312c1.235.092 6.073.99 11.7 2.182 6.432 1.362 12.975 2.476 14.542 2.476h2.847l.598 11.75c.466 9.144.255 12.86-.955 16.754-2.954 9.503 1.138 17.17 11.951 22.393l6.203 2.996-4.5-.063c-5.128-.07-4.456.056-20.654-3.902-15.315-3.742-20.915-5.674-30.543-10.539l-7.697-3.889 3.424-5.416c4.055-6.416 7.677-15.598 10.457-26.504 1.11-4.355 2.156-8.057 2.326-8.226.02-.021.124-.025.3-.012zM698.2 442.07l-27 .022c-29.833.024-43.831 1.3-54.737 4.99-7.744 2.62-11.323 5.348-13.393 10.205-1.847 4.335-1.694 7.975.541 12.897 1.567 3.45 3.404 5.028 11.399 9.798 5.242 3.129 11.14 5.95 13.11 6.27 1.968.32 3.58.636 3.58.703 0 .067-.956 3.271-2.122 7.12-1.588 5.242-2.17 10.08-2.32 19.302l-.2 12.307-4.113 2.722c-4.877 3.23-7.504 6.428-9.086 11.063-3.692 10.82 2.742 26.58 14.067 34.45 5.14 3.573 5.326 3.874 7.357 11.91 1.146 4.533 1.986 8.376 1.867 8.54-.118.164-4.881 1.37-10.584 2.682-19.213 4.416-29.256 9.56-32.746 16.77-5.631 11.632.296 24.826 16.26 36.193 6.28 4.471 10.304 6.493 21.62 10.869a577.087 577.087 0 0 1 13 5.25c3.574 1.505 10.1 3.33 14.5 4.058 8.93 1.477 30.038 1.08 38.708-.728 8.683-1.81 17.497-6.504 20.815-11.084 7.725-10.664 3.695-21.262-11.407-29.99-3.914-2.263-7.26-4.228-7.435-4.368-.175-.139.246-5.71.933-12.378 1.213-11.765 1.326-12.144 3.817-12.73 11.14-2.624 14.584-17.034 5.691-23.817-1.821-1.39-3.83-2.526-4.467-2.526-.635 0-1.161-1.237-1.17-2.75-.007-1.512-.301-3.828-.654-5.144l-.64-2.395 2.937 2.172c9.045 6.687 21.396.68 21.346-10.383-.01-2.2-.845-5.82-1.856-8.045-2.095-4.612-11.224-13.171-17.726-16.62l-4.393-2.33.018-14.503.015-14.502 5.735-2.474c15.494-6.688 21.552-20.674 14.87-34.33-3.265-6.675-7.618-10.354-18.278-15.444l-7.86-3.752zm-37.202 26.5h14.201c13.304 0 21.134 1.168 20.012 2.983-.268.433-3.445 1.345-7.06 2.027-11.535 2.176-16.701 9.811-13.07 19.316 1.143 2.997 1.618 7.532 1.618 15.458v11.216h-22l.018-6.25c.01-3.437 1.133-10.975 2.496-16.75s2.773-14.437 3.133-19.25l.652-8.75zm-4.521 77.752l9.572.418c5.264.23 9.83.677 10.146.992.316.316.446 5.31.29 11.096l-.286 10.522-5.5-1.72c-11.781-3.68-12.09-4.04-13.558-15.935l-.664-5.373zm15.546 50.407c.143-.001.303.019.48.054 1.423.285 1.648 1.38 1.397 6.813-.164 3.56-1.008 10.907-1.877 16.326-1.79 11.177-1.124 15.356 3.291 20.603l2.563 3.045-6.84-.101c-7.78-.115-13.004-1.157-17.543-3.504-1.726-.893-7.093-3.093-11.928-4.89-4.834-1.798-10.92-4.518-13.523-6.044-4.612-2.702-4.67-2.797-2.29-3.685 1.345-.502 6.721-1.792 11.946-2.867 27.185-5.598 33.485-9.6 33.223-21.11-.082-3.612.102-4.632 1.101-4.64z" fill="url(#e)" transform="translate(-203.86 -42.762)"/><path d="M511.42 426.584c-11.969.135-22.802 1.213-29.36 3.266-9.865 3.088-20.569 9.644-24.414 14.95-7.22 9.969-6.08 30.699 2.676 48.63 2.987 6.116 4.419 7.87 8.485 10.398 4.158 2.585 4.891 3.505 4.88 6.14-.011 2.885-.483 3.295-6.75 5.866-17.058 6.997-23.43 17.433-18.75 30.701 1.815 5.143 6.636 11.387 11.526 14.93 2.18 1.579 3.456 3.233 3.18 4.12-1.286 4.126-8.59 17.602-12.047 22.23-10.039 13.436-13.161 26.56-9.76 41.015 2.434 10.345 10.082 18.414 21.61 22.803 3.022 1.15 15.847 3.844 28.5 5.984 12.652 2.14 24.353 4.346 26.003 4.9 4.41 1.482 27.885.554 35-1.382 7.993-2.175 14.276-6.17 17.969-11.424 2.646-3.764 3.03-5.16 3.018-10.977-.02-8.856-2.724-13.66-15.612-27.748l-9.986-10.916.516-9c.282-4.95 1.094-11.203 1.804-13.896 1.245-4.72 1.465-4.942 6.123-6.117 5.78-1.459 9.501-4.056 12.055-8.416 3.698-6.316 1.517-15.519-4.404-18.58-3.075-1.59-3.603-2.965-2.067-5.391.741-1.17 1.436-1.078 4.23.555 2.785 1.626 3.454 2.717 3.999 6.527.836 5.845 2.097 8.143 5.992 10.916 6.387 4.548 15.678 1.97 19.557-5.426 2.313-4.411 2.081-15.143-.45-20.816-3.9-8.744-18.216-18.83-29.027-20.451-4.438-.666-4.174-2.356.373-2.39 4.338-.03 14.115-6.038 20.28-12.458 8.668-9.028 11.646-15.729 11.576-26.057-.067-9.876-2.853-15.985-10.38-22.752-6.958-6.256-21.038-13.317-31.214-15.656-11.09-2.549-25.965-3.926-39.942-4.078-1.747-.019-3.48-.02-5.19 0zm-.223 27.168c7.41.06 16.384.481 23.336 1.234 15.294 1.658 19.409 2.653 27.264 6.598 10.083 5.064 11.182 8.63 4.545 14.748-4.96 4.571-8.65 5.7-15.54 4.752-6.114-.841-10.963 1.079-14.204 5.623-2.116 2.967-2.399 4.452-2.399 12.61v9.245l-11.611.004c-6.386.002-13.698.29-16.25.64l-4.639.636-.008-12.387c-.009-14.017-1.332-27.595-3.533-36.285-.822-3.245-1.23-6.163-.906-6.486.691-.692 6.535-.992 13.945-.932zm17.694 82.77c2.891.03 4.803.124 4.793.298-.008.138-.62 2.275-1.36 4.75l-1.344 4.5-13.89.127c-18.414.168-18.363.18-17.346-4.328.446-1.976 1.406-3.968 2.133-4.43.85-.538 18.34-1.01 27.014-.918zm-38.182 35.947a.53.53 0 0 1 .166.025c.728.233 8.215.619 16.639.858 13.506.383 15.243.623 14.703 2.03-.337.879-1.081 7.91-1.654 15.624-.77 10.35-.741 15.03.107 17.861.778 2.598 4.502 7.45 11.527 15.02l10.377 11.183-4.187.676c-5.81.938-12.625.825-16.188-.267-3.066-.94-16.767-3.412-35.5-6.403-5.775-.922-12.412-2.513-14.75-3.535l-4.25-1.86v-5.898c0-5.431.384-6.447 4.83-12.806 6.399-9.151 12.059-19.426 14.795-26.86 1.357-3.686 2.534-5.645 3.385-5.648z" fill="url(#d)" transform="translate(-203.86 -42.762)"/><path d="M671.053 91.842c-5.716-.023-11.842.378-18.604 1.148-17.009 1.937-28.174 4.605-35.17 8.406-10.176 5.531-20.246 17.073-23.502 26.938l-1.062 3.22c.148 5.623.263 11.132.482 17.003.24 6.44.454 12.789.723 19.33.147-.19.347-.317.582-.317.442 0 1.793 3.07 3.002 6.825 3.12 9.689 10.073 20.175 15.338 23.134 5.87 3.3 11.68 3.177 16.295-.343 1.96-1.495 3.562-2.24 3.562-1.659 0 .583.876 7.468 1.947 15.301 1.072 7.833 2.237 16.726 2.588 19.762l.637 5.52-4.836 1.292c-23.727 6.34-31.162 22.473-16.92 36.715 2.895 2.895 8.036 6.66 11.424 8.371 3.388 1.71 6.16 3.593 6.16 4.182 0 .589-2.29 5.53-5.09 10.98-4.167 8.113-6.26 10.937-11.55 15.582-6.77 5.944-16.966 18.684-20.51 25.631-4.792 9.393-1.091 21.361 8.972 29.024 16.232 12.358 50.137 27.646 68.002 30.66 7.328 1.236 12.408 1.137 20.434-.399 12.505-2.392 19.022-6.26 22.666-13.453 8.532-16.839-4.487-42.722-26.676-53.029-2.846-1.322-4.946-2.775-4.666-3.228.28-.454 1.887-5.447 3.57-11.096 1.684-5.65 4.425-13.422 6.094-17.272 2.883-6.649 3.33-7.143 8.918-9.832 7.223-3.475 14.512-10.706 18.69-18.545 5.692-10.68 3.641-23.417-4.873-30.26-3.505-2.816-3.687-3.231-2.924-6.683.714-3.235 2.943-27.695 2.943-32.303 0-1.074 1.287-2.146 3.418-2.85 5.567-1.837 19.725-10.837 24.738-15.726 9.498-9.261 12.75-20.936 9.887-35.486-1.497-7.612-2.896-10.518-8.814-18.315-7.398-9.747-11.248-13.437-20.229-19.383-19.272-12.76-34.013-18.315-53.22-18.81-.8-.02-1.61-.032-2.426-.035zm-.555 27.875c.919.007 1.82.024 2.701.053 13.414.43 17.716 1.754 32.23 9.925 7.807 4.395 17.777 13.378 21.346 19.233 2.802 4.595 2.631 12.645-.326 15.357-4.677 4.291-14.216 9.56-20.613 11.385-13.368 3.815-14.642 6.182-16.088 29.9-.587 9.625-1.344 19.638-1.686 22.25l-.62 4.75H664.7v-2.54c0-5.07-5.096-38.516-7.03-46.141-4.578-18.048-11.018-29.044-17.256-29.47-7.447-.506-14.096 2.834-15.316 7.696-.933 3.717-2.032 2.967-3.356-2.289-2.388-9.485-2.992-19.443-1.408-23.24 2.054-4.926 6.817-9.533 12.283-11.885 6.577-2.83 24.102-5.086 37.881-4.984zm1.451 140.924c4.979.048 6.624.34 5.25.93-2.81 1.207-12.5 1.207-12.5 0 0-.582 3.037-.971 7.25-.93zm-6.644 29.93h4.445l-1.686 3.25c-2.725 5.254-11.477 33.809-12.029 39.25-.407 4.013-.03 5.887 1.903 9.5 2.085 3.895 3.675 5.17 11.85 9.5 5.192 2.75 10.902 5.888 12.69 6.974 3.833 2.328 8.599 9.097 7.825 11.113-.392 1.02-2.281 1.39-6.823 1.332-3.454-.043-6.73-.229-7.28-.414-.55-.185-5.954-1.913-12.007-3.84-9.552-3.04-29.024-12.38-37.802-18.132l-2.733-1.792 2.701-3.62c1.487-1.992 6.801-7.672 11.81-12.622 8.393-8.291 9.588-9.986 15.192-21.533 3.346-6.893 6.403-13.98 6.791-15.75.667-3.034.959-3.217 5.153-3.217zM378.342 442.572c-34.198.005-62.825 5.116-80.026 14.283-6.742 3.594-9.608 7.48-9.613 13.032-.005 4.975 1.238 7.327 6.436 12.183 3.974 3.714 4.475 4.788 7 15 1.495 6.05 2.939 11.788 3.207 12.75.268.963-.043 1.75-.694 1.75-.65 0-5.744 2.223-11.318 4.942-20.568 10.03-27.462 20.518-21.535 32.761 2.813 5.812 8.92 9.864 18.072 11.987 4.03.935 7.493 1.816 7.695 1.957.203.141-2.782 5.79-6.632 12.554-7.787 13.68-12.582 23.028-13.747 26.8-.424 1.374-2.727 4.68-5.117 7.343-11.442 12.753-6.617 28.938 10.13 33.982 5.208 1.57 27.028 5.475 48.5 8.68 15.732 2.35 43.188 2.103 52.335-.47 13.951-3.926 24.451-11.502 26.584-19.184 1.83-6.589 1.305-14.325-1.357-20.043-3.631-7.799-6.329-10.937-13.793-16.037-4.617-3.155-6.64-5.14-6.324-6.205.585-1.979 6.554-28.061 6.554-28.639 0-.235 2.37-.428 5.266-.428 6.541 0 11.458-2.498 13.906-7.062 2.904-5.414 2.119-11.647-1.984-15.75-1.857-1.857-1.825-1.916 1.709-3.16 8.111-2.856 14.058-10.27 14.058-17.528 0-4.36-3.309-10.962-6.783-13.53l-3.014-2.227 5.946-3.971c9.944-6.641 14.136-13.928 14.142-24.586.003-5.004-.598-7.496-2.9-12-4.298-8.41-10.61-12.388-25.703-16.195-11.12-2.806-13.047-2.992-31-2.989zm-7.828 28.1c13.603-.267 26.65.178 31.859 1.474 4.03 1.004 7.326 2.124 7.326 2.489 0 1.688-12.244 5.908-19.928 6.869-4.635.58-9.993 1.868-11.908 2.861-3.857 2.002-7.164 7.239-7.164 11.346 0 2.472-.393 2.722-5.25 3.34-2.887.367-10.65 1.551-17.25 2.633-6.6 1.081-12.79 2.205-13.756 2.496-1.104.333-2.008-.138-2.441-1.266-.999-2.602-7.066-26.793-6.803-27.123.123-.153 4.673-1.2 10.112-2.33 7.439-1.545 21.6-2.523 35.203-2.79zm3.808 55.334l-.98 4.283c-.842 3.677-1.344 4.282-3.56 4.295-1.42.008-9.012.456-16.87.992-7.858.537-15.323 1.236-16.588 1.553-2.086.523-2.256.291-1.847-2.492.247-1.687.658-3.067.914-3.067.255 0 5.677-.92 12.048-2.043 6.372-1.123 15.028-2.374 19.235-2.78l7.648-.741zm-7.793 36.484l-1.29 5.29c-7.834 32.067-7.81 31.939-6.56 36.195 1.712 5.819 5.332 9.157 13.178 12.156 3.758 1.436 7.846 3.462 9.086 4.504 1.934 1.624 2.042 2.04.756 2.912-.825.56-3.075 1.465-5 2.014-6.234 1.775-26.78 2.036-37.5.478-18.819-2.736-30-4.535-34.627-5.572l-4.627-1.037 1.961-5.162c1.079-2.84 5.831-12.145 10.56-20.68 4.73-8.535 9.84-18.443 11.354-22.018l2.754-6.5 10.313-.66c5.672-.363 14.662-.944 19.978-1.29l9.664-.63zM371.2 142.594c-47.94-.023-76.212 13.958-79.102 39.117-.771 6.71 1.67 19.05 5.119 25.879 2.325 4.603 9.635 12.148 15.008 15.49 4.529 2.817 5.474 4.459 5.474 9.504 0 4.615-.027 4.65-7.039 9.441-12.055 8.238-21.92 21.554-24.982 33.72-3.388 13.456 6.243 27.29 24.029 34.515l6.918 2.81-.553 4c-.303 2.2-1.171 7.468-1.931 11.705-.76 4.238-1.936 13.516-2.614 20.621l-1.232 12.92-4.547 2.877c-10.701 6.77-15.429 13.374-15.338 21.434.146 12.912 10.622 20.534 36.29 26.402 15.888 3.633 37.907 3.001 49.417-1.418 1.605-.616 8.355-2.703 15-4.64 16.553-4.825 27.886-10.373 31.014-15.182 7.101-10.917 4.962-20.96-7.361-34.559-3.34-3.684-6.07-7.402-6.07-8.26 0-.857-2.523-8.16-5.604-16.23-7.876-20.624-9.065-24.128-9.752-28.726-.586-3.917-.489-4.099 2.857-5.309 4.577-1.655 13.907-10.268 17.192-15.873 1.972-3.366 2.736-6.285 3.09-11.791.63-9.832-1.635-14.619-9.692-20.486l-5.846-4.256 1.86-5.29c2.913-8.289 3.35-15.298 1.203-19.368-2.62-4.968-6.653-7.57-11.73-7.57-7.691 0-12.607 4.522-14.13 13-.395 2.2-1.363 5.643-2.152 7.652-1.183 3.01-2.076 3.77-5.082 4.334-4.972.932-8.928 3.11-10.295 5.664-3.523 6.583-2.74 13.346 2.067 17.836 2.743 2.562 2.778 2.743 2.267 11.7l-.52 9.1-7.117 2.018c-3.914 1.11-8.13 2.241-9.367 2.514l-2.25.494-.01-19.156c-.005-10.536-.455-27.64-1-38.006-1.271-24.179-2.397-26.798-12.7-29.573-7.704-2.074-12.29-7.848-12.29-15.472 0-6.155 8.767-11.295 24.799-14.535 2.914-.59 13.392-1.07 23.283-1.07 19.354 0 23.232.755 26.287 5.117 2.641 3.77 2.126 11.178-1.119 16.083-6.403 9.68-.827 21.775 10.049 21.793 4.848.008 8.56-1.93 12.678-6.62 6.262-7.133 8.791-17.753 7.08-29.73-1.724-12.06-2.801-14.548-8.955-20.702-10.635-10.635-20.653-13.908-42.602-13.918zM317.636 272.07l.03 5.75c.034 6.07-.635 6.88-3.276 3.961-1.501-1.658-1.443-2.078.812-5.75l2.434-3.96zm46.629 40.203c2.727-.349 3.129.86 3.945 5.233.366 1.96 2.387 7.614 4.49 12.564s5.696 14.604 7.985 21.453c4.927 14.747 5.103 15.104 10.189 20.622 4.57 4.958 4.502 5.053-5.676 7.91-3.3.926-8.383 2.546-11.295 3.601-2.912 1.055-9.158 2.593-13.88 3.416-8.21 1.432-14.501 1.723-18.825.871-9.62-1.894-13.102-2.661-13.713-3.023-.392-.232 1.044-2.01 3.192-3.95 5.21-4.706 6.69-9.392 7.943-25.148.58-7.286 2.022-19.273 3.205-26.636l2.15-13.39 5.612-.636c3.086-.35 8.07-1.285 11.074-2.078 1.527-.403 2.694-.692 3.604-.809zm165.421 95.54l93.75 3.125-93.75-3.125z" fill="url(#e)" transform="translate(-203.86 -42.762)"/></svg>