<svg xmlns:osb="http://www.openswatchbook.org/uri/2009/osb" xmlns="http://www.w3.org/2000/svg" height="884.448" width="570.055"><defs><linearGradient osb:paint="solid" id="c"><stop offset="0" stop-color="#fff"/></linearGradient><linearGradient osb:paint="solid" id="b"><stop offset="0"/></linearGradient><linearGradient osb:paint="solid" id="d"><stop offset="0" stop-color="#002b11"/></linearGradient><linearGradient osb:paint="solid" id="a"><stop offset="0" stop-color="#162d50"/></linearGradient></defs><path d="M443.098 75.541l-5.063.61c-2.784.334-15.187 1.544-27.562 2.687-7.221.667-16.036 1.807-25.452 3.23a843.682 843.682 0 0 0-29.05 4.938c-9.62 1.806-18.843 3.71-26.674 5.525-3.916.908-7.483 1.792-10.578 2.631-3.096.84-5.72 1.635-7.746 2.36-2.064.738-3.728 1.367-5.25 2.056a31.793 31.793 0 0 0-4.395 2.412c-1.492.974-3.098 2.172-5.072 3.764-1.974 1.592-4.316 3.577-7.283 6.121-6.073 5.206-10.052 8.83-12.88 11.89-1.413 1.53-2.538 2.92-3.493 4.296a32.827 32.827 0 0 0-2.475 4.214c-1.137 2.29-2.673 6.504-4.412 11.918-1.739 5.414-3.68 12.03-5.623 19.12a706.865 706.865 0 0 0-5.643 21.974c-1.751 7.319-3.308 14.39-4.47 20.488-.397 2.079-.81 5.112-1.24 9.073-.431 3.96-.879 8.849-1.339 14.636-.92 11.575-1.894 26.747-2.906 45.291-.555 10.175-1.222 19.85-1.482 21.5-.26 1.65-1.276 14.025-2.256 27.5-.517 7.104-.915 15.523-1.191 24.61-.277 9.087-.433 18.843-.465 28.623-.033 9.78.057 19.583.273 28.763.216 9.181.557 17.738 1.025 25.028.434 6.739.772 19.72 1.008 35.74.237 16.02.373 35.08.403 53.975.03 18.894-.048 37.625-.235 52.986-.187 15.361-.484 27.355-.898 32.775-1.562 20.462-2.825 37.76-3.84 53.026-1.015 15.265-1.782 28.498-2.354 40.826a1326.384 1326.384 0 0 0-1.181 35.4c-.234 11.649-.326 23.521-.326 36.748 0 16.326.064 29.09.33 39.344.132 5.127.315 9.626.564 13.63.25 4.002.566 7.506.965 10.647.4 3.142.882 5.92 1.465 8.461a59.604 59.604 0 0 0 2.064 7.057c.8 2.206 1.717 4.31 2.766 6.443 1.05 2.133 2.232 4.294 3.564 6.616a117.842 117.842 0 0 0 5.55 8.771 102.195 102.195 0 0 0 6.036 7.834 89.826 89.826 0 0 0 6.512 6.881 80.576 80.576 0 0 0 6.973 5.914c2.395 1.805 4.361 3.248 6.181 4.477a54.59 54.59 0 0 0 5.309 3.195c1.813.951 3.766 1.837 6.14 2.809 2.375.97 5.171 2.027 8.674 3.316 5.025 1.849 10.419 3.598 16.05 5.219a298.962 298.962 0 0 0 17.466 4.447 319.085 319.085 0 0 0 18.084 3.494 287.816 287.816 0 0 0 17.9 2.363c3.913.388 12.692.695 25.524.918 12.831.224 29.715.365 49.836.42 40.24.11 93.429-.12 153.047-.713 33.94-.337 52.826-.565 63.877-.912 5.525-.173 9.091-.376 11.601-.636 2.51-.26 3.963-.579 5.262-.983a21.693 21.693 0 0 0 3.502-1.41c1.192-.607 2.463-1.389 3.976-2.461 3.027-2.145 7.023-5.453 13.293-10.848 4.48-3.855 8.235-7.196 11.38-10.154 3.143-2.958 5.678-5.533 7.716-7.857 2.039-2.324 3.582-4.397 4.746-6.35 1.164-1.953 1.947-3.786 2.467-5.63.956-3.396 2.758-12.97 4.496-23.321 1.738-10.352 3.412-21.48 4.117-27.98 1.133-10.45 2.17-22.957 3.032-36.313.862-13.356 1.55-27.563 1.986-41.416.413-13.12.907-20.971 1.283-24.908l.104-.258c2.08-5.145 3.912-9.783 4.986-13.006.537-1.611 1.068-3.724 1.586-6.186.518-2.462 1.022-5.273 1.508-8.285.97-6.024 1.862-12.848 2.619-19.27.162-1.38.118-1.256.267-2.587 1.03-4.325 3.362-14.22 5.528-23.47 2.279-9.736 4.807-19.41 5.619-21.5.811-2.091 2.841-9.288 4.512-15.993l3.037-12.191-.002-32.809c0-9.022.123-19.877.324-30.098.2-10.22.478-19.806.783-26.29.426-9.056.63-16.106.61-22.805-.021-6.7-.268-13.046-.747-20.696a1764.232 1764.232 0 0 1-1.96-37.658c-.59-14.005-1.163-30.611-1.864-53.262-.596-19.25-1.57-41.075-2.164-48.5-.595-7.425-1.474-23.498-1.953-35.718-.48-12.221-1.14-22.653-1.467-23.182-.327-.529-1.041-10.554-1.59-22.28-.732-15.65-1.383-26.819-2.132-35.57-.375-4.375-.774-8.147-1.22-11.572a170.094 170.094 0 0 0-1.495-9.492c-1.1-5.877-2.52-14.243-3.155-18.592-.436-2.989-1.29-7.109-2.39-11.748-1.1-4.64-2.45-9.798-3.871-14.867-1.423-5.069-2.92-10.047-4.32-14.324-1.402-4.278-2.707-7.853-3.745-10.118a42.573 42.573 0 0 0-3.172-5.67 56.042 56.042 0 0 0-4.216-5.572 70.04 70.04 0 0 0-5.131-5.37 82.473 82.473 0 0 0-5.916-5.07 91.263 91.263 0 0 0-6.57-4.663 95.033 95.033 0 0 0-14.585-7.713 87.36 87.36 0 0 0-7.752-2.844c-2.514-.788-5.596-1.587-9-2.355a229.309 229.309 0 0 0-10.923-2.17 251.744 251.744 0 0 0-11.358-1.723c-3.692-.47-7.208-.822-10.299-1.014-3.256-.2-8.28-.222-14.273-.105-5.992.117-12.953.373-20.08.728-7.128.356-14.42.812-21.082 1.327-6.662.514-12.69 1.088-17.285 1.681-7.461.964-18.078 2.02-29.71 2.992-11.63.973-24.275 1.86-35.79 2.483-6.05.327-15.05 1.017-20 1.531-4.95.515-15.736 1.11-23.967 1.324l-14.965.391-2.89-2.893c-1.183-1.182-1.886-2.068-2.25-3.025-.365-.957-.393-1.985-.221-3.453l.418-3.588z" style="isolation:auto;mix-blend-mode:normal" color="#000" overflow="visible" fill="url(#c)" transform="translate(-214.973 -57.776)"/><path d="M467.588 57.775c-6.256 0-11.42.031-16.34.149-4.92.117-9.593.322-14.871.668-10.555.692-23.522 1.952-45.674 4.224-2.824.29-7.274.94-12.168 1.756a413.021 413.021 0 0 0-14.832 2.744c-9.202 1.897-21.868 4.368-28.146 5.493a237.126 237.126 0 0 0-11.362 2.33 229.982 229.982 0 0 0-10.822 2.763c-3.418.966-6.596 1.962-9.387 2.946-2.79.984-5.193 1.956-7.058 2.875-1.85.91-4.641 2.756-7.885 5.13-3.244 2.375-6.941 5.278-10.6 8.305-3.658 3.028-7.278 6.18-10.373 9.051-3.094 2.871-5.661 5.461-7.213 7.365-1.249 1.534-2.65 3.452-3.9 5.307-1.25 1.854-2.351 3.645-3 4.926-.833 1.643-1.861 4.218-3.023 7.521-1.163 3.304-2.46 7.336-3.83 11.895-2.741 9.118-5.776 20.342-8.618 32.052-1.977 8.147-3.458 14.237-4.615 19.59s-1.992 9.97-2.678 15.168c-.686 5.2-1.224 10.982-1.787 18.666-.563 7.684-1.15 17.269-1.94 30.076-2.225 36.161-4.57 69.573-6.003 85.553-.304 3.385-.53 7.53-.68 12.2-.149 4.668-.221 9.86-.217 15.34.01 10.956.327 23.058.95 34.407.763 13.929 1.414 31.102 1.927 49.407.514 18.304.892 37.74 1.106 56.187.214 18.447.265 35.907.13 50.264-.066 7.178-.18 13.581-.343 18.943-.164 5.362-.377 9.683-.643 12.7-.831 9.43-2.283 29.666-3.73 51.363s-2.89 44.856-3.707 60.136c-.353 6.6-.674 17.72-.906 30.317a2208.421 2208.421 0 0 0-.377 39.183c0 15.418.09 27.75.377 37.873.143 5.062.336 9.571.59 13.64.253 4.067.568 7.693.958 10.987.39 3.294.857 6.257 1.41 8.996a78.588 78.588 0 0 0 1.936 7.665 76.517 76.517 0 0 0 2.543 6.99c.957 2.29 2.028 4.578 3.227 6.974a127.801 127.801 0 0 0 4.076 7.514 124.728 124.728 0 0 0 4.514 7.133 121.281 121.281 0 0 0 4.93 6.724 117.35 117.35 0 0 0 5.316 6.288c1.834 2.02 3.73 3.963 5.681 5.824 1.952 1.86 3.96 3.64 6.02 5.332a104.352 104.352 0 0 0 6.332 4.812c2.16 1.515 4.369 2.94 6.62 4.268 1.947 1.148 4.574 2.444 7.653 3.807 3.08 1.362 6.611 2.788 10.37 4.195a267.312 267.312 0 0 0 11.726 4.076 227.482 227.482 0 0 0 11.72 3.443c5.585 1.467 10.418 2.679 14.962 3.713 4.544 1.035 8.8 1.89 13.226 2.65 4.427.76 9.024 1.423 14.256 2.067 5.232.644 11.097 1.27 18.057 1.957 2.366.234 12.195.384 27.18.461 14.984.077 35.125.079 58.117.012 45.982-.134 103.365-.54 153.703-1.166 32.199-.4 48.6-.614 57.687-1.002 4.544-.194 7.259-.433 9.207-.76 1.948-.327 3.13-.744 4.604-1.295 1.65-.616 3.59-1.469 5.388-2.346 1.8-.876 3.456-1.778 4.536-2.492 1.73-1.145 4.653-3.473 8.14-6.416 3.488-2.942 7.54-6.5 11.53-10.105 3.988-3.606 7.914-7.259 11.15-10.393 3.236-3.134 5.782-5.748 7.01-7.277 2.132-2.655 3.822-4.95 5.255-7.502a37.458 37.458 0 0 0 1.98-4.1 52.363 52.363 0 0 0 1.735-4.95c1.105-3.689 2.14-8.254 3.287-14.313 1.148-6.06 2.409-13.615 3.97-23.284.774-4.803 1.57-11.219 2.327-18.476.757-7.258 1.475-15.357 2.096-23.531a904.62 904.62 0 0 0 1.516-23.979c.369-7.555.582-14.415.582-19.812 0-5.43.092-10.33.302-14.913.21-4.582.537-8.846 1.004-13a171.71 171.71 0 0 1 1.848-12.341c.772-4.145 1.707-8.392 2.83-12.948 6.206-25.168 12.833-53.006 14.465-60.765.837-3.977 2.194-8.838 3.015-10.803.822-1.965 3.038-10.179 4.926-18.252l3.434-14.68.564-69.5c.16-19.541.201-38.01.139-52.296-.062-14.287-.228-24.392-.484-27.204-.502-5.5-1.405-25.3-2.006-44-.602-18.7-1.522-41.65-2.045-51-.872-15.575-1.635-30.498-3.99-78-.464-9.35-1.307-20.825-1.871-25.5-.565-4.675-1.291-16.825-1.614-27a450.01 450.01 0 0 0-.818-16.004c-.356-5.165-.766-9.746-1.145-12.496-1.153-8.383-2.996-19.54-4.802-29.459-1.806-9.92-3.575-18.602-4.575-22.04-3.69-12.695-6.115-20.703-8.064-26.305-.975-2.801-1.83-5-2.666-6.883a49.232 49.232 0 0 0-2.549-4.983 79.166 79.166 0 0 0-4.867-7.345 86.883 86.883 0 0 0-5.742-6.92 93.984 93.984 0 0 0-6.528-6.43 99.838 99.838 0 0 0-7.226-5.875 103.987 103.987 0 0 0-7.842-5.258 106.023 106.023 0 0 0-17.18-8.406c-3-1.145-6.06-2.156-9.166-3.021-2.598-.724-5.756-1.47-9.228-2.196a286.365 286.365 0 0 0-11.121-2.082c-7.722-1.295-15.734-2.352-22.094-2.844-3.108-.24-8.171-.28-14.38-.164-6.21.117-13.568.39-21.263.782-7.695.39-15.727.897-23.29 1.48-7.564.583-14.657 1.243-20.471 1.936a820.44 820.44 0 0 1-27.436 2.822c-9.386.807-19.418 1.515-31.314 2.228-4.738.284-7.175.415-8.428.215-.627-.1-.957-.28-1.13-.568-.175-.287-.192-.68-.192-1.2 0-.587-.33-1.451-.86-2.368a13.445 13.445 0 0 0-2.064-2.692l-2.924-2.924h-26.037zm-24.49 17.766l-.418 3.588c-.172 1.468-.144 2.496.22 3.453.365.957 1.068 1.843 2.25 3.025l2.891 2.893 14.965-.39c8.23-.215 19.017-.81 23.967-1.325 4.95-.514 13.95-1.204 20-1.531 11.515-.623 24.16-1.51 35.79-2.483 11.632-.972 22.25-2.028 29.71-2.992 4.594-.593 10.623-1.167 17.285-1.681 6.661-.515 13.954-.97 21.082-1.327 7.127-.355 14.088-.61 20.08-.728 5.992-.117 11.017-.096 14.273.105 3.091.192 6.607.544 10.3 1.014 3.691.47 7.56 1.06 11.357 1.723 3.796.663 7.52 1.4 10.923 2.17 3.404.768 6.486 1.567 9 2.355a87.36 87.36 0 0 1 7.752 2.844 95.033 95.033 0 0 1 14.584 7.713 91.263 91.263 0 0 1 6.57 4.664 82.473 82.473 0 0 1 5.917 5.068 70.04 70.04 0 0 1 5.13 5.371 56.042 56.042 0 0 1 4.217 5.573 42.573 42.573 0 0 1 3.172 5.67c1.038 2.264 2.343 5.84 3.744 10.117 1.402 4.277 2.898 9.255 4.32 14.324a387.298 387.298 0 0 1 3.872 14.867c1.1 4.64 1.954 8.76 2.39 11.748.635 4.349 2.055 12.715 3.155 18.592.56 2.99 1.05 6.068 1.496 9.492.445 3.425.844 7.197 1.219 11.572.749 8.751 1.4 19.92 2.132 35.57.549 11.726 1.263 21.751 1.59 22.28.327.529.988 10.961 1.467 23.182.48 12.22 1.358 28.293 1.953 35.718.595 7.425 1.568 29.25 2.164 48.5.701 22.65 1.274 39.257 1.863 53.262.59 14.006 1.195 25.41 1.961 37.658.479 7.65.726 13.997.746 20.696.021 6.699-.183 13.75-.609 22.804-.305 6.485-.582 16.07-.783 26.291-.2 10.22-.324 21.076-.324 30.098l.002 32.809-3.037 12.191c-1.67 6.705-3.7 13.902-4.512 15.992-.812 2.09-3.34 11.765-5.62 21.5a7927.559 7927.559 0 0 1-5.527 23.47c-.15 1.332-.104 1.208-.267 2.589-.757 6.42-1.649 13.245-2.62 19.27-.485 3.011-.99 5.822-1.507 8.284-.518 2.462-1.049 4.575-1.586 6.186-1.074 3.223-2.905 7.86-4.986 13.006l-.104.258c-.376 3.937-.87 11.789-1.283 24.908a1274.323 1274.323 0 0 1-1.986 41.416c-.863 13.356-1.899 25.862-3.032 36.312-.705 6.5-2.379 17.63-4.117 27.98-1.738 10.352-3.54 19.926-4.496 23.321-.52 1.845-1.303 3.678-2.467 5.631-1.164 1.953-2.707 4.026-4.746 6.35-2.038 2.324-4.573 4.9-7.717 7.857-3.144 2.958-6.898 6.3-11.379 10.154-6.27 5.395-10.266 8.703-13.293 10.848-1.513 1.072-2.784 1.854-3.976 2.461a21.693 21.693 0 0 1-3.502 1.41c-1.299.404-2.752.722-5.262.983-2.51.26-6.076.463-11.601.636-11.05.347-29.936.575-63.877.912-59.618.592-112.807.823-153.047.713-20.12-.055-37.005-.196-49.836-.42-12.832-.223-21.61-.53-25.524-.918a287.816 287.816 0 0 1-17.9-2.363 319.085 319.085 0 0 1-18.084-3.494 298.962 298.962 0 0 1-17.467-4.447c-5.63-1.621-11.024-3.37-16.049-5.22-3.503-1.288-6.299-2.344-8.673-3.315-2.375-.972-4.328-1.858-6.141-2.81a54.59 54.59 0 0 1-5.309-3.194c-1.82-1.23-3.786-2.672-6.181-4.477a80.576 80.576 0 0 1-6.973-5.914 89.826 89.826 0 0 1-6.512-6.88 102.195 102.195 0 0 1-6.037-7.835 117.842 117.842 0 0 1-5.549-8.771c-1.332-2.322-2.515-4.483-3.564-6.616a63.368 63.368 0 0 1-2.766-6.443 59.604 59.604 0 0 1-2.064-7.057c-.583-2.542-1.066-5.32-1.465-8.46-.4-3.142-.715-6.646-.965-10.649-.25-4.003-.431-8.502-.564-13.629-.266-10.253-.33-23.018-.33-39.344 0-13.227.092-25.1.326-36.748.234-11.648.61-23.072 1.182-35.4.571-12.328 1.338-25.56 2.353-40.826 1.015-15.266 2.278-32.564 3.84-53.026.414-5.42.711-17.414.898-32.775.187-15.361.265-34.092.235-52.986-.03-18.895-.166-37.954-.403-53.975-.236-16.02-.574-29.001-1.007-35.74-.47-7.29-.81-15.847-1.026-25.028-.216-9.18-.306-18.984-.273-28.763a1069 1069 0 0 1 .465-28.623c.276-9.087.674-17.506 1.191-24.61.98-13.475 1.996-25.85 2.256-27.5.26-1.65.927-11.325 1.482-21.5 1.012-18.544 1.987-33.716 2.906-45.29.46-5.788.908-10.676 1.338-14.637.43-3.961.844-6.994 1.24-9.073 1.163-6.099 2.72-13.17 4.471-20.488a706.865 706.865 0 0 1 5.643-21.974c1.944-7.09 3.884-13.706 5.623-19.12 1.739-5.414 3.275-9.628 4.412-11.918a32.827 32.827 0 0 1 2.475-4.214c.955-1.376 2.08-2.765 3.494-4.295 2.827-3.06 6.806-6.685 12.879-11.891 2.967-2.544 5.309-4.53 7.283-6.121 1.974-1.592 3.58-2.79 5.072-3.764a31.793 31.793 0 0 1 4.395-2.412c1.522-.689 3.186-1.318 5.25-2.057 2.026-.724 4.65-1.52 7.746-2.359 3.095-.84 6.662-1.723 10.578-2.63 7.832-1.816 17.055-3.72 26.674-5.526a843.682 843.682 0 0 1 29.05-4.938c9.416-1.423 18.231-2.563 25.452-3.23 12.375-1.143 24.778-2.353 27.562-2.688l5.063-.609z" style="isolation:auto;mix-blend-mode:normal" color="#000" overflow="visible" fill="url(#b)" transform="translate(-214.973 -57.776)"/><path d="M674.809 550.902c-14.651-.072-34.376.858-41.7 2.317-30.473 6.07-49.812 19.655-52.146 36.629-1.206 8.77 4.999 25.185 13.654 36.113 4.102 5.179 17.696 15.291 24.522 18.242.091.04-.908 4.572-2.221 10.072-1.314 5.5-2.402 10.95-2.418 12.112-.025 1.852-.775 2.179-6.123 2.664-7.961.722-14.575 4.178-18.397 9.615-2.65 3.77-3.045 5.255-3.322 12.445-.24 6.258.162 9.529 1.727 14.006 4.06 11.615 13.486 21.913 26.746 29.219l5.158 2.844.397 14.047c.313 11.143.108 14.255-.987 15.048-.759.55-4.157 2.774-7.553 4.942-9.628 6.147-22.01 19.03-24.015 24.986-2.173 6.457-2.093 9.044.443 14.283 2.844 5.876 5.909 7.949 23.399 15.825 8.25 3.715 18.932 8.965 23.74 11.668 16.738 9.41 21.218 11.035 31.89 11.57 16.013.802 25.606-2.705 35.467-12.967 8.254-8.59 9.903-12.054 9.903-20.807 0-11.726-2.726-16.484-18.104-31.619-10.212-10.05-12.531-12.85-12.144-14.652.263-1.226 1.552-7.47 2.863-13.875l2.385-11.647 7.418-1.634c13.9-3.062 28.91-11.742 38.9-22.498 1.825-1.966 3.03-3.002 2.678-2.303-.06.119-.185 4.287-.262 5.092l.104-.258c2.08-5.145 3.912-9.783 4.986-13.006.537-1.611 1.068-3.724 1.586-6.186.518-2.462 1.022-5.273 1.508-8.285.97-6.024 1.862-12.848 2.619-19.27.162-1.38.118-1.256.267-2.587-.054.226-.243 1.037-.289 1.228l-1.674 7-2.283-4.752c-1.255-2.614-4.671-7.142-7.592-10.062-6.428-6.429-25.104-19.361-31.404-21.748l-4.562-1.73-.29-6.868-.288-6.869 6.789-1.273c8.611-1.617 23.696-8.887 28.88-13.918 6.06-5.88 7.916-10.438 7.858-19.28-.043-6.548-.475-8.3-3.416-13.802-7.706-14.422-26.211-25.376-49.506-29.305-2.921-.493-8.532-.733-15.191-.766zm-1.057 27.98c2.978-.013 5.405.018 7.473.102 4.135.17 6.837.552 9.644 1.211 7.996 1.877 17.56 6.692 21.885 11.016l3.014 3.016-7.22 3.414c-5.038 2.383-9.384 3.627-14.396 4.119-11.153 1.093-15.802 4.33-17.332 12.068-.374 1.896-1.59 4.684-2.7 6.195-1.301 1.77-2.172 4.842-2.446 8.633l-.426 5.887-4.92.473c-9.552.917-15.562 10.66-11.451 18.56 2.747 5.28 9.21 9.2 15.164 9.2 2.065 0 2.337.61 2.992 6.732.397 3.702.474 13.855.172 22.562-.527 15.18-.662 15.995-3.277 19.77l-2.729 3.935-8.613-.015c-4.738-.008-9.135-.347-9.772-.752-1.106-.704-1.577-2.707-2.771-11.79-.507-3.86-.375-4.111 2.756-5.243 1.809-.655 4.614-2.572 6.232-4.26 2.57-2.683 2.942-3.808 2.942-8.924 0-4.864-.423-6.306-2.5-8.53-3.158-3.379-7.17-5.486-10.452-5.486-1.895 0-2.548-.52-2.548-2.029 0-3.74 5.143-23.429 7.082-27.107 2.256-4.281 2.402-8.392.418-11.864-.879-1.537-1.443-5.394-1.465-10.015-.042-8.925-2.025-13.436-7.098-16.156-6.635-3.559-14.329-1.337-18.273 5.277l-2.303 3.863-3.078-3.234c-1.693-1.779-4.45-5.987-6.127-9.35l-3.049-6.113 2.695-2.526c4.052-3.794 10.426-6.654 21.092-9.462 8.373-2.205 12.299-2.592 30.606-3.006a616.94 616.94 0 0 1 10.779-.17zm28.094 96.952c.922-.18 2.473 1.227 5.127 3.05 8.422 5.79 11.5 8.896 11.5 11.61 0 4.188-2.63 8.785-7.452 13.03-2.597 2.286-6.146 4.996-7.886 6.023l-3.162 1.867.283-16.068c.257-14.51.052-19.213 1.59-19.512zm-85.883 20.941c.842 0 1.51.884 1.51 2 0 1.1-.117 2-.26 2-.143 0-.823-.9-1.51-2-1.042-1.668-.998-2 .26-2zm32.2 46.059l5.403.611c2.973.337 5.57.75 5.772.92.201.17-.86 5.822-2.358 12.559-4.596 20.665-3.026 25.39 14.249 42.851 16.176 16.352 14.896 14.622 12.65 17.104-1.047 1.156-3.028 2.667-4.404 3.36-4.067 2.044-10.201 2.53-14.002 1.109-6.11-2.286-13.408-5.779-16.27-7.79-1.523-1.07-6.923-3.839-12-6.154s-10.786-5.038-12.685-6.05l-3.455-1.84 2.955-2.393c1.624-1.315 6.434-4.444 10.687-6.953 13.774-8.127 15.03-11.029 14.096-32.594l-.639-14.74zM320.14 562.818c-9.636-.008-19.588.458-24.874 1.4-15.976 2.85-32.245 13.99-37.903 25.954-4.064 8.594-4.456 12.932-2.031 22.521 4.54 17.956 16.376 33.082 25.885 33.082 1.496 0 1.745.668 1.44 3.866l-.37 3.865-8.158.547c-15.954 1.07-24.769 6.928-28.057 18.646-2.302 8.207-1.608 12.657 3.383 21.686 5.16 9.336 12.863 16.362 21.994 20.058l6.998 2.832.004 5.5c.006 9.364-1.127 16.01-2.892 16.955-.894.479-5.211 1.61-9.592 2.514-17.852 3.688-26.41 11.23-26.473 23.324-.031 6.134 2.708 18.54 5.475 24.797 4.772 10.79 15.673 23.73 29.152 34.606 6.994 5.643 9.755 7.167 17.574 9.709 9.128 2.966 9.623 3.016 30.778 3.047 19.185.027 22.644-.228 32.127-2.38 16.812-3.813 24.827-7.602 31.36-14.82 10.45-11.549 12.063-22.374 6.02-40.431-1.92-5.739-4.687-12.546-6.15-15.127-5.255-9.273-8.813-14.768-12.426-19.194-7.322-8.969-8.933-12.015-8.921-16.888.025-10.479.46-11.208 9.359-15.612 13.75-6.805 24.66-20.008 26.242-31.761.71-5.276-2.294-13.791-6.935-19.657-4.178-5.279-13.598-12.399-20.926-15.816-5.423-2.529-5.75-2.884-5.75-6.246 0-3.064.503-3.836 3.586-5.496 5.053-2.722 13.15-11.912 14.373-16.315 1.483-5.341 1.276-14.884-.469-21.582-3.92-15.05-19.136-27.027-40.834-32.144-4.029-.95-13.352-1.432-22.988-1.44zm157.54 2.03c-2.948-.01-5.373.025-7.46.113-4.173.176-6.995.56-9.945 1.219-11.872 2.648-21.736 9.553-27.398 19.181-3.08 5.238-6.404 18.22-6.404 25.01 0 11.908 4.761 26.648 10.85 33.582 2.375 2.706 3.147 4.536 3.142 7.455-.007 3.826-.07 3.889-5.75 5.713-12.532 4.025-19.242 11.68-19.242 21.95 0 7.466 1.956 11.62 8.615 18.279 4.36 4.359 16.075 11.49 22.27 13.554.654.218 1.817 4.442 2.583 9.385.767 4.943 1.67 10.336 2.006 11.986.596 2.917.3 3.194-10.681 9.99-13.008 8.05-19.065 13.242-22.13 18.965-3.217 6.01-3.03 20.04.36 27.045 3.89 8.037 15.843 19.261 27.477 25.803 12.728 7.158 44.982 21.36 51.23 22.559 2.623.503 9.746.966 15.83 1.027 18.13.183 31.97-4.452 41.467-13.889 5.951-5.913 8.284-11.003 8.781-19.17.851-13.959-6.075-27.259-25.787-49.515-9.975-11.263-10.353-12.356-7.512-21.723.82-2.7 1.49-8.226 1.49-12.281 0-5.044.395-7.484 1.25-7.725 18.527-5.21 24.302-8.708 29.257-17.72 3.743-6.81 3.928-14.556.556-23.21-4.432-11.373-17-22.832-28.812-26.269-4.93-1.434-5.25-1.724-5.25-4.748 0-3.13.186-3.27 6.738-5.016 13.063-3.48 28.198-12.437 32.963-19.507 5.319-7.893 3.795-16.797-4.22-24.655-6.08-5.96-23.26-14.899-42.481-22.101l-12.5-4.684-20.698-.45c-4.178-.09-7.648-.144-10.595-.153zm-142.233 25.804l8.594 3.264c9.76 3.707 13.432 7.07 13.432 12.3 0 2.965-.418 3.436-4.25 4.798-2.338.83-6.103 2.017-8.366 2.636-2.263.62-5.29 2.048-6.726 3.178-5.054 3.976-5.99 14.527-1.639 18.465 2.726 2.467 2.507 6.28-.496 8.643-3.06 2.406-4.995 8.515-4.14 13.068.352 1.882 1.985 4.709 3.628 6.283l2.989 2.863v28.625h-32v-4.25c0-3.638.491-4.64 3.414-6.972 6.229-4.97 7.086-13.65 1.953-19.75l-2.55-3.033 1.698-12.829c1.096-8.27 1.573-17.268 1.342-25.322-.33-11.542-.561-12.798-3.02-16.512-6.576-9.934-22.115-9.57-25.435.596l-1.096 3.358-.675-3.375c-.937-4.683 1.482-7.608 9.85-11.91l6.804-3.5 18.344-.311 18.345-.313zm148.026 1.625c17.172 0 18.913.296 32 5.453 9.178 3.618 19 8.3 19 9.057 0 1.063-9.936 3.991-16.868 4.97-9.316 1.318-14.131 5.93-14.109 13.518.006 2.2-.783 6.559-1.756 9.684-1.586 5.096-2.1 5.744-4.988 6.289-6.374 1.202-12.384 9.196-10.973 14.594.278 1.063.436 1.899.35 1.855-.857-.433-3.333-1.046-10-2.478l-7.844-1.686.686-7.75c.821-9.278-.22-11.903-7.028-17.722-5.31-4.54-7.364-9.329-7.427-17.323-.06-7.608 3.117-13.793 8.457-16.46 3.513-1.756 6.005-2 20.5-2zm16.625 76.616c.187.009.394.031.625.064 2.123.302 2.265.838 2.537 9.568l.287 9.25h-15.42c-15.06 0-15.435-.05-15.998-2.205-.317-1.213-.437-2.348-.264-2.521.173-.173 2.695.195 5.602.818 2.907.624 7.067.896 9.244.604 6.075-.815 11.762-7.204 11.762-13.215 0-1.876.313-2.43 1.625-2.363zm-133.625 5.427l2.726 2.729 2.727 2.726-2.727 2.729-2.726 2.726v-10.91zm165 2l2.75 2.784c2.681 2.713 2.701 2.82.808 4.228-2.993 2.227-3.558 1.784-3.558-2.783v-4.229zm-254.315 5.518c.45.017.817.108.973.264.276.276.354 1.553.172 2.837l-.33 2.336-1.778-2.5c-1.597-2.246-1.614-2.533-.172-2.837a4.836 4.836 0 0 1 1.135-.1zm199.086 32.937h27.229v4.606c0 2.533-.725 7.37-1.61 10.75-2.054 7.85-1.496 22.606 1.04 27.51.953 1.844 5.23 7.016 9.505 11.494 13.399 14.034 23.065 27.701 23.065 32.615 0 2.336-4.621 5.556-10 6.969-4.532 1.19-15.658 1.977-19.5 1.379-1.65-.257-7.275-2.301-12.5-4.541s-12.65-5.413-16.5-7.05c-17.64-7.498-33.504-18.593-33.5-23.433 0-1.218 4.107-4.367 12.75-9.771 13.502-8.444 20.492-14.162 22.826-18.676 1.83-3.54 1.84-14.603.017-18.979-.772-1.854-1.723-5.51-2.113-8.123l-.709-4.75zm-154.365 8h15.406l.344 9.75c.397 11.275 2.372 16.064 11.22 27.192 13.817 17.376 21.29 35.338 17.26 41.488-1.612 2.46-2.814 2.958-16.136 6.678-5.23 1.46-11.301 2.07-24 2.412-24.926.67-28.639-.588-42.36-14.352-8.355-8.381-14.516-17.649-15.299-23.01-.315-2.16.315-2.511 8.159-4.564 4.675-1.223 10.126-3.005 12.115-3.959 5.728-2.748 12.609-10.29 14.453-15.842 1.256-3.781 2.993-16.598 3.395-25.043.02-.412 6.97-.75 15.443-.75zM372.498 132.95c-35.242-.435-52.294 1.941-71.088 9.907-18.48 7.833-24.975 16.993-22.058 31.112 1.496 7.244 3.02 10.487 7.148 15.187 1.645 1.874 4.226 6.475 5.734 10.225 2.986 7.425 7.246 11.394 12.227 11.394 2.194 0 3.186.906 5.351 4.885 1.585 2.912 2.657 6.447 2.653 8.75-.006 3.3-.523 4.218-3.54 6.272-8.481 5.777-13.399 15.25-13.43 25.877-.029 9.202 1.481 12.797 8.44 20.093 3.586 3.76 5.535 6.652 5.532 8.213-.007 3.709-3.784 27.932-5.026 32.23-1.468 5.086-6.846 10.862-15.642 16.798-13.848 9.344-19.307 17.369-19.307 28.382 0 18.998 20.714 35.336 53.98 42.579 11.953 2.602 34.128 2.144 41.829-.864 7.257-2.835 17.248-9.49 22.021-14.668 5.132-5.567 10.787-17.423 12.856-26.957 1.502-6.921 1.51-8.285.093-15.832-.852-4.541-3.155-11.858-5.117-16.258-3.903-8.756-6.265-20.323-7.246-35.5l-.613-9.5 8.23-4.5c9.793-5.353 16.71-11.188 18.584-15.673 3.446-8.246.798-17.406-7.722-26.729-4.127-4.515-6.86-6.353-16.746-11.262-.182-.09 1.618-6.322 4-13.847 3.633-11.48 4.747-13.899 6.92-15.028 4.511-2.344 13.692-13.22 17.066-20.215 5.733-11.889 4.796-25.996-2.297-34.601-1.629-1.976-5.9-5.018-9.62-6.85l-6.689-3.295-26.523-.326zm.676 26.988c20.435.38 21.648.753 19.197 5.927-1.318 2.783-1.976 3.136-6.166 3.303-9.042.36-14.37 7.381-15.887 20.94-.502 4.492-2.257 12.212-3.9 17.154-5.09 15.312-6.945 26.963-6.945 43.62v14.893h-20v-5.75c0-5.361.233-5.936 3.463-8.513 6.764-5.398 7.015-15.63.517-21.098-2.468-2.077-2.98-3.258-2.98-6.863 0-6.414-2.649-15.539-6.293-21.684-3.728-6.284-13.028-16.741-15.621-17.564-.982-.312-2.28-1.658-2.89-2.992-.607-1.335-2.75-4.247-4.759-6.471l-3.652-4.043 4.857-2.111c14.076-6.116 35.734-9.22 61.059-8.748zm-36.516 133.775l11.656.281 11.659.281.74 9c1.156 14.038 4.381 28.364 8.754 38.87 2.202 5.291 4.006 10.912 4.006 12.49 0 1.578-1.688 6.174-3.75 10.217-3.413 6.69-4.29 7.64-9.75 10.572-4.12 2.212-7.88 3.385-12 3.74-10.976.947-30.739-3.47-40.452-9.043-5.53-3.172-10.166-7.346-9.45-8.504.289-.468 3.309-2.725 6.712-5.013 9.537-6.414 17.19-13.375 20.678-18.811 4.76-7.419 6.7-14.74 10.54-39.799l.657-4.281zM651.973 111.998c-22.61-.766-41.054 5.22-54.746 17.766-11.014 10.091-14.105 18.817-11.247 31.736 3.274 14.797 10.69 26.768 19.032 30.727 3.444 1.634 3.46 1.673 3.46 8.412 0 3.723.414 9.214.92 12.203a251.342 251.342 0 0 1 1.524 10.6l.602 5.163-3.375 1.114c-4.306 1.42-6.997 4.311-9.84 10.57-1.885 4.147-2.272 6.755-2.3 15.486-.04 12.844 1.666 16.99 11.083 26.973 6.87 7.282 6.012 4.891 9.852 27.527.839 4.95 1.529 13.342 1.53 18.649l.005 9.648-7.25 2.543c-3.988 1.398-9.05 3.078-11.25 3.735-2.2.656-5.31 1.855-6.908 2.666-4.298 2.178-12.201 9.902-13.608 13.298-1.685 4.068-2.612 3.715-3.389-1.289-1.822-11.743-10.933-22.072-25.515-28.93-8.697-4.089-9.159-4.463-8.668-7.02.285-1.487.781-7.562 1.103-13.5.855-15.754 1.064-16.62 4.5-18.65 7.766-4.586 25.498-24.68 30.455-34.51 2.027-4.02 3.051-12.543 2.11-17.561-1.398-7.454-12.53-15.583-23.512-17.17-6.132-.887-7.07-1.853-7.064-7.282.003-2.545-.721-8.452-1.608-13.127a2187.67 2187.67 0 0 1-2.004-10.671c-.216-1.196-1.517-3.51-2.892-5.145-1.375-1.634-2.5-3.397-2.5-3.916 0-.519 3.733-1.864 8.297-2.99 15.675-3.87 27.976-11.079 31.57-18.502 2.546-5.259 2.681-9.539.537-16.844-2.047-6.975-9.336-14.295-18.955-19.033l-6.898-3.399-24.526-.32c-23.633-.31-39.079.646-49.025 3.037-6.906 1.66-21.905 8.664-27.69 12.93-6.512 4.802-10.084 9.444-11.896 15.467-3.935 13.075.741 24.347 13.662 32.937 3.723 2.475 8.49 5.095 10.596 5.82 4.852 1.672 5.223 4.175 2.384 16.125-1.3 5.477-2.056 12.05-2.056 17.875v9.215l-4.25 1.17c-6.147 1.693-13.54 7.832-17.153 14.244-2.752 4.885-3.097 6.4-3.097 13.54 0 7.414.271 8.488 3.5 13.843 1.925 3.193 5.117 7.275 7.095 9.07l3.596 3.264.137 11.393c.075 6.265.803 15.436 1.617 20.379.814 4.943 1.158 9.266.766 9.61-.392.342-4.836 2.31-9.877 4.37-15.345 6.273-17.065 9.825-13.332 27.549 2.593 12.314 4.543 16.5 10.84 23.283 9.827 10.585 24.162 16.92 42.158 18.63 5.225.495 14.9 2.06 21.5 3.478 14.418 3.095 23.565 3.262 33.68.613 11.207-2.936 15.75-5.193 22.048-10.95 6.226-5.689 9.663-10.591 10.817-15.429.704-2.952.755-2.984.851-.506.151 3.896 5.962 11.936 11.104 15.363 6.52 4.347 16.576 7.904 32.5 11.493 7.7 1.735 18.275 4.306 23.5 5.714 5.225 1.409 12.65 3.168 16.5 3.909 14.323 2.755 42.46-.326 50.924-5.577 8.017-4.973 12.222-12.61 11.324-20.576-.624-5.538-5.53-16.005-9.76-20.822-4.109-4.68-13.666-11.544-21.195-15.225l-5.705-2.789.548-4.562c.302-2.51 1.407-10.572 2.456-17.914 1.216-8.518 1.908-18.935 1.908-28.781 0-13.836.18-15.485 1.75-15.944 4.967-1.451 16.535-7.977 18.699-10.549 2.584-3.07 4.538-8.615 4.539-12.877.001-6.403-8.403-14.479-19.76-18.99l-5.931-2.355-.748-18.078c-.413-9.943-1.043-24.668-1.4-32.725l-.65-14.648 5.5-1.22c7.075-1.565 16.595-5.891 20.794-9.446 9.713-8.226 9.282-21.179-.996-29.977-4.332-3.707-8.015-5.614-22.797-11.793a7658.806 7658.806 0 0 1-18-7.555c-7.825-3.299-9.454-3.616-20.5-3.99zm-.805 27.2c1.72.083 3.361.278 4.889.595 5.144 1.068 25.35 9.982 22.627 9.982-2.085 0-8.06 6.041-8.7 8.793-.353 1.524-2.024 3.585-3.82 4.713-4.676 2.938-6.891 7.891-6.258 13.994.286 2.75.995 13.775 1.576 24.5.582 10.725.93 21.975.774 25l-.283 5.5-11.17-1.398-11.168-1.397-.645-6.103c-.353-3.356-1.064-8.547-1.58-11.535-.516-2.989-.937-11.623-.937-19.186 0-7.563-.446-14.921-.99-16.353-1.706-4.487-5.813-7.388-12.253-8.655-5.688-1.119-6.1-1.4-7.775-5.277-3.42-7.921-3.413-8.389.191-11.771 7.566-7.1 23.478-11.99 35.522-11.403zm-123.77 8.74c9.512-.093 17.965.155 20.075.796l2.5.76-2.883 1.166c-1.585.641-4.96 1.608-7.5 2.149-2.54.54-5.622 1.21-6.85 1.488-3.775.857-9.15 6.33-9.842 10.021-.383 2.044-1.371 3.623-2.488 3.977-2.83.898-6.785 6.143-7.498 9.945-.764 4.075.889 9.619 3.598 12.07 1.319 1.194 1.963 3.072 1.963 5.727 0 2.173.648 6.49 1.441 9.594.793 3.104 1.581 7.857 1.75 10.56.296 4.73.192 4.946-2.73 5.723-8.234 2.19-12.215 13.574-7.286 20.826 1.433 2.107 3.917 4.038 6.34 4.928 2.192.804 4.096 1.532 4.233 1.617.136.085-.438 4.392-1.278 9.572-.84 5.18-1.756 10.866-2.037 12.633-.428 2.694-1.111 3.38-4.222 4.244-3.625 1.007-7.704 1.232-9.711.537-.55-.19-3.941-.629-7.534-.976-9.763-.944-9.585-.605-6.64-12.643 2.108-8.617 2.553-12.908 2.623-25.312.065-11.562.559-16.87 2.183-23.5 1.372-5.598 2.145-12.202 2.233-19.065.115-9.021-.171-11.063-2.03-14.5-3.746-6.93-11.184-12.5-22.673-16.976-4.6-1.792-4.392-3.232.914-6.268 7.528-4.307 15.008-6.485 26.924-7.844 6.344-.723 16.914-1.157 26.425-1.25zM642.29 257.774c1.549 0 5.487.457 8.75 1.016 3.264.559 7.396 1.256 9.184 1.547 2.62.426 3.25.994 3.25 2.935 0 1.93-.746 2.617-3.75 3.457-2.063.577-7.463 1.338-12 1.694l-8.25.646v-5.646c0-5.527.06-5.649 2.816-5.649zm21.086 36.99c1.159.009 1.294 2.051.78 11.76-.343 6.463-1.325 15.575-2.184 20.25-1.421 7.734-2.597 22.263-2.887 35.686-.097 4.464.306 5.63 2.889 8.389 1.65 1.762 6.825 4.992 11.5 7.177 8.53 3.989 19 10.478 19 11.776 0 .382-2.363.977-5.25 1.324-9.932 1.193-19.101.586-28.25-1.873-4.95-1.33-12.375-3.13-16.5-3.998-18.199-3.831-35.228-8.686-37.493-10.688-1.392-1.23.726-2.361 8.993-4.806 11.593-3.429 21.734-8.221 25.619-12.106 6.184-6.184 7.295-11.453 6.506-30.838-.37-9.098-1.254-19.502-1.961-23.119l-1.285-6.576 9.56-1.184c5.258-.65 10.192-1.178 10.963-1.173zm-180.076 6.772l3.836.615c2.11.34 9.371.906 16.136 1.258l12.301.639-.693 9.613c-.505 7.001-1.19 10.252-2.524 11.965-3.93 5.05-3.263 13.62 1.395 17.893 1.222 1.12 8.905 5.098 17.074 8.84 9.737 4.459 15.402 7.637 16.446 9.23.875 1.336 1.776 4.964 2 8.06.488 6.757-.677 8.18-9.13 11.15-7.045 2.477-15.711 2.451-25.667-.075-4.125-1.047-13.248-2.568-20.272-3.381-15.079-1.746-24.573-5.57-28.478-11.467-3.561-5.378-3.056-6.252 5.761-9.957 9.843-4.136 12.718-6.34 15.092-11.567 2.364-5.204 2.36-9.966-.014-21.667-1.05-5.176-2.212-12.052-2.585-15.28l-.678-5.869z" fill="url(#d)" transform="translate(-214.973 -57.776)"/></svg>