<svg xmlns:osb="http://www.openswatchbook.org/uri/2009/osb" xmlns="http://www.w3.org/2000/svg" height="940.76" width="607.973"><defs><linearGradient osb:paint="solid" id="c"><stop offset="0" stop-color="#fff"/></linearGradient><linearGradient osb:paint="solid" id="b"><stop offset="0"/></linearGradient><linearGradient osb:paint="solid" id="d"><stop offset="0" stop-color="#002b11"/></linearGradient><linearGradient osb:paint="solid" id="a"><stop offset="0" stop-color="#162d50"/></linearGradient><linearGradient osb:paint="solid" id="e"><stop offset="0" stop-color="#d40000"/></linearGradient></defs><path d="M481.893 46.826c-14.735.086-29.642.264-41.758.516-12.116.252-21.44.579-25.01.963-2.612.28-7.252 1-12.621 1.93-5.37.93-11.468 2.07-17.002 3.2-11.068 2.26-24.793 4.767-30.5 5.57-6.635.936-12.15 1.756-16.992 2.56-4.843.803-9.015 1.592-12.965 2.462a187.99 187.99 0 0 0-11.633 2.96c-3.955 1.135-8.136 2.453-12.994 4.052-7.313 2.406-18.583 5.762-25.045 7.455-5.884 1.542-10.587 2.923-14.42 4.381-1.916.729-3.617 1.478-5.137 2.275-1.52.798-2.86 1.645-4.06 2.57a21.7 21.7 0 0 0-3.22 3.048 24.722 24.722 0 0 0-2.614 3.699c-.795 1.362-1.528 2.863-2.236 4.533-.71 1.67-1.395 3.51-2.094 5.547-1.921 5.594-3.968 12.707-5.69 19.55-1.722 6.844-3.12 13.417-3.742 17.928-.607 4.4-2.192 15.65-3.521 25-2.337 16.436-3.727 26.466-4.653 33.996-.925 7.531-1.387 12.562-1.863 19.004-.529 7.15-1.486 17.95-2.127 24-.205 1.94-.383 6.343-.539 13.5-.156 7.158-.287 17.068-.398 30.018-.222 25.9-.36 63.962-.434 116.482-.073 52.625-.213 90.791-.438 116.907-.224 26.115-.534 40.179-.95 44.593-.65 6.875-1.84 19.25-2.647 27.5-.367 3.754-.67 8.234-.912 13.243a606.78 606.78 0 0 0-.543 16.414c-.244 11.739-.257 24.808-.059 37.632.198 12.825.604 25.404 1.195 36.166.296 5.382.637 10.308 1.022 14.584.385 4.277.813 7.903 1.281 10.68.733 4.35 2.026 18.64 3.301 35.309 1.275 16.668 2.532 35.714 3.191 49.57.257 5.393.7 10.897 1.313 16.422a282.856 282.856 0 0 0 2.338 16.557 271.627 271.627 0 0 0 3.275 16.168 231.42 231.42 0 0 0 4.12 15.255c1.359 4.406 2.417 7.76 3.52 10.504.553 1.372 1.116 2.591 1.733 3.713a22.946 22.946 0 0 0 2.06 3.127 26.04 26.04 0 0 0 2.647 2.875c1.009.953 2.158 1.918 3.492 2.951 2.668 2.067 6.073 4.407 10.561 7.46 1.979 1.345 3.72 2.475 5.414 3.482a60.819 60.819 0 0 0 5.135 2.738c3.588 1.698 7.76 3.264 14.049 5.424 7.895 2.71 13.24 4.425 18.675 5.818 5.437 1.394 10.964 2.467 19.227 3.899 5.5.952 14.5 3.07 20 4.705 5.5 1.635 16.3 4.568 24 6.517 7.7 1.95 19.85 5.131 27 7.069 15.556 4.215 24.4 6.552 31.121 7.998 3.36.723 6.19 1.222 9.063 1.623 2.871.4 5.786.702 9.316 1.027 5.32.49 17.733.865 33.672 1.121 15.938.256 35.401.392 54.824.408 19.423.017 38.805-.088 54.578-.318 15.773-.23 27.937-.583 32.926-1.064a163.68 163.68 0 0 0 9.365-1.194 221.505 221.505 0 0 0 10.203-1.842c7.063-1.438 14.627-3.293 22.575-5.53 7.947-2.239 16.278-4.86 24.877-7.83a557.08 557.08 0 0 0 26.48-9.935c7.607-3.07 12.632-5.248 15.984-7.007 1.676-.88 2.935-1.655 3.887-2.385.952-.73 1.6-1.417 2.055-2.117.4-.615 1.11-2.412 1.933-4.81.823-2.4 1.759-5.402 2.608-8.427 1.405-5.008 2.482-9.304 3.736-15.334 1.255-6.03 2.687-13.792 4.809-25.732.788-4.436 2.976-13.436 4.861-20 1.164-4.052 2.138-7.629 2.982-11.045.845-3.416 1.56-6.671 2.206-10.08 1.29-6.818 2.298-14.25 3.5-24.809 1.647-14.475 2.607-23.223 3.289-30.77.681-7.545 1.084-13.89 1.617-23.558.278-5.04.615-9.754.935-13.289.32-3.534.624-5.888.832-6.21.188-.291.354-1.707.53-5.632.175-3.925.362-10.359.586-20.691.448-20.665 1.052-56.918 2.054-119.85.274-17.217.529-30.911.832-42.209.304-11.297.657-20.198 1.13-27.824.472-7.626 1.065-13.978 1.845-20.181.78-6.204 1.749-12.257 2.976-19.286.57-3.265 1.018-6.048 1.381-8.943.363-2.895.642-5.903.871-9.613.459-7.42.722-17.654 1.084-35.444.2-9.816.426-18.154.706-25.423.28-7.27.615-13.47 1.037-19.012.422-5.543.93-10.428 1.556-15.067.627-4.638 1.372-9.03 2.266-13.584.338-1.722.616-3.664.848-6.236.232-2.572.418-5.774.574-10.014.312-8.478.501-21.109.69-41.164.16-17.135.187-31.498.052-43.53-.135-12.034-.431-21.738-.916-29.558-.243-3.91-.53-7.347-.871-10.37-.34-3.024-.733-5.631-1.178-7.88-.445-2.248-.943-4.136-1.5-5.72-.557-1.584-1.172-2.864-1.848-3.895-.38-.58-.891-2.284-1.41-4.564-.518-2.28-1.043-5.135-1.449-8.014-.86-6.09-1.765-11.37-2.812-16.1-1.048-4.728-2.236-8.905-3.66-12.789a75.522 75.522 0 0 0-5.079-11.033c-1.992-3.556-4.315-7.078-7.064-10.824a5054.297 5054.297 0 0 1-10.666-14.58c-.77-1.06-2.396-2.905-4.395-5.02-1.999-2.114-4.371-4.5-6.635-6.648-1.716-1.63-3.216-2.994-4.66-4.205a51.814 51.814 0 0 0-4.324-3.277c-2.987-2.022-6.396-3.861-11.516-6.391a225.327 225.327 0 0 0-15.68-7.004 237.21 237.21 0 0 0-16.288-5.873 227.957 227.957 0 0 0-16.46-4.598 199.324 199.324 0 0 0-16.177-3.18c-5.315-.81-12.589-2.155-16.164-2.988-1.193-.278-2.843-.525-5.096-.752-2.253-.226-5.108-.432-8.709-.623-7.2-.38-17.382-.703-31.695-1.029-10.725-.244-21.275-.594-29.63-.96-8.357-.368-14.519-.753-16.472-1.065-2.19-.351-10.48-.576-21.906-.692-11.426-.116-25.99-.122-40.724-.037z" style="isolation:auto;mix-blend-mode:normal" color="#000" overflow="visible" fill="url(#c)" transform="translate(-196.013 -29.62)"/><path d="M485.979 29.623c-16.236-.02-32.48.04-45.59.18-13.11.14-23.086.36-26.784.666-3.03.25-8.314.985-14.386 1.965-6.072.98-12.931 2.205-19.114 3.441-12.364 2.471-24.73 4.774-27.48 5.117a398.182 398.182 0 0 0-16.03 2.309 289.624 289.624 0 0 0-14.63 2.808 273.058 273.058 0 0 0-14.178 3.514 337.234 337.234 0 0 0-14.662 4.426c-7.425 2.415-18.893 5.803-25.484 7.53-5.05 1.322-9.4 2.634-13.19 4.013-3.789 1.379-7.015 2.824-9.816 4.414a41.033 41.033 0 0 0-3.9 2.502 34.666 34.666 0 0 0-6.293 5.883 39.917 39.917 0 0 0-2.596 3.498c-1.018 1.533-2.082 3.474-3.166 5.761-1.085 2.287-2.19 4.92-3.295 7.836a178.315 178.315 0 0 0-3.285 9.541 241.452 241.452 0 0 0-3.135 10.873c-.656 2.487-1.52 6.634-2.473 11.725-.953 5.091-1.995 11.127-3.012 17.387-2.033 12.52-3.96 25.938-4.85 34.513-.37 3.575-1.295 10.55-2.058 15.5-.64 4.154-1.223 8.924-1.752 14.39-.529 5.464-1.004 11.622-1.425 18.55-.843 13.855-1.474 30.787-1.905 51.398-.431 20.611-.664 44.903-.709 73.479-.045 28.576.098 61.435.414 99.183.087 10.36.03 22.727-.134 35.707-.165 12.98-.436 26.575-.778 39.391-.341 12.816-.753 24.852-1.197 34.717-.444 9.865-.92 17.557-1.393 21.685-.55 4.808-.965 14.427-1.246 26.409-.28 11.981-.426 26.325-.433 40.586-.008 14.26.12 28.436.388 40.082.134 5.822.303 11.012.506 15.263.203 4.251.44 7.563.713 9.631.724 5.49 1.466 12.038 2.193 19.252.728 7.214 1.44 15.095 2.106 23.252 1.333 16.315 2.481 33.738 3.19 49.148.306 6.678.753 12.958 1.369 19.008.615 6.05 1.399 11.872 2.38 17.635a256.47 256.47 0 0 0 3.567 17.283c1.406 5.816 3.038 11.743 4.926 17.951 1.425 4.689 2.698 8.48 4.072 11.72.687 1.619 1.398 3.099 2.168 4.485a35.707 35.707 0 0 0 2.512 3.918 37.335 37.335 0 0 0 3.048 3.61 53.037 53.037 0 0 0 3.774 3.556c2.8 2.412 6.213 4.962 10.492 7.997 3.562 2.525 6.229 4.417 8.557 5.945 2.328 1.527 4.316 2.69 6.523 3.758 2.207 1.067 4.633 2.038 7.832 3.183s7.171 2.464 12.475 4.225c6.178 2.051 11.803 3.732 17.205 5.129a195.671 195.671 0 0 0 15.87 3.422c4.197.724 9.106 1.72 13.638 2.742 4.53 1.022 8.684 2.07 11.363 2.896 7.886 2.435 12.65 3.875 17.205 5.114 4.554 1.238 8.897 2.274 15.941 3.9 7.372 1.7 19.072 4.789 26 6.863 8.08 2.42 14.644 4.157 20.668 5.414 3.012.63 5.89 1.138 8.754 1.553 2.864.415 5.716.735 8.676.986 3.565.304 16.507.535 34.111.692 17.605.157 39.873.238 62.092.246 22.22.007 44.388-.06 61.797-.205s30.057-.367 33.23-.668c4.12-.39 9.326-1.246 15.223-2.461 5.897-1.215 12.484-2.789 19.367-4.617a484.86 484.86 0 0 0 21.14-6.145c7.08-2.232 14.057-4.613 20.54-7.039 8.744-3.272 15.836-6.03 21.625-8.47 5.79-2.442 10.276-4.566 13.807-6.57 1.765-1.003 3.292-1.975 4.623-2.942 1.33-.968 2.467-1.93 3.45-2.912a21.67 21.67 0 0 0 2.538-3.03 23.272 23.272 0 0 0 1.889-3.293c.736-1.552 1.626-4.03 2.595-7.144.97-3.115 2.02-6.868 3.075-10.967 1.054-4.1 2.113-8.547 3.103-13.053.99-4.505 1.91-9.069 2.688-13.402 1.727-9.633 4.264-21.546 5.636-26.475 2.499-8.977 4.389-16.659 5.89-24.152a253.867 253.867 0 0 0 1.991-11.238c.585-3.79 1.102-7.671 1.576-11.782 2.202-19.07 3.432-29.897 4.182-37.392.75-7.495 1.022-11.656 1.305-17.397.325-6.6 1.255-19.2 2.066-28 .493-5.34.949-15.533 1.37-30.607.42-15.074.805-35.03 1.155-59.893.413-29.296.798-52.985 1.206-72.279.407-19.294.84-34.192 1.347-45.908.508-11.716 1.091-20.25 1.805-26.815.357-3.282.746-6.072 1.174-8.521.427-2.45.894-4.557 1.406-6.477.609-2.281 1.163-5.444 1.652-9.326.49-3.882.912-8.484 1.26-13.646.348-5.162.618-10.884.803-17.004.184-6.12.283-12.64.283-19.399 0-7.071.138-14.18.39-21.033.253-6.853.62-13.45 1.08-19.502.461-6.05 1.015-11.555 1.64-16.22.624-4.666 1.32-8.494 2.064-11.192.202-.732.39-3.416.562-7.578.173-4.162.331-9.8.47-16.443.275-13.286.474-30.587.577-48.106.103-17.518.109-35.256-.006-49.418-.114-14.162-.348-24.748-.724-27.965-.3-2.566-.797-5.702-1.354-8.69-.557-2.986-1.174-5.824-1.719-7.79a69.836 69.836 0 0 1-1.398-6.238c-.359-2.03-.582-3.844-.582-4.957 0-1.114-.16-2.356-.42-3.46-.26-1.103-.618-2.069-1.012-2.63-.393-.562-1.053-2.415-1.797-4.948-.744-2.532-1.573-5.744-2.308-9.025a142.801 142.801 0 0 0-2.907-10.92 125.366 125.366 0 0 0-3.552-10.012c-1.268-3.126-2.607-6.011-3.98-8.566-1.375-2.555-2.784-4.779-4.192-6.582-2.383-3.051-6.873-9.216-9.979-13.7-1.552-2.241-4.185-5.46-7.175-8.841-2.991-3.38-6.34-6.923-9.325-9.81-3.265-3.16-6.385-5.922-9.588-8.42a90.484 90.484 0 0 0-10.085-6.838c-3.599-2.105-7.51-4.08-11.963-6.06-4.454-1.981-9.45-3.966-15.217-6.09-4.652-1.714-8.832-3.183-12.795-4.473a212.873 212.873 0 0 0-11.488-3.407 214.84 214.84 0 0 0-11.705-2.742c-4.106-.848-8.5-1.652-13.438-2.48-8.483-1.423-15.908-2.893-16.5-3.268-.296-.187-4.389-.439-10.746-.691-6.357-.253-14.978-.507-24.328-.703-18.7-.392-39.175-1.164-45.5-1.713-3.622-.315-13.54-.558-26.613-.729-13.073-.17-29.299-.268-45.534-.287zm-4.086 17.203c14.735-.085 29.298-.079 40.724.037 11.427.116 19.716.341 21.906.692 1.953.312 8.115.697 16.471 1.064 8.356.367 18.906.717 29.631.961 14.313.326 24.495.649 31.695 1.03 3.6.19 6.456.396 8.71.622 2.252.227 3.902.474 5.095.752 3.575.833 10.849 2.178 16.164 2.989a199.324 199.324 0 0 1 16.178 3.18 227.957 227.957 0 0 1 16.459 4.597 237.217 237.217 0 0 1 16.289 5.873 225.327 225.327 0 0 1 15.68 7.004c5.12 2.53 8.528 4.37 11.515 6.39a51.814 51.814 0 0 1 4.324 3.278c1.444 1.21 2.944 2.576 4.66 4.205a179.813 179.813 0 0 1 6.635 6.648c2 2.115 3.625 3.96 4.395 5.02 1.54 2.121 6.338 8.682 10.666 14.58 2.749 3.746 5.072 7.268 7.064 10.824a75.522 75.522 0 0 1 5.078 11.033c1.425 3.884 2.613 8.06 3.66 12.79 1.048 4.728 1.954 10.008 2.813 16.1.406 2.878.931 5.733 1.45 8.013.518 2.28 1.03 3.985 1.41 4.564.675 1.031 1.29 2.311 1.847 3.895.557 1.584 1.055 3.472 1.5 5.72.445 2.249.838 4.856 1.178 7.88.34 3.023.629 6.46.87 10.37.486 7.82.782 17.524.917 29.557.135 12.033.108 26.396-.053 43.531-.187 20.055-.377 32.686-.69 41.164-.155 4.24-.341 7.442-.573 10.014-.232 2.572-.51 4.514-.848 6.236a227.929 227.929 0 0 0-2.266 13.584c-.626 4.639-1.134 9.524-1.556 15.067-.422 5.543-.758 11.742-1.037 19.012-.28 7.269-.505 15.607-.706 25.423-.362 17.79-.625 28.024-1.084 35.444-.229 3.71-.508 6.718-.87 9.613-.364 2.895-.811 5.678-1.381 8.943-1.228 7.029-2.197 13.082-2.977 19.286-.78 6.203-1.373 12.555-1.846 20.181-.472 7.626-.825 16.527-1.129 27.824-.303 11.298-.558 24.992-.832 42.21-1.002 62.93-1.606 99.184-2.054 119.849-.224 10.332-.41 16.766-.586 20.691-.176 3.925-.342 5.34-.53 5.631-.208.323-.511 2.677-.832 6.211-.32 3.535-.657 8.25-.935 13.29-.533 9.668-.936 16.012-1.617 23.558-.682 7.546-1.642 16.294-3.29 30.77-1.201 10.558-2.21 17.99-3.5 24.808a183.013 183.013 0 0 1-2.204 10.08c-.845 3.416-1.82 6.993-2.983 11.045-1.885 6.564-4.073 15.564-4.861 20-2.121 11.94-3.554 19.703-4.809 25.732-1.254 6.03-2.33 10.326-3.736 15.334a161.278 161.278 0 0 1-2.608 8.426c-.823 2.4-1.533 4.196-1.933 4.81-.456.701-1.103 1.387-2.055 2.118-.952.73-2.21 1.505-3.887 2.385-3.352 1.76-8.377 3.937-15.984 7.007a557.08 557.08 0 0 1-26.48 9.934c-8.599 2.972-16.93 5.592-24.877 7.83-7.948 2.238-15.512 4.093-22.575 5.531-3.53.72-6.936 1.335-10.203 1.842a163.68 163.68 0 0 1-9.365 1.194c-4.989.481-17.153.834-32.926 1.064-15.773.23-35.155.335-54.578.318-19.423-.016-38.886-.152-54.824-.408-15.939-.256-28.352-.631-33.672-1.12-3.53-.326-6.444-.628-9.316-1.028-2.872-.4-5.702-.9-9.063-1.623-6.72-1.446-15.565-3.783-31.121-7.998-7.15-1.938-19.3-5.12-27-7.069-7.7-1.95-18.5-4.882-24-6.517-5.5-1.636-14.5-3.753-20-4.705-8.263-1.432-13.79-2.505-19.227-3.899-5.436-1.393-10.78-3.107-18.675-5.818-6.29-2.16-10.461-3.726-14.05-5.424a60.819 60.819 0 0 1-5.134-2.738c-1.694-1.007-3.435-2.137-5.414-3.483-4.488-3.052-7.893-5.392-10.56-7.459-1.334-1.033-2.484-1.998-3.493-2.95a26.04 26.04 0 0 1-2.646-2.876 22.946 22.946 0 0 1-2.06-3.127c-.618-1.122-1.181-2.34-1.733-3.713-1.104-2.743-2.162-6.098-3.522-10.504a231.42 231.42 0 0 1-4.119-15.255 271.627 271.627 0 0 1-3.275-16.168 282.856 282.856 0 0 1-2.338-16.557 262.141 262.141 0 0 1-1.313-16.422c-.659-13.856-1.916-32.902-3.191-49.57-1.275-16.669-2.568-30.96-3.3-35.309-.469-2.777-.897-6.403-1.282-10.68-.385-4.276-.726-9.202-1.021-14.584-.592-10.762-.998-23.341-1.196-36.166-.197-12.824-.185-25.893.059-37.632.122-5.87.301-11.406.543-16.414.241-5.009.545-9.489.912-13.243.807-8.25 1.997-20.625 2.646-27.5.417-4.414.727-18.478.952-44.593.224-26.116.364-64.282.437-116.907.073-52.52.212-90.581.434-116.482.11-12.95.242-22.86.398-30.018.156-7.157.334-11.56.54-13.5.64-6.05 1.597-16.85 2.126-24 .476-6.442.938-11.473 1.863-19.004.926-7.53 2.316-17.56 4.653-33.996 1.329-9.35 2.914-20.6 3.521-25 .623-4.51 2.02-11.084 3.742-17.927 1.722-6.844 3.769-13.957 5.69-19.551.7-2.038 1.385-3.877 2.094-5.547.708-1.67 1.44-3.17 2.236-4.533a24.722 24.722 0 0 1 2.613-3.7 21.7 21.7 0 0 1 3.22-3.046c1.202-.926 2.541-1.773 4.061-2.57 1.52-.798 3.22-1.547 5.137-2.276 3.833-1.458 8.536-2.839 14.42-4.38 6.462-1.694 17.732-5.05 25.045-7.456 4.858-1.599 9.04-2.917 12.994-4.053a187.99 187.99 0 0 1 11.633-2.959c3.95-.87 8.122-1.659 12.965-2.463 4.843-.803 10.357-1.623 16.992-2.558 5.707-.804 19.432-3.31 30.5-5.57a600.665 600.665 0 0 1 17.002-3.202c5.37-.93 10.009-1.648 12.621-1.93 3.57-.383 12.894-.71 25.01-.962 12.116-.252 27.023-.43 41.758-.516z" style="isolation:auto;mix-blend-mode:normal" color="#000" overflow="visible" fill="url(#b)" transform="translate(-196.013 -29.62)"/><path d="M503.623 149.555c-1.662.023-3.382.762-4.937 2.318l-2.348 2.348.435 29.902.436 29.902-4.852-9.5c-6.067-11.877-19.336-32.15-22.855-34.918-1.456-1.145-3.733-2.082-5.059-2.082-3.022 0-7.318 4.185-7.318 7.127 0 1.22 3.556 7.653 7.902 14.295 6.998 10.695 21.508 38.126 28.342 53.578 1.338 3.025 3.18 6.117 4.094 6.871 1.027.849 1.662 2.853 1.662 5.25 0 3.156-.357 3.88-1.918 3.88-1.055 0-2.683.291-3.617.65-1.453.557-1.538.351-.582-1.434 1.912-3.573 1.253-6.113-2.725-10.49-6.653-7.322-22.146-29.626-31.76-45.727-11.824-19.803-12.25-20.334-16.388-20.334-3.852 0-8.01 4.011-8.01 7.727 0 2.467 13.597 25.898 22.283 38.4 13.94 20.062 21.304 29.62 24.744 32.112l3.75 2.716-4.222 2.24c-5.726 3.038-11.212 7.683-14.602 12.362l-2.816 3.887-5.602-10.955c-7.202-14.08-21.726-37.003-25.281-39.9-3.907-3.185-7.53-2.905-10.666.822-1.424 1.692-2.588 3.646-2.588 4.343 0 .697 4.069 7.526 9.041 15.174 8.155 12.544 23.53 41.167 22.607 42.09-.203.204-1.589-.09-3.076-.656-1.487-.566-7.52-1.028-13.408-1.028-10.972 0-21.645 2.129-28.537 5.692-2.753 1.423-2.972 1.43-1.834.058 2.193-2.643.337-6.412-7.662-15.558-4.197-4.8-9.868-11.419-12.602-14.71-2.734-3.29-9.288-10.482-14.564-15.982-9.081-9.466-22.777-28.14-29.83-40.671-3.809-6.767-9.25-11.829-12.715-11.829-3.19 0-7.42 4.172-7.42 7.319 0 1.326.834 3.485 1.854 4.797 1.02 1.311 3.157 4.64 4.75 7.396 8.396 14.535 22.606 33.783 32.87 44.526 6.064 6.345 15.597 16.92 21.184 23.5 5.588 6.58 11.281 13.011 12.653 14.294l2.494 2.332-7.887 7.536c-9.137 8.729-12.432 14.597-14.23 25.338l-1.231 7.351-9.478-14.732c-30.043-46.694-36.065-54.657-41.334-54.657-3.56 0-7.645 4.087-7.645 7.649 0 1.872 2.329 5.767 7.352 12.295 5.935 7.714 27.648 41.191 27.648 42.629 0 .204-5.107-2.712-11.348-6.48-22.136-13.37-38.54-22.093-41.547-22.093-4.068 0-9.105 4.378-9.105 7.914 0 3.416 2.86 6.071 10 9.284 3.025 1.36 10.9 5.614 17.5 9.45 28.665 16.663 39.539 22.978 47.803 27.759 9.787 5.662 7.872 3.207 31.205 39.947 8.796 13.85 8.797 13.856 7.144 16.654-.91 1.54-1.652 3.258-1.652 3.819 0 2.117 5.244 7.173 7.44 7.173 1.888 0 2.88 1.44 6.027 8.75 6.827 15.857 10.293 25.635 12.101 34.147l1.786 8.398-2.428 1.973-2.426 1.97-.5-8.095c-.407-6.592-.909-8.504-2.695-10.287-3.153-3.147-8.001-2.91-10.963.533-2.034 2.365-2.342 3.774-2.342 10.725 0 5.8-.318 7.807-1.156 7.289-.852-.527-.988-7.09-.514-24.98l.643-24.268-3.063-2.576c-3.808-3.205-4.998-3.218-8.715-.09-2.666 2.243-3.022 3.254-3.597 10.25a905.612 905.612 0 0 1-1.244 13.754l-.608 5.994-4.77-5.41c-5.729-6.5-9.685-7.28-13.634-2.688-3.521 4.094-2.992 6.98 2.37 12.904 2.593 2.864 5.824 6.439 7.179 7.946 1.355 1.506 2.254 2.948 2 3.203-.255.255-8.098-2.014-17.428-5.043-26.263-8.526-47.02-13.399-57.082-13.399-3.497 0-7.381 4.211-7.381 8 0 5.158 3.397 7.563 11.777 8.342 9.917.922 21.838 3.79 41.092 9.89 17.592 5.574 19.925 7.131 5.543 3.698-5.674-1.354-13.825-2.32-22.43-2.66l-13.517-.533-3.233 2.72c-4.049 3.408-4.284 7.205-.656 10.618 2.397 2.254 3.573 2.468 16.75 3.058 14.195.636 28.204 3.207 42.174 7.742 21.035 6.83 24.425 7.29 27.932 3.784l2.341-2.342 4.262 5.455c3.067 3.926 3.73 5.293 2.363 4.87-1.043-.321-9.998-1.265-19.898-2.095-9.9-.83-22.5-2.189-28-3.021-5.5-.833-13.674-1.517-18.162-1.52-7.889-.006-8.248.097-10.75 3.07-3.234 3.843-3.234 5.003 0 8.846 2.008 2.386 3.41 3.085 6.25 3.11 2.013.017 9.062.702 15.662 1.523 17.42 2.167 37.455 4.174 49.57 4.967l10.57.691 2.512-2.982 2.51-2.985 4.918 5.952c2.705 3.272 5.206 6.478 5.557 7.125.35.646-.522 5.452-1.938 10.677-2.393 8.832-2.572 11.013-2.564 31 .005 11.825.465 24.054 1.023 27.176l1.016 5.678-5.588-3.793c-14.995-10.177-47.606-23.237-72.54-29.05-9.31-2.172-26.322-4.01-37.046-4.007-19.309.008-18.87 15.21.676 23.428l3.176 1.334-3.256 1.684c-3.988 2.062-6.501 7.354-5.164 10.87 2.122 5.584 4.369 6.355 35.568 12.225 19.666 3.7 42.41 10.232 61.174 17.569 5.678 2.22 10.326 4.385 10.326 4.812 0 .427-2.91 1.565-6.465 2.527-10.792 2.922-16.957 7.996-29.824 24.547-3.524 4.533-5.942 6.346-13.744 10.313-8.425 4.283-10.514 4.913-18.967 5.723-5.225.5-14.988.922-21.695.937-11.402.025-12.375.182-14.977 2.42-2.23 1.918-2.783 3.237-2.783 6.633 0 3.806.501 4.692 4.914 8.687 5.781 5.234 12.367 8.67 34.041 17.754 10.04 4.208 17.676 8.09 20.5 10.418 2.475 2.041 6.075 4.794 8 6.115 1.925 1.322 8.9 6.763 15.5 12.092 13.08 10.562 24.02 17.78 34.084 22.695 3.54 1.18 4.931 1.717 10.76 3.47 5.176 1.556 10.75 3.128 15.828 4.343 2.539.607 4.952 1.126 7.13 1.508 1.381.242 2.461.318 3.624.44 4.463.332 12.13.754 22.074 1.052 25.527.765 37.73-.586 54-5.979 5.775-1.914 15.225-4.658 21-6.097a657.53 657.53 0 0 0 10.28-2.635c3.755-1.357 5.897-2.253 9.75-3.61 4.827-1.7 5.544-1.93 9.142-3.175.004-.011-.032-.437-.027-.44.195-.117 5.585-3.694 11.978-7.949s20.793-12.232 32-17.726c39.085-19.162 43.978-22.003 53.127-30.86 5.396-5.224 5.75-5.856 5.75-10.271 0-9.26-6.615-13.415-23.93-15.03-11.119-1.036-14.233-2.177-24.07-8.828-13.848-9.362-19.565-11.049-41-12.088-9.625-.466-18.85-1.274-20.5-1.794l-3-.946 3.059-.086c1.682-.047 3.932-.747 5-1.554 1.067-.808 3.606-1.483 5.64-1.5 3.007-.026 4.18-.664 6.27-3.403 3.48-4.562 17.034-9.423 31.457-11.283 5.816-.75 20.474-3.365 32.574-5.81 12.1-2.446 25.825-4.95 30.5-5.561 9.41-1.231 12.586-2.755 14.113-6.773 1.385-3.641-.919-8.374-5.047-10.373l-3.128-1.516 6.78-1.834c12.93-3.496 16.506-12.21 7.024-17.113-2.744-1.42-5.304-1.559-18.02-.985-18.767.847-33.99 3.45-53.466 9.143-20.923 6.115-31.859 10.487-41.024 16.402-7.478 4.827-7.753 4.92-8.382 2.783-.358-1.214-.696-11.73-.75-23.369l-.1-21.16 2.969-6.34c1.632-3.487 4.179-8.44 5.66-11.008 2.645-4.583 2.737-4.637 5.111-3.082 2.08 1.363 3.42 1.424 9.588.438 9.878-1.579 30.793-8.56 65.596-21.897 15.878-6.084 20.946-12.857 13.998-18.703-1.692-1.424-3.504-2.588-4.027-2.588-.524 0-4.217 1.55-8.207 3.444-9.593 4.552-57.311 21.635-65.344 23.392l-4.158.909 4.693-6.624c2.58-3.642 8.666-13.146 13.523-21.12 4.858-7.976 8.984-14.671 9.172-14.878.188-.206 1.526 1.031 2.973 2.75 3.365 4 6.658 4.032 11.127.108 4.318-3.792 18.486-10.912 37.615-18.904 14.395-6.014 22.644-8.588 35.8-11.172 7.024-1.38 11.911-5.033 11.911-8.905 0-1.184-1.344-3.498-2.986-5.14-2.76-2.76-3.347-2.933-7.75-2.278-11.31 1.683-27.853 6.64-42.274 12.67-16.005 6.693-32.61 14.666-36.99 17.762-2.203 1.558-1.877.526 2.75-8.7 2.888-5.756 5.25-11.322 5.25-12.37 0-1.278.907-2.09 2.75-2.461 12.591-2.541 19.454-6.779 25.725-15.883 2.12-3.08 4.584-5.6 5.474-5.6 2.535 0 33.227-6.877 36.34-8.142 5.656-2.299 7.246-7.637 3.639-12.223-2.66-3.38-4.456-3.35-20.49.354-17.839 4.12-17.049 4.25-17.698-2.907-.627-6.917-5.088-16.089-10.27-21.11l-3.386-3.282 7.488-3.854c4.119-2.119 16.587-9.106 27.707-15.527 11.121-6.421 22.246-12.742 24.721-14.045 8.061-4.244 9.93-8.54 5.928-13.629-2.751-3.497-7.066-3.451-14.037.15-2.965 1.532-15.639 8.757-28.162 16.055-12.524 7.299-24.853 14.033-27.397 14.965-2.56.938-5.743 3.091-7.13 4.822-2.338 2.918-2.747 3.06-6.093 2.137-5.515-1.523-18.863-.45-24.232 1.947-4.996 2.23-11.688 7.81-15.078 12.57-1.165 1.636-3.375 6.608-4.912 11.048-2.71 7.824-2.921 8.108-6.88 9.277-3.66 1.08-4.032 1.033-3.595-.451 2.122-7.194 4.588-18.547 4.588-21.125 0-2.549 1.122-4.175 5.99-8.682 6.593-6.103 14.252-17.602 15.905-23.875 1.236-4.692 5.122-8.678 16.834-17.273 10.004-7.343 21.162-14.078 35.771-21.59 7.555-3.885 9.904-4.788 7.5-2.883-18.51 14.666-40.536 35.538-43.453 41.18-1.075 2.078-1.446 4.277-1.037 6.138.786 3.582 5.795 7.955 9.111 7.955 3.151 0 7.38-4.19 7.38-7.312 0-4.279 25.413-27.166 47.474-42.756 18.548-13.107 22.602-18.947 17.025-24.523-1.375-1.375-2.5-2.952-2.5-3.504 0-2.604-3.246-6.795-6.008-7.758-3.148-1.097-7.195-.249-8.443 1.771-.355.574-10.932 6.198-23.506 12.496-23.69 11.867-35.033 18.423-45.453 26.274-3.35 2.524-5.126 3.515-3.947 2.201 1.178-1.314 4.238-5.653 6.798-9.64 4.793-7.464 9.01-10.897 20.584-16.762 7.829-3.967 29.272-20.635 44.108-34.285 7.352-6.765 14.83-13.564 16.617-15.11 4.48-3.873 4.547-8.822.172-12.504-1.692-1.424-3.677-2.588-4.41-2.588-1.982 0-10.106 6.706-23.28 19.213-9.83 9.333-21.49 18.907-27.025 22.19-2.593 1.538 10.435-17.776 15.21-22.55 5.93-5.927 6.553-9.762 2.194-13.51-6.742-5.8-11.126-2.358-26.31 20.663-23.092 35.01-23.432 35.432-30.832 38.395-3.57 1.429-7.625 2.6-9.012 2.6-6.412 0-12.263 4.814-11.127 9.158.368 1.405.182 1.686-.66 1-2.076-1.693-11.9-4.159-16.568-4.159h-4.534l5.022-5.25c8.402-8.782 22.472-25.491 33.892-40.25 5.959-7.7 12.9-16.277 15.426-19.06 2.526-2.783 9.502-12.22 15.504-20.97 6.002-8.752 12.415-17.328 14.25-19.06 4.251-4.009 4.378-7.524.414-11.488-3.608-3.608-6.966-3.727-10.933-.388-1.656 1.393-7.958 9.83-14.004 18.75-6.047 8.919-14.353 20.133-18.46 24.92-4.105 4.786-12.325 15.01-18.265 22.722-5.94 7.712-10.949 13.874-11.13 13.692-.183-.182 1.297-4.109 3.286-8.725 1.99-4.616 4.941-11.993 6.56-16.393 1.62-4.4 6.534-15.498 10.92-24.664 12.06-25.195 12.998-28.88 8.495-33.382-4.709-4.709-10.108-2.539-13.05 5.244-1 2.641-5.404 12.452-9.79 21.802-4.386 9.35-9.914 21.95-12.283 28-2.37 6.05-8.406 20.9-13.416 33-5.01 12.1-10.888 26.387-13.063 31.748-2.175 5.362-5.527 11.809-7.449 14.327-1.922 2.518-3.494 5.068-3.494 5.668 0 .599-.226.866-.5.591-.824-.824 2.17-19.806 4.361-27.642 9.041-32.343 26.643-70.296 34.471-74.326 7.24-3.728 8.667-9.006 3.59-13.278-3.485-2.932-5.815-3.212-9.754-1.176-3.632 1.878-11.254 10.12-15.488 16.745-4.342 6.793-13.467 24.897-15.656 31.066l-1.676 4.723-1.713-5.436c-1.164-3.693-3.353-7.229-6.828-11.031-5.655-6.187-9.701-8.594-17.551-10.442-4.971-1.17-5.213-1.373-4.61-3.886 1.843-7.678 15.052-43.398 20.579-55.65 2.48-5.5 4.851-11.095 5.267-12.432.416-1.337 1.6-3.812 2.63-5.5 2.458-4.033 2.364-5.892-.464-9.18-3.578-4.16-8.13-3.765-12.308 1.068-1.803 2.085-3.807 5.422-4.455 7.416-.649 1.995-3.643 9.252-6.653 16.127-3.01 6.875-6.94 16.775-8.738 22-1.798 5.225-4.251 11.956-5.453 14.957-1.202 3.002-3.256 9.077-4.565 13.5-2.162 7.31-2.389 7.679-2.468 4.043-1.28-58.42-2.2-86.868-2.926-90.464-.958-4.744-3.762-7.632-6.887-7.973a5.762 5.762 0 0 0-.707-.033zm88.395 43.636c-2.728 0-4.45 1.282-11.313 8.416-7.919 8.234-26.333 31.182-30.482 37.989-2.677 4.39-2.637 5.135.49 8.851 5.41 6.43 8.176 4.571 24.437-16.422 5.113-6.6 12.675-15.748 16.803-20.33 5.793-6.429 7.504-9.01 7.504-11.306 0-3.963-3.344-7.198-7.44-7.198zm-65.051 77.48c.65.009 1.272.028 1.869.057 7.162.354 10.676 2.304 13.814 6.833 2.423 3.495 2.826 5.242 3.485 15.105.946 14.163-.406 39.475-2.358 44.146-1.281 3.067-2.44 3.87-9.523 6.602-9.157 3.531-14.319 3.845-21.643 1.313-7.503-2.595-13.286-6.317-21.191-13.635-7.894-7.309-11.281-12.383-13.686-20.498-1.966-6.639-2.091-17.981-.246-22.399 3.867-9.254 20.492-15.976 42.848-17.326 2.49-.15 4.682-.221 6.63-.197zm-93.705 35.466c11.2-.13 12.617.634 16.494 8.888 3.04 6.474 3.23 15.891.43 21.381-2.245 4.399-6.67 8.979-13.061 13.512-3.713 2.634-4.554 3.821-4.805 6.785-.245 2.909.209 3.995 2.385 5.707 3.575 2.812 5.945 2.657 11.92-.781 6.95-3.999 14.101-11.504 17.719-18.598 2.932-5.749 3.096-5.892 4.02-3.5 1.702 4.411 10.767 35.183 13.284 45.1l2.438 9.607-3.982 4.188c-5.226 5.493-8.027 11.152-8.688 17.556-.495 4.793-.319 5.376 2.22 7.373 1.517 1.193 3.738 2.17 4.936 2.17 2.621 0 6.906-4.362 8.348-8.5.936-2.686 1.054-2.755 1.125-.648.048 1.44-1.593 4.212-4.233 7.148-3.42 3.805-4.857 6.623-6.96 13.647-4.137 13.816-4.395 17.465-1.475 20.86 1.73 2.01 3.357 2.825 5.644 2.825 4.614 0 7.191-3.1 8.74-10.52 1.173-5.614 1.256-3.412.757 19.9l-.561 26.212 2.54 2.537c3.001 3.003 6.527 3.25 9.698.682 2.912-2.358 3.542-7.138 4.502-34.143l.729-20.5 4.1.33 4.099.33-.35 26.04c-.334 24.883-.26 26.16 1.678 28.78l2.027 2.743-10.177.695c-5.598.383-12.203 1.124-14.678 1.647a603.348 603.348 0 0 0-6.73 1.457c-1.79.406-2.5-.138-3.586-2.758-2.589-6.238-5.596-17.307-6.727-24.764-2.004-13.205-8.62-37.955-15.291-57.197-3.565-10.283-6.76-19.144-7.098-19.691-.385-.624.674-.785 2.836-.434 2.808.456 3.927.081 6.022-2.014 1.415-1.415 2.582-3.606 2.592-4.869.034-4.589 2.97-16.076 5.445-21.308 1.912-4.042 2.316-5.94 1.64-7.715-1.272-3.347-3.744-5.106-7.177-5.106-6.335 0-11.75 9.214-14.297 24.332l-1.223 7.256-4.219-9.377c-2.32-5.157-4.21-9.9-4.203-10.539.018-1.346-5.637-6.338-7.18-6.338-.572 0-2.624-1.392-4.56-3.091-3.768-3.309-3.426-3.298-14.076-.448l-6.33 1.696-5.53-2.797c-6.035-3.054-11.179-8.394-14.304-14.85-6.564-13.56 4.348-30.013 24.955-37.629 7.243-2.677 10.005-3.174 18.178-3.27zm192.74 29.388c1.167 0 2.123.422 2.123.94 0 1.732-1.76 2.054-3.01.549-1.028-1.24-.88-1.489.887-1.489zm-30.389 5.807a34.64 34.64 0 0 1 1.469.014c11.663.361 21.26 6.79 23.508 17.023.544 2.479.287 3.772-1.043 5.242-1.018 1.126-1.843 3.76-1.945 6.22-.098 2.346-.756 5.346-1.463 6.667-2.18 4.071-10.267 12.115-14.2 14.121-5.07 2.587-9.613 2.407-13.974-.556-4.711-3.202-11.433-13.331-13.45-20.266l-1.591-5.47 3.101-3.2c1.705-1.76 3.1-3.948 3.1-4.863 0-3.261 4.134-12.647 5.803-13.174 3.632-1.148 7.236-1.715 10.685-1.758zm-106.826 8.313c.506.035 1.983.894 3.56 2.095 4.453 3.39 10.167 6.197 16.924 8.315 5.274 1.652 5.682 2.007 6.21 5.369.31 1.98.878 17.664 1.261 34.851.383 17.188.49 31.25.24 31.25s-2.907-1.225-5.906-2.722c-2.998-1.497-5.553-2.762-5.678-2.81-.124-.05-.688-3.436-1.253-7.528-.566-4.092-1.296-8.717-1.624-10.277-.554-2.647-.449-2.762 1.543-1.696 2.67 1.428 5.089.695 8.024-2.43 2.022-2.152 2.203-3.05 1.594-7.931-.756-6.048-3.379-10.237-6.827-10.902-1.627-.315-1.37-.47.948-.569 3.64-.156 7.322-4.024 7.322-7.693 0-5.24-8.988-11.457-18.844-13.033-4.095-.655-4.158-.73-6.111-7.239-1.085-3.617-1.777-6.773-1.537-7.013.03-.03.082-.042.154-.037zm52.91 7.994c.116-.015.222-.016.319 0 .11.017.209.055.296.113.7.462.691 2.223.333 5.523-.97 8.928-1.34 9.967-3.76 10.616-5.179 1.387-6.468.825-7.12-3.116-1.032-6.247-.786-8.25 1.014-8.25.91 0 3.131-1.125 4.934-2.5 1.904-1.452 3.177-2.283 3.984-2.386zm15.953 12.072c.148-.173 1.244 2.612 2.434 6.19 2.794 8.396 8.292 16.774 15.375 23.421 6.371 5.98 10.836 8.203 16.467 8.203 2.126 0 4.122.255 4.435.569.783.782-4.349 20.11-9.672 36.431-2.421 7.425-4.779 15.24-5.24 17.368l-.838 3.869-1.297-3.588c-1.595-4.413-10.926-17.653-16.49-23.399-2.263-2.337-5.056-4.25-6.205-4.25-1.947 0-2.065-.458-1.736-6.75.194-3.712.44-7.389.547-8.17.107-.78 3.477 2.479 7.488 7.243 7.853 9.327 10.787 10.985 15.125 8.55 3.884-2.18 4.9-6.198 2.635-10.406-3.05-5.664-19.337-23.376-22.143-24.08l-2.547-.639.698-15.125c.383-8.318.817-15.264.964-15.437zm-163.4 4.963l5.187 2.416c6.142 2.86 14.763 3.225 22.278.945 2.7-.819 4.97-1.494 5.043-1.5.073-.006.364 1.003.646 2.24.283 1.238 3.223 8.1 6.533 15.25 11.277 24.354 22.794 61.727 28.579 92.733.896 4.803 2.898 12.505 4.447 17.115l2.816 8.38-4.884 1.757c-2.687.966-8.151 3.889-12.145 6.496-3.994 2.607-8.173 5.899-9.287 7.314l-2.026 2.575-6.095-6.184-6.098-6.186 2.043-2.488c1.588-1.934 1.936-3.449 1.559-6.799-.473-4.197-.437-4.264 1.431-2.574 1.341 1.214 3.606 1.736 7.524 1.736 4.87 0 5.914-.36 7.965-2.744 1.297-1.509 2.359-3.584 2.359-4.611 0-2.338-4.686-8.02-6.613-8.02-1.89 0-2.84-2.773-4.37-12.76l-1.265-8.257 2.623-2.065c3.225-2.536 3.43-6.42.625-11.918-1.1-2.156-2-4.805-2-5.884 0-2.862-4.794-8.116-7.404-8.116-1.574 0-2.732-1.062-3.953-3.625-1.56-3.271-1.579-3.789-.186-5.328 3.282-3.627.822-9.342-6.064-14.093-1.159-.8-3.094-3.395-4.301-5.766-1.208-2.371-3.687-6.646-5.508-9.5-1.821-2.854-6.944-10.892-11.385-17.863l-8.074-12.676zm142.375 14.851h4.5v4c0 2.2-.113 3.936-.25 3.858-.138-.078-2.147-1.09-4.465-2.25-5.906-2.955-5.804-5.608.215-5.608zm117.455 17.88c12.514-.033 22.662 8.722 24.527 21.161.616 4.107.407 4.779-2.433 7.75-2.408 2.52-3.058 4.025-2.88 6.68.255 3.773-1.854 6.796-6.368 9.131-3.495 1.807-7.777 1.73-10.301-.184-1.53-1.16-3.423-1.364-8.06-.87-5.642.6-6.288.45-9.391-2.16-7.544-6.348-9.266-18.247-4.18-28.888 4.613-9.65 9.065-12.595 19.086-12.62zm-120.89 3.732c.234.029.52.167.869.353 1.063.57 2.762 1.035 3.775 1.035 1.698 0 1.81.83 1.445 10.704-.322 8.702-.768 11.208-2.384 13.394-1.616 2.185-1.868 3.598-1.346 7.545.353 2.671.608 7.107.566 9.857-.042 2.75-1.18 10.175-2.53 16.5l-2.45 11.5.494-24.412c.272-13.426.496-29.53.496-35.785 0-8.2.042-10.477.848-10.682a.588.588 0 0 1 .216-.01zm72.597 26.564c.328.087 1.388.966 2.559 2.137 1.338 1.338 4 3 5.918 3.693 2.674.967 4.146 2.522 6.324 6.682 3.467 6.622 11.4 13.797 17.78 16.08 5.47 1.958 5.47 1.79.083 12.543-5.77 11.517-30.93 52.323-39.976 64.838-4.712 6.518-8.735 11.851-8.94 11.851-.205 0-.646-1.237-.98-2.75-1.793-8.118-5.041-15.843-8.504-20.224-6.764-8.557-26.245-23.355-34.155-25.946-3.533-1.157-3.652-1.333-2.3-3.4.784-1.199 1.738-5.23 2.119-8.959.38-3.728 1.013-6.976 1.406-7.219.393-.242 2.411 2.025 4.486 5.037 7.575 10.999 13.244 13.825 18.063 9.006 3.77-3.77 3.099-6.425-4.045-16.008-4.403-5.906-6.5-9.628-6.5-11.539 0-2.625-3.857-7.117-7.016-8.17-1.253-.417-.217-13.828 1.069-13.828 1.128 0 7.96 9.46 11.447 15.854 1.65 3.025 4.262 6.426 5.805 7.558 2.683 1.971 2.932 1.987 5.758.366l2.955-1.696-.618 2.71c-.339 1.489-1.725 6.983-3.082 12.208a4933.778 4933.778 0 0 0-3.76 14.569c-.711 2.787-1.802 6.02-2.425 7.183-2.215 4.14-1.4 8.845 2.031 11.733 1.756 1.477 3.941 2.458 4.91 2.205 1.318-.345 1.893.328 2.346 2.74.33 1.758 2.114 4.665 3.963 6.457 4.163 4.036 8.848 4.053 11.826.045 1.583-2.13 1.786-3.484 1.193-7.951-.81-6.11-3.825-9.98-7.773-9.98-3.165 0-3.635-1.576-1.838-6.151l1.445-3.684 4.633 1.407c6.537 1.984 8.87 1.778 11.676-1.028 5.04-5.04 1.868-11.412-6.961-13.978l-5.373-1.563 1.053-4.146 1.052-4.147 15.893.553c15.435.536 15.968.485 18.508-1.7 3.627-3.119 3.581-8.05-.106-11.222-2.58-2.22-3.47-2.342-17.037-2.342h-14.312l1.263-5.44c1.03-4.432 7.232-23.22 8.043-24.37.015-.021.047-.026.094-.014zM414.975 494.12c1.015.038 1.15.764 1.15 3.045 0 1.849-.194 3.361-.432 3.361-.237 0-1.358-1.3-2.488-2.886l-2.055-2.887 2.487-.475c.562-.107.999-.17 1.338-.158zm283.513 7.406c-3.251 0-26.243 6.895-41.83 12.545-6.757 2.45-13.876 4.455-15.82 4.455-4.802 0-9.18 4.925-8.297 9.336.703 3.516 2.256 5.58 5.049 6.711 3.528 1.43 5.166 1.079 20.78-4.453 8.39-2.972 19.98-6.838 25.755-8.592 17.698-5.373 21-7.352 21-12.59 0-3.227-3.747-7.412-6.637-7.412zM525.664 519.23c3.254.007 5.936.127 7.537.385 8.001 1.289 11.602 3.004 20.574 9.797 15.128 11.454 17.851 15.968 20.88 34.613 2.198 13.538 1.982 16.58-1.49 20.95-1.63 2.049-3.252 4.64-3.606 5.757-.755 2.378 2.12 6.792 5.394 8.28 2.092.95 2.172 1.558 2.192 16.5.01 8.532.443 18.433.959 22.004.594 4.114.585 6.843-.022 7.45-.61.612-.957.018-.957-1.636 0-1.427-.941-5.679-2.092-9.45-1.796-5.887-2.973-7.723-8.34-13-5.348-5.258-8.755-7.372-23.658-14.687-24.996-12.268-27.562-13.008-42.91-12.365-18.091.758-34.803 5.695-49.5 14.623l-6.244 3.795-.63-6.008c-.804-7.697-.795-33.067.015-37.963.438-2.653 1.128-3.75 2.355-3.75.954 0 2.92-.934 4.37-2.074 3.085-2.427 3.441-6.386 1.157-12.86-1.404-3.98-1.36-4.361.872-7.874 3.217-5.063 5.225-6.692 13.191-10.7l6.875-3.458 1.326 2.529c1.659 3.165 5.415 4.69 8.582 3.486 3.127-1.189 6.631-5.74 6.631-8.613 0-1.973.762-2.452 5.441-3.424 6.415-1.332 21.336-2.327 31.098-2.307zm-158.133 88.295c1.948 0 23.155 8.223 32.186 12.48 12.248 5.775 21.144 11.476 26.27 16.833 1.849 1.933 3.199 3.925 3 4.43-.2.504-4.187-.853-8.862-3.018-8.482-3.927-34.452-12.85-47.268-16.24-6.224-1.647-6.645-1.925-5.25-3.467 1.752-1.935 1.983-6.281.483-9.084-.57-1.064-.822-1.934-.559-1.934zm135.094 1.705c7.894-.029 9.983.366 17 3.22 12.718 5.17 31.55 15.124 35.686 18.86 4.411 3.986 5.384 7.047 6.337 19.928.435 5.876 1.182 9.628 2.059 10.356.984.817 1.097 1.661.397 2.97-.539 1.007-.979 3.796-.979 6.2 0 3.618.559 4.91 3.25 7.513 6.312 6.108 11.233 7.435 31.213 8.412 20.207.99 25.382 2.121 34.037 7.446 3.3 2.03 8.475 5.217 11.5 7.082 6.544 4.034 12.883 5.933 22.86 6.853l7.359.68-2.002 2c-2.258 2.258-15.3 9.128-45.094 23.752-11.207 5.5-25.092 13.212-30.855 17.135-13.062 8.89-22.113 12.845-39.852 17.414-7.655 1.971-17.741 4.873-22.416 6.449-4.675 1.576-11.736 3.351-15.691 3.945-13.606 2.043-61.137.683-67.106-1.92-1.263-.55-3.173-1-4.242-1-3.134 0-15.744-5.93-25.514-11.998-4.978-3.092-14.92-10.32-22.095-16.062-26.526-21.229-26.938-21.497-42.829-28.16l-14.974-6.28 8.474-.662c9.409-.735 15.304-2.473 24.977-7.363 9.917-5.013 14.472-8.78 20.55-17 9.655-13.054 10.416-13.588 27.27-19.074l15.057-4.9 5.812 2.745c7.13 3.37 7.418 3.375 11.233.165 3.071-2.585 4.265-7.558 2.13-8.877-.52-.322-.87-2.425-.78-4.674.135-3.401-.338-4.52-2.805-6.64-2.126-1.829-2.998-3.506-3.074-5.919-.064-2.015-1.023-4.343-2.39-5.797-2.16-2.3-2.195-2.561-.657-4.908 2.288-3.492 9.284-8.08 19.976-13.1 12.139-5.698 24.688-8.748 36.178-8.79zm160.232 11.723c1.286-.036 1.268.561 1.268 1.62 0 1.146.447 2.921.996 3.947.895 1.671.405 1.982-4.75 3.013a572.894 572.894 0 0 0-12.246 2.633c-3.575.815-11.537 2.114-17.693 2.887-6.156.773-12.344 1.694-13.75 2.047-1.407.353-2.557.374-2.557.047 0-1.325 17.457-7.674 34.5-12.547 7.797-2.23 11.672-3.34 13.598-3.592.24-.032.45-.05.634-.055z" fill="url(#d)" transform="translate(-196.013 -29.62)"/><path d="M502.814 627.543c-1.937-.106-3.46.74-5.275 2.3-1.896 1.632-2.727 3.349-2.805 5.788-.097 3.076-1.312 4.57-10.783 13.26-5.87 5.386-11.383 11.288-12.25 13.115-3.057 6.442-2.109 12.468 5.514 35.02 7.595 22.47 14.258 37.812 17.767 40.915 3.012 2.664 7.992 2.489 10.3-.36 2.642-3.264 2.286-7.234-1.278-14.294-3.275-6.487-15.671-40.79-17.748-49.111-1.384-5.544-1.571-5.18 6.687-13.07 2.926-2.795 6.648-5.648 8.272-6.342 1.624-.694 3.762-2.592 4.75-4.217l1.797-2.955 7.931 6.275c9.475 7.498 18.642 17.397 21.412 23.12 1.9 3.924 1.928 4.47.497 9.964-.833 3.197-2.532 7.897-3.774 10.444-4.603 9.436-26.065 50.699-27.361 52.603-2.27 3.335-1.678 8.116 1.293 10.453 5.754 4.527 9.986 1.846 16.45-10.426 15.162-28.778 26.982-52.834 28.436-57.879 1.085-3.761 1.553-8.12 1.3-12.105-.34-5.323-1.046-7.227-4.86-13.121-5.912-9.136-17.095-20.305-29.848-29.809-8.814-6.568-13.195-9.39-16.424-9.568z" fill="url(#e)" transform="translate(-196.013 -29.62)"/><path d="M529.64 500.525c.15 0 .53.675.846 1.5.399 1.039-.067 1.5-1.515 1.5-1.746 0-1.885-.248-.846-1.5.685-.825 1.367-1.5 1.516-1.5zM518.729 436.795c.332.332.367 1.196.078 1.918-.32.798-.556.56-.604-.606-.043-1.054.193-1.644.525-1.312zM653.645 417.525c-4.548 0-9.52 4.18-9.52 8 0 1.924.979 3.646 3.076 5.41 6.054 5.094 15.256 1.831 15.256-5.41 0-4.305-4.07-8-8.812-8zM346.537 411.467c-3.603-.207-7.23 2.053-8.736 6.316-.983 2.783.988 6.565 4.549 8.737 4.352 2.653 7.346 2.524 10.32-.45 3.237-3.237 3.187-7.52-.135-11.468-1.683-2-3.836-3.011-5.998-3.135zM594.291 353.475c-3.717.034-7.493 2.91-9.559 8.072-1.95 4.877-1.286 8.3 2.14 10.994 2.772 2.181 5.411 2.504 8.21 1.006 1.769-.947 8.043-11.032 8.043-12.93 0-.516-1.166-2.323-2.59-4.015-1.805-2.145-4.014-3.148-6.244-3.127zM415.104 330.85c-1.94.107-3.779 1.042-5.229 2.789-3.134 3.774-1.761 10.136 2.564 11.879 3.617 1.457 5.382 1.132 8.608-1.582 4.176-3.515 4.141-7.339-.104-10.91-1.857-1.564-3.9-2.284-5.84-2.176z" fill="url(#d)" transform="translate(-196.013 -29.62)"/><path d="M270.527 320.725c-1.146.352-1.115 2.95-.75 8.05.325 4.538 1.098 9.356 1.72 10.71 1.165 2.542 24.795 21.518 37.128 29.816 3.85 2.59 8.479 5.95 10.285 7.467 1.807 1.516 4.282 2.773 5.5 2.793 1.323.021.2.767-2.785 1.85-6.992 2.534-11.173 5.269-17.275 11.302-7.361 7.277-10.65 14.341-10.588 22.742.026 3.613.58 8.463 1.232 10.777 3.394 12.055 17.592 21.853 36.643 25.29 7.327 1.321 20.988.337 28.988-2.09 3.85-1.168 8.238-2.351 9.752-2.63 1.674-.307 4.263-2.321 6.611-5.142 6.501-7.809 7.49-10.534 7.95-21.898.364-9.026.092-11.295-2.258-18.834-2.18-6.994-3.475-9.376-7.032-12.932-5.896-5.897-14.946-10.35-22.035-10.842-3.828-.266-6.3-1.029-7.797-2.408-1.205-1.11-5.57-4.058-9.699-6.549-4.13-2.49-8.597-5.685-9.926-7.1-1.329-1.414-3.279-2.572-4.336-2.572-1.056 0-3.34-.984-5.076-2.187-6.926-4.802-32.531-24.914-38.443-30.195-4.34-3.878-6.663-5.77-7.809-5.418zm82.541 72.521c1.61-.269 3.004.23 6.157 1.828 5.923 3.002 7.366 5.081 9.34 13.455 2.023 8.587 1.92 13.604-.381 18.674-1.753 3.861-2.417 4.341-8.729 6.313-13.655 4.265-28.805 3.349-40.209-2.43-6.145-3.114-8.835-6.466-9.674-12.057-1.499-9.996 4.392-17.736 17.387-22.85 6.138-2.415 16.105-3.639 18.978-2.33 1.669.76 3.192.735 5.375-.09.659-.248 1.22-.423 1.756-.513zM502.965 289.025c-4.253 0-5.38.425-7.428 2.805-3.376 3.925-3.27 9.522.256 13.713 1.468 1.744 3.605 3.564 4.75 4.045 4.95 2.08 14.383-1.715 16.05-6.457.786-2.234.56-3.517-1.14-6.447-3.222-5.558-6.647-7.659-12.488-7.659zM374.418 188.56c-1.253.265-2.588 1.183-4.217 2.553-2.099 1.766-3.076 3.487-3.076 5.414 0 1.554 3.6 10.274 8 19.375 4.4 9.102 8 16.848 8 17.213 0 1.514 13.263 24.623 19.393 33.79 3.633 5.433 6.607 10.507 6.607 11.273s1.857 3.406 4.127 5.869c5.122 5.557 8.465 5.938 12.283 1.4 1.424-1.692 2.59-3.534 2.59-4.095 0-2.027-8.526-17.35-13.55-24.354-5.528-7.704-11.157-18.268-25.415-47.697-7.963-16.436-10.982-21.533-14.742-20.74z" fill="url(#d)" transform="translate(-196.013 -29.62)"/><path d="M463.05 795.072c-1.162-.12-2.242-.197-3.622-.44-2.179-.381-4.592-.9-7.131-1.507-5.078-1.215-10.652-2.787-15.828-4.344-5.829-1.752-7.22-2.29-10.76-3.468 1.42.693 2.88 1.487 4.266 2.085l8.65 3.73.281 7.448.283 7.45-12.841 14c-19.858 21.648-26.657 27.031-44.989 35.628a2584.127 2584.127 0 0 0-13.234 6.239c-5.584 2.69-5.872 9.704-.541 13.197 3.421 2.242 8.684.897 21.682-5.54 13.74-6.803 24.651-14.768 36.732-26.814l10.373-10.341-.715 7.814c-.393 4.298-1.123 10.016-1.623 12.703-.5 2.688-.908 11.513-.908 19.613 0 13.387.189 14.97 2.072 17.366 2.792 3.549 7.988 3.642 10.701.193 1.626-2.066 2.02-4.788 2.563-17.75.353-8.42.984-16.775 1.402-18.566l.762-3.256 5 6.406c2.75 3.523 9.05 10.883 14 16.355 4.95 5.473 10.934 12.265 13.299 15.094 2.365 2.83 5.436 5.43 6.824 5.778 5.334 1.338 10.333-3.672 8.992-9.014-.653-2.603-11.261-15.602-24.615-30.16-4.125-4.497-9.525-11.426-12-15.397a1022.176 1022.176 0 0 0-7.75-12.234c-3.509-5.415-4.039-9.189-1.719-12.256 1.05-1.388 1.469-4.63 1.469-11.38v-9.44l4.75.61c.416.052 3.332.135 4.176.198zM589.297 774.629c-3.598 1.245-4.315 1.475-9.143 3.176-3.852 1.356-5.994 2.252-9.75 3.61.373-.1 1.816-.459 1.971-.505 1.448-.43 1.75.127 1.75 3.22 0 2.058.732 11.602 1.627 21.208 1.477 15.85 1.481 17.545.059 18.342-.863.482-4.38 4.358-7.815 8.611-12.125 15.011-28.99 33.201-36.383 39.242-8.127 6.641-9.735 9.68-7.361 13.908 5.18 9.23 15.214 2.694 41.781-27.216 5.725-6.445 10.53-11.597 10.678-11.448.149.15 1.23 9.717 2.404 21.26 2.208 21.716 3.05 24.76 7.319 26.479 1.205.485 2.273.91 2.375.945 1.129.387 5.557-2.376 6.767-4.223 1.403-2.14 1.41-3.754.063-16.295-2.294-21.353-3.408-37.617-2.793-40.785.528-2.722.765-2.838 4.668-2.3 8.482 1.166 28.752 7.732 38.082 12.333 5.646 2.785 12.032 6.9 15.35 9.893 5.63 5.08 9.13 7.441 11.036 7.441.544 0 2.373-1.166 4.065-2.59 4.9-4.122 4.274-7.432-2.672-14.115-8.787-8.454-18.937-14.635-33.52-20.412-6.592-2.611-31.278-8.883-34.964-8.883-1.522 0-2.766-.516-2.766-1.146 0-.63-.723-9.884-1.605-20.563-.864-10.439-1.381-18.694-1.223-19.187z" fill="url(#e)" transform="translate(-196.013 -29.62)"/></svg>