<svg xmlns:osb="http://www.openswatchbook.org/uri/2009/osb" xmlns="http://www.w3.org/2000/svg" height="874.948" width="544.571"><defs><linearGradient osb:paint="solid" id="c"><stop offset="0" stop-color="#fff"/></linearGradient><linearGradient osb:paint="solid" id="b"><stop offset="0"/></linearGradient><linearGradient osb:paint="solid" id="d"><stop offset="0" stop-color="#002b11"/></linearGradient><linearGradient osb:paint="solid" id="a"><stop offset="0" stop-color="#162d50"/></linearGradient></defs><path d="M585.338 80.082c-5.21-.04-10.166.16-15.377.598-5.211.437-10.677 1.11-16.912 2.015-14.208 2.063-23.07 3.32-29.762 4.182a368.872 368.872 0 0 1-16.738 1.807c-7.261.629-13.59 1.285-19.377 2.015-5.787.73-11.03 1.537-16.123 2.467-4.4.804-17 3.062-28 5.018-11 1.955-21.242 3.974-22.758 4.486-1.516.512-7.25 1.494-12.746 2.18-4.76.594-7.29.882-8.96.779-.833-.051-1.45-.2-2.024-.457-.574-.257-1.105-.622-1.76-1.106-.757-.557-1.552-1.419-2.223-2.357-.671-.938-1.219-1.953-1.48-2.818-.227-.751-.412-1.322-.621-1.746-.21-.425-.443-.704-.77-.872-.327-.167-.747-.223-1.326-.203-.58.02-1.317.117-2.283.256-2.227.321-6.524 1.187-9.55 1.926-3.024.739-7.974 1.638-11 1.998-2.982.355-6.98 1.152-11.454 2.229-4.474 1.076-9.425 2.432-14.315 3.906-4.89 1.474-9.719 3.067-13.949 4.615s-7.862 3.05-10.357 4.348c-1.807.939-4.09 2.423-6.6 4.242s-5.246 3.974-7.959 6.254a161.344 161.344 0 0 0-7.82 7.004c-2.418 2.32-4.564 4.556-6.186 6.498a97.933 97.933 0 0 0-4.588 5.972 137.005 137.005 0 0 0-4.654 7c-3.116 5-6.253 10.651-9.367 16.883-1.5 3.001-2.841 5.777-4.049 8.444a126.022 126.022 0 0 0-3.244 7.79 98.552 98.552 0 0 0-2.578 7.852 112.013 112.013 0 0 0-2.055 8.62c-.613 3.078-1.163 6.403-1.672 10.091-.51 3.689-.977 7.74-1.43 12.273-.904 9.068-1.742 20.064-2.7 33.93-.571 8.25-1.037 19.5-1.038 25 0 5.5-.461 14.012-1.023 18.916-.968 8.444-1.698 14.955-2.25 21.399-.553 6.443-.927 12.817-1.18 20.988-.253 8.17-.384 18.139-.453 31.766-.069 13.626-.076 30.913-.076 53.724-.001 36.955.061 59.723.271 73.992.105 7.135.248 12.145.438 15.743.19 3.597.426 5.782.72 7.265.4 2.015.801 5.045 1.192 8.916.39 3.871.771 8.583 1.129 13.96.715 10.751 1.341 24.162 1.785 38.831.162 5.363.423 10.8.713 15.24.29 4.441.606 7.885.883 9.26.285 1.42.637 11.318.984 26.537.347 15.22.688 35.76.953 58.463.342 29.342.646 52.805.951 71.688.306 18.882.615 33.185.967 44.205.352 11.02.749 18.756 1.23 24.508.483 5.752 1.05 9.519 1.745 12.6.91 4.031 1.791 7.359 2.814 10.241a40.08 40.08 0 0 0 1.662 4.024 30.954 30.954 0 0 0 2 3.547 31.45 31.45 0 0 0 2.467 3.267 41.797 41.797 0 0 0 3.06 3.182c2.267 2.135 5.014 4.34 8.41 6.877 2.383 1.779 5.278 3.755 8.409 5.77a252.646 252.646 0 0 0 9.822 5.994 215.994 215.994 0 0 0 9.578 5.255c2.967 1.522 5.617 2.76 7.672 3.555 2.813 1.087 6.397 2.228 10.444 3.356 4.046 1.127 8.555 2.24 13.214 3.271 4.66 1.03 9.471 1.977 14.122 2.773 4.65.796 9.14 1.441 13.16 1.866 6.644.7 14.974 1.421 25.066 2.168 10.092.746 21.946 1.519 35.637 2.322 4.323.253 14.465.386 27.375.424 12.91.037 28.588-.02 43.986-.149 15.399-.127 30.517-.325 42.307-.568 11.79-.243 20.249-.53 22.332-.836 10.143-1.494 18.183-2.503 26.355-3.225s16.476-1.156 27.145-1.502c9.24-.299 15.275-.574 19.295-.931 2.01-.179 3.517-.377 4.668-.61 1.15-.232 1.947-.499 2.537-.812 1.038-.552 3.138-2.312 5.803-4.775 2.664-2.464 5.893-5.631 9.19-8.995a354.891 354.891 0 0 0 9.604-10.173c2.94-3.25 5.45-6.192 7.038-8.317 2.874-3.85 6.832-8.852 8.794-11.117 1.1-1.27 2.422-3.107 3.836-5.281a133.388 133.388 0 0 0 4.39-7.3 154.548 154.548 0 0 0 4.151-7.917c1.259-2.587 2.348-5.045 3.137-7.14.56-1.486 1.142-3.584 1.735-6.173.592-2.588 1.194-5.666 1.79-9.109 1.194-6.885 2.37-15.23 3.405-24.037a629.926 629.926 0 0 0 2.576-26.815c.643-8.736 1.03-16.939 1.047-23.61.02-8.526.465-19.55.988-24.5.523-4.95 1.65-15.75 2.502-24 .853-8.25 2.273-19.05 3.156-24 .884-4.95 1.943-13.05 2.354-18 .24-2.893.901-8.002 1.785-14.132.884-6.129 1.992-13.278 3.129-20.25 1.137-6.971 2.303-13.766 3.303-19.185 1-5.42 1.831-9.463 2.302-10.934.793-2.475 2.143-9.225 3-15 .858-5.775 2.227-13.078 3.043-16.228 1.31-5.055 2.197-9.057 2.871-13.328.675-4.272 1.138-8.812 1.596-14.944 2.233-29.883 4.134-54.4 5.504-71 1.682-20.384 2.814-34.632 3.643-46.16.828-11.528 1.354-20.336 1.82-29.84.54-11 1.248-21.122 1.574-22.494.326-1.372 1.273-15.097 2.104-30.5.744-13.809 1.306-23.962 1.662-32.02.355-8.057.504-14.016.426-19.439-.079-5.422-.384-10.308-.942-16.213-.557-5.905-1.366-12.83-2.447-22.334-.813-7.15-1.88-17.725-2.373-23.5-.408-4.78-1.076-9.922-1.932-15.107a241.06 241.06 0 0 0-3.056-15.367c-1.157-4.956-2.426-9.637-3.735-13.729-1.309-4.092-2.657-7.594-3.97-10.19-1.006-1.986-2.231-4.149-3.715-6.546-1.485-2.398-3.227-5.031-5.274-7.96-4.092-5.855-9.393-12.891-16.236-21.59-4.968-6.314-9.068-11.366-12.705-15.5a126.364 126.364 0 0 0-5.158-5.552 74.767 74.767 0 0 0-4.768-4.428 55.219 55.219 0 0 0-4.678-3.56 54.24 54.24 0 0 0-4.892-2.951c-3.401-1.82-7.147-3.404-11.643-5.094-4.761-1.79-8.669-3.215-12.158-4.385-3.489-1.17-6.558-2.083-9.647-2.847-3.088-.765-6.193-1.379-9.751-1.954-3.559-.575-7.571-1.11-12.471-1.71-8.278-1.016-15.277-1.784-21.51-2.307-6.232-.524-11.698-.802-16.908-.842z" style="isolation:auto;mix-blend-mode:normal" color="#000" overflow="visible" fill="url(#c)" transform="translate(-227.714 -62.526)"/><path d="M579.438 62.53c-4.666.021-9.093.16-13.157.425-4.063.266-7.762.658-10.968 1.188-9.2 1.519-17.088 2.698-26.641 3.918-9.553 1.22-20.77 2.48-36.623 4.158-8.25.873-18.964 2.32-23.809 3.217-4.104.759-6.354 1.137-7.91 1.13-.778-.003-1.383-.103-1.959-.3-.576-.197-1.122-.491-1.785-.883-.903-.534-2.082-.937-3.697-1.21-1.615-.271-3.666-.412-6.315-.425-2.649-.012-5.896.104-9.9.35-4.005.245-8.767.62-14.45 1.123-9.447.835-22.35 1.97-28.675 2.521-3.457.301-7.119.721-10.912 1.24-3.794.52-7.72 1.14-11.701 1.84a380.252 380.252 0 0 0-23.99 5.043c-7.832 1.913-15.3 4.009-21.813 6.143-3.257 1.067-6.275 2.143-8.98 3.21-2.706 1.069-5.098 2.128-7.104 3.16-2.791 1.438-5.137 2.714-7.301 4.036a63.15 63.15 0 0 0-6.213 4.313c-2.065 1.62-4.214 3.495-6.709 5.83-2.495 2.335-5.335 5.13-8.787 8.593-3.579 3.591-6.637 6.84-9.379 10.051a106.342 106.342 0 0 0-7.484 9.824c-2.315 3.44-4.52 7.147-6.817 11.424-2.297 4.277-4.688 9.125-7.377 14.848-1.434 3.053-2.729 5.983-3.902 8.918a117.27 117.27 0 0 0-3.174 8.95c-.95 3.073-1.8 6.28-2.566 9.75-.766 3.469-1.45 7.202-2.07 11.325-.621 4.123-1.18 8.637-1.694 13.67-.514 5.033-.985 10.587-1.431 16.787-.893 12.401-1.69 27.392-2.543 46.004-.492 10.725-1.62 25.575-2.506 33-.352 2.95-.627 6.068-.834 10.473-.208 4.404-.349 10.095-.436 18.19-.174 16.187-.13 41.987.033 86.337.132 35.57.313 61.431.563 78.969.125 8.769.266 15.458.428 20.238.161 4.78.343 7.654.546 8.793.32 1.788.715 6.506 1.094 12.668.38 6.163.742 13.77.998 21.332.456 13.454.97 24.921 1.621 35.672a913.838 913.838 0 0 0 2.442 31.375c.274 2.9.531 12.282.726 25.06.195 12.779.328 28.953.35 45.44.029 21.675.123 40.673.285 57.156.162 16.484.392 30.454.695 42.069.304 11.614.682 20.873 1.135 27.941.454 7.068.984 11.944 1.596 14.787 1.058 4.917 2.004 8.938 2.965 12.35.96 3.411 1.938 6.212 3.06 8.687a37.138 37.138 0 0 0 3.93 6.733c1.54 2.107 3.355 4.173 5.572 6.482 1.254 1.306 2.79 2.73 4.551 4.233a128.953 128.953 0 0 0 5.885 4.705c4.284 3.24 9.208 6.638 14.273 9.873 5.065 3.235 10.271 6.307 15.121 8.9a141.668 141.668 0 0 0 6.946 3.49c2.184 1.017 4.217 1.873 6.037 2.53a163.802 163.802 0 0 0 9.414 3.074c3.272.963 6.687 1.866 10.265 2.71a242.81 242.81 0 0 0 11.252 2.366c3.93.733 8.049 1.413 12.375 2.041 8.653 1.257 18.143 2.31 28.65 3.186 10.509.875 22.035 1.573 34.759 2.12 11.189.482 20.629 1.161 20.978 1.51.175.175 3.093.27 7.652.282 4.56.011 10.761-.06 17.504-.217 13.487-.314 43.197-.93 66.022-1.365 17.452-.334 28.444-.622 36.701-1.063 4.129-.22 7.573-.478 10.8-.8 3.229-.323 6.24-.71 9.499-1.184 4.919-.716 10.853-1.35 17.346-1.864a460.683 460.683 0 0 1 20.697-1.146c10.337-.345 16.076-.583 19.799-1.002 1.86-.21 3.218-.464 4.394-.8 1.176-.337 2.17-.755 3.307-1.292 1.49-.703 4.05-2.647 7.193-5.353 3.144-2.707 6.87-6.177 10.692-9.928a317.63 317.63 0 0 0 11.257-11.623c3.522-3.838 6.65-7.478 8.897-10.443a9419.507 9419.507 0 0 1 10.615-13.983 109.215 109.215 0 0 0 7.225-10.78 111.377 111.377 0 0 0 5.896-11.509 104.86 104.86 0 0 0 4.414-11.88 91.133 91.133 0 0 0 2.77-11.9c.863-5.367 1.71-11.5 2.506-18.06.796-6.56 1.54-13.548 2.205-20.623a827.688 827.688 0 0 0 1.717-21.148c.469-6.911.824-13.572 1.035-19.64.238-6.877.529-13.237.892-19.282s.798-11.774 1.324-17.393a467.558 467.558 0 0 1 1.872-16.724 562.218 562.218 0 0 1 2.529-17.27c1.332-8.25 2.42-16.817 2.42-19.039-.001-1.158.53-5.261 1.351-10.838.821-5.576 1.931-12.625 3.09-19.676 2.318-14.1 4.827-28.205 5.592-30.537.558-1.7 2.112-9.35 3.453-17 1.341-7.65 3.347-17.96 4.461-22.91.598-2.659 1.26-7.159 1.88-12.619.623-5.46 1.205-11.881 1.65-18.38 1.407-20.59 2.546-35.126 6.023-77 .776-9.35 1.89-25.55 2.476-36 .587-10.45 1.532-24.176 2.1-30.5.568-6.326 1.456-18.926 1.973-28 .516-9.076 1.431-24.826 2.03-35 .329-5.56.527-12.235.61-19.356.083-7.121.05-14.69-.088-22.037-.137-7.348-.378-14.475-.71-20.715-.333-6.24-.756-11.594-1.258-15.393-.8-6.05-1.972-16.175-2.604-22.5a318.924 318.924 0 0 0-2.225-17.498 254.32 254.32 0 0 0-2.998-15.965c-1.12-5.03-2.357-9.75-3.699-14.107-1.342-4.358-2.788-8.352-4.328-11.93-.812-1.888-2.014-4.228-3.48-6.828a178.17 178.17 0 0 0-5.07-8.383 224.989 224.989 0 0 0-5.917-8.777c-2.03-2.863-4.08-5.598-6.021-8.012-2.655-3.3-8.707-10.95-13.45-17a202.253 202.253 0 0 0-7.638-9.172 173.923 173.923 0 0 0-7.596-8.076c-2.463-2.448-4.827-4.623-7.002-6.433-2.174-1.81-4.158-3.256-5.861-4.247-2.6-1.512-6.974-3.539-12.354-5.761-5.38-2.223-11.765-4.64-18.392-6.94-2.198-.762-4.691-1.492-7.428-2.187a164.408 164.408 0 0 0-8.883-1.973c-6.335-1.238-13.426-2.315-20.842-3.197a395.523 395.523 0 0 0-22.793-2.03c-7.636-.458-15.168-.688-22.166-.656zm5.9 17.552c5.21.04 10.676.318 16.908.842 6.233.523 13.232 1.291 21.51 2.306 4.9.601 8.912 1.136 12.47 1.711 3.559.575 6.664 1.19 9.753 1.954 3.088.764 6.157 1.678 9.646 2.847 3.489 1.17 7.397 2.595 12.158 4.385 4.496 1.69 8.242 3.273 11.643 5.094 1.7.91 3.314 1.88 4.892 2.95a55.219 55.219 0 0 1 4.678 3.561 74.767 74.767 0 0 1 4.768 4.428c1.637 1.65 3.34 3.487 5.158 5.553 3.637 4.133 7.737 9.185 12.705 15.5 6.843 8.698 12.144 15.734 16.236 21.59 2.047 2.928 3.79 5.561 5.274 7.959 1.484 2.397 2.709 4.56 3.715 6.547 1.313 2.595 2.661 6.097 3.97 10.19 1.31 4.09 2.578 8.772 3.735 13.728a241.06 241.06 0 0 1 3.056 15.367c.856 5.185 1.524 10.326 1.932 15.107.492 5.775 1.56 16.35 2.373 23.5 1.081 9.505 1.89 16.43 2.447 22.334.558 5.905.863 10.79.942 16.213.078 5.423-.07 11.382-.426 19.44-.356 8.057-.918 18.21-1.662 32.019-.83 15.403-1.778 29.128-2.104 30.5-.326 1.372-1.034 11.494-1.574 22.494-.466 9.504-.992 18.312-1.82 29.84-.829 11.528-1.96 25.776-3.643 46.16-1.37 16.6-3.271 41.117-5.504 71-.458 6.132-.92 10.672-1.595 14.944-.675 4.27-1.562 8.273-2.872 13.328-.816 3.15-2.185 10.453-3.043 16.228-.857 5.775-2.207 12.525-3 15-.47 1.471-1.303 5.515-2.302 10.934-1 5.419-2.166 12.214-3.303 19.185a1151.296 1151.296 0 0 0-3.129 20.25c-.884 6.13-1.545 11.24-1.785 14.131-.411 4.95-1.47 13.05-2.354 18-.883 4.95-2.303 15.75-3.156 24-.852 8.25-1.979 19.05-2.502 24-.523 4.95-.968 15.975-.988 24.5-.016 6.672-.404 14.875-1.047 23.611a629.926 629.926 0 0 1-2.576 26.815c-1.036 8.808-2.21 17.152-3.404 24.037-.597 3.443-1.199 6.521-1.791 9.11-.593 2.588-1.176 4.686-1.735 6.171-.789 2.096-1.878 4.554-3.137 7.14a154.548 154.548 0 0 1-4.152 7.919 133.388 133.388 0 0 1-4.389 7.299c-1.414 2.174-2.735 4.011-3.835 5.281-1.963 2.265-5.92 7.267-8.795 11.117-1.587 2.125-4.099 5.066-7.038 8.317a354.891 354.891 0 0 1-9.603 10.173c-3.298 3.364-6.527 6.53-9.191 8.995-2.665 2.463-4.765 4.223-5.803 4.775-.59.313-1.386.58-2.537.812-1.151.233-2.658.431-4.668.61-4.02.357-10.055.632-19.295.931-10.669.346-18.973.78-27.145 1.502s-16.212 1.731-26.355 3.225c-2.083.307-10.543.593-22.332.836-11.79.243-26.908.44-42.307.568-15.398.128-31.076.186-43.986.149-12.91-.038-23.052-.17-27.375-.424-13.691-.803-25.545-1.576-35.637-2.322-10.092-.747-18.422-1.467-25.066-2.168-4.02-.425-8.51-1.07-13.16-1.866a302.452 302.452 0 0 1-14.122-2.773c-4.659-1.03-9.168-2.144-13.214-3.271-4.047-1.128-7.631-2.269-10.444-3.356-2.055-.794-4.705-2.033-7.672-3.555a215.994 215.994 0 0 1-9.578-5.255 252.646 252.646 0 0 1-9.822-5.995c-3.13-2.014-6.026-3.99-8.408-5.77-3.397-2.536-6.144-4.741-8.41-6.876a41.797 41.797 0 0 1-3.06-3.182 31.45 31.45 0 0 1-2.468-3.267 30.954 30.954 0 0 1-2-3.547 40.08 40.08 0 0 1-1.662-4.024c-1.023-2.882-1.905-6.21-2.814-10.242-.695-3.08-1.262-6.847-1.744-12.6-.482-5.751-.879-13.488-1.23-24.507-.353-11.02-.662-25.323-.968-44.205-.305-18.883-.609-42.346-.95-71.688-.266-22.702-.607-43.243-.954-58.463-.347-15.22-.7-25.118-.984-26.537-.277-1.375-.594-4.819-.883-9.26-.29-4.44-.55-9.877-.713-15.24-.444-14.669-1.07-28.08-1.785-38.832-.358-5.376-.739-10.088-1.13-13.959-.39-3.87-.79-6.901-1.19-8.916-.295-1.483-.532-3.668-.721-7.265-.19-3.598-.333-8.608-.438-15.743-.21-14.27-.272-37.037-.271-73.992 0-22.81.007-40.098.076-53.724.069-13.627.2-23.595.453-31.766s.627-14.545 1.18-20.988c.552-6.444 1.282-12.955 2.25-21.399.562-4.904 1.023-13.416 1.023-18.916s.467-16.75 1.037-25c.959-13.866 1.797-24.862 2.702-33.93.452-4.533.92-8.584 1.43-12.273.508-3.688 1.058-7.013 1.671-10.092.613-3.079 1.29-5.913 2.055-8.619a98.552 98.552 0 0 1 2.578-7.851 126.022 126.022 0 0 1 3.244-7.791c1.208-2.667 2.55-5.443 4.049-8.444 3.114-6.232 6.25-11.883 9.367-16.883 1.558-2.5 3.112-4.834 4.654-7a97.933 97.933 0 0 1 4.588-5.972c1.622-1.942 3.768-4.178 6.186-6.498a161.344 161.344 0 0 1 7.82-7.004c2.714-2.28 5.45-4.435 7.96-6.254 2.509-1.82 4.792-3.303 6.599-4.242 2.495-1.298 6.127-2.8 10.357-4.348 4.23-1.548 9.06-3.141 13.95-4.615 4.89-1.474 9.84-2.83 14.314-3.906 4.474-1.077 8.472-1.874 11.455-2.229 3.025-.36 7.975-1.26 11-1.998 3.025-.739 7.322-1.605 9.549-1.926.966-.139 1.704-.235 2.283-.256.579-.02 1 .036 1.326.203.327.168.56.447.77.872.209.424.394.995.62 1.746.262.865.81 1.88 1.481 2.818.671.938 1.466 1.8 2.223 2.357.655.484 1.186.849 1.76 1.106.573.257 1.19.406 2.025.457 1.668.103 4.199-.185 8.959-.78 5.495-.685 11.23-1.667 12.746-2.18 1.516-.511 11.758-2.53 22.758-4.485 11-1.956 23.6-4.214 28-5.018a293.077 293.077 0 0 1 16.123-2.467c5.787-.73 12.116-1.386 19.377-2.015a368.872 368.872 0 0 0 16.738-1.807c6.692-.862 15.554-2.119 29.762-4.182 6.235-.905 11.701-1.578 16.912-2.015 5.21-.437 10.166-.637 15.377-.598z" style="isolation:auto;mix-blend-mode:normal" color="#000" overflow="visible" fill="url(#b)" transform="translate(-227.714 -62.526)"/><path d="M636.545 709.27c.53-.001 1.004.294 1.004.884 0 .184-.652.585-1.45.89-.966.372-1.265.075-.896-.888.227-.59.813-.886 1.342-.886zM417.84 560.549c-18.163-.092-41.142 2.754-54.68 7.293-22.505 7.545-32.611 18.18-32.611 34.316 0 11.538 8.382 24.48 18.847 29.098 4.55 2.007 4.612 2.188 3.13 9.146-.563 2.64-1.35 9.738-1.75 15.774l-.727 10.974-4.354.743c-9.628 1.638-21.8 11.588-25.16 20.57-4.02 10.742-1.798 18.656 7.926 28.238 3.628 3.575 8.732 7.624 11.342 8.998 3.15 1.659 4.773 3.171 4.828 4.5.046 1.101.23 3.127.41 4.502.18 1.375.412 10.15.514 19.5.143 13.206-.203 18.595-1.55 24.14l-1.732 7.14-6.925 3.619c-8.72 4.554-20.06 12.931-25.412 18.771-5.381 5.871-7.872 13.143-7.819 22.83.09 16.234 10.032 27.515 27.832 31.58 4.79 1.094 13.503 1.305 40.6.979 18.975-.229 37.65-.91 41.5-1.514 17.335-2.72 27.916-8.45 32.064-17.36 2.79-5.99 3.252-14.795 1.051-20.062-.762-1.822-6.237-8.446-12.166-14.719-14.987-15.854-14.443-14.68-14.447-31.144-.003-12.557 2.148-39.223 3.853-47.76.645-3.23 1.502-3.92 11.084-8.953 17.967-9.435 27.06-20.155 27.06-31.904 0-4.07-.66-6.59-2.577-9.864-2.976-5.077-11.965-12.06-20.649-16.04l-5.972-2.739.67-6c.88-7.876 3.805-12.932 10.529-18.21 12.363-9.706 14.92-12.384 18.209-19.075 3.144-6.398 3.285-7.182 3.19-17.705-.088-9.571-.461-11.889-2.85-17.74-4.748-11.627-13.901-18.622-27.229-20.805-4.455-.73-9.975-1.087-16.03-1.117zm-4.25 28.715c18.286-.073 20.258.623 21.715 7.67 1.307 6.327-.094 9.118-7.096 14.123-15.564 11.123-24.66 26.38-24.66 41.355v4.29l-5.25-.11c-2.888-.06-7.275-.524-9.75-1.03-2.475-.506-5.513-.744-6.75-.529-1.565.272-2.25-.1-2.25-1.222 0-3.31 3.906-21.954 6.408-30.584 1.425-4.917 2.59-10.76 2.588-12.983-.004-4.554-2.685-9.637-6.348-12.037-2.628-1.722-8.593-2.279-12.648-1.18-1.375.373-.568-.213 1.795-1.302 8.192-3.777 25.306-6.394 42.246-6.461zm-47.504 8.656c.147.155-.961 1.746-2.463 3.537-2.552 3.043-4.083 3.355-4.068.828.006-1.012 5.946-4.982 6.53-4.365zm11.88 85.012c.382-.037.862.066 1.493.216 1.424.34 6.752.891 11.84 1.223 10.62.693 9.99-.348 7.451 12.33l-1.701 8.5-11.25.283-11.25.284v-4.59c0-2.525.522-7.754 1.16-11.62.849-5.14 1.113-6.515 2.258-6.626zm-4.405 51.77h19.246l-.633 5.75c-1.405 12.792-2.702 45.19-2.072 51.75 1.253 13.066 3.947 18.267 16.474 31.792 3.97 4.286 7.051 7.93 6.846 8.098-.205.167-3.61.823-7.567 1.457-10.32 1.653-68.979 1.543-72.298-.137-7.04-3.561-.111-10.928 19.48-20.71 11.104-5.546 13.918-9.32 18.102-24.286 2.783-9.956 2.85-10.765 2.638-31.965l-.216-21.75z" fill="url(#d)" transform="translate(-227.714 -62.526)"/><path d="M629.049 556.361c-9.9.088-20.925.674-24.5 1.303-17.313 3.048-36.79 11.064-43.717 17.99-6.057 6.057-7.673 10.134-8.115 20.487-.675 15.797 2.816 30.458 9.267 38.91 2.743 3.593 3.385 5.476 3.993 11.717.397 4.089 1.363 10.501 2.146 14.25 2.284 10.928 2.637 10.367-6.824 10.886-19.99 1.097-44.506 16.512-49.322 31.014-4.029 12.128.966 23.074 14.566 31.922 5.155 3.353 19.855 8.31 29.023 9.787 3.435.553 6.434 1.193 6.663 1.422.52.52-4.081 19.056-6.795 27.375-2.366 7.251-7.392 12.38-18.739 19.12-7.753 4.607-10.05 7.216-18.996 21.587-6.607 10.614-9.15 17.347-9.15 24.215 0 13.916 14.233 30.179 29.193 33.355h.002c6.214 1.32 41.805.418 51.805-1.312 4.675-.81 13-2.008 18.5-2.666 38.03-4.55 50.165-14.864 44.557-37.873-1.818-7.457-9.554-18.441-17.967-25.514-10.604-8.913-12.253-11.805-12.758-22.367-.353-7.384.11-11.052 2.945-23.258l3.365-14.492 15.073-5.05c22.643-7.584 27.785-12.113 27.785-24.468 0-5.227-.588-7.67-3-12.478-3.858-7.69-12.64-16.341-20.947-20.637l-6.545-3.385-.004-17.17-.004-17.17 2.75-.558c1.512-.307 7.037-1.227 12.277-2.045 28.026-4.377 38.762-15.285 37.793-38.403-.547-13.049-3.246-18.901-13.266-28.76-7.84-7.714-14.484-11.672-26.154-15.581-6.289-2.107-8.5-2.298-24.9-2.153zm-.932 28.34c11.087 0 14.302.354 18.926 2.084 13.462 5.037 22.483 17.006 16.738 22.205-2.151 1.947-7.824 3.277-24.427 5.729-13.845 2.044-17.233 3.323-21.163 7.994-4.773 5.672-5.764 11.431-6.287 36.488-.446 21.415-.727 24.223-4.08 40.75l-3.601 17.75h-8.834l.562-6.25c3.097-34.354 3.092-42.943-.033-57.844l-1.592-7.593 2.541-2.541c3.805-3.805 5.066-9.615 3.244-14.95-.811-2.376-2.42-4.997-3.576-5.822-1.156-.825-4.129-3.187-6.605-5.25-2.477-2.062-5.11-3.75-5.852-3.75-1.407 0-4.017-12.219-3.353-15.703.547-2.873 9.934-7.209 22.449-10.37 9.942-2.51 13.484-2.927 24.943-2.927zM566.541 700.2c1.927.612 2.035 1.14 1.393 6.832-1.04 9.215-1.487 10.22-4.385 9.86-3.387-.422-16.794-4.138-19.69-5.457-2.29-1.044-2.244-1.131 2.412-4.442 5.416-3.85 17.151-7.783 20.27-6.793zm28.4 46.502h3.26l-2.426 10.25c-1.824 7.708-2.442 13.226-2.496 22.25-.126 21.305 3.255 28.825 20.364 45.29 5.447 5.242 9.906 9.887 9.906 10.323 0 1.199-6.285 2.694-18.5 4.403-6.05.846-15.5 2.204-21 3.015-5.5.812-17.005 1.475-25.565 1.473l-15.562-.004-2.777-2.898c-3.198-3.338-3.357-2.811 4.513-14.868 3.987-6.107 6.05-8.186 11.043-11.123 8.215-4.831 19.798-15.768 23.072-21.785 2.914-5.353 7.612-21.13 10.229-34.351 2.447-12.364 2.253-11.975 5.94-11.975zM410.234 152.826c-3.753-.06-8.211.002-13.683.147-17.393.46-20.47.805-28.442 3.2-22 6.611-31.486 15.209-31.539 28.583-.032 8.095 3.62 14.779 13.082 23.945 7.687 7.446 7.743 7.536 7.647 12.5-.114 5.88 2.266 11.097 5.797 12.705 2.345 1.069 2.453 1.519 2.453 10.358v9.242l-2.945 1.027c-4.538 1.582-11.45 8.548-14.801 14.916-3.716 7.062-5.953 16.017-6.84 27.399-.864 11.085.016 16.707 3.404 21.752 2.414 3.594 7.87 8.499 10.387 9.337.5.167-1.164 5.244-3.697 11.284-9.6 22.885-12.55 37.272-13.235 64.56-.65 25.926.194 29.788 8.219 37.602 7.312 7.119 14.27 9.264 33.008 10.176 7.7.374 15.8.788 18 .92 7.544.45 33.827-1.86 44.412-3.903 14.2-2.74 25.325-7.131 30.76-12.14 5.39-4.968 7.827-12.194 9.472-28.073 1.022-9.859.955-11.862-.576-17.162-2.92-10.113-6.744-15.085-19.463-25.31-4.711-3.788-14.58-16.713-16.857-22.077-2.852-6.718-5.191-17.21-3.916-17.566 10.217-2.859 22.914-9.786 27.492-15 1.7-1.936 3.598-5.407 4.219-7.713 3.389-12.586-4.85-23.24-24.297-31.426-4.814-2.026-9.93-4.776-11.37-6.109-2.524-2.34-2.598-2.727-2.113-11.111.307-5.297 1.427-11.401 2.87-15.64 2.15-6.32 2.67-7.032 5.703-7.802 4.553-1.155 11.6-8.644 13.566-14.416 2.801-8.22 1.634-26-2.406-36.674-2.953-7.8-12.944-18.474-21.117-22.558-7.002-3.499-11.932-4.79-23.194-4.973zm-1.72 28.031c8.357.285 11.768 1.944 16.045 6.356l3.38 3.488-3.603 3.3c-2.376 2.177-3.986 4.818-4.725 7.75-.616 2.448-2.502 8.275-4.193 12.95-7.775 21.496-8.32 24.205-8.346 41.5-.013 8.8.202 23.425.477 32.5l.5 16.5-7.115.291-7.116.291.414-14.29c.247-8.5 1.02-16.355 1.909-19.382 1.338-4.564 1.329-5.572-.094-9.763-1.433-4.222-2.056-16.814-2.455-49.647-.023-1.877-3.084-5.408-12.281-14.172-6.738-6.42-11.936-11.988-11.551-12.373 2.288-2.288 15.38-4.663 28.533-5.176 4.1-.16 7.435-.217 10.22-.123zm-22.909 152.788l13.125.279 13.124.277 2.353 8.871c3.134 11.814 6.908 19.438 14.672 29.649 8.062 10.602 11.903 14.612 17.941 18.722 2.62 1.783 5.263 4.336 5.871 5.672 1.155 2.535.4 16.092-1.025 18.397-1.014 1.64-17.549 5.735-28.617 7.086-10.564 1.29-42.603 1.268-50.455-.034-3-.497-5.842-1.458-6.317-2.134-1.51-2.152-.008-30.496 2.159-40.729 2.687-12.693 8.185-28.26 14.168-40.111l3.001-5.945zM628.549 136.508c-15.39.095-42.669 3.133-52 5.79-11.245 3.203-20.212 11.06-23.99 21.022-1.943 5.123-2.159 7.124-1.67 15.518.639 10.988 3.125 19.194 7.443 24.576l2.9 3.615-1.97 7.086c-1.647 5.922-1.998 10.617-2.139 28.586l-.17 21.5-5.453 5.5c-6.305 6.36-10.248 13.197-12.42 21.535-3.133 12.027-.99 20.137 7.549 28.573 5.817 5.746 16.757 11.342 24.683 12.628l3.499.569-.729 8.098c-.4 4.453-1.037 15.972-1.414 25.597l-.688 17.5-3.908 8.5c-3.324 7.228-3.917 9.547-3.967 15.5-.074 9.041 3.243 15.884 11.797 24.34 11.317 11.186 27.492 19.046 46.647 22.668 8.885 1.68 26.881 1.246 38.203-.92 9.094-1.74 21.946-6.9 28.242-11.338 14.79-10.425 16.418-33.453 3.43-48.56-2.275-2.647-7.25-7.296-11.057-10.332-3.806-3.037-8.466-7.623-10.355-10.19-4.945-6.718-13.726-24.829-18.506-38.168-2.267-6.325-4.465-12.394-4.885-13.486-.663-1.727.33-2.534 7.613-6.19 7.915-3.972 15.208-8.927 18.12-12.308 5.045-5.86 6.619-16.165 3.3-21.608-4.394-7.206-14.048-12.836-26.355-15.367l-5.75-1.181.096-16.68c.053-9.174.615-19.115 1.25-22.09l1.154-5.408 11.142-2.73c12.65-3.1 26.407-7.409 30.625-9.59 6.004-3.105 10.692-8.417 12.295-13.932 2.852-9.81-.898-19.367-12.396-31.59-12.88-13.69-24.543-21.4-37.815-24.996-6.423-1.74-10.49-2.11-22.351-2.037zm4.137 28.414c12.404.597 19.127 3.659 29.87 13.6l7.493 6.931-6.514 2.02c-3.581 1.11-10.836 2.954-16.12 4.1-12.87 2.788-14.647 3.548-19.7 8.437-8.838 8.55-11.08 17.599-11.133 44.941l-.033 17.75h-3.067c-1.686 0-3.888.442-4.894.98-1.327.71-2.164.576-3.047-.488-2.366-2.85-8.536-5.961-13.98-7.048l-5.51-1.1-.783-4.922c-.43-2.707-.513-8.384-.186-12.617.56-7.257.813-7.917 4.434-11.537 4.949-4.95 6.49-10.34 5.101-17.852-.562-3.042-1.235-5.877-1.496-6.299-.26-.421.224-3.432 1.076-6.691 3.058-11.69-.185-19.063-9.59-21.805-4.077-1.189-4.31-1.416-2.462-2.404 5.352-2.864 37.172-6.64 50.54-5.996zM604.85 288.375a9.144 9.144 0 0 1 2.898.758c1.815.796 4.538 1.708 6.05 2.027 2.495.526 2.75.988 2.75 4.967 0 4.33-.061 4.407-4.679 5.98-7.256 2.473-7.755 2.268-8.941-3.656-.578-2.887-1.385-6.001-1.793-6.922-.92-2.075 1.003-3.376 3.715-3.154zm-35.526 5.326c.715 0 5.225 8.225 5.225 9.528 0 1.054-1.89.353-4.615-1.713-1.587-1.203-3.012-2.265-3.164-2.362-.6-.377 1.778-5.453 2.554-5.453zm50.354 36.21l1.023 2.646c.563 1.455 2.723 7.37 4.801 13.144 11.721 32.57 20.4 46.117 41.332 64.524 7.5 6.595 7.52 8.478.121 11.978-3.076 1.455-8.588 3.24-12.25 3.969-10.657 2.119-17.11 2.343-25.656.892-14.368-2.437-23.979-6.884-32.65-15.109l-3.649-3.46 2.307-5.218c4.48-10.13 5.497-15.519 6.052-32.047.459-13.645 2.166-36.662 2.756-37.148.1-.083 3.7-1.054 7.998-2.16l7.815-2.012z" fill="url(#d)" transform="translate(-227.714 -62.526)"/></svg>