<svg xmlns:osb="http://www.openswatchbook.org/uri/2009/osb" xmlns="http://www.w3.org/2000/svg" height="930.31" width="570.336"><defs><linearGradient osb:paint="solid" id="c"><stop offset="0" stop-color="#fff"/></linearGradient><linearGradient osb:paint="solid" id="b"><stop offset="0"/></linearGradient><linearGradient osb:paint="solid" id="a"><stop offset="0" stop-color="#162d50"/></linearGradient></defs><path d="M62.45 125.591c-.316-.066-.328 3.801-.332 13.889l-.008 16.5 1.29-10.014c.526-4.08.789-6.883.79-9.328 0-2.444-.26-4.53-.784-7.172-.47-2.379-.767-3.835-.957-3.875z" style="isolation:auto;mix-blend-mode:normal" color="#000" overflow="visible" fill="#fc0"/><path d="M608.898 53.531c-23.238-.147-54.331-.013-80.841.319-13.255.165-25.366.38-34.774.634-9.408.255-16.115.548-18.566.87-8.612 1.129-18.944 2.845-28.457 4.662-9.513 1.817-18.207 3.735-23.543 5.27-5.775 1.66-19.95 5.494-31.5 8.52-15.164 3.975-25.39 6.719-33.04 8.909-7.649 2.19-12.722 3.826-17.583 5.586-3.03 1.097-6.84 2.708-10.961 4.594a323.156 323.156 0 0 0-12.832 6.242c-4.278 2.196-8.403 4.426-11.905 6.453-3.5 2.026-6.379 3.849-8.17 5.226-1.615 1.244-3.252 2.744-4.843 4.413a59.97 59.97 0 0 0-4.57 5.414 58.917 58.917 0 0 0-3.885 5.875c-1.136 1.973-2.09 3.932-2.795 5.787-.488 1.285-1.014 3.226-1.512 5.43-.498 2.203-.97 4.668-1.35 7.003-.38 2.336-.668 4.54-.802 6.221-.134 1.68-.113 2.838.127 3.078.17.171.327.1.44-.152.112-.252.18-.685.18-1.239 0-.584.12-1.142.337-1.666a5.235 5.235 0 0 1 .927-1.459c.791-.892 1.9-1.615 3.17-2.109s2.7-.758 4.137-.732a10.1 10.1 0 0 1 2.139.263 8.84 8.84 0 0 1 2.03.746c1.049.543 1.974 1.326 2.78 2.368.807 1.04 1.495 2.34 2.07 3.914.576 1.573 1.04 3.422 1.397 5.562.358 2.14.61 4.572.762 7.313.152 2.747.179 5.511.062 8.42-.116 2.908-.376 5.962-.793 9.289-.417 3.326-.992 6.927-1.742 10.93-.75 4.001-1.674 8.405-2.789 13.34-2.13 9.426-3.457 15.791-4.4 21.78-.944 5.99-1.505 11.602-2.11 19.526-.532 6.981-2.15 22.143-3.593 33.693a394.628 394.628 0 0 0-2.227 22.996c-.543 8.021-.918 16.877-1.225 28.004-.445 16.18-.975 28.878-1.623 38.62-.323 4.87-.676 9.002-1.064 12.46s-.81 6.243-1.27 8.42c-.322 1.523-.712 7.025-1.084 14.707-.371 7.683-.723 17.546-.97 27.793-.49 20.35-1.304 40.825-1.807 45.5-.649 6.028-2.111 15.529-3.615 24.1-1.504 8.57-3.049 16.211-3.861 18.515-.755 2.138-1.916 7.26-2.58 11.385-.666 4.125-2.075 10.68-3.133 14.565-.53 1.942-1.013 4.32-1.366 6.586-.353 2.265-.575 4.419-.582 5.914-.013 2.99-.47 7.235-1.013 9.435-.545 2.2-1.413 9.4-1.932 16-.541 6.89-1.023 12.606-1.574 18.088a448.05 448.05 0 0 1-1.988 16.684c-1.637 11.908-4.068 26.643-8.327 51.728-1.67 9.844-2.952 17.536-3.935 24.049-.983 6.513-1.668 11.847-2.143 16.975-.475 5.128-.741 10.05-.888 15.738-.148 5.688-.176 12.143-.176 20.338 0 8.939.095 16.302.39 22.797.296 6.494.79 12.12 1.586 17.586.797 5.465 1.897 10.768 3.4 16.619 1.505 5.85 3.415 12.248 5.833 19.898 1.08 3.415 2.147 6.523 3.248 9.365 1.1 2.843 2.235 5.422 3.45 7.782 1.213 2.36 2.507 4.499 3.927 6.465a40.33 40.33 0 0 0 4.683 5.418 43.747 43.747 0 0 0 5.715 4.636c2.108 1.446 4.435 2.806 7.026 4.125 2.59 1.32 5.445 2.597 8.61 3.88 3.167 1.281 6.643 2.567 10.476 3.901 2.787.97 6.222 2.345 9.511 3.776 3.29 1.43 6.432 2.918 8.635 4.119 4.406 2.401 10.485 5.34 13.51 6.531 3.025 1.191 8.875 3.866 13 5.944 2.151 1.083 5.518 2.417 9.351 3.744a169.77 169.77 0 0 0 12.149 3.697c7.7 2.016 18.05 4.747 23 6.068 4.95 1.322 16.42 3.618 25.486 5.104 9.067 1.486 18.249 3.323 20.404 4.084 1.716.605 6.238 1.62 12.252 2.818s13.52 2.579 21.202 3.912c7.68 1.334 15.535 2.621 22.25 3.633 6.714 1.012 12.29 1.749 15.406 1.983 6.488.486 10.974.936 15.281 1.648 4.308.712 8.437 1.688 14.219 3.23 2.062.55 5.174 1.176 8.527 1.74 3.353.565 6.948 1.07 9.973 1.376 6.05.612 15.5 1.835 21 2.718 7.965 1.28 16.253 2.334 24.566 3.15a437.461 437.461 0 0 0 24.72 1.73c8.07.33 15.867.412 23.097.232 7.23-.18 13.892-.621 19.691-1.336 5.764-.71 10.544-1.483 14.648-2.479a55.553 55.553 0 0 0 5.688-1.68 38.745 38.745 0 0 0 4.904-2.134 34.11 34.11 0 0 0 4.35-2.711 39.082 39.082 0 0 0 4.025-3.404 57.219 57.219 0 0 0 3.934-4.221c1.32-1.556 2.664-3.27 4.068-5.158a85.29 85.29 0 0 0 6.512-10.143 86.302 86.302 0 0 0 5.092-11.224c1.487-3.993 2.779-8.27 3.912-12.942 1.133-4.671 2.108-9.736 2.967-15.299.5-3.248.982-9.16 1.418-16.89.436-7.73.827-17.278 1.146-27.791.32-10.514.566-21.995.717-33.594.15-11.6.205-23.316.137-34.303-.303-48.281-.467-87.465-.448-119.752.02-32.286.223-57.675.657-78.367.216-10.346.49-19.517.828-27.789.337-8.272.737-15.646 1.207-22.395a512.469 512.469 0 0 1 1.62-18.646c.614-5.775 1.303-11.2 2.071-16.55 1.067-7.426 2.608-18.9 3.426-25.5 1.32-10.654 2.212-17.617 2.955-22.874.743-5.256 1.337-8.806 2.063-12.627.783-4.125 1.447-9.467 1.476-11.873.015-1.203.314-3.714.785-6.789a225.346 225.346 0 0 1 1.817-10.178c2.752-13.593 5.364-27.57 7.287-38.757.961-5.594 1.75-10.49 2.3-14.291.55-3.802.859-6.509.86-7.725.003-2.812.474-7.537 1.05-10.5.577-2.963 1.47-10.112 1.985-15.887 1.947-21.839 3.292-36.473 4.334-46.892 1.042-10.42 1.78-16.625 2.514-21.608 1.072-7.278 1.888-12.92 2.511-17.812.623-4.892 1.053-9.032 1.35-13.309.297-4.277.462-8.69.557-14.125.094-5.434.118-11.89.132-20.254.025-13.659-.037-22.402-.271-28.547-.117-3.072-.277-5.496-.492-7.558a54.073 54.073 0 0 0-.819-5.395c-.902-4.398-1.914-8.27-3.173-11.847a59.592 59.592 0 0 0-2.092-5.174 56.036 56.036 0 0 0-2.56-4.907 62.61 62.61 0 0 0-3.137-4.81 81.7 81.7 0 0 0-3.811-4.893c-2.788-3.326-6.094-6.82-10.055-10.716-2.978-2.93-5.374-5.243-7.457-7.131-2.082-1.889-3.85-3.353-5.576-4.586a39.437 39.437 0 0 0-5.316-3.197c-1.908-.963-4.041-1.887-6.67-2.963-3.264-1.337-6.047-2.388-9.246-3.278-3.2-.89-6.817-1.619-11.746-2.314-4.93-.696-11.171-1.357-19.623-2.112-8.453-.754-19.116-1.602-32.885-2.67-4.825-.373-16.826-.596-32.319-.695z" style="isolation:auto;mix-blend-mode:normal" color="#000" overflow="visible" fill="url(#c)" transform="translate(-214.832 -34.844)"/><path d="M569.717 34.846c-21.154.003-39.771.12-54.563.332-14.79.212-25.756.52-31.607.904-4.835.317-10.285.833-15.916 1.48a476.519 476.519 0 0 0-17.008 2.272c-5.562.846-10.873 1.759-15.502 2.672-4.629.913-8.574 1.827-11.404 2.676-7.427 2.227-42.982 11.73-47.5 12.695-1.65.352-6.6 1.709-11 3.014-4.4 1.304-13.625 4.042-20.5 6.082-3.291.976-6.217 1.9-9.037 2.879a144.2 144.2 0 0 0-8.399 3.207c-5.73 2.39-12.064 5.43-21.064 9.98-6.823 3.449-11.702 6.11-15.72 8.672a75.816 75.816 0 0 0-5.52 3.853 81.746 81.746 0 0 0-5.038 4.225c-2.352 2.126-4.636 4.676-6.777 7.51a74.485 74.485 0 0 0-5.918 9.219 77.415 77.415 0 0 0-4.603 10.095c-1.266 3.42-2.238 6.848-2.84 10.145-.325 1.78-.596 6.927-.785 14.377-.19 7.45-.3 17.204-.3 28.199v36.643l2.345 2.2c.644.606 1.594 1.182 2.607 1.622 1.012.44 2.087.743 2.978.805.795.054 1.394.1 1.836.197.443.097.728.246.895.508.167.26.216.635.186 1.181-.031.546-.142 1.265-.293 2.217-.34 2.136-1.045 9.336-1.565 16s-2.345 23.817-4.057 38.117c-1.295 10.823-2.107 18.771-2.683 27.612-.576 8.84-.915 18.573-1.262 32.966-.27 11.182-.614 20.659-1.014 28.102-.4 7.443-.855 12.852-1.35 15.898-.601 3.711-1.063 6.645-1.43 9.578-.369 2.934-.644 5.866-.874 9.575-.46 7.417-.74 17.937-1.226 37.77-.428 17.443-.713 27.14-1.25 34.628a163.088 163.088 0 0 1-1.047 10.266c-.446 3.33-1.004 6.802-1.725 11.105-1.706 10.175-3.77 20.494-4.586 22.93-.817 2.436-2.163 8.337-2.992 13.115-.829 4.778-2.173 10.886-2.988 13.572-.408 1.343-.78 3.071-1.051 4.772-.27 1.7-.44 3.374-.443 4.611-.007 2.475-.687 8.325-1.51 13-.824 4.675-1.5 10.975-1.502 14-.003 3.025-.671 9.55-1.485 14.5-.813 4.95-1.486 11.486-1.496 14.524-.005 1.519-.289 4.471-.744 8.006a248.716 248.716 0 0 1-1.767 11.494c-2.635 14.761-5.732 33.378-8.313 49.681-2.581 16.303-4.647 30.292-5.22 35.795-.39 3.745-.65 9.236-.774 16.233-.124 6.996-.112 15.5.04 25.267.135 8.8.314 15.952.632 22.15.318 6.2.776 11.447 1.469 16.436.693 4.99 1.62 9.72 2.882 14.89 1.262 5.171 2.857 10.78 4.881 17.524 1.872 6.238 3.699 11.704 5.547 16.53 1.849 4.825 3.72 9.008 5.684 12.68a70.25 70.25 0 0 0 3.023 5.14 56.2 56.2 0 0 0 3.213 4.467 48.357 48.357 0 0 0 7.203 7.31c1.576 1.293 3.876 2.819 6.625 4.442 2.75 1.622 5.947 3.342 9.319 5.021a189.995 189.995 0 0 0 10.361 4.777c3.444 1.46 6.787 2.743 9.754 3.711 2.092.683 4.785 1.738 7.437 2.887 2.653 1.149 5.266 2.391 7.2 3.451 3.867 2.12 9.956 5.06 13.53 6.531 3.576 1.472 10.55 4.662 15.5 7.092 2.476 1.215 5.85 2.615 9.294 3.893 3.444 1.277 6.957 2.432 9.707 3.154 5.5 1.445 14.95 3.935 21 5.535 6.05 1.6 19.55 4.428 30 6.282 10.45 1.853 21.513 4.105 24.584 5.005 2.376.697 6.987 1.708 12.765 2.848 5.779 1.14 12.723 2.409 19.766 3.623a939.184 939.184 0 0 0 20.354 3.295c6.17.92 11.37 1.601 14.53 1.86 6.828.557 12.329 1.165 16.934 1.89 4.606.725 8.317 1.568 11.567 2.598 3.182 1.008 8.519 2.128 13.799 2.996 5.28.867 10.503 1.482 13.457 1.482 1.373 0 4.268.276 7.824.72 3.556.446 7.773 1.06 11.795 1.735 8.043 1.35 20.7 3.097 28.125 3.881 6.682.706 14.142 1.155 21.863 1.361a394.27 394.27 0 0 0 23.44-.085c7.733-.258 15.215-.738 21.933-1.426 3.36-.344 6.527-.74 9.44-1.186 2.912-.445 5.57-.94 7.908-1.482 3.523-.817 6.807-1.857 9.908-3.154a52.464 52.464 0 0 0 8.807-4.702c2.787-1.849 5.444-3.992 8.025-6.464 2.581-2.473 5.086-5.275 7.568-8.442 1.945-2.48 3.619-4.71 5.102-6.822a88.091 88.091 0 0 0 3.957-6.125 79.944 79.944 0 0 0 3.293-6.244c1.04-2.192 2.046-4.54 3.102-7.178a122.63 122.63 0 0 0 3.101-8.635c.924-2.918 1.75-5.933 2.516-9.205.766-3.272 1.472-6.802 2.158-10.756.686-3.953 1.351-8.329 2.033-13.29.546-3.975.958-7.02 1.264-11.522.306-4.503.507-10.465.637-20.278.258-19.625.226-54.65.156-124.2-.04-38.5.028-75.75.168-104.75s.352-49.75.603-55.25c.936-20.478 1.696-34.585 2.524-45.58.414-5.499.845-10.218 1.324-14.57a307.08 307.08 0 0 1 1.611-12.35c2.451-16.263 3.845-25.654 4.63-31.534.783-5.88.958-8.248.972-10.467.015-2.475.682-7.425 1.482-11 .8-3.575 1.92-11.136 2.49-16.804.57-5.669 1.724-13.544 2.567-17.5 1.88-8.834 4.506-22.79 6.72-35.332 2.215-12.544 4.018-23.674 4.258-26.858.291-3.852 1.18-11.956 1.975-18.006.796-6.05 1.907-16.85 2.469-24a1898.988 1898.988 0 0 1 2.656-30.578c.852-8.903 1.573-15.508 1.875-16.783.476-2.012 1.34-8.25 2.244-15.822.904-7.572 1.85-16.476 2.49-23.817.413-4.722.716-11.036.912-18.05.196-7.015.285-14.73.268-22.252-.017-7.523-.138-14.853-.363-21.1-.226-6.247-.554-11.41-.985-14.598a127.366 127.366 0 0 0-1.597-9.351 95.224 95.224 0 0 0-2.219-8.57 79.982 79.982 0 0 0-2.941-7.973 76.521 76.521 0 0 0-3.77-7.555 83.746 83.746 0 0 0-4.701-7.322 103.549 103.549 0 0 0-5.738-7.272 141.558 141.558 0 0 0-6.877-7.404 209.713 209.713 0 0 0-8.121-7.719 110.87 110.87 0 0 0-6.268-5.273 92.423 92.423 0 0 0-6.375-4.551 83.294 83.294 0 0 0-6.59-3.873 81.717 81.717 0 0 0-6.912-3.24 87.273 87.273 0 0 0-7.34-2.649c-2.53-.789-5.15-1.487-7.875-2.101a125.06 125.06 0 0 0-8.515-1.6 163.945 163.945 0 0 0-9.262-1.14c-10.685-1.024-19.212-1.81-27.057-2.415a556.8 556.8 0 0 0-22.957-1.318c-7.952-.293-16.695-.458-27.701-.549-11.006-.09-24.277-.106-41.285-.103zm39.181 18.685c15.493.099 27.494.322 32.319.696 13.77 1.067 24.432 1.915 32.885 2.67 8.452.754 14.693 1.415 19.623 2.11 4.929.696 8.546 1.426 11.746 2.315 3.2.89 5.982 1.94 9.246 3.278 2.629 1.076 4.762 2 6.67 2.963a39.437 39.437 0 0 1 5.316 3.197c1.726 1.233 3.494 2.697 5.576 4.586 2.083 1.888 4.48 4.2 7.457 7.13 3.96 3.896 7.267 7.391 10.055 10.717a81.7 81.7 0 0 1 3.81 4.893 62.61 62.61 0 0 1 3.137 4.81 56.036 56.036 0 0 1 2.56 4.907 59.592 59.592 0 0 1 2.093 5.174c1.259 3.577 2.271 7.45 3.173 11.847.335 1.631.604 3.333.819 5.395.215 2.062.375 4.486.492 7.558.234 6.145.296 14.888.271 28.547-.014 8.364-.038 14.82-.132 20.254-.095 5.435-.26 9.848-.557 14.125-.297 4.277-.727 8.417-1.35 13.309-.623 4.891-1.44 10.534-2.511 17.812-.734 4.983-1.472 11.188-2.514 21.608-1.042 10.42-2.387 25.053-4.334 46.892-.515 5.775-1.408 12.924-1.984 15.887-.577 2.963-1.048 7.688-1.051 10.5-.001 1.216-.31 3.923-.86 7.725-.55 3.801-1.339 8.697-2.3 14.29-1.923 11.187-4.535 25.165-7.287 38.758a225.346 225.346 0 0 0-1.817 10.178c-.471 3.075-.77 5.586-.785 6.79-.029 2.405-.693 7.747-1.476 11.872-.726 3.821-1.32 7.37-2.063 12.627-.743 5.257-1.635 12.22-2.955 22.873-.818 6.6-2.36 18.075-3.426 25.5a448.652 448.652 0 0 0-2.07 16.551 512.469 512.469 0 0 0-1.621 18.646c-.47 6.749-.87 14.123-1.207 22.395-.338 8.272-.612 17.443-.828 27.79-.434 20.69-.637 46.08-.657 78.366-.019 32.287.145 71.47.448 119.752.068 10.987.014 22.704-.137 34.303-.151 11.6-.398 23.08-.717 33.594-.32 10.513-.71 20.06-1.146 27.79-.436 7.73-.917 13.643-1.418 16.891-.859 5.563-1.834 10.628-2.967 15.3-1.133 4.67-2.425 8.948-3.912 12.94a86.302 86.302 0 0 1-5.092 11.225 85.29 85.29 0 0 1-6.512 10.143 102.738 102.738 0 0 1-4.068 5.158 57.219 57.219 0 0 1-3.934 4.22 39.082 39.082 0 0 1-4.025 3.405 34.11 34.11 0 0 1-4.35 2.71c-1.53.802-3.152 1.507-4.904 2.136a55.553 55.553 0 0 1-5.688 1.68c-4.104.995-8.884 1.767-14.648 2.478-5.799.715-12.461 1.156-19.691 1.336-7.23.18-15.028.098-23.096-.233a437.461 437.461 0 0 1-24.72-1.728c-8.314-.817-16.602-1.871-24.567-3.15-5.5-.884-14.95-2.107-21-2.72-3.025-.306-6.62-.81-9.973-1.374-3.353-.565-6.465-1.19-8.527-1.74-5.782-1.543-9.911-2.519-14.219-3.231-4.307-.712-8.793-1.162-15.281-1.648-3.117-.234-8.692-.97-15.406-1.983-6.715-1.012-14.57-2.3-22.25-3.633-7.681-1.333-15.188-2.714-21.202-3.912-6.014-1.198-10.536-2.213-12.252-2.818-2.155-.76-11.337-2.598-20.404-4.084-9.067-1.486-20.536-3.782-25.486-5.104-4.95-1.32-15.3-4.052-23-6.068a169.77 169.77 0 0 1-12.149-3.697c-3.833-1.327-7.2-2.66-9.351-3.744-4.125-2.078-9.975-4.753-13-5.944-3.025-1.19-9.104-4.13-13.51-6.531-2.203-1.2-5.346-2.688-8.635-4.12-3.289-1.43-6.724-2.804-9.511-3.775-3.833-1.334-7.31-2.62-10.475-3.902-3.166-1.282-6.02-2.56-8.611-3.879-2.591-1.319-4.918-2.68-7.026-4.125a43.747 43.747 0 0 1-5.715-4.636 40.33 40.33 0 0 1-4.683-5.418c-1.42-1.966-2.714-4.106-3.928-6.465-1.214-2.36-2.348-4.939-3.45-7.782-1.1-2.842-2.168-5.95-3.247-9.365-2.418-7.65-4.328-14.048-5.832-19.898-1.504-5.85-2.604-11.154-3.4-16.62-.797-5.465-1.291-11.09-1.587-17.585-.295-6.495-.39-13.858-.39-22.797 0-8.195.028-14.65.176-20.338.147-5.688.413-10.61.888-15.738.475-5.128 1.16-10.462 2.143-16.975.983-6.513 2.264-14.205 3.935-24.049 4.259-25.085 6.69-39.82 8.327-51.728a448.05 448.05 0 0 0 1.988-16.684c.55-5.482 1.033-11.197 1.574-18.088.519-6.6 1.387-13.8 1.932-16 .544-2.2 1-6.445 1.013-9.435.007-1.495.23-3.649.582-5.914.353-2.266.837-4.644 1.366-6.586 1.058-3.885 2.467-10.44 3.132-14.565s1.826-9.247 2.58-11.385c.813-2.304 2.358-9.944 3.862-18.515s2.966-18.072 3.615-24.1c.503-4.675 1.316-25.15 1.807-45.5.247-10.247.599-20.11.97-27.793.372-7.682.762-13.184 1.084-14.707.46-2.177.882-4.962 1.27-8.42s.74-7.59 1.064-12.46c.648-9.742 1.178-22.44 1.623-38.62.307-11.127.682-19.983 1.225-28.004a394.628 394.628 0 0 1 2.227-22.996c1.443-11.55 3.061-26.712 3.593-33.693.605-7.924 1.166-13.537 2.11-19.526.943-5.989 2.27-12.354 4.4-21.78 1.115-4.935 2.04-9.339 2.79-13.34.75-4.003 1.324-7.604 1.741-10.93.417-3.327.677-6.38.793-9.29.117-2.908.09-5.672-.062-8.42-.152-2.74-.404-5.172-.762-7.312-.357-2.14-.82-3.989-1.396-5.562-.576-1.574-1.264-2.873-2.07-3.914-.807-1.042-1.732-1.825-2.782-2.368a8.84 8.84 0 0 0-2.03-.746c-.7-.165-1.42-.25-2.138-.263a10.971 10.971 0 0 0-4.137.732c-1.27.494-2.379 1.217-3.17 2.11-.395.446-.71.935-.927 1.458a4.319 4.319 0 0 0-.336 1.666c0 .554-.07.987-.182 1.239-.112.252-.268.323-.44.152-.24-.24-.26-1.397-.126-3.078.134-1.68.422-3.885.802-6.22.38-2.336.852-4.801 1.35-7.005.498-2.203 1.024-4.144 1.512-5.43.705-1.854 1.659-3.813 2.795-5.786a58.917 58.917 0 0 1 3.885-5.875 59.97 59.97 0 0 1 4.57-5.414c1.591-1.669 3.228-3.17 4.844-4.413 1.79-1.377 4.668-3.2 8.17-5.226 3.5-2.027 7.626-4.257 11.904-6.453a323.156 323.156 0 0 1 12.832-6.242c4.121-1.886 7.93-3.497 10.96-4.594 4.862-1.76 9.935-3.396 17.585-5.586 7.65-2.19 17.875-4.934 33.039-8.908 11.55-3.027 25.725-6.861 31.5-8.522 5.336-1.534 14.03-3.452 23.543-5.27 9.513-1.816 19.845-3.532 28.457-4.661 2.451-.322 9.158-.615 18.566-.87 9.408-.254 21.519-.469 34.774-.634 26.51-.332 57.603-.466 80.841-.319zM277.281 160.436c.19.04.486 1.495.957 3.875.523 2.642.784 4.727.783 7.171 0 2.445-.263 5.25-.789 9.329l-1.29 10.013.007-16.5c.004-10.088.017-13.955.332-13.888z" style="isolation:auto;mix-blend-mode:normal" color="#000" overflow="visible" fill="url(#b)" transform="translate(-214.832 -34.844)"/><path d="M294.533 150.568c-6.464.565-12.738 4.35-16.037 11.111-2.23 4.571-2.73 7.436-3.627 20.801-.572 8.525-1.285 18.711-1.586 22.635l-.547 7.135-3.925.627c-2.16.345-9.664 1.079-16.676 1.63-7.013.552-15 1.438-17.75 1.97-4.323.835-13.504 1.967-37.5 4.622-3.025.335-10.164.575-15.865.534-12.334-.09-16.584 1.549-20.883 8.044-2.263 3.42-2.752 5.265-2.752 10.395 0 5.323.443 6.866 3.017 10.53 1.899 2.7 5.05 5.36 8.5 7.173 5.342 2.808 5.753 2.867 15.983 2.235 14.645-.906 45.92-4.293 55.5-6.01 4.4-.79 12.387-1.732 17.75-2.096 7.908-.536 9.749-.403 9.746.707-.01 2.987-3.164 20.597-5.41 30.203-1.308 5.592-2.687 12.641-3.067 15.666-.379 3.025-1.793 9.1-3.142 13.5-1.992 6.495-6.349 32.75-6.371 38.39-.005 1.154-2.433 1.276-14.256.716-21.019-.997-47.262-4.822-56.02-8.166-7.088-2.707-17.123-1.29-20.603 2.906-.755.91-2.46 1.654-3.79 1.654-4.083 0-10.194 3.828-13.085 8.196-2.677 4.042-2.77 4.657-3.412 22.73-.363 10.216-.7 30.724-.748 45.574-.11 33.646-2.3 71.047-6.178 105.5-1.64 14.575-3.669 33.025-4.508 41-.839 7.975-3.07 26.65-4.955 41.5-1.886 14.85-4.078 32.4-4.873 39-1.512 12.55-5.096 53.387-6.074 69.207-.313 5.064-1.278 10.9-2.143 12.971-1.018 2.437-1.419 5.604-1.139 8.982 1.631 19.664 27.496 23.88 36.286 5.914 3.208-6.556 4.154-12.547 5.457-34.548.536-9.062 1.203-17.612 1.482-19 .28-1.39.989-9.276 1.576-17.526.588-8.25 1.924-20.85 2.969-28 2.55-17.454 5.363-40.375 9.023-73.5 1.672-15.125 3.916-34.925 4.987-44 3.13-26.534 4.06-43.665 5.039-93 1.033-52.087 1.388-57.314 3.85-56.533 5.076 1.611 25.322 4.813 36.109 5.711 6.875.572 34.325 1.373 61 1.781 44.077.675 49.366.937 58 2.86 5.225 1.163 10.554 2.13 11.844 2.148 5.43.077 34.794 9.619 40.164 13.05 8.057 5.151 14.29 18.114 16.045 33.376 1.414 12.299 1.13 36.958-.565 49.035-.832 5.926-2.656 20.517-4.055 32.424-10.922 93.013-11.227 96.987-12.244 159.853-.435 26.935-1.08 43.588-1.713 44.221-.686.686-4.468.404-11.685-.873-13.593-2.405-22.861-7.095-35.45-17.943-9.977-8.6-14.249-10.605-20.978-9.846-12.442 1.402-19.665 14.447-14.771 26.678 2.956 7.389 23.905 23.932 39.935 31.539 7.596 3.604 19.405 6.7 30.76 8.064 3.183.382 8.358 1.54 11.5 2.572 7.824 2.571 18.054 2.15 24.53-1.01 8.615-4.203 10.7-9.779 14.064-37.607 1.123-9.289 1.705-25.845 2.037-58 .322-31.166.927-48.843 1.969-57.5.827-6.875 2.22-19.25 3.093-27.5 2.012-18.994 6.895-60.278 10.073-85.146 2.684-21.01 3.113-38.872 1.427-59.627-1.354-16.677-3.755-25.49-10.566-38.807-11.841-23.149-23.215-30.517-64.414-41.728-4.125-1.123-9.975-2.345-13-2.717-3.025-.372-9.775-1.583-15-2.69-6.891-1.459-14.924-2.152-29.25-2.525-13.658-.356-19.74-.86-19.719-1.637.126-4.473 3.242-21.292 4.932-26.623 1.133-3.575 2.942-11.9 4.02-18.5 1.077-6.6 2.612-14.25 3.411-17 1.481-5.095 3.54-17.041 5.643-32.754.644-4.815 1.57-9.003 2.058-9.304.488-.302 6.403-.98 13.145-1.51 6.743-.53 15.635-1.6 19.76-2.375 4.125-.776 15.35-1.698 24.945-2.05 18.257-.672 22.29-1.542 26.92-5.804 3.372-3.103 5.135-7.809 5.135-13.703 0-6.357-1.846-10.852-5.838-14.21-5.109-4.3-9.28-5.156-21.102-4.339-5.808.402-15.065.862-20.57 1.024-5.505.162-13.605.987-18 1.832-4.395.845-10.915 1.772-14.49 2.056l-6.5.518.283-9.69c.156-5.329.803-12.616 1.437-16.19 2.053-11.573 1.65-18.092-1.404-22.704-4.051-6.118-10.704-8.774-17.168-8.209zm-49.652 274.856c-6.052.005-12.105 2.756-15.744 8.25-2.501 3.775-2.782 5.138-3.09 14.99-.412 13.165 1.192 23.586 4.346 28.232l2.328 3.432-3.668-.53c-2.018-.29-6.818-1.18-10.668-1.976-20.006-4.134-24.219-4.118-30.621.12-10.478 6.933-10.538 24.129-.11 30.991 6.688 4.401 43.552 10.547 63.258 10.547 8.878 0 10.11.204 9.58 1.582-.334.87-.607 3.345-.607 5.5v3.918h-26.936c-16.6 0-28.015.41-29.75 1.065-6.776 2.56-11.314 9.554-11.314 17.435 0 7.882 4.538 14.878 11.314 17.438 1.716.648 12.596 1.062 27.858 1.062 22.695 0 24.984.154 24.42 1.625-.92 2.397-5.752 67.446-6.315 85.012-.395 12.317-.17 16.22 1.207 20.957 3.255 11.195 8.507 18.896 14.516 21.285v.002c1.375.547 4.65 1.022 7.281 1.057 14.579.193 22.727-13.268 16.8-27.752-3.075-7.516-3.193-9.364-1.644-25.428.81-8.392 1.963-23.133 2.565-32.758 1.217-19.464 2.823-37.319 3.664-40.75.303-1.237 1.063-2.246 1.691-2.242 5.506.032 36.654 4.478 42.207 6.025 3.885 1.083 9.06 1.958 11.5 1.946 16.592-.082 24.798-18.953 13.727-31.563-2.325-2.648-4.825-3.97-11.145-5.896-10.403-3.17-15.07-4.033-32.187-5.957-23.103-2.597-21.46-2.077-21.46-6.805v-4.064l12.75.668c7.013.367 18.15 1.552 24.75 2.634 20.498 3.362 26.703 2.668 32.686-3.656 5.196-5.491 6.38-14.352 2.842-21.285-4.088-8.013-7.696-9.496-31.39-12.898l-18.499-2.657 9.407-4.95c14.287-7.521 27.41-17.324 30.166-22.536 6.1-11.534-1.003-26.036-13.576-27.723-6.557-.88-10.478.451-18.688 6.342-4.282 3.072-12.773 8.303-18.867 11.623-6.095 3.32-12.373 7.209-13.953 8.64-7.047 6.387-7.684 19.027-1.31 25.991l2.183 2.385-6.5-.631c-3.575-.347-11.75-.924-18.166-1.283l-11.666-.655 2.666-4.025c2.98-4.502 3.042-5.649 1.502-27.781-.783-11.257-1.169-13.045-3.608-16.73-3.632-5.489-9.68-8.228-15.732-8.223z"/></svg>