<svg xmlns:osb="http://www.openswatchbook.org/uri/2009/osb" xmlns="http://www.w3.org/2000/svg" height="900.793" width="541.132"><defs><linearGradient osb:paint="solid" id="c"><stop offset="0" stop-color="#fff"/></linearGradient><linearGradient osb:paint="solid" id="b"><stop offset="0"/></linearGradient><linearGradient osb:paint="solid" id="a"><stop offset="0" stop-color="#162d50"/></linearGradient></defs><path d="M524.828 68.572c-6.99-.001-14.21.083-20.584.252-6.373.17-11.898.425-15.492.766-6.075.577-17.12 1.926-24.545 3-10.372 1.5-17.512 2.487-23.55 3.222-6.04.736-10.978 1.219-16.95 1.708-9.474.775-17.784 1.53-25.527 2.351a587.354 587.354 0 0 0-22.127 2.746c-7.207 1.039-14.444 2.23-22.309 3.658-7.864 1.429-16.356 3.096-26.072 5.086-7.837 1.606-14.36 3.075-19.912 4.547-5.552 1.472-10.13 2.947-14.074 4.563a62.316 62.316 0 0 0-5.485 2.547 51.129 51.129 0 0 0-9.129 6.148 68.129 68.129 0 0 0-4.156 3.809c-1.46 1.446-2.7 2.833-3.814 4.365-1.115 1.531-2.105 3.207-3.067 5.228-.961 2.022-1.894 4.389-2.894 7.305-1.001 2.916-2.069 6.381-3.301 10.596-1.024 3.5-1.8 6.237-2.356 8.543-.556 2.306-.893 4.182-1.035 5.963-.142 1.78-.09 3.466.13 5.392.218 1.927.605 4.094 1.132 6.836.828 4.311 2.448 15.225 3.602 24.256.497 3.896.876 7.072 1.156 10.588.28 3.516.462 7.37.566 12.625.21 10.508.109 26.613-.13 56.787-.168 21.002-.39 37.323-.665 48.805-.274 11.482-.6 18.125-.974 19.777-.48 2.112-.912 4.975-1.313 8.889-.401 3.913-.771 8.876-1.129 15.187-.714 12.622-1.375 30.636-2.117 56.424-.391 13.613-.915 28.07-1.443 40.395-.529 12.325-1.061 22.518-1.471 27.605-.82 10.175-1.98 27.725-2.578 39-.3 5.638-.698 11.325-1.098 15.947-.4 4.622-.8 8.178-1.107 9.553-.194.868-.367 3.972-.524 9.479-.156 5.506-.296 13.417-.42 23.9-.246 20.966-.43 52.223-.568 95.121-.171 53.05-.215 84.507-.05 104.475.081 9.983.216 17.095.413 22.597.198 5.503.458 9.395.791 12.942.428 4.54.822 11.087 1.116 17.974.293 6.888.484 14.117.502 20.026.034 11.817.401 26.332.814 32.254.187 2.683.328 4.699.494 6.273.166 1.574.357 2.707.643 3.627.286.92.667 1.625 1.215 2.344.547.719 1.26 1.451 2.209 2.424.863.883 1.583 1.578 2.3 2.144.717.566 1.43 1.005 2.28 1.375 1.7.741 3.946 1.212 7.855 1.9a459.341 459.341 0 0 0 22.746 3.393c7.691.955 15.322 1.715 22.381 2.213 35.626 2.514 43.211 3.103 52.5 4.078 5.606.589 13.616 1.207 24.031 1.857 10.416.65 23.238 1.333 38.469 2.045 11.548.54 22.081 1.23 31.023 2.02 8.943.79 16.294 1.678 21.477 2.615 2.15.389 7.642.665 14.916.834 7.274.17 16.33.231 25.615.194 9.285-.038 18.796-.177 26.977-.409 8.18-.232 15.03-.557 18.992-.97 5.775-.603 16.8-1.615 24.5-2.248 7.649-.63 13.78-1.189 19.025-1.813 5.247-.624 9.608-1.314 13.717-2.207 4.109-.893 7.965-1.99 12.201-3.428 4.237-1.438 8.855-3.217 14.485-5.474 7.109-2.85 13.06-5.432 18.09-7.914a114.07 114.07 0 0 0 6.882-3.67 71.29 71.29 0 0 0 5.676-3.647 49.43 49.43 0 0 0 4.645-3.75 40.011 40.011 0 0 0 3.793-3.978 39.465 39.465 0 0 0 3.115-4.334 48.316 48.316 0 0 0 2.615-4.819c3.82-8.039 6.702-14.126 9.022-19.537 1.16-2.705 2.178-5.24 3.103-7.767a123.699 123.699 0 0 0 2.541-7.713c1.569-5.335 2.948-11.272 4.516-19.084 1.568-7.812 3.323-17.5 5.64-30.342.794-4.4 2.742-14.75 4.329-23 1.777-9.241 2.938-15.596 3.894-21.713.956-6.117 1.708-11.996 2.67-20.287 1.996-17.202 3.428-29.07 4.52-37.307 1.091-8.236 1.843-12.84 2.482-15.515.642-2.686 1.335-7.3 2.22-15.082.886-7.783 1.964-18.734 3.376-34.096.303-3.3.766-7.087 1.27-10.531.502-3.444 1.044-6.544 1.503-8.469.384-1.608.678-3.796.9-8.852.222-5.055.372-12.978.465-26.054.187-26.153.148-72.92.016-158.594-.092-59.743-.256-107.222-.48-140.525-.225-33.304-.51-52.432-.84-55.475-.569-5.225-1.412-22.55-1.875-38.5-.325-11.185-.655-19.074-1.106-25.248-.45-6.174-1.022-10.632-1.828-14.951a142.265 142.265 0 0 0-3.436-14.313c-1.348-4.546-2.885-8.826-4.554-12.722-1.67-3.896-3.473-7.406-5.36-10.41a46.08 46.08 0 0 0-2.886-4.114 29.883 29.883 0 0 0-2.971-3.262c-1.224-1.144-2.695-2.309-4.268-3.41a54.073 54.073 0 0 0-4.875-3.035c-1.628-.896-3.21-1.65-4.603-2.181-1.393-.531-2.595-.84-3.46-.844-1.005-.005-4.605-1.103-8-2.44a92.113 92.113 0 0 0-6.72-2.343 118.111 118.111 0 0 0-7.68-2.065c-5.5-1.292-11.822-2.425-19.341-3.447-7.52-1.022-16.235-1.934-26.516-2.787-10.28-.853-22.127-1.647-35.912-2.432-13.665-.778-23.53-1.444-31.096-2.137-7.565-.692-12.83-1.412-17.29-2.295-1.733-.342-5.86-.599-11.303-.771-5.443-.172-12.2-.26-19.19-.262z" style="isolation:auto;mix-blend-mode:normal" color="#000" overflow="visible" fill="url(#c)" transform="translate(-229.434 -49.604)"/><path d="M546.854 49.705c-6.926-.168-16.627-.119-32.079.076-16.763.212-26.424.39-33.76.809-3.667.209-6.755.477-9.857.84-3.102.362-6.22.818-9.951 1.402-13.876 2.172-23.448 3.604-30.197 4.492-6.75.888-10.676 1.232-13.264 1.227-3.443-.007-12.694.865-23.963 2.174s-24.556 3.055-36.076 4.8c-4.391.666-17.912 3.357-31.137 6.112-13.225 2.755-26.154 5.574-29.363 6.492a76.016 76.016 0 0 0-7.121 2.435 86.768 86.768 0 0 0-7.018 3.16 92.656 92.656 0 0 0-13.129 8.053 84.753 84.753 0 0 0-5.814 4.674 72.121 72.121 0 0 0-5.115 4.961 56.815 56.815 0 0 0-4.272 5.14 41.542 41.542 0 0 0-3.275 5.21c-.867 1.654-1.977 4.369-3.184 7.677-1.206 3.309-2.508 7.21-3.761 11.237a298.745 298.745 0 0 0-3.47 11.984c-1.009 3.807-1.824 7.27-2.298 9.922-.839 4.693-1.256 7.104-1.203 9.117.026 1.007.17 1.913.437 2.955.268 1.043.66 2.221 1.182 3.77.584 1.732 1.36 4.955 2.143 8.754a235.485 235.485 0 0 1 2.17 12.203c.51 3.422.903 6.274 1.205 9.424.301 3.15.513 6.596.66 11.205.294 9.218.335 23.086.343 48.531.01 27.658-.087 44.29-.529 56.553-.22 6.131-.528 11.171-.951 15.949-.423 4.778-.963 9.295-1.648 14.383-.422 3.13-.907 9.476-1.348 17.18a931.059 931.059 0 0 0-1.088 25.32c-1.12 38.668-1.82 61.57-2.37 75.744-.274 7.087-.51 11.992-.745 15.594-.235 3.602-.467 5.901-.729 7.777-.615 4.4-1.572 17-2.127 28-.554 11-1.732 27.2-2.617 36-.337 3.357-.61 7.22-.836 12.668-.225 5.448-.402 12.483-.547 22.187-.29 19.41-.45 49.497-.613 98.924-.13 39.584-.14 69.908-.027 91.237.113 21.328.349 33.66.709 37.263.294 2.948.665 9.665 1.025 18.11.36 8.445.708 18.619.96 28.484.502 19.73 1.12 36.08 1.372 36.332.252.252-.2 2.034-1.006 3.961-.56 1.343-.866 2.405-.93 3.438-.063 1.032.115 2.035.518 3.257.335 1.014 1.528 2.713 3.201 4.723 1.674 2.01 3.829 4.328 6.086 6.58 2.258 2.252 4.62 4.437 6.705 6.178 2.086 1.74 3.896 3.036 5.055 3.512 1.343.55 3.18 1.112 5.47 1.68 2.291.566 5.035 1.14 8.19 1.712 6.311 1.146 14.269 2.293 23.543 3.402 9.275 1.11 19.865 2.182 31.442 3.176 11.576.995 24.138 1.911 37.355 2.711 8.525.516 19.1 1.374 23.5 1.906 4.4.533 16.325 1.225 26.5 1.538 10.175.312 23.225.99 29 1.507 5.775.517 16.8 1.432 24.5 2.032 7.7.6 15.575 1.47 17.5 1.933 1.245.3 6.75.525 14.436.676 7.686.15 17.552.227 27.523.228 9.971.001 20.047-.073 28.147-.222 8.1-.15 14.224-.372 16.296-.672 3.798-.549 13.473-1.417 21.5-1.93 10.415-.665 20.278-1.582 28.582-2.625 4.153-.521 7.915-1.074 11.163-1.642 3.247-.569 5.98-1.153 8.07-1.737 4.897-1.368 10.668-3.36 16.724-5.703a329.173 329.173 0 0 0 18.434-7.812c6.036-2.776 11.766-5.632 16.602-8.297 2.417-1.333 4.611-2.617 6.507-3.82 1.897-1.204 3.496-2.325 4.723-3.33 2.676-2.194 5.059-4.48 7.31-7.131a57.8 57.8 0 0 0 3.3-4.286 75.273 75.273 0 0 0 3.222-5.04c2.15-3.657 4.327-7.952 6.695-13.16 2.368-5.21 4.926-11.33 7.834-18.637 1.282-3.22 2.373-6.161 3.38-9.256 1.005-3.095 1.926-6.343 2.868-10.172 1.885-7.658 3.851-17.641 6.745-33.383 2.679-14.575 6.217-33.7 7.865-42.5.824-4.4 1.858-10.874 2.863-17.762 1.005-6.887 1.98-14.188 2.68-20.238 2.142-18.505 3.303-28.45 4.11-34.61.805-6.159 1.257-8.532 1.976-11.89 1.008-4.708 2.069-11.433 2.969-18.494.9-7.06 1.639-14.457 2.001-20.506.347-5.775 1.293-15 2.102-20.5.92-6.256 1.623-11.32 2.156-16.686.533-5.365.895-11.032 1.137-18.498.242-7.465.364-16.726.412-29.28.049-12.555.025-28.402-.023-49.036-.156-66.807-.663-142.544-1.268-202.398-.302-29.928-.63-55.884-.951-74.768-.32-18.884-.634-30.696-.91-32.334-.278-1.65-.542-5.4-.742-10.113-.201-4.713-.34-10.387-.366-15.887-.038-8.155-.338-15.532-.955-22.371-.308-3.42-.695-6.705-1.168-9.887a143.42 143.42 0 0 0-1.68-9.263c-.649-3.005-1.39-5.936-2.23-8.825a128.7 128.7 0 0 0-2.822-8.566 140.847 140.847 0 0 0-3.451-8.49 169.535 169.535 0 0 0-4.123-8.598c-1.275-2.485-2.835-4.977-4.584-7.377a66.278 66.278 0 0 0-5.725-6.826c-2.035-2.119-4.166-4.048-6.297-5.688-2.13-1.64-4.263-2.99-6.3-3.955-2.843-1.344-6.274-2.745-10.075-4.134-3.8-1.39-7.97-2.768-12.285-4.069a266.236 266.236 0 0 0-13.166-3.603c-4.387-1.079-8.697-2.012-12.71-2.735-8.948-1.61-17.044-2.813-25.856-3.783-8.812-.97-18.34-1.706-30.145-2.38-21.174-1.21-33.86-1.973-42.463-2.622-8.603-.649-13.123-1.183-17.969-1.935a91.971 91.971 0 0 0-6.744-.805c-2.446-.202-5.215-.34-8.677-.424zm-22.026 18.867c6.99.002 13.747.09 19.19.262 5.442.172 9.57.429 11.302.771 4.46.883 9.726 1.603 17.291 2.295 7.566.693 17.431 1.36 31.096 2.137 13.785.785 25.631 1.579 35.912 2.432 10.28.853 18.997 1.765 26.516 2.787 7.519 1.022 13.841 2.155 19.342 3.447 2.75.646 5.295 1.332 7.68 2.065a92.113 92.113 0 0 1 6.72 2.343c3.394 1.337 6.994 2.435 8 2.44.864.004 2.066.313 3.459.844 1.392.53 2.975 1.285 4.603 2.181a54.073 54.073 0 0 1 4.875 3.035c1.573 1.101 3.044 2.266 4.268 3.41 1 .936 1.992 2.028 2.97 3.262a46.08 46.08 0 0 1 2.887 4.113c1.887 3.005 3.69 6.515 5.36 10.41 1.67 3.897 3.206 8.177 4.555 12.723a142.265 142.265 0 0 1 3.435 14.313c.806 4.319 1.378 8.777 1.828 14.951.45 6.174.78 14.063 1.106 25.248.463 15.95 1.306 33.275 1.875 38.5.33 3.043.615 22.171.84 55.475.224 33.303.388 80.782.48 140.525.132 85.674.17 132.441-.016 158.594-.093 13.076-.242 20.999-.464 26.054-.222 5.056-.517 7.244-.9 8.852-.46 1.925-1.002 5.025-1.505 8.469a207.426 207.426 0 0 0-1.27 10.531c-1.411 15.362-2.489 26.313-3.374 34.096-.886 7.782-1.58 12.396-2.221 15.082-.639 2.674-1.39 7.279-2.482 15.515-1.092 8.237-2.524 20.105-4.52 37.307-.962 8.29-1.714 14.17-2.67 20.287-.956 6.117-2.117 12.472-3.894 21.713-1.587 8.25-3.535 18.6-4.329 23-2.317 12.842-4.072 22.53-5.64 30.342-1.568 7.812-2.947 13.749-4.516 19.084a123.699 123.699 0 0 1-2.54 7.713 153.768 153.768 0 0 1-3.104 7.767c-2.32 5.411-5.202 11.498-9.022 19.537-.808 1.7-1.67 3.3-2.615 4.819a39.465 39.465 0 0 1-3.115 4.334 40.011 40.011 0 0 1-3.793 3.978 49.43 49.43 0 0 1-4.645 3.75 71.29 71.29 0 0 1-5.676 3.647 114.07 114.07 0 0 1-6.882 3.67c-5.03 2.482-10.981 5.063-18.09 7.914-5.63 2.257-10.248 4.036-14.485 5.474-4.236 1.438-8.092 2.535-12.2 3.428-4.11.893-8.471 1.583-13.718 2.207-5.246.624-11.376 1.183-19.025 1.813-7.7.633-18.725 1.645-24.5 2.248-3.962.413-10.812.738-18.992.97-8.18.232-17.692.37-26.977.409-9.284.037-18.34-.025-25.615-.194-7.274-.169-12.766-.445-14.916-.834-5.183-.937-12.534-1.826-21.477-2.615-8.942-.79-19.475-1.48-31.023-2.02-15.231-.712-28.053-1.394-38.469-2.045-10.415-.65-18.424-1.268-24.03-1.857-9.29-.975-16.875-1.564-52.5-4.078-7.06-.498-14.69-1.258-22.382-2.213a459.341 459.341 0 0 1-22.746-3.393c-3.909-.688-6.155-1.159-7.855-1.9-.85-.37-1.563-.809-2.28-1.375-.717-.566-1.437-1.26-2.3-2.144-.95-.973-1.662-1.705-2.21-2.424a7.224 7.224 0 0 1-1.214-2.344c-.286-.92-.477-2.053-.643-3.627-.166-1.574-.307-3.59-.494-6.273-.413-5.922-.78-20.437-.814-32.254-.018-5.91-.21-13.138-.502-20.026-.294-6.887-.688-13.433-1.116-17.974-.333-3.547-.593-7.44-.79-12.942-.198-5.502-.332-12.614-.415-22.597-.164-19.968-.12-51.425.051-104.475.138-42.898.322-74.155.568-95.121.124-10.483.264-18.394.42-23.9.157-5.507.33-8.61.524-9.479.306-1.375.707-4.93 1.107-9.553.4-4.622.799-10.31 1.098-15.947.599-11.275 1.758-28.825 2.578-39 .41-5.087.943-15.28 1.47-27.605a2979.718 2979.718 0 0 0 1.444-40.395c.742-25.788 1.403-43.802 2.117-56.424.358-6.31.728-11.274 1.13-15.187.4-3.914.833-6.777 1.312-8.889.374-1.652.7-8.295.974-19.777.275-11.482.498-27.803.664-48.805.24-30.174.34-46.279.131-56.787-.104-5.254-.286-9.11-.566-12.625-.28-3.516-.659-6.692-1.156-10.588-1.153-9.03-2.774-19.945-3.602-24.256-.527-2.742-.914-4.91-1.133-6.836-.219-1.926-.27-3.611-.129-5.392.142-1.781.48-3.657 1.035-5.963.557-2.306 1.332-5.042 2.356-8.543 1.232-4.215 2.3-7.68 3.3-10.596 1.001-2.916 1.934-5.283 2.895-7.305.962-2.021 1.952-3.697 3.067-5.228 1.114-1.532 2.354-2.92 3.814-4.365a68.129 68.129 0 0 1 4.156-3.809 51.129 51.129 0 0 1 9.129-6.148 62.316 62.316 0 0 1 5.485-2.547c3.944-1.616 8.522-3.09 14.074-4.563 5.551-1.472 12.075-2.941 19.912-4.547 9.716-1.99 18.208-3.657 26.072-5.086 7.865-1.428 15.102-2.62 22.309-3.658a587.354 587.354 0 0 1 22.127-2.746c7.743-.82 16.053-1.576 25.527-2.351 5.972-.49 10.91-.972 16.95-1.708 6.038-.735 13.178-1.722 23.55-3.222 7.425-1.074 18.47-2.423 24.545-3 3.594-.341 9.119-.596 15.492-.766 6.373-.17 13.595-.253 20.584-.252z" style="isolation:auto;mix-blend-mode:normal" color="#000" overflow="visible" fill="url(#b)" transform="translate(-229.434 -49.604)"/><path d="M333.84 215.316c-11.896.06-23.03.312-27.567.658-42.856 3.274-68.88 4.744-96.5 5.451-9.625.247-27.625 1.327-40 2.4-20.17 1.75-33.072 2.557-57.08 3.565-8.949.376-12.883 2.125-16.393 7.29-1.84 2.707-2.527 5.033-2.527 8.538 0 11.1 9.25 18.636 21.297 17.35 2.861-.306 11.953-1.022 20.203-1.592 23.65-1.634 41.67-3.084 45.797-3.682l3.797-.548-3.014 4.345c-2.563 3.698-3.235 6.06-4.51 15.846-1.453 11.158-2.39 27.833-2.511 44.75l-.059 8.25H162.83c-12.664 0-45.186 3.039-58.557 5.473-4.4.8-11.066 1.7-14.812 1.998-3.746.297-8.12 1.217-9.721 2.045-7.746 4.005-10.46 15.351-5.44 22.74 3.222 4.741 7.048 6.698 14.055 7.185 3.069.214 5.774.58 6.01.817 1.956 1.956 2.594 31.644 2.556 118.742-.043 99.179.471 117.443 4.457 158.5 3.628 37.363 7.528 47.992 18.516 50.457 6.903 1.549 13.466-.986 17.35-6.701 2.041-3.004 2.529-4.93 2.529-10v-6.28l4.25.762c2.338.42 12.35.743 22.25.721 14.074-.031 20.617-.517 30-2.23 6.6-1.206 17.85-3.14 25-4.301 7.15-1.161 19.975-3.852 28.5-5.979 27.796-6.934 55.245-12.043 96.926-18.045 19.54-2.813 40.23-2.377 54.426 1.149l9.851 2.447-.691 10.5c-1.323 20.055-1.222 22.208 1.217 25.627 4.741 6.647 16.195 8.411 23.027 3.547 5.548-3.95 7.487-9.798 8.322-25.088.408-7.472 1.279-16.621 1.934-20.33.85-4.816 1.048-18.39.691-47.5-.592-48.308-.759-51.292-5.23-93.256-2.933-27.524-3.461-36.098-3.461-56 .002-15.214.537-27.555 1.515-35 1.792-13.627 1.738-13.433 6.354-23 3.34-6.923 3.616-8.192 3.603-16.5-.01-6.804-.464-9.854-1.86-12.5-2.35-4.45-7.321-9.75-10.905-11.627-3.095-1.62-17.297-5.874-22.719-6.805-8.047-1.38-63.013-5.568-73.082-5.568h-10.918v-40.375c0-22.206-.26-41.669-.576-43.25l-.576-2.875 18.44.182c16.683.164 18.762.378 21.825 2.246 4.104 2.501 12.608 2.783 16.907.56 7.298-3.774 10.168-14.299 6.076-22.279-2.518-4.91-5.567-7.634-11.61-10.373-4.768-2.161-6.241-2.269-33.486-2.45-3.919-.025-7.968-.027-11.934-.007zm-42.3 34.42c2.061.02 3.45.159 3.733.41.635.564 1 15.548 1 41.09v40.201l-3.5.137c-1.925.075-11.375-.488-21-1.252s-28.075-1.725-41-2.137l-23.5-.748.348-18.5c.192-10.175 1.012-22.325 1.822-27 2.912-16.82 2.858-18.978-.602-23.75l-3.082-4.25 8.256-.066c4.541-.036 10.958-.238 14.258-.448 3.3-.21 14.775-.884 25.5-1.5 10.725-.615 24.225-1.467 30-1.892 2.973-.22 5.707-.316 7.768-.295zm-80.394 110.201l10.563.02c5.81.01 23.164.902 38.564 1.98 15.4 1.078 29.042 1.967 30.316 1.978 1.739.015 2.185.46 1.788 1.772-.512 1.69-2.4 16.532-4.612 36.25-.586 5.225-3.73 20.525-6.984 34-4.712 19.51-11.328 53.007-16.492 83.5-2.618 15.457-4.772 53.356-4.926 86.686l-.09 19.687-16.5 4.064c-9.075 2.236-27.525 5.898-41 8.14-22.81 3.793-39.352 5.334-46.5 4.333-10.678-1.496-21.752-3.923-22.053-4.836-.195-.59-1.103-10.974-2.017-23.074-1.372-18.149-1.706-40.206-1.903-126-.159-69.4-.615-107.468-1.375-114.424-.626-5.733-1.03-10.527-.896-10.654.994-.944 33.24-3.466 41.232-3.225l9.99.303.717 5c2.887 20.159 4.998 60.72 5.26 101 .243 37.4 2.228 112.21 3.13 118 1.378 8.828 7.118 13.785 15.962 13.785 6.242 0 11-2.55 13.93-7.467 2.416-4.055 2.46-8.833.556-60.818-.735-20.075-1.263-45.95-1.172-57.5.186-23.612-2.35-84.118-4.244-101.25l-1.244-11.25zm121.123 6.031c8.01-.048 22.607.799 42.016 2.483 29.026 2.518 39.488 4.028 39.488 5.695 0 .49-.718 2.276-1.594 3.969-5.33 10.308-7.36 28.678-7.386 66.795-.018 26.81.296 32.457 3.48 62.5 3.946 37.232 4.2 41.176 5.113 79.697l.657 27.672-7.385-2.033c-8.657-2.384-36.475-3.765-51.885-2.577-10.81.834-47.482 6.25-56.5 8.344-3.3.767-6.225 1.4-6.5 1.406-1.308.035 1.21-70.457 3-83.982 2.879-21.75 11.723-67.58 17.613-91.273 4.922-19.8 6.193-26.288 7.84-40.016 3.055-25.457 4.626-37.031 5.137-37.857.236-.383 1.563-.63 3.883-.747.87-.043 1.879-.069 3.023-.076z"/></svg>